<?xml version="1.0" encoding="UTF-8" standalone="no"?>
<!DOCTYPE svg PUBLIC "-//W3C//DTD SVG 1.1//EN"
 "http://www.w3.org/Graphics/SVG/1.1/DTD/svg11.dtd">
<!-- Generated by graphviz version 2.40.1 (20161225.0304)
 -->
<!-- Title: G Pages: 1 -->
<svg width="1958pt" height="442pt"
 viewBox="0.00 0.00 1958.26 441.84" xmlns="http://www.w3.org/2000/svg" xmlns:xlink="http://www.w3.org/1999/xlink">
<g id="graph0" class="graph" transform="scale(1 1) rotate(0) translate(4 437.8423)">
<title>G</title>
<polygon fill="#ffffff" stroke="transparent" points="-4,4 -4,-437.8423 1954.263,-437.8423 1954.263,4 -4,4"/>
<!-- A0 -->
<g id="node1" class="node">
<title>A0</title>
<polygon fill="none" stroke="#000000" points=".5,-312.8423 .5,-344.8423 229.5,-344.8423 229.5,-312.8423 .5,-312.8423"/>
<text text-anchor="start" x="99.163" y="-325.8423" font-family="Helvetica,sans-Serif" font-size="10.00" fill="#000000">Torneo</text>
<polygon fill="none" stroke="#000000" points=".5,-208.8423 .5,-312.8423 229.5,-312.8423 229.5,-208.8423 .5,-208.8423"/>
<text text-anchor="start" x="84.1605" y="-293.8423" font-family="Helvetica,sans-Serif" font-size="10.00" fill="#000000">nombre:Texto</text>
<text text-anchor="start" x="75.822" y="-281.8423" font-family="Helvetica,sans-Serif" font-size="10.00" fill="#000000">fechaInicio:Fecha</text>
<text text-anchor="start" x="46.6515" y="-269.8423" font-family="Helvetica,sans-Serif" font-size="10.00" fill="#000000">fechaInicioInscripciones:Fecha</text>
<text text-anchor="start" x="44.712" y="-257.8423" font-family="Helvetica,sans-Serif" font-size="10.00" fill="#000000">fechaCierreInscripciones:Fecha</text>
<text text-anchor="start" x="53.042" y="-245.8423" font-family="Helvetica,sans-Serif" font-size="10.00" fill="#000000">numeroParticipantes:Entero</text>
<text text-anchor="start" x="75.5485" y="-233.8423" font-family="Helvetica,sans-Serif" font-size="10.00" fill="#000000">limiteEdad:Entero</text>
<text text-anchor="start" x="64.1595" y="-221.8423" font-family="Helvetica,sans-Serif" font-size="10.00" fill="#000000">valorInscripcion:Entero</text>
<polygon fill="none" stroke="#000000" points=".5,-68.8423 .5,-208.8423 229.5,-208.8423 229.5,-68.8423 .5,-68.8423"/>
<text text-anchor="start" x="53.741" y="-189.8423" font-family="Helvetica,sans-Serif" font-size="10.00" fill="#000000">+Constructor(nombre:Texto</text>
<text text-anchor="start" x="75.822" y="-177.8423" font-family="Helvetica,sans-Serif" font-size="10.00" fill="#000000">fechaInicio:Fecha</text>
<text text-anchor="start" x="46.6515" y="-165.8423" font-family="Helvetica,sans-Serif" font-size="10.00" fill="#000000">fechaInicioInscripciones:Fecha</text>
<text text-anchor="start" x="44.712" y="-153.8423" font-family="Helvetica,sans-Serif" font-size="10.00" fill="#000000">fechaCierreInscripciones:Fecha</text>
<text text-anchor="start" x="53.042" y="-141.8423" font-family="Helvetica,sans-Serif" font-size="10.00" fill="#000000">numeroParticipantes:Entero</text>
<text text-anchor="start" x="75.5485" y="-129.8423" font-family="Helvetica,sans-Serif" font-size="10.00" fill="#000000">limiteEdad:Entero</text>
<text text-anchor="start" x="64.1595" y="-117.8423" font-family="Helvetica,sans-Serif" font-size="10.00" fill="#000000">valorInscripcion:Entero</text>
<text text-anchor="start" x="64.1555" y="-105.8423" font-family="Helvetica,sans-Serif" font-size="10.00" fill="#000000">tipoTorneo:TipoTorneo</text>
<text text-anchor="start" x="58.8855" y="-93.8423" font-family="Helvetica,sans-Serif" font-size="10.00" fill="#000000">caracter:CaracterTorneo)</text>
<text text-anchor="start" x="10.4025" y="-81.8423" font-family="Helvetica,sans-Serif" font-size="10.00" fill="#000000">+registrarParticipante(participante:Participante)</text>
</g>
<!-- A1 -->
<g id="node2" class="node">
<title>A1</title>
<polygon fill="none" stroke="#000000" points="310.5,-389.8423 310.5,-433.8423 381.5,-433.8423 381.5,-389.8423 310.5,-389.8423"/>
<text text-anchor="start" x="321.264" y="-414.8423" font-family="Helvetica,sans-Serif" font-size="10.00" fill="#000000">&lt;&lt;Enum&gt;&gt;</text>
<text text-anchor="start" x="320.44" y="-402.8423" font-family="Helvetica,sans-Serif" font-size="10.00" fill="#000000">TipoTorneo</text>
<polygon fill="none" stroke="#000000" points="310.5,-321.8423 310.5,-389.8423 381.5,-389.8423 381.5,-321.8423 310.5,-321.8423"/>
<text text-anchor="start" x="329.6075" y="-370.8423" font-family="Helvetica,sans-Serif" font-size="10.00" fill="#000000">LOCAL</text>
<text text-anchor="start" x="320.164" y="-358.8423" font-family="Helvetica,sans-Serif" font-size="10.00" fill="#000000">REGIONAL</text>
<text text-anchor="start" x="320.444" y="-346.8423" font-family="Helvetica,sans-Serif" font-size="10.00" fill="#000000">NACIONAL</text>
<text text-anchor="start" x="323.5035" y="-334.8423" font-family="Helvetica,sans-Serif" font-size="10.00" fill="#000000">MUNDIAL</text>
</g>
<!-- A0&#45;&gt;A1 -->
<g id="edge3" class="edge">
<title>A0&#45;&gt;A1</title>
<path fill="none" stroke="#000000" d="M229.3232,-291.8414C255.099,-310.9221 280.9196,-330.0361 301.6501,-345.382"/>
<polygon fill="#000000" stroke="#000000" points="309.9155,-351.5005 299.2006,-349.1675 305.8967,-348.5256 301.878,-345.5507 301.878,-345.5507 301.878,-345.5507 305.8967,-348.5256 304.5554,-341.9339 309.9155,-351.5005 309.9155,-351.5005"/>
<text text-anchor="middle" x="290.3177" y="-344.5094" font-family="Helvetica,sans-Serif" font-size="10.00" fill="#000000">tipoTorneo1</text>
<text text-anchor="middle" x="248.921" y="-292.8325" font-family="Helvetica,sans-Serif" font-size="10.00" fill="#000000">*</text>
</g>
<!-- A4 -->
<g id="node5" class="node">
<title>A4</title>
<polygon fill="none" stroke="#000000" points="551.5475,-173.8423 462.1505,-173.8423 462.1505,-137.8423 551.5475,-137.8423 551.5475,-173.8423"/>
<text text-anchor="middle" x="506.849" y="-158.8423" font-family="Helvetica,sans-Serif" font-size="10.00" fill="#000000">&lt;&lt;interface&gt;&gt;</text>
<text text-anchor="middle" x="506.849" y="-146.8423" font-family="Helvetica,sans-Serif" font-size="10.00" fill="#000000">Participante</text>
</g>
<!-- A0&#45;&gt;A4 -->
<g id="edge4" class="edge">
<title>A0&#45;&gt;A4</title>
<path fill="none" stroke="#000000" d="M240.1558,-116.0913C252.8419,-109.9617 265.8916,-104.6999 279,-100.8423 335.7066,-84.1544 354.9175,-85.4894 412,-100.8423 434.9054,-107.003 457.9848,-120.1974 475.6418,-132.1184"/>
<polygon fill="none" stroke="#000000" points="239.8135,-116.2646 236.2689,-122.5444 229.1088,-121.6877 232.6535,-115.4079 239.8135,-116.2646"/>
<polygon fill="#000000" stroke="#000000" points="483.8497,-137.8319 473.0714,-135.8121 479.746,-134.9753 475.6423,-132.1188 475.6423,-132.1188 475.6423,-132.1188 479.746,-134.9753 478.2133,-128.4254 483.8497,-137.8319 483.8497,-137.8319"/>
<text text-anchor="middle" x="464.144" y="-131.4134" font-family="Helvetica,sans-Serif" font-size="10.00" fill="#000000">participantes*</text>
<text text-anchor="middle" x="241.4586" y="-102.9561" font-family="Helvetica,sans-Serif" font-size="10.00" fill="#000000">1</text>
</g>
<!-- A8 -->
<g id="node9" class="node">
<title>A8</title>
<polygon fill="none" stroke="#000000" points="300.5,-153.8423 300.5,-197.8423 390.5,-197.8423 390.5,-153.8423 300.5,-153.8423"/>
<text text-anchor="start" x="320.764" y="-178.8423" font-family="Helvetica,sans-Serif" font-size="10.00" fill="#000000">&lt;&lt;Enum&gt;&gt;</text>
<text text-anchor="start" x="310.4965" y="-166.8423" font-family="Helvetica,sans-Serif" font-size="10.00" fill="#000000">CaracterTorneo</text>
<polygon fill="none" stroke="#000000" points="300.5,-109.8423 300.5,-153.8423 390.5,-153.8423 390.5,-109.8423 300.5,-109.8423"/>
<text text-anchor="start" x="317.445" y="-134.8423" font-family="Helvetica,sans-Serif" font-size="10.00" fill="#000000">INDIVIDUAL</text>
<text text-anchor="start" x="324.943" y="-122.8423" font-family="Helvetica,sans-Serif" font-size="10.00" fill="#000000">GRUPAL</text>
</g>
<!-- A0&#45;&gt;A8 -->
<g id="edge2" class="edge">
<title>A0&#45;&gt;A8</title>
<path fill="none" stroke="#000000" d="M229.3232,-180.4976C250.6285,-175.6094 271.9645,-170.7141 290.4313,-166.4771"/>
<polygon fill="#000000" stroke="#000000" points="300.3771,-164.1952 291.6367,-170.8176 295.5037,-165.3134 290.6303,-166.4315 290.6303,-166.4315 290.6303,-166.4315 295.5037,-165.3134 289.624,-162.0455 300.3771,-164.1952 300.3771,-164.1952"/>
<text text-anchor="middle" x="284.6001" y="-173.487" font-family="Helvetica,sans-Serif" font-size="10.00" fill="#000000">caracter1</text>
<text text-anchor="middle" x="245.1002" y="-165.2058" font-family="Helvetica,sans-Serif" font-size="10.00" fill="#000000">*</text>
</g>
<!-- A11 -->
<g id="node12" class="node">
<title>A11</title>
<polygon fill="none" stroke="#000000" points="279.5,-271.8423 279.5,-303.8423 412.5,-303.8423 412.5,-271.8423 279.5,-271.8423"/>
<text text-anchor="start" x="328.2185" y="-284.8423" font-family="Helvetica,sans-Serif" font-size="10.00" fill="#000000">Reporte</text>
<polygon fill="none" stroke="#000000" points="279.5,-215.8423 279.5,-271.8423 412.5,-271.8423 412.5,-215.8423 279.5,-215.8423"/>
<text text-anchor="start" x="318.4895" y="-252.8423" font-family="Helvetica,sans-Serif" font-size="10.00" fill="#000000">fecha:Fecha</text>
<text text-anchor="start" x="289.042" y="-240.8423" font-family="Helvetica,sans-Serif" font-size="10.00" fill="#000000">participanteA:Participante</text>
<text text-anchor="start" x="289.042" y="-228.8423" font-family="Helvetica,sans-Serif" font-size="10.00" fill="#000000">participanteB:Participante</text>
</g>
<!-- A0&#45;&gt;A11 -->
<g id="edge1" class="edge">
<title>A0&#45;&gt;A11</title>
<path fill="none" stroke="#000000" stroke-dasharray="5,2" d="M229.3232,-233.1871C242.7253,-236.262 256.1395,-239.3397 268.844,-242.2546"/>
<polygon fill="#000000" stroke="#000000" points="278.8669,-244.5542 268.1138,-246.7039 273.9935,-243.436 269.1201,-242.3179 269.1201,-242.3179 269.1201,-242.3179 273.9935,-243.436 270.1265,-237.9318 278.8669,-244.5542 278.8669,-244.5542"/>
</g>
<!-- A2 -->
<g id="node3" class="node">
<title>A2</title>
<polygon fill="none" stroke="#000000" points="1273.0463,-130.8423 1159.9147,-130.8423 1159.9147,-94.8423 1273.0463,-94.8423 1273.0463,-130.8423"/>
<text text-anchor="middle" x="1216.4805" y="-115.8423" font-family="Helvetica,sans-Serif" font-size="10.00" fill="#000000">&lt;&lt;interface&gt;&gt;</text>
<text text-anchor="middle" x="1216.4805" y="-103.8423" font-family="Helvetica,sans-Serif" font-size="10.00" fill="#000000">RegistroEstadistica</text>
</g>
<!-- A3 -->
<g id="node4" class="node">
<title>A3</title>
<polygon fill="none" stroke="#000000" points="1323.763,-138.8423 1323.763,-170.8423 1514.763,-170.8423 1514.763,-138.8423 1323.763,-138.8423"/>
<text text-anchor="start" x="1367.0375" y="-151.8423" font-family="Helvetica,sans-Serif" font-size="10.00" fill="#000000">RegistroEstadisticaImpl</text>
<polygon fill="none" stroke="#000000" points="1323.763,-106.8423 1323.763,-138.8423 1514.763,-138.8423 1514.763,-106.8423 1323.763,-106.8423"/>
<text text-anchor="start" x="1333.416" y="-119.8423" font-family="Helvetica,sans-Serif" font-size="10.00" fill="#000000">estadisticas:ValorEstadistica［*］</text>
</g>
<!-- A2&#45;&gt;A3 -->
<g id="edge18" class="edge">
<title>A2&#45;&gt;A3</title>
<path fill="none" stroke="#000000" d="M1283.1491,-121.4115C1295.9299,-123.0542 1309.5449,-124.8042 1323.0312,-126.5376"/>
<polygon fill="none" stroke="#000000" points="1283.4611,-117.9228 1273.0964,-120.1194 1282.5686,-124.8657 1283.4611,-117.9228"/>
</g>
<!-- A2&#45;&gt;A4 -->
<g id="edge17" class="edge">
<title>A2&#45;&gt;A4</title>
<path fill="none" stroke="#000000" d="M1149.712,-124.3032C1136.4609,-126.5196 1122.645,-128.7895 1109.698,-130.8423 885.9449,-166.3192 827.356,-192.9051 601.698,-172.8423 585.3678,-171.3904 567.6407,-168.5589 551.9793,-165.6167"/>
<polygon fill="none" stroke="#000000" points="1150.4294,-127.7318 1159.7113,-122.6232 1149.2695,-120.8286 1150.4294,-127.7318"/>
</g>
<!-- A3JA9 -->
<!-- A3&#45;&gt;A3JA9 -->
<g id="edge10" class="edge">
<title>A3&#45;&gt;A3JA9</title>
<path fill="none" stroke="#000000" d="M1514.4267,-139.7779C1564.3236,-140.2659 1616.3207,-140.7744 1622.6254,-140.8361"/>
<text text-anchor="middle" x="1532.6347" y="-128.5032" font-family="Helvetica,sans-Serif" font-size="10.00" fill="#000000">*</text>
</g>
<!-- A5 -->
<g id="node6" class="node">
<title>A5</title>
<polygon fill="none" stroke="#000000" points="662.198,-38.8423 662.198,-70.8423 743.198,-70.8423 743.198,-38.8423 662.198,-38.8423"/>
<text text-anchor="start" x="687.136" y="-51.8423" font-family="Helvetica,sans-Serif" font-size="10.00" fill="#000000">Equipo</text>
<polygon fill="none" stroke="#000000" points="662.198,-6.8423 662.198,-38.8423 743.198,-38.8423 743.198,-6.8423 662.198,-6.8423"/>
<text text-anchor="start" x="671.8585" y="-19.8423" font-family="Helvetica,sans-Serif" font-size="10.00" fill="#000000">nombre:Texto</text>
</g>
<!-- A4&#45;&gt;A5 -->
<g id="edge9" class="edge">
<title>A4&#45;&gt;A5</title>
<path fill="none" stroke="#000000" d="M545.5582,-132.6583C579.0915,-112.5743 627.4432,-83.6151 661.5362,-63.1958"/>
<polygon fill="none" stroke="#000000" points="543.7248,-129.6766 536.9442,-137.8175 547.3216,-135.6819 543.7248,-129.6766"/>
</g>
<!-- A7 -->
<g id="node8" class="node">
<title>A7</title>
<polygon fill="none" stroke="#000000" points="985.198,-89.8423 985.198,-121.8423 1110.198,-121.8423 1110.198,-89.8423 985.198,-89.8423"/>
<text text-anchor="start" x="1029.636" y="-102.8423" font-family="Helvetica,sans-Serif" font-size="10.00" fill="#000000">Jugador</text>
<polygon fill="none" stroke="#000000" points="985.198,-57.8423 985.198,-89.8423 1110.198,-89.8423 1110.198,-57.8423 985.198,-57.8423"/>
<text text-anchor="start" x="995.187" y="-70.8423" font-family="Helvetica,sans-Serif" font-size="10.00" fill="#000000">fechaNacimiento:Fecha</text>
</g>
<!-- A4&#45;&gt;A7 -->
<g id="edge8" class="edge">
<title>A4&#45;&gt;A7</title>
<path fill="none" stroke="#000000" d="M561.6711,-159.4692C643.8518,-163.5529 803.3593,-166.2203 934.698,-136.8423 951.3267,-133.1228 968.6216,-127.0951 984.5194,-120.5787"/>
<polygon fill="none" stroke="#000000" points="561.7285,-155.9675 551.5592,-158.9398 561.3625,-162.9579 561.7285,-155.9675"/>
</g>
<!-- A5&#45;&gt;A2 -->
<g id="edge20" class="edge">
<title>A5&#45;&gt;A2</title>
<path fill="none" stroke="#000000" d="M742.9802,-27.0437C773.0211,-18.9888 815.0281,-9.0444 852.698,-4.8423 967.8678,8.005 1002.6542,-4.4491 1109.698,-48.8423 1135.5521,-59.5646 1162.5741,-75.8161 1182.9665,-89.2591"/>
<polygon fill="#000000" stroke="#000000" points="1191.2775,-94.8241 1180.4645,-92.9994 1187.1229,-92.0422 1182.9682,-89.2602 1182.9682,-89.2602 1182.9682,-89.2602 1187.1229,-92.0422 1185.472,-85.5211 1191.2775,-94.8241 1191.2775,-94.8241"/>
</g>
<!-- A6 -->
<g id="node7" class="node">
<title>A6</title>
<polygon fill="none" stroke="#000000" points="852.698,-95.8423 852.698,-127.8423 934.698,-127.8423 934.698,-95.8423 852.698,-95.8423"/>
<text text-anchor="start" x="875.081" y="-108.8423" font-family="Helvetica,sans-Serif" font-size="10.00" fill="#000000">Persona</text>
<polygon fill="none" stroke="#000000" points="852.698,-27.8423 852.698,-95.8423 934.698,-95.8423 934.698,-27.8423 852.698,-27.8423"/>
<text text-anchor="start" x="862.8585" y="-76.8423" font-family="Helvetica,sans-Serif" font-size="10.00" fill="#000000">nombre:Texto</text>
<text text-anchor="start" x="862.5795" y="-64.8423" font-family="Helvetica,sans-Serif" font-size="10.00" fill="#000000">apellido:Texto</text>
<text text-anchor="start" x="867.863" y="-52.8423" font-family="Helvetica,sans-Serif" font-size="10.00" fill="#000000">email:Texto</text>
<text text-anchor="start" x="865.0835" y="-40.8423" font-family="Helvetica,sans-Serif" font-size="10.00" fill="#000000">celular:Texto</text>
</g>
<!-- A5&#45;&gt;A6 -->
<g id="edge5" class="edge">
<title>A5&#45;&gt;A6</title>
<path fill="none" stroke="#000000" d="M754.6401,-49.5224C781.9637,-55.087 815.2485,-61.8657 842.4025,-67.3957"/>
<polygon fill="none" stroke="#000000" points="754.5689,-49.508 747.8913,-52.2302 742.8102,-47.1132 749.4878,-44.3911 754.5689,-49.508"/>
<polygon fill="#000000" stroke="#000000" points="852.4841,-69.4489 841.7872,-71.8627 847.5847,-68.4511 842.6853,-67.4532 842.6853,-67.4532 842.6853,-67.4532 847.5847,-68.4511 843.5833,-63.0437 852.4841,-69.4489 852.4841,-69.4489"/>
<text text-anchor="middle" x="833.0358" y="-71.114" font-family="Helvetica,sans-Serif" font-size="10.00" fill="#000000">representante1</text>
<text text-anchor="middle" x="762.2585" y="-39.4481" font-family="Helvetica,sans-Serif" font-size="10.00" fill="#000000">1</text>
</g>
<!-- A5&#45;&gt;A7 -->
<g id="edge7" class="edge">
<title>A5&#45;&gt;A7</title>
<path fill="none" stroke="#000000" d="M754.8896,-23.6122C802.7192,-12.281 874.7287,-1.5011 934.698,-18.8423 957.9866,-25.5767 981.0911,-38.7252 1000.247,-51.8956"/>
<polygon fill="none" stroke="#000000" points="754.6202,-23.6789 749.7586,-29.0048 742.9726,-26.5657 747.8341,-21.2398 754.6202,-23.6789"/>
<polygon fill="#000000" stroke="#000000" points="1008.4796,-57.7234 997.7176,-55.6185 1004.3986,-54.8345 1000.3176,-51.9456 1000.3176,-51.9456 1000.3176,-51.9456 1004.3986,-54.8345 1002.9176,-48.2727 1008.4796,-57.7234 1008.4796,-57.7234"/>
<text text-anchor="middle" x="988.8015" y="-51.1494" font-family="Helvetica,sans-Serif" font-size="10.00" fill="#000000">jugador*</text>
<text text-anchor="middle" x="758.5332" y="-11.0011" font-family="Helvetica,sans-Serif" font-size="10.00" fill="#000000">1</text>
</g>
<!-- A6&#45;&gt;A7 -->
<g id="edge6" class="edge">
<title>A6&#45;&gt;A7</title>
<path fill="none" stroke="#000000" d="M945.1692,-81.8661C957.8039,-82.8539 971.4674,-83.922 984.563,-84.9458"/>
<polygon fill="none" stroke="#000000" points="945.0756,-78.3482 934.8332,-81.0581 944.53,-85.3269 945.0756,-78.3482"/>
</g>
<!-- A7&#45;&gt;A2 -->
<g id="edge19" class="edge">
<title>A7&#45;&gt;A2</title>
<path fill="none" stroke="#000000" d="M1109.7516,-98.3413C1122.8108,-100.1157 1136.6243,-101.9925 1149.8257,-103.7861"/>
<polygon fill="#000000" stroke="#000000" points="1159.779,-105.1384 1149.2642,-108.2511 1154.8245,-104.4652 1149.8701,-103.792 1149.8701,-103.792 1149.8701,-103.792 1154.8245,-104.4652 1150.4759,-99.333 1159.779,-105.1384 1159.779,-105.1384"/>
</g>
<!-- A9 -->
<g id="node10" class="node">
<title>A9</title>
<polygon fill="none" stroke="#000000" points="1732.763,-140.8423 1732.763,-172.8423 1813.763,-172.8423 1813.763,-140.8423 1732.763,-140.8423"/>
<text text-anchor="start" x="1749.092" y="-153.8423" font-family="Helvetica,sans-Serif" font-size="10.00" fill="#000000">Estadistica</text>
<polygon fill="none" stroke="#000000" points="1732.763,-108.8423 1732.763,-140.8423 1813.763,-140.8423 1813.763,-108.8423 1732.763,-108.8423"/>
<text text-anchor="start" x="1742.4235" y="-121.8423" font-family="Helvetica,sans-Serif" font-size="10.00" fill="#000000">nombre:Texto</text>
</g>
<!-- A13 -->
<g id="node14" class="node">
<title>A13</title>
<polygon fill="none" stroke="#000000" points="1863.763,-146.8423 1863.763,-190.8423 1950.763,-190.8423 1950.763,-146.8423 1863.763,-146.8423"/>
<text text-anchor="start" x="1882.527" y="-171.8423" font-family="Helvetica,sans-Serif" font-size="10.00" fill="#000000">&lt;&lt;Enum&gt;&gt;</text>
<text text-anchor="start" x="1873.369" y="-159.8423" font-family="Helvetica,sans-Serif" font-size="10.00" fill="#000000">TipoEstadistica</text>
<polygon fill="none" stroke="#000000" points="1863.763,-90.8423 1863.763,-146.8423 1950.763,-146.8423 1950.763,-90.8423 1863.763,-90.8423"/>
<text text-anchor="start" x="1884.202" y="-127.8423" font-family="Helvetica,sans-Serif" font-size="10.00" fill="#000000">POSITIVA</text>
<text text-anchor="start" x="1881.982" y="-115.8423" font-family="Helvetica,sans-Serif" font-size="10.00" fill="#000000">NEGATIVA</text>
<text text-anchor="start" x="1886.711" y="-103.8423" font-family="Helvetica,sans-Serif" font-size="10.00" fill="#000000">NEUTRA</text>
</g>
<!-- A9&#45;&gt;A13 -->
<g id="edge13" class="edge">
<title>A9&#45;&gt;A13</title>
<path fill="none" stroke="#000000" d="M1813.3311,-140.8423C1825.7306,-140.8423 1839.5685,-140.8423 1852.7148,-140.8423"/>
<polygon fill="#000000" stroke="#000000" points="1863.0689,-140.8423 1853.069,-145.3424 1858.0689,-140.8424 1853.0689,-140.8424 1853.0689,-140.8424 1853.0689,-140.8424 1858.0689,-140.8424 1853.0689,-136.3424 1863.0689,-140.8423 1863.0689,-140.8423"/>
<text text-anchor="middle" x="1844.9428" y="-146.2947" font-family="Helvetica,sans-Serif" font-size="10.00" fill="#000000">tipo1</text>
<text text-anchor="middle" x="1831.4572" y="-129.39" font-family="Helvetica,sans-Serif" font-size="10.00" fill="#000000">*</text>
</g>
<!-- A10 -->
<g id="node11" class="node">
<title>A10</title>
<polygon fill="none" stroke="#000000" points="1564.263,-203.8423 1564.263,-235.8423 1682.263,-235.8423 1682.263,-203.8423 1564.263,-203.8423"/>
<text text-anchor="start" x="1587.4245" y="-216.8423" font-family="Helvetica,sans-Serif" font-size="10.00" fill="#000000">ValorEstadistica</text>
<polygon fill="none" stroke="#000000" points="1564.263,-159.8423 1564.263,-203.8423 1682.263,-203.8423 1682.263,-159.8423 1564.263,-159.8423"/>
<text text-anchor="start" x="1600.7625" y="-184.8423" font-family="Helvetica,sans-Serif" font-size="10.00" fill="#000000">valor:Real</text>
<text text-anchor="start" x="1574.0865" y="-172.8423" font-family="Helvetica,sans-Serif" font-size="10.00" fill="#000000">estadistica:Estadistica</text>
</g>
<!-- A10&#45;&gt;A3JA9 -->
<g id="edge12" class="edge">
<title>A10&#45;&gt;A3JA9</title>
<path fill="none" stroke="#000000" stroke-dasharray="5,2" d="M1623.263,-159.4028C1623.263,-156.761 1623.263,-154.1192 1623.263,-151.4774"/>
<polygon fill="#000000" stroke="#000000" points="1623.263,-141.2876 1627.7631,-151.2876 1623.263,-146.2876 1623.2631,-151.2876 1623.2631,-151.2876 1623.2631,-151.2876 1623.263,-146.2876 1618.7631,-151.2877 1623.263,-141.2876 1623.263,-141.2876"/>
</g>
<!-- A11&#45;&gt;A4 -->
<g id="edge16" class="edge">
<title>A11&#45;&gt;A4</title>
<path fill="none" stroke="#000000" d="M422.2226,-210.3896C438.9156,-199.6299 455.8347,-188.7244 470.112,-179.5217"/>
<polygon fill="none" stroke="#000000" points="422.1447,-210.4398 419.2686,-217.0526 412.0584,-216.9411 414.9344,-210.3283 422.1447,-210.4398"/>
<polygon fill="#000000" stroke="#000000" points="478.6346,-174.0284 472.6673,-183.2285 474.4319,-176.7373 470.2293,-179.4462 470.2293,-179.4462 470.2293,-179.4462 474.4319,-176.7373 467.7913,-175.6638 478.6346,-174.0284 478.6346,-174.0284"/>
<text text-anchor="middle" x="467.9784" y="-187.9531" font-family="Helvetica,sans-Serif" font-size="10.00" fill="#000000">2</text>
<text text-anchor="middle" x="422.7146" y="-197.0164" font-family="Helvetica,sans-Serif" font-size="10.00" fill="#000000">*</text>
</g>
<!-- A12 -->
<g id="node13" class="node">
<title>A12</title>
<polygon fill="none" stroke="#000000" points="602.198,-265.8423 602.198,-297.8423 803.198,-297.8423 803.198,-265.8423 602.198,-265.8423"/>
<text text-anchor="start" x="666.305" y="-278.8423" font-family="Helvetica,sans-Serif" font-size="10.00" fill="#000000">RegistroReporte</text>
<polygon fill="none" stroke="#000000" points="602.198,-221.8423 602.198,-265.8423 803.198,-265.8423 803.198,-221.8423 602.198,-221.8423"/>
<text text-anchor="start" x="612.125" y="-246.8423" font-family="Helvetica,sans-Serif" font-size="10.00" fill="#000000">estadisticaParticipanteA:ValorEstadistica</text>
<text text-anchor="start" x="612.125" y="-234.8423" font-family="Helvetica,sans-Serif" font-size="10.00" fill="#000000">estadisticaParticipanteB:ValorEstadistica</text>
</g>
<!-- A11&#45;&gt;A12 -->
<g id="edge14" class="edge">
<title>A11&#45;&gt;A12</title>
<path fill="none" stroke="#000000" d="M424.3785,-259.8423C473.3673,-259.8423 537.0768,-259.8423 591.1266,-259.8423"/>
<polygon fill="none" stroke="#000000" points="424.1737,-259.8424 418.1737,-263.8424 412.1737,-259.8423 418.1738,-255.8424 424.1737,-259.8424"/>
<polygon fill="#000000" stroke="#000000" points="601.4501,-259.8423 591.4502,-264.3424 596.4501,-259.8424 591.4501,-259.8424 591.4501,-259.8424 591.4501,-259.8424 596.4501,-259.8424 591.4501,-255.3424 601.4501,-259.8423 601.4501,-259.8423"/>
<text text-anchor="middle" x="583.324" y="-265.2947" font-family="Helvetica,sans-Serif" font-size="10.00" fill="#000000">registros*</text>
<text text-anchor="middle" x="430.2999" y="-248.39" font-family="Helvetica,sans-Serif" font-size="10.00" fill="#000000">1</text>
</g>
<!-- A12&#45;&gt;A10 -->
<g id="edge15" class="edge">
<title>A12&#45;&gt;A10</title>
<path fill="none" stroke="#000000" d="M815.257,-252.9414C882.5894,-249.4087 969.7441,-245.8423 1047.198,-245.8423 1047.198,-245.8423 1047.198,-245.8423 1216.4805,-245.8423 1335.8221,-245.8423 1473.5097,-225.2142 1554.2022,-211.0037"/>
<polygon fill="none" stroke="#000000" points="814.9049,-252.9601 809.1267,-257.2743 802.922,-253.5998 808.7002,-249.2856 814.9049,-252.9601"/>
<polygon fill="#000000" stroke="#000000" points="1564.2371,-209.2177 1555.1804,-215.4004 1559.3145,-210.0938 1554.3919,-210.97 1554.3919,-210.97 1554.3919,-210.97 1559.3145,-210.0938 1553.6033,-206.5396 1564.2371,-209.2177 1564.2371,-209.2177"/>
<text text-anchor="middle" x="1547.8725" y="-217.7154" font-family="Helvetica,sans-Serif" font-size="10.00" fill="#000000">2</text>
<text text-anchor="middle" x="820.5719" y="-241.1933" font-family="Helvetica,sans-Serif" font-size="10.00" fill="#000000">*</text>
</g>
<!-- A3JA9&#45;&gt;A9 -->
<g id="edge11" class="edge">
<title>A3JA9&#45;&gt;A9</title>
<path fill="none" stroke="#000000" d="M1623.6919,-140.8423C1628.9179,-140.8423 1680.8633,-140.8423 1721.9843,-140.8423"/>
<polygon fill="#000000" stroke="#000000" points="1732.1706,-140.8423 1722.1706,-145.3424 1727.1706,-140.8424 1722.1706,-140.8424 1722.1706,-140.8424 1722.1706,-140.8424 1727.1706,-140.8424 1722.1706,-136.3424 1732.1706,-140.8423 1732.1706,-140.8423"/>
<text text-anchor="middle" x="1714.0444" y="-146.2947" font-family="Helvetica,sans-Serif" font-size="10.00" fill="#000000">*</text>
</g>
</g>
</svg>
