<?xml version="1.0" encoding="UTF-8" standalone="no"?>
<!DOCTYPE svg PUBLIC "-//W3C//DTD SVG 1.1//EN"
 "http://www.w3.org/Graphics/SVG/1.1/DTD/svg11.dtd">
<!-- Generated by graphviz version 2.40.1 (20161225.0304)
 -->
<!-- Title: G Pages: 1 -->
<svg width="1481pt" height="491pt"
 viewBox="0.00 0.00 1481.00 491.00" xmlns="http://www.w3.org/2000/svg" xmlns:xlink="http://www.w3.org/1999/xlink">
<g id="graph0" class="graph" transform="scale(1 1) rotate(0) translate(4 487)">
<title>G</title>
<polygon fill="#ffffff" stroke="transparent" points="-4,4 -4,-487 1477,-487 1477,4 -4,4"/>
<!-- A0 -->
<g id="node1" class="node">
<title>A0</title>
<polygon fill="none" stroke="#000000" points=".5,-451 .5,-483 341.5,-483 341.5,-451 .5,-451"/>
<text text-anchor="start" x="155.163" y="-464" font-family="Helvetica,sans-Serif" font-size="10.00" fill="#000000">Torneo</text>
<polygon fill="none" stroke="#000000" points=".5,-347 .5,-451 341.5,-451 341.5,-347 .5,-347"/>
<text text-anchor="start" x="140.1605" y="-432" font-family="Helvetica,sans-Serif" font-size="10.00" fill="#000000">nombre:Texto</text>
<text text-anchor="start" x="131.822" y="-420" font-family="Helvetica,sans-Serif" font-size="10.00" fill="#000000">fechaInicio:Fecha</text>
<text text-anchor="start" x="102.6515" y="-408" font-family="Helvetica,sans-Serif" font-size="10.00" fill="#000000">fechaInicioInscripciones:Fecha</text>
<text text-anchor="start" x="100.712" y="-396" font-family="Helvetica,sans-Serif" font-size="10.00" fill="#000000">fechaCierreInscripciones:Fecha</text>
<text text-anchor="start" x="109.042" y="-384" font-family="Helvetica,sans-Serif" font-size="10.00" fill="#000000">numeroParticipantes:Entero</text>
<text text-anchor="start" x="131.5485" y="-372" font-family="Helvetica,sans-Serif" font-size="10.00" fill="#000000">limiteEdad:Entero</text>
<text text-anchor="start" x="120.1595" y="-360" font-family="Helvetica,sans-Serif" font-size="10.00" fill="#000000">valorInscripcion:Entero</text>
<polygon fill="none" stroke="#000000" points=".5,-3 .5,-347 341.5,-347 341.5,-3 .5,-3"/>
<text text-anchor="start" x="109.741" y="-328" font-family="Helvetica,sans-Serif" font-size="10.00" fill="#000000">+Constructor(nombre:Texto</text>
<text text-anchor="start" x="131.822" y="-316" font-family="Helvetica,sans-Serif" font-size="10.00" fill="#000000">fechaInicio:Fecha</text>
<text text-anchor="start" x="102.6515" y="-304" font-family="Helvetica,sans-Serif" font-size="10.00" fill="#000000">fechaInicioInscripciones:Fecha</text>
<text text-anchor="start" x="100.712" y="-292" font-family="Helvetica,sans-Serif" font-size="10.00" fill="#000000">fechaCierreInscripciones:Fecha</text>
<text text-anchor="start" x="109.042" y="-280" font-family="Helvetica,sans-Serif" font-size="10.00" fill="#000000">numeroParticipantes:Entero</text>
<text text-anchor="start" x="131.5485" y="-268" font-family="Helvetica,sans-Serif" font-size="10.00" fill="#000000">limiteEdad:Entero</text>
<text text-anchor="start" x="120.1595" y="-256" font-family="Helvetica,sans-Serif" font-size="10.00" fill="#000000">valorInscripcion:Entero</text>
<text text-anchor="start" x="120.1555" y="-244" font-family="Helvetica,sans-Serif" font-size="10.00" fill="#000000">tipoTorneo:TipoTorneo</text>
<text text-anchor="start" x="10.288" y="-232" font-family="Helvetica,sans-Serif" font-size="10.00" fill="#000000">caracter:CaracterTorneo)+registrarParticipante(participante:Participante)</text>
<text text-anchor="start" x="126.1335" y="-220" font-family="Helvetica,sans-Serif" font-size="10.00" fill="#000000">+getNombre():Texto</text>
<text text-anchor="start" x="116.96" y="-208" font-family="Helvetica,sans-Serif" font-size="10.00" fill="#000000">+getFechaInicio():Fecha</text>
<text text-anchor="start" x="87.7895" y="-196" font-family="Helvetica,sans-Serif" font-size="10.00" fill="#000000">+getFechaInicioInscripciones():Fecha</text>
<text text-anchor="start" x="85.85" y="-184" font-family="Helvetica,sans-Serif" font-size="10.00" fill="#000000">+getFechaCierreInscripciones():Fecha</text>
<text text-anchor="start" x="95.015" y="-172" font-family="Helvetica,sans-Serif" font-size="10.00" fill="#000000">+getNumeroParticipantes():Entero</text>
<text text-anchor="start" x="116.6815" y="-160" font-family="Helvetica,sans-Serif" font-size="10.00" fill="#000000">+getLimiteEdad():Entero</text>
<text text-anchor="start" x="106.128" y="-148" font-family="Helvetica,sans-Serif" font-size="10.00" fill="#000000">+getValorInscripcion():Entero</text>
<text text-anchor="start" x="105.2935" y="-136" font-family="Helvetica,sans-Serif" font-size="10.00" fill="#000000">+getTipoTorneo():TipoTorneo</text>
<text text-anchor="start" x="78.6215" y="-124" font-family="Helvetica,sans-Serif" font-size="10.00" fill="#000000">+getParticipantes():Participante［*］</text>
<text text-anchor="start" x="102.2435" y="-112" font-family="Helvetica,sans-Serif" font-size="10.00" fill="#000000">+getCaracter():CaracterTorneo</text>
<text text-anchor="start" x="93.344" y="-100" font-family="Helvetica,sans-Serif" font-size="10.00" fill="#000000">+setFechaInicio(fechaInicio:Fecha)</text>
<text text-anchor="start" x="35.003" y="-88" font-family="Helvetica,sans-Serif" font-size="10.00" fill="#000000">+setFechaInicioInscripciones(fechaInicioInscripciones:Fecha)</text>
<text text-anchor="start" x="31.124" y="-76" font-family="Helvetica,sans-Serif" font-size="10.00" fill="#000000">+setFechaCierreInscripciones(fechaCierreInscripciones:Fecha)</text>
<text text-anchor="start" x="67.65" y="-64" font-family="Helvetica,sans-Serif" font-size="10.00" fill="#000000">buscarParticipante(nombre:Texto):Participante</text>
<text text-anchor="start" x="58.8875" y="-52" font-family="Helvetica,sans-Serif" font-size="10.00" fill="#000000">+registrarJugador(equipo:Equipo,jugador:Jugador)</text>
<text text-anchor="start" x="44.4445" y="-40" font-family="Helvetica,sans-Serif" font-size="10.00" fill="#000000">+registrarJugador(nombreEquipo:Texto,jugador:Jugador)</text>
<text text-anchor="start" x="43.896" y="-28" font-family="Helvetica,sans-Serif" font-size="10.00" fill="#000000">+registrarEstadisticaParticipante(participante:Participante</text>
<text text-anchor="start" x="101.5475" y="-16" font-family="Helvetica,sans-Serif" font-size="10.00" fill="#000000">estadistica:RegistroEstadistica)</text>
</g>
<!-- A1 -->
<g id="node2" class="node">
<title>A1</title>
<polygon fill="none" stroke="#000000" points="422.5,-375 422.5,-419 493.5,-419 493.5,-375 422.5,-375"/>
<text text-anchor="start" x="433.264" y="-400" font-family="Helvetica,sans-Serif" font-size="10.00" fill="#000000">&lt;&lt;Enum&gt;&gt;</text>
<text text-anchor="start" x="432.44" y="-388" font-family="Helvetica,sans-Serif" font-size="10.00" fill="#000000">TipoTorneo</text>
<polygon fill="none" stroke="#000000" points="422.5,-307 422.5,-375 493.5,-375 493.5,-307 422.5,-307"/>
<text text-anchor="start" x="441.6075" y="-356" font-family="Helvetica,sans-Serif" font-size="10.00" fill="#000000">LOCAL</text>
<text text-anchor="start" x="432.164" y="-344" font-family="Helvetica,sans-Serif" font-size="10.00" fill="#000000">REGIONAL</text>
<text text-anchor="start" x="432.444" y="-332" font-family="Helvetica,sans-Serif" font-size="10.00" fill="#000000">NACIONAL</text>
<text text-anchor="start" x="435.5035" y="-320" font-family="Helvetica,sans-Serif" font-size="10.00" fill="#000000">MUNDIAL</text>
</g>
<!-- A0&#45;&gt;A1 -->
<g id="edge3" class="edge">
<title>A0&#45;&gt;A1</title>
<path fill="none" stroke="#000000" d="M341.1799,-314.3644C367.4553,-325.3506 392.4687,-335.8092 412.5205,-344.1932"/>
<polygon fill="#000000" stroke="#000000" points="421.9493,-348.1356 410.9874,-348.4297 417.3363,-346.2068 412.7233,-344.278 412.7233,-344.278 412.7233,-344.278 417.3363,-346.2068 414.4593,-340.1263 421.9493,-348.1356 421.9493,-348.1356"/>
<text text-anchor="middle" x="401.9656" y="-345.9415" font-family="Helvetica,sans-Serif" font-size="10.00" fill="#000000">tipoTorneo1</text>
<text text-anchor="middle" x="361.1636" y="-310.5585" font-family="Helvetica,sans-Serif" font-size="10.00" fill="#000000">*</text>
</g>
<!-- A2 -->
<g id="node3" class="node">
<title>A2</title>
<polygon fill="none" stroke="#000000" points="574.5,-301 574.5,-345 827.5,-345 827.5,-301 574.5,-301"/>
<text text-anchor="start" x="671.54" y="-326" font-family="Helvetica,sans-Serif" font-size="10.00" fill="#000000">&lt;&lt;abstract&gt;&gt;</text>
<text text-anchor="start" x="674.6055" y="-314" font-family="Helvetica,sans-Serif" font-size="10.00" fill="#000000">Participante</text>
<polygon fill="none" stroke="#000000" points="574.5,-269 574.5,-301 827.5,-301 827.5,-269 574.5,-269"/>
<text text-anchor="start" x="608.209" y="-282" font-family="Helvetica,sans-Serif" font-size="10.00" fill="#000000">estadisticas:RegistroEstadistica［*］</text>
<polygon fill="none" stroke="#000000" points="574.5,-213 574.5,-269 827.5,-269 827.5,-213 574.5,-213"/>
<text text-anchor="start" x="668.916" y="-250" font-family="Helvetica,sans-Serif" font-size="10.00" fill="#000000">+Constructor()</text>
<text text-anchor="start" x="605.2825" y="-238" font-family="Helvetica,sans-Serif" font-size="10.00" fill="#000000">+&lt;&lt;abstract&gt;&gt;getNombreCompleto():Texto</text>
<text text-anchor="start" x="584.4615" y="-226" font-family="Helvetica,sans-Serif" font-size="10.00" fill="#000000">+registrarEstadistica(estadistica:RegistroEstadistica)</text>
</g>
<!-- A0&#45;&gt;A2 -->
<g id="edge4" class="edge">
<title>A0&#45;&gt;A2</title>
<path fill="none" stroke="#000000" d="M353.3516,-257.3187C366.091,-258.2482 378.7363,-259.1509 391,-260 447.508,-263.9126 509.8489,-267.8186 563.6822,-271.0625"/>
<polygon fill="none" stroke="#000000" points="353.0858,-257.2993 346.8088,-260.849 341.118,-256.4202 347.3949,-252.8705 353.0858,-257.2993"/>
<polygon fill="#000000" stroke="#000000" points="573.9809,-271.6813 563.7289,-275.5733 568.9899,-271.3813 563.9989,-271.0814 563.9989,-271.0814 563.9989,-271.0814 568.9899,-271.3813 564.2688,-266.5895 573.9809,-271.6813 573.9809,-271.6813"/>
<text text-anchor="middle" x="555.3804" y="-276.0313" font-family="Helvetica,sans-Serif" font-size="10.00" fill="#000000">participantes*</text>
<text text-anchor="middle" x="359.8146" y="-246.3183" font-family="Helvetica,sans-Serif" font-size="10.00" fill="#000000">1</text>
</g>
<!-- A6 -->
<g id="node7" class="node">
<title>A6</title>
<polygon fill="none" stroke="#000000" points="412.5,-101 412.5,-145 502.5,-145 502.5,-101 412.5,-101"/>
<text text-anchor="start" x="432.764" y="-126" font-family="Helvetica,sans-Serif" font-size="10.00" fill="#000000">&lt;&lt;Enum&gt;&gt;</text>
<text text-anchor="start" x="422.4965" y="-114" font-family="Helvetica,sans-Serif" font-size="10.00" fill="#000000">CaracterTorneo</text>
<polygon fill="none" stroke="#000000" points="412.5,-57 412.5,-101 502.5,-101 502.5,-57 412.5,-57"/>
<text text-anchor="start" x="429.445" y="-82" font-family="Helvetica,sans-Serif" font-size="10.00" fill="#000000">INDIVIDUAL</text>
<text text-anchor="start" x="436.943" y="-70" font-family="Helvetica,sans-Serif" font-size="10.00" fill="#000000">GRUPAL</text>
</g>
<!-- A0&#45;&gt;A6 -->
<g id="edge2" class="edge">
<title>A0&#45;&gt;A6</title>
<path fill="none" stroke="#000000" d="M341.1799,-158.5521C363.6287,-147.445 385.1564,-136.7937 403.4556,-127.7397"/>
<polygon fill="#000000" stroke="#000000" points="412.443,-123.293 405.4756,-131.761 407.9615,-125.5104 403.48,-127.7277 403.48,-127.7277 403.48,-127.7277 407.9615,-125.5104 401.4844,-123.6944 412.443,-123.293 412.443,-123.293"/>
<text text-anchor="middle" x="399.9449" y="-135.9071" font-family="Helvetica,sans-Serif" font-size="10.00" fill="#000000">caracter1</text>
<text text-anchor="middle" x="353.6779" y="-139.9381" font-family="Helvetica,sans-Serif" font-size="10.00" fill="#000000">*</text>
</g>
<!-- A9 -->
<g id="node10" class="node">
<title>A9</title>
<polygon fill="none" stroke="#000000" points="391.5,-219 391.5,-251 524.5,-251 524.5,-219 391.5,-219"/>
<text text-anchor="start" x="440.2185" y="-232" font-family="Helvetica,sans-Serif" font-size="10.00" fill="#000000">Reporte</text>
<polygon fill="none" stroke="#000000" points="391.5,-163 391.5,-219 524.5,-219 524.5,-163 391.5,-163"/>
<text text-anchor="start" x="430.4895" y="-200" font-family="Helvetica,sans-Serif" font-size="10.00" fill="#000000">fecha:Fecha</text>
<text text-anchor="start" x="401.042" y="-188" font-family="Helvetica,sans-Serif" font-size="10.00" fill="#000000">participanteA:Participante</text>
<text text-anchor="start" x="401.042" y="-176" font-family="Helvetica,sans-Serif" font-size="10.00" fill="#000000">participanteB:Participante</text>
</g>
<!-- A0&#45;&gt;A9 -->
<g id="edge1" class="edge">
<title>A0&#45;&gt;A9</title>
<path fill="none" stroke="#000000" stroke-dasharray="5,2" d="M341.1799,-221.5907C354.816,-219.8802 368.1122,-218.2124 380.5515,-216.6521"/>
<polygon fill="#000000" stroke="#000000" points="390.7875,-215.3681 381.4254,-221.0778 385.8264,-215.9905 380.8653,-216.6128 380.8653,-216.6128 380.8653,-216.6128 385.8264,-215.9905 380.3052,-212.1478 390.7875,-215.3681 390.7875,-215.3681"/>
</g>
<!-- A3 -->
<g id="node4" class="node">
<title>A3</title>
<polygon fill="none" stroke="#000000" points="877.5,-334 877.5,-366 1054.5,-366 1054.5,-334 877.5,-334"/>
<text text-anchor="start" x="950.438" y="-347" font-family="Helvetica,sans-Serif" font-size="10.00" fill="#000000">Equipo</text>
<polygon fill="none" stroke="#000000" points="877.5,-302 877.5,-334 1054.5,-334 1054.5,-302 877.5,-302"/>
<text text-anchor="start" x="935.1605" y="-315" font-family="Helvetica,sans-Serif" font-size="10.00" fill="#000000">nombre:Texto</text>
<polygon fill="none" stroke="#000000" points="877.5,-210 877.5,-302 1054.5,-302 1054.5,-210 877.5,-210"/>
<text text-anchor="start" x="904.741" y="-283" font-family="Helvetica,sans-Serif" font-size="10.00" fill="#000000">+Constructor(nombre:Texto</text>
<text text-anchor="start" x="913.485" y="-271" font-family="Helvetica,sans-Serif" font-size="10.00" fill="#000000">representante:Persona)</text>
<text text-anchor="start" x="921.1335" y="-259" font-family="Helvetica,sans-Serif" font-size="10.00" fill="#000000">+getNombre():Texto</text>
<text text-anchor="start" x="900.0075" y="-247" font-family="Helvetica,sans-Serif" font-size="10.00" fill="#000000">+getRepresentante():Persona</text>
<text text-anchor="start" x="887.507" y="-235" font-family="Helvetica,sans-Serif" font-size="10.00" fill="#000000">+getJugadores():Jugador［*］</text>
<text text-anchor="start" x="887.2355" y="-223" font-family="Helvetica,sans-Serif" font-size="10.00" fill="#000000">+registrarJugador(jugador:Jugador)</text>
</g>
<!-- A2&#45;&gt;A3 -->
<g id="edge9" class="edge">
<title>A2&#45;&gt;A3</title>
<path fill="none" stroke="#000000" d="M837.4027,-283.6495C850.7687,-284.1035 864.075,-284.5554 876.7766,-284.9868"/>
<polygon fill="none" stroke="#000000" points="837.292,-280.1438 827.1789,-283.3023 837.0543,-287.1398 837.292,-280.1438"/>
</g>
<!-- A5 -->
<g id="node6" class="node">
<title>A5</title>
<polygon fill="none" stroke="#000000" points="1296.5,-340 1296.5,-372 1473.5,-372 1473.5,-340 1296.5,-340"/>
<text text-anchor="start" x="1366.938" y="-353" font-family="Helvetica,sans-Serif" font-size="10.00" fill="#000000">Jugador</text>
<polygon fill="none" stroke="#000000" points="1296.5,-308 1296.5,-340 1473.5,-340 1473.5,-308 1296.5,-308"/>
<text text-anchor="start" x="1332.489" y="-321" font-family="Helvetica,sans-Serif" font-size="10.00" fill="#000000">fechaNacimiento:Fecha</text>
<polygon fill="none" stroke="#000000" points="1296.5,-204 1296.5,-308 1473.5,-308 1473.5,-204 1296.5,-204"/>
<text text-anchor="start" x="1323.741" y="-289" font-family="Helvetica,sans-Serif" font-size="10.00" fill="#000000">+Constructor(nombre:Texto</text>
<text text-anchor="start" x="1353.8815" y="-277" font-family="Helvetica,sans-Serif" font-size="10.00" fill="#000000">apellido:Texto</text>
<text text-anchor="start" x="1359.165" y="-265" font-family="Helvetica,sans-Serif" font-size="10.00" fill="#000000">email:Texto</text>
<text text-anchor="start" x="1356.3855" y="-253" font-family="Helvetica,sans-Serif" font-size="10.00" fill="#000000">celular:Texto</text>
<text text-anchor="start" x="1330.8245" y="-241" font-family="Helvetica,sans-Serif" font-size="10.00" fill="#000000">fechaNacimiento:Fecha)</text>
<text text-anchor="start" x="1317.627" y="-229" font-family="Helvetica,sans-Serif" font-size="10.00" fill="#000000">+getFechaNacimiento():Fecha</text>
<text text-anchor="start" x="1306.2295" y="-217" font-family="Helvetica,sans-Serif" font-size="10.00" fill="#000000">+calcularEdad(fecha:Fecha):Entero</text>
</g>
<!-- A2&#45;&gt;A5 -->
<g id="edge8" class="edge">
<title>A2&#45;&gt;A5</title>
<path fill="none" stroke="#000000" d="M816.3623,-349.7132C836.0636,-359.4735 856.7223,-368.3975 877,-375 1033.4565,-425.9425 1091.4754,-461.5326 1246,-405 1266.3966,-397.5379 1285.8598,-385.5987 1303.411,-372.1378"/>
<polygon fill="none" stroke="#000000" points="817.8863,-346.5619 807.3825,-345.1753 814.729,-352.8094 817.8863,-346.5619"/>
</g>
<!-- A2JA7 -->
<!-- A2&#45;&gt;A2JA7 -->
<g id="edge10" class="edge">
<title>A2&#45;&gt;A2JA7</title>
<path fill="none" stroke="#000000" d="M811.2715,-212.9834C816.9363,-207.6129 822.2407,-201.9477 827,-196 866.4555,-146.6927 826.9679,-101.5323 877,-63 906.3657,-40.384 958.4539,-52.2628 964.8502,-53.836"/>
<text text-anchor="middle" x="818.4993" y="-191.3351" font-family="Helvetica,sans-Serif" font-size="10.00" fill="#000000">*</text>
</g>
<!-- A4 -->
<g id="node5" class="node">
<title>A4</title>
<polygon fill="none" stroke="#000000" points="1104,-364 1104,-396 1246,-396 1246,-364 1104,-364"/>
<text text-anchor="start" x="1156.383" y="-377" font-family="Helvetica,sans-Serif" font-size="10.00" fill="#000000">Persona</text>
<polygon fill="none" stroke="#000000" points="1104,-296 1104,-364 1246,-364 1246,-296 1104,-296"/>
<text text-anchor="start" x="1144.1605" y="-345" font-family="Helvetica,sans-Serif" font-size="10.00" fill="#000000">nombre:Texto</text>
<text text-anchor="start" x="1143.8815" y="-333" font-family="Helvetica,sans-Serif" font-size="10.00" fill="#000000">apellido:Texto</text>
<text text-anchor="start" x="1149.165" y="-321" font-family="Helvetica,sans-Serif" font-size="10.00" fill="#000000">email:Texto</text>
<text text-anchor="start" x="1146.3855" y="-309" font-family="Helvetica,sans-Serif" font-size="10.00" fill="#000000">celular:Texto</text>
<polygon fill="none" stroke="#000000" points="1104,-180 1104,-296 1246,-296 1246,-180 1104,-180"/>
<text text-anchor="start" x="1113.741" y="-277" font-family="Helvetica,sans-Serif" font-size="10.00" fill="#000000">+Constructor(nombre:Texto</text>
<text text-anchor="start" x="1143.8815" y="-265" font-family="Helvetica,sans-Serif" font-size="10.00" fill="#000000">apellido:Texto</text>
<text text-anchor="start" x="1149.165" y="-253" font-family="Helvetica,sans-Serif" font-size="10.00" fill="#000000">email:Texto</text>
<text text-anchor="start" x="1144.721" y="-241" font-family="Helvetica,sans-Serif" font-size="10.00" fill="#000000">celular:Texto)</text>
<text text-anchor="start" x="1130.1335" y="-229" font-family="Helvetica,sans-Serif" font-size="10.00" fill="#000000">+getNombre():Texto</text>
<text text-anchor="start" x="1130.1295" y="-217" font-family="Helvetica,sans-Serif" font-size="10.00" fill="#000000">+getApellido():Texto</text>
<text text-anchor="start" x="1135.413" y="-205" font-family="Helvetica,sans-Serif" font-size="10.00" fill="#000000">+getEmail():Texto</text>
<text text-anchor="start" x="1132.079" y="-193" font-family="Helvetica,sans-Serif" font-size="10.00" fill="#000000">+getCelular():Texto</text>
</g>
<!-- A3&#45;&gt;A4 -->
<g id="edge5" class="edge">
<title>A3&#45;&gt;A4</title>
<path fill="none" stroke="#000000" d="M1066.2066,-288C1075.4614,-288 1084.7583,-288 1093.8078,-288"/>
<polygon fill="none" stroke="#000000" points="1066.0432,-288.0001 1060.0432,-292 1054.0432,-288 1060.0432,-284 1066.0432,-288.0001"/>
<polygon fill="#000000" stroke="#000000" points="1103.9045,-288 1093.9045,-292.5001 1098.9045,-288 1093.9045,-288.0001 1093.9045,-288.0001 1093.9045,-288.0001 1098.9045,-288 1093.9044,-283.5001 1103.9045,-288 1103.9045,-288"/>
<text text-anchor="middle" x="1085.7783" y="-293.4524" font-family="Helvetica,sans-Serif" font-size="10.00" fill="#000000">representante1</text>
<text text-anchor="middle" x="1072.1694" y="-276.5476" font-family="Helvetica,sans-Serif" font-size="10.00" fill="#000000">1</text>
</g>
<!-- A3&#45;&gt;A5 -->
<g id="edge7" class="edge">
<title>A3&#45;&gt;A5</title>
<path fill="none" stroke="#000000" d="M1058.1177,-201.7845C1076.0901,-187.0244 1092.7983,-175.0981 1104,-171 1163.2692,-149.3164 1186.7308,-149.3164 1246,-171 1263.2096,-177.2961 1279.7548,-186.7796 1295.0475,-197.6751"/>
<polygon fill="none" stroke="#000000" points="1057.8255,-202.0292 1055.7946,-208.9484 1048.6265,-209.7349 1050.6574,-202.8157 1057.8255,-202.0292"/>
<polygon fill="#000000" stroke="#000000" points="1303.411,-203.8622 1292.6954,-201.5326 1299.3913,-200.8885 1295.3717,-197.9149 1295.3717,-197.9149 1295.3717,-197.9149 1299.3913,-200.8885 1298.048,-194.2972 1303.411,-203.8622 1303.411,-203.8622"/>
<text text-anchor="middle" x="1283.812" y="-196.8772" font-family="Helvetica,sans-Serif" font-size="10.00" fill="#000000">jugador*</text>
<text text-anchor="middle" x="1057.0941" y="-188.6159" font-family="Helvetica,sans-Serif" font-size="10.00" fill="#000000">1</text>
</g>
<!-- A4&#45;&gt;A5 -->
<g id="edge6" class="edge">
<title>A4&#45;&gt;A5</title>
<path fill="none" stroke="#000000" d="M1256.4161,-288C1269.2824,-288 1282.6436,-288 1295.6686,-288"/>
<polygon fill="none" stroke="#000000" points="1256.2195,-284.5001 1246.2195,-288 1256.2194,-291.5001 1256.2195,-284.5001"/>
</g>
<!-- A7 -->
<g id="node8" class="node">
<title>A7</title>
<polygon fill="none" stroke="#000000" points="1104,-76 1104,-108 1246,-108 1246,-76 1104,-76"/>
<text text-anchor="start" x="1150.829" y="-89" font-family="Helvetica,sans-Serif" font-size="10.00" fill="#000000">Estadistica</text>
<polygon fill="none" stroke="#000000" points="1104,-44 1104,-76 1246,-76 1246,-44 1104,-44"/>
<text text-anchor="start" x="1144.1605" y="-57" font-family="Helvetica,sans-Serif" font-size="10.00" fill="#000000">nombre:Texto</text>
<polygon fill="none" stroke="#000000" points="1104,0 1104,-44 1246,-44 1246,0 1104,0"/>
<text text-anchor="start" x="1113.741" y="-25" font-family="Helvetica,sans-Serif" font-size="10.00" fill="#000000">+Constructor(nombre:Texto</text>
<text text-anchor="start" x="1129.994" y="-13" font-family="Helvetica,sans-Serif" font-size="10.00" fill="#000000">tipo:TipoEstadistica)</text>
</g>
<!-- A11 -->
<g id="node12" class="node">
<title>A11</title>
<polygon fill="none" stroke="#000000" points="1341.5,-60 1341.5,-104 1428.5,-104 1428.5,-60 1341.5,-60"/>
<text text-anchor="start" x="1360.264" y="-85" font-family="Helvetica,sans-Serif" font-size="10.00" fill="#000000">&lt;&lt;Enum&gt;&gt;</text>
<text text-anchor="start" x="1351.106" y="-73" font-family="Helvetica,sans-Serif" font-size="10.00" fill="#000000">TipoEstadistica</text>
<polygon fill="none" stroke="#000000" points="1341.5,-4 1341.5,-60 1428.5,-60 1428.5,-4 1341.5,-4"/>
<text text-anchor="start" x="1361.939" y="-41" font-family="Helvetica,sans-Serif" font-size="10.00" fill="#000000">POSITIVA</text>
<text text-anchor="start" x="1359.719" y="-29" font-family="Helvetica,sans-Serif" font-size="10.00" fill="#000000">NEGATIVA</text>
<text text-anchor="start" x="1364.448" y="-17" font-family="Helvetica,sans-Serif" font-size="10.00" fill="#000000">NEUTRA</text>
</g>
<!-- A7&#45;&gt;A11 -->
<g id="edge13" class="edge">
<title>A7&#45;&gt;A11</title>
<path fill="none" stroke="#000000" d="M1246.2195,-54C1273.8477,-54 1304.9549,-54 1330.6586,-54"/>
<polygon fill="#000000" stroke="#000000" points="1340.9518,-54 1330.9519,-58.5001 1335.9518,-54 1330.9518,-54.0001 1330.9518,-54.0001 1330.9518,-54.0001 1335.9518,-54 1330.9518,-49.5001 1340.9518,-54 1340.9518,-54"/>
<text text-anchor="middle" x="1322.8257" y="-59.4524" font-family="Helvetica,sans-Serif" font-size="10.00" fill="#000000">tipo1</text>
<text text-anchor="middle" x="1264.3456" y="-42.5476" font-family="Helvetica,sans-Serif" font-size="10.00" fill="#000000">*</text>
</g>
<!-- A8 -->
<g id="node9" class="node">
<title>A8</title>
<polygon fill="none" stroke="#000000" points="903.5,-160 903.5,-192 1028.5,-192 1028.5,-160 903.5,-160"/>
<text text-anchor="start" x="923.2175" y="-173" font-family="Helvetica,sans-Serif" font-size="10.00" fill="#000000">RegistroEstadistica</text>
<polygon fill="none" stroke="#000000" points="903.5,-116 903.5,-160 1028.5,-160 1028.5,-116 903.5,-116"/>
<text text-anchor="start" x="943.4995" y="-141" font-family="Helvetica,sans-Serif" font-size="10.00" fill="#000000">valor:Real</text>
<text text-anchor="start" x="916.8235" y="-129" font-family="Helvetica,sans-Serif" font-size="10.00" fill="#000000">estadistica:Estadistica</text>
<polygon fill="none" stroke="#000000" points="903.5,-72 903.5,-116 1028.5,-116 1028.5,-72 903.5,-72"/>
<text text-anchor="start" x="913.08" y="-97" font-family="Helvetica,sans-Serif" font-size="10.00" fill="#000000">+Constructor(valor:Real</text>
<text text-anchor="start" x="915.159" y="-85" font-family="Helvetica,sans-Serif" font-size="10.00" fill="#000000">estadistica:Estadistica)</text>
</g>
<!-- A8&#45;&gt;A2JA7 -->
<g id="edge12" class="edge">
<title>A8&#45;&gt;A2JA7</title>
<path fill="none" stroke="#000000" stroke-dasharray="5,2" d="M965.5,-71.8409C965.5,-69.5074 965.5,-67.174 965.5,-64.8406"/>
<polygon fill="#000000" stroke="#000000" points="965.5,-54.6094 970.0001,-64.6093 965.5,-59.6094 965.5001,-64.6094 965.5001,-64.6094 965.5001,-64.6094 965.5,-59.6094 961.0001,-64.6094 965.5,-54.6094 965.5,-54.6094"/>
</g>
<!-- A9&#45;&gt;A2 -->
<g id="edge16" class="edge">
<title>A9&#45;&gt;A2</title>
<path fill="none" stroke="#000000" d="M536.073,-230.2809C545.1396,-232.9673 554.5722,-235.7621 564.1293,-238.5939"/>
<polygon fill="none" stroke="#000000" points="535.7278,-230.1787 528.8386,-232.3093 524.2222,-226.7695 531.1114,-224.6389 535.7278,-230.1787"/>
<polygon fill="#000000" stroke="#000000" points="573.7191,-241.4353 562.8527,-242.9089 568.9251,-240.0148 564.1311,-238.5943 564.1311,-238.5943 564.1311,-238.5943 568.9251,-240.0148 565.4096,-234.2798 573.7191,-241.4353 573.7191,-241.4353"/>
<text text-anchor="middle" x="553.9386" y="-241.39" font-family="Helvetica,sans-Serif" font-size="10.00" fill="#000000">2</text>
<text text-anchor="middle" x="544.0028" y="-220.8149" font-family="Helvetica,sans-Serif" font-size="10.00" fill="#000000">*</text>
</g>
<!-- A10 -->
<g id="node11" class="node">
<title>A10</title>
<polygon fill="none" stroke="#000000" points="593.5,-155 593.5,-187 808.5,-187 808.5,-155 593.5,-155"/>
<text text-anchor="start" x="664.607" y="-168" font-family="Helvetica,sans-Serif" font-size="10.00" fill="#000000">RegistroReporte</text>
<polygon fill="none" stroke="#000000" points="593.5,-111 593.5,-155 808.5,-155 808.5,-111 593.5,-111"/>
<text text-anchor="start" x="603.483" y="-136" font-family="Helvetica,sans-Serif" font-size="10.00" fill="#000000">estadisticaParticipanteA:RegistroEstadistica</text>
<text text-anchor="start" x="603.483" y="-124" font-family="Helvetica,sans-Serif" font-size="10.00" fill="#000000">estadisticaParticipanteB:RegistroEstadistica</text>
</g>
<!-- A9&#45;&gt;A10 -->
<g id="edge14" class="edge">
<title>A9&#45;&gt;A10</title>
<path fill="none" stroke="#000000" d="M535.9116,-188.2845C550.9352,-184.6986 566.9685,-180.8717 582.9119,-177.0663"/>
<polygon fill="none" stroke="#000000" points="535.8944,-188.2885 530.987,-193.5722 524.2222,-191.0745 529.1296,-185.7908 535.8944,-188.2885"/>
<polygon fill="#000000" stroke="#000000" points="592.8175,-174.702 584.1354,-181.4007 587.9541,-175.8629 583.0907,-177.0237 583.0907,-177.0237 583.0907,-177.0237 587.9541,-175.8629 582.0459,-172.6466 592.8175,-174.702 592.8175,-174.702"/>
<text text-anchor="middle" x="577.1489" y="-184.1316" font-family="Helvetica,sans-Serif" font-size="10.00" fill="#000000">registros*</text>
<text text-anchor="middle" x="539.8908" y="-175.6449" font-family="Helvetica,sans-Serif" font-size="10.00" fill="#000000">1</text>
</g>
<!-- A10&#45;&gt;A8 -->
<g id="edge15" class="edge">
<title>A10&#45;&gt;A8</title>
<path fill="none" stroke="#000000" d="M820.401,-141.3082C845.0434,-139.7274 870.2724,-138.1089 892.637,-136.6742"/>
<polygon fill="none" stroke="#000000" points="820.261,-141.3171 814.5294,-145.6931 808.2856,-142.0854 814.0172,-137.7095 820.261,-141.3171"/>
<polygon fill="#000000" stroke="#000000" points="902.6987,-136.0288 893.0073,-141.1598 897.709,-136.3489 892.7192,-136.669 892.7192,-136.669 892.7192,-136.669 897.709,-136.3489 892.4311,-132.1783 902.6987,-136.0288 902.6987,-136.0288"/>
<text text-anchor="middle" x="885.1508" y="-142.6242" font-family="Helvetica,sans-Serif" font-size="10.00" fill="#000000">2</text>
<text text-anchor="middle" x="825.8335" y="-129.49" font-family="Helvetica,sans-Serif" font-size="10.00" fill="#000000">*</text>
</g>
<!-- A2JA7&#45;&gt;A7 -->
<g id="edge11" class="edge">
<title>A2JA7&#45;&gt;A7</title>
<path fill="none" stroke="#000000" d="M966.101,-54C972.9922,-54 1037.8519,-54 1093.4956,-54"/>
<polygon fill="#000000" stroke="#000000" points="1103.7622,-54 1093.7623,-58.5001 1098.7622,-54 1093.7622,-54.0001 1093.7622,-54.0001 1093.7622,-54.0001 1098.7622,-54 1093.7622,-49.5001 1103.7622,-54 1103.7622,-54"/>
<text text-anchor="middle" x="1085.6361" y="-59.4524" font-family="Helvetica,sans-Serif" font-size="10.00" fill="#000000">*</text>
</g>
</g>
</svg>
