<?xml version="1.0" encoding="UTF-8" standalone="no"?>
<!DOCTYPE svg PUBLIC "-//W3C//DTD SVG 1.1//EN"
 "http://www.w3.org/Graphics/SVG/1.1/DTD/svg11.dtd">
<!-- Generated by graphviz version 2.40.1 (20161225.0304)
 -->
<!-- Title: G Pages: 1 -->
<svg width="2554pt" height="628pt"
 viewBox="0.00 0.00 2554.00 627.67" xmlns="http://www.w3.org/2000/svg" xmlns:xlink="http://www.w3.org/1999/xlink">
<g id="graph0" class="graph" transform="scale(1 1) rotate(0) translate(4 623.6691)">
<title>G</title>
<polygon fill="#ffffff" stroke="transparent" points="-4,4 -4,-623.6691 2550,-623.6691 2550,4 -4,4"/>
<!-- A0 -->
<g id="node1" class="node">
<title>A0</title>
<polygon fill="none" stroke="#000000" points="0,-580 0,-612 360,-612 360,-580 0,-580"/>
<text text-anchor="start" x="164.163" y="-593" font-family="Helvetica,sans-Serif" font-size="10.00" fill="#000000">Torneo</text>
<polygon fill="none" stroke="#000000" points="0,-476 0,-580 360,-580 360,-476 0,-476"/>
<text text-anchor="start" x="149.1605" y="-561" font-family="Helvetica,sans-Serif" font-size="10.00" fill="#000000">nombre:Texto</text>
<text text-anchor="start" x="140.822" y="-549" font-family="Helvetica,sans-Serif" font-size="10.00" fill="#000000">fechaInicio:Fecha</text>
<text text-anchor="start" x="111.6515" y="-537" font-family="Helvetica,sans-Serif" font-size="10.00" fill="#000000">fechaInicioInscripciones:Fecha</text>
<text text-anchor="start" x="109.712" y="-525" font-family="Helvetica,sans-Serif" font-size="10.00" fill="#000000">fechaCierreInscripciones:Fecha</text>
<text text-anchor="start" x="118.042" y="-513" font-family="Helvetica,sans-Serif" font-size="10.00" fill="#000000">numeroParticipantes:Entero</text>
<text text-anchor="start" x="140.5485" y="-501" font-family="Helvetica,sans-Serif" font-size="10.00" fill="#000000">limiteEdad:Entero</text>
<text text-anchor="start" x="129.1595" y="-489" font-family="Helvetica,sans-Serif" font-size="10.00" fill="#000000">valorInscripcion:Entero</text>
<polygon fill="none" stroke="#000000" points="0,0 0,-476 360,-476 360,0 0,0"/>
<text text-anchor="start" x="118.741" y="-457" font-family="Helvetica,sans-Serif" font-size="10.00" fill="#000000">+Constructor(nombre:Texto</text>
<text text-anchor="start" x="140.822" y="-445" font-family="Helvetica,sans-Serif" font-size="10.00" fill="#000000">fechaInicio:Fecha</text>
<text text-anchor="start" x="111.6515" y="-433" font-family="Helvetica,sans-Serif" font-size="10.00" fill="#000000">fechaInicioInscripciones:Fecha</text>
<text text-anchor="start" x="109.712" y="-421" font-family="Helvetica,sans-Serif" font-size="10.00" fill="#000000">fechaCierreInscripciones:Fecha</text>
<text text-anchor="start" x="118.042" y="-409" font-family="Helvetica,sans-Serif" font-size="10.00" fill="#000000">numeroParticipantes:Entero</text>
<text text-anchor="start" x="140.5485" y="-397" font-family="Helvetica,sans-Serif" font-size="10.00" fill="#000000">limiteEdad:Entero</text>
<text text-anchor="start" x="129.1595" y="-385" font-family="Helvetica,sans-Serif" font-size="10.00" fill="#000000">valorInscripcion:Entero</text>
<text text-anchor="start" x="129.1555" y="-373" font-family="Helvetica,sans-Serif" font-size="10.00" fill="#000000">tipoTorneo:TipoTorneo</text>
<text text-anchor="start" x="19.288" y="-361" font-family="Helvetica,sans-Serif" font-size="10.00" fill="#000000">caracter:CaracterTorneo)+registrarParticipante(participante:Participante)</text>
<text text-anchor="start" x="135.1335" y="-349" font-family="Helvetica,sans-Serif" font-size="10.00" fill="#000000">+getNombre():Texto</text>
<text text-anchor="start" x="125.96" y="-337" font-family="Helvetica,sans-Serif" font-size="10.00" fill="#000000">+getFechaInicio():Fecha</text>
<text text-anchor="start" x="96.7895" y="-325" font-family="Helvetica,sans-Serif" font-size="10.00" fill="#000000">+getFechaInicioInscripciones():Fecha</text>
<text text-anchor="start" x="94.85" y="-313" font-family="Helvetica,sans-Serif" font-size="10.00" fill="#000000">+getFechaCierreInscripciones():Fecha</text>
<text text-anchor="start" x="104.015" y="-301" font-family="Helvetica,sans-Serif" font-size="10.00" fill="#000000">+getNumeroParticipantes():Entero</text>
<text text-anchor="start" x="125.6815" y="-289" font-family="Helvetica,sans-Serif" font-size="10.00" fill="#000000">+getLimiteEdad():Entero</text>
<text text-anchor="start" x="115.128" y="-277" font-family="Helvetica,sans-Serif" font-size="10.00" fill="#000000">+getValorInscripcion():Entero</text>
<text text-anchor="start" x="114.2935" y="-265" font-family="Helvetica,sans-Serif" font-size="10.00" fill="#000000">+getTipoTorneo():TipoTorneo</text>
<text text-anchor="start" x="87.6215" y="-253" font-family="Helvetica,sans-Serif" font-size="10.00" fill="#000000">+getParticipantes():Participante［*］</text>
<text text-anchor="start" x="111.2435" y="-241" font-family="Helvetica,sans-Serif" font-size="10.00" fill="#000000">+getCaracter():CaracterTorneo</text>
<text text-anchor="start" x="102.344" y="-229" font-family="Helvetica,sans-Serif" font-size="10.00" fill="#000000">+setFechaInicio(fechaInicio:Fecha)</text>
<text text-anchor="start" x="44.003" y="-217" font-family="Helvetica,sans-Serif" font-size="10.00" fill="#000000">+setFechaInicioInscripciones(fechaInicioInscripciones:Fecha)</text>
<text text-anchor="start" x="40.124" y="-205" font-family="Helvetica,sans-Serif" font-size="10.00" fill="#000000">+setFechaCierreInscripciones(fechaCierreInscripciones:Fecha)</text>
<text text-anchor="start" x="76.65" y="-193" font-family="Helvetica,sans-Serif" font-size="10.00" fill="#000000">buscarParticipante(nombre:Texto):Participante</text>
<text text-anchor="start" x="67.8875" y="-181" font-family="Helvetica,sans-Serif" font-size="10.00" fill="#000000">+registrarJugador(equipo:Equipo,jugador:Jugador)</text>
<text text-anchor="start" x="53.4445" y="-169" font-family="Helvetica,sans-Serif" font-size="10.00" fill="#000000">+registrarJugador(nombreEquipo:Texto,jugador:Jugador)</text>
<text text-anchor="start" x="52.896" y="-157" font-family="Helvetica,sans-Serif" font-size="10.00" fill="#000000">+registrarEstadisticaParticipante(participante:Participante</text>
<text text-anchor="start" x="110.5475" y="-145" font-family="Helvetica,sans-Serif" font-size="10.00" fill="#000000">estadistica:ValorEstadistica)</text>
<text text-anchor="start" x="92.0685" y="-133" font-family="Helvetica,sans-Serif" font-size="10.00" fill="#000000">+getEstadisticas():Estadistica［*］</text>
<text text-anchor="start" x="69.2905" y="-121" font-family="Helvetica,sans-Serif" font-size="10.00" fill="#000000">+buscarMejor(estadistica:Estadistica):Participante</text>
<text text-anchor="start" x="78.1735" y="-109" font-family="Helvetica,sans-Serif" font-size="10.00" fill="#000000">+buscarSuperiorIgualA(estadistica:Estadistica</text>
<text text-anchor="start" x="105.548" y="-97" font-family="Helvetica,sans-Serif" font-size="10.00" fill="#000000">valor:Real):Participante［*］</text>
<text text-anchor="start" x="92.346" y="-85" font-family="Helvetica,sans-Serif" font-size="10.00" fill="#000000">+buscarInferiorA(estadistica:Estadistica</text>
<text text-anchor="start" x="105.548" y="-73" font-family="Helvetica,sans-Serif" font-size="10.00" fill="#000000">valor:Real):Participante［*］</text>
<text text-anchor="start" x="67.9005" y="-61" font-family="Helvetica,sans-Serif" font-size="10.00" fill="#000000">+promedioEstadistica(estadistica:Estadistica):Real</text>
<text text-anchor="start" x="9.8305" y="-49" font-family="Helvetica,sans-Serif" font-size="10.00" fill="#000000">+obtenerEstadisticas(participante:Participante):ValorEstadistica［*］</text>
<text text-anchor="start" x="68.452" y="-37" font-family="Helvetica,sans-Serif" font-size="10.00" fill="#000000">+compararParticipantes(participanteA:Participante</text>
<text text-anchor="start" x="123.042" y="-25" font-family="Helvetica,sans-Serif" font-size="10.00" fill="#000000">participanteB:Participante</text>
<text text-anchor="start" x="113.0425" y="-13" font-family="Helvetica,sans-Serif" font-size="10.00" fill="#000000">estadistica:Estadistica):Entero</text>
</g>
<!-- A1 -->
<g id="node2" class="node">
<title>A1</title>
<polygon fill="none" stroke="#000000" points="479.5,-452 479.5,-496 550.5,-496 550.5,-452 479.5,-452"/>
<text text-anchor="start" x="490.264" y="-477" font-family="Helvetica,sans-Serif" font-size="10.00" fill="#000000">&lt;&lt;Enum&gt;&gt;</text>
<text text-anchor="start" x="489.44" y="-465" font-family="Helvetica,sans-Serif" font-size="10.00" fill="#000000">TipoTorneo</text>
<polygon fill="none" stroke="#000000" points="479.5,-384 479.5,-452 550.5,-452 550.5,-384 479.5,-384"/>
<text text-anchor="start" x="498.6075" y="-433" font-family="Helvetica,sans-Serif" font-size="10.00" fill="#000000">LOCAL</text>
<text text-anchor="start" x="489.164" y="-421" font-family="Helvetica,sans-Serif" font-size="10.00" fill="#000000">REGIONAL</text>
<text text-anchor="start" x="489.444" y="-409" font-family="Helvetica,sans-Serif" font-size="10.00" fill="#000000">NACIONAL</text>
<text text-anchor="start" x="492.5035" y="-397" font-family="Helvetica,sans-Serif" font-size="10.00" fill="#000000">MUNDIAL</text>
</g>
<!-- A0&#45;&gt;A1 -->
<g id="edge3" class="edge">
<title>A0&#45;&gt;A1</title>
<path fill="none" stroke="#000000" d="M360.4675,-378.2949C401.0822,-394.5651 440.651,-410.4162 469.513,-421.9783"/>
<polygon fill="#000000" stroke="#000000" points="478.8766,-425.7293 467.9203,-426.1879 474.2352,-423.87 469.5937,-422.0106 469.5937,-422.0106 469.5937,-422.0106 474.2352,-423.87 471.2672,-417.8333 478.8766,-425.7293 478.8766,-425.7293"/>
<text text-anchor="middle" x="458.9072" y="-423.835" font-family="Helvetica,sans-Serif" font-size="10.00" fill="#000000">tipoTorneo1</text>
<text text-anchor="middle" x="380.4369" y="-374.1892" font-family="Helvetica,sans-Serif" font-size="10.00" fill="#000000">*</text>
</g>
<!-- A3 -->
<g id="node4" class="node">
<title>A3</title>
<polygon fill="none" stroke="#000000" points="669,-372 669,-416 889,-416 889,-372 669,-372"/>
<text text-anchor="start" x="748.151" y="-397" font-family="Helvetica,sans-Serif" font-size="10.00" fill="#000000">&lt;&lt;interface&gt;&gt;</text>
<text text-anchor="start" x="752.6055" y="-385" font-family="Helvetica,sans-Serif" font-size="10.00" fill="#000000">Participante</text>
<polygon fill="none" stroke="#000000" points="669,-340 669,-372 889,-372 889,-340 669,-340"/>
<text text-anchor="start" x="776.221" y="-353" font-family="Helvetica,sans-Serif" font-size="10.00" fill="#000000"> &#160;</text>
<polygon fill="none" stroke="#000000" points="669,-296 669,-340 889,-340 889,-296 669,-296"/>
<text text-anchor="start" x="712.7425" y="-321" font-family="Helvetica,sans-Serif" font-size="10.00" fill="#000000">+getNombreCompleto():Texto</text>
<text text-anchor="start" x="678.8485" y="-309" font-family="Helvetica,sans-Serif" font-size="10.00" fill="#000000">+getRegistroEstadistica():RegistroEstadistica</text>
</g>
<!-- A0&#45;&gt;A3 -->
<g id="edge4" class="edge">
<title>A0&#45;&gt;A3</title>
<path fill="none" stroke="#000000" d="M372.2624,-333.1098C385.0206,-334.5393 397.687,-335.8552 410,-337 492.8111,-344.6995 586.3888,-349.4735 658.5869,-352.3104"/>
<polygon fill="none" stroke="#000000" points="371.9328,-333.0721 365.5165,-336.3633 360.0108,-331.7063 366.4271,-328.4152 371.9328,-333.0721"/>
<polygon fill="#000000" stroke="#000000" points="668.6292,-352.698 658.463,-356.8089 663.6329,-352.5051 658.6366,-352.3123 658.6366,-352.3123 658.6366,-352.3123 663.6329,-352.5051 658.8102,-347.8156 668.6292,-352.698 668.6292,-352.698"/>
<text text-anchor="middle" x="650.1905" y="-357.4451" font-family="Helvetica,sans-Serif" font-size="10.00" fill="#000000">participantes*</text>
<text text-anchor="middle" x="378.9811" y="-322.3718" font-family="Helvetica,sans-Serif" font-size="10.00" fill="#000000">1</text>
</g>
<!-- A8 -->
<g id="node9" class="node">
<title>A8</title>
<polygon fill="none" stroke="#000000" points="469.5,-122 469.5,-166 559.5,-166 559.5,-122 469.5,-122"/>
<text text-anchor="start" x="489.764" y="-147" font-family="Helvetica,sans-Serif" font-size="10.00" fill="#000000">&lt;&lt;Enum&gt;&gt;</text>
<text text-anchor="start" x="479.4965" y="-135" font-family="Helvetica,sans-Serif" font-size="10.00" fill="#000000">CaracterTorneo</text>
<polygon fill="none" stroke="#000000" points="469.5,-78 469.5,-122 559.5,-122 559.5,-78 469.5,-78"/>
<text text-anchor="start" x="486.445" y="-103" font-family="Helvetica,sans-Serif" font-size="10.00" fill="#000000">INDIVIDUAL</text>
<text text-anchor="start" x="493.943" y="-91" font-family="Helvetica,sans-Serif" font-size="10.00" fill="#000000">GRUPAL</text>
</g>
<!-- A0&#45;&gt;A8 -->
<g id="edge2" class="edge">
<title>A0&#45;&gt;A8</title>
<path fill="none" stroke="#000000" d="M360.0229,-202.3684C376.859,-193.0084 393.7113,-183.7628 410,-175 426.0986,-166.3395 443.7717,-157.2285 459.9301,-149.0503"/>
<polygon fill="#000000" stroke="#000000" points="469.2456,-144.3534 462.3424,-152.8738 464.781,-146.6045 460.3164,-148.8556 460.3164,-148.8556 460.3164,-148.8556 464.781,-146.6045 458.2904,-144.8375 469.2456,-144.3534 469.2456,-144.3534"/>
<text text-anchor="middle" x="456.8658" y="-157.0614" font-family="Helvetica,sans-Serif" font-size="10.00" fill="#000000">caracter1</text>
<text text-anchor="middle" x="371.7675" y="-183.18" font-family="Helvetica,sans-Serif" font-size="10.00" fill="#000000">*</text>
</g>
<!-- A11 -->
<g id="node12" class="node">
<title>A11</title>
<polygon fill="none" stroke="#000000" points="410.5,-296 410.5,-328 619.5,-328 619.5,-296 410.5,-296"/>
<text text-anchor="start" x="497.2185" y="-309" font-family="Helvetica,sans-Serif" font-size="10.00" fill="#000000">Reporte</text>
<polygon fill="none" stroke="#000000" points="410.5,-240 410.5,-296 619.5,-296 619.5,-240 410.5,-240"/>
<text text-anchor="start" x="487.4895" y="-277" font-family="Helvetica,sans-Serif" font-size="10.00" fill="#000000">fecha:Fecha</text>
<text text-anchor="start" x="458.042" y="-265" font-family="Helvetica,sans-Serif" font-size="10.00" fill="#000000">participanteA:Participante</text>
<text text-anchor="start" x="458.042" y="-253" font-family="Helvetica,sans-Serif" font-size="10.00" fill="#000000">participanteB:Participante</text>
<polygon fill="none" stroke="#000000" points="410.5,-184 410.5,-240 619.5,-240 619.5,-184 410.5,-184"/>
<text text-anchor="start" x="427.6225" y="-221" font-family="Helvetica,sans-Serif" font-size="10.00" fill="#000000">+Constructor(participanteA:Participante</text>
<text text-anchor="start" x="456.3775" y="-209" font-family="Helvetica,sans-Serif" font-size="10.00" fill="#000000">participanteB:Participante)</text>
<text text-anchor="start" x="420.406" y="-197" font-family="Helvetica,sans-Serif" font-size="10.00" fill="#000000">+getRegistros():RegistroReporte［*］</text>
</g>
<!-- A0&#45;&gt;A11 -->
<g id="edge1" class="edge">
<title>A0&#45;&gt;A11</title>
<path fill="none" stroke="#000000" stroke-dasharray="5,2" d="M360.4675,-279.0243C373.7373,-277.0408 386.8955,-275.0739 399.6051,-273.1741"/>
<polygon fill="#000000" stroke="#000000" points="409.6954,-271.6659 400.4705,-277.5948 404.7503,-272.4051 399.8052,-273.1443 399.8052,-273.1443 399.8052,-273.1443 404.7503,-272.4051 399.1399,-268.6937 409.6954,-271.6659 409.6954,-271.6659"/>
</g>
<!-- A2 -->
<g id="node3" class="node">
<title>A2</title>
<polygon fill="none" stroke="#000000" points="1683.5,-457 1683.5,-501 1936.5,-501 1936.5,-457 1683.5,-457"/>
<text text-anchor="start" x="1779.151" y="-482" font-family="Helvetica,sans-Serif" font-size="10.00" fill="#000000">&lt;&lt;interface&gt;&gt;</text>
<text text-anchor="start" x="1767.2175" y="-470" font-family="Helvetica,sans-Serif" font-size="10.00" fill="#000000">RegistroEstadistica</text>
<polygon fill="none" stroke="#000000" points="1683.5,-437 1683.5,-457 1936.5,-457 1936.5,-437 1683.5,-437"/>
<polygon fill="none" stroke="#000000" points="1683.5,-369 1683.5,-437 1936.5,-437 1936.5,-369 1683.5,-369"/>
<text text-anchor="start" x="1703.457" y="-418" font-family="Helvetica,sans-Serif" font-size="10.00" fill="#000000">+getEstadisticas():ValorEstadistica［*］</text>
<text text-anchor="start" x="1693.4615" y="-406" font-family="Helvetica,sans-Serif" font-size="10.00" fill="#000000">+registrarEstadistica(estadistica:ValorEstadistica)</text>
<text text-anchor="start" x="1730.681" y="-394" font-family="Helvetica,sans-Serif" font-size="10.00" fill="#000000">+comparar(participante:Participante</text>
<text text-anchor="start" x="1743.0425" y="-382" font-family="Helvetica,sans-Serif" font-size="10.00" fill="#000000">estadistica:Estadistica):Entero</text>
</g>
<!-- A2&#45;&gt;A3 -->
<g id="edge17" class="edge">
<title>A2&#45;&gt;A3</title>
<path fill="none" stroke="#000000" d="M1737.1795,-508.2281C1707.3856,-534.0015 1670.9656,-560.4077 1633,-576 1480.9752,-638.4359 1426.9431,-621.432 1264,-600 1115.7466,-580.5001 1068.8582,-587.136 939,-513 895.9085,-488.3991 856.0521,-449.359 826.8971,-416.3648"/>
<polygon fill="none" stroke="#000000" points="1739.8096,-510.5758 1745.0044,-501.3419 1735.1851,-505.3209 1739.8096,-510.5758"/>
</g>
<!-- A4 -->
<g id="node5" class="node">
<title>A4</title>
<polygon fill="none" stroke="#000000" points="1999.5,-451 1999.5,-483 2204.5,-483 2204.5,-451 1999.5,-451"/>
<text text-anchor="start" x="2049.7745" y="-464" font-family="Helvetica,sans-Serif" font-size="10.00" fill="#000000">RegistroEstadisticaImpl</text>
<polygon fill="none" stroke="#000000" points="1999.5,-419 1999.5,-451 2204.5,-451 2204.5,-419 1999.5,-419"/>
<text text-anchor="start" x="2009.209" y="-432" font-family="Helvetica,sans-Serif" font-size="10.00" fill="#000000">estadisticas:ValorEstadistica［*］</text>
<polygon fill="none" stroke="#000000" points="1999.5,-387 1999.5,-419 2204.5,-419 2204.5,-387 1999.5,-387"/>
<text text-anchor="start" x="2069.916" y="-400" font-family="Helvetica,sans-Serif" font-size="10.00" fill="#000000">+Constructor()</text>
</g>
<!-- A2&#45;&gt;A4 -->
<g id="edge18" class="edge">
<title>A2&#45;&gt;A4</title>
<path fill="none" stroke="#000000" d="M1946.6394,-435C1964.2445,-435 1982.0221,-435 1998.9431,-435"/>
<polygon fill="none" stroke="#000000" points="1946.3015,-431.5001 1936.3015,-435 1946.3015,-438.5001 1946.3015,-431.5001"/>
</g>
<!-- A2JA9 -->
<!-- A2&#45;&gt;A2JA9 -->
<g id="edge10" class="edge">
<title>A2&#45;&gt;A2JA9</title>
<path fill="none" stroke="#000000" d="M1831.1789,-368.9268C1856.7926,-302.4536 1906.3027,-203.105 1986,-155 2028.015,-129.6399 2094.8646,-144.4465 2101.0394,-145.8903"/>
<text text-anchor="middle" x="1830.1204" y="-345.9549" font-family="Helvetica,sans-Serif" font-size="10.00" fill="#000000">*</text>
</g>
<!-- A5 -->
<g id="node6" class="node">
<title>A5</title>
<polygon fill="none" stroke="#000000" points="988.5,-472 988.5,-504 1165.5,-504 1165.5,-472 988.5,-472"/>
<text text-anchor="start" x="1061.438" y="-485" font-family="Helvetica,sans-Serif" font-size="10.00" fill="#000000">Equipo</text>
<polygon fill="none" stroke="#000000" points="988.5,-440 988.5,-472 1165.5,-472 1165.5,-440 988.5,-440"/>
<text text-anchor="start" x="1046.1605" y="-453" font-family="Helvetica,sans-Serif" font-size="10.00" fill="#000000">nombre:Texto</text>
<polygon fill="none" stroke="#000000" points="988.5,-348 988.5,-440 1165.5,-440 1165.5,-348 988.5,-348"/>
<text text-anchor="start" x="1015.741" y="-421" font-family="Helvetica,sans-Serif" font-size="10.00" fill="#000000">+Constructor(nombre:Texto</text>
<text text-anchor="start" x="1024.485" y="-409" font-family="Helvetica,sans-Serif" font-size="10.00" fill="#000000">representante:Persona)</text>
<text text-anchor="start" x="1032.1335" y="-397" font-family="Helvetica,sans-Serif" font-size="10.00" fill="#000000">+getNombre():Texto</text>
<text text-anchor="start" x="1011.0075" y="-385" font-family="Helvetica,sans-Serif" font-size="10.00" fill="#000000">+getRepresentante():Persona</text>
<text text-anchor="start" x="998.507" y="-373" font-family="Helvetica,sans-Serif" font-size="10.00" fill="#000000">+getJugadores():Jugador［*］</text>
<text text-anchor="start" x="998.2355" y="-361" font-family="Helvetica,sans-Serif" font-size="10.00" fill="#000000">+registrarJugador(jugador:Jugador)</text>
</g>
<!-- A3&#45;&gt;A5 -->
<g id="edge9" class="edge">
<title>A3&#45;&gt;A5</title>
<path fill="none" stroke="#000000" d="M899.3042,-384.3069C928.8373,-391.2558 959.9244,-398.5705 987.6715,-405.0992"/>
<polygon fill="none" stroke="#000000" points="899.8911,-380.8494 889.3552,-381.9659 898.2878,-387.6634 899.8911,-380.8494"/>
</g>
<!-- A7 -->
<g id="node8" class="node">
<title>A7</title>
<polygon fill="none" stroke="#000000" points="1456.5,-434 1456.5,-466 1633.5,-466 1633.5,-434 1456.5,-434"/>
<text text-anchor="start" x="1526.938" y="-447" font-family="Helvetica,sans-Serif" font-size="10.00" fill="#000000">Jugador</text>
<polygon fill="none" stroke="#000000" points="1456.5,-402 1456.5,-434 1633.5,-434 1633.5,-402 1456.5,-402"/>
<text text-anchor="start" x="1492.489" y="-415" font-family="Helvetica,sans-Serif" font-size="10.00" fill="#000000">fechaNacimiento:Fecha</text>
<polygon fill="none" stroke="#000000" points="1456.5,-298 1456.5,-402 1633.5,-402 1633.5,-298 1456.5,-298"/>
<text text-anchor="start" x="1483.741" y="-383" font-family="Helvetica,sans-Serif" font-size="10.00" fill="#000000">+Constructor(nombre:Texto</text>
<text text-anchor="start" x="1513.8815" y="-371" font-family="Helvetica,sans-Serif" font-size="10.00" fill="#000000">apellido:Texto</text>
<text text-anchor="start" x="1519.165" y="-359" font-family="Helvetica,sans-Serif" font-size="10.00" fill="#000000">email:Texto</text>
<text text-anchor="start" x="1516.3855" y="-347" font-family="Helvetica,sans-Serif" font-size="10.00" fill="#000000">celular:Texto</text>
<text text-anchor="start" x="1490.8245" y="-335" font-family="Helvetica,sans-Serif" font-size="10.00" fill="#000000">fechaNacimiento:Fecha)</text>
<text text-anchor="start" x="1477.627" y="-323" font-family="Helvetica,sans-Serif" font-size="10.00" fill="#000000">+getFechaNacimiento():Fecha</text>
<text text-anchor="start" x="1466.2295" y="-311" font-family="Helvetica,sans-Serif" font-size="10.00" fill="#000000">+calcularEdad(fecha:Fecha):Entero</text>
</g>
<!-- A3&#45;&gt;A7 -->
<g id="edge8" class="edge">
<title>A3&#45;&gt;A7</title>
<path fill="none" stroke="#000000" d="M899.1709,-335.4652C1026.1854,-317.3708 1231.8339,-298.3821 1406,-330 1422.4261,-332.982 1439.4398,-337.802 1455.6835,-343.3345"/>
<polygon fill="none" stroke="#000000" points="898.423,-332.0368 889.027,-336.9322 899.425,-338.9647 898.423,-332.0368"/>
</g>
<!-- A5&#45;&gt;A2 -->
<g id="edge20" class="edge">
<title>A5&#45;&gt;A2</title>
<path fill="none" stroke="#000000" d="M1149.3591,-504.0005C1181.4069,-532.7694 1221.4295,-561.9895 1264,-577 1408.4471,-627.9326 1580.1674,-563.5112 1691.8217,-505.7471"/>
<polygon fill="#000000" stroke="#000000" points="1700.759,-501.0712 1693.9846,-509.6942 1696.3288,-503.3891 1691.8985,-505.707 1691.8985,-505.707 1691.8985,-505.707 1696.3288,-503.3891 1689.8123,-501.7197 1700.759,-501.0712 1700.759,-501.0712"/>
</g>
<!-- A6 -->
<g id="node7" class="node">
<title>A6</title>
<polygon fill="none" stroke="#000000" points="1264,-536 1264,-568 1406,-568 1406,-536 1264,-536"/>
<text text-anchor="start" x="1316.383" y="-549" font-family="Helvetica,sans-Serif" font-size="10.00" fill="#000000">Persona</text>
<polygon fill="none" stroke="#000000" points="1264,-468 1264,-536 1406,-536 1406,-468 1264,-468"/>
<text text-anchor="start" x="1304.1605" y="-517" font-family="Helvetica,sans-Serif" font-size="10.00" fill="#000000">nombre:Texto</text>
<text text-anchor="start" x="1303.8815" y="-505" font-family="Helvetica,sans-Serif" font-size="10.00" fill="#000000">apellido:Texto</text>
<text text-anchor="start" x="1309.165" y="-493" font-family="Helvetica,sans-Serif" font-size="10.00" fill="#000000">email:Texto</text>
<text text-anchor="start" x="1306.3855" y="-481" font-family="Helvetica,sans-Serif" font-size="10.00" fill="#000000">celular:Texto</text>
<polygon fill="none" stroke="#000000" points="1264,-352 1264,-468 1406,-468 1406,-352 1264,-352"/>
<text text-anchor="start" x="1273.741" y="-449" font-family="Helvetica,sans-Serif" font-size="10.00" fill="#000000">+Constructor(nombre:Texto</text>
<text text-anchor="start" x="1303.8815" y="-437" font-family="Helvetica,sans-Serif" font-size="10.00" fill="#000000">apellido:Texto</text>
<text text-anchor="start" x="1309.165" y="-425" font-family="Helvetica,sans-Serif" font-size="10.00" fill="#000000">email:Texto</text>
<text text-anchor="start" x="1304.721" y="-413" font-family="Helvetica,sans-Serif" font-size="10.00" fill="#000000">celular:Texto)</text>
<text text-anchor="start" x="1290.1335" y="-401" font-family="Helvetica,sans-Serif" font-size="10.00" fill="#000000">+getNombre():Texto</text>
<text text-anchor="start" x="1290.1295" y="-389" font-family="Helvetica,sans-Serif" font-size="10.00" fill="#000000">+getApellido():Texto</text>
<text text-anchor="start" x="1295.413" y="-377" font-family="Helvetica,sans-Serif" font-size="10.00" fill="#000000">+getEmail():Texto</text>
<text text-anchor="start" x="1292.079" y="-365" font-family="Helvetica,sans-Serif" font-size="10.00" fill="#000000">+getCelular():Texto</text>
</g>
<!-- A5&#45;&gt;A6 -->
<g id="edge5" class="edge">
<title>A5&#45;&gt;A6</title>
<path fill="none" stroke="#000000" d="M1177.3143,-439.2599C1202.5379,-442.5775 1229.2816,-446.0951 1253.4399,-449.2726"/>
<polygon fill="none" stroke="#000000" points="1176.9969,-439.2182 1170.5265,-442.4016 1165.0994,-437.6533 1171.5698,-434.4699 1176.9969,-439.2182"/>
<polygon fill="#000000" stroke="#000000" points="1263.6232,-450.612 1253.1218,-453.7694 1258.6659,-449.9599 1253.7086,-449.3078 1253.7086,-449.3078 1253.7086,-449.3078 1258.6659,-449.9599 1254.2955,-444.8462 1263.6232,-450.612 1263.6232,-450.612"/>
<text text-anchor="middle" x="1244.5496" y="-453.6284" font-family="Helvetica,sans-Serif" font-size="10.00" fill="#000000">representante1</text>
<text text-anchor="middle" x="1184.173" y="-428.6369" font-family="Helvetica,sans-Serif" font-size="10.00" fill="#000000">1</text>
</g>
<!-- A5&#45;&gt;A7 -->
<g id="edge7" class="edge">
<title>A5&#45;&gt;A7</title>
<path fill="none" stroke="#000000" d="M1176.2685,-372.6731C1203.913,-360.4635 1234.4601,-349.2459 1264,-343 1325.746,-329.9445 1343.4823,-334.3658 1406,-343 1419.0145,-344.7974 1432.5272,-347.5024 1445.7841,-350.6661"/>
<polygon fill="none" stroke="#000000" points="1175.9498,-372.8173 1172.1332,-378.9356 1165.0176,-377.7658 1168.8342,-371.6475 1175.9498,-372.8173"/>
<polygon fill="#000000" stroke="#000000" points="1455.8594,-353.1675 1445.0697,-355.1253 1451.0067,-351.9627 1446.1541,-350.7579 1446.1541,-350.7579 1446.1541,-350.7579 1451.0067,-351.9627 1447.2384,-346.3905 1455.8594,-353.1675 1455.8594,-353.1675"/>
<text text-anchor="middle" x="1436.2307" y="-354.0033" font-family="Helvetica,sans-Serif" font-size="10.00" fill="#000000">jugador*</text>
<text text-anchor="middle" x="1178.0453" y="-359.5909" font-family="Helvetica,sans-Serif" font-size="10.00" fill="#000000">1</text>
</g>
<!-- A6&#45;&gt;A7 -->
<g id="edge6" class="edge">
<title>A6&#45;&gt;A7</title>
<path fill="none" stroke="#000000" d="M1415.6523,-429.9719C1428.7531,-425.0943 1442.3857,-420.0187 1455.6686,-415.0733"/>
<polygon fill="none" stroke="#000000" points="1414.3698,-426.7146 1406.2195,-433.4839 1416.8122,-433.2747 1414.3698,-426.7146"/>
</g>
<!-- A7&#45;&gt;A2 -->
<g id="edge19" class="edge">
<title>A7&#45;&gt;A2</title>
<path fill="none" stroke="#000000" d="M1633.1096,-399.7219C1645.9437,-402.2887 1659.3971,-404.9794 1672.9073,-407.6815"/>
<polygon fill="#000000" stroke="#000000" points="1682.7469,-409.6494 1672.0585,-412.1007 1677.8439,-408.6687 1672.941,-407.6881 1672.941,-407.6881 1672.941,-407.6881 1677.8439,-408.6687 1673.8236,-403.2755 1682.7469,-409.6494 1682.7469,-409.6494"/>
</g>
<!-- A9 -->
<g id="node10" class="node">
<title>A9</title>
<polygon fill="none" stroke="#000000" points="2267,-180 2267,-212 2409,-212 2409,-180 2267,-180"/>
<text text-anchor="start" x="2313.829" y="-193" font-family="Helvetica,sans-Serif" font-size="10.00" fill="#000000">Estadistica</text>
<polygon fill="none" stroke="#000000" points="2267,-148 2267,-180 2409,-180 2409,-148 2267,-148"/>
<text text-anchor="start" x="2307.1605" y="-161" font-family="Helvetica,sans-Serif" font-size="10.00" fill="#000000">nombre:Texto</text>
<polygon fill="none" stroke="#000000" points="2267,-80 2267,-148 2409,-148 2409,-80 2267,-80"/>
<text text-anchor="start" x="2276.741" y="-129" font-family="Helvetica,sans-Serif" font-size="10.00" fill="#000000">+Constructor(nombre:Texto</text>
<text text-anchor="start" x="2292.994" y="-117" font-family="Helvetica,sans-Serif" font-size="10.00" fill="#000000">tipo:TipoEstadistica)</text>
<text text-anchor="start" x="2293.1335" y="-105" font-family="Helvetica,sans-Serif" font-size="10.00" fill="#000000">+getNombre():Texto</text>
<text text-anchor="start" x="2279.7965" y="-93" font-family="Helvetica,sans-Serif" font-size="10.00" fill="#000000">+getTipo():TipoEstadistica</text>
</g>
<!-- A13 -->
<g id="node14" class="node">
<title>A13</title>
<polygon fill="none" stroke="#000000" points="2459.5,-152 2459.5,-196 2546.5,-196 2546.5,-152 2459.5,-152"/>
<text text-anchor="start" x="2478.264" y="-177" font-family="Helvetica,sans-Serif" font-size="10.00" fill="#000000">&lt;&lt;Enum&gt;&gt;</text>
<text text-anchor="start" x="2469.106" y="-165" font-family="Helvetica,sans-Serif" font-size="10.00" fill="#000000">TipoEstadistica</text>
<polygon fill="none" stroke="#000000" points="2459.5,-96 2459.5,-152 2546.5,-152 2546.5,-96 2459.5,-96"/>
<text text-anchor="start" x="2479.939" y="-133" font-family="Helvetica,sans-Serif" font-size="10.00" fill="#000000">POSITIVA</text>
<text text-anchor="start" x="2477.719" y="-121" font-family="Helvetica,sans-Serif" font-size="10.00" fill="#000000">NEGATIVA</text>
<text text-anchor="start" x="2482.448" y="-109" font-family="Helvetica,sans-Serif" font-size="10.00" fill="#000000">NEUTRA</text>
</g>
<!-- A9&#45;&gt;A13 -->
<g id="edge13" class="edge">
<title>A9&#45;&gt;A13</title>
<path fill="none" stroke="#000000" d="M2409.1954,-146C2422.3558,-146 2435.9009,-146 2448.4496,-146"/>
<polygon fill="#000000" stroke="#000000" points="2458.7259,-146 2448.7259,-150.5001 2453.7259,-146 2448.7259,-146.0001 2448.7259,-146.0001 2448.7259,-146.0001 2453.7259,-146 2448.7258,-141.5001 2458.7259,-146 2458.7259,-146"/>
<text text-anchor="middle" x="2440.5997" y="-151.4524" font-family="Helvetica,sans-Serif" font-size="10.00" fill="#000000">tipo1</text>
<text text-anchor="middle" x="2427.3215" y="-134.5476" font-family="Helvetica,sans-Serif" font-size="10.00" fill="#000000">*</text>
</g>
<!-- A10 -->
<g id="node11" class="node">
<title>A10</title>
<polygon fill="none" stroke="#000000" points="1986.5,-288 1986.5,-320 2217.5,-320 2217.5,-288 1986.5,-288"/>
<text text-anchor="start" x="2059.2175" y="-301" font-family="Helvetica,sans-Serif" font-size="10.00" fill="#000000">RegistroEstadistica</text>
<polygon fill="none" stroke="#000000" points="1986.5,-244 1986.5,-288 2217.5,-288 2217.5,-244 1986.5,-244"/>
<text text-anchor="start" x="2079.4995" y="-269" font-family="Helvetica,sans-Serif" font-size="10.00" fill="#000000">valor:Real</text>
<text text-anchor="start" x="2052.8235" y="-257" font-family="Helvetica,sans-Serif" font-size="10.00" fill="#000000">estadistica:Estadistica</text>
<polygon fill="none" stroke="#000000" points="1986.5,-164 1986.5,-244 2217.5,-244 2217.5,-164 1986.5,-164"/>
<text text-anchor="start" x="2049.08" y="-225" font-family="Helvetica,sans-Serif" font-size="10.00" fill="#000000">+Constructor(valor:Real</text>
<text text-anchor="start" x="2051.159" y="-213" font-family="Helvetica,sans-Serif" font-size="10.00" fill="#000000">estadistica:Estadistica)</text>
<text text-anchor="start" x="2065.468" y="-201" font-family="Helvetica,sans-Serif" font-size="10.00" fill="#000000">+getValor():Real</text>
<text text-anchor="start" x="2039.0715" y="-189" font-family="Helvetica,sans-Serif" font-size="10.00" fill="#000000">+getEstadistica():Estadistica</text>
<text text-anchor="start" x="1996.435" y="-177" font-family="Helvetica,sans-Serif" font-size="10.00" fill="#000000">compareTo(registro:ValorEstadistica):Entero</text>
</g>
<!-- A10&#45;&gt;A2JA9 -->
<g id="edge12" class="edge">
<title>A10&#45;&gt;A2JA9</title>
<path fill="none" stroke="#000000" stroke-dasharray="5,2" d="M2101.5,-163.9312C2101.5,-161.4623 2101.5,-158.9935 2101.5,-156.5247"/>
<polygon fill="#000000" stroke="#000000" points="2101.5,-146.375 2106.0001,-156.375 2101.5,-151.375 2101.5001,-156.375 2101.5001,-156.375 2101.5001,-156.375 2101.5,-151.375 2097.0001,-156.375 2101.5,-146.375 2101.5,-146.375"/>
</g>
<!-- A11&#45;&gt;A3 -->
<g id="edge16" class="edge">
<title>A11&#45;&gt;A3</title>
<path fill="none" stroke="#000000" d="M630.5939,-299.8918C640.0888,-303.4816 649.6965,-307.114 659.2173,-310.7135"/>
<polygon fill="none" stroke="#000000" points="630.262,-299.7664 623.2351,-301.3861 619.0374,-295.5226 626.0643,-293.903 630.262,-299.7664"/>
<polygon fill="#000000" stroke="#000000" points="668.7016,-314.2993 657.7564,-314.972 664.0247,-312.5311 659.3478,-310.7628 659.3478,-310.7628 659.3478,-310.7628 664.0247,-312.5311 660.9392,-306.5536 668.7016,-314.2993 668.7016,-314.2993"/>
<text text-anchor="middle" x="648.7577" y="-312.7953" font-family="Helvetica,sans-Serif" font-size="10.00" fill="#000000">2</text>
<text text-anchor="middle" x="638.9814" y="-291.0266" font-family="Helvetica,sans-Serif" font-size="10.00" fill="#000000">*</text>
</g>
<!-- A12 -->
<g id="node13" class="node">
<title>A12</title>
<polygon fill="none" stroke="#000000" points="939.5,-226 939.5,-258 1214.5,-258 1214.5,-226 939.5,-226"/>
<text text-anchor="start" x="1040.607" y="-239" font-family="Helvetica,sans-Serif" font-size="10.00" fill="#000000">RegistroReporte</text>
<polygon fill="none" stroke="#000000" points="939.5,-182 939.5,-226 1214.5,-226 1214.5,-182 939.5,-182"/>
<text text-anchor="start" x="979.483" y="-207" font-family="Helvetica,sans-Serif" font-size="10.00" fill="#000000">estadisticaParticipanteA:ValorEstadistica</text>
<text text-anchor="start" x="979.483" y="-195" font-family="Helvetica,sans-Serif" font-size="10.00" fill="#000000">estadisticaParticipanteB:ValorEstadistica</text>
<polygon fill="none" stroke="#000000" points="939.5,-114 939.5,-182 1214.5,-182 1214.5,-114 939.5,-114"/>
<text text-anchor="start" x="949.0635" y="-163" font-family="Helvetica,sans-Serif" font-size="10.00" fill="#000000">+Constructor(estadisticaParticipanteA:ValorEstadistica</text>
<text text-anchor="start" x="977.8185" y="-151" font-family="Helvetica,sans-Serif" font-size="10.00" fill="#000000">estadisticaParticipanteB:ValorEstadistica)</text>
<text text-anchor="start" x="966.0105" y="-139" font-family="Helvetica,sans-Serif" font-size="10.00" fill="#000000">+getEstadisticaParticianteA():ResgistroEstadistica</text>
<text text-anchor="start" x="966.0105" y="-127" font-family="Helvetica,sans-Serif" font-size="10.00" fill="#000000">+getEstadisticaParticianteB():ResgistroEstadistica</text>
</g>
<!-- A11&#45;&gt;A12 -->
<g id="edge14" class="edge">
<title>A11&#45;&gt;A12</title>
<path fill="none" stroke="#000000" d="M631.339,-241.4471C717.6989,-230.6905 835.9169,-215.9659 928.8238,-204.3938"/>
<polygon fill="none" stroke="#000000" points="631.1275,-241.4734 625.668,-246.1843 619.2195,-242.9566 624.6791,-238.2457 631.1275,-241.4734"/>
<polygon fill="#000000" stroke="#000000" points="938.876,-203.1418 929.5089,-208.8434 933.9144,-203.7598 928.9527,-204.3779 928.9527,-204.3779 928.9527,-204.3779 933.9144,-203.7598 928.3965,-199.9124 938.876,-203.1418 938.876,-203.1418"/>
<text text-anchor="middle" x="921.9336" y="-210.7697" font-family="Helvetica,sans-Serif" font-size="10.00" fill="#000000">registros*</text>
<text text-anchor="middle" x="636.162" y="-229.3287" font-family="Helvetica,sans-Serif" font-size="10.00" fill="#000000">1</text>
</g>
<!-- A12&#45;&gt;A10 -->
<g id="edge15" class="edge">
<title>A12&#45;&gt;A10</title>
<path fill="none" stroke="#000000" d="M1226.3332,-194.186C1428.9183,-205.2541 1786.565,-224.7938 1975.8501,-235.1352"/>
<polygon fill="none" stroke="#000000" points="1226.186,-194.1781 1219.9767,-197.8447 1214.2039,-193.5233 1220.4132,-189.8567 1226.186,-194.1781"/>
<polygon fill="#000000" stroke="#000000" points="1985.847,-235.6814 1975.6163,-239.6291 1980.8544,-235.4086 1975.8619,-235.1358 1975.8619,-235.1358 1975.8619,-235.1358 1980.8544,-235.4086 1976.1074,-230.6425 1985.847,-235.6814 1985.847,-235.6814"/>
<text text-anchor="middle" x="1967.2867" y="-240.1323" font-family="Helvetica,sans-Serif" font-size="10.00" fill="#000000">2</text>
<text text-anchor="middle" x="1232.7641" y="-183.0724" font-family="Helvetica,sans-Serif" font-size="10.00" fill="#000000">*</text>
</g>
<!-- A2JA9&#45;&gt;A9 -->
<g id="edge11" class="edge">
<title>A2JA9&#45;&gt;A9</title>
<path fill="none" stroke="#000000" d="M2101.8837,-146C2108.1754,-146 2190.6021,-146 2256.3173,-146"/>
<polygon fill="#000000" stroke="#000000" points="2266.7064,-146 2256.7065,-150.5001 2261.7064,-146 2256.7064,-146.0001 2256.7064,-146.0001 2256.7064,-146.0001 2261.7064,-146 2256.7064,-141.5001 2266.7064,-146 2266.7064,-146"/>
<text text-anchor="middle" x="2248.5803" y="-151.4524" font-family="Helvetica,sans-Serif" font-size="10.00" fill="#000000">*</text>
</g>
</g>
</svg>
