<?xml version="1.0" encoding="UTF-8" standalone="no"?>
<!DOCTYPE svg PUBLIC "-//W3C//DTD SVG 1.1//EN"
 "http://www.w3.org/Graphics/SVG/1.1/DTD/svg11.dtd">
<!-- Generated by graphviz version 2.40.1 (20161225.0304)
 -->
<!-- Title: G Pages: 1 -->
<svg width="1902pt" height="392pt"
 viewBox="0.00 0.00 1902.26 392.00" xmlns="http://www.w3.org/2000/svg" xmlns:xlink="http://www.w3.org/1999/xlink">
<g id="graph0" class="graph" transform="scale(1 1) rotate(0) translate(4 388)">
<title>G</title>
<polygon fill="#ffffff" stroke="transparent" points="-4,4 -4,-388 1898.263,-388 1898.263,4 -4,4"/>
<!-- A0 -->
<g id="node1" class="node">
<title>A0</title>
<polygon fill="none" stroke="#000000" points=".5,-352 .5,-384 341.5,-384 341.5,-352 .5,-352"/>
<text text-anchor="start" x="155.163" y="-365" font-family="Helvetica,sans-Serif" font-size="10.00" fill="#000000">Torneo</text>
<polygon fill="none" stroke="#000000" points=".5,-248 .5,-352 341.5,-352 341.5,-248 .5,-248"/>
<text text-anchor="start" x="140.1605" y="-333" font-family="Helvetica,sans-Serif" font-size="10.00" fill="#000000">nombre:Texto</text>
<text text-anchor="start" x="131.822" y="-321" font-family="Helvetica,sans-Serif" font-size="10.00" fill="#000000">fechaInicio:Fecha</text>
<text text-anchor="start" x="102.6515" y="-309" font-family="Helvetica,sans-Serif" font-size="10.00" fill="#000000">fechaInicioInscripciones:Fecha</text>
<text text-anchor="start" x="100.712" y="-297" font-family="Helvetica,sans-Serif" font-size="10.00" fill="#000000">fechaCierreInscripciones:Fecha</text>
<text text-anchor="start" x="109.042" y="-285" font-family="Helvetica,sans-Serif" font-size="10.00" fill="#000000">numeroParticipantes:Entero</text>
<text text-anchor="start" x="131.5485" y="-273" font-family="Helvetica,sans-Serif" font-size="10.00" fill="#000000">limiteEdad:Entero</text>
<text text-anchor="start" x="120.1595" y="-261" font-family="Helvetica,sans-Serif" font-size="10.00" fill="#000000">valorInscripcion:Entero</text>
<polygon fill="none" stroke="#000000" points=".5,0 .5,-248 341.5,-248 341.5,0 .5,0"/>
<text text-anchor="start" x="109.741" y="-229" font-family="Helvetica,sans-Serif" font-size="10.00" fill="#000000">+Constructor(nombre:Texto</text>
<text text-anchor="start" x="131.822" y="-217" font-family="Helvetica,sans-Serif" font-size="10.00" fill="#000000">fechaInicio:Fecha</text>
<text text-anchor="start" x="102.6515" y="-205" font-family="Helvetica,sans-Serif" font-size="10.00" fill="#000000">fechaInicioInscripciones:Fecha</text>
<text text-anchor="start" x="100.712" y="-193" font-family="Helvetica,sans-Serif" font-size="10.00" fill="#000000">fechaCierreInscripciones:Fecha</text>
<text text-anchor="start" x="109.042" y="-181" font-family="Helvetica,sans-Serif" font-size="10.00" fill="#000000">numeroParticipantes:Entero</text>
<text text-anchor="start" x="131.5485" y="-169" font-family="Helvetica,sans-Serif" font-size="10.00" fill="#000000">limiteEdad:Entero</text>
<text text-anchor="start" x="120.1595" y="-157" font-family="Helvetica,sans-Serif" font-size="10.00" fill="#000000">valorInscripcion:Entero</text>
<text text-anchor="start" x="120.1555" y="-145" font-family="Helvetica,sans-Serif" font-size="10.00" fill="#000000">tipoTorneo:TipoTorneo</text>
<text text-anchor="start" x="10.288" y="-133" font-family="Helvetica,sans-Serif" font-size="10.00" fill="#000000">caracter:CaracterTorneo)+registrarParticipante(participante:Participante)</text>
<text text-anchor="start" x="126.1335" y="-121" font-family="Helvetica,sans-Serif" font-size="10.00" fill="#000000">+getNombre():Texto</text>
<text text-anchor="start" x="116.96" y="-109" font-family="Helvetica,sans-Serif" font-size="10.00" fill="#000000">+getFechaInicio():Fecha</text>
<text text-anchor="start" x="87.7895" y="-97" font-family="Helvetica,sans-Serif" font-size="10.00" fill="#000000">+getFechaInicioInscripciones():Fecha</text>
<text text-anchor="start" x="85.85" y="-85" font-family="Helvetica,sans-Serif" font-size="10.00" fill="#000000">+getFechaCierreInscripciones():Fecha</text>
<text text-anchor="start" x="95.015" y="-73" font-family="Helvetica,sans-Serif" font-size="10.00" fill="#000000">+getNumeroParticipantes():Entero</text>
<text text-anchor="start" x="116.6815" y="-61" font-family="Helvetica,sans-Serif" font-size="10.00" fill="#000000">+getLimiteEdad():Entero</text>
<text text-anchor="start" x="106.128" y="-49" font-family="Helvetica,sans-Serif" font-size="10.00" fill="#000000">+getValorInscripcion():Entero</text>
<text text-anchor="start" x="105.2935" y="-37" font-family="Helvetica,sans-Serif" font-size="10.00" fill="#000000">+getTipoTorneo():TipoTorneo</text>
<text text-anchor="start" x="78.6215" y="-25" font-family="Helvetica,sans-Serif" font-size="10.00" fill="#000000">+getParticipantes():Participante［*］</text>
<text text-anchor="start" x="102.2435" y="-13" font-family="Helvetica,sans-Serif" font-size="10.00" fill="#000000">+getCaracter():CaracterTorneo</text>
</g>
<!-- A1 -->
<g id="node2" class="node">
<title>A1</title>
<polygon fill="none" stroke="#000000" points="422.5,-324 422.5,-368 493.5,-368 493.5,-324 422.5,-324"/>
<text text-anchor="start" x="433.264" y="-349" font-family="Helvetica,sans-Serif" font-size="10.00" fill="#000000">&lt;&lt;Enum&gt;&gt;</text>
<text text-anchor="start" x="432.44" y="-337" font-family="Helvetica,sans-Serif" font-size="10.00" fill="#000000">TipoTorneo</text>
<polygon fill="none" stroke="#000000" points="422.5,-256 422.5,-324 493.5,-324 493.5,-256 422.5,-256"/>
<text text-anchor="start" x="441.6075" y="-305" font-family="Helvetica,sans-Serif" font-size="10.00" fill="#000000">LOCAL</text>
<text text-anchor="start" x="432.164" y="-293" font-family="Helvetica,sans-Serif" font-size="10.00" fill="#000000">REGIONAL</text>
<text text-anchor="start" x="432.444" y="-281" font-family="Helvetica,sans-Serif" font-size="10.00" fill="#000000">NACIONAL</text>
<text text-anchor="start" x="435.5035" y="-269" font-family="Helvetica,sans-Serif" font-size="10.00" fill="#000000">MUNDIAL</text>
</g>
<!-- A0&#45;&gt;A1 -->
<g id="edge3" class="edge">
<title>A0&#45;&gt;A1</title>
<path fill="none" stroke="#000000" d="M341.1799,-263.3644C367.4553,-274.3506 392.4687,-284.8092 412.5205,-293.1932"/>
<polygon fill="#000000" stroke="#000000" points="421.9493,-297.1356 410.9874,-297.4297 417.3363,-295.2068 412.7233,-293.278 412.7233,-293.278 412.7233,-293.278 417.3363,-295.2068 414.4593,-289.1263 421.9493,-297.1356 421.9493,-297.1356"/>
<text text-anchor="middle" x="401.9656" y="-294.9415" font-family="Helvetica,sans-Serif" font-size="10.00" fill="#000000">tipoTorneo1</text>
<text text-anchor="middle" x="361.1636" y="-259.5585" font-family="Helvetica,sans-Serif" font-size="10.00" fill="#000000">*</text>
</g>
<!-- A4 -->
<g id="node5" class="node">
<title>A4</title>
<polygon fill="none" stroke="#000000" points="663.5475,-246 574.1505,-246 574.1505,-210 663.5475,-210 663.5475,-246"/>
<text text-anchor="middle" x="618.849" y="-231" font-family="Helvetica,sans-Serif" font-size="10.00" fill="#000000">&lt;&lt;interface&gt;&gt;</text>
<text text-anchor="middle" x="618.849" y="-219" font-family="Helvetica,sans-Serif" font-size="10.00" fill="#000000">Participante</text>
</g>
<!-- A0&#45;&gt;A4 -->
<g id="edge4" class="edge">
<title>A0&#45;&gt;A4</title>
<path fill="none" stroke="#000000" d="M353.6392,-206.7051C429.2615,-212.7771 511.334,-219.3671 563.8333,-223.5825"/>
<polygon fill="none" stroke="#000000" points="353.242,-206.6733 346.9411,-210.1802 341.2805,-205.7128 347.5815,-202.2059 353.242,-206.6733"/>
<polygon fill="#000000" stroke="#000000" points="573.9281,-224.3931 563.6,-228.0782 568.9442,-223.9929 563.9602,-223.5926 563.9602,-223.5926 563.9602,-223.5926 568.9442,-223.9929 564.3204,-219.1071 573.9281,-224.3931 573.9281,-224.3931"/>
<text text-anchor="middle" x="555.1836" y="-228.3676" font-family="Helvetica,sans-Serif" font-size="10.00" fill="#000000">participantes*</text>
<text text-anchor="middle" x="360.025" y="-195.7383" font-family="Helvetica,sans-Serif" font-size="10.00" fill="#000000">1</text>
</g>
<!-- A8 -->
<g id="node9" class="node">
<title>A8</title>
<polygon fill="none" stroke="#000000" points="412.5,-50 412.5,-94 502.5,-94 502.5,-50 412.5,-50"/>
<text text-anchor="start" x="432.764" y="-75" font-family="Helvetica,sans-Serif" font-size="10.00" fill="#000000">&lt;&lt;Enum&gt;&gt;</text>
<text text-anchor="start" x="422.4965" y="-63" font-family="Helvetica,sans-Serif" font-size="10.00" fill="#000000">CaracterTorneo</text>
<polygon fill="none" stroke="#000000" points="412.5,-6 412.5,-50 502.5,-50 502.5,-6 412.5,-6"/>
<text text-anchor="start" x="429.445" y="-31" font-family="Helvetica,sans-Serif" font-size="10.00" fill="#000000">INDIVIDUAL</text>
<text text-anchor="start" x="436.943" y="-19" font-family="Helvetica,sans-Serif" font-size="10.00" fill="#000000">GRUPAL</text>
</g>
<!-- A0&#45;&gt;A8 -->
<g id="edge2" class="edge">
<title>A0&#45;&gt;A8</title>
<path fill="none" stroke="#000000" d="M341.1799,-107.5521C363.6287,-96.445 385.1564,-85.7937 403.4556,-76.7397"/>
<polygon fill="#000000" stroke="#000000" points="412.443,-72.293 405.4756,-80.761 407.9615,-74.5104 403.48,-76.7277 403.48,-76.7277 403.48,-76.7277 407.9615,-74.5104 401.4844,-72.6944 412.443,-72.293 412.443,-72.293"/>
<text text-anchor="middle" x="399.9449" y="-84.9071" font-family="Helvetica,sans-Serif" font-size="10.00" fill="#000000">caracter1</text>
<text text-anchor="middle" x="353.6779" y="-88.9381" font-family="Helvetica,sans-Serif" font-size="10.00" fill="#000000">*</text>
</g>
<!-- A11 -->
<g id="node12" class="node">
<title>A11</title>
<polygon fill="none" stroke="#000000" points="391.5,-168 391.5,-200 524.5,-200 524.5,-168 391.5,-168"/>
<text text-anchor="start" x="440.2185" y="-181" font-family="Helvetica,sans-Serif" font-size="10.00" fill="#000000">Reporte</text>
<polygon fill="none" stroke="#000000" points="391.5,-112 391.5,-168 524.5,-168 524.5,-112 391.5,-112"/>
<text text-anchor="start" x="430.4895" y="-149" font-family="Helvetica,sans-Serif" font-size="10.00" fill="#000000">fecha:Fecha</text>
<text text-anchor="start" x="401.042" y="-137" font-family="Helvetica,sans-Serif" font-size="10.00" fill="#000000">participanteA:Participante</text>
<text text-anchor="start" x="401.042" y="-125" font-family="Helvetica,sans-Serif" font-size="10.00" fill="#000000">participanteB:Participante</text>
</g>
<!-- A0&#45;&gt;A11 -->
<g id="edge1" class="edge">
<title>A0&#45;&gt;A11</title>
<path fill="none" stroke="#000000" stroke-dasharray="5,2" d="M341.1799,-170.5907C354.816,-168.8802 368.1122,-167.2124 380.5515,-165.6521"/>
<polygon fill="#000000" stroke="#000000" points="390.7875,-164.3681 381.4254,-170.0778 385.8264,-164.9905 380.8653,-165.6128 380.8653,-165.6128 380.8653,-165.6128 385.8264,-164.9905 380.3052,-161.1478 390.7875,-164.3681 390.7875,-164.3681"/>
</g>
<!-- A2 -->
<g id="node3" class="node">
<title>A2</title>
<polygon fill="none" stroke="#000000" points="1385.0463,-228 1271.9147,-228 1271.9147,-192 1385.0463,-192 1385.0463,-228"/>
<text text-anchor="middle" x="1328.4805" y="-213" font-family="Helvetica,sans-Serif" font-size="10.00" fill="#000000">&lt;&lt;interface&gt;&gt;</text>
<text text-anchor="middle" x="1328.4805" y="-201" font-family="Helvetica,sans-Serif" font-size="10.00" fill="#000000">RegistroEstadistica</text>
</g>
<!-- A3 -->
<g id="node4" class="node">
<title>A3</title>
<polygon fill="none" stroke="#000000" points="1435.763,-210 1435.763,-242 1626.763,-242 1626.763,-210 1435.763,-210"/>
<text text-anchor="start" x="1479.0375" y="-223" font-family="Helvetica,sans-Serif" font-size="10.00" fill="#000000">RegistroEstadisticaImpl</text>
<polygon fill="none" stroke="#000000" points="1435.763,-178 1435.763,-210 1626.763,-210 1626.763,-178 1435.763,-178"/>
<text text-anchor="start" x="1445.416" y="-191" font-family="Helvetica,sans-Serif" font-size="10.00" fill="#000000">estadisticas:ValorEstadistica［*］</text>
</g>
<!-- A2&#45;&gt;A3 -->
<g id="edge18" class="edge">
<title>A2&#45;&gt;A3</title>
<path fill="none" stroke="#000000" d="M1395.1491,-210C1407.9299,-210 1421.5449,-210 1435.0312,-210"/>
<polygon fill="none" stroke="#000000" points="1395.0965,-206.5001 1385.0964,-210 1395.0964,-213.5001 1395.0965,-206.5001"/>
</g>
<!-- A2&#45;&gt;A4 -->
<g id="edge17" class="edge">
<title>A2&#45;&gt;A4</title>
<path fill="none" stroke="#000000" d="M1306.6453,-235.6148C1286.7049,-257.3514 1255.2889,-287.6872 1221.698,-305 1150.7795,-341.5514 1125.9786,-336.0547 1046.698,-345 897.1038,-361.8788 853.2877,-339.374 713.698,-283 689.341,-273.1633 663.6818,-257.9494 645.2023,-246.0141"/>
<polygon fill="none" stroke="#000000" points="1309.3752,-237.8134 1313.4554,-228.0358 1304.1683,-233.1349 1309.3752,-237.8134"/>
</g>
<!-- A2JA9 -->
<!-- A2&#45;&gt;A2JA9 -->
<g id="edge10" class="edge">
<title>A2&#45;&gt;A2JA9</title>
<path fill="none" stroke="#000000" d="M1335.9898,-191.8849C1350.1543,-160.2926 1384.0676,-95.7494 1435.263,-67 1470.1121,-47.4301 1523.5547,-56.6436 1530.0989,-57.8717"/>
<text text-anchor="middle" x="1335.9754" y="-168.8849" font-family="Helvetica,sans-Serif" font-size="10.00" fill="#000000">*</text>
</g>
<!-- A5 -->
<g id="node6" class="node">
<title>A5</title>
<polygon fill="none" stroke="#000000" points="774.198,-242 774.198,-274 855.198,-274 855.198,-242 774.198,-242"/>
<text text-anchor="start" x="799.136" y="-255" font-family="Helvetica,sans-Serif" font-size="10.00" fill="#000000">Equipo</text>
<polygon fill="none" stroke="#000000" points="774.198,-210 774.198,-242 855.198,-242 855.198,-210 774.198,-210"/>
<text text-anchor="start" x="783.8585" y="-223" font-family="Helvetica,sans-Serif" font-size="10.00" fill="#000000">nombre:Texto</text>
</g>
<!-- A4&#45;&gt;A5 -->
<g id="edge9" class="edge">
<title>A4&#45;&gt;A5</title>
<path fill="none" stroke="#000000" d="M673.6777,-231.9294C705.3969,-234.2026 744.6345,-237.0146 773.5788,-239.089"/>
<polygon fill="none" stroke="#000000" points="673.8906,-228.4358 663.666,-231.2119 673.3902,-235.4179 673.8906,-228.4358"/>
</g>
<!-- A7 -->
<g id="node8" class="node">
<title>A7</title>
<polygon fill="none" stroke="#000000" points="1097.198,-201 1097.198,-233 1222.198,-233 1222.198,-201 1097.198,-201"/>
<text text-anchor="start" x="1141.636" y="-214" font-family="Helvetica,sans-Serif" font-size="10.00" fill="#000000">Jugador</text>
<polygon fill="none" stroke="#000000" points="1097.198,-169 1097.198,-201 1222.198,-201 1222.198,-169 1097.198,-169"/>
<text text-anchor="start" x="1107.187" y="-182" font-family="Helvetica,sans-Serif" font-size="10.00" fill="#000000">fechaNacimiento:Fecha</text>
</g>
<!-- A4&#45;&gt;A7 -->
<g id="edge8" class="edge">
<title>A4&#45;&gt;A7</title>
<path fill="none" stroke="#000000" d="M673.4287,-209.7587C686.4768,-206.1545 700.4634,-202.9008 713.698,-201 849.0146,-181.5654 1009.8448,-188.9673 1096.4534,-195.4125"/>
<polygon fill="none" stroke="#000000" points="672.3053,-206.4398 663.6617,-212.5667 674.2395,-213.1673 672.3053,-206.4398"/>
</g>
<!-- A5&#45;&gt;A2 -->
<g id="edge20" class="edge">
<title>A5&#45;&gt;A2</title>
<path fill="none" stroke="#000000" d="M854.7505,-272.9598C883.6682,-293.0077 924.4148,-317.3022 964.698,-328 999.9215,-337.3541 1010.9677,-335.1792 1046.698,-328 1137.1413,-309.8274 1234.7654,-261.8754 1288.0599,-233.0001"/>
<polygon fill="#000000" stroke="#000000" points="1296.8543,-228.1897 1290.2405,-236.9366 1292.4676,-230.5891 1288.0809,-232.9886 1288.0809,-232.9886 1288.0809,-232.9886 1292.4676,-230.5891 1285.9214,-229.0406 1296.8543,-228.1897 1296.8543,-228.1897"/>
</g>
<!-- A6 -->
<g id="node7" class="node">
<title>A6</title>
<polygon fill="none" stroke="#000000" points="964.698,-287 964.698,-319 1046.698,-319 1046.698,-287 964.698,-287"/>
<text text-anchor="start" x="987.081" y="-300" font-family="Helvetica,sans-Serif" font-size="10.00" fill="#000000">Persona</text>
<polygon fill="none" stroke="#000000" points="964.698,-219 964.698,-287 1046.698,-287 1046.698,-219 964.698,-219"/>
<text text-anchor="start" x="974.8585" y="-268" font-family="Helvetica,sans-Serif" font-size="10.00" fill="#000000">nombre:Texto</text>
<text text-anchor="start" x="974.5795" y="-256" font-family="Helvetica,sans-Serif" font-size="10.00" fill="#000000">apellido:Texto</text>
<text text-anchor="start" x="979.863" y="-244" font-family="Helvetica,sans-Serif" font-size="10.00" fill="#000000">email:Texto</text>
<text text-anchor="start" x="977.0835" y="-232" font-family="Helvetica,sans-Serif" font-size="10.00" fill="#000000">celular:Texto</text>
</g>
<!-- A5&#45;&gt;A6 -->
<g id="edge5" class="edge">
<title>A5&#45;&gt;A6</title>
<path fill="none" stroke="#000000" d="M867.0496,-249.4517C894.3113,-253.2953 927.4216,-257.9636 954.4485,-261.7742"/>
<polygon fill="none" stroke="#000000" points="866.6927,-249.4014 860.193,-252.5245 854.8102,-247.726 861.3099,-244.6029 866.6927,-249.4014"/>
<polygon fill="#000000" stroke="#000000" points="964.4841,-263.1892 953.9538,-266.2489 959.5331,-262.4911 954.5821,-261.793 954.5821,-261.793 954.5821,-261.793 959.5331,-262.4911 955.2104,-257.337 964.4841,-263.1892 964.4841,-263.1892"/>
<text text-anchor="middle" x="945.3554" y="-266.0281" font-family="Helvetica,sans-Serif" font-size="10.00" fill="#000000">representante1</text>
<text text-anchor="middle" x="873.9389" y="-238.887" font-family="Helvetica,sans-Serif" font-size="10.00" fill="#000000">1</text>
</g>
<!-- A5&#45;&gt;A7 -->
<g id="edge7" class="edge">
<title>A5&#45;&gt;A7</title>
<path fill="none" stroke="#000000" d="M866.5966,-228.6602C895.3615,-221.8947 931.7786,-214.2326 964.698,-210 1004.6913,-204.8579 1049.6434,-202.5538 1086.2499,-201.5593"/>
<polygon fill="none" stroke="#000000" points="866.4398,-228.6977 861.5363,-233.985 854.7697,-231.4922 859.6733,-226.2049 866.4398,-228.6977"/>
<polygon fill="#000000" stroke="#000000" points="1096.3425,-201.3122 1086.4556,-206.0557 1091.344,-201.4346 1086.3455,-201.557 1086.3455,-201.557 1086.3455,-201.557 1091.344,-201.4346 1086.2353,-197.0584 1096.3425,-201.3122 1096.3425,-201.3122"/>
<text text-anchor="middle" x="1078.4286" y="-207.2056" font-family="Helvetica,sans-Serif" font-size="10.00" fill="#000000">jugador*</text>
<text text-anchor="middle" x="870.4292" y="-216.0511" font-family="Helvetica,sans-Serif" font-size="10.00" fill="#000000">1</text>
</g>
<!-- A6&#45;&gt;A7 -->
<g id="edge6" class="edge">
<title>A6&#45;&gt;A7</title>
<path fill="none" stroke="#000000" d="M1056.0349,-246.7009C1068.9835,-240.9647 1083.0745,-234.7225 1096.563,-228.7471"/>
<polygon fill="none" stroke="#000000" points="1054.5586,-243.5268 1046.8332,-250.7772 1057.3938,-249.9269 1054.5586,-243.5268"/>
</g>
<!-- A7&#45;&gt;A2 -->
<g id="edge19" class="edge">
<title>A7&#45;&gt;A2</title>
<path fill="none" stroke="#000000" d="M1221.7516,-204.3257C1234.6828,-205.0132 1248.3535,-205.74 1261.4373,-206.4356"/>
<polygon fill="#000000" stroke="#000000" points="1271.779,-206.9854 1261.5542,-210.9481 1266.7861,-206.7199 1261.7931,-206.4544 1261.7931,-206.4544 1261.7931,-206.4544 1266.7861,-206.7199 1262.0321,-201.9608 1271.779,-206.9854 1271.779,-206.9854"/>
</g>
<!-- A9 -->
<g id="node10" class="node">
<title>A9</title>
<polygon fill="none" stroke="#000000" points="1676.763,-58 1676.763,-90 1757.763,-90 1757.763,-58 1676.763,-58"/>
<text text-anchor="start" x="1693.092" y="-71" font-family="Helvetica,sans-Serif" font-size="10.00" fill="#000000">Estadistica</text>
<polygon fill="none" stroke="#000000" points="1676.763,-26 1676.763,-58 1757.763,-58 1757.763,-26 1676.763,-26"/>
<text text-anchor="start" x="1686.4235" y="-39" font-family="Helvetica,sans-Serif" font-size="10.00" fill="#000000">nombre:Texto</text>
</g>
<!-- A13 -->
<g id="node14" class="node">
<title>A13</title>
<polygon fill="none" stroke="#000000" points="1807.763,-64 1807.763,-108 1894.763,-108 1894.763,-64 1807.763,-64"/>
<text text-anchor="start" x="1826.527" y="-89" font-family="Helvetica,sans-Serif" font-size="10.00" fill="#000000">&lt;&lt;Enum&gt;&gt;</text>
<text text-anchor="start" x="1817.369" y="-77" font-family="Helvetica,sans-Serif" font-size="10.00" fill="#000000">TipoEstadistica</text>
<polygon fill="none" stroke="#000000" points="1807.763,-8 1807.763,-64 1894.763,-64 1894.763,-8 1807.763,-8"/>
<text text-anchor="start" x="1828.202" y="-45" font-family="Helvetica,sans-Serif" font-size="10.00" fill="#000000">POSITIVA</text>
<text text-anchor="start" x="1825.982" y="-33" font-family="Helvetica,sans-Serif" font-size="10.00" fill="#000000">NEGATIVA</text>
<text text-anchor="start" x="1830.711" y="-21" font-family="Helvetica,sans-Serif" font-size="10.00" fill="#000000">NEUTRA</text>
</g>
<!-- A9&#45;&gt;A13 -->
<g id="edge13" class="edge">
<title>A9&#45;&gt;A13</title>
<path fill="none" stroke="#000000" d="M1757.3311,-58C1769.7306,-58 1783.5685,-58 1796.7148,-58"/>
<polygon fill="#000000" stroke="#000000" points="1807.0689,-58 1797.069,-62.5001 1802.0689,-58 1797.0689,-58.0001 1797.0689,-58.0001 1797.0689,-58.0001 1802.0689,-58 1797.0689,-53.5001 1807.0689,-58 1807.0689,-58"/>
<text text-anchor="middle" x="1788.9428" y="-63.4524" font-family="Helvetica,sans-Serif" font-size="10.00" fill="#000000">tipo1</text>
<text text-anchor="middle" x="1775.4572" y="-46.5476" font-family="Helvetica,sans-Serif" font-size="10.00" fill="#000000">*</text>
</g>
<!-- A10 -->
<g id="node11" class="node">
<title>A10</title>
<polygon fill="none" stroke="#000000" points="1471.763,-120 1471.763,-152 1589.763,-152 1589.763,-120 1471.763,-120"/>
<text text-anchor="start" x="1494.9245" y="-133" font-family="Helvetica,sans-Serif" font-size="10.00" fill="#000000">ValorEstadistica</text>
<polygon fill="none" stroke="#000000" points="1471.763,-76 1471.763,-120 1589.763,-120 1589.763,-76 1471.763,-76"/>
<text text-anchor="start" x="1508.2625" y="-101" font-family="Helvetica,sans-Serif" font-size="10.00" fill="#000000">valor:Real</text>
<text text-anchor="start" x="1481.5865" y="-89" font-family="Helvetica,sans-Serif" font-size="10.00" fill="#000000">estadistica:Estadistica</text>
</g>
<!-- A10&#45;&gt;A2JA9 -->
<g id="edge12" class="edge">
<title>A10&#45;&gt;A2JA9</title>
<path fill="none" stroke="#000000" stroke-dasharray="5,2" d="M1530.763,-75.8008C1530.763,-73.3591 1530.763,-70.9174 1530.763,-68.4756"/>
<polygon fill="#000000" stroke="#000000" points="1530.763,-58.4375 1535.2631,-68.4375 1530.763,-63.4375 1530.7631,-68.4375 1530.7631,-68.4375 1530.7631,-68.4375 1530.763,-63.4375 1526.2631,-68.4375 1530.763,-58.4375 1530.763,-58.4375"/>
</g>
<!-- A11&#45;&gt;A4 -->
<g id="edge16" class="edge">
<title>A11&#45;&gt;A4</title>
<path fill="none" stroke="#000000" d="M535.3645,-190.7461C546.8587,-195.8752 558.4291,-201.0384 569.1408,-205.8183"/>
<polygon fill="none" stroke="#000000" points="535.0168,-190.591 527.9075,-191.7987 524.0584,-185.7008 531.1676,-184.4931 535.0168,-190.591"/>
<polygon fill="#000000" stroke="#000000" points="578.3096,-209.9098 567.3437,-209.9441 573.7436,-207.8722 569.1775,-205.8347 569.1775,-205.8347 569.1775,-205.8347 573.7436,-207.8722 571.0113,-201.7253 578.3096,-209.9098 578.3096,-209.9098"/>
<text text-anchor="middle" x="558.3123" y="-207.242" font-family="Helvetica,sans-Serif" font-size="10.00" fill="#000000">2</text>
<text text-anchor="middle" x="544.0556" y="-182.3686" font-family="Helvetica,sans-Serif" font-size="10.00" fill="#000000">*</text>
</g>
<!-- A12 -->
<g id="node13" class="node">
<title>A12</title>
<polygon fill="none" stroke="#000000" points="714.198,-93 714.198,-125 915.198,-125 915.198,-93 714.198,-93"/>
<text text-anchor="start" x="778.305" y="-106" font-family="Helvetica,sans-Serif" font-size="10.00" fill="#000000">RegistroReporte</text>
<polygon fill="none" stroke="#000000" points="714.198,-49 714.198,-93 915.198,-93 915.198,-49 714.198,-49"/>
<text text-anchor="start" x="724.125" y="-74" font-family="Helvetica,sans-Serif" font-size="10.00" fill="#000000">estadisticaParticipanteA:ValorEstadistica</text>
<text text-anchor="start" x="724.125" y="-62" font-family="Helvetica,sans-Serif" font-size="10.00" fill="#000000">estadisticaParticipanteB:ValorEstadistica</text>
</g>
<!-- A11&#45;&gt;A12 -->
<g id="edge14" class="edge">
<title>A11&#45;&gt;A12</title>
<path fill="none" stroke="#000000" d="M536.0486,-140.8055C585.1764,-131.3022 649.2037,-118.9167 703.4423,-108.4247"/>
<polygon fill="none" stroke="#000000" points="535.9553,-140.8234 530.8242,-145.8902 524.1737,-143.1026 529.3048,-138.0358 535.9553,-140.8234"/>
<polygon fill="#000000" stroke="#000000" points="713.4501,-106.4888 704.4868,-112.8061 708.5411,-107.4384 703.6321,-108.388 703.6321,-108.388 703.6321,-108.388 708.5411,-107.4384 702.7774,-103.97 713.4501,-106.4888 713.4501,-106.4888"/>
<text text-anchor="middle" x="697.2591" y="-115.2298" font-family="Helvetica,sans-Serif" font-size="10.00" fill="#000000">registros*</text>
<text text-anchor="middle" x="540.3647" y="-128.3615" font-family="Helvetica,sans-Serif" font-size="10.00" fill="#000000">1</text>
</g>
<!-- A12&#45;&gt;A10 -->
<g id="edge15" class="edge">
<title>A12&#45;&gt;A10</title>
<path fill="none" stroke="#000000" d="M927.2315,-91.2591C1077.2099,-96.9102 1337.4297,-106.7152 1461.3285,-111.3837"/>
<polygon fill="none" stroke="#000000" points="926.9574,-91.2488 920.811,-95.02 914.9659,-90.7969 921.1123,-87.0257 926.9574,-91.2488"/>
<polygon fill="#000000" stroke="#000000" points="1471.4491,-111.7651 1461.2867,-115.8852 1466.4526,-111.5768 1461.4562,-111.3884 1461.4562,-111.3884 1461.4562,-111.3884 1466.4526,-111.5768 1461.6257,-106.8916 1471.4491,-111.7651 1471.4491,-111.7651"/>
<text text-anchor="middle" x="1453.0175" y="-116.5289" font-family="Helvetica,sans-Serif" font-size="10.00" fill="#000000">2</text>
<text text-anchor="middle" x="933.3974" y="-80.033" font-family="Helvetica,sans-Serif" font-size="10.00" fill="#000000">*</text>
</g>
<!-- A2JA9&#45;&gt;A9 -->
<g id="edge11" class="edge">
<title>A2JA9&#45;&gt;A9</title>
<path fill="none" stroke="#000000" d="M1531.2966,-58C1538.3283,-58 1613.3422,-58 1665.784,-58"/>
<polygon fill="#000000" stroke="#000000" points="1675.9445,-58 1665.9446,-62.5001 1670.9445,-58 1665.9445,-58.0001 1665.9445,-58.0001 1665.9445,-58.0001 1670.9445,-58 1665.9445,-53.5001 1675.9445,-58 1675.9445,-58"/>
<text text-anchor="middle" x="1657.8184" y="-63.4524" font-family="Helvetica,sans-Serif" font-size="10.00" fill="#000000">*</text>
</g>
</g>
</svg>
