<?xml version="1.0" encoding="UTF-8" standalone="no"?>
<!DOCTYPE svg PUBLIC "-//W3C//DTD SVG 1.1//EN"
 "http://www.w3.org/Graphics/SVG/1.1/DTD/svg11.dtd">
<!-- Generated by graphviz version 2.40.1 (20161225.0304)
 -->
<!-- Title: G Pages: 1 -->
<svg width="1652pt" height="620pt"
 viewBox="0.00 0.00 1652.00 620.00" xmlns="http://www.w3.org/2000/svg" xmlns:xlink="http://www.w3.org/1999/xlink">
<g id="graph0" class="graph" transform="scale(1 1) rotate(0) translate(4 616)">
<title>G</title>
<polygon fill="#ffffff" stroke="transparent" points="-4,4 -4,-616 1648,-616 1648,4 -4,4"/>
<!-- A0 -->
<g id="node1" class="node">
<title>A0</title>
<polygon fill="none" stroke="#000000" points="0,-580 0,-612 360,-612 360,-580 0,-580"/>
<text text-anchor="start" x="164.163" y="-593" font-family="Helvetica,sans-Serif" font-size="10.00" fill="#000000">Torneo</text>
<polygon fill="none" stroke="#000000" points="0,-476 0,-580 360,-580 360,-476 0,-476"/>
<text text-anchor="start" x="149.1605" y="-561" font-family="Helvetica,sans-Serif" font-size="10.00" fill="#000000">nombre:Texto</text>
<text text-anchor="start" x="140.822" y="-549" font-family="Helvetica,sans-Serif" font-size="10.00" fill="#000000">fechaInicio:Fecha</text>
<text text-anchor="start" x="111.6515" y="-537" font-family="Helvetica,sans-Serif" font-size="10.00" fill="#000000">fechaInicioInscripciones:Fecha</text>
<text text-anchor="start" x="109.712" y="-525" font-family="Helvetica,sans-Serif" font-size="10.00" fill="#000000">fechaCierreInscripciones:Fecha</text>
<text text-anchor="start" x="118.042" y="-513" font-family="Helvetica,sans-Serif" font-size="10.00" fill="#000000">numeroParticipantes:Entero</text>
<text text-anchor="start" x="140.5485" y="-501" font-family="Helvetica,sans-Serif" font-size="10.00" fill="#000000">limiteEdad:Entero</text>
<text text-anchor="start" x="129.1595" y="-489" font-family="Helvetica,sans-Serif" font-size="10.00" fill="#000000">valorInscripcion:Entero</text>
<polygon fill="none" stroke="#000000" points="0,0 0,-476 360,-476 360,0 0,0"/>
<text text-anchor="start" x="118.741" y="-457" font-family="Helvetica,sans-Serif" font-size="10.00" fill="#000000">+Constructor(nombre:Texto</text>
<text text-anchor="start" x="140.822" y="-445" font-family="Helvetica,sans-Serif" font-size="10.00" fill="#000000">fechaInicio:Fecha</text>
<text text-anchor="start" x="111.6515" y="-433" font-family="Helvetica,sans-Serif" font-size="10.00" fill="#000000">fechaInicioInscripciones:Fecha</text>
<text text-anchor="start" x="109.712" y="-421" font-family="Helvetica,sans-Serif" font-size="10.00" fill="#000000">fechaCierreInscripciones:Fecha</text>
<text text-anchor="start" x="118.042" y="-409" font-family="Helvetica,sans-Serif" font-size="10.00" fill="#000000">numeroParticipantes:Entero</text>
<text text-anchor="start" x="140.5485" y="-397" font-family="Helvetica,sans-Serif" font-size="10.00" fill="#000000">limiteEdad:Entero</text>
<text text-anchor="start" x="129.1595" y="-385" font-family="Helvetica,sans-Serif" font-size="10.00" fill="#000000">valorInscripcion:Entero</text>
<text text-anchor="start" x="129.1555" y="-373" font-family="Helvetica,sans-Serif" font-size="10.00" fill="#000000">tipoTorneo:TipoTorneo</text>
<text text-anchor="start" x="19.288" y="-361" font-family="Helvetica,sans-Serif" font-size="10.00" fill="#000000">caracter:CaracterTorneo)+registrarParticipante(participante:Participante)</text>
<text text-anchor="start" x="135.1335" y="-349" font-family="Helvetica,sans-Serif" font-size="10.00" fill="#000000">+getNombre():Texto</text>
<text text-anchor="start" x="125.96" y="-337" font-family="Helvetica,sans-Serif" font-size="10.00" fill="#000000">+getFechaInicio():Fecha</text>
<text text-anchor="start" x="96.7895" y="-325" font-family="Helvetica,sans-Serif" font-size="10.00" fill="#000000">+getFechaInicioInscripciones():Fecha</text>
<text text-anchor="start" x="94.85" y="-313" font-family="Helvetica,sans-Serif" font-size="10.00" fill="#000000">+getFechaCierreInscripciones():Fecha</text>
<text text-anchor="start" x="104.015" y="-301" font-family="Helvetica,sans-Serif" font-size="10.00" fill="#000000">+getNumeroParticipantes():Entero</text>
<text text-anchor="start" x="125.6815" y="-289" font-family="Helvetica,sans-Serif" font-size="10.00" fill="#000000">+getLimiteEdad():Entero</text>
<text text-anchor="start" x="115.128" y="-277" font-family="Helvetica,sans-Serif" font-size="10.00" fill="#000000">+getValorInscripcion():Entero</text>
<text text-anchor="start" x="114.2935" y="-265" font-family="Helvetica,sans-Serif" font-size="10.00" fill="#000000">+getTipoTorneo():TipoTorneo</text>
<text text-anchor="start" x="87.6215" y="-253" font-family="Helvetica,sans-Serif" font-size="10.00" fill="#000000">+getParticipantes():Participante［*］</text>
<text text-anchor="start" x="111.2435" y="-241" font-family="Helvetica,sans-Serif" font-size="10.00" fill="#000000">+getCaracter():CaracterTorneo</text>
<text text-anchor="start" x="102.344" y="-229" font-family="Helvetica,sans-Serif" font-size="10.00" fill="#000000">+setFechaInicio(fechaInicio:Fecha)</text>
<text text-anchor="start" x="44.003" y="-217" font-family="Helvetica,sans-Serif" font-size="10.00" fill="#000000">+setFechaInicioInscripciones(fechaInicioInscripciones:Fecha)</text>
<text text-anchor="start" x="40.124" y="-205" font-family="Helvetica,sans-Serif" font-size="10.00" fill="#000000">+setFechaCierreInscripciones(fechaCierreInscripciones:Fecha)</text>
<text text-anchor="start" x="76.65" y="-193" font-family="Helvetica,sans-Serif" font-size="10.00" fill="#000000">buscarParticipante(nombre:Texto):Participante</text>
<text text-anchor="start" x="67.8875" y="-181" font-family="Helvetica,sans-Serif" font-size="10.00" fill="#000000">+registrarJugador(equipo:Equipo,jugador:Jugador)</text>
<text text-anchor="start" x="53.4445" y="-169" font-family="Helvetica,sans-Serif" font-size="10.00" fill="#000000">+registrarJugador(nombreEquipo:Texto,jugador:Jugador)</text>
<text text-anchor="start" x="52.896" y="-157" font-family="Helvetica,sans-Serif" font-size="10.00" fill="#000000">+registrarEstadisticaParticipante(participante:Participante</text>
<text text-anchor="start" x="110.5475" y="-145" font-family="Helvetica,sans-Serif" font-size="10.00" fill="#000000">estadistica:RegistroEstadistica)</text>
<text text-anchor="start" x="92.0685" y="-133" font-family="Helvetica,sans-Serif" font-size="10.00" fill="#000000">+getEstadisticas():Estadistica［*］</text>
<text text-anchor="start" x="69.2905" y="-121" font-family="Helvetica,sans-Serif" font-size="10.00" fill="#000000">+buscarMejor(estadistica:Estadistica):Participante</text>
<text text-anchor="start" x="78.1735" y="-109" font-family="Helvetica,sans-Serif" font-size="10.00" fill="#000000">+buscarSuperiorIgualA(estadistica:Estadistica</text>
<text text-anchor="start" x="105.548" y="-97" font-family="Helvetica,sans-Serif" font-size="10.00" fill="#000000">valor:Real):Participante［*］</text>
<text text-anchor="start" x="92.346" y="-85" font-family="Helvetica,sans-Serif" font-size="10.00" fill="#000000">+buscarInferiorA(estadistica:Estadistica</text>
<text text-anchor="start" x="105.548" y="-73" font-family="Helvetica,sans-Serif" font-size="10.00" fill="#000000">valor:Real):Participante［*］</text>
<text text-anchor="start" x="67.9005" y="-61" font-family="Helvetica,sans-Serif" font-size="10.00" fill="#000000">+promedioEstadistica(estadistica:Estadistica):Real</text>
<text text-anchor="start" x="9.8305" y="-49" font-family="Helvetica,sans-Serif" font-size="10.00" fill="#000000">+obtenerEstadisticas(participante:Participante):RegistroEstadistica［*］</text>
<text text-anchor="start" x="68.452" y="-37" font-family="Helvetica,sans-Serif" font-size="10.00" fill="#000000">+compararParticipantes(participanteA:Participante</text>
<text text-anchor="start" x="123.042" y="-25" font-family="Helvetica,sans-Serif" font-size="10.00" fill="#000000">participanteB:Participante</text>
<text text-anchor="start" x="113.0425" y="-13" font-family="Helvetica,sans-Serif" font-size="10.00" fill="#000000">estadistica:Estadistica):Entero</text>
</g>
<!-- A1 -->
<g id="node2" class="node">
<title>A1</title>
<polygon fill="none" stroke="#000000" points="479.5,-452 479.5,-496 550.5,-496 550.5,-452 479.5,-452"/>
<text text-anchor="start" x="490.264" y="-477" font-family="Helvetica,sans-Serif" font-size="10.00" fill="#000000">&lt;&lt;Enum&gt;&gt;</text>
<text text-anchor="start" x="489.44" y="-465" font-family="Helvetica,sans-Serif" font-size="10.00" fill="#000000">TipoTorneo</text>
<polygon fill="none" stroke="#000000" points="479.5,-384 479.5,-452 550.5,-452 550.5,-384 479.5,-384"/>
<text text-anchor="start" x="498.6075" y="-433" font-family="Helvetica,sans-Serif" font-size="10.00" fill="#000000">LOCAL</text>
<text text-anchor="start" x="489.164" y="-421" font-family="Helvetica,sans-Serif" font-size="10.00" fill="#000000">REGIONAL</text>
<text text-anchor="start" x="489.444" y="-409" font-family="Helvetica,sans-Serif" font-size="10.00" fill="#000000">NACIONAL</text>
<text text-anchor="start" x="492.5035" y="-397" font-family="Helvetica,sans-Serif" font-size="10.00" fill="#000000">MUNDIAL</text>
</g>
<!-- A0&#45;&gt;A1 -->
<g id="edge3" class="edge">
<title>A0&#45;&gt;A1</title>
<path fill="none" stroke="#000000" d="M360.4675,-378.2949C401.0822,-394.5651 440.651,-410.4162 469.513,-421.9783"/>
<polygon fill="#000000" stroke="#000000" points="478.8766,-425.7293 467.9203,-426.1879 474.2352,-423.87 469.5937,-422.0106 469.5937,-422.0106 469.5937,-422.0106 474.2352,-423.87 471.2672,-417.8333 478.8766,-425.7293 478.8766,-425.7293"/>
<text text-anchor="middle" x="458.9072" y="-423.835" font-family="Helvetica,sans-Serif" font-size="10.00" fill="#000000">tipoTorneo1</text>
<text text-anchor="middle" x="380.4369" y="-374.1892" font-family="Helvetica,sans-Serif" font-size="10.00" fill="#000000">*</text>
</g>
<!-- A2 -->
<g id="node3" class="node">
<title>A2</title>
<polygon fill="none" stroke="#000000" points="680.5,-396 680.5,-440 933.5,-440 933.5,-396 680.5,-396"/>
<text text-anchor="start" x="777.54" y="-421" font-family="Helvetica,sans-Serif" font-size="10.00" fill="#000000">&lt;&lt;abstract&gt;&gt;</text>
<text text-anchor="start" x="780.6055" y="-409" font-family="Helvetica,sans-Serif" font-size="10.00" fill="#000000">Participante</text>
<polygon fill="none" stroke="#000000" points="680.5,-364 680.5,-396 933.5,-396 933.5,-364 680.5,-364"/>
<text text-anchor="start" x="714.209" y="-377" font-family="Helvetica,sans-Serif" font-size="10.00" fill="#000000">estadisticas:RegistroEstadistica［*］</text>
<polygon fill="none" stroke="#000000" points="680.5,-272 680.5,-364 933.5,-364 933.5,-272 680.5,-272"/>
<text text-anchor="start" x="774.916" y="-345" font-family="Helvetica,sans-Serif" font-size="10.00" fill="#000000">+Constructor()</text>
<text text-anchor="start" x="700.457" y="-333" font-family="Helvetica,sans-Serif" font-size="10.00" fill="#000000">+getEstadisticas():RegistroEstadistica［*］</text>
<text text-anchor="start" x="711.2825" y="-321" font-family="Helvetica,sans-Serif" font-size="10.00" fill="#000000">+&lt;&lt;abstract&gt;&gt;getNombreCompleto():Texto</text>
<text text-anchor="start" x="690.4615" y="-309" font-family="Helvetica,sans-Serif" font-size="10.00" fill="#000000">+registrarEstadistica(estadistica:RegistroEstadistica)</text>
<text text-anchor="start" x="727.681" y="-297" font-family="Helvetica,sans-Serif" font-size="10.00" fill="#000000">+comparar(participante:Participante</text>
<text text-anchor="start" x="740.0425" y="-285" font-family="Helvetica,sans-Serif" font-size="10.00" fill="#000000">estadistica:Estadistica):Entero</text>
</g>
<!-- A0&#45;&gt;A2 -->
<g id="edge4" class="edge">
<title>A0&#45;&gt;A2</title>
<path fill="none" stroke="#000000" d="M372.2577,-333.1608C385.0171,-334.5779 397.685,-335.8771 410,-337 496.2078,-344.8605 593.2756,-349.5815 669.7914,-352.3515"/>
<polygon fill="none" stroke="#000000" points="371.9283,-333.1234 365.5149,-336.42 360.0051,-331.7679 366.4186,-328.4712 371.9283,-333.1234"/>
<polygon fill="#000000" stroke="#000000" points="679.9705,-352.7129 669.8171,-356.8552 674.9736,-352.5355 669.9768,-352.358 669.9768,-352.358 669.9768,-352.358 674.9736,-352.5355 670.1365,-347.8608 679.9705,-352.7129 679.9705,-352.7129"/>
<text text-anchor="middle" x="661.5558" y="-357.5168" font-family="Helvetica,sans-Serif" font-size="10.00" fill="#000000">participantes*</text>
<text text-anchor="middle" x="378.97" y="-322.417" font-family="Helvetica,sans-Serif" font-size="10.00" fill="#000000">1</text>
</g>
<!-- A6 -->
<g id="node7" class="node">
<title>A6</title>
<polygon fill="none" stroke="#000000" points="469.5,-122 469.5,-166 559.5,-166 559.5,-122 469.5,-122"/>
<text text-anchor="start" x="489.764" y="-147" font-family="Helvetica,sans-Serif" font-size="10.00" fill="#000000">&lt;&lt;Enum&gt;&gt;</text>
<text text-anchor="start" x="479.4965" y="-135" font-family="Helvetica,sans-Serif" font-size="10.00" fill="#000000">CaracterTorneo</text>
<polygon fill="none" stroke="#000000" points="469.5,-78 469.5,-122 559.5,-122 559.5,-78 469.5,-78"/>
<text text-anchor="start" x="486.445" y="-103" font-family="Helvetica,sans-Serif" font-size="10.00" fill="#000000">INDIVIDUAL</text>
<text text-anchor="start" x="493.943" y="-91" font-family="Helvetica,sans-Serif" font-size="10.00" fill="#000000">GRUPAL</text>
</g>
<!-- A0&#45;&gt;A6 -->
<g id="edge2" class="edge">
<title>A0&#45;&gt;A6</title>
<path fill="none" stroke="#000000" d="M360.0229,-202.3684C376.859,-193.0084 393.7113,-183.7628 410,-175 426.0986,-166.3395 443.7717,-157.2285 459.9301,-149.0503"/>
<polygon fill="#000000" stroke="#000000" points="469.2456,-144.3534 462.3424,-152.8738 464.781,-146.6045 460.3164,-148.8556 460.3164,-148.8556 460.3164,-148.8556 464.781,-146.6045 458.2904,-144.8375 469.2456,-144.3534 469.2456,-144.3534"/>
<text text-anchor="middle" x="456.8658" y="-157.0614" font-family="Helvetica,sans-Serif" font-size="10.00" fill="#000000">caracter1</text>
<text text-anchor="middle" x="371.7675" y="-183.18" font-family="Helvetica,sans-Serif" font-size="10.00" fill="#000000">*</text>
</g>
<!-- A9 -->
<g id="node10" class="node">
<title>A9</title>
<polygon fill="none" stroke="#000000" points="410.5,-296 410.5,-328 619.5,-328 619.5,-296 410.5,-296"/>
<text text-anchor="start" x="497.2185" y="-309" font-family="Helvetica,sans-Serif" font-size="10.00" fill="#000000">Reporte</text>
<polygon fill="none" stroke="#000000" points="410.5,-240 410.5,-296 619.5,-296 619.5,-240 410.5,-240"/>
<text text-anchor="start" x="487.4895" y="-277" font-family="Helvetica,sans-Serif" font-size="10.00" fill="#000000">fecha:Fecha</text>
<text text-anchor="start" x="458.042" y="-265" font-family="Helvetica,sans-Serif" font-size="10.00" fill="#000000">participanteA:Participante</text>
<text text-anchor="start" x="458.042" y="-253" font-family="Helvetica,sans-Serif" font-size="10.00" fill="#000000">participanteB:Participante</text>
<polygon fill="none" stroke="#000000" points="410.5,-184 410.5,-240 619.5,-240 619.5,-184 410.5,-184"/>
<text text-anchor="start" x="427.6225" y="-221" font-family="Helvetica,sans-Serif" font-size="10.00" fill="#000000">+Constructor(participanteA:Participante</text>
<text text-anchor="start" x="456.3775" y="-209" font-family="Helvetica,sans-Serif" font-size="10.00" fill="#000000">participanteB:Participante)</text>
<text text-anchor="start" x="420.406" y="-197" font-family="Helvetica,sans-Serif" font-size="10.00" fill="#000000">+getRegistros():RegistroReporte［*］</text>
</g>
<!-- A0&#45;&gt;A9 -->
<g id="edge1" class="edge">
<title>A0&#45;&gt;A9</title>
<path fill="none" stroke="#000000" stroke-dasharray="5,2" d="M360.4675,-279.0243C373.7373,-277.0408 386.8955,-275.0739 399.6051,-273.1741"/>
<polygon fill="#000000" stroke="#000000" points="409.6954,-271.6659 400.4705,-277.5948 404.7503,-272.4051 399.8052,-273.1443 399.8052,-273.1443 399.8052,-273.1443 404.7503,-272.4051 399.1399,-268.6937 409.6954,-271.6659 409.6954,-271.6659"/>
</g>
<!-- A3 -->
<g id="node4" class="node">
<title>A3</title>
<polygon fill="none" stroke="#000000" points="1021.5,-402 1021.5,-434 1198.5,-434 1198.5,-402 1021.5,-402"/>
<text text-anchor="start" x="1094.438" y="-415" font-family="Helvetica,sans-Serif" font-size="10.00" fill="#000000">Equipo</text>
<polygon fill="none" stroke="#000000" points="1021.5,-370 1021.5,-402 1198.5,-402 1198.5,-370 1021.5,-370"/>
<text text-anchor="start" x="1079.1605" y="-383" font-family="Helvetica,sans-Serif" font-size="10.00" fill="#000000">nombre:Texto</text>
<polygon fill="none" stroke="#000000" points="1021.5,-278 1021.5,-370 1198.5,-370 1198.5,-278 1021.5,-278"/>
<text text-anchor="start" x="1048.741" y="-351" font-family="Helvetica,sans-Serif" font-size="10.00" fill="#000000">+Constructor(nombre:Texto</text>
<text text-anchor="start" x="1057.485" y="-339" font-family="Helvetica,sans-Serif" font-size="10.00" fill="#000000">representante:Persona)</text>
<text text-anchor="start" x="1065.1335" y="-327" font-family="Helvetica,sans-Serif" font-size="10.00" fill="#000000">+getNombre():Texto</text>
<text text-anchor="start" x="1044.0075" y="-315" font-family="Helvetica,sans-Serif" font-size="10.00" fill="#000000">+getRepresentante():Persona</text>
<text text-anchor="start" x="1031.507" y="-303" font-family="Helvetica,sans-Serif" font-size="10.00" fill="#000000">+getJugadores():Jugador［*］</text>
<text text-anchor="start" x="1031.2355" y="-291" font-family="Helvetica,sans-Serif" font-size="10.00" fill="#000000">+registrarJugador(jugador:Jugador)</text>
</g>
<!-- A2&#45;&gt;A3 -->
<g id="edge9" class="edge">
<title>A2&#45;&gt;A3</title>
<path fill="none" stroke="#000000" d="M943.2613,-356C969.4926,-356 996.3188,-356 1020.5544,-356"/>
<polygon fill="none" stroke="#000000" points="943.2437,-352.5001 933.2436,-356 943.2436,-359.5001 943.2437,-352.5001"/>
</g>
<!-- A5 -->
<g id="node6" class="node">
<title>A5</title>
<polygon fill="none" stroke="#000000" points="1467.5,-408 1467.5,-440 1644.5,-440 1644.5,-408 1467.5,-408"/>
<text text-anchor="start" x="1537.938" y="-421" font-family="Helvetica,sans-Serif" font-size="10.00" fill="#000000">Jugador</text>
<polygon fill="none" stroke="#000000" points="1467.5,-376 1467.5,-408 1644.5,-408 1644.5,-376 1467.5,-376"/>
<text text-anchor="start" x="1503.489" y="-389" font-family="Helvetica,sans-Serif" font-size="10.00" fill="#000000">fechaNacimiento:Fecha</text>
<polygon fill="none" stroke="#000000" points="1467.5,-272 1467.5,-376 1644.5,-376 1644.5,-272 1467.5,-272"/>
<text text-anchor="start" x="1494.741" y="-357" font-family="Helvetica,sans-Serif" font-size="10.00" fill="#000000">+Constructor(nombre:Texto</text>
<text text-anchor="start" x="1524.8815" y="-345" font-family="Helvetica,sans-Serif" font-size="10.00" fill="#000000">apellido:Texto</text>
<text text-anchor="start" x="1530.165" y="-333" font-family="Helvetica,sans-Serif" font-size="10.00" fill="#000000">email:Texto</text>
<text text-anchor="start" x="1527.3855" y="-321" font-family="Helvetica,sans-Serif" font-size="10.00" fill="#000000">celular:Texto</text>
<text text-anchor="start" x="1501.8245" y="-309" font-family="Helvetica,sans-Serif" font-size="10.00" fill="#000000">fechaNacimiento:Fecha)</text>
<text text-anchor="start" x="1488.627" y="-297" font-family="Helvetica,sans-Serif" font-size="10.00" fill="#000000">+getFechaNacimiento():Fecha</text>
<text text-anchor="start" x="1477.2295" y="-285" font-family="Helvetica,sans-Serif" font-size="10.00" fill="#000000">+calcularEdad(fecha:Fecha):Entero</text>
</g>
<!-- A2&#45;&gt;A5 -->
<g id="edge8" class="edge">
<title>A2&#45;&gt;A5</title>
<path fill="none" stroke="#000000" d="M942.6306,-425.3837C959.6224,-432.18 977.0037,-438.2889 994,-443 1175.6241,-493.3436 1240.0011,-537.7548 1417,-473 1437.3966,-465.5379 1456.8598,-453.5987 1474.411,-440.1378"/>
<polygon fill="none" stroke="#000000" points="943.8164,-422.0873 933.2356,-421.5417 941.1668,-428.5665 943.8164,-422.0873"/>
</g>
<!-- A2JA7 -->
<!-- A2&#45;&gt;A2JA7 -->
<g id="edge10" class="edge">
<title>A2&#45;&gt;A2JA7</title>
<path fill="none" stroke="#000000" d="M933.2199,-276.1401C937.0624,-271.9131 940.677,-267.532 944,-263 990.0656,-200.1756 933.4071,-143.9636 994,-95 1032.1706,-64.1553 1102.5042,-83.9323 1109.0141,-85.8542"/>
<text text-anchor="middle" x="939.0663" y="-254.0137" font-family="Helvetica,sans-Serif" font-size="10.00" fill="#000000">*</text>
</g>
<!-- A4 -->
<g id="node5" class="node">
<title>A4</title>
<polygon fill="none" stroke="#000000" points="1275,-432 1275,-464 1417,-464 1417,-432 1275,-432"/>
<text text-anchor="start" x="1327.383" y="-445" font-family="Helvetica,sans-Serif" font-size="10.00" fill="#000000">Persona</text>
<polygon fill="none" stroke="#000000" points="1275,-364 1275,-432 1417,-432 1417,-364 1275,-364"/>
<text text-anchor="start" x="1315.1605" y="-413" font-family="Helvetica,sans-Serif" font-size="10.00" fill="#000000">nombre:Texto</text>
<text text-anchor="start" x="1314.8815" y="-401" font-family="Helvetica,sans-Serif" font-size="10.00" fill="#000000">apellido:Texto</text>
<text text-anchor="start" x="1320.165" y="-389" font-family="Helvetica,sans-Serif" font-size="10.00" fill="#000000">email:Texto</text>
<text text-anchor="start" x="1317.3855" y="-377" font-family="Helvetica,sans-Serif" font-size="10.00" fill="#000000">celular:Texto</text>
<polygon fill="none" stroke="#000000" points="1275,-248 1275,-364 1417,-364 1417,-248 1275,-248"/>
<text text-anchor="start" x="1284.741" y="-345" font-family="Helvetica,sans-Serif" font-size="10.00" fill="#000000">+Constructor(nombre:Texto</text>
<text text-anchor="start" x="1314.8815" y="-333" font-family="Helvetica,sans-Serif" font-size="10.00" fill="#000000">apellido:Texto</text>
<text text-anchor="start" x="1320.165" y="-321" font-family="Helvetica,sans-Serif" font-size="10.00" fill="#000000">email:Texto</text>
<text text-anchor="start" x="1315.721" y="-309" font-family="Helvetica,sans-Serif" font-size="10.00" fill="#000000">celular:Texto)</text>
<text text-anchor="start" x="1301.1335" y="-297" font-family="Helvetica,sans-Serif" font-size="10.00" fill="#000000">+getNombre():Texto</text>
<text text-anchor="start" x="1301.1295" y="-285" font-family="Helvetica,sans-Serif" font-size="10.00" fill="#000000">+getApellido():Texto</text>
<text text-anchor="start" x="1306.413" y="-273" font-family="Helvetica,sans-Serif" font-size="10.00" fill="#000000">+getEmail():Texto</text>
<text text-anchor="start" x="1303.079" y="-261" font-family="Helvetica,sans-Serif" font-size="10.00" fill="#000000">+getCelular():Texto</text>
</g>
<!-- A3&#45;&gt;A4 -->
<g id="edge5" class="edge">
<title>A3&#45;&gt;A4</title>
<path fill="none" stroke="#000000" d="M1210.5183,-356C1228.6199,-356 1247.2721,-356 1264.7287,-356"/>
<polygon fill="none" stroke="#000000" points="1210.2367,-356.0001 1204.2367,-360 1198.2367,-356 1204.2368,-352 1210.2367,-356.0001"/>
<polygon fill="#000000" stroke="#000000" points="1274.8556,-356 1264.8556,-360.5001 1269.8556,-356 1264.8556,-356.0001 1264.8556,-356.0001 1264.8556,-356.0001 1269.8556,-356 1264.8555,-351.5001 1274.8556,-356 1274.8556,-356"/>
<text text-anchor="middle" x="1256.7294" y="-361.4524" font-family="Helvetica,sans-Serif" font-size="10.00" fill="#000000">representante1</text>
<text text-anchor="middle" x="1216.3629" y="-344.5476" font-family="Helvetica,sans-Serif" font-size="10.00" fill="#000000">1</text>
</g>
<!-- A3&#45;&gt;A5 -->
<g id="edge7" class="edge">
<title>A3&#45;&gt;A5</title>
<path fill="none" stroke="#000000" d="M1208.27,-282.5562C1238.7047,-260.6615 1266.4893,-241.7045 1275,-239 1335.1472,-219.8865 1357.7308,-217.3164 1417,-239 1434.2096,-245.2961 1450.7548,-254.7796 1466.0475,-265.6751"/>
<polygon fill="none" stroke="#000000" points="1208.0418,-282.7212 1205.5225,-289.4779 1198.3166,-289.7512 1200.8358,-282.9945 1208.0418,-282.7212"/>
<polygon fill="#000000" stroke="#000000" points="1474.411,-271.8622 1463.6954,-269.5326 1470.3913,-268.8885 1466.3717,-265.9149 1466.3717,-265.9149 1466.3717,-265.9149 1470.3913,-268.8885 1469.048,-262.2972 1474.411,-271.8622 1474.411,-271.8622"/>
<text text-anchor="middle" x="1454.812" y="-264.8772" font-family="Helvetica,sans-Serif" font-size="10.00" fill="#000000">jugador*</text>
<text text-anchor="middle" x="1208.0549" y="-269.2823" font-family="Helvetica,sans-Serif" font-size="10.00" fill="#000000">1</text>
</g>
<!-- A4&#45;&gt;A5 -->
<g id="edge6" class="edge">
<title>A4&#45;&gt;A5</title>
<path fill="none" stroke="#000000" d="M1427.4161,-356C1440.2824,-356 1453.6436,-356 1466.6686,-356"/>
<polygon fill="none" stroke="#000000" points="1427.2195,-352.5001 1417.2195,-356 1427.2194,-359.5001 1427.2195,-352.5001"/>
</g>
<!-- A7 -->
<g id="node8" class="node">
<title>A7</title>
<polygon fill="none" stroke="#000000" points="1275,-120 1275,-152 1417,-152 1417,-120 1275,-120"/>
<text text-anchor="start" x="1321.829" y="-133" font-family="Helvetica,sans-Serif" font-size="10.00" fill="#000000">Estadistica</text>
<polygon fill="none" stroke="#000000" points="1275,-88 1275,-120 1417,-120 1417,-88 1275,-88"/>
<text text-anchor="start" x="1315.1605" y="-101" font-family="Helvetica,sans-Serif" font-size="10.00" fill="#000000">nombre:Texto</text>
<polygon fill="none" stroke="#000000" points="1275,-20 1275,-88 1417,-88 1417,-20 1275,-20"/>
<text text-anchor="start" x="1284.741" y="-69" font-family="Helvetica,sans-Serif" font-size="10.00" fill="#000000">+Constructor(nombre:Texto</text>
<text text-anchor="start" x="1300.994" y="-57" font-family="Helvetica,sans-Serif" font-size="10.00" fill="#000000">tipo:TipoEstadistica)</text>
<text text-anchor="start" x="1301.1335" y="-45" font-family="Helvetica,sans-Serif" font-size="10.00" fill="#000000">+getNombre():Texto</text>
<text text-anchor="start" x="1287.7965" y="-33" font-family="Helvetica,sans-Serif" font-size="10.00" fill="#000000">+getTipo():TipoEstadistica</text>
</g>
<!-- A11 -->
<g id="node12" class="node">
<title>A11</title>
<polygon fill="none" stroke="#000000" points="1512.5,-92 1512.5,-136 1599.5,-136 1599.5,-92 1512.5,-92"/>
<text text-anchor="start" x="1531.264" y="-117" font-family="Helvetica,sans-Serif" font-size="10.00" fill="#000000">&lt;&lt;Enum&gt;&gt;</text>
<text text-anchor="start" x="1522.106" y="-105" font-family="Helvetica,sans-Serif" font-size="10.00" fill="#000000">TipoEstadistica</text>
<polygon fill="none" stroke="#000000" points="1512.5,-36 1512.5,-92 1599.5,-92 1599.5,-36 1512.5,-36"/>
<text text-anchor="start" x="1532.939" y="-73" font-family="Helvetica,sans-Serif" font-size="10.00" fill="#000000">POSITIVA</text>
<text text-anchor="start" x="1530.719" y="-61" font-family="Helvetica,sans-Serif" font-size="10.00" fill="#000000">NEGATIVA</text>
<text text-anchor="start" x="1535.448" y="-49" font-family="Helvetica,sans-Serif" font-size="10.00" fill="#000000">NEUTRA</text>
</g>
<!-- A7&#45;&gt;A11 -->
<g id="edge13" class="edge">
<title>A7&#45;&gt;A11</title>
<path fill="none" stroke="#000000" d="M1417.2195,-86C1444.8477,-86 1475.9549,-86 1501.6586,-86"/>
<polygon fill="#000000" stroke="#000000" points="1511.9518,-86 1501.9519,-90.5001 1506.9518,-86 1501.9518,-86.0001 1501.9518,-86.0001 1501.9518,-86.0001 1506.9518,-86 1501.9518,-81.5001 1511.9518,-86 1511.9518,-86"/>
<text text-anchor="middle" x="1493.8257" y="-91.4524" font-family="Helvetica,sans-Serif" font-size="10.00" fill="#000000">tipo1</text>
<text text-anchor="middle" x="1435.3456" y="-74.5476" font-family="Helvetica,sans-Serif" font-size="10.00" fill="#000000">*</text>
</g>
<!-- A8 -->
<g id="node9" class="node">
<title>A8</title>
<polygon fill="none" stroke="#000000" points="994.5,-228 994.5,-260 1225.5,-260 1225.5,-228 994.5,-228"/>
<text text-anchor="start" x="1067.2175" y="-241" font-family="Helvetica,sans-Serif" font-size="10.00" fill="#000000">RegistroEstadistica</text>
<polygon fill="none" stroke="#000000" points="994.5,-184 994.5,-228 1225.5,-228 1225.5,-184 994.5,-184"/>
<text text-anchor="start" x="1087.4995" y="-209" font-family="Helvetica,sans-Serif" font-size="10.00" fill="#000000">valor:Real</text>
<text text-anchor="start" x="1060.8235" y="-197" font-family="Helvetica,sans-Serif" font-size="10.00" fill="#000000">estadistica:Estadistica</text>
<polygon fill="none" stroke="#000000" points="994.5,-104 994.5,-184 1225.5,-184 1225.5,-104 994.5,-104"/>
<text text-anchor="start" x="1057.08" y="-165" font-family="Helvetica,sans-Serif" font-size="10.00" fill="#000000">+Constructor(valor:Real</text>
<text text-anchor="start" x="1059.159" y="-153" font-family="Helvetica,sans-Serif" font-size="10.00" fill="#000000">estadistica:Estadistica)</text>
<text text-anchor="start" x="1073.468" y="-141" font-family="Helvetica,sans-Serif" font-size="10.00" fill="#000000">+getValor():Real</text>
<text text-anchor="start" x="1047.0715" y="-129" font-family="Helvetica,sans-Serif" font-size="10.00" fill="#000000">+getEstadistica():Estadistica</text>
<text text-anchor="start" x="1004.435" y="-117" font-family="Helvetica,sans-Serif" font-size="10.00" fill="#000000">compareTo(registro:RegistroEstadistica):Entero</text>
</g>
<!-- A8&#45;&gt;A2JA7 -->
<g id="edge12" class="edge">
<title>A8&#45;&gt;A2JA7</title>
<path fill="none" stroke="#000000" stroke-dasharray="5,2" d="M1109.5,-103.9312C1109.5,-101.4623 1109.5,-98.9935 1109.5,-96.5247"/>
<polygon fill="#000000" stroke="#000000" points="1109.5,-86.375 1114.0001,-96.375 1109.5,-91.375 1109.5001,-96.375 1109.5001,-96.375 1109.5001,-96.375 1109.5,-91.375 1105.0001,-96.375 1109.5,-86.375 1109.5,-86.375"/>
</g>
<!-- A9&#45;&gt;A2 -->
<g id="edge16" class="edge">
<title>A9&#45;&gt;A2</title>
<path fill="none" stroke="#000000" d="M630.7619,-295.8157C643.7687,-300.2701 657.1043,-304.8371 670.3317,-309.367"/>
<polygon fill="none" stroke="#000000" points="630.4467,-295.7078 623.4743,-297.5481 619.0939,-291.8198 626.0663,-289.9796 630.4467,-295.7078"/>
<polygon fill="#000000" stroke="#000000" points="679.938,-312.6569 669.0194,-313.6741 675.2077,-311.0369 670.4774,-309.4169 670.4774,-309.4169 670.4774,-309.4169 675.2077,-311.0369 671.9354,-305.1596 679.938,-312.6569 679.938,-312.6569"/>
<text text-anchor="middle" x="660.0511" y="-311.7806" font-family="Helvetica,sans-Serif" font-size="10.00" fill="#000000">2</text>
<text text-anchor="middle" x="638.9809" y="-286.6961" font-family="Helvetica,sans-Serif" font-size="10.00" fill="#000000">*</text>
</g>
<!-- A10 -->
<g id="node11" class="node">
<title>A10</title>
<polygon fill="none" stroke="#000000" points="669.5,-222 669.5,-254 944.5,-254 944.5,-222 669.5,-222"/>
<text text-anchor="start" x="770.607" y="-235" font-family="Helvetica,sans-Serif" font-size="10.00" fill="#000000">RegistroReporte</text>
<polygon fill="none" stroke="#000000" points="669.5,-178 669.5,-222 944.5,-222 944.5,-178 669.5,-178"/>
<text text-anchor="start" x="709.483" y="-203" font-family="Helvetica,sans-Serif" font-size="10.00" fill="#000000">estadisticaParticipanteA:RegistroEstadistica</text>
<text text-anchor="start" x="709.483" y="-191" font-family="Helvetica,sans-Serif" font-size="10.00" fill="#000000">estadisticaParticipanteB:RegistroEstadistica</text>
<polygon fill="none" stroke="#000000" points="669.5,-110 669.5,-178 944.5,-178 944.5,-110 669.5,-110"/>
<text text-anchor="start" x="679.0635" y="-159" font-family="Helvetica,sans-Serif" font-size="10.00" fill="#000000">+Constructor(estadisticaParticipanteA:RegistroEstadistica</text>
<text text-anchor="start" x="707.8185" y="-147" font-family="Helvetica,sans-Serif" font-size="10.00" fill="#000000">estadisticaParticipanteB:RegistroEstadistica)</text>
<text text-anchor="start" x="696.0105" y="-135" font-family="Helvetica,sans-Serif" font-size="10.00" fill="#000000">+getEstadisticaParticianteA():ResgistroEstadistica</text>
<text text-anchor="start" x="696.0105" y="-123" font-family="Helvetica,sans-Serif" font-size="10.00" fill="#000000">+getEstadisticaParticianteB():ResgistroEstadistica</text>
</g>
<!-- A9&#45;&gt;A10 -->
<g id="edge14" class="edge">
<title>A9&#45;&gt;A10</title>
<path fill="none" stroke="#000000" d="M630.9221,-226.4958C640.1591,-224.1549 649.5609,-221.7722 658.9712,-219.3874"/>
<polygon fill="none" stroke="#000000" points="630.7262,-226.5453 625.8927,-231.8968 619.0939,-229.4933 623.9274,-224.1419 630.7262,-226.5453"/>
<polygon fill="#000000" stroke="#000000" points="668.7742,-216.9031 660.1862,-223.7219 663.9274,-218.1314 659.0807,-219.3598 659.0807,-219.3598 659.0807,-219.3598 663.9274,-218.1314 657.9752,-214.9977 668.7742,-216.9031 668.7742,-216.9031"/>
<text text-anchor="middle" x="653.2799" y="-226.5493" font-family="Helvetica,sans-Serif" font-size="10.00" fill="#000000">registros*</text>
<text text-anchor="middle" x="634.5882" y="-213.8471" font-family="Helvetica,sans-Serif" font-size="10.00" fill="#000000">1</text>
</g>
<!-- A10&#45;&gt;A8 -->
<g id="edge15" class="edge">
<title>A10&#45;&gt;A8</title>
<path fill="none" stroke="#000000" d="M956.325,-182C965.4822,-182 974.6475,-182 983.6871,-182"/>
<polygon fill="none" stroke="#000000" points="956.2575,-182.0001 950.2575,-186 944.2575,-182 950.2576,-178 956.2575,-182.0001"/>
<polygon fill="#000000" stroke="#000000" points="993.8326,-182 983.8326,-186.5001 988.8326,-182 983.8326,-182.0001 983.8326,-182.0001 983.8326,-182.0001 988.8326,-182 983.8325,-177.5001 993.8326,-182 993.8326,-182"/>
<text text-anchor="middle" x="975.7064" y="-187.4524" font-family="Helvetica,sans-Serif" font-size="10.00" fill="#000000">2</text>
<text text-anchor="middle" x="962.3837" y="-170.5476" font-family="Helvetica,sans-Serif" font-size="10.00" fill="#000000">*</text>
</g>
<!-- A2JA7&#45;&gt;A7 -->
<g id="edge11" class="edge">
<title>A2JA7&#45;&gt;A7</title>
<path fill="none" stroke="#000000" d="M1109.8837,-86C1116.1754,-86 1198.6021,-86 1264.3173,-86"/>
<polygon fill="#000000" stroke="#000000" points="1274.7064,-86 1264.7065,-90.5001 1269.7064,-86 1264.7064,-86.0001 1264.7064,-86.0001 1264.7064,-86.0001 1269.7064,-86 1264.7064,-81.5001 1274.7064,-86 1274.7064,-86"/>
<text text-anchor="middle" x="1256.5803" y="-91.4524" font-family="Helvetica,sans-Serif" font-size="10.00" fill="#000000">*</text>
</g>
</g>
</svg>
