<?xml version="1.0" encoding="UTF-8" standalone="no"?>
<!DOCTYPE svg PUBLIC "-//W3C//DTD SVG 1.1//EN"
 "http://www.w3.org/Graphics/SVG/1.1/DTD/svg11.dtd">
<!-- Generated by graphviz version 2.40.1 (20161225.0304)
 -->
<!-- Title: G Pages: 1 -->
<svg width="1790pt" height="370pt"
 viewBox="0.00 0.00 1790.26 370.00" xmlns="http://www.w3.org/2000/svg" xmlns:xlink="http://www.w3.org/1999/xlink">
<g id="graph0" class="graph" transform="scale(1 1) rotate(0) translate(4 366)">
<title>G</title>
<polygon fill="#ffffff" stroke="transparent" points="-4,4 -4,-366 1786.263,-366 1786.263,4 -4,4"/>
<!-- A0 -->
<g id="node1" class="node">
<title>A0</title>
<polygon fill="none" stroke="#000000" points=".5,-292 .5,-324 229.5,-324 229.5,-292 .5,-292"/>
<text text-anchor="start" x="99.163" y="-305" font-family="Helvetica,sans-Serif" font-size="10.00" fill="#000000">Torneo</text>
<polygon fill="none" stroke="#000000" points=".5,-188 .5,-292 229.5,-292 229.5,-188 .5,-188"/>
<text text-anchor="start" x="84.1605" y="-273" font-family="Helvetica,sans-Serif" font-size="10.00" fill="#000000">nombre:Texto</text>
<text text-anchor="start" x="75.822" y="-261" font-family="Helvetica,sans-Serif" font-size="10.00" fill="#000000">fechaInicio:Fecha</text>
<text text-anchor="start" x="46.6515" y="-249" font-family="Helvetica,sans-Serif" font-size="10.00" fill="#000000">fechaInicioInscripciones:Fecha</text>
<text text-anchor="start" x="44.712" y="-237" font-family="Helvetica,sans-Serif" font-size="10.00" fill="#000000">fechaCierreInscripciones:Fecha</text>
<text text-anchor="start" x="53.042" y="-225" font-family="Helvetica,sans-Serif" font-size="10.00" fill="#000000">numeroParticipantes:Entero</text>
<text text-anchor="start" x="75.5485" y="-213" font-family="Helvetica,sans-Serif" font-size="10.00" fill="#000000">limiteEdad:Entero</text>
<text text-anchor="start" x="64.1595" y="-201" font-family="Helvetica,sans-Serif" font-size="10.00" fill="#000000">valorInscripcion:Entero</text>
<polygon fill="none" stroke="#000000" points=".5,-48 .5,-188 229.5,-188 229.5,-48 .5,-48"/>
<text text-anchor="start" x="53.741" y="-169" font-family="Helvetica,sans-Serif" font-size="10.00" fill="#000000">+Constructor(nombre:Texto</text>
<text text-anchor="start" x="75.822" y="-157" font-family="Helvetica,sans-Serif" font-size="10.00" fill="#000000">fechaInicio:Fecha</text>
<text text-anchor="start" x="46.6515" y="-145" font-family="Helvetica,sans-Serif" font-size="10.00" fill="#000000">fechaInicioInscripciones:Fecha</text>
<text text-anchor="start" x="44.712" y="-133" font-family="Helvetica,sans-Serif" font-size="10.00" fill="#000000">fechaCierreInscripciones:Fecha</text>
<text text-anchor="start" x="53.042" y="-121" font-family="Helvetica,sans-Serif" font-size="10.00" fill="#000000">numeroParticipantes:Entero</text>
<text text-anchor="start" x="75.5485" y="-109" font-family="Helvetica,sans-Serif" font-size="10.00" fill="#000000">limiteEdad:Entero</text>
<text text-anchor="start" x="64.1595" y="-97" font-family="Helvetica,sans-Serif" font-size="10.00" fill="#000000">valorInscripcion:Entero</text>
<text text-anchor="start" x="64.1555" y="-85" font-family="Helvetica,sans-Serif" font-size="10.00" fill="#000000">tipoTorneo:TipoTorneo</text>
<text text-anchor="start" x="58.8855" y="-73" font-family="Helvetica,sans-Serif" font-size="10.00" fill="#000000">caracter:CaracterTorneo)</text>
<text text-anchor="start" x="10.4025" y="-61" font-family="Helvetica,sans-Serif" font-size="10.00" fill="#000000">+registrarParticipante(participante:Participante)</text>
</g>
<!-- A1 -->
<g id="node2" class="node">
<title>A1</title>
<polygon fill="none" stroke="#000000" points="310.5,-318 310.5,-362 381.5,-362 381.5,-318 310.5,-318"/>
<text text-anchor="start" x="321.264" y="-343" font-family="Helvetica,sans-Serif" font-size="10.00" fill="#000000">&lt;&lt;Enum&gt;&gt;</text>
<text text-anchor="start" x="320.44" y="-331" font-family="Helvetica,sans-Serif" font-size="10.00" fill="#000000">TipoTorneo</text>
<polygon fill="none" stroke="#000000" points="310.5,-250 310.5,-318 381.5,-318 381.5,-250 310.5,-250"/>
<text text-anchor="start" x="329.6075" y="-299" font-family="Helvetica,sans-Serif" font-size="10.00" fill="#000000">LOCAL</text>
<text text-anchor="start" x="320.164" y="-287" font-family="Helvetica,sans-Serif" font-size="10.00" fill="#000000">REGIONAL</text>
<text text-anchor="start" x="320.444" y="-275" font-family="Helvetica,sans-Serif" font-size="10.00" fill="#000000">NACIONAL</text>
<text text-anchor="start" x="323.5035" y="-263" font-family="Helvetica,sans-Serif" font-size="10.00" fill="#000000">MUNDIAL</text>
</g>
<!-- A0&#45;&gt;A1 -->
<g id="edge3" class="edge">
<title>A0&#45;&gt;A1</title>
<path fill="none" stroke="#000000" d="M229.3232,-245.6484C254.7553,-258.8599 280.2311,-272.0941 300.8182,-282.7887"/>
<polygon fill="#000000" stroke="#000000" points="309.9155,-287.5145 298.9669,-286.8979 305.4784,-285.2095 301.0414,-282.9046 301.0414,-282.9046 301.0414,-282.9046 305.4784,-285.2095 303.1159,-278.9112 309.9155,-287.5145 309.9155,-287.5145"/>
<text text-anchor="middle" x="289.9337" y="-283.6592" font-family="Helvetica,sans-Serif" font-size="10.00" fill="#000000">tipoTorneo1</text>
<text text-anchor="middle" x="249.3049" y="-243.5037" font-family="Helvetica,sans-Serif" font-size="10.00" fill="#000000">*</text>
</g>
<!-- A4 -->
<g id="node5" class="node">
<title>A4</title>
<polygon fill="none" stroke="#000000" points="551.5475,-240 462.1505,-240 462.1505,-204 551.5475,-204 551.5475,-240"/>
<text text-anchor="middle" x="506.849" y="-225" font-family="Helvetica,sans-Serif" font-size="10.00" fill="#000000">&lt;&lt;interface&gt;&gt;</text>
<text text-anchor="middle" x="506.849" y="-213" font-family="Helvetica,sans-Serif" font-size="10.00" fill="#000000">Participante</text>
</g>
<!-- A0&#45;&gt;A4 -->
<g id="edge4" class="edge">
<title>A0&#45;&gt;A4</title>
<path fill="none" stroke="#000000" d="M241.2706,-199.3552C254.013,-200.6213 266.7602,-201.8573 279,-203 337.9735,-208.5056 405.6082,-214.0481 451.7717,-217.714"/>
<polygon fill="none" stroke="#000000" points="241.0122,-199.3294 234.6436,-202.7119 229.0719,-198.1341 235.4405,-194.7517 241.0122,-199.3294"/>
<polygon fill="#000000" stroke="#000000" points="461.8644,-218.5128 451.5405,-222.2097 456.8799,-218.1183 451.8955,-217.7238 451.8955,-217.7238 451.8955,-217.7238 456.8799,-218.1183 452.2506,-213.2378 461.8644,-218.5128 461.8644,-218.5128"/>
<text text-anchor="middle" x="443.1279" y="-222.5088" font-family="Helvetica,sans-Serif" font-size="10.00" fill="#000000">participantes*</text>
<text text-anchor="middle" x="247.9498" y="-188.5292" font-family="Helvetica,sans-Serif" font-size="10.00" fill="#000000">1</text>
</g>
<!-- A8 -->
<g id="node9" class="node">
<title>A8</title>
<polygon fill="none" stroke="#000000" points="300.5,-44 300.5,-88 390.5,-88 390.5,-44 300.5,-44"/>
<text text-anchor="start" x="320.764" y="-69" font-family="Helvetica,sans-Serif" font-size="10.00" fill="#000000">&lt;&lt;Enum&gt;&gt;</text>
<text text-anchor="start" x="310.4965" y="-57" font-family="Helvetica,sans-Serif" font-size="10.00" fill="#000000">CaracterTorneo</text>
<polygon fill="none" stroke="#000000" points="300.5,0 300.5,-44 390.5,-44 390.5,0 300.5,0"/>
<text text-anchor="start" x="317.445" y="-25" font-family="Helvetica,sans-Serif" font-size="10.00" fill="#000000">INDIVIDUAL</text>
<text text-anchor="start" x="324.943" y="-13" font-family="Helvetica,sans-Serif" font-size="10.00" fill="#000000">GRUPAL</text>
</g>
<!-- A0&#45;&gt;A8 -->
<g id="edge2" class="edge">
<title>A0&#45;&gt;A8</title>
<path fill="none" stroke="#000000" d="M229.3232,-115.416C251.1217,-102.0161 272.9523,-88.5964 291.7091,-77.0663"/>
<polygon fill="#000000" stroke="#000000" points="300.3771,-71.7379 294.2146,-80.8084 296.1175,-74.3564 291.8579,-76.9748 291.8579,-76.9748 291.8579,-76.9748 296.1175,-74.3564 289.5013,-73.1412 300.3771,-71.7379 300.3771,-71.7379"/>
<text text-anchor="middle" x="289.3616" y="-85.431" font-family="Helvetica,sans-Serif" font-size="10.00" fill="#000000">caracter1</text>
<text text-anchor="middle" x="240.3387" y="-95.7229" font-family="Helvetica,sans-Serif" font-size="10.00" fill="#000000">*</text>
</g>
<!-- A11 -->
<g id="node12" class="node">
<title>A11</title>
<polygon fill="none" stroke="#000000" points="279.5,-162 279.5,-194 412.5,-194 412.5,-162 279.5,-162"/>
<text text-anchor="start" x="328.2185" y="-175" font-family="Helvetica,sans-Serif" font-size="10.00" fill="#000000">Reporte</text>
<polygon fill="none" stroke="#000000" points="279.5,-106 279.5,-162 412.5,-162 412.5,-106 279.5,-106"/>
<text text-anchor="start" x="318.4895" y="-143" font-family="Helvetica,sans-Serif" font-size="10.00" fill="#000000">fecha:Fecha</text>
<text text-anchor="start" x="289.042" y="-131" font-family="Helvetica,sans-Serif" font-size="10.00" fill="#000000">participanteA:Participante</text>
<text text-anchor="start" x="289.042" y="-119" font-family="Helvetica,sans-Serif" font-size="10.00" fill="#000000">participanteB:Participante</text>
</g>
<!-- A0&#45;&gt;A11 -->
<g id="edge1" class="edge">
<title>A0&#45;&gt;A11</title>
<path fill="none" stroke="#000000" stroke-dasharray="5,2" d="M229.3232,-168.1055C242.7253,-166.0168 256.1395,-163.9263 268.844,-161.9464"/>
<polygon fill="#000000" stroke="#000000" points="278.8669,-160.3844 269.6791,-166.3707 273.9265,-161.1544 268.9861,-161.9243 268.9861,-161.9243 268.9861,-161.9243 273.9265,-161.1544 268.2932,-157.478 278.8669,-160.3844 278.8669,-160.3844"/>
</g>
<!-- A2 -->
<g id="node3" class="node">
<title>A2</title>
<polygon fill="none" stroke="#000000" points="1273.0463,-222 1159.9147,-222 1159.9147,-186 1273.0463,-186 1273.0463,-222"/>
<text text-anchor="middle" x="1216.4805" y="-207" font-family="Helvetica,sans-Serif" font-size="10.00" fill="#000000">&lt;&lt;interface&gt;&gt;</text>
<text text-anchor="middle" x="1216.4805" y="-195" font-family="Helvetica,sans-Serif" font-size="10.00" fill="#000000">RegistroEstadistica</text>
</g>
<!-- A3 -->
<g id="node4" class="node">
<title>A3</title>
<polygon fill="none" stroke="#000000" points="1323.763,-204 1323.763,-236 1514.763,-236 1514.763,-204 1323.763,-204"/>
<text text-anchor="start" x="1367.0375" y="-217" font-family="Helvetica,sans-Serif" font-size="10.00" fill="#000000">RegistroEstadisticaImpl</text>
<polygon fill="none" stroke="#000000" points="1323.763,-172 1323.763,-204 1514.763,-204 1514.763,-172 1323.763,-172"/>
<text text-anchor="start" x="1333.416" y="-185" font-family="Helvetica,sans-Serif" font-size="10.00" fill="#000000">estadisticas:ValorEstadistica［*］</text>
</g>
<!-- A2&#45;&gt;A3 -->
<g id="edge18" class="edge">
<title>A2&#45;&gt;A3</title>
<path fill="none" stroke="#000000" d="M1283.1491,-204C1295.9299,-204 1309.5449,-204 1323.0312,-204"/>
<polygon fill="none" stroke="#000000" points="1283.0965,-200.5001 1273.0964,-204 1283.0964,-207.5001 1283.0965,-200.5001"/>
</g>
<!-- A2&#45;&gt;A4 -->
<g id="edge17" class="edge">
<title>A2&#45;&gt;A4</title>
<path fill="none" stroke="#000000" d="M1194.6453,-229.6148C1174.7049,-251.3514 1143.2889,-281.6872 1109.698,-299 1038.7795,-335.5514 1013.9786,-330.0547 934.698,-339 785.1038,-355.8788 741.2877,-333.374 601.698,-277 577.341,-267.1633 551.6818,-251.9494 533.2023,-240.0141"/>
<polygon fill="none" stroke="#000000" points="1197.3752,-231.8134 1201.4554,-222.0358 1192.1683,-227.1349 1197.3752,-231.8134"/>
</g>
<!-- A2JA9 -->
<!-- A2&#45;&gt;A2JA9 -->
<g id="edge10" class="edge">
<title>A2&#45;&gt;A2JA9</title>
<path fill="none" stroke="#000000" d="M1223.9898,-185.8849C1238.1543,-154.2926 1272.0676,-89.7494 1323.263,-61 1358.1121,-41.4301 1411.5547,-50.6436 1418.0989,-51.8717"/>
<text text-anchor="middle" x="1223.9754" y="-162.8849" font-family="Helvetica,sans-Serif" font-size="10.00" fill="#000000">*</text>
</g>
<!-- A5 -->
<g id="node6" class="node">
<title>A5</title>
<polygon fill="none" stroke="#000000" points="662.198,-236 662.198,-268 743.198,-268 743.198,-236 662.198,-236"/>
<text text-anchor="start" x="687.136" y="-249" font-family="Helvetica,sans-Serif" font-size="10.00" fill="#000000">Equipo</text>
<polygon fill="none" stroke="#000000" points="662.198,-204 662.198,-236 743.198,-236 743.198,-204 662.198,-204"/>
<text text-anchor="start" x="671.8585" y="-217" font-family="Helvetica,sans-Serif" font-size="10.00" fill="#000000">nombre:Texto</text>
</g>
<!-- A4&#45;&gt;A5 -->
<g id="edge9" class="edge">
<title>A4&#45;&gt;A5</title>
<path fill="none" stroke="#000000" d="M561.6777,-225.9294C593.3969,-228.2026 632.6345,-231.0146 661.5788,-233.089"/>
<polygon fill="none" stroke="#000000" points="561.8906,-222.4358 551.666,-225.2119 561.3902,-229.4179 561.8906,-222.4358"/>
</g>
<!-- A7 -->
<g id="node8" class="node">
<title>A7</title>
<polygon fill="none" stroke="#000000" points="985.198,-195 985.198,-227 1110.198,-227 1110.198,-195 985.198,-195"/>
<text text-anchor="start" x="1029.636" y="-208" font-family="Helvetica,sans-Serif" font-size="10.00" fill="#000000">Jugador</text>
<polygon fill="none" stroke="#000000" points="985.198,-163 985.198,-195 1110.198,-195 1110.198,-163 985.198,-163"/>
<text text-anchor="start" x="995.187" y="-176" font-family="Helvetica,sans-Serif" font-size="10.00" fill="#000000">fechaNacimiento:Fecha</text>
</g>
<!-- A4&#45;&gt;A7 -->
<g id="edge8" class="edge">
<title>A4&#45;&gt;A7</title>
<path fill="none" stroke="#000000" d="M561.4287,-203.7587C574.4768,-200.1545 588.4634,-196.9008 601.698,-195 737.0146,-175.5654 897.8448,-182.9673 984.4534,-189.4125"/>
<polygon fill="none" stroke="#000000" points="560.3053,-200.4398 551.6617,-206.5667 562.2395,-207.1673 560.3053,-200.4398"/>
</g>
<!-- A5&#45;&gt;A2 -->
<g id="edge20" class="edge">
<title>A5&#45;&gt;A2</title>
<path fill="none" stroke="#000000" d="M742.7505,-266.9598C771.6682,-287.0077 812.4148,-311.3022 852.698,-322 887.9215,-331.3541 898.9677,-329.1792 934.698,-322 1025.1413,-303.8274 1122.7654,-255.8754 1176.0599,-227.0001"/>
<polygon fill="#000000" stroke="#000000" points="1184.8543,-222.1897 1178.2405,-230.9366 1180.4676,-224.5891 1176.0809,-226.9886 1176.0809,-226.9886 1176.0809,-226.9886 1180.4676,-224.5891 1173.9214,-223.0406 1184.8543,-222.1897 1184.8543,-222.1897"/>
</g>
<!-- A6 -->
<g id="node7" class="node">
<title>A6</title>
<polygon fill="none" stroke="#000000" points="852.698,-281 852.698,-313 934.698,-313 934.698,-281 852.698,-281"/>
<text text-anchor="start" x="875.081" y="-294" font-family="Helvetica,sans-Serif" font-size="10.00" fill="#000000">Persona</text>
<polygon fill="none" stroke="#000000" points="852.698,-213 852.698,-281 934.698,-281 934.698,-213 852.698,-213"/>
<text text-anchor="start" x="862.8585" y="-262" font-family="Helvetica,sans-Serif" font-size="10.00" fill="#000000">nombre:Texto</text>
<text text-anchor="start" x="862.5795" y="-250" font-family="Helvetica,sans-Serif" font-size="10.00" fill="#000000">apellido:Texto</text>
<text text-anchor="start" x="867.863" y="-238" font-family="Helvetica,sans-Serif" font-size="10.00" fill="#000000">email:Texto</text>
<text text-anchor="start" x="865.0835" y="-226" font-family="Helvetica,sans-Serif" font-size="10.00" fill="#000000">celular:Texto</text>
</g>
<!-- A5&#45;&gt;A6 -->
<g id="edge5" class="edge">
<title>A5&#45;&gt;A6</title>
<path fill="none" stroke="#000000" d="M755.0496,-243.4517C782.3113,-247.2953 815.4216,-251.9636 842.4485,-255.7742"/>
<polygon fill="none" stroke="#000000" points="754.6927,-243.4014 748.193,-246.5245 742.8102,-241.726 749.3099,-238.6029 754.6927,-243.4014"/>
<polygon fill="#000000" stroke="#000000" points="852.4841,-257.1892 841.9538,-260.2489 847.5331,-256.4911 842.5821,-255.793 842.5821,-255.793 842.5821,-255.793 847.5331,-256.4911 843.2104,-251.337 852.4841,-257.1892 852.4841,-257.1892"/>
<text text-anchor="middle" x="833.3554" y="-260.0281" font-family="Helvetica,sans-Serif" font-size="10.00" fill="#000000">representante1</text>
<text text-anchor="middle" x="761.9389" y="-232.887" font-family="Helvetica,sans-Serif" font-size="10.00" fill="#000000">1</text>
</g>
<!-- A5&#45;&gt;A7 -->
<g id="edge7" class="edge">
<title>A5&#45;&gt;A7</title>
<path fill="none" stroke="#000000" d="M754.5966,-222.6602C783.3615,-215.8947 819.7786,-208.2326 852.698,-204 892.6913,-198.8579 937.6434,-196.5538 974.2499,-195.5593"/>
<polygon fill="none" stroke="#000000" points="754.4398,-222.6977 749.5363,-227.985 742.7697,-225.4922 747.6733,-220.2049 754.4398,-222.6977"/>
<polygon fill="#000000" stroke="#000000" points="984.3425,-195.3122 974.4556,-200.0557 979.344,-195.4346 974.3455,-195.557 974.3455,-195.557 974.3455,-195.557 979.344,-195.4346 974.2353,-191.0584 984.3425,-195.3122 984.3425,-195.3122"/>
<text text-anchor="middle" x="966.4286" y="-201.2056" font-family="Helvetica,sans-Serif" font-size="10.00" fill="#000000">jugador*</text>
<text text-anchor="middle" x="758.4292" y="-210.0511" font-family="Helvetica,sans-Serif" font-size="10.00" fill="#000000">1</text>
</g>
<!-- A6&#45;&gt;A7 -->
<g id="edge6" class="edge">
<title>A6&#45;&gt;A7</title>
<path fill="none" stroke="#000000" d="M944.0349,-240.7009C956.9835,-234.9647 971.0745,-228.7225 984.563,-222.7471"/>
<polygon fill="none" stroke="#000000" points="942.5586,-237.5268 934.8332,-244.7772 945.3938,-243.9269 942.5586,-237.5268"/>
</g>
<!-- A7&#45;&gt;A2 -->
<g id="edge19" class="edge">
<title>A7&#45;&gt;A2</title>
<path fill="none" stroke="#000000" d="M1109.7516,-198.3257C1122.6828,-199.0132 1136.3535,-199.74 1149.4373,-200.4356"/>
<polygon fill="#000000" stroke="#000000" points="1159.779,-200.9854 1149.5542,-204.9481 1154.7861,-200.7199 1149.7931,-200.4544 1149.7931,-200.4544 1149.7931,-200.4544 1154.7861,-200.7199 1150.0321,-195.9608 1159.779,-200.9854 1159.779,-200.9854"/>
</g>
<!-- A9 -->
<g id="node10" class="node">
<title>A9</title>
<polygon fill="none" stroke="#000000" points="1564.763,-52 1564.763,-84 1645.763,-84 1645.763,-52 1564.763,-52"/>
<text text-anchor="start" x="1581.092" y="-65" font-family="Helvetica,sans-Serif" font-size="10.00" fill="#000000">Estadistica</text>
<polygon fill="none" stroke="#000000" points="1564.763,-20 1564.763,-52 1645.763,-52 1645.763,-20 1564.763,-20"/>
<text text-anchor="start" x="1574.4235" y="-33" font-family="Helvetica,sans-Serif" font-size="10.00" fill="#000000">nombre:Texto</text>
</g>
<!-- A13 -->
<g id="node14" class="node">
<title>A13</title>
<polygon fill="none" stroke="#000000" points="1695.763,-58 1695.763,-102 1782.763,-102 1782.763,-58 1695.763,-58"/>
<text text-anchor="start" x="1714.527" y="-83" font-family="Helvetica,sans-Serif" font-size="10.00" fill="#000000">&lt;&lt;Enum&gt;&gt;</text>
<text text-anchor="start" x="1705.369" y="-71" font-family="Helvetica,sans-Serif" font-size="10.00" fill="#000000">TipoEstadistica</text>
<polygon fill="none" stroke="#000000" points="1695.763,-2 1695.763,-58 1782.763,-58 1782.763,-2 1695.763,-2"/>
<text text-anchor="start" x="1716.202" y="-39" font-family="Helvetica,sans-Serif" font-size="10.00" fill="#000000">POSITIVA</text>
<text text-anchor="start" x="1713.982" y="-27" font-family="Helvetica,sans-Serif" font-size="10.00" fill="#000000">NEGATIVA</text>
<text text-anchor="start" x="1718.711" y="-15" font-family="Helvetica,sans-Serif" font-size="10.00" fill="#000000">NEUTRA</text>
</g>
<!-- A9&#45;&gt;A13 -->
<g id="edge13" class="edge">
<title>A9&#45;&gt;A13</title>
<path fill="none" stroke="#000000" d="M1645.3311,-52C1657.7306,-52 1671.5685,-52 1684.7148,-52"/>
<polygon fill="#000000" stroke="#000000" points="1695.0689,-52 1685.069,-56.5001 1690.0689,-52 1685.0689,-52.0001 1685.0689,-52.0001 1685.0689,-52.0001 1690.0689,-52 1685.0689,-47.5001 1695.0689,-52 1695.0689,-52"/>
<text text-anchor="middle" x="1676.9428" y="-57.4524" font-family="Helvetica,sans-Serif" font-size="10.00" fill="#000000">tipo1</text>
<text text-anchor="middle" x="1663.4572" y="-40.5476" font-family="Helvetica,sans-Serif" font-size="10.00" fill="#000000">*</text>
</g>
<!-- A10 -->
<g id="node11" class="node">
<title>A10</title>
<polygon fill="none" stroke="#000000" points="1359.763,-114 1359.763,-146 1477.763,-146 1477.763,-114 1359.763,-114"/>
<text text-anchor="start" x="1382.9245" y="-127" font-family="Helvetica,sans-Serif" font-size="10.00" fill="#000000">ValorEstadistica</text>
<polygon fill="none" stroke="#000000" points="1359.763,-70 1359.763,-114 1477.763,-114 1477.763,-70 1359.763,-70"/>
<text text-anchor="start" x="1396.2625" y="-95" font-family="Helvetica,sans-Serif" font-size="10.00" fill="#000000">valor:Real</text>
<text text-anchor="start" x="1369.5865" y="-83" font-family="Helvetica,sans-Serif" font-size="10.00" fill="#000000">estadistica:Estadistica</text>
</g>
<!-- A10&#45;&gt;A2JA9 -->
<g id="edge12" class="edge">
<title>A10&#45;&gt;A2JA9</title>
<path fill="none" stroke="#000000" stroke-dasharray="5,2" d="M1418.763,-69.8008C1418.763,-67.3591 1418.763,-64.9174 1418.763,-62.4756"/>
<polygon fill="#000000" stroke="#000000" points="1418.763,-52.4375 1423.2631,-62.4375 1418.763,-57.4375 1418.7631,-62.4375 1418.7631,-62.4375 1418.7631,-62.4375 1418.763,-57.4375 1414.2631,-62.4375 1418.763,-52.4375 1418.763,-52.4375"/>
</g>
<!-- A11&#45;&gt;A4 -->
<g id="edge16" class="edge">
<title>A11&#45;&gt;A4</title>
<path fill="none" stroke="#000000" d="M423.3645,-184.7461C434.8587,-189.8752 446.4291,-195.0384 457.1408,-199.8183"/>
<polygon fill="none" stroke="#000000" points="423.0168,-184.591 415.9075,-185.7987 412.0584,-179.7008 419.1676,-178.4931 423.0168,-184.591"/>
<polygon fill="#000000" stroke="#000000" points="466.3096,-203.9098 455.3437,-203.9441 461.7436,-201.8722 457.1775,-199.8347 457.1775,-199.8347 457.1775,-199.8347 461.7436,-201.8722 459.0113,-195.7253 466.3096,-203.9098 466.3096,-203.9098"/>
<text text-anchor="middle" x="446.3123" y="-201.242" font-family="Helvetica,sans-Serif" font-size="10.00" fill="#000000">2</text>
<text text-anchor="middle" x="432.0556" y="-176.3686" font-family="Helvetica,sans-Serif" font-size="10.00" fill="#000000">*</text>
</g>
<!-- A12 -->
<g id="node13" class="node">
<title>A12</title>
<polygon fill="none" stroke="#000000" points="602.198,-87 602.198,-119 803.198,-119 803.198,-87 602.198,-87"/>
<text text-anchor="start" x="666.305" y="-100" font-family="Helvetica,sans-Serif" font-size="10.00" fill="#000000">RegistroReporte</text>
<polygon fill="none" stroke="#000000" points="602.198,-43 602.198,-87 803.198,-87 803.198,-43 602.198,-43"/>
<text text-anchor="start" x="612.125" y="-68" font-family="Helvetica,sans-Serif" font-size="10.00" fill="#000000">estadisticaParticipanteA:ValorEstadistica</text>
<text text-anchor="start" x="612.125" y="-56" font-family="Helvetica,sans-Serif" font-size="10.00" fill="#000000">estadisticaParticipanteB:ValorEstadistica</text>
</g>
<!-- A11&#45;&gt;A12 -->
<g id="edge14" class="edge">
<title>A11&#45;&gt;A12</title>
<path fill="none" stroke="#000000" d="M424.0486,-134.8055C473.1764,-125.3022 537.2037,-112.9167 591.4423,-102.4247"/>
<polygon fill="none" stroke="#000000" points="423.9553,-134.8234 418.8242,-139.8902 412.1737,-137.1026 417.3048,-132.0358 423.9553,-134.8234"/>
<polygon fill="#000000" stroke="#000000" points="601.4501,-100.4888 592.4868,-106.8061 596.5411,-101.4384 591.6321,-102.388 591.6321,-102.388 591.6321,-102.388 596.5411,-101.4384 590.7774,-97.97 601.4501,-100.4888 601.4501,-100.4888"/>
<text text-anchor="middle" x="585.2591" y="-109.2298" font-family="Helvetica,sans-Serif" font-size="10.00" fill="#000000">registros*</text>
<text text-anchor="middle" x="428.3647" y="-122.3615" font-family="Helvetica,sans-Serif" font-size="10.00" fill="#000000">1</text>
</g>
<!-- A12&#45;&gt;A10 -->
<g id="edge15" class="edge">
<title>A12&#45;&gt;A10</title>
<path fill="none" stroke="#000000" d="M815.2315,-85.2591C965.2099,-90.9102 1225.4297,-100.7152 1349.3285,-105.3837"/>
<polygon fill="none" stroke="#000000" points="814.9574,-85.2488 808.811,-89.02 802.9659,-84.7969 809.1123,-81.0257 814.9574,-85.2488"/>
<polygon fill="#000000" stroke="#000000" points="1359.4491,-105.7651 1349.2867,-109.8852 1354.4526,-105.5768 1349.4562,-105.3884 1349.4562,-105.3884 1349.4562,-105.3884 1354.4526,-105.5768 1349.6257,-100.8916 1359.4491,-105.7651 1359.4491,-105.7651"/>
<text text-anchor="middle" x="1341.0175" y="-110.5289" font-family="Helvetica,sans-Serif" font-size="10.00" fill="#000000">2</text>
<text text-anchor="middle" x="821.3974" y="-74.033" font-family="Helvetica,sans-Serif" font-size="10.00" fill="#000000">*</text>
</g>
<!-- A2JA9&#45;&gt;A9 -->
<g id="edge11" class="edge">
<title>A2JA9&#45;&gt;A9</title>
<path fill="none" stroke="#000000" d="M1419.2966,-52C1426.3283,-52 1501.3422,-52 1553.784,-52"/>
<polygon fill="#000000" stroke="#000000" points="1563.9445,-52 1553.9446,-56.5001 1558.9445,-52 1553.9445,-52.0001 1553.9445,-52.0001 1553.9445,-52.0001 1558.9445,-52 1553.9445,-47.5001 1563.9445,-52 1563.9445,-52"/>
<text text-anchor="middle" x="1545.8184" y="-57.4524" font-family="Helvetica,sans-Serif" font-size="10.00" fill="#000000">*</text>
</g>
</g>
</svg>
