<?xml version="1.0" encoding="UTF-8" standalone="no"?>
<!DOCTYPE svg PUBLIC "-//W3C//DTD SVG 1.1//EN"
 "http://www.w3.org/Graphics/SVG/1.1/DTD/svg11.dtd">
<!-- Generated by graphviz version 2.40.1 (20161225.0304)
 -->
<!-- Title: G Pages: 1 -->
<svg width="1078pt" height="370pt"
 viewBox="0.00 0.00 1078.00 370.00" xmlns="http://www.w3.org/2000/svg" xmlns:xlink="http://www.w3.org/1999/xlink">
<g id="graph0" class="graph" transform="scale(1 1) rotate(0) translate(4 366)">
<title>G</title>
<polygon fill="#ffffff" stroke="transparent" points="-4,4 -4,-366 1074,-366 1074,4 -4,4"/>
<!-- A0 -->
<g id="node1" class="node">
<title>A0</title>
<polygon fill="none" stroke="#000000" points="0,-222 0,-254 160,-254 160,-222 0,-222"/>
<text text-anchor="start" x="64.163" y="-235" font-family="Helvetica,sans-Serif" font-size="10.00" fill="#000000">Torneo</text>
<polygon fill="none" stroke="#000000" points="0,-118 0,-222 160,-222 160,-118 0,-118"/>
<text text-anchor="start" x="49.1605" y="-203" font-family="Helvetica,sans-Serif" font-size="10.00" fill="#000000">nombre:Texto</text>
<text text-anchor="start" x="40.822" y="-191" font-family="Helvetica,sans-Serif" font-size="10.00" fill="#000000">fechaInicio:Fecha</text>
<text text-anchor="start" x="11.6515" y="-179" font-family="Helvetica,sans-Serif" font-size="10.00" fill="#000000">fechaInicioInscripciones:Fecha</text>
<text text-anchor="start" x="9.712" y="-167" font-family="Helvetica,sans-Serif" font-size="10.00" fill="#000000">fechaCierreInscripciones:Fecha</text>
<text text-anchor="start" x="18.042" y="-155" font-family="Helvetica,sans-Serif" font-size="10.00" fill="#000000">numeroParticipantes:Entero</text>
<text text-anchor="start" x="40.5485" y="-143" font-family="Helvetica,sans-Serif" font-size="10.00" fill="#000000">limiteEdad:Entero</text>
<text text-anchor="start" x="29.1595" y="-131" font-family="Helvetica,sans-Serif" font-size="10.00" fill="#000000">valorInscripcion:Entero</text>
</g>
<!-- A1 -->
<g id="node2" class="node">
<title>A1</title>
<polygon fill="none" stroke="#000000" points="241.5,-318 241.5,-362 312.5,-362 312.5,-318 241.5,-318"/>
<text text-anchor="start" x="252.264" y="-343" font-family="Helvetica,sans-Serif" font-size="10.00" fill="#000000">&lt;&lt;Enum&gt;&gt;</text>
<text text-anchor="start" x="251.44" y="-331" font-family="Helvetica,sans-Serif" font-size="10.00" fill="#000000">TipoTorneo</text>
<polygon fill="none" stroke="#000000" points="241.5,-250 241.5,-318 312.5,-318 312.5,-250 241.5,-250"/>
<text text-anchor="start" x="260.6075" y="-299" font-family="Helvetica,sans-Serif" font-size="10.00" fill="#000000">LOCAL</text>
<text text-anchor="start" x="251.164" y="-287" font-family="Helvetica,sans-Serif" font-size="10.00" fill="#000000">REGIONAL</text>
<text text-anchor="start" x="251.444" y="-275" font-family="Helvetica,sans-Serif" font-size="10.00" fill="#000000">NACIONAL</text>
<text text-anchor="start" x="254.5035" y="-263" font-family="Helvetica,sans-Serif" font-size="10.00" fill="#000000">MUNDIAL</text>
</g>
<!-- A0&#45;&gt;A1 -->
<g id="edge3" class="edge">
<title>A0&#45;&gt;A1</title>
<path fill="none" stroke="#000000" d="M160.2075,-234.9817C184.7216,-249.9521 210.7876,-265.8703 232.0152,-278.8337"/>
<polygon fill="#000000" stroke="#000000" points="240.7978,-284.1972 229.918,-282.8257 236.5306,-281.5912 232.2634,-278.9852 232.2634,-278.9852 232.2634,-278.9852 236.5306,-281.5912 234.6088,-275.1447 240.7978,-284.1972 240.7978,-284.1972"/>
<text text-anchor="middle" x="220.923" y="-278.9637" font-family="Helvetica,sans-Serif" font-size="10.00" fill="#000000">tipoTorneo1</text>
<text text-anchor="middle" x="180.0824" y="-234.2152" font-family="Helvetica,sans-Serif" font-size="10.00" fill="#000000">*</text>
</g>
<!-- A2 -->
<g id="node3" class="node">
<title>A2</title>
<polygon fill="none" stroke="#000000" points="398.5,-216 398.5,-260 603.5,-260 603.5,-216 398.5,-216"/>
<text text-anchor="start" x="471.54" y="-241" font-family="Helvetica,sans-Serif" font-size="10.00" fill="#000000">&lt;&lt;abstract&gt;&gt;</text>
<text text-anchor="start" x="474.6055" y="-229" font-family="Helvetica,sans-Serif" font-size="10.00" fill="#000000">Participante</text>
<polygon fill="none" stroke="#000000" points="398.5,-184 398.5,-216 603.5,-216 603.5,-184 398.5,-184"/>
<text text-anchor="start" x="408.209" y="-197" font-family="Helvetica,sans-Serif" font-size="10.00" fill="#000000">estadisticas:RegistroEstadistica［*］</text>
</g>
<!-- A0&#45;&gt;A2 -->
<g id="edge4" class="edge">
<title>A0&#45;&gt;A2</title>
<path fill="none" stroke="#000000" d="M172.1092,-198.7954C184.8236,-200.3422 197.7257,-201.7973 210,-203 268.4785,-208.7299 333.7543,-213.174 387.5935,-216.3185"/>
<polygon fill="none" stroke="#000000" points="171.9115,-198.7708 165.4635,-201.9995 160.0032,-197.2894 166.4511,-194.0607 171.9115,-198.7708"/>
<polygon fill="#000000" stroke="#000000" points="397.8557,-216.9102 387.6132,-220.827 392.864,-216.6223 387.8723,-216.3345 387.8723,-216.3345 387.8723,-216.3345 392.864,-216.6223 388.1314,-211.8419 397.8557,-216.9102 397.8557,-216.9102"/>
<text text-anchor="middle" x="379.273" y="-221.3051" font-family="Helvetica,sans-Serif" font-size="10.00" fill="#000000">participantes*</text>
<text text-anchor="middle" x="179.0341" y="-188.1393" font-family="Helvetica,sans-Serif" font-size="10.00" fill="#000000">1</text>
</g>
<!-- A6 -->
<g id="node7" class="node">
<title>A6</title>
<polygon fill="none" stroke="#000000" points="231.5,-44 231.5,-88 321.5,-88 321.5,-44 231.5,-44"/>
<text text-anchor="start" x="251.764" y="-69" font-family="Helvetica,sans-Serif" font-size="10.00" fill="#000000">&lt;&lt;Enum&gt;&gt;</text>
<text text-anchor="start" x="241.4965" y="-57" font-family="Helvetica,sans-Serif" font-size="10.00" fill="#000000">CaracterTorneo</text>
<polygon fill="none" stroke="#000000" points="231.5,0 231.5,-44 321.5,-44 321.5,0 231.5,0"/>
<text text-anchor="start" x="248.445" y="-25" font-family="Helvetica,sans-Serif" font-size="10.00" fill="#000000">INDIVIDUAL</text>
<text text-anchor="start" x="255.943" y="-13" font-family="Helvetica,sans-Serif" font-size="10.00" fill="#000000">GRUPAL</text>
</g>
<!-- A0&#45;&gt;A6 -->
<g id="edge2" class="edge">
<title>A0&#45;&gt;A6</title>
<path fill="none" stroke="#000000" d="M160.2075,-128.0384C181.4716,-112.6719 203.9035,-96.4616 223.3322,-82.4215"/>
<polygon fill="#000000" stroke="#000000" points="231.4627,-76.546 225.9933,-86.0505 227.4101,-79.4746 223.3576,-82.4032 223.3576,-82.4032 223.3576,-82.4032 227.4101,-79.4746 220.7218,-78.7559 231.4627,-76.546 231.4627,-76.546"/>
<text text-anchor="middle" x="221.7219" y="-91.0136" font-family="Helvetica,sans-Serif" font-size="10.00" fill="#000000">caracter1</text>
<text text-anchor="middle" x="169.9483" y="-107.5708" font-family="Helvetica,sans-Serif" font-size="10.00" fill="#000000">*</text>
</g>
<!-- A9 -->
<g id="node10" class="node">
<title>A9</title>
<polygon fill="none" stroke="#000000" points="210.5,-162 210.5,-194 343.5,-194 343.5,-162 210.5,-162"/>
<text text-anchor="start" x="259.2185" y="-175" font-family="Helvetica,sans-Serif" font-size="10.00" fill="#000000">Reporte</text>
<polygon fill="none" stroke="#000000" points="210.5,-106 210.5,-162 343.5,-162 343.5,-106 210.5,-106"/>
<text text-anchor="start" x="249.4895" y="-143" font-family="Helvetica,sans-Serif" font-size="10.00" fill="#000000">fecha:Fecha</text>
<text text-anchor="start" x="220.042" y="-131" font-family="Helvetica,sans-Serif" font-size="10.00" fill="#000000">participanteA:Participante</text>
<text text-anchor="start" x="220.042" y="-119" font-family="Helvetica,sans-Serif" font-size="10.00" fill="#000000">participanteB:Participante</text>
</g>
<!-- A0&#45;&gt;A9 -->
<g id="edge1" class="edge">
<title>A0&#45;&gt;A9</title>
<path fill="none" stroke="#000000" stroke-dasharray="5,2" d="M160.2075,-171.3055C173.1867,-168.9276 186.6009,-166.4701 199.5017,-164.1066"/>
<polygon fill="#000000" stroke="#000000" points="209.7197,-162.2346 200.6944,-168.463 204.8016,-163.1356 199.8834,-164.0367 199.8834,-164.0367 199.8834,-164.0367 204.8016,-163.1356 199.0724,-159.6104 209.7197,-162.2346 209.7197,-162.2346"/>
</g>
<!-- A3 -->
<g id="node4" class="node">
<title>A3</title>
<polygon fill="none" stroke="#000000" points="670.5,-220 670.5,-252 751.5,-252 751.5,-220 670.5,-220"/>
<text text-anchor="start" x="695.438" y="-233" font-family="Helvetica,sans-Serif" font-size="10.00" fill="#000000">Equipo</text>
<polygon fill="none" stroke="#000000" points="670.5,-188 670.5,-220 751.5,-220 751.5,-188 670.5,-188"/>
<text text-anchor="start" x="680.1605" y="-201" font-family="Helvetica,sans-Serif" font-size="10.00" fill="#000000">nombre:Texto</text>
</g>
<!-- A2&#45;&gt;A3 -->
<g id="edge9" class="edge">
<title>A2&#45;&gt;A3</title>
<path fill="none" stroke="#000000" d="M613.0504,-220.9281C633.4086,-220.7342 653.3863,-220.5439 669.901,-220.3867"/>
<polygon fill="none" stroke="#000000" points="613.0054,-217.4283 603.0393,-221.0234 613.0722,-224.4279 613.0054,-217.4283"/>
</g>
<!-- A5 -->
<g id="node6" class="node">
<title>A5</title>
<polygon fill="none" stroke="#000000" points="945.5,-220 945.5,-252 1070.5,-252 1070.5,-220 945.5,-220"/>
<text text-anchor="start" x="989.938" y="-233" font-family="Helvetica,sans-Serif" font-size="10.00" fill="#000000">Jugador</text>
<polygon fill="none" stroke="#000000" points="945.5,-188 945.5,-220 1070.5,-220 1070.5,-188 945.5,-188"/>
<text text-anchor="start" x="955.489" y="-201" font-family="Helvetica,sans-Serif" font-size="10.00" fill="#000000">fechaNacimiento:Fecha</text>
</g>
<!-- A2&#45;&gt;A5 -->
<g id="edge8" class="edge">
<title>A2&#45;&gt;A5</title>
<path fill="none" stroke="#000000" d="M613.3586,-261.1122C692.8685,-283.1444 801.4059,-302.0535 895,-279 917.1637,-273.5408 939.7948,-262.852 958.8925,-252.0545"/>
<polygon fill="none" stroke="#000000" points="613.8947,-257.6265 603.3195,-258.2712 611.9885,-264.362 613.8947,-257.6265"/>
</g>
<!-- A2JA7 -->
<!-- A2&#45;&gt;A2JA7 -->
<g id="edge10" class="edge">
<title>A2&#45;&gt;A2JA7</title>
<path fill="none" stroke="#000000" d="M596.8822,-183.8399C600.7813,-181.0707 604.5111,-178.1265 608,-175 641.2129,-145.2369 621.4324,-113.5294 658,-88 676.198,-75.2952 706.4173,-78.5017 710.1237,-78.9522"/>
<text text-anchor="middle" x="606.6779" y="-163.403" font-family="Helvetica,sans-Serif" font-size="10.00" fill="#000000">*</text>
</g>
<!-- A4 -->
<g id="node5" class="node">
<title>A4</title>
<polygon fill="none" stroke="#000000" points="813,-238 813,-270 895,-270 895,-238 813,-238"/>
<text text-anchor="start" x="835.383" y="-251" font-family="Helvetica,sans-Serif" font-size="10.00" fill="#000000">Persona</text>
<polygon fill="none" stroke="#000000" points="813,-170 813,-238 895,-238 895,-170 813,-170"/>
<text text-anchor="start" x="823.1605" y="-219" font-family="Helvetica,sans-Serif" font-size="10.00" fill="#000000">nombre:Texto</text>
<text text-anchor="start" x="822.8815" y="-207" font-family="Helvetica,sans-Serif" font-size="10.00" fill="#000000">apellido:Texto</text>
<text text-anchor="start" x="828.165" y="-195" font-family="Helvetica,sans-Serif" font-size="10.00" fill="#000000">email:Texto</text>
<text text-anchor="start" x="825.3855" y="-183" font-family="Helvetica,sans-Serif" font-size="10.00" fill="#000000">celular:Texto</text>
</g>
<!-- A3&#45;&gt;A4 -->
<g id="edge5" class="edge">
<title>A3&#45;&gt;A4</title>
<path fill="none" stroke="#000000" d="M763.3462,-220C776.1844,-220 789.8921,-220 802.6594,-220"/>
<polygon fill="none" stroke="#000000" points="763.2375,-220.0001 757.2375,-224 751.2375,-220 757.2375,-216 763.2375,-220.0001"/>
<polygon fill="#000000" stroke="#000000" points="812.6623,-220 802.6624,-224.5001 807.6623,-220 802.6623,-220.0001 802.6623,-220.0001 802.6623,-220.0001 807.6623,-220 802.6623,-215.5001 812.6623,-220 812.6623,-220"/>
<text text-anchor="middle" x="794.5362" y="-225.4524" font-family="Helvetica,sans-Serif" font-size="10.00" fill="#000000">representante1</text>
<text text-anchor="middle" x="769.3637" y="-208.5476" font-family="Helvetica,sans-Serif" font-size="10.00" fill="#000000">1</text>
</g>
<!-- A3&#45;&gt;A5 -->
<g id="edge7" class="edge">
<title>A3&#45;&gt;A5</title>
<path fill="none" stroke="#000000" d="M761.7115,-183.5742C777.4281,-174.359 795.2712,-165.738 813,-161 848.2088,-151.5905 859.6132,-152.2838 895,-161 913.7006,-165.6062 932.734,-173.9355 949.6969,-182.9117"/>
<polygon fill="none" stroke="#000000" points="761.4333,-183.7444 758.4036,-190.2882 751.1979,-190.0085 754.2276,-183.4646 761.4333,-183.7444"/>
<polygon fill="#000000" stroke="#000000" points="958.8925,-187.9455 947.96,-187.091 954.5067,-185.5446 950.1208,-183.1437 950.1208,-183.1437 950.1208,-183.1437 954.5067,-185.5446 952.2816,-179.1964 958.8925,-187.9455 958.8925,-187.9455"/>
<text text-anchor="middle" x="938.9341" y="-183.6559" font-family="Helvetica,sans-Serif" font-size="10.00" fill="#000000">jugador*</text>
<text text-anchor="middle" x="762.2464" y="-170.3372" font-family="Helvetica,sans-Serif" font-size="10.00" fill="#000000">1</text>
</g>
<!-- A4&#45;&gt;A5 -->
<g id="edge6" class="edge">
<title>A4&#45;&gt;A5</title>
<path fill="none" stroke="#000000" d="M905.4712,-220C918.1059,-220 931.7694,-220 944.865,-220"/>
<polygon fill="none" stroke="#000000" points="905.1352,-216.5001 895.1352,-220 905.1351,-223.5001 905.1352,-216.5001"/>
</g>
<!-- A7 -->
<g id="node8" class="node">
<title>A7</title>
<polygon fill="none" stroke="#000000" points="814,-79 814,-111 895,-111 895,-79 814,-79"/>
<text text-anchor="start" x="830.329" y="-92" font-family="Helvetica,sans-Serif" font-size="10.00" fill="#000000">Estadistica</text>
<polygon fill="none" stroke="#000000" points="814,-47 814,-79 895,-79 895,-47 814,-47"/>
<text text-anchor="start" x="823.6605" y="-60" font-family="Helvetica,sans-Serif" font-size="10.00" fill="#000000">nombre:Texto</text>
</g>
<!-- A11 -->
<g id="node12" class="node">
<title>A11</title>
<polygon fill="none" stroke="#000000" points="964.5,-85 964.5,-129 1051.5,-129 1051.5,-85 964.5,-85"/>
<text text-anchor="start" x="983.264" y="-110" font-family="Helvetica,sans-Serif" font-size="10.00" fill="#000000">&lt;&lt;Enum&gt;&gt;</text>
<text text-anchor="start" x="974.106" y="-98" font-family="Helvetica,sans-Serif" font-size="10.00" fill="#000000">TipoEstadistica</text>
<polygon fill="none" stroke="#000000" points="964.5,-29 964.5,-85 1051.5,-85 1051.5,-29 964.5,-29"/>
<text text-anchor="start" x="984.939" y="-66" font-family="Helvetica,sans-Serif" font-size="10.00" fill="#000000">POSITIVA</text>
<text text-anchor="start" x="982.719" y="-54" font-family="Helvetica,sans-Serif" font-size="10.00" fill="#000000">NEGATIVA</text>
<text text-anchor="start" x="987.448" y="-42" font-family="Helvetica,sans-Serif" font-size="10.00" fill="#000000">NEUTRA</text>
</g>
<!-- A7&#45;&gt;A11 -->
<g id="edge13" class="edge">
<title>A7&#45;&gt;A11</title>
<path fill="none" stroke="#000000" d="M894.7322,-79C912.8012,-79 934.3148,-79 953.6829,-79"/>
<polygon fill="#000000" stroke="#000000" points="963.8852,-79 953.8852,-83.5001 958.8852,-79 953.8852,-79.0001 953.8852,-79.0001 953.8852,-79.0001 958.8852,-79 953.8852,-74.5001 963.8852,-79 963.8852,-79"/>
<text text-anchor="middle" x="945.759" y="-84.4524" font-family="Helvetica,sans-Serif" font-size="10.00" fill="#000000">tipo1</text>
<text text-anchor="middle" x="912.8583" y="-67.5476" font-family="Helvetica,sans-Serif" font-size="10.00" fill="#000000">*</text>
</g>
<!-- A8 -->
<g id="node9" class="node">
<title>A8</title>
<polygon fill="none" stroke="#000000" points="658.5,-129 658.5,-161 763.5,-161 763.5,-129 658.5,-129"/>
<text text-anchor="start" x="668.2175" y="-142" font-family="Helvetica,sans-Serif" font-size="10.00" fill="#000000">RegistroEstadistica</text>
<polygon fill="none" stroke="#000000" points="658.5,-97 658.5,-129 763.5,-129 763.5,-97 658.5,-97"/>
<text text-anchor="start" x="688.4995" y="-110" font-family="Helvetica,sans-Serif" font-size="10.00" fill="#000000">valor:Real</text>
</g>
<!-- A8&#45;&gt;A2JA7 -->
<g id="edge12" class="edge">
<title>A8&#45;&gt;A2JA7</title>
<path fill="none" stroke="#000000" stroke-dasharray="5,2" d="M710.5,-96.8314C710.5,-94.3788 710.5,-91.9262 710.5,-89.4736"/>
<polygon fill="#000000" stroke="#000000" points="710.5,-79.3906 715.0001,-89.3906 710.5,-84.3906 710.5001,-89.3906 710.5001,-89.3906 710.5001,-89.3906 710.5,-84.3906 706.0001,-89.3907 710.5,-79.3906 710.5,-79.3906"/>
</g>
<!-- A9&#45;&gt;A2 -->
<g id="edge16" class="edge">
<title>A9&#45;&gt;A2</title>
<path fill="none" stroke="#000000" d="M354.581,-175.0975C365.338,-178.5551 376.556,-182.1608 387.7835,-185.7697"/>
<polygon fill="none" stroke="#000000" points="354.5253,-175.0796 347.589,-177.0516 343.1009,-171.4074 350.0371,-169.4354 354.5253,-175.0796"/>
<polygon fill="#000000" stroke="#000000" points="397.6413,-188.9383 386.7439,-190.1622 392.8811,-187.4082 388.121,-185.8781 388.121,-185.8781 388.121,-185.8781 392.8811,-187.4082 389.4981,-181.594 397.6413,-188.9383 397.6413,-188.9383"/>
<text text-anchor="middle" x="377.7982" y="-188.4384" font-family="Helvetica,sans-Serif" font-size="10.00" fill="#000000">2</text>
<text text-anchor="middle" x="362.944" y="-165.9073" font-family="Helvetica,sans-Serif" font-size="10.00" fill="#000000">*</text>
</g>
<!-- A10 -->
<g id="node11" class="node">
<title>A10</title>
<polygon fill="none" stroke="#000000" points="393.5,-134 393.5,-166 608.5,-166 608.5,-134 393.5,-134"/>
<text text-anchor="start" x="464.607" y="-147" font-family="Helvetica,sans-Serif" font-size="10.00" fill="#000000">RegistroReporte</text>
<polygon fill="none" stroke="#000000" points="393.5,-90 393.5,-134 608.5,-134 608.5,-90 393.5,-90"/>
<text text-anchor="start" x="403.483" y="-115" font-family="Helvetica,sans-Serif" font-size="10.00" fill="#000000">estadisticaParticipanteA:RegistroEstadistica</text>
<text text-anchor="start" x="403.483" y="-103" font-family="Helvetica,sans-Serif" font-size="10.00" fill="#000000">estadisticaParticipanteB:RegistroEstadistica</text>
</g>
<!-- A9&#45;&gt;A10 -->
<g id="edge14" class="edge">
<title>A9&#45;&gt;A10</title>
<path fill="none" stroke="#000000" d="M355.0456,-142.2857C363.977,-141.4085 373.221,-140.5006 382.52,-139.5873"/>
<polygon fill="none" stroke="#000000" points="355.0434,-142.2858 349.4632,-146.8532 343.1009,-143.4588 348.6812,-138.8915 355.0434,-142.2858"/>
<polygon fill="#000000" stroke="#000000" points="392.62,-138.5954 383.1077,-144.0513 387.6439,-139.0841 382.6678,-139.5729 382.6678,-139.5729 382.6678,-139.5729 387.6439,-139.0841 382.228,-135.0944 392.62,-138.5954 392.62,-138.5954"/>
<text text-anchor="middle" x="375.4068" y="-145.779" font-family="Helvetica,sans-Serif" font-size="10.00" fill="#000000">registros*</text>
<text text-anchor="middle" x="360.3141" y="-130.2752" font-family="Helvetica,sans-Serif" font-size="10.00" fill="#000000">1</text>
</g>
<!-- A10&#45;&gt;A8 -->
<g id="edge15" class="edge">
<title>A10&#45;&gt;A8</title>
<path fill="none" stroke="#000000" d="M620.3363,-128.5706C629.731,-128.6154 638.964,-128.6594 647.7262,-128.7011"/>
<polygon fill="none" stroke="#000000" points="620.2681,-128.5704 614.2491,-132.5418 608.2683,-128.5132 614.2873,-124.5418 620.2681,-128.5704"/>
<polygon fill="#000000" stroke="#000000" points="657.7776,-128.7489 647.7562,-133.2012 652.7777,-128.7251 647.7777,-128.7012 647.7777,-128.7012 647.7777,-128.7012 652.7777,-128.7251 647.7992,-124.2013 657.7776,-128.7489 657.7776,-128.7489"/>
<text text-anchor="middle" x="639.6114" y="-134.1149" font-family="Helvetica,sans-Serif" font-size="10.00" fill="#000000">2</text>
<text text-anchor="middle" x="626.4345" y="-117.1472" font-family="Helvetica,sans-Serif" font-size="10.00" fill="#000000">*</text>
</g>
<!-- A2JA7&#45;&gt;A7 -->
<g id="edge11" class="edge">
<title>A2JA7&#45;&gt;A7</title>
<path fill="none" stroke="#000000" d="M710.9117,-79C715.8313,-79 763.8827,-79 802.9652,-79"/>
<polygon fill="#000000" stroke="#000000" points="813.1906,-79 803.1906,-83.5001 808.1906,-79 803.1906,-79.0001 803.1906,-79.0001 803.1906,-79.0001 808.1906,-79 803.1906,-74.5001 813.1906,-79 813.1906,-79"/>
<text text-anchor="middle" x="795.0644" y="-84.4524" font-family="Helvetica,sans-Serif" font-size="10.00" fill="#000000">*</text>
</g>
</g>
</svg>
