<?xml version="1.0" encoding="UTF-8" standalone="no"?>
<!DOCTYPE svg PUBLIC "-//W3C//DTD SVG 1.1//EN"
 "http://www.w3.org/Graphics/SVG/1.1/DTD/svg11.dtd">
<!-- Generated by graphviz version 2.40.1 (20161225.0304)
 -->
<!-- Title: G Pages: 1 -->
<svg width="1889pt" height="442pt"
 viewBox="0.00 0.00 1889.26 441.84" xmlns="http://www.w3.org/2000/svg" xmlns:xlink="http://www.w3.org/1999/xlink">
<g id="graph0" class="graph" transform="scale(1 1) rotate(0) translate(4 437.8423)">
<title>G</title>
<polygon fill="#ffffff" stroke="transparent" points="-4,4 -4,-437.8423 1885.263,-437.8423 1885.263,4 -4,4"/>
<!-- A0 -->
<g id="node1" class="node">
<title>A0</title>
<polygon fill="none" stroke="#000000" points="0,-242.8423 0,-274.8423 160,-274.8423 160,-242.8423 0,-242.8423"/>
<text text-anchor="start" x="64.163" y="-255.8423" font-family="Helvetica,sans-Serif" font-size="10.00" fill="#000000">Torneo</text>
<polygon fill="none" stroke="#000000" points="0,-138.8423 0,-242.8423 160,-242.8423 160,-138.8423 0,-138.8423"/>
<text text-anchor="start" x="49.1605" y="-223.8423" font-family="Helvetica,sans-Serif" font-size="10.00" fill="#000000">nombre:Texto</text>
<text text-anchor="start" x="40.822" y="-211.8423" font-family="Helvetica,sans-Serif" font-size="10.00" fill="#000000">fechaInicio:Fecha</text>
<text text-anchor="start" x="11.6515" y="-199.8423" font-family="Helvetica,sans-Serif" font-size="10.00" fill="#000000">fechaInicioInscripciones:Fecha</text>
<text text-anchor="start" x="9.712" y="-187.8423" font-family="Helvetica,sans-Serif" font-size="10.00" fill="#000000">fechaCierreInscripciones:Fecha</text>
<text text-anchor="start" x="18.042" y="-175.8423" font-family="Helvetica,sans-Serif" font-size="10.00" fill="#000000">numeroParticipantes:Entero</text>
<text text-anchor="start" x="40.5485" y="-163.8423" font-family="Helvetica,sans-Serif" font-size="10.00" fill="#000000">limiteEdad:Entero</text>
<text text-anchor="start" x="29.1595" y="-151.8423" font-family="Helvetica,sans-Serif" font-size="10.00" fill="#000000">valorInscripcion:Entero</text>
</g>
<!-- A1 -->
<g id="node2" class="node">
<title>A1</title>
<polygon fill="none" stroke="#000000" points="241.5,-389.8423 241.5,-433.8423 312.5,-433.8423 312.5,-389.8423 241.5,-389.8423"/>
<text text-anchor="start" x="252.264" y="-414.8423" font-family="Helvetica,sans-Serif" font-size="10.00" fill="#000000">&lt;&lt;Enum&gt;&gt;</text>
<text text-anchor="start" x="251.44" y="-402.8423" font-family="Helvetica,sans-Serif" font-size="10.00" fill="#000000">TipoTorneo</text>
<polygon fill="none" stroke="#000000" points="241.5,-321.8423 241.5,-389.8423 312.5,-389.8423 312.5,-321.8423 241.5,-321.8423"/>
<text text-anchor="start" x="260.6075" y="-370.8423" font-family="Helvetica,sans-Serif" font-size="10.00" fill="#000000">LOCAL</text>
<text text-anchor="start" x="251.164" y="-358.8423" font-family="Helvetica,sans-Serif" font-size="10.00" fill="#000000">REGIONAL</text>
<text text-anchor="start" x="251.444" y="-346.8423" font-family="Helvetica,sans-Serif" font-size="10.00" fill="#000000">NACIONAL</text>
<text text-anchor="start" x="254.5035" y="-334.8423" font-family="Helvetica,sans-Serif" font-size="10.00" fill="#000000">MUNDIAL</text>
</g>
<!-- A0&#45;&gt;A1 -->
<g id="edge3" class="edge">
<title>A0&#45;&gt;A1</title>
<path fill="none" stroke="#000000" d="M158.2266,-274.9174C183.7888,-297.1623 211.2394,-321.0507 233.2541,-340.2085"/>
<polygon fill="#000000" stroke="#000000" points="240.8023,-346.7772 230.3046,-343.6071 237.0305,-343.4948 233.2587,-340.2125 233.2587,-340.2125 233.2587,-340.2125 237.0305,-343.4948 236.2128,-336.8179 240.8023,-346.7772 240.8023,-346.7772"/>
<text text-anchor="middle" x="221.58" y="-338.2541" font-family="Helvetica,sans-Serif" font-size="10.00" fill="#000000">tipoTorneo1</text>
<text text-anchor="middle" x="177.4489" y="-277.4405" font-family="Helvetica,sans-Serif" font-size="10.00" fill="#000000">*</text>
</g>
<!-- A4 -->
<g id="node5" class="node">
<title>A4</title>
<polygon fill="none" stroke="#000000" points="482.5475,-173.8423 393.1505,-173.8423 393.1505,-137.8423 482.5475,-137.8423 482.5475,-173.8423"/>
<text text-anchor="middle" x="437.849" y="-158.8423" font-family="Helvetica,sans-Serif" font-size="10.00" fill="#000000">&lt;&lt;interface&gt;&gt;</text>
<text text-anchor="middle" x="437.849" y="-146.8423" font-family="Helvetica,sans-Serif" font-size="10.00" fill="#000000">Participante</text>
</g>
<!-- A0&#45;&gt;A4 -->
<g id="edge4" class="edge">
<title>A0&#45;&gt;A4</title>
<path fill="none" stroke="#000000" d="M155.587,-131.2283C172.2591,-118.7717 190.7359,-107.7007 210,-100.8423 265.6872,-81.0167 285.9175,-85.4894 343,-100.8423 365.9054,-107.003 388.9848,-120.1974 406.6418,-132.1184"/>
<polygon fill="none" stroke="#000000" points="155.4562,-131.3301 153.1787,-138.1722 145.987,-138.7014 148.2646,-131.8594 155.4562,-131.3301"/>
<polygon fill="#000000" stroke="#000000" points="414.8497,-137.8319 404.0714,-135.8121 410.746,-134.9753 406.6423,-132.1188 406.6423,-132.1188 406.6423,-132.1188 410.746,-134.9753 409.2133,-128.4254 414.8497,-137.8319 414.8497,-137.8319"/>
<text text-anchor="middle" x="395.144" y="-131.4134" font-family="Helvetica,sans-Serif" font-size="10.00" fill="#000000">participantes*</text>
<text text-anchor="middle" x="155.0984" y="-117.8973" font-family="Helvetica,sans-Serif" font-size="10.00" fill="#000000">1</text>
</g>
<!-- A8 -->
<g id="node9" class="node">
<title>A8</title>
<polygon fill="none" stroke="#000000" points="231.5,-153.8423 231.5,-197.8423 321.5,-197.8423 321.5,-153.8423 231.5,-153.8423"/>
<text text-anchor="start" x="251.764" y="-178.8423" font-family="Helvetica,sans-Serif" font-size="10.00" fill="#000000">&lt;&lt;Enum&gt;&gt;</text>
<text text-anchor="start" x="241.4965" y="-166.8423" font-family="Helvetica,sans-Serif" font-size="10.00" fill="#000000">CaracterTorneo</text>
<polygon fill="none" stroke="#000000" points="231.5,-109.8423 231.5,-153.8423 321.5,-153.8423 321.5,-109.8423 231.5,-109.8423"/>
<text text-anchor="start" x="248.445" y="-134.8423" font-family="Helvetica,sans-Serif" font-size="10.00" fill="#000000">INDIVIDUAL</text>
<text text-anchor="start" x="255.943" y="-122.8423" font-family="Helvetica,sans-Serif" font-size="10.00" fill="#000000">GRUPAL</text>
</g>
<!-- A0&#45;&gt;A8 -->
<g id="edge2" class="edge">
<title>A0&#45;&gt;A8</title>
<path fill="none" stroke="#000000" d="M160.2075,-185.2088C180.9021,-179.627 202.7026,-173.747 221.7646,-168.6056"/>
<polygon fill="#000000" stroke="#000000" points="231.4627,-165.9898 222.9797,-172.9387 226.6353,-167.2919 221.8078,-168.594 221.8078,-168.594 221.8078,-168.594 226.6353,-167.2919 220.6359,-164.2493 231.4627,-165.9898 231.4627,-165.9898"/>
<text text-anchor="middle" x="216.1631" y="-175.8708" font-family="Helvetica,sans-Serif" font-size="10.00" fill="#000000">caracter1</text>
<text text-anchor="middle" x="175.5071" y="-169.3277" font-family="Helvetica,sans-Serif" font-size="10.00" fill="#000000">*</text>
</g>
<!-- A11 -->
<g id="node12" class="node">
<title>A11</title>
<polygon fill="none" stroke="#000000" points="210.5,-271.8423 210.5,-303.8423 343.5,-303.8423 343.5,-271.8423 210.5,-271.8423"/>
<text text-anchor="start" x="259.2185" y="-284.8423" font-family="Helvetica,sans-Serif" font-size="10.00" fill="#000000">Reporte</text>
<polygon fill="none" stroke="#000000" points="210.5,-215.8423 210.5,-271.8423 343.5,-271.8423 343.5,-215.8423 210.5,-215.8423"/>
<text text-anchor="start" x="249.4895" y="-252.8423" font-family="Helvetica,sans-Serif" font-size="10.00" fill="#000000">fecha:Fecha</text>
<text text-anchor="start" x="220.042" y="-240.8423" font-family="Helvetica,sans-Serif" font-size="10.00" fill="#000000">participanteA:Participante</text>
<text text-anchor="start" x="220.042" y="-228.8423" font-family="Helvetica,sans-Serif" font-size="10.00" fill="#000000">participanteB:Participante</text>
</g>
<!-- A0&#45;&gt;A11 -->
<g id="edge1" class="edge">
<title>A0&#45;&gt;A11</title>
<path fill="none" stroke="#000000" stroke-dasharray="5,2" d="M160.2075,-228.4759C173.3152,-232.0113 186.8666,-235.6664 199.8847,-239.1777"/>
<polygon fill="#000000" stroke="#000000" points="209.7197,-241.8303 198.8928,-243.5709 204.8922,-240.5282 200.0647,-239.2261 200.0647,-239.2261 200.0647,-239.2261 204.8922,-240.5282 201.2366,-234.8814 209.7197,-241.8303 209.7197,-241.8303"/>
</g>
<!-- A2 -->
<g id="node3" class="node">
<title>A2</title>
<polygon fill="none" stroke="#000000" points="1204.0463,-130.8423 1090.9147,-130.8423 1090.9147,-94.8423 1204.0463,-94.8423 1204.0463,-130.8423"/>
<text text-anchor="middle" x="1147.4805" y="-115.8423" font-family="Helvetica,sans-Serif" font-size="10.00" fill="#000000">&lt;&lt;interface&gt;&gt;</text>
<text text-anchor="middle" x="1147.4805" y="-103.8423" font-family="Helvetica,sans-Serif" font-size="10.00" fill="#000000">RegistroEstadistica</text>
</g>
<!-- A3 -->
<g id="node4" class="node">
<title>A3</title>
<polygon fill="none" stroke="#000000" points="1254.763,-138.8423 1254.763,-170.8423 1445.763,-170.8423 1445.763,-138.8423 1254.763,-138.8423"/>
<text text-anchor="start" x="1298.0375" y="-151.8423" font-family="Helvetica,sans-Serif" font-size="10.00" fill="#000000">RegistroEstadisticaImpl</text>
<polygon fill="none" stroke="#000000" points="1254.763,-106.8423 1254.763,-138.8423 1445.763,-138.8423 1445.763,-106.8423 1254.763,-106.8423"/>
<text text-anchor="start" x="1264.416" y="-119.8423" font-family="Helvetica,sans-Serif" font-size="10.00" fill="#000000">estadisticas:ValorEstadistica［*］</text>
</g>
<!-- A2&#45;&gt;A3 -->
<g id="edge18" class="edge">
<title>A2&#45;&gt;A3</title>
<path fill="none" stroke="#000000" d="M1214.1491,-121.4115C1226.9299,-123.0542 1240.5449,-124.8042 1254.0312,-126.5376"/>
<polygon fill="none" stroke="#000000" points="1214.4611,-117.9228 1204.0964,-120.1194 1213.5686,-124.8657 1214.4611,-117.9228"/>
</g>
<!-- A2&#45;&gt;A4 -->
<g id="edge17" class="edge">
<title>A2&#45;&gt;A4</title>
<path fill="none" stroke="#000000" d="M1080.712,-124.3032C1067.4609,-126.5196 1053.645,-128.7895 1040.698,-130.8423 816.9449,-166.3192 758.356,-192.9051 532.698,-172.8423 516.3678,-171.3904 498.6407,-168.5589 482.9793,-165.6167"/>
<polygon fill="none" stroke="#000000" points="1081.4294,-127.7318 1090.7113,-122.6232 1080.2695,-120.8286 1081.4294,-127.7318"/>
</g>
<!-- A3JA9 -->
<!-- A3&#45;&gt;A3JA9 -->
<g id="edge10" class="edge">
<title>A3&#45;&gt;A3JA9</title>
<path fill="none" stroke="#000000" d="M1445.4267,-139.7779C1495.3236,-140.2659 1547.3207,-140.7744 1553.6254,-140.8361"/>
<text text-anchor="middle" x="1463.6347" y="-128.5032" font-family="Helvetica,sans-Serif" font-size="10.00" fill="#000000">*</text>
</g>
<!-- A5 -->
<g id="node6" class="node">
<title>A5</title>
<polygon fill="none" stroke="#000000" points="593.198,-38.8423 593.198,-70.8423 674.198,-70.8423 674.198,-38.8423 593.198,-38.8423"/>
<text text-anchor="start" x="618.136" y="-51.8423" font-family="Helvetica,sans-Serif" font-size="10.00" fill="#000000">Equipo</text>
<polygon fill="none" stroke="#000000" points="593.198,-6.8423 593.198,-38.8423 674.198,-38.8423 674.198,-6.8423 593.198,-6.8423"/>
<text text-anchor="start" x="602.8585" y="-19.8423" font-family="Helvetica,sans-Serif" font-size="10.00" fill="#000000">nombre:Texto</text>
</g>
<!-- A4&#45;&gt;A5 -->
<g id="edge9" class="edge">
<title>A4&#45;&gt;A5</title>
<path fill="none" stroke="#000000" d="M476.5582,-132.6583C510.0915,-112.5743 558.4432,-83.6151 592.5362,-63.1958"/>
<polygon fill="none" stroke="#000000" points="474.7248,-129.6766 467.9442,-137.8175 478.3216,-135.6819 474.7248,-129.6766"/>
</g>
<!-- A7 -->
<g id="node8" class="node">
<title>A7</title>
<polygon fill="none" stroke="#000000" points="916.198,-89.8423 916.198,-121.8423 1041.198,-121.8423 1041.198,-89.8423 916.198,-89.8423"/>
<text text-anchor="start" x="960.636" y="-102.8423" font-family="Helvetica,sans-Serif" font-size="10.00" fill="#000000">Jugador</text>
<polygon fill="none" stroke="#000000" points="916.198,-57.8423 916.198,-89.8423 1041.198,-89.8423 1041.198,-57.8423 916.198,-57.8423"/>
<text text-anchor="start" x="926.187" y="-70.8423" font-family="Helvetica,sans-Serif" font-size="10.00" fill="#000000">fechaNacimiento:Fecha</text>
</g>
<!-- A4&#45;&gt;A7 -->
<g id="edge8" class="edge">
<title>A4&#45;&gt;A7</title>
<path fill="none" stroke="#000000" d="M492.6711,-159.4692C574.8518,-163.5529 734.3593,-166.2203 865.698,-136.8423 882.3267,-133.1228 899.6216,-127.0951 915.5194,-120.5787"/>
<polygon fill="none" stroke="#000000" points="492.7285,-155.9675 482.5592,-158.9398 492.3625,-162.9579 492.7285,-155.9675"/>
</g>
<!-- A5&#45;&gt;A2 -->
<g id="edge20" class="edge">
<title>A5&#45;&gt;A2</title>
<path fill="none" stroke="#000000" d="M673.9802,-27.0437C704.0211,-18.9888 746.0281,-9.0444 783.698,-4.8423 898.8678,8.005 933.6542,-4.4491 1040.698,-48.8423 1066.5521,-59.5646 1093.5741,-75.8161 1113.9665,-89.2591"/>
<polygon fill="#000000" stroke="#000000" points="1122.2775,-94.8241 1111.4645,-92.9994 1118.1229,-92.0422 1113.9682,-89.2602 1113.9682,-89.2602 1113.9682,-89.2602 1118.1229,-92.0422 1116.472,-85.5211 1122.2775,-94.8241 1122.2775,-94.8241"/>
</g>
<!-- A6 -->
<g id="node7" class="node">
<title>A6</title>
<polygon fill="none" stroke="#000000" points="783.698,-95.8423 783.698,-127.8423 865.698,-127.8423 865.698,-95.8423 783.698,-95.8423"/>
<text text-anchor="start" x="806.081" y="-108.8423" font-family="Helvetica,sans-Serif" font-size="10.00" fill="#000000">Persona</text>
<polygon fill="none" stroke="#000000" points="783.698,-27.8423 783.698,-95.8423 865.698,-95.8423 865.698,-27.8423 783.698,-27.8423"/>
<text text-anchor="start" x="793.8585" y="-76.8423" font-family="Helvetica,sans-Serif" font-size="10.00" fill="#000000">nombre:Texto</text>
<text text-anchor="start" x="793.5795" y="-64.8423" font-family="Helvetica,sans-Serif" font-size="10.00" fill="#000000">apellido:Texto</text>
<text text-anchor="start" x="798.863" y="-52.8423" font-family="Helvetica,sans-Serif" font-size="10.00" fill="#000000">email:Texto</text>
<text text-anchor="start" x="796.0835" y="-40.8423" font-family="Helvetica,sans-Serif" font-size="10.00" fill="#000000">celular:Texto</text>
</g>
<!-- A5&#45;&gt;A6 -->
<g id="edge5" class="edge">
<title>A5&#45;&gt;A6</title>
<path fill="none" stroke="#000000" d="M685.6401,-49.5224C712.9637,-55.087 746.2485,-61.8657 773.4025,-67.3957"/>
<polygon fill="none" stroke="#000000" points="685.5689,-49.508 678.8913,-52.2302 673.8102,-47.1132 680.4878,-44.3911 685.5689,-49.508"/>
<polygon fill="#000000" stroke="#000000" points="783.4841,-69.4489 772.7872,-71.8627 778.5847,-68.4511 773.6853,-67.4532 773.6853,-67.4532 773.6853,-67.4532 778.5847,-68.4511 774.5833,-63.0437 783.4841,-69.4489 783.4841,-69.4489"/>
<text text-anchor="middle" x="764.0358" y="-71.114" font-family="Helvetica,sans-Serif" font-size="10.00" fill="#000000">representante1</text>
<text text-anchor="middle" x="693.2585" y="-39.4481" font-family="Helvetica,sans-Serif" font-size="10.00" fill="#000000">1</text>
</g>
<!-- A5&#45;&gt;A7 -->
<g id="edge7" class="edge">
<title>A5&#45;&gt;A7</title>
<path fill="none" stroke="#000000" d="M685.8896,-23.6122C733.7192,-12.281 805.7287,-1.5011 865.698,-18.8423 888.9866,-25.5767 912.0911,-38.7252 931.247,-51.8956"/>
<polygon fill="none" stroke="#000000" points="685.6202,-23.6789 680.7586,-29.0048 673.9726,-26.5657 678.8341,-21.2398 685.6202,-23.6789"/>
<polygon fill="#000000" stroke="#000000" points="939.4796,-57.7234 928.7176,-55.6185 935.3986,-54.8345 931.3176,-51.9456 931.3176,-51.9456 931.3176,-51.9456 935.3986,-54.8345 933.9176,-48.2727 939.4796,-57.7234 939.4796,-57.7234"/>
<text text-anchor="middle" x="919.8015" y="-51.1494" font-family="Helvetica,sans-Serif" font-size="10.00" fill="#000000">jugador*</text>
<text text-anchor="middle" x="689.5332" y="-11.0011" font-family="Helvetica,sans-Serif" font-size="10.00" fill="#000000">1</text>
</g>
<!-- A6&#45;&gt;A7 -->
<g id="edge6" class="edge">
<title>A6&#45;&gt;A7</title>
<path fill="none" stroke="#000000" d="M876.1692,-81.8661C888.8039,-82.8539 902.4674,-83.922 915.563,-84.9458"/>
<polygon fill="none" stroke="#000000" points="876.0756,-78.3482 865.8332,-81.0581 875.53,-85.3269 876.0756,-78.3482"/>
</g>
<!-- A7&#45;&gt;A2 -->
<g id="edge19" class="edge">
<title>A7&#45;&gt;A2</title>
<path fill="none" stroke="#000000" d="M1040.7516,-98.3413C1053.8108,-100.1157 1067.6243,-101.9925 1080.8257,-103.7861"/>
<polygon fill="#000000" stroke="#000000" points="1090.779,-105.1384 1080.2642,-108.2511 1085.8245,-104.4652 1080.8701,-103.792 1080.8701,-103.792 1080.8701,-103.792 1085.8245,-104.4652 1081.4759,-99.333 1090.779,-105.1384 1090.779,-105.1384"/>
</g>
<!-- A9 -->
<g id="node10" class="node">
<title>A9</title>
<polygon fill="none" stroke="#000000" points="1663.763,-140.8423 1663.763,-172.8423 1744.763,-172.8423 1744.763,-140.8423 1663.763,-140.8423"/>
<text text-anchor="start" x="1680.092" y="-153.8423" font-family="Helvetica,sans-Serif" font-size="10.00" fill="#000000">Estadistica</text>
<polygon fill="none" stroke="#000000" points="1663.763,-108.8423 1663.763,-140.8423 1744.763,-140.8423 1744.763,-108.8423 1663.763,-108.8423"/>
<text text-anchor="start" x="1673.4235" y="-121.8423" font-family="Helvetica,sans-Serif" font-size="10.00" fill="#000000">nombre:Texto</text>
</g>
<!-- A13 -->
<g id="node14" class="node">
<title>A13</title>
<polygon fill="none" stroke="#000000" points="1794.763,-146.8423 1794.763,-190.8423 1881.763,-190.8423 1881.763,-146.8423 1794.763,-146.8423"/>
<text text-anchor="start" x="1813.527" y="-171.8423" font-family="Helvetica,sans-Serif" font-size="10.00" fill="#000000">&lt;&lt;Enum&gt;&gt;</text>
<text text-anchor="start" x="1804.369" y="-159.8423" font-family="Helvetica,sans-Serif" font-size="10.00" fill="#000000">TipoEstadistica</text>
<polygon fill="none" stroke="#000000" points="1794.763,-90.8423 1794.763,-146.8423 1881.763,-146.8423 1881.763,-90.8423 1794.763,-90.8423"/>
<text text-anchor="start" x="1815.202" y="-127.8423" font-family="Helvetica,sans-Serif" font-size="10.00" fill="#000000">POSITIVA</text>
<text text-anchor="start" x="1812.982" y="-115.8423" font-family="Helvetica,sans-Serif" font-size="10.00" fill="#000000">NEGATIVA</text>
<text text-anchor="start" x="1817.711" y="-103.8423" font-family="Helvetica,sans-Serif" font-size="10.00" fill="#000000">NEUTRA</text>
</g>
<!-- A9&#45;&gt;A13 -->
<g id="edge13" class="edge">
<title>A9&#45;&gt;A13</title>
<path fill="none" stroke="#000000" d="M1744.3311,-140.8423C1756.7306,-140.8423 1770.5685,-140.8423 1783.7148,-140.8423"/>
<polygon fill="#000000" stroke="#000000" points="1794.0689,-140.8423 1784.069,-145.3424 1789.0689,-140.8424 1784.0689,-140.8424 1784.0689,-140.8424 1784.0689,-140.8424 1789.0689,-140.8424 1784.0689,-136.3424 1794.0689,-140.8423 1794.0689,-140.8423"/>
<text text-anchor="middle" x="1775.9428" y="-146.2947" font-family="Helvetica,sans-Serif" font-size="10.00" fill="#000000">tipo1</text>
<text text-anchor="middle" x="1762.4572" y="-129.39" font-family="Helvetica,sans-Serif" font-size="10.00" fill="#000000">*</text>
</g>
<!-- A10 -->
<g id="node11" class="node">
<title>A10</title>
<polygon fill="none" stroke="#000000" points="1495.263,-203.8423 1495.263,-235.8423 1613.263,-235.8423 1613.263,-203.8423 1495.263,-203.8423"/>
<text text-anchor="start" x="1518.4245" y="-216.8423" font-family="Helvetica,sans-Serif" font-size="10.00" fill="#000000">ValorEstadistica</text>
<polygon fill="none" stroke="#000000" points="1495.263,-159.8423 1495.263,-203.8423 1613.263,-203.8423 1613.263,-159.8423 1495.263,-159.8423"/>
<text text-anchor="start" x="1531.7625" y="-184.8423" font-family="Helvetica,sans-Serif" font-size="10.00" fill="#000000">valor:Real</text>
<text text-anchor="start" x="1505.0865" y="-172.8423" font-family="Helvetica,sans-Serif" font-size="10.00" fill="#000000">estadistica:Estadistica</text>
</g>
<!-- A10&#45;&gt;A3JA9 -->
<g id="edge12" class="edge">
<title>A10&#45;&gt;A3JA9</title>
<path fill="none" stroke="#000000" stroke-dasharray="5,2" d="M1554.263,-159.4028C1554.263,-156.761 1554.263,-154.1192 1554.263,-151.4774"/>
<polygon fill="#000000" stroke="#000000" points="1554.263,-141.2876 1558.7631,-151.2876 1554.263,-146.2876 1554.2631,-151.2876 1554.2631,-151.2876 1554.2631,-151.2876 1554.263,-146.2876 1549.7631,-151.2877 1554.263,-141.2876 1554.263,-141.2876"/>
</g>
<!-- A11&#45;&gt;A4 -->
<g id="edge16" class="edge">
<title>A11&#45;&gt;A4</title>
<path fill="none" stroke="#000000" d="M353.2226,-210.3896C369.9156,-199.6299 386.8347,-188.7244 401.112,-179.5217"/>
<polygon fill="none" stroke="#000000" points="353.1447,-210.4398 350.2686,-217.0526 343.0584,-216.9411 345.9344,-210.3283 353.1447,-210.4398"/>
<polygon fill="#000000" stroke="#000000" points="409.6346,-174.0284 403.6673,-183.2285 405.4319,-176.7373 401.2293,-179.4462 401.2293,-179.4462 401.2293,-179.4462 405.4319,-176.7373 398.7913,-175.6638 409.6346,-174.0284 409.6346,-174.0284"/>
<text text-anchor="middle" x="398.9784" y="-187.9531" font-family="Helvetica,sans-Serif" font-size="10.00" fill="#000000">2</text>
<text text-anchor="middle" x="353.7146" y="-197.0164" font-family="Helvetica,sans-Serif" font-size="10.00" fill="#000000">*</text>
</g>
<!-- A12 -->
<g id="node13" class="node">
<title>A12</title>
<polygon fill="none" stroke="#000000" points="533.198,-265.8423 533.198,-297.8423 734.198,-297.8423 734.198,-265.8423 533.198,-265.8423"/>
<text text-anchor="start" x="597.305" y="-278.8423" font-family="Helvetica,sans-Serif" font-size="10.00" fill="#000000">RegistroReporte</text>
<polygon fill="none" stroke="#000000" points="533.198,-221.8423 533.198,-265.8423 734.198,-265.8423 734.198,-221.8423 533.198,-221.8423"/>
<text text-anchor="start" x="543.125" y="-246.8423" font-family="Helvetica,sans-Serif" font-size="10.00" fill="#000000">estadisticaParticipanteA:ValorEstadistica</text>
<text text-anchor="start" x="543.125" y="-234.8423" font-family="Helvetica,sans-Serif" font-size="10.00" fill="#000000">estadisticaParticipanteB:ValorEstadistica</text>
</g>
<!-- A11&#45;&gt;A12 -->
<g id="edge14" class="edge">
<title>A11&#45;&gt;A12</title>
<path fill="none" stroke="#000000" d="M355.3785,-259.8423C404.3673,-259.8423 468.0768,-259.8423 522.1266,-259.8423"/>
<polygon fill="none" stroke="#000000" points="355.1737,-259.8424 349.1737,-263.8424 343.1737,-259.8423 349.1738,-255.8424 355.1737,-259.8424"/>
<polygon fill="#000000" stroke="#000000" points="532.4501,-259.8423 522.4502,-264.3424 527.4501,-259.8424 522.4501,-259.8424 522.4501,-259.8424 522.4501,-259.8424 527.4501,-259.8424 522.4501,-255.3424 532.4501,-259.8423 532.4501,-259.8423"/>
<text text-anchor="middle" x="514.324" y="-265.2947" font-family="Helvetica,sans-Serif" font-size="10.00" fill="#000000">registros*</text>
<text text-anchor="middle" x="361.2999" y="-248.39" font-family="Helvetica,sans-Serif" font-size="10.00" fill="#000000">1</text>
</g>
<!-- A12&#45;&gt;A10 -->
<g id="edge15" class="edge">
<title>A12&#45;&gt;A10</title>
<path fill="none" stroke="#000000" d="M746.257,-252.9414C813.5894,-249.4087 900.7441,-245.8423 978.198,-245.8423 978.198,-245.8423 978.198,-245.8423 1147.4805,-245.8423 1266.8221,-245.8423 1404.5097,-225.2142 1485.2022,-211.0037"/>
<polygon fill="none" stroke="#000000" points="745.9049,-252.9601 740.1267,-257.2743 733.922,-253.5998 739.7002,-249.2856 745.9049,-252.9601"/>
<polygon fill="#000000" stroke="#000000" points="1495.2371,-209.2177 1486.1804,-215.4004 1490.3145,-210.0938 1485.3919,-210.97 1485.3919,-210.97 1485.3919,-210.97 1490.3145,-210.0938 1484.6033,-206.5396 1495.2371,-209.2177 1495.2371,-209.2177"/>
<text text-anchor="middle" x="1478.8725" y="-217.7154" font-family="Helvetica,sans-Serif" font-size="10.00" fill="#000000">2</text>
<text text-anchor="middle" x="751.5719" y="-241.1933" font-family="Helvetica,sans-Serif" font-size="10.00" fill="#000000">*</text>
</g>
<!-- A3JA9&#45;&gt;A9 -->
<g id="edge11" class="edge">
<title>A3JA9&#45;&gt;A9</title>
<path fill="none" stroke="#000000" d="M1554.6919,-140.8423C1559.9179,-140.8423 1611.8633,-140.8423 1652.9843,-140.8423"/>
<polygon fill="#000000" stroke="#000000" points="1663.1706,-140.8423 1653.1706,-145.3424 1658.1706,-140.8424 1653.1706,-140.8424 1653.1706,-140.8424 1653.1706,-140.8424 1658.1706,-140.8424 1653.1706,-136.3424 1663.1706,-140.8423 1663.1706,-140.8423"/>
<text text-anchor="middle" x="1645.0444" y="-146.2947" font-family="Helvetica,sans-Serif" font-size="10.00" fill="#000000">*</text>
</g>
</g>
</svg>
