<?xml version="1.0" encoding="UTF-8" standalone="no"?>
<!DOCTYPE svg PUBLIC "-//W3C//DTD SVG 1.1//EN"
 "http://www.w3.org/Graphics/SVG/1.1/DTD/svg11.dtd">
<!-- Generated by graphviz version 2.40.1 (20161225.0304)
 -->
<!-- Title: G Pages: 1 -->
<svg width="2053pt" height="440pt"
 viewBox="0.00 0.00 2052.57 440.00" xmlns="http://www.w3.org/2000/svg" xmlns:xlink="http://www.w3.org/1999/xlink">
<g id="graph0" class="graph" transform="scale(1 1) rotate(0) translate(4 436)">
<title>G</title>
<polygon fill="#ffffff" stroke="transparent" points="-4,4 -4,-436 2048.565,-436 2048.565,4 -4,4"/>
<!-- A0 -->
<g id="node1" class="node">
<title>A0</title>
<polygon fill="none" stroke="#000000" points=".5,-400 .5,-432 341.5,-432 341.5,-400 .5,-400"/>
<text text-anchor="start" x="155.163" y="-413" font-family="Helvetica,sans-Serif" font-size="10.00" fill="#000000">Torneo</text>
<polygon fill="none" stroke="#000000" points=".5,-296 .5,-400 341.5,-400 341.5,-296 .5,-296"/>
<text text-anchor="start" x="140.1605" y="-381" font-family="Helvetica,sans-Serif" font-size="10.00" fill="#000000">nombre:Texto</text>
<text text-anchor="start" x="131.822" y="-369" font-family="Helvetica,sans-Serif" font-size="10.00" fill="#000000">fechaInicio:Fecha</text>
<text text-anchor="start" x="102.6515" y="-357" font-family="Helvetica,sans-Serif" font-size="10.00" fill="#000000">fechaInicioInscripciones:Fecha</text>
<text text-anchor="start" x="100.712" y="-345" font-family="Helvetica,sans-Serif" font-size="10.00" fill="#000000">fechaCierreInscripciones:Fecha</text>
<text text-anchor="start" x="109.042" y="-333" font-family="Helvetica,sans-Serif" font-size="10.00" fill="#000000">numeroParticipantes:Entero</text>
<text text-anchor="start" x="131.5485" y="-321" font-family="Helvetica,sans-Serif" font-size="10.00" fill="#000000">limiteEdad:Entero</text>
<text text-anchor="start" x="120.1595" y="-309" font-family="Helvetica,sans-Serif" font-size="10.00" fill="#000000">valorInscripcion:Entero</text>
<polygon fill="none" stroke="#000000" points=".5,0 .5,-296 341.5,-296 341.5,0 .5,0"/>
<text text-anchor="start" x="109.741" y="-277" font-family="Helvetica,sans-Serif" font-size="10.00" fill="#000000">+Constructor(nombre:Texto</text>
<text text-anchor="start" x="131.822" y="-265" font-family="Helvetica,sans-Serif" font-size="10.00" fill="#000000">fechaInicio:Fecha</text>
<text text-anchor="start" x="102.6515" y="-253" font-family="Helvetica,sans-Serif" font-size="10.00" fill="#000000">fechaInicioInscripciones:Fecha</text>
<text text-anchor="start" x="100.712" y="-241" font-family="Helvetica,sans-Serif" font-size="10.00" fill="#000000">fechaCierreInscripciones:Fecha</text>
<text text-anchor="start" x="109.042" y="-229" font-family="Helvetica,sans-Serif" font-size="10.00" fill="#000000">numeroParticipantes:Entero</text>
<text text-anchor="start" x="131.5485" y="-217" font-family="Helvetica,sans-Serif" font-size="10.00" fill="#000000">limiteEdad:Entero</text>
<text text-anchor="start" x="120.1595" y="-205" font-family="Helvetica,sans-Serif" font-size="10.00" fill="#000000">valorInscripcion:Entero</text>
<text text-anchor="start" x="120.1555" y="-193" font-family="Helvetica,sans-Serif" font-size="10.00" fill="#000000">tipoTorneo:TipoTorneo</text>
<text text-anchor="start" x="10.288" y="-181" font-family="Helvetica,sans-Serif" font-size="10.00" fill="#000000">caracter:CaracterTorneo)+registrarParticipante(participante:Participante)</text>
<text text-anchor="start" x="126.1335" y="-169" font-family="Helvetica,sans-Serif" font-size="10.00" fill="#000000">+getNombre():Texto</text>
<text text-anchor="start" x="116.96" y="-157" font-family="Helvetica,sans-Serif" font-size="10.00" fill="#000000">+getFechaInicio():Fecha</text>
<text text-anchor="start" x="87.7895" y="-145" font-family="Helvetica,sans-Serif" font-size="10.00" fill="#000000">+getFechaInicioInscripciones():Fecha</text>
<text text-anchor="start" x="85.85" y="-133" font-family="Helvetica,sans-Serif" font-size="10.00" fill="#000000">+getFechaCierreInscripciones():Fecha</text>
<text text-anchor="start" x="95.015" y="-121" font-family="Helvetica,sans-Serif" font-size="10.00" fill="#000000">+getNumeroParticipantes():Entero</text>
<text text-anchor="start" x="116.6815" y="-109" font-family="Helvetica,sans-Serif" font-size="10.00" fill="#000000">+getLimiteEdad():Entero</text>
<text text-anchor="start" x="106.128" y="-97" font-family="Helvetica,sans-Serif" font-size="10.00" fill="#000000">+getValorInscripcion():Entero</text>
<text text-anchor="start" x="105.2935" y="-85" font-family="Helvetica,sans-Serif" font-size="10.00" fill="#000000">+getTipoTorneo():TipoTorneo</text>
<text text-anchor="start" x="78.6215" y="-73" font-family="Helvetica,sans-Serif" font-size="10.00" fill="#000000">+getParticipantes():Participante［*］</text>
<text text-anchor="start" x="102.2435" y="-61" font-family="Helvetica,sans-Serif" font-size="10.00" fill="#000000">+getCaracter():CaracterTorneo</text>
<text text-anchor="start" x="93.344" y="-49" font-family="Helvetica,sans-Serif" font-size="10.00" fill="#000000">+setFechaInicio(fechaInicio:Fecha)</text>
<text text-anchor="start" x="35.003" y="-37" font-family="Helvetica,sans-Serif" font-size="10.00" fill="#000000">+setFechaInicioInscripciones(fechaInicioInscripciones:Fecha)</text>
<text text-anchor="start" x="31.124" y="-25" font-family="Helvetica,sans-Serif" font-size="10.00" fill="#000000">+setFechaCierreInscripciones(fechaCierreInscripciones:Fecha)</text>
<text text-anchor="start" x="67.65" y="-13" font-family="Helvetica,sans-Serif" font-size="10.00" fill="#000000">buscarParticipante(nombre:Texto):Participante</text>
</g>
<!-- A1 -->
<g id="node2" class="node">
<title>A1</title>
<polygon fill="none" stroke="#000000" points="422.5,-348 422.5,-392 493.5,-392 493.5,-348 422.5,-348"/>
<text text-anchor="start" x="433.264" y="-373" font-family="Helvetica,sans-Serif" font-size="10.00" fill="#000000">&lt;&lt;Enum&gt;&gt;</text>
<text text-anchor="start" x="432.44" y="-361" font-family="Helvetica,sans-Serif" font-size="10.00" fill="#000000">TipoTorneo</text>
<polygon fill="none" stroke="#000000" points="422.5,-280 422.5,-348 493.5,-348 493.5,-280 422.5,-280"/>
<text text-anchor="start" x="441.6075" y="-329" font-family="Helvetica,sans-Serif" font-size="10.00" fill="#000000">LOCAL</text>
<text text-anchor="start" x="432.164" y="-317" font-family="Helvetica,sans-Serif" font-size="10.00" fill="#000000">REGIONAL</text>
<text text-anchor="start" x="432.444" y="-305" font-family="Helvetica,sans-Serif" font-size="10.00" fill="#000000">NACIONAL</text>
<text text-anchor="start" x="435.5035" y="-293" font-family="Helvetica,sans-Serif" font-size="10.00" fill="#000000">MUNDIAL</text>
</g>
<!-- A0&#45;&gt;A1 -->
<g id="edge3" class="edge">
<title>A0&#45;&gt;A1</title>
<path fill="none" stroke="#000000" d="M341.1799,-287.3644C367.4553,-298.3506 392.4687,-308.8092 412.5205,-317.1932"/>
<polygon fill="#000000" stroke="#000000" points="421.9493,-321.1356 410.9874,-321.4297 417.3363,-319.2068 412.7233,-317.278 412.7233,-317.278 412.7233,-317.278 417.3363,-319.2068 414.4593,-313.1263 421.9493,-321.1356 421.9493,-321.1356"/>
<text text-anchor="middle" x="401.9656" y="-318.9415" font-family="Helvetica,sans-Serif" font-size="10.00" fill="#000000">tipoTorneo1</text>
<text text-anchor="middle" x="361.1636" y="-283.5585" font-family="Helvetica,sans-Serif" font-size="10.00" fill="#000000">*</text>
</g>
<!-- A4 -->
<g id="node5" class="node">
<title>A4</title>
<polygon fill="none" stroke="#000000" points="574,-246 574,-290 726,-290 726,-246 574,-246"/>
<text text-anchor="start" x="619.151" y="-271" font-family="Helvetica,sans-Serif" font-size="10.00" fill="#000000">&lt;&lt;interface&gt;&gt;</text>
<text text-anchor="start" x="623.6055" y="-259" font-family="Helvetica,sans-Serif" font-size="10.00" fill="#000000">Participante</text>
<polygon fill="none" stroke="#000000" points="574,-214 574,-246 726,-246 726,-214 574,-214"/>
<text text-anchor="start" x="583.7425" y="-227" font-family="Helvetica,sans-Serif" font-size="10.00" fill="#000000">+getNombreCompleto():Texto</text>
</g>
<!-- A0&#45;&gt;A4 -->
<g id="edge4" class="edge">
<title>A0&#45;&gt;A4</title>
<path fill="none" stroke="#000000" d="M353.3637,-230.151C366.1003,-231.1204 378.7415,-232.0778 391,-233 448.5189,-237.327 513.2329,-242.0744 563.5852,-245.7414"/>
<polygon fill="none" stroke="#000000" points="353.0978,-230.1308 346.8111,-233.6631 341.1326,-229.2186 347.4193,-225.6863 353.0978,-230.1308"/>
<polygon fill="#000000" stroke="#000000" points="573.7805,-246.4834 563.4802,-250.2456 568.7937,-246.1204 563.8069,-245.7574 563.8069,-245.7574 563.8069,-245.7574 568.7937,-246.1204 564.1336,-241.2693 573.7805,-246.4834 573.7805,-246.4834"/>
<text text-anchor="middle" x="555.0886" y="-250.5977" font-family="Helvetica,sans-Serif" font-size="10.00" fill="#000000">participantes*</text>
<text text-anchor="middle" x="359.8487" y="-219.1684" font-family="Helvetica,sans-Serif" font-size="10.00" fill="#000000">1</text>
</g>
<!-- A8 -->
<g id="node9" class="node">
<title>A8</title>
<polygon fill="none" stroke="#000000" points="412.5,-74 412.5,-118 502.5,-118 502.5,-74 412.5,-74"/>
<text text-anchor="start" x="432.764" y="-99" font-family="Helvetica,sans-Serif" font-size="10.00" fill="#000000">&lt;&lt;Enum&gt;&gt;</text>
<text text-anchor="start" x="422.4965" y="-87" font-family="Helvetica,sans-Serif" font-size="10.00" fill="#000000">CaracterTorneo</text>
<polygon fill="none" stroke="#000000" points="412.5,-30 412.5,-74 502.5,-74 502.5,-30 412.5,-30"/>
<text text-anchor="start" x="429.445" y="-55" font-family="Helvetica,sans-Serif" font-size="10.00" fill="#000000">INDIVIDUAL</text>
<text text-anchor="start" x="436.943" y="-43" font-family="Helvetica,sans-Serif" font-size="10.00" fill="#000000">GRUPAL</text>
</g>
<!-- A0&#45;&gt;A8 -->
<g id="edge2" class="edge">
<title>A0&#45;&gt;A8</title>
<path fill="none" stroke="#000000" d="M341.1799,-131.5521C363.6287,-120.445 385.1564,-109.7937 403.4556,-100.7397"/>
<polygon fill="#000000" stroke="#000000" points="412.443,-96.293 405.4756,-104.761 407.9615,-98.5104 403.48,-100.7277 403.48,-100.7277 403.48,-100.7277 407.9615,-98.5104 401.4844,-96.6944 412.443,-96.293 412.443,-96.293"/>
<text text-anchor="middle" x="399.9449" y="-108.9071" font-family="Helvetica,sans-Serif" font-size="10.00" fill="#000000">caracter1</text>
<text text-anchor="middle" x="353.6779" y="-112.9381" font-family="Helvetica,sans-Serif" font-size="10.00" fill="#000000">*</text>
</g>
<!-- A11 -->
<g id="node12" class="node">
<title>A11</title>
<polygon fill="none" stroke="#000000" points="391.5,-192 391.5,-224 524.5,-224 524.5,-192 391.5,-192"/>
<text text-anchor="start" x="440.2185" y="-205" font-family="Helvetica,sans-Serif" font-size="10.00" fill="#000000">Reporte</text>
<polygon fill="none" stroke="#000000" points="391.5,-136 391.5,-192 524.5,-192 524.5,-136 391.5,-136"/>
<text text-anchor="start" x="430.4895" y="-173" font-family="Helvetica,sans-Serif" font-size="10.00" fill="#000000">fecha:Fecha</text>
<text text-anchor="start" x="401.042" y="-161" font-family="Helvetica,sans-Serif" font-size="10.00" fill="#000000">participanteA:Participante</text>
<text text-anchor="start" x="401.042" y="-149" font-family="Helvetica,sans-Serif" font-size="10.00" fill="#000000">participanteB:Participante</text>
</g>
<!-- A0&#45;&gt;A11 -->
<g id="edge1" class="edge">
<title>A0&#45;&gt;A11</title>
<path fill="none" stroke="#000000" stroke-dasharray="5,2" d="M341.1799,-194.5907C354.816,-192.8802 368.1122,-191.2124 380.5515,-189.6521"/>
<polygon fill="#000000" stroke="#000000" points="390.7875,-188.3681 381.4254,-194.0778 385.8264,-188.9905 380.8653,-189.6128 380.8653,-189.6128 380.8653,-189.6128 385.8264,-188.9905 380.3052,-185.1478 390.7875,-188.3681 390.7875,-188.3681"/>
</g>
<!-- A2 -->
<g id="node3" class="node">
<title>A2</title>
<polygon fill="none" stroke="#000000" points="1521.3483,-230 1408.2167,-230 1408.2167,-194 1521.3483,-194 1521.3483,-230"/>
<text text-anchor="middle" x="1464.7825" y="-215" font-family="Helvetica,sans-Serif" font-size="10.00" fill="#000000">&lt;&lt;interface&gt;&gt;</text>
<text text-anchor="middle" x="1464.7825" y="-203" font-family="Helvetica,sans-Serif" font-size="10.00" fill="#000000">RegistroEstadistica</text>
</g>
<!-- A3 -->
<g id="node4" class="node">
<title>A3</title>
<polygon fill="none" stroke="#000000" points="1572.065,-212 1572.065,-244 1777.065,-244 1777.065,-212 1572.065,-212"/>
<text text-anchor="start" x="1622.3395" y="-225" font-family="Helvetica,sans-Serif" font-size="10.00" fill="#000000">RegistroEstadisticaImpl</text>
<polygon fill="none" stroke="#000000" points="1572.065,-180 1572.065,-212 1777.065,-212 1777.065,-180 1572.065,-180"/>
<text text-anchor="start" x="1581.774" y="-193" font-family="Helvetica,sans-Serif" font-size="10.00" fill="#000000">estadisticas:ValorEstadistica［*］</text>
</g>
<!-- A2&#45;&gt;A3 -->
<g id="edge18" class="edge">
<title>A2&#45;&gt;A3</title>
<path fill="none" stroke="#000000" d="M1531.4446,-212C1544.2025,-212 1557.8318,-212 1571.4163,-212"/>
<polygon fill="none" stroke="#000000" points="1531.4174,-208.5001 1521.4174,-212 1531.4173,-215.5001 1531.4174,-208.5001"/>
</g>
<!-- A2&#45;&gt;A4 -->
<g id="edge17" class="edge">
<title>A2&#45;&gt;A4</title>
<path fill="none" stroke="#000000" d="M1450.8656,-239.2212C1433.2673,-271.1348 1400.1172,-323.6421 1358,-355 1291.5736,-404.4571 1264.5466,-404.5564 1183,-419 1001.0405,-451.2288 942.9013,-413.3215 776,-334 750.4236,-321.8446 723.8938,-305.2631 701.813,-290.1908"/>
<polygon fill="none" stroke="#000000" points="1454.1587,-240.4881 1455.8206,-230.0244 1447.9961,-237.1679 1454.1587,-240.4881"/>
</g>
<!-- A2JA9 -->
<!-- A2&#45;&gt;A2JA9 -->
<g id="edge10" class="edge">
<title>A2&#45;&gt;A2JA9</title>
<path fill="none" stroke="#000000" d="M1472.2733,-193.8518C1486.4087,-162.2077 1520.2781,-97.5859 1571.565,-69 1609.6377,-47.7794 1668.2502,-58.8345 1673.6614,-59.9176"/>
<text text-anchor="middle" x="1472.2329" y="-170.8518" font-family="Helvetica,sans-Serif" font-size="10.00" fill="#000000">*</text>
</g>
<!-- A5 -->
<g id="node6" class="node">
<title>A5</title>
<polygon fill="none" stroke="#000000" points="812.5,-293 812.5,-325 954.5,-325 954.5,-293 812.5,-293"/>
<text text-anchor="start" x="867.938" y="-306" font-family="Helvetica,sans-Serif" font-size="10.00" fill="#000000">Equipo</text>
<polygon fill="none" stroke="#000000" points="812.5,-261 812.5,-293 954.5,-293 954.5,-261 812.5,-261"/>
<text text-anchor="start" x="852.6605" y="-274" font-family="Helvetica,sans-Serif" font-size="10.00" fill="#000000">nombre:Texto</text>
<polygon fill="none" stroke="#000000" points="812.5,-217 812.5,-261 954.5,-261 954.5,-217 812.5,-217"/>
<text text-anchor="start" x="822.241" y="-242" font-family="Helvetica,sans-Serif" font-size="10.00" fill="#000000">+Constructor(nombre:Texto</text>
<text text-anchor="start" x="830.985" y="-230" font-family="Helvetica,sans-Serif" font-size="10.00" fill="#000000">representante:Persona)</text>
</g>
<!-- A4&#45;&gt;A5 -->
<g id="edge9" class="edge">
<title>A4&#45;&gt;A5</title>
<path fill="none" stroke="#000000" d="M736.3298,-259.0247C761.305,-261.0569 788.2766,-263.2516 812.2232,-265.2002"/>
<polygon fill="none" stroke="#000000" points="736.3845,-255.5177 726.1335,-258.195 735.8167,-262.4946 736.3845,-255.5177"/>
</g>
<!-- A7 -->
<g id="node8" class="node">
<title>A7</title>
<polygon fill="none" stroke="#000000" points="1233.5,-203 1233.5,-235 1358.5,-235 1358.5,-203 1233.5,-203"/>
<text text-anchor="start" x="1277.938" y="-216" font-family="Helvetica,sans-Serif" font-size="10.00" fill="#000000">Jugador</text>
<polygon fill="none" stroke="#000000" points="1233.5,-171 1233.5,-203 1358.5,-203 1358.5,-171 1233.5,-171"/>
<text text-anchor="start" x="1243.489" y="-184" font-family="Helvetica,sans-Serif" font-size="10.00" fill="#000000">fechaNacimiento:Fecha</text>
</g>
<!-- A4&#45;&gt;A7 -->
<g id="edge8" class="edge">
<title>A4&#45;&gt;A7</title>
<path fill="none" stroke="#000000" d="M735.8985,-218.3527C749.1576,-214.2276 762.8236,-210.5682 776,-208 938.2299,-176.3805 1134.396,-187.4667 1232.7875,-196.3213"/>
<polygon fill="none" stroke="#000000" points="734.7771,-215.0367 726.3285,-221.4298 736.9199,-221.7007 734.7771,-215.0367"/>
</g>
<!-- A5&#45;&gt;A2 -->
<g id="edge20" class="edge">
<title>A5&#45;&gt;A2</title>
<path fill="none" stroke="#000000" d="M932.4924,-325.2521C961.0747,-352.7648 999.596,-383.3865 1041,-398 1100.513,-419.0051 1122.5552,-416.1505 1183,-398 1288.8757,-366.2074 1391.6808,-280.3152 1438.4811,-237.2852"/>
<polygon fill="#000000" stroke="#000000" points="1446.0309,-230.2663 1441.771,-240.371 1442.369,-233.6708 1438.707,-237.0752 1438.707,-237.0752 1438.707,-237.0752 1442.369,-233.6708 1435.643,-233.7795 1446.0309,-230.2663 1446.0309,-230.2663"/>
</g>
<!-- A6 -->
<g id="node7" class="node">
<title>A6</title>
<polygon fill="none" stroke="#000000" points="1041,-357 1041,-389 1183,-389 1183,-357 1041,-357"/>
<text text-anchor="start" x="1093.383" y="-370" font-family="Helvetica,sans-Serif" font-size="10.00" fill="#000000">Persona</text>
<polygon fill="none" stroke="#000000" points="1041,-289 1041,-357 1183,-357 1183,-289 1041,-289"/>
<text text-anchor="start" x="1081.1605" y="-338" font-family="Helvetica,sans-Serif" font-size="10.00" fill="#000000">nombre:Texto</text>
<text text-anchor="start" x="1080.8815" y="-326" font-family="Helvetica,sans-Serif" font-size="10.00" fill="#000000">apellido:Texto</text>
<text text-anchor="start" x="1086.165" y="-314" font-family="Helvetica,sans-Serif" font-size="10.00" fill="#000000">email:Texto</text>
<text text-anchor="start" x="1083.3855" y="-302" font-family="Helvetica,sans-Serif" font-size="10.00" fill="#000000">celular:Texto</text>
<polygon fill="none" stroke="#000000" points="1041,-221 1041,-289 1183,-289 1183,-221 1041,-221"/>
<text text-anchor="start" x="1050.741" y="-270" font-family="Helvetica,sans-Serif" font-size="10.00" fill="#000000">+Constructor(nombre:Texto</text>
<text text-anchor="start" x="1080.8815" y="-258" font-family="Helvetica,sans-Serif" font-size="10.00" fill="#000000">apellido:Texto</text>
<text text-anchor="start" x="1086.165" y="-246" font-family="Helvetica,sans-Serif" font-size="10.00" fill="#000000">email:Texto</text>
<text text-anchor="start" x="1081.721" y="-234" font-family="Helvetica,sans-Serif" font-size="10.00" fill="#000000">celular:Texto)</text>
</g>
<!-- A5&#45;&gt;A6 -->
<g id="edge5" class="edge">
<title>A5&#45;&gt;A6</title>
<path fill="none" stroke="#000000" d="M966.6972,-283.3795C987.6357,-286.495 1010.0799,-289.8346 1030.9134,-292.9346"/>
<polygon fill="none" stroke="#000000" points="966.4156,-283.3376 959.8922,-286.411 954.5463,-281.5714 961.0697,-278.4981 966.4156,-283.3376"/>
<polygon fill="#000000" stroke="#000000" points="1040.9977,-294.4351 1030.4442,-297.4143 1036.0521,-293.6992 1031.1066,-292.9633 1031.1066,-292.9633 1031.1066,-292.9633 1036.0521,-293.6992 1031.7689,-288.5123 1040.9977,-294.4351 1040.9977,-294.4351"/>
<text text-anchor="middle" x="1021.8249" y="-297.1277" font-family="Helvetica,sans-Serif" font-size="10.00" fill="#000000">representante1</text>
<text text-anchor="middle" x="973.719" y="-272.8789" font-family="Helvetica,sans-Serif" font-size="10.00" fill="#000000">1</text>
</g>
<!-- A5&#45;&gt;A7 -->
<g id="edge7" class="edge">
<title>A5&#45;&gt;A7</title>
<path fill="none" stroke="#000000" d="M966.0366,-234.3777C989.781,-225.419 1016.0225,-216.9823 1041,-212 1101.4634,-199.9394 1171.5737,-198.3479 1222.8789,-199.3985"/>
<polygon fill="none" stroke="#000000" points="965.7885,-234.4736 961.6366,-240.3696 954.5973,-238.8047 958.7492,-232.9088 965.7885,-234.4736"/>
<polygon fill="#000000" stroke="#000000" points="1232.8808,-199.6415 1222.7743,-203.8972 1227.8822,-199.52 1222.8837,-199.3985 1222.8837,-199.3985 1222.8837,-199.3985 1227.8822,-199.52 1222.9931,-194.8998 1232.8808,-199.6415 1232.8808,-199.6415"/>
<text text-anchor="middle" x="1214.5546" y="-204.6511" font-family="Helvetica,sans-Serif" font-size="10.00" fill="#000000">jugador*</text>
<text text-anchor="middle" x="968.4511" y="-221.38" font-family="Helvetica,sans-Serif" font-size="10.00" fill="#000000">1</text>
</g>
<!-- A6&#45;&gt;A7 -->
<g id="edge6" class="edge">
<title>A6&#45;&gt;A7</title>
<path fill="none" stroke="#000000" d="M1192.1611,-260.4418C1207.4746,-251.9297 1223.2257,-243.1743 1237.6712,-235.1446"/>
<polygon fill="none" stroke="#000000" points="1190.2485,-257.5005 1183.2085,-265.4181 1193.6495,-263.6188 1190.2485,-257.5005"/>
</g>
<!-- A7&#45;&gt;A2 -->
<g id="edge19" class="edge">
<title>A7&#45;&gt;A2</title>
<path fill="none" stroke="#000000" d="M1358.0536,-206.3257C1370.9848,-207.0132 1384.6555,-207.74 1397.7393,-208.4356"/>
<polygon fill="#000000" stroke="#000000" points="1408.081,-208.9854 1397.8562,-212.9481 1403.0881,-208.7199 1398.0951,-208.4544 1398.0951,-208.4544 1398.0951,-208.4544 1403.0881,-208.7199 1398.3341,-203.9608 1408.081,-208.9854 1408.081,-208.9854"/>
</g>
<!-- A9 -->
<g id="node10" class="node">
<title>A9</title>
<polygon fill="none" stroke="#000000" points="1827.065,-60 1827.065,-92 1908.065,-92 1908.065,-60 1827.065,-60"/>
<text text-anchor="start" x="1843.394" y="-73" font-family="Helvetica,sans-Serif" font-size="10.00" fill="#000000">Estadistica</text>
<polygon fill="none" stroke="#000000" points="1827.065,-28 1827.065,-60 1908.065,-60 1908.065,-28 1827.065,-28"/>
<text text-anchor="start" x="1836.7255" y="-41" font-family="Helvetica,sans-Serif" font-size="10.00" fill="#000000">nombre:Texto</text>
</g>
<!-- A13 -->
<g id="node14" class="node">
<title>A13</title>
<polygon fill="none" stroke="#000000" points="1958.065,-66 1958.065,-110 2045.065,-110 2045.065,-66 1958.065,-66"/>
<text text-anchor="start" x="1976.829" y="-91" font-family="Helvetica,sans-Serif" font-size="10.00" fill="#000000">&lt;&lt;Enum&gt;&gt;</text>
<text text-anchor="start" x="1967.671" y="-79" font-family="Helvetica,sans-Serif" font-size="10.00" fill="#000000">TipoEstadistica</text>
<polygon fill="none" stroke="#000000" points="1958.065,-10 1958.065,-66 2045.065,-66 2045.065,-10 1958.065,-10"/>
<text text-anchor="start" x="1978.504" y="-47" font-family="Helvetica,sans-Serif" font-size="10.00" fill="#000000">POSITIVA</text>
<text text-anchor="start" x="1976.284" y="-35" font-family="Helvetica,sans-Serif" font-size="10.00" fill="#000000">NEGATIVA</text>
<text text-anchor="start" x="1981.013" y="-23" font-family="Helvetica,sans-Serif" font-size="10.00" fill="#000000">NEUTRA</text>
</g>
<!-- A9&#45;&gt;A13 -->
<g id="edge13" class="edge">
<title>A9&#45;&gt;A13</title>
<path fill="none" stroke="#000000" d="M1907.6331,-60C1920.0326,-60 1933.8705,-60 1947.0168,-60"/>
<polygon fill="#000000" stroke="#000000" points="1957.3709,-60 1947.371,-64.5001 1952.3709,-60 1947.3709,-60.0001 1947.3709,-60.0001 1947.3709,-60.0001 1952.3709,-60 1947.3709,-55.5001 1957.3709,-60 1957.3709,-60"/>
<text text-anchor="middle" x="1939.2448" y="-65.4524" font-family="Helvetica,sans-Serif" font-size="10.00" fill="#000000">tipo1</text>
<text text-anchor="middle" x="1925.7592" y="-48.5476" font-family="Helvetica,sans-Serif" font-size="10.00" fill="#000000">*</text>
</g>
<!-- A10 -->
<g id="node11" class="node">
<title>A10</title>
<polygon fill="none" stroke="#000000" points="1615.065,-122 1615.065,-154 1733.065,-154 1733.065,-122 1615.065,-122"/>
<text text-anchor="start" x="1631.2825" y="-135" font-family="Helvetica,sans-Serif" font-size="10.00" fill="#000000">RegistroEstadistica</text>
<polygon fill="none" stroke="#000000" points="1615.065,-78 1615.065,-122 1733.065,-122 1733.065,-78 1615.065,-78"/>
<text text-anchor="start" x="1651.5645" y="-103" font-family="Helvetica,sans-Serif" font-size="10.00" fill="#000000">valor:Real</text>
<text text-anchor="start" x="1624.8885" y="-91" font-family="Helvetica,sans-Serif" font-size="10.00" fill="#000000">estadistica:Estadistica</text>
</g>
<!-- A10&#45;&gt;A2JA9 -->
<g id="edge12" class="edge">
<title>A10&#45;&gt;A2JA9</title>
<path fill="none" stroke="#000000" stroke-dasharray="5,2" d="M1674.065,-77.8008C1674.065,-75.3591 1674.065,-72.9174 1674.065,-70.4756"/>
<polygon fill="#000000" stroke="#000000" points="1674.065,-60.4375 1678.5651,-70.4375 1674.065,-65.4375 1674.0651,-70.4375 1674.0651,-70.4375 1674.0651,-70.4375 1674.065,-65.4375 1669.5651,-70.4375 1674.065,-60.4375 1674.065,-60.4375"/>
</g>
<!-- A11&#45;&gt;A4 -->
<g id="edge16" class="edge">
<title>A11&#45;&gt;A4</title>
<path fill="none" stroke="#000000" d="M535.502,-209.1748C545.0035,-212.7286 554.7512,-216.3745 564.3563,-219.967"/>
<polygon fill="none" stroke="#000000" points="535.2567,-209.0831 528.2356,-210.7276 524.0171,-204.8791 531.0382,-203.2346 535.2567,-209.0831"/>
<polygon fill="#000000" stroke="#000000" points="573.8995,-223.5364 562.9567,-224.248 569.2163,-221.7848 564.5332,-220.0331 564.5332,-220.0331 564.5332,-220.0331 569.2163,-221.7848 566.1097,-215.8183 573.8995,-223.5364 573.8995,-223.5364"/>
<text text-anchor="middle" x="553.9609" y="-222.1031" font-family="Helvetica,sans-Serif" font-size="10.00" fill="#000000">2</text>
<text text-anchor="middle" x="543.9557" y="-200.3124" font-family="Helvetica,sans-Serif" font-size="10.00" fill="#000000">*</text>
</g>
<!-- A12 -->
<g id="node13" class="node">
<title>A12</title>
<polygon fill="none" stroke="#000000" points="776.5,-95 776.5,-127 991.5,-127 991.5,-95 776.5,-95"/>
<text text-anchor="start" x="847.607" y="-108" font-family="Helvetica,sans-Serif" font-size="10.00" fill="#000000">RegistroReporte</text>
<polygon fill="none" stroke="#000000" points="776.5,-51 776.5,-95 991.5,-95 991.5,-51 776.5,-51"/>
<text text-anchor="start" x="786.483" y="-76" font-family="Helvetica,sans-Serif" font-size="10.00" fill="#000000">estadisticaParticipanteA:ValorEstadistica</text>
<text text-anchor="start" x="786.483" y="-64" font-family="Helvetica,sans-Serif" font-size="10.00" fill="#000000">estadisticaParticipanteB:ValorEstadistica</text>
</g>
<!-- A11&#45;&gt;A12 -->
<g id="edge14" class="edge">
<title>A11&#45;&gt;A12</title>
<path fill="none" stroke="#000000" d="M535.8465,-163.264C600.1341,-149.5312 692.1626,-129.8725 765.3867,-114.2308"/>
<polygon fill="none" stroke="#000000" points="535.7977,-163.2743 530.7658,-168.4395 524.0625,-165.7813 529.0945,-160.6161 535.7977,-163.2743"/>
<polygon fill="#000000" stroke="#000000" points="775.5893,-112.0514 766.75,-118.5412 770.6996,-113.0959 765.8099,-114.1405 765.8099,-114.1405 765.8099,-114.1405 770.6996,-113.0959 764.8698,-109.7397 775.5893,-112.0514 775.5893,-112.0514"/>
<text text-anchor="middle" x="759.6287" y="-121.1038" font-family="Helvetica,sans-Serif" font-size="10.00" fill="#000000">registros*</text>
<text text-anchor="middle" x="540.023" y="-150.7288" font-family="Helvetica,sans-Serif" font-size="10.00" fill="#000000">1</text>
</g>
<!-- A12&#45;&gt;A10 -->
<g id="edge15" class="edge">
<title>A12&#45;&gt;A10</title>
<path fill="none" stroke="#000000" d="M1003.4849,-93.0978C1170.9755,-98.8181 1469.458,-109.0121 1604.405,-113.6209"/>
<polygon fill="none" stroke="#000000" points="1003.3472,-93.0932 997.2141,-96.886 991.3542,-92.6835 997.4872,-88.8907 1003.3472,-93.0932"/>
<polygon fill="#000000" stroke="#000000" points="1614.6138,-113.9696 1604.466,-118.1255 1609.6167,-113.7989 1604.6196,-113.6282 1604.6196,-113.6282 1604.6196,-113.6282 1609.6167,-113.7989 1604.7733,-109.1308 1614.6138,-113.9696 1614.6138,-113.9696"/>
<text text-anchor="middle" x="1596.2097" y="-118.7983" font-family="Helvetica,sans-Serif" font-size="10.00" fill="#000000">2</text>
<text text-anchor="middle" x="1009.7583" y="-81.8548" font-family="Helvetica,sans-Serif" font-size="10.00" fill="#000000">*</text>
</g>
<!-- A2JA9&#45;&gt;A9 -->
<g id="edge11" class="edge">
<title>A2JA9&#45;&gt;A9</title>
<path fill="none" stroke="#000000" d="M1674.6186,-60C1682.0133,-60 1761.8619,-60 1816.3534,-60"/>
<polygon fill="#000000" stroke="#000000" points="1826.5471,-60 1816.5471,-64.5001 1821.5471,-60 1816.5471,-60.0001 1816.5471,-60.0001 1816.5471,-60.0001 1821.5471,-60 1816.547,-55.5001 1826.5471,-60 1826.5471,-60"/>
<text text-anchor="middle" x="1808.4209" y="-65.4524" font-family="Helvetica,sans-Serif" font-size="10.00" fill="#000000">*</text>
</g>
</g>
</svg>
