<?xml version="1.0" encoding="UTF-8" standalone="no"?>
<!DOCTYPE svg PUBLIC "-//W3C//DTD SVG 1.1//EN"
 "http://www.w3.org/Graphics/SVG/1.1/DTD/svg11.dtd">
<!-- Generated by graphviz version 2.40.1 (20161225.0304)
 -->
<!-- Title: G Pages: 1 -->
<svg width="2070pt" height="445pt"
 viewBox="0.00 0.00 2070.26 445.00" xmlns="http://www.w3.org/2000/svg" xmlns:xlink="http://www.w3.org/1999/xlink">
<g id="graph0" class="graph" transform="scale(1 1) rotate(0) translate(4 441)">
<title>G</title>
<polygon fill="#ffffff" stroke="transparent" points="-4,4 -4,-441 2066.263,-441 2066.263,4 -4,4"/>
<!-- A0 -->
<g id="node1" class="node">
<title>A0</title>
<polygon fill="none" stroke="#000000" points=".5,-388 .5,-420 341.5,-420 341.5,-388 .5,-388"/>
<text text-anchor="start" x="155.163" y="-401" font-family="Helvetica,sans-Serif" font-size="10.00" fill="#000000">Torneo</text>
<polygon fill="none" stroke="#000000" points=".5,-284 .5,-388 341.5,-388 341.5,-284 .5,-284"/>
<text text-anchor="start" x="140.1605" y="-369" font-family="Helvetica,sans-Serif" font-size="10.00" fill="#000000">nombre:Texto</text>
<text text-anchor="start" x="131.822" y="-357" font-family="Helvetica,sans-Serif" font-size="10.00" fill="#000000">fechaInicio:Fecha</text>
<text text-anchor="start" x="102.6515" y="-345" font-family="Helvetica,sans-Serif" font-size="10.00" fill="#000000">fechaInicioInscripciones:Fecha</text>
<text text-anchor="start" x="100.712" y="-333" font-family="Helvetica,sans-Serif" font-size="10.00" fill="#000000">fechaCierreInscripciones:Fecha</text>
<text text-anchor="start" x="109.042" y="-321" font-family="Helvetica,sans-Serif" font-size="10.00" fill="#000000">numeroParticipantes:Entero</text>
<text text-anchor="start" x="131.5485" y="-309" font-family="Helvetica,sans-Serif" font-size="10.00" fill="#000000">limiteEdad:Entero</text>
<text text-anchor="start" x="120.1595" y="-297" font-family="Helvetica,sans-Serif" font-size="10.00" fill="#000000">valorInscripcion:Entero</text>
<polygon fill="none" stroke="#000000" points=".5,0 .5,-284 341.5,-284 341.5,0 .5,0"/>
<text text-anchor="start" x="109.741" y="-265" font-family="Helvetica,sans-Serif" font-size="10.00" fill="#000000">+Constructor(nombre:Texto</text>
<text text-anchor="start" x="131.822" y="-253" font-family="Helvetica,sans-Serif" font-size="10.00" fill="#000000">fechaInicio:Fecha</text>
<text text-anchor="start" x="102.6515" y="-241" font-family="Helvetica,sans-Serif" font-size="10.00" fill="#000000">fechaInicioInscripciones:Fecha</text>
<text text-anchor="start" x="100.712" y="-229" font-family="Helvetica,sans-Serif" font-size="10.00" fill="#000000">fechaCierreInscripciones:Fecha</text>
<text text-anchor="start" x="109.042" y="-217" font-family="Helvetica,sans-Serif" font-size="10.00" fill="#000000">numeroParticipantes:Entero</text>
<text text-anchor="start" x="131.5485" y="-205" font-family="Helvetica,sans-Serif" font-size="10.00" fill="#000000">limiteEdad:Entero</text>
<text text-anchor="start" x="120.1595" y="-193" font-family="Helvetica,sans-Serif" font-size="10.00" fill="#000000">valorInscripcion:Entero</text>
<text text-anchor="start" x="120.1555" y="-181" font-family="Helvetica,sans-Serif" font-size="10.00" fill="#000000">tipoTorneo:TipoTorneo</text>
<text text-anchor="start" x="10.288" y="-169" font-family="Helvetica,sans-Serif" font-size="10.00" fill="#000000">caracter:CaracterTorneo)+registrarParticipante(participante:Participante)</text>
<text text-anchor="start" x="126.1335" y="-157" font-family="Helvetica,sans-Serif" font-size="10.00" fill="#000000">+getNombre():Texto</text>
<text text-anchor="start" x="116.96" y="-145" font-family="Helvetica,sans-Serif" font-size="10.00" fill="#000000">+getFechaInicio():Fecha</text>
<text text-anchor="start" x="87.7895" y="-133" font-family="Helvetica,sans-Serif" font-size="10.00" fill="#000000">+getFechaInicioInscripciones():Fecha</text>
<text text-anchor="start" x="85.85" y="-121" font-family="Helvetica,sans-Serif" font-size="10.00" fill="#000000">+getFechaCierreInscripciones():Fecha</text>
<text text-anchor="start" x="95.015" y="-109" font-family="Helvetica,sans-Serif" font-size="10.00" fill="#000000">+getNumeroParticipantes():Entero</text>
<text text-anchor="start" x="116.6815" y="-97" font-family="Helvetica,sans-Serif" font-size="10.00" fill="#000000">+getLimiteEdad():Entero</text>
<text text-anchor="start" x="106.128" y="-85" font-family="Helvetica,sans-Serif" font-size="10.00" fill="#000000">+getValorInscripcion():Entero</text>
<text text-anchor="start" x="105.2935" y="-73" font-family="Helvetica,sans-Serif" font-size="10.00" fill="#000000">+getTipoTorneo():TipoTorneo</text>
<text text-anchor="start" x="78.6215" y="-61" font-family="Helvetica,sans-Serif" font-size="10.00" fill="#000000">+getParticipantes():Participante［*］</text>
<text text-anchor="start" x="102.2435" y="-49" font-family="Helvetica,sans-Serif" font-size="10.00" fill="#000000">+getCaracter():CaracterTorneo</text>
<text text-anchor="start" x="93.344" y="-37" font-family="Helvetica,sans-Serif" font-size="10.00" fill="#000000">+setFechaInicio(fechaInicio:Fecha)</text>
<text text-anchor="start" x="35.003" y="-25" font-family="Helvetica,sans-Serif" font-size="10.00" fill="#000000">+setFechaInicioInscripciones(fechaInicioInscripciones:Fecha)</text>
<text text-anchor="start" x="31.124" y="-13" font-family="Helvetica,sans-Serif" font-size="10.00" fill="#000000">+setFechaCierreInscripciones(fechaCierreInscripciones:Fecha)</text>
</g>
<!-- A1 -->
<g id="node2" class="node">
<title>A1</title>
<polygon fill="none" stroke="#000000" points="422.5,-393 422.5,-437 493.5,-437 493.5,-393 422.5,-393"/>
<text text-anchor="start" x="433.264" y="-418" font-family="Helvetica,sans-Serif" font-size="10.00" fill="#000000">&lt;&lt;Enum&gt;&gt;</text>
<text text-anchor="start" x="432.44" y="-406" font-family="Helvetica,sans-Serif" font-size="10.00" fill="#000000">TipoTorneo</text>
<polygon fill="none" stroke="#000000" points="422.5,-325 422.5,-393 493.5,-393 493.5,-325 422.5,-325"/>
<text text-anchor="start" x="441.6075" y="-374" font-family="Helvetica,sans-Serif" font-size="10.00" fill="#000000">LOCAL</text>
<text text-anchor="start" x="432.164" y="-362" font-family="Helvetica,sans-Serif" font-size="10.00" fill="#000000">REGIONAL</text>
<text text-anchor="start" x="432.444" y="-350" font-family="Helvetica,sans-Serif" font-size="10.00" fill="#000000">NACIONAL</text>
<text text-anchor="start" x="435.5035" y="-338" font-family="Helvetica,sans-Serif" font-size="10.00" fill="#000000">MUNDIAL</text>
</g>
<!-- A0&#45;&gt;A1 -->
<g id="edge3" class="edge">
<title>A0&#45;&gt;A1</title>
<path fill="none" stroke="#000000" d="M341.1799,-311.6943C367.8136,-327.5631 393.1507,-342.6595 413.338,-354.6875"/>
<polygon fill="#000000" stroke="#000000" points="421.9493,-359.8182 411.0552,-358.5655 417.654,-357.259 413.3586,-354.6997 413.3586,-354.6997 413.3586,-354.6997 417.654,-357.259 415.6619,-350.8338 421.9493,-359.8182 421.9493,-359.8182"/>
<text text-anchor="middle" x="402.0513" y="-354.8015" font-family="Helvetica,sans-Serif" font-size="10.00" fill="#000000">tipoTorneo1</text>
<text text-anchor="middle" x="361.0779" y="-310.711" font-family="Helvetica,sans-Serif" font-size="10.00" fill="#000000">*</text>
</g>
<!-- A4 -->
<g id="node5" class="node">
<title>A4</title>
<polygon fill="none" stroke="#000000" points="663.5475,-177 574.1505,-177 574.1505,-141 663.5475,-141 663.5475,-177"/>
<text text-anchor="middle" x="618.849" y="-162" font-family="Helvetica,sans-Serif" font-size="10.00" fill="#000000">&lt;&lt;interface&gt;&gt;</text>
<text text-anchor="middle" x="618.849" y="-150" font-family="Helvetica,sans-Serif" font-size="10.00" fill="#000000">Participante</text>
</g>
<!-- A0&#45;&gt;A4 -->
<g id="edge4" class="edge">
<title>A0&#45;&gt;A4</title>
<path fill="none" stroke="#000000" d="M352.7987,-114.9081C365.5133,-110.6058 378.3172,-106.8902 391,-104 448.6336,-90.8664 466.9175,-88.6471 524,-104 546.9054,-110.1607 569.9848,-123.355 587.6418,-135.2761"/>
<polygon fill="none" stroke="#000000" points="352.4694,-115.0242 348.1423,-120.7928 341.1532,-119.0172 345.4803,-113.2486 352.4694,-115.0242"/>
<polygon fill="#000000" stroke="#000000" points="595.8497,-140.9896 585.0714,-138.9697 591.746,-138.133 587.6423,-135.2764 587.6423,-135.2764 587.6423,-135.2764 591.746,-138.133 590.2133,-131.5831 595.8497,-140.9896 595.8497,-140.9896"/>
<text text-anchor="middle" x="576.144" y="-134.5711" font-family="Helvetica,sans-Serif" font-size="10.00" fill="#000000">participantes*</text>
<text text-anchor="middle" x="355.434" y="-102.0151" font-family="Helvetica,sans-Serif" font-size="10.00" fill="#000000">1</text>
</g>
<!-- A8 -->
<g id="node9" class="node">
<title>A8</title>
<polygon fill="none" stroke="#000000" points="412.5,-157 412.5,-201 502.5,-201 502.5,-157 412.5,-157"/>
<text text-anchor="start" x="432.764" y="-182" font-family="Helvetica,sans-Serif" font-size="10.00" fill="#000000">&lt;&lt;Enum&gt;&gt;</text>
<text text-anchor="start" x="422.4965" y="-170" font-family="Helvetica,sans-Serif" font-size="10.00" fill="#000000">CaracterTorneo</text>
<polygon fill="none" stroke="#000000" points="412.5,-113 412.5,-157 502.5,-157 502.5,-113 412.5,-113"/>
<text text-anchor="start" x="429.445" y="-138" font-family="Helvetica,sans-Serif" font-size="10.00" fill="#000000">INDIVIDUAL</text>
<text text-anchor="start" x="436.943" y="-126" font-family="Helvetica,sans-Serif" font-size="10.00" fill="#000000">GRUPAL</text>
</g>
<!-- A0&#45;&gt;A8 -->
<g id="edge2" class="edge">
<title>A0&#45;&gt;A8</title>
<path fill="none" stroke="#000000" d="M341.1799,-178.4807C363.2186,-174.4108 384.3697,-170.5049 402.4497,-167.1661"/>
<polygon fill="#000000" stroke="#000000" points="412.443,-165.3206 403.4265,-171.5619 407.5261,-166.2287 402.6093,-167.1367 402.6093,-167.1367 402.6093,-167.1367 407.5261,-166.2287 401.792,-162.7115 412.443,-165.3206 412.443,-165.3206"/>
<text text-anchor="middle" x="396.1532" y="-173.9241" font-family="Helvetica,sans-Serif" font-size="10.00" fill="#000000">caracter1</text>
<text text-anchor="middle" x="357.4697" y="-163.8772" font-family="Helvetica,sans-Serif" font-size="10.00" fill="#000000">*</text>
</g>
<!-- A11 -->
<g id="node12" class="node">
<title>A11</title>
<polygon fill="none" stroke="#000000" points="391.5,-275 391.5,-307 524.5,-307 524.5,-275 391.5,-275"/>
<text text-anchor="start" x="440.2185" y="-288" font-family="Helvetica,sans-Serif" font-size="10.00" fill="#000000">Reporte</text>
<polygon fill="none" stroke="#000000" points="391.5,-219 391.5,-275 524.5,-275 524.5,-219 391.5,-219"/>
<text text-anchor="start" x="430.4895" y="-256" font-family="Helvetica,sans-Serif" font-size="10.00" fill="#000000">fecha:Fecha</text>
<text text-anchor="start" x="401.042" y="-244" font-family="Helvetica,sans-Serif" font-size="10.00" fill="#000000">participanteA:Participante</text>
<text text-anchor="start" x="401.042" y="-232" font-family="Helvetica,sans-Serif" font-size="10.00" fill="#000000">participanteB:Participante</text>
</g>
<!-- A0&#45;&gt;A11 -->
<g id="edge1" class="edge">
<title>A0&#45;&gt;A11</title>
<path fill="none" stroke="#000000" stroke-dasharray="5,2" d="M341.1799,-241.5193C354.9523,-244.0626 368.3781,-246.542 380.9244,-248.8589"/>
<polygon fill="#000000" stroke="#000000" points="390.7875,-250.6803 380.1366,-253.2894 385.8707,-249.7722 380.9538,-248.8642 380.9538,-248.8642 380.9538,-248.8642 385.8707,-249.7722 381.771,-244.439 390.7875,-250.6803 390.7875,-250.6803"/>
</g>
<!-- A2 -->
<g id="node3" class="node">
<title>A2</title>
<polygon fill="none" stroke="#000000" points="1385.0463,-134 1271.9147,-134 1271.9147,-98 1385.0463,-98 1385.0463,-134"/>
<text text-anchor="middle" x="1328.4805" y="-119" font-family="Helvetica,sans-Serif" font-size="10.00" fill="#000000">&lt;&lt;interface&gt;&gt;</text>
<text text-anchor="middle" x="1328.4805" y="-107" font-family="Helvetica,sans-Serif" font-size="10.00" fill="#000000">RegistroEstadistica</text>
</g>
<!-- A3 -->
<g id="node4" class="node">
<title>A3</title>
<polygon fill="none" stroke="#000000" points="1435.763,-142 1435.763,-174 1626.763,-174 1626.763,-142 1435.763,-142"/>
<text text-anchor="start" x="1479.0375" y="-155" font-family="Helvetica,sans-Serif" font-size="10.00" fill="#000000">RegistroEstadisticaImpl</text>
<polygon fill="none" stroke="#000000" points="1435.763,-110 1435.763,-142 1626.763,-142 1626.763,-110 1435.763,-110"/>
<text text-anchor="start" x="1445.416" y="-123" font-family="Helvetica,sans-Serif" font-size="10.00" fill="#000000">estadisticas:ValorEstadistica［*］</text>
</g>
<!-- A2&#45;&gt;A3 -->
<g id="edge18" class="edge">
<title>A2&#45;&gt;A3</title>
<path fill="none" stroke="#000000" d="M1395.1491,-124.5691C1407.9299,-126.2119 1421.5449,-127.9619 1435.0312,-129.6953"/>
<polygon fill="none" stroke="#000000" points="1395.4611,-121.0805 1385.0964,-123.277 1394.5686,-128.0234 1395.4611,-121.0805"/>
</g>
<!-- A2&#45;&gt;A4 -->
<g id="edge17" class="edge">
<title>A2&#45;&gt;A4</title>
<path fill="none" stroke="#000000" d="M1261.712,-127.4609C1248.4609,-129.6773 1234.645,-131.9472 1221.698,-134 997.9449,-169.4769 939.356,-196.0627 713.698,-176 697.3678,-174.5481 679.6407,-171.7166 663.9793,-168.7744"/>
<polygon fill="none" stroke="#000000" points="1262.4294,-130.8895 1271.7113,-125.7809 1261.2695,-123.9862 1262.4294,-130.8895"/>
</g>
<!-- A3JA9 -->
<!-- A3&#45;&gt;A3JA9 -->
<g id="edge10" class="edge">
<title>A3&#45;&gt;A3JA9</title>
<path fill="none" stroke="#000000" d="M1626.4267,-142.9356C1676.3236,-143.4236 1728.3207,-143.9321 1734.6254,-143.9938"/>
<text text-anchor="middle" x="1644.6347" y="-131.6609" font-family="Helvetica,sans-Serif" font-size="10.00" fill="#000000">*</text>
</g>
<!-- A5 -->
<g id="node6" class="node">
<title>A5</title>
<polygon fill="none" stroke="#000000" points="774.198,-42 774.198,-74 855.198,-74 855.198,-42 774.198,-42"/>
<text text-anchor="start" x="799.136" y="-55" font-family="Helvetica,sans-Serif" font-size="10.00" fill="#000000">Equipo</text>
<polygon fill="none" stroke="#000000" points="774.198,-10 774.198,-42 855.198,-42 855.198,-10 774.198,-10"/>
<text text-anchor="start" x="783.8585" y="-23" font-family="Helvetica,sans-Serif" font-size="10.00" fill="#000000">nombre:Texto</text>
</g>
<!-- A4&#45;&gt;A5 -->
<g id="edge9" class="edge">
<title>A4&#45;&gt;A5</title>
<path fill="none" stroke="#000000" d="M657.5582,-135.816C691.0915,-115.7319 739.4432,-86.7727 773.5362,-66.3535"/>
<polygon fill="none" stroke="#000000" points="655.7248,-132.8343 648.9442,-140.9752 659.3216,-138.8396 655.7248,-132.8343"/>
</g>
<!-- A7 -->
<g id="node8" class="node">
<title>A7</title>
<polygon fill="none" stroke="#000000" points="1097.198,-93 1097.198,-125 1222.198,-125 1222.198,-93 1097.198,-93"/>
<text text-anchor="start" x="1141.636" y="-106" font-family="Helvetica,sans-Serif" font-size="10.00" fill="#000000">Jugador</text>
<polygon fill="none" stroke="#000000" points="1097.198,-61 1097.198,-93 1222.198,-93 1222.198,-61 1097.198,-61"/>
<text text-anchor="start" x="1107.187" y="-74" font-family="Helvetica,sans-Serif" font-size="10.00" fill="#000000">fechaNacimiento:Fecha</text>
</g>
<!-- A4&#45;&gt;A7 -->
<g id="edge8" class="edge">
<title>A4&#45;&gt;A7</title>
<path fill="none" stroke="#000000" d="M673.6711,-162.6269C755.8518,-166.7106 915.3593,-169.3779 1046.698,-140 1063.3267,-136.2805 1080.6216,-130.2528 1096.5194,-123.7364"/>
<polygon fill="none" stroke="#000000" points="673.7285,-159.1252 663.5592,-162.0975 673.3625,-166.1156 673.7285,-159.1252"/>
</g>
<!-- A5&#45;&gt;A2 -->
<g id="edge20" class="edge">
<title>A5&#45;&gt;A2</title>
<path fill="none" stroke="#000000" d="M854.9802,-30.2013C885.0211,-22.1464 927.0281,-12.2021 964.698,-8 1079.8678,4.8473 1114.6542,-7.6067 1221.698,-52 1247.5521,-62.7222 1274.5741,-78.9738 1294.9665,-92.4168"/>
<polygon fill="#000000" stroke="#000000" points="1303.2775,-97.9818 1292.4645,-96.1571 1299.1229,-95.1998 1294.9682,-92.4179 1294.9682,-92.4179 1294.9682,-92.4179 1299.1229,-95.1998 1297.472,-88.6787 1303.2775,-97.9818 1303.2775,-97.9818"/>
</g>
<!-- A6 -->
<g id="node7" class="node">
<title>A6</title>
<polygon fill="none" stroke="#000000" points="964.698,-99 964.698,-131 1046.698,-131 1046.698,-99 964.698,-99"/>
<text text-anchor="start" x="987.081" y="-112" font-family="Helvetica,sans-Serif" font-size="10.00" fill="#000000">Persona</text>
<polygon fill="none" stroke="#000000" points="964.698,-31 964.698,-99 1046.698,-99 1046.698,-31 964.698,-31"/>
<text text-anchor="start" x="974.8585" y="-80" font-family="Helvetica,sans-Serif" font-size="10.00" fill="#000000">nombre:Texto</text>
<text text-anchor="start" x="974.5795" y="-68" font-family="Helvetica,sans-Serif" font-size="10.00" fill="#000000">apellido:Texto</text>
<text text-anchor="start" x="979.863" y="-56" font-family="Helvetica,sans-Serif" font-size="10.00" fill="#000000">email:Texto</text>
<text text-anchor="start" x="977.0835" y="-44" font-family="Helvetica,sans-Serif" font-size="10.00" fill="#000000">celular:Texto</text>
</g>
<!-- A5&#45;&gt;A6 -->
<g id="edge5" class="edge">
<title>A5&#45;&gt;A6</title>
<path fill="none" stroke="#000000" d="M866.6401,-52.6801C893.9637,-58.2447 927.2485,-65.0233 954.4025,-70.5534"/>
<polygon fill="none" stroke="#000000" points="866.5689,-52.6657 859.8913,-55.3878 854.8102,-50.2709 861.4878,-47.5487 866.5689,-52.6657"/>
<polygon fill="#000000" stroke="#000000" points="964.4841,-72.6066 953.7872,-75.0204 959.5847,-71.6087 954.6853,-70.6109 954.6853,-70.6109 954.6853,-70.6109 959.5847,-71.6087 955.5833,-66.2014 964.4841,-72.6066 964.4841,-72.6066"/>
<text text-anchor="middle" x="945.0358" y="-74.2717" font-family="Helvetica,sans-Serif" font-size="10.00" fill="#000000">representante1</text>
<text text-anchor="middle" x="874.2585" y="-42.6058" font-family="Helvetica,sans-Serif" font-size="10.00" fill="#000000">1</text>
</g>
<!-- A5&#45;&gt;A7 -->
<g id="edge7" class="edge">
<title>A5&#45;&gt;A7</title>
<path fill="none" stroke="#000000" d="M866.8896,-26.7699C914.7192,-15.4387 986.7287,-4.6587 1046.698,-22 1069.9866,-28.7344 1093.0911,-41.8828 1112.247,-55.0533"/>
<polygon fill="none" stroke="#000000" points="866.6202,-26.8366 861.7586,-32.1625 854.9726,-29.7234 859.8341,-24.3974 866.6202,-26.8366"/>
<polygon fill="#000000" stroke="#000000" points="1120.4796,-60.881 1109.7176,-58.7762 1116.3986,-57.9921 1112.3176,-55.1033 1112.3176,-55.1033 1112.3176,-55.1033 1116.3986,-57.9921 1114.9176,-51.4304 1120.4796,-60.881 1120.4796,-60.881"/>
<text text-anchor="middle" x="1100.8015" y="-54.307" font-family="Helvetica,sans-Serif" font-size="10.00" fill="#000000">jugador*</text>
<text text-anchor="middle" x="870.5332" y="-14.1588" font-family="Helvetica,sans-Serif" font-size="10.00" fill="#000000">1</text>
</g>
<!-- A6&#45;&gt;A7 -->
<g id="edge6" class="edge">
<title>A6&#45;&gt;A7</title>
<path fill="none" stroke="#000000" d="M1057.1692,-85.0238C1069.8039,-86.0115 1083.4674,-87.0797 1096.563,-88.1035"/>
<polygon fill="none" stroke="#000000" points="1057.0756,-81.5059 1046.8332,-84.2158 1056.53,-88.4846 1057.0756,-81.5059"/>
</g>
<!-- A7&#45;&gt;A2 -->
<g id="edge19" class="edge">
<title>A7&#45;&gt;A2</title>
<path fill="none" stroke="#000000" d="M1221.7516,-101.499C1234.8108,-103.2733 1248.6243,-105.1501 1261.8257,-106.9438"/>
<polygon fill="#000000" stroke="#000000" points="1271.779,-108.2961 1261.2642,-111.4087 1266.8245,-107.6229 1261.8701,-106.9497 1261.8701,-106.9497 1261.8701,-106.9497 1266.8245,-107.6229 1262.4759,-102.4907 1271.779,-108.2961 1271.779,-108.2961"/>
</g>
<!-- A9 -->
<g id="node10" class="node">
<title>A9</title>
<polygon fill="none" stroke="#000000" points="1844.763,-144 1844.763,-176 1925.763,-176 1925.763,-144 1844.763,-144"/>
<text text-anchor="start" x="1861.092" y="-157" font-family="Helvetica,sans-Serif" font-size="10.00" fill="#000000">Estadistica</text>
<polygon fill="none" stroke="#000000" points="1844.763,-112 1844.763,-144 1925.763,-144 1925.763,-112 1844.763,-112"/>
<text text-anchor="start" x="1854.4235" y="-125" font-family="Helvetica,sans-Serif" font-size="10.00" fill="#000000">nombre:Texto</text>
</g>
<!-- A13 -->
<g id="node14" class="node">
<title>A13</title>
<polygon fill="none" stroke="#000000" points="1975.763,-150 1975.763,-194 2062.763,-194 2062.763,-150 1975.763,-150"/>
<text text-anchor="start" x="1994.527" y="-175" font-family="Helvetica,sans-Serif" font-size="10.00" fill="#000000">&lt;&lt;Enum&gt;&gt;</text>
<text text-anchor="start" x="1985.369" y="-163" font-family="Helvetica,sans-Serif" font-size="10.00" fill="#000000">TipoEstadistica</text>
<polygon fill="none" stroke="#000000" points="1975.763,-94 1975.763,-150 2062.763,-150 2062.763,-94 1975.763,-94"/>
<text text-anchor="start" x="1996.202" y="-131" font-family="Helvetica,sans-Serif" font-size="10.00" fill="#000000">POSITIVA</text>
<text text-anchor="start" x="1993.982" y="-119" font-family="Helvetica,sans-Serif" font-size="10.00" fill="#000000">NEGATIVA</text>
<text text-anchor="start" x="1998.711" y="-107" font-family="Helvetica,sans-Serif" font-size="10.00" fill="#000000">NEUTRA</text>
</g>
<!-- A9&#45;&gt;A13 -->
<g id="edge13" class="edge">
<title>A9&#45;&gt;A13</title>
<path fill="none" stroke="#000000" d="M1925.3311,-144C1937.7306,-144 1951.5685,-144 1964.7148,-144"/>
<polygon fill="#000000" stroke="#000000" points="1975.0689,-144 1965.069,-148.5001 1970.0689,-144 1965.0689,-144.0001 1965.0689,-144.0001 1965.0689,-144.0001 1970.0689,-144 1965.0689,-139.5001 1975.0689,-144 1975.0689,-144"/>
<text text-anchor="middle" x="1956.9428" y="-149.4524" font-family="Helvetica,sans-Serif" font-size="10.00" fill="#000000">tipo1</text>
<text text-anchor="middle" x="1943.4572" y="-132.5476" font-family="Helvetica,sans-Serif" font-size="10.00" fill="#000000">*</text>
</g>
<!-- A10 -->
<g id="node11" class="node">
<title>A10</title>
<polygon fill="none" stroke="#000000" points="1676.263,-207 1676.263,-239 1794.263,-239 1794.263,-207 1676.263,-207"/>
<text text-anchor="start" x="1699.4245" y="-220" font-family="Helvetica,sans-Serif" font-size="10.00" fill="#000000">ValorEstadistica</text>
<polygon fill="none" stroke="#000000" points="1676.263,-163 1676.263,-207 1794.263,-207 1794.263,-163 1676.263,-163"/>
<text text-anchor="start" x="1712.7625" y="-188" font-family="Helvetica,sans-Serif" font-size="10.00" fill="#000000">valor:Real</text>
<text text-anchor="start" x="1686.0865" y="-176" font-family="Helvetica,sans-Serif" font-size="10.00" fill="#000000">estadistica:Estadistica</text>
</g>
<!-- A10&#45;&gt;A3JA9 -->
<g id="edge12" class="edge">
<title>A10&#45;&gt;A3JA9</title>
<path fill="none" stroke="#000000" stroke-dasharray="5,2" d="M1735.263,-162.5605C1735.263,-159.9187 1735.263,-157.2769 1735.263,-154.6351"/>
<polygon fill="#000000" stroke="#000000" points="1735.263,-144.4453 1739.7631,-154.4453 1735.263,-149.4453 1735.2631,-154.4453 1735.2631,-154.4453 1735.2631,-154.4453 1735.263,-149.4453 1730.7631,-154.4454 1735.263,-144.4453 1735.263,-144.4453"/>
</g>
<!-- A11&#45;&gt;A4 -->
<g id="edge16" class="edge">
<title>A11&#45;&gt;A4</title>
<path fill="none" stroke="#000000" d="M534.2226,-213.5473C550.9156,-202.7876 567.8347,-191.8821 582.112,-182.6794"/>
<polygon fill="none" stroke="#000000" points="534.1447,-213.5975 531.2686,-220.2102 524.0584,-220.0988 526.9344,-213.486 534.1447,-213.5975"/>
<polygon fill="#000000" stroke="#000000" points="590.6346,-177.186 584.6673,-186.3862 586.4319,-179.8949 582.2293,-182.6038 582.2293,-182.6038 582.2293,-182.6038 586.4319,-179.8949 579.7913,-178.8215 590.6346,-177.186 590.6346,-177.186"/>
<text text-anchor="middle" x="579.9784" y="-191.1107" font-family="Helvetica,sans-Serif" font-size="10.00" fill="#000000">2</text>
<text text-anchor="middle" x="534.7146" y="-200.1741" font-family="Helvetica,sans-Serif" font-size="10.00" fill="#000000">*</text>
</g>
<!-- A12 -->
<g id="node13" class="node">
<title>A12</title>
<polygon fill="none" stroke="#000000" points="714.198,-269 714.198,-301 915.198,-301 915.198,-269 714.198,-269"/>
<text text-anchor="start" x="778.305" y="-282" font-family="Helvetica,sans-Serif" font-size="10.00" fill="#000000">RegistroReporte</text>
<polygon fill="none" stroke="#000000" points="714.198,-225 714.198,-269 915.198,-269 915.198,-225 714.198,-225"/>
<text text-anchor="start" x="724.125" y="-250" font-family="Helvetica,sans-Serif" font-size="10.00" fill="#000000">estadisticaParticipanteA:ValorEstadistica</text>
<text text-anchor="start" x="724.125" y="-238" font-family="Helvetica,sans-Serif" font-size="10.00" fill="#000000">estadisticaParticipanteB:ValorEstadistica</text>
</g>
<!-- A11&#45;&gt;A12 -->
<g id="edge14" class="edge">
<title>A11&#45;&gt;A12</title>
<path fill="none" stroke="#000000" d="M536.3785,-263C585.3673,-263 649.0768,-263 703.1266,-263"/>
<polygon fill="none" stroke="#000000" points="536.1737,-263.0001 530.1737,-267 524.1737,-263 530.1738,-259 536.1737,-263.0001"/>
<polygon fill="#000000" stroke="#000000" points="713.4501,-263 703.4502,-267.5001 708.4501,-263 703.4501,-263.0001 703.4501,-263.0001 703.4501,-263.0001 708.4501,-263 703.4501,-258.5001 713.4501,-263 713.4501,-263"/>
<text text-anchor="middle" x="695.324" y="-268.4524" font-family="Helvetica,sans-Serif" font-size="10.00" fill="#000000">registros*</text>
<text text-anchor="middle" x="542.2999" y="-251.5476" font-family="Helvetica,sans-Serif" font-size="10.00" fill="#000000">1</text>
</g>
<!-- A12&#45;&gt;A10 -->
<g id="edge15" class="edge">
<title>A12&#45;&gt;A10</title>
<path fill="none" stroke="#000000" d="M927.257,-256.0991C994.5894,-252.5664 1081.7441,-249 1159.198,-249 1159.198,-249 1159.198,-249 1328.4805,-249 1447.8221,-249 1585.5097,-228.3718 1666.2022,-214.1613"/>
<polygon fill="none" stroke="#000000" points="926.9049,-256.1178 921.1267,-260.4319 914.922,-256.7575 920.7002,-252.4433 926.9049,-256.1178"/>
<polygon fill="#000000" stroke="#000000" points="1676.2371,-212.3753 1667.1804,-218.558 1671.3145,-213.2515 1666.3919,-214.1277 1666.3919,-214.1277 1666.3919,-214.1277 1671.3145,-213.2515 1665.6033,-209.6973 1676.2371,-212.3753 1676.2371,-212.3753"/>
<text text-anchor="middle" x="1659.8725" y="-220.8731" font-family="Helvetica,sans-Serif" font-size="10.00" fill="#000000">2</text>
<text text-anchor="middle" x="932.5719" y="-244.351" font-family="Helvetica,sans-Serif" font-size="10.00" fill="#000000">*</text>
</g>
<!-- A3JA9&#45;&gt;A9 -->
<g id="edge11" class="edge">
<title>A3JA9&#45;&gt;A9</title>
<path fill="none" stroke="#000000" d="M1735.6919,-144C1740.9179,-144 1792.8633,-144 1833.9843,-144"/>
<polygon fill="#000000" stroke="#000000" points="1844.1706,-144 1834.1706,-148.5001 1839.1706,-144 1834.1706,-144.0001 1834.1706,-144.0001 1834.1706,-144.0001 1839.1706,-144 1834.1706,-139.5001 1844.1706,-144 1844.1706,-144"/>
<text text-anchor="middle" x="1826.0444" y="-149.4524" font-family="Helvetica,sans-Serif" font-size="10.00" fill="#000000">*</text>
</g>
</g>
</svg>
