<?xml version="1.0" encoding="UTF-8" standalone="no"?>
<!DOCTYPE svg PUBLIC "-//W3C//DTD SVG 1.1//EN"
 "http://www.w3.org/Graphics/SVG/1.1/DTD/svg11.dtd">
<!-- Generated by graphviz version 2.40.1 (20161225.0304)
 -->
<!-- Title: G Pages: 1 -->
<svg width="1374pt" height="440pt"
 viewBox="0.00 0.00 1374.00 440.00" xmlns="http://www.w3.org/2000/svg" xmlns:xlink="http://www.w3.org/1999/xlink">
<g id="graph0" class="graph" transform="scale(1 1) rotate(0) translate(4 436)">
<title>G</title>
<polygon fill="#ffffff" stroke="transparent" points="-4,4 -4,-436 1370,-436 1370,4 -4,4"/>
<!-- A0 -->
<g id="node1" class="node">
<title>A0</title>
<polygon fill="none" stroke="#000000" points=".5,-400 .5,-432 341.5,-432 341.5,-400 .5,-400"/>
<text text-anchor="start" x="155.163" y="-413" font-family="Helvetica,sans-Serif" font-size="10.00" fill="#000000">Torneo</text>
<polygon fill="none" stroke="#000000" points=".5,-296 .5,-400 341.5,-400 341.5,-296 .5,-296"/>
<text text-anchor="start" x="140.1605" y="-381" font-family="Helvetica,sans-Serif" font-size="10.00" fill="#000000">nombre:Texto</text>
<text text-anchor="start" x="131.822" y="-369" font-family="Helvetica,sans-Serif" font-size="10.00" fill="#000000">fechaInicio:Fecha</text>
<text text-anchor="start" x="102.6515" y="-357" font-family="Helvetica,sans-Serif" font-size="10.00" fill="#000000">fechaInicioInscripciones:Fecha</text>
<text text-anchor="start" x="100.712" y="-345" font-family="Helvetica,sans-Serif" font-size="10.00" fill="#000000">fechaCierreInscripciones:Fecha</text>
<text text-anchor="start" x="109.042" y="-333" font-family="Helvetica,sans-Serif" font-size="10.00" fill="#000000">numeroParticipantes:Entero</text>
<text text-anchor="start" x="131.5485" y="-321" font-family="Helvetica,sans-Serif" font-size="10.00" fill="#000000">limiteEdad:Entero</text>
<text text-anchor="start" x="120.1595" y="-309" font-family="Helvetica,sans-Serif" font-size="10.00" fill="#000000">valorInscripcion:Entero</text>
<polygon fill="none" stroke="#000000" points=".5,0 .5,-296 341.5,-296 341.5,0 .5,0"/>
<text text-anchor="start" x="109.741" y="-277" font-family="Helvetica,sans-Serif" font-size="10.00" fill="#000000">+Constructor(nombre:Texto</text>
<text text-anchor="start" x="131.822" y="-265" font-family="Helvetica,sans-Serif" font-size="10.00" fill="#000000">fechaInicio:Fecha</text>
<text text-anchor="start" x="102.6515" y="-253" font-family="Helvetica,sans-Serif" font-size="10.00" fill="#000000">fechaInicioInscripciones:Fecha</text>
<text text-anchor="start" x="100.712" y="-241" font-family="Helvetica,sans-Serif" font-size="10.00" fill="#000000">fechaCierreInscripciones:Fecha</text>
<text text-anchor="start" x="109.042" y="-229" font-family="Helvetica,sans-Serif" font-size="10.00" fill="#000000">numeroParticipantes:Entero</text>
<text text-anchor="start" x="131.5485" y="-217" font-family="Helvetica,sans-Serif" font-size="10.00" fill="#000000">limiteEdad:Entero</text>
<text text-anchor="start" x="120.1595" y="-205" font-family="Helvetica,sans-Serif" font-size="10.00" fill="#000000">valorInscripcion:Entero</text>
<text text-anchor="start" x="120.1555" y="-193" font-family="Helvetica,sans-Serif" font-size="10.00" fill="#000000">tipoTorneo:TipoTorneo</text>
<text text-anchor="start" x="10.288" y="-181" font-family="Helvetica,sans-Serif" font-size="10.00" fill="#000000">caracter:CaracterTorneo)+registrarParticipante(participante:Participante)</text>
<text text-anchor="start" x="126.1335" y="-169" font-family="Helvetica,sans-Serif" font-size="10.00" fill="#000000">+getNombre():Texto</text>
<text text-anchor="start" x="116.96" y="-157" font-family="Helvetica,sans-Serif" font-size="10.00" fill="#000000">+getFechaInicio():Fecha</text>
<text text-anchor="start" x="87.7895" y="-145" font-family="Helvetica,sans-Serif" font-size="10.00" fill="#000000">+getFechaInicioInscripciones():Fecha</text>
<text text-anchor="start" x="85.85" y="-133" font-family="Helvetica,sans-Serif" font-size="10.00" fill="#000000">+getFechaCierreInscripciones():Fecha</text>
<text text-anchor="start" x="95.015" y="-121" font-family="Helvetica,sans-Serif" font-size="10.00" fill="#000000">+getNumeroParticipantes():Entero</text>
<text text-anchor="start" x="116.6815" y="-109" font-family="Helvetica,sans-Serif" font-size="10.00" fill="#000000">+getLimiteEdad():Entero</text>
<text text-anchor="start" x="106.128" y="-97" font-family="Helvetica,sans-Serif" font-size="10.00" fill="#000000">+getValorInscripcion():Entero</text>
<text text-anchor="start" x="105.2935" y="-85" font-family="Helvetica,sans-Serif" font-size="10.00" fill="#000000">+getTipoTorneo():TipoTorneo</text>
<text text-anchor="start" x="78.6215" y="-73" font-family="Helvetica,sans-Serif" font-size="10.00" fill="#000000">+getParticipantes():Participante［*］</text>
<text text-anchor="start" x="102.2435" y="-61" font-family="Helvetica,sans-Serif" font-size="10.00" fill="#000000">+getCaracter():CaracterTorneo</text>
<text text-anchor="start" x="93.344" y="-49" font-family="Helvetica,sans-Serif" font-size="10.00" fill="#000000">+setFechaInicio(fechaInicio:Fecha)</text>
<text text-anchor="start" x="35.003" y="-37" font-family="Helvetica,sans-Serif" font-size="10.00" fill="#000000">+setFechaInicioInscripciones(fechaInicioInscripciones:Fecha)</text>
<text text-anchor="start" x="31.124" y="-25" font-family="Helvetica,sans-Serif" font-size="10.00" fill="#000000">+setFechaCierreInscripciones(fechaCierreInscripciones:Fecha)</text>
<text text-anchor="start" x="67.65" y="-13" font-family="Helvetica,sans-Serif" font-size="10.00" fill="#000000">buscarParticipante(nombre:Texto):Participante</text>
</g>
<!-- A1 -->
<g id="node2" class="node">
<title>A1</title>
<polygon fill="none" stroke="#000000" points="422.5,-348 422.5,-392 493.5,-392 493.5,-348 422.5,-348"/>
<text text-anchor="start" x="433.264" y="-373" font-family="Helvetica,sans-Serif" font-size="10.00" fill="#000000">&lt;&lt;Enum&gt;&gt;</text>
<text text-anchor="start" x="432.44" y="-361" font-family="Helvetica,sans-Serif" font-size="10.00" fill="#000000">TipoTorneo</text>
<polygon fill="none" stroke="#000000" points="422.5,-280 422.5,-348 493.5,-348 493.5,-280 422.5,-280"/>
<text text-anchor="start" x="441.6075" y="-329" font-family="Helvetica,sans-Serif" font-size="10.00" fill="#000000">LOCAL</text>
<text text-anchor="start" x="432.164" y="-317" font-family="Helvetica,sans-Serif" font-size="10.00" fill="#000000">REGIONAL</text>
<text text-anchor="start" x="432.444" y="-305" font-family="Helvetica,sans-Serif" font-size="10.00" fill="#000000">NACIONAL</text>
<text text-anchor="start" x="435.5035" y="-293" font-family="Helvetica,sans-Serif" font-size="10.00" fill="#000000">MUNDIAL</text>
</g>
<!-- A0&#45;&gt;A1 -->
<g id="edge3" class="edge">
<title>A0&#45;&gt;A1</title>
<path fill="none" stroke="#000000" d="M341.1799,-287.3644C367.4553,-298.3506 392.4687,-308.8092 412.5205,-317.1932"/>
<polygon fill="#000000" stroke="#000000" points="421.9493,-321.1356 410.9874,-321.4297 417.3363,-319.2068 412.7233,-317.278 412.7233,-317.278 412.7233,-317.278 417.3363,-319.2068 414.4593,-313.1263 421.9493,-321.1356 421.9493,-321.1356"/>
<text text-anchor="middle" x="401.9656" y="-318.9415" font-family="Helvetica,sans-Serif" font-size="10.00" fill="#000000">tipoTorneo1</text>
<text text-anchor="middle" x="361.1636" y="-283.5585" font-family="Helvetica,sans-Serif" font-size="10.00" fill="#000000">*</text>
</g>
<!-- A2 -->
<g id="node3" class="node">
<title>A2</title>
<polygon fill="none" stroke="#000000" points="574.5,-274 574.5,-318 807.5,-318 807.5,-274 574.5,-274"/>
<text text-anchor="start" x="661.54" y="-299" font-family="Helvetica,sans-Serif" font-size="10.00" fill="#000000">&lt;&lt;abstract&gt;&gt;</text>
<text text-anchor="start" x="664.6055" y="-287" font-family="Helvetica,sans-Serif" font-size="10.00" fill="#000000">Participante</text>
<polygon fill="none" stroke="#000000" points="574.5,-242 574.5,-274 807.5,-274 807.5,-242 574.5,-242"/>
<text text-anchor="start" x="598.209" y="-255" font-family="Helvetica,sans-Serif" font-size="10.00" fill="#000000">estadisticas:RegistroEstadistica［*］</text>
<polygon fill="none" stroke="#000000" points="574.5,-186 574.5,-242 807.5,-242 807.5,-186 574.5,-186"/>
<text text-anchor="start" x="658.916" y="-223" font-family="Helvetica,sans-Serif" font-size="10.00" fill="#000000">+Constructor()</text>
<text text-anchor="start" x="584.457" y="-211" font-family="Helvetica,sans-Serif" font-size="10.00" fill="#000000">+getEstadisticas():RegistroEstadistica［*］</text>
<text text-anchor="start" x="595.2825" y="-199" font-family="Helvetica,sans-Serif" font-size="10.00" fill="#000000">+&lt;&lt;abstract&gt;&gt;getNombreCompleto():Texto</text>
</g>
<!-- A0&#45;&gt;A2 -->
<g id="edge4" class="edge">
<title>A0&#45;&gt;A2</title>
<path fill="none" stroke="#000000" d="M353.3536,-230.29C366.0926,-231.2263 378.7371,-232.1383 391,-233 447.6383,-236.9797 510.3288,-241.0142 563.6553,-244.3356"/>
<polygon fill="none" stroke="#000000" points="353.0877,-230.2704 346.8092,-233.8171 341.1204,-229.3856 347.399,-225.8389 353.0877,-230.2704"/>
<polygon fill="#000000" stroke="#000000" points="573.845,-244.9687 563.5852,-248.8399 568.8546,-244.6586 563.8643,-244.3485 563.8643,-244.3485 563.8643,-244.3485 568.8546,-244.6586 564.1434,-239.8572 573.845,-244.9687 573.845,-244.9687"/>
<text text-anchor="middle" x="555.2296" y="-249.2808" font-family="Helvetica,sans-Serif" font-size="10.00" fill="#000000">participantes*</text>
<text text-anchor="middle" x="359.8204" y="-219.2926" font-family="Helvetica,sans-Serif" font-size="10.00" fill="#000000">1</text>
</g>
<!-- A6 -->
<g id="node7" class="node">
<title>A6</title>
<polygon fill="none" stroke="#000000" points="412.5,-74 412.5,-118 502.5,-118 502.5,-74 412.5,-74"/>
<text text-anchor="start" x="432.764" y="-99" font-family="Helvetica,sans-Serif" font-size="10.00" fill="#000000">&lt;&lt;Enum&gt;&gt;</text>
<text text-anchor="start" x="422.4965" y="-87" font-family="Helvetica,sans-Serif" font-size="10.00" fill="#000000">CaracterTorneo</text>
<polygon fill="none" stroke="#000000" points="412.5,-30 412.5,-74 502.5,-74 502.5,-30 412.5,-30"/>
<text text-anchor="start" x="429.445" y="-55" font-family="Helvetica,sans-Serif" font-size="10.00" fill="#000000">INDIVIDUAL</text>
<text text-anchor="start" x="436.943" y="-43" font-family="Helvetica,sans-Serif" font-size="10.00" fill="#000000">GRUPAL</text>
</g>
<!-- A0&#45;&gt;A6 -->
<g id="edge2" class="edge">
<title>A0&#45;&gt;A6</title>
<path fill="none" stroke="#000000" d="M341.1799,-131.5521C363.6287,-120.445 385.1564,-109.7937 403.4556,-100.7397"/>
<polygon fill="#000000" stroke="#000000" points="412.443,-96.293 405.4756,-104.761 407.9615,-98.5104 403.48,-100.7277 403.48,-100.7277 403.48,-100.7277 407.9615,-98.5104 401.4844,-96.6944 412.443,-96.293 412.443,-96.293"/>
<text text-anchor="middle" x="399.9449" y="-108.9071" font-family="Helvetica,sans-Serif" font-size="10.00" fill="#000000">caracter1</text>
<text text-anchor="middle" x="353.6779" y="-112.9381" font-family="Helvetica,sans-Serif" font-size="10.00" fill="#000000">*</text>
</g>
<!-- A9 -->
<g id="node10" class="node">
<title>A9</title>
<polygon fill="none" stroke="#000000" points="391.5,-192 391.5,-224 524.5,-224 524.5,-192 391.5,-192"/>
<text text-anchor="start" x="440.2185" y="-205" font-family="Helvetica,sans-Serif" font-size="10.00" fill="#000000">Reporte</text>
<polygon fill="none" stroke="#000000" points="391.5,-136 391.5,-192 524.5,-192 524.5,-136 391.5,-136"/>
<text text-anchor="start" x="430.4895" y="-173" font-family="Helvetica,sans-Serif" font-size="10.00" fill="#000000">fecha:Fecha</text>
<text text-anchor="start" x="401.042" y="-161" font-family="Helvetica,sans-Serif" font-size="10.00" fill="#000000">participanteA:Participante</text>
<text text-anchor="start" x="401.042" y="-149" font-family="Helvetica,sans-Serif" font-size="10.00" fill="#000000">participanteB:Participante</text>
</g>
<!-- A0&#45;&gt;A9 -->
<g id="edge1" class="edge">
<title>A0&#45;&gt;A9</title>
<path fill="none" stroke="#000000" stroke-dasharray="5,2" d="M341.1799,-194.5907C354.816,-192.8802 368.1122,-191.2124 380.5515,-189.6521"/>
<polygon fill="#000000" stroke="#000000" points="390.7875,-188.3681 381.4254,-194.0778 385.8264,-188.9905 380.8653,-189.6128 380.8653,-189.6128 380.8653,-189.6128 385.8264,-188.9905 380.3052,-185.1478 390.7875,-188.3681 390.7875,-188.3681"/>
</g>
<!-- A3 -->
<g id="node4" class="node">
<title>A3</title>
<polygon fill="none" stroke="#000000" points="857,-274 857,-306 999,-306 999,-274 857,-274"/>
<text text-anchor="start" x="912.438" y="-287" font-family="Helvetica,sans-Serif" font-size="10.00" fill="#000000">Equipo</text>
<polygon fill="none" stroke="#000000" points="857,-242 857,-274 999,-274 999,-242 857,-242"/>
<text text-anchor="start" x="897.1605" y="-255" font-family="Helvetica,sans-Serif" font-size="10.00" fill="#000000">nombre:Texto</text>
<polygon fill="none" stroke="#000000" points="857,-198 857,-242 999,-242 999,-198 857,-198"/>
<text text-anchor="start" x="866.741" y="-223" font-family="Helvetica,sans-Serif" font-size="10.00" fill="#000000">+Constructor(nombre:Texto</text>
<text text-anchor="start" x="875.485" y="-211" font-family="Helvetica,sans-Serif" font-size="10.00" fill="#000000">representante:Persona)</text>
</g>
<!-- A2&#45;&gt;A3 -->
<g id="edge9" class="edge">
<title>A2&#45;&gt;A3</title>
<path fill="none" stroke="#000000" d="M817.5235,-252C831.0508,-252 844.4343,-252 856.9671,-252"/>
<polygon fill="none" stroke="#000000" points="817.1627,-248.5001 807.1627,-252 817.1627,-255.5001 817.1627,-248.5001"/>
</g>
<!-- A5 -->
<g id="node6" class="node">
<title>A5</title>
<polygon fill="none" stroke="#000000" points="1241.5,-252 1241.5,-284 1366.5,-284 1366.5,-252 1241.5,-252"/>
<text text-anchor="start" x="1285.938" y="-265" font-family="Helvetica,sans-Serif" font-size="10.00" fill="#000000">Jugador</text>
<polygon fill="none" stroke="#000000" points="1241.5,-220 1241.5,-252 1366.5,-252 1366.5,-220 1241.5,-220"/>
<text text-anchor="start" x="1251.489" y="-233" font-family="Helvetica,sans-Serif" font-size="10.00" fill="#000000">fechaNacimiento:Fecha</text>
</g>
<!-- A2&#45;&gt;A5 -->
<g id="edge8" class="edge">
<title>A2&#45;&gt;A5</title>
<path fill="none" stroke="#000000" d="M816.5973,-311.234C919.6208,-351.218 1067.8184,-389.3231 1191,-345 1224.6204,-332.9027 1255.3338,-305.9189 1276.1434,-284.1168"/>
<polygon fill="none" stroke="#000000" points="817.6698,-307.8948 807.0828,-307.4863 815.1043,-314.4077 817.6698,-307.8948"/>
</g>
<!-- A2JA7 -->
<!-- A2&#45;&gt;A2JA7 -->
<g id="edge10" class="edge">
<title>A2&#45;&gt;A2JA7</title>
<path fill="none" stroke="#000000" d="M797.9078,-185.9654C801.0648,-183.0479 804.1068,-180.0577 807,-177 837.9166,-144.3248 819.6238,-114.0305 857,-89 881.7771,-72.4069 922.4995,-79.0157 927.493,-79.9066"/>
<text text-anchor="middle" x="805.4263" y="-164.4324" font-family="Helvetica,sans-Serif" font-size="10.00" fill="#000000">*</text>
</g>
<!-- A4 -->
<g id="node5" class="node">
<title>A4</title>
<polygon fill="none" stroke="#000000" points="1049,-304 1049,-336 1191,-336 1191,-304 1049,-304"/>
<text text-anchor="start" x="1101.383" y="-317" font-family="Helvetica,sans-Serif" font-size="10.00" fill="#000000">Persona</text>
<polygon fill="none" stroke="#000000" points="1049,-236 1049,-304 1191,-304 1191,-236 1049,-236"/>
<text text-anchor="start" x="1089.1605" y="-285" font-family="Helvetica,sans-Serif" font-size="10.00" fill="#000000">nombre:Texto</text>
<text text-anchor="start" x="1088.8815" y="-273" font-family="Helvetica,sans-Serif" font-size="10.00" fill="#000000">apellido:Texto</text>
<text text-anchor="start" x="1094.165" y="-261" font-family="Helvetica,sans-Serif" font-size="10.00" fill="#000000">email:Texto</text>
<text text-anchor="start" x="1091.3855" y="-249" font-family="Helvetica,sans-Serif" font-size="10.00" fill="#000000">celular:Texto</text>
<polygon fill="none" stroke="#000000" points="1049,-168 1049,-236 1191,-236 1191,-168 1049,-168"/>
<text text-anchor="start" x="1058.741" y="-217" font-family="Helvetica,sans-Serif" font-size="10.00" fill="#000000">+Constructor(nombre:Texto</text>
<text text-anchor="start" x="1088.8815" y="-205" font-family="Helvetica,sans-Serif" font-size="10.00" fill="#000000">apellido:Texto</text>
<text text-anchor="start" x="1094.165" y="-193" font-family="Helvetica,sans-Serif" font-size="10.00" fill="#000000">email:Texto</text>
<text text-anchor="start" x="1089.721" y="-181" font-family="Helvetica,sans-Serif" font-size="10.00" fill="#000000">celular:Texto)</text>
</g>
<!-- A3&#45;&gt;A4 -->
<g id="edge5" class="edge">
<title>A3&#45;&gt;A4</title>
<path fill="none" stroke="#000000" d="M1011.5453,-252C1020.5917,-252 1029.7882,-252 1038.8061,-252"/>
<polygon fill="none" stroke="#000000" points="1011.2209,-252.0001 1005.2208,-256 999.2209,-252 1005.2209,-248 1011.2209,-252.0001"/>
<polygon fill="#000000" stroke="#000000" points="1048.8942,-252 1038.8942,-256.5001 1043.8942,-252 1038.8942,-252.0001 1038.8942,-252.0001 1038.8942,-252.0001 1043.8942,-252 1038.8941,-247.5001 1048.8942,-252 1048.8942,-252"/>
<text text-anchor="middle" x="1030.768" y="-257.4524" font-family="Helvetica,sans-Serif" font-size="10.00" fill="#000000">representante1</text>
<text text-anchor="middle" x="1017.347" y="-240.5476" font-family="Helvetica,sans-Serif" font-size="10.00" fill="#000000">1</text>
</g>
<!-- A3&#45;&gt;A5 -->
<g id="edge7" class="edge">
<title>A3&#45;&gt;A5</title>
<path fill="none" stroke="#000000" d="M992.5876,-190.1616C1009.6709,-177.4123 1028.9738,-165.8069 1049,-159 1108.7537,-138.6898 1131.6161,-137.6325 1191,-159 1220.9432,-169.7741 1248.5805,-192.3565 1268.969,-212.5697"/>
<polygon fill="none" stroke="#000000" points="992.271,-190.4077 989.989,-197.2482 982.797,-197.7727 985.079,-190.9322 992.271,-190.4077"/>
<polygon fill="#000000" stroke="#000000" points="1276.1434,-219.8832 1265.9281,-215.8959 1272.642,-216.3139 1269.1405,-212.7446 1269.1405,-212.7446 1269.1405,-212.7446 1272.642,-216.3139 1272.3529,-209.5933 1276.1434,-219.8832 1276.1434,-219.8832"/>
<text text-anchor="middle" x="1257.4161" y="-209.8627" font-family="Helvetica,sans-Serif" font-size="10.00" fill="#000000">jugador*</text>
<text text-anchor="middle" x="991.9199" y="-176.9746" font-family="Helvetica,sans-Serif" font-size="10.00" fill="#000000">1</text>
</g>
<!-- A4&#45;&gt;A5 -->
<g id="edge6" class="edge">
<title>A4&#45;&gt;A5</title>
<path fill="none" stroke="#000000" d="M1201.3108,-252C1214.6219,-252 1228.23,-252 1240.9946,-252"/>
<polygon fill="none" stroke="#000000" points="1201.2086,-248.5001 1191.2085,-252 1201.2085,-255.5001 1201.2086,-248.5001"/>
</g>
<!-- A7 -->
<g id="node8" class="node">
<title>A7</title>
<polygon fill="none" stroke="#000000" points="1080,-80 1080,-112 1161,-112 1161,-80 1080,-80"/>
<text text-anchor="start" x="1096.329" y="-93" font-family="Helvetica,sans-Serif" font-size="10.00" fill="#000000">Estadistica</text>
<polygon fill="none" stroke="#000000" points="1080,-48 1080,-80 1161,-80 1161,-48 1080,-48"/>
<text text-anchor="start" x="1089.6605" y="-61" font-family="Helvetica,sans-Serif" font-size="10.00" fill="#000000">nombre:Texto</text>
</g>
<!-- A11 -->
<g id="node12" class="node">
<title>A11</title>
<polygon fill="none" stroke="#000000" points="1260.5,-86 1260.5,-130 1347.5,-130 1347.5,-86 1260.5,-86"/>
<text text-anchor="start" x="1279.264" y="-111" font-family="Helvetica,sans-Serif" font-size="10.00" fill="#000000">&lt;&lt;Enum&gt;&gt;</text>
<text text-anchor="start" x="1270.106" y="-99" font-family="Helvetica,sans-Serif" font-size="10.00" fill="#000000">TipoEstadistica</text>
<polygon fill="none" stroke="#000000" points="1260.5,-30 1260.5,-86 1347.5,-86 1347.5,-30 1260.5,-30"/>
<text text-anchor="start" x="1280.939" y="-67" font-family="Helvetica,sans-Serif" font-size="10.00" fill="#000000">POSITIVA</text>
<text text-anchor="start" x="1278.719" y="-55" font-family="Helvetica,sans-Serif" font-size="10.00" fill="#000000">NEGATIVA</text>
<text text-anchor="start" x="1283.448" y="-43" font-family="Helvetica,sans-Serif" font-size="10.00" fill="#000000">NEUTRA</text>
</g>
<!-- A7&#45;&gt;A11 -->
<g id="edge13" class="edge">
<title>A7&#45;&gt;A11</title>
<path fill="none" stroke="#000000" d="M1160.7246,-80C1186.8673,-80 1221.1139,-80 1249.5132,-80"/>
<polygon fill="#000000" stroke="#000000" points="1259.6856,-80 1249.6857,-84.5001 1254.6856,-80 1249.6856,-80.0001 1249.6856,-80.0001 1249.6856,-80.0001 1254.6856,-80 1249.6856,-75.5001 1259.6856,-80 1259.6856,-80"/>
<text text-anchor="middle" x="1241.5595" y="-85.4524" font-family="Helvetica,sans-Serif" font-size="10.00" fill="#000000">tipo1</text>
<text text-anchor="middle" x="1178.8508" y="-68.5476" font-family="Helvetica,sans-Serif" font-size="10.00" fill="#000000">*</text>
</g>
<!-- A8 -->
<g id="node9" class="node">
<title>A8</title>
<polygon fill="none" stroke="#000000" points="876,-130 876,-162 981,-162 981,-130 876,-130"/>
<text text-anchor="start" x="885.7175" y="-143" font-family="Helvetica,sans-Serif" font-size="10.00" fill="#000000">RegistroEstadistica</text>
<polygon fill="none" stroke="#000000" points="876,-98 876,-130 981,-130 981,-98 876,-98"/>
<text text-anchor="start" x="905.9995" y="-111" font-family="Helvetica,sans-Serif" font-size="10.00" fill="#000000">valor:Real</text>
</g>
<!-- A8&#45;&gt;A2JA7 -->
<g id="edge12" class="edge">
<title>A8&#45;&gt;A2JA7</title>
<path fill="none" stroke="#000000" stroke-dasharray="5,2" d="M928,-97.8314C928,-95.3788 928,-92.9262 928,-90.4736"/>
<polygon fill="#000000" stroke="#000000" points="928,-80.3906 932.5001,-90.3906 928,-85.3906 928.0001,-90.3906 928.0001,-90.3906 928.0001,-90.3906 928,-85.3906 923.5001,-90.3907 928,-80.3906 928,-80.3906"/>
</g>
<!-- A9&#45;&gt;A2 -->
<g id="edge16" class="edge">
<title>A9&#45;&gt;A2</title>
<path fill="none" stroke="#000000" d="M535.839,-204.2078C545.0593,-207.0569 554.638,-210.0169 564.3064,-213.0045"/>
<polygon fill="none" stroke="#000000" points="535.7335,-204.1752 528.82,-206.2255 524.2684,-200.6323 531.182,-198.5821 535.7335,-204.1752"/>
<polygon fill="#000000" stroke="#000000" points="573.9947,-215.9984 563.1118,-217.3453 569.2175,-214.5221 564.4404,-213.0459 564.4404,-213.0459 564.4404,-213.0459 569.2175,-214.5221 565.769,-208.7465 573.9947,-215.9984 573.9947,-215.9984"/>
<text text-anchor="middle" x="554.181" y="-215.7224" font-family="Helvetica,sans-Serif" font-size="10.00" fill="#000000">2</text>
<text text-anchor="middle" x="544.0821" y="-194.9083" font-family="Helvetica,sans-Serif" font-size="10.00" fill="#000000">*</text>
</g>
<!-- A10 -->
<g id="node11" class="node">
<title>A10</title>
<polygon fill="none" stroke="#000000" points="583.5,-136 583.5,-168 798.5,-168 798.5,-136 583.5,-136"/>
<text text-anchor="start" x="654.607" y="-149" font-family="Helvetica,sans-Serif" font-size="10.00" fill="#000000">RegistroReporte</text>
<polygon fill="none" stroke="#000000" points="583.5,-92 583.5,-136 798.5,-136 798.5,-92 583.5,-92"/>
<text text-anchor="start" x="593.483" y="-117" font-family="Helvetica,sans-Serif" font-size="10.00" fill="#000000">estadisticaParticipanteA:RegistroEstadistica</text>
<text text-anchor="start" x="593.483" y="-105" font-family="Helvetica,sans-Serif" font-size="10.00" fill="#000000">estadisticaParticipanteB:RegistroEstadistica</text>
</g>
<!-- A9&#45;&gt;A10 -->
<g id="edge14" class="edge">
<title>A9&#45;&gt;A10</title>
<path fill="none" stroke="#000000" d="M536.0882,-163.1356C547.9384,-160.5926 560.376,-157.9236 572.8313,-155.2508"/>
<polygon fill="none" stroke="#000000" points="536.0013,-163.1541 530.9742,-168.324 524.2684,-165.672 529.2956,-160.5021 536.0013,-163.1541"/>
<polygon fill="#000000" stroke="#000000" points="582.8132,-153.1088 573.98,-159.6068 577.9245,-154.1579 573.0358,-155.207 573.0358,-155.207 573.0358,-155.207 577.9245,-154.1579 572.0916,-150.8072 582.8132,-153.1088 582.8132,-153.1088"/>
<text text-anchor="middle" x="566.864" y="-162.1761" font-family="Helvetica,sans-Serif" font-size="10.00" fill="#000000">registros*</text>
<text text-anchor="middle" x="540.2177" y="-150.6046" font-family="Helvetica,sans-Serif" font-size="10.00" fill="#000000">1</text>
</g>
<!-- A10&#45;&gt;A8 -->
<g id="edge15" class="edge">
<title>A10&#45;&gt;A8</title>
<path fill="none" stroke="#000000" d="M810.1335,-130C829.1622,-130 848.1606,-130 865.1742,-130"/>
<polygon fill="none" stroke="#000000" points="810.1317,-130.0001 804.1317,-134 798.1317,-130 804.1317,-126 810.1317,-130.0001"/>
<polygon fill="#000000" stroke="#000000" points="875.4936,-130 865.4937,-134.5001 870.4936,-130 865.4936,-130.0001 865.4936,-130.0001 865.4936,-130.0001 870.4936,-130 865.4936,-125.5001 875.4936,-130 875.4936,-130"/>
<text text-anchor="middle" x="857.3675" y="-135.4524" font-family="Helvetica,sans-Serif" font-size="10.00" fill="#000000">2</text>
<text text-anchor="middle" x="816.2578" y="-118.5476" font-family="Helvetica,sans-Serif" font-size="10.00" fill="#000000">*</text>
</g>
<!-- A2JA7&#45;&gt;A7 -->
<g id="edge11" class="edge">
<title>A2JA7&#45;&gt;A7</title>
<path fill="none" stroke="#000000" d="M928.5508,-80C935.8864,-80 1014.8963,-80 1069.0938,-80"/>
<polygon fill="#000000" stroke="#000000" points="1079.2377,-80 1069.2377,-84.5001 1074.2377,-80 1069.2377,-80.0001 1069.2377,-80.0001 1069.2377,-80.0001 1074.2377,-80 1069.2377,-75.5001 1079.2377,-80 1079.2377,-80"/>
<text text-anchor="middle" x="1061.1115" y="-85.4524" font-family="Helvetica,sans-Serif" font-size="10.00" fill="#000000">*</text>
</g>
</g>
</svg>
