<?xml version="1.0" encoding="UTF-8" standalone="no"?>
<!DOCTYPE svg PUBLIC "-//W3C//DTD SVG 1.1//EN"
 "http://www.w3.org/Graphics/SVG/1.1/DTD/svg11.dtd">
<!-- Generated by graphviz version 2.40.1 (20161225.0304)
 -->
<!-- Title: G Pages: 1 -->
<svg width="1481pt" height="532pt"
 viewBox="0.00 0.00 1481.00 532.00" xmlns="http://www.w3.org/2000/svg" xmlns:xlink="http://www.w3.org/1999/xlink">
<g id="graph0" class="graph" transform="scale(1 1) rotate(0) translate(4 528)">
<title>G</title>
<polygon fill="#ffffff" stroke="transparent" points="-4,4 -4,-528 1477,-528 1477,4 -4,4"/>
<!-- A0 -->
<g id="node1" class="node">
<title>A0</title>
<polygon fill="none" stroke="#000000" points=".5,-492 .5,-524 341.5,-524 341.5,-492 .5,-492"/>
<text text-anchor="start" x="155.163" y="-505" font-family="Helvetica,sans-Serif" font-size="10.00" fill="#000000">Torneo</text>
<polygon fill="none" stroke="#000000" points=".5,-388 .5,-492 341.5,-492 341.5,-388 .5,-388"/>
<text text-anchor="start" x="140.1605" y="-473" font-family="Helvetica,sans-Serif" font-size="10.00" fill="#000000">nombre:Texto</text>
<text text-anchor="start" x="131.822" y="-461" font-family="Helvetica,sans-Serif" font-size="10.00" fill="#000000">fechaInicio:Fecha</text>
<text text-anchor="start" x="102.6515" y="-449" font-family="Helvetica,sans-Serif" font-size="10.00" fill="#000000">fechaInicioInscripciones:Fecha</text>
<text text-anchor="start" x="100.712" y="-437" font-family="Helvetica,sans-Serif" font-size="10.00" fill="#000000">fechaCierreInscripciones:Fecha</text>
<text text-anchor="start" x="109.042" y="-425" font-family="Helvetica,sans-Serif" font-size="10.00" fill="#000000">numeroParticipantes:Entero</text>
<text text-anchor="start" x="131.5485" y="-413" font-family="Helvetica,sans-Serif" font-size="10.00" fill="#000000">limiteEdad:Entero</text>
<text text-anchor="start" x="120.1595" y="-401" font-family="Helvetica,sans-Serif" font-size="10.00" fill="#000000">valorInscripcion:Entero</text>
<polygon fill="none" stroke="#000000" points=".5,-32 .5,-388 341.5,-388 341.5,-32 .5,-32"/>
<text text-anchor="start" x="109.741" y="-369" font-family="Helvetica,sans-Serif" font-size="10.00" fill="#000000">+Constructor(nombre:Texto</text>
<text text-anchor="start" x="131.822" y="-357" font-family="Helvetica,sans-Serif" font-size="10.00" fill="#000000">fechaInicio:Fecha</text>
<text text-anchor="start" x="102.6515" y="-345" font-family="Helvetica,sans-Serif" font-size="10.00" fill="#000000">fechaInicioInscripciones:Fecha</text>
<text text-anchor="start" x="100.712" y="-333" font-family="Helvetica,sans-Serif" font-size="10.00" fill="#000000">fechaCierreInscripciones:Fecha</text>
<text text-anchor="start" x="109.042" y="-321" font-family="Helvetica,sans-Serif" font-size="10.00" fill="#000000">numeroParticipantes:Entero</text>
<text text-anchor="start" x="131.5485" y="-309" font-family="Helvetica,sans-Serif" font-size="10.00" fill="#000000">limiteEdad:Entero</text>
<text text-anchor="start" x="120.1595" y="-297" font-family="Helvetica,sans-Serif" font-size="10.00" fill="#000000">valorInscripcion:Entero</text>
<text text-anchor="start" x="120.1555" y="-285" font-family="Helvetica,sans-Serif" font-size="10.00" fill="#000000">tipoTorneo:TipoTorneo</text>
<text text-anchor="start" x="10.288" y="-273" font-family="Helvetica,sans-Serif" font-size="10.00" fill="#000000">caracter:CaracterTorneo)+registrarParticipante(participante:Participante)</text>
<text text-anchor="start" x="126.1335" y="-261" font-family="Helvetica,sans-Serif" font-size="10.00" fill="#000000">+getNombre():Texto</text>
<text text-anchor="start" x="116.96" y="-249" font-family="Helvetica,sans-Serif" font-size="10.00" fill="#000000">+getFechaInicio():Fecha</text>
<text text-anchor="start" x="87.7895" y="-237" font-family="Helvetica,sans-Serif" font-size="10.00" fill="#000000">+getFechaInicioInscripciones():Fecha</text>
<text text-anchor="start" x="85.85" y="-225" font-family="Helvetica,sans-Serif" font-size="10.00" fill="#000000">+getFechaCierreInscripciones():Fecha</text>
<text text-anchor="start" x="95.015" y="-213" font-family="Helvetica,sans-Serif" font-size="10.00" fill="#000000">+getNumeroParticipantes():Entero</text>
<text text-anchor="start" x="116.6815" y="-201" font-family="Helvetica,sans-Serif" font-size="10.00" fill="#000000">+getLimiteEdad():Entero</text>
<text text-anchor="start" x="106.128" y="-189" font-family="Helvetica,sans-Serif" font-size="10.00" fill="#000000">+getValorInscripcion():Entero</text>
<text text-anchor="start" x="105.2935" y="-177" font-family="Helvetica,sans-Serif" font-size="10.00" fill="#000000">+getTipoTorneo():TipoTorneo</text>
<text text-anchor="start" x="78.6215" y="-165" font-family="Helvetica,sans-Serif" font-size="10.00" fill="#000000">+getParticipantes():Participante［*］</text>
<text text-anchor="start" x="102.2435" y="-153" font-family="Helvetica,sans-Serif" font-size="10.00" fill="#000000">+getCaracter():CaracterTorneo</text>
<text text-anchor="start" x="93.344" y="-141" font-family="Helvetica,sans-Serif" font-size="10.00" fill="#000000">+setFechaInicio(fechaInicio:Fecha)</text>
<text text-anchor="start" x="35.003" y="-129" font-family="Helvetica,sans-Serif" font-size="10.00" fill="#000000">+setFechaInicioInscripciones(fechaInicioInscripciones:Fecha)</text>
<text text-anchor="start" x="31.124" y="-117" font-family="Helvetica,sans-Serif" font-size="10.00" fill="#000000">+setFechaCierreInscripciones(fechaCierreInscripciones:Fecha)</text>
<text text-anchor="start" x="67.65" y="-105" font-family="Helvetica,sans-Serif" font-size="10.00" fill="#000000">buscarParticipante(nombre:Texto):Participante</text>
<text text-anchor="start" x="58.8875" y="-93" font-family="Helvetica,sans-Serif" font-size="10.00" fill="#000000">+registrarJugador(equipo:Equipo,jugador:Jugador)</text>
<text text-anchor="start" x="44.4445" y="-81" font-family="Helvetica,sans-Serif" font-size="10.00" fill="#000000">+registrarJugador(nombreEquipo:Texto,jugador:Jugador)</text>
<text text-anchor="start" x="43.896" y="-69" font-family="Helvetica,sans-Serif" font-size="10.00" fill="#000000">+registrarEstadisticaParticipante(participante:Participante</text>
<text text-anchor="start" x="101.5475" y="-57" font-family="Helvetica,sans-Serif" font-size="10.00" fill="#000000">estadistica:RegistroEstadistica)</text>
<text text-anchor="start" x="83.0685" y="-45" font-family="Helvetica,sans-Serif" font-size="10.00" fill="#000000">+getEstadisticas():Estadistica［*］</text>
</g>
<!-- A1 -->
<g id="node2" class="node">
<title>A1</title>
<polygon fill="none" stroke="#000000" points="422.5,-410 422.5,-454 493.5,-454 493.5,-410 422.5,-410"/>
<text text-anchor="start" x="433.264" y="-435" font-family="Helvetica,sans-Serif" font-size="10.00" fill="#000000">&lt;&lt;Enum&gt;&gt;</text>
<text text-anchor="start" x="432.44" y="-423" font-family="Helvetica,sans-Serif" font-size="10.00" fill="#000000">TipoTorneo</text>
<polygon fill="none" stroke="#000000" points="422.5,-342 422.5,-410 493.5,-410 493.5,-342 422.5,-342"/>
<text text-anchor="start" x="441.6075" y="-391" font-family="Helvetica,sans-Serif" font-size="10.00" fill="#000000">LOCAL</text>
<text text-anchor="start" x="432.164" y="-379" font-family="Helvetica,sans-Serif" font-size="10.00" fill="#000000">REGIONAL</text>
<text text-anchor="start" x="432.444" y="-367" font-family="Helvetica,sans-Serif" font-size="10.00" fill="#000000">NACIONAL</text>
<text text-anchor="start" x="435.5035" y="-355" font-family="Helvetica,sans-Serif" font-size="10.00" fill="#000000">MUNDIAL</text>
</g>
<!-- A0&#45;&gt;A1 -->
<g id="edge3" class="edge">
<title>A0&#45;&gt;A1</title>
<path fill="none" stroke="#000000" d="M341.1799,-349.3644C367.4553,-360.3506 392.4687,-370.8092 412.5205,-379.1932"/>
<polygon fill="#000000" stroke="#000000" points="421.9493,-383.1356 410.9874,-383.4297 417.3363,-381.2068 412.7233,-379.278 412.7233,-379.278 412.7233,-379.278 417.3363,-381.2068 414.4593,-375.1263 421.9493,-383.1356 421.9493,-383.1356"/>
<text text-anchor="middle" x="401.9656" y="-380.9415" font-family="Helvetica,sans-Serif" font-size="10.00" fill="#000000">tipoTorneo1</text>
<text text-anchor="middle" x="361.1636" y="-345.5585" font-family="Helvetica,sans-Serif" font-size="10.00" fill="#000000">*</text>
</g>
<!-- A2 -->
<g id="node3" class="node">
<title>A2</title>
<polygon fill="none" stroke="#000000" points="574.5,-342 574.5,-386 827.5,-386 827.5,-342 574.5,-342"/>
<text text-anchor="start" x="671.54" y="-367" font-family="Helvetica,sans-Serif" font-size="10.00" fill="#000000">&lt;&lt;abstract&gt;&gt;</text>
<text text-anchor="start" x="674.6055" y="-355" font-family="Helvetica,sans-Serif" font-size="10.00" fill="#000000">Participante</text>
<polygon fill="none" stroke="#000000" points="574.5,-310 574.5,-342 827.5,-342 827.5,-310 574.5,-310"/>
<text text-anchor="start" x="608.209" y="-323" font-family="Helvetica,sans-Serif" font-size="10.00" fill="#000000">estadisticas:RegistroEstadistica［*］</text>
<polygon fill="none" stroke="#000000" points="574.5,-242 574.5,-310 827.5,-310 827.5,-242 574.5,-242"/>
<text text-anchor="start" x="668.916" y="-291" font-family="Helvetica,sans-Serif" font-size="10.00" fill="#000000">+Constructor()</text>
<text text-anchor="start" x="594.457" y="-279" font-family="Helvetica,sans-Serif" font-size="10.00" fill="#000000">+getEstadisticas():RegistroEstadistica［*］</text>
<text text-anchor="start" x="605.2825" y="-267" font-family="Helvetica,sans-Serif" font-size="10.00" fill="#000000">+&lt;&lt;abstract&gt;&gt;getNombreCompleto():Texto</text>
<text text-anchor="start" x="584.4615" y="-255" font-family="Helvetica,sans-Serif" font-size="10.00" fill="#000000">+registrarEstadistica(estadistica:RegistroEstadistica)</text>
</g>
<!-- A0&#45;&gt;A2 -->
<g id="edge4" class="edge">
<title>A0&#45;&gt;A2</title>
<path fill="none" stroke="#000000" d="M353.3516,-292.3187C366.091,-293.2482 378.7363,-294.1509 391,-295 447.508,-298.9126 509.8489,-302.8186 563.6822,-306.0625"/>
<polygon fill="none" stroke="#000000" points="353.0858,-292.2993 346.8088,-295.849 341.118,-291.4202 347.3949,-287.8705 353.0858,-292.2993"/>
<polygon fill="#000000" stroke="#000000" points="573.9809,-306.6813 563.7289,-310.5733 568.9899,-306.3813 563.9989,-306.0814 563.9989,-306.0814 563.9989,-306.0814 568.9899,-306.3813 564.2688,-301.5895 573.9809,-306.6813 573.9809,-306.6813"/>
<text text-anchor="middle" x="555.3804" y="-311.0313" font-family="Helvetica,sans-Serif" font-size="10.00" fill="#000000">participantes*</text>
<text text-anchor="middle" x="359.8146" y="-281.3183" font-family="Helvetica,sans-Serif" font-size="10.00" fill="#000000">1</text>
</g>
<!-- A6 -->
<g id="node7" class="node">
<title>A6</title>
<polygon fill="none" stroke="#000000" points="412.5,-136 412.5,-180 502.5,-180 502.5,-136 412.5,-136"/>
<text text-anchor="start" x="432.764" y="-161" font-family="Helvetica,sans-Serif" font-size="10.00" fill="#000000">&lt;&lt;Enum&gt;&gt;</text>
<text text-anchor="start" x="422.4965" y="-149" font-family="Helvetica,sans-Serif" font-size="10.00" fill="#000000">CaracterTorneo</text>
<polygon fill="none" stroke="#000000" points="412.5,-92 412.5,-136 502.5,-136 502.5,-92 412.5,-92"/>
<text text-anchor="start" x="429.445" y="-117" font-family="Helvetica,sans-Serif" font-size="10.00" fill="#000000">INDIVIDUAL</text>
<text text-anchor="start" x="436.943" y="-105" font-family="Helvetica,sans-Serif" font-size="10.00" fill="#000000">GRUPAL</text>
</g>
<!-- A0&#45;&gt;A6 -->
<g id="edge2" class="edge">
<title>A0&#45;&gt;A6</title>
<path fill="none" stroke="#000000" d="M341.1799,-193.5521C363.6287,-182.445 385.1564,-171.7937 403.4556,-162.7397"/>
<polygon fill="#000000" stroke="#000000" points="412.443,-158.293 405.4756,-166.761 407.9615,-160.5104 403.48,-162.7277 403.48,-162.7277 403.48,-162.7277 407.9615,-160.5104 401.4844,-158.6944 412.443,-158.293 412.443,-158.293"/>
<text text-anchor="middle" x="399.9449" y="-170.9071" font-family="Helvetica,sans-Serif" font-size="10.00" fill="#000000">caracter1</text>
<text text-anchor="middle" x="353.6779" y="-174.9381" font-family="Helvetica,sans-Serif" font-size="10.00" fill="#000000">*</text>
</g>
<!-- A9 -->
<g id="node10" class="node">
<title>A9</title>
<polygon fill="none" stroke="#000000" points="391.5,-254 391.5,-286 524.5,-286 524.5,-254 391.5,-254"/>
<text text-anchor="start" x="440.2185" y="-267" font-family="Helvetica,sans-Serif" font-size="10.00" fill="#000000">Reporte</text>
<polygon fill="none" stroke="#000000" points="391.5,-198 391.5,-254 524.5,-254 524.5,-198 391.5,-198"/>
<text text-anchor="start" x="430.4895" y="-235" font-family="Helvetica,sans-Serif" font-size="10.00" fill="#000000">fecha:Fecha</text>
<text text-anchor="start" x="401.042" y="-223" font-family="Helvetica,sans-Serif" font-size="10.00" fill="#000000">participanteA:Participante</text>
<text text-anchor="start" x="401.042" y="-211" font-family="Helvetica,sans-Serif" font-size="10.00" fill="#000000">participanteB:Participante</text>
</g>
<!-- A0&#45;&gt;A9 -->
<g id="edge1" class="edge">
<title>A0&#45;&gt;A9</title>
<path fill="none" stroke="#000000" stroke-dasharray="5,2" d="M341.1799,-256.5907C354.816,-254.8802 368.1122,-253.2124 380.5515,-251.6521"/>
<polygon fill="#000000" stroke="#000000" points="390.7875,-250.3681 381.4254,-256.0778 385.8264,-250.9905 380.8653,-251.6128 380.8653,-251.6128 380.8653,-251.6128 385.8264,-250.9905 380.3052,-247.1478 390.7875,-250.3681 390.7875,-250.3681"/>
</g>
<!-- A3 -->
<g id="node4" class="node">
<title>A3</title>
<polygon fill="none" stroke="#000000" points="877.5,-370 877.5,-402 1054.5,-402 1054.5,-370 877.5,-370"/>
<text text-anchor="start" x="950.438" y="-383" font-family="Helvetica,sans-Serif" font-size="10.00" fill="#000000">Equipo</text>
<polygon fill="none" stroke="#000000" points="877.5,-338 877.5,-370 1054.5,-370 1054.5,-338 877.5,-338"/>
<text text-anchor="start" x="935.1605" y="-351" font-family="Helvetica,sans-Serif" font-size="10.00" fill="#000000">nombre:Texto</text>
<polygon fill="none" stroke="#000000" points="877.5,-246 877.5,-338 1054.5,-338 1054.5,-246 877.5,-246"/>
<text text-anchor="start" x="904.741" y="-319" font-family="Helvetica,sans-Serif" font-size="10.00" fill="#000000">+Constructor(nombre:Texto</text>
<text text-anchor="start" x="913.485" y="-307" font-family="Helvetica,sans-Serif" font-size="10.00" fill="#000000">representante:Persona)</text>
<text text-anchor="start" x="921.1335" y="-295" font-family="Helvetica,sans-Serif" font-size="10.00" fill="#000000">+getNombre():Texto</text>
<text text-anchor="start" x="900.0075" y="-283" font-family="Helvetica,sans-Serif" font-size="10.00" fill="#000000">+getRepresentante():Persona</text>
<text text-anchor="start" x="887.507" y="-271" font-family="Helvetica,sans-Serif" font-size="10.00" fill="#000000">+getJugadores():Jugador［*］</text>
<text text-anchor="start" x="887.2355" y="-259" font-family="Helvetica,sans-Serif" font-size="10.00" fill="#000000">+registrarJugador(jugador:Jugador)</text>
</g>
<!-- A2&#45;&gt;A3 -->
<g id="edge9" class="edge">
<title>A2&#45;&gt;A3</title>
<path fill="none" stroke="#000000" d="M837.4027,-319.1661C850.7687,-319.6705 864.075,-320.1726 876.7766,-320.6519"/>
<polygon fill="none" stroke="#000000" points="837.3038,-315.66 827.1789,-318.7803 837.0398,-322.655 837.3038,-315.66"/>
</g>
<!-- A5 -->
<g id="node6" class="node">
<title>A5</title>
<polygon fill="none" stroke="#000000" points="1296.5,-376 1296.5,-408 1473.5,-408 1473.5,-376 1296.5,-376"/>
<text text-anchor="start" x="1366.938" y="-389" font-family="Helvetica,sans-Serif" font-size="10.00" fill="#000000">Jugador</text>
<polygon fill="none" stroke="#000000" points="1296.5,-344 1296.5,-376 1473.5,-376 1473.5,-344 1296.5,-344"/>
<text text-anchor="start" x="1332.489" y="-357" font-family="Helvetica,sans-Serif" font-size="10.00" fill="#000000">fechaNacimiento:Fecha</text>
<polygon fill="none" stroke="#000000" points="1296.5,-240 1296.5,-344 1473.5,-344 1473.5,-240 1296.5,-240"/>
<text text-anchor="start" x="1323.741" y="-325" font-family="Helvetica,sans-Serif" font-size="10.00" fill="#000000">+Constructor(nombre:Texto</text>
<text text-anchor="start" x="1353.8815" y="-313" font-family="Helvetica,sans-Serif" font-size="10.00" fill="#000000">apellido:Texto</text>
<text text-anchor="start" x="1359.165" y="-301" font-family="Helvetica,sans-Serif" font-size="10.00" fill="#000000">email:Texto</text>
<text text-anchor="start" x="1356.3855" y="-289" font-family="Helvetica,sans-Serif" font-size="10.00" fill="#000000">celular:Texto</text>
<text text-anchor="start" x="1330.8245" y="-277" font-family="Helvetica,sans-Serif" font-size="10.00" fill="#000000">fechaNacimiento:Fecha)</text>
<text text-anchor="start" x="1317.627" y="-265" font-family="Helvetica,sans-Serif" font-size="10.00" fill="#000000">+getFechaNacimiento():Fecha</text>
<text text-anchor="start" x="1306.2295" y="-253" font-family="Helvetica,sans-Serif" font-size="10.00" fill="#000000">+calcularEdad(fecha:Fecha):Entero</text>
</g>
<!-- A2&#45;&gt;A5 -->
<g id="edge8" class="edge">
<title>A2&#45;&gt;A5</title>
<path fill="none" stroke="#000000" d="M826.5483,-390.4681C843.1113,-398.3547 860.1807,-405.483 877,-411 1033.345,-462.2836 1091.4754,-497.5326 1246,-441 1266.3966,-433.5379 1285.8598,-421.5987 1303.411,-408.1378"/>
<polygon fill="none" stroke="#000000" points="827.9266,-387.2463 817.4036,-386.014 824.8613,-393.5396 827.9266,-387.2463"/>
</g>
<!-- A2JA7 -->
<!-- A2&#45;&gt;A2JA7 -->
<g id="edge10" class="edge">
<title>A2&#45;&gt;A2JA7</title>
<path fill="none" stroke="#000000" d="M810.9164,-241.7166C816.7452,-235.7738 822.1759,-229.5269 827,-223 868.2679,-167.1654 822.7162,-118.2875 877,-75 905.9793,-51.891 958.4056,-64.2012 964.8457,-65.8303"/>
<text text-anchor="middle" x="817.4607" y="-219.8176" font-family="Helvetica,sans-Serif" font-size="10.00" fill="#000000">*</text>
</g>
<!-- A4 -->
<g id="node5" class="node">
<title>A4</title>
<polygon fill="none" stroke="#000000" points="1104,-400 1104,-432 1246,-432 1246,-400 1104,-400"/>
<text text-anchor="start" x="1156.383" y="-413" font-family="Helvetica,sans-Serif" font-size="10.00" fill="#000000">Persona</text>
<polygon fill="none" stroke="#000000" points="1104,-332 1104,-400 1246,-400 1246,-332 1104,-332"/>
<text text-anchor="start" x="1144.1605" y="-381" font-family="Helvetica,sans-Serif" font-size="10.00" fill="#000000">nombre:Texto</text>
<text text-anchor="start" x="1143.8815" y="-369" font-family="Helvetica,sans-Serif" font-size="10.00" fill="#000000">apellido:Texto</text>
<text text-anchor="start" x="1149.165" y="-357" font-family="Helvetica,sans-Serif" font-size="10.00" fill="#000000">email:Texto</text>
<text text-anchor="start" x="1146.3855" y="-345" font-family="Helvetica,sans-Serif" font-size="10.00" fill="#000000">celular:Texto</text>
<polygon fill="none" stroke="#000000" points="1104,-216 1104,-332 1246,-332 1246,-216 1104,-216"/>
<text text-anchor="start" x="1113.741" y="-313" font-family="Helvetica,sans-Serif" font-size="10.00" fill="#000000">+Constructor(nombre:Texto</text>
<text text-anchor="start" x="1143.8815" y="-301" font-family="Helvetica,sans-Serif" font-size="10.00" fill="#000000">apellido:Texto</text>
<text text-anchor="start" x="1149.165" y="-289" font-family="Helvetica,sans-Serif" font-size="10.00" fill="#000000">email:Texto</text>
<text text-anchor="start" x="1144.721" y="-277" font-family="Helvetica,sans-Serif" font-size="10.00" fill="#000000">celular:Texto)</text>
<text text-anchor="start" x="1130.1335" y="-265" font-family="Helvetica,sans-Serif" font-size="10.00" fill="#000000">+getNombre():Texto</text>
<text text-anchor="start" x="1130.1295" y="-253" font-family="Helvetica,sans-Serif" font-size="10.00" fill="#000000">+getApellido():Texto</text>
<text text-anchor="start" x="1135.413" y="-241" font-family="Helvetica,sans-Serif" font-size="10.00" fill="#000000">+getEmail():Texto</text>
<text text-anchor="start" x="1132.079" y="-229" font-family="Helvetica,sans-Serif" font-size="10.00" fill="#000000">+getCelular():Texto</text>
</g>
<!-- A3&#45;&gt;A4 -->
<g id="edge5" class="edge">
<title>A3&#45;&gt;A4</title>
<path fill="none" stroke="#000000" d="M1066.2066,-324C1075.4614,-324 1084.7583,-324 1093.8078,-324"/>
<polygon fill="none" stroke="#000000" points="1066.0432,-324.0001 1060.0432,-328 1054.0432,-324 1060.0432,-320 1066.0432,-324.0001"/>
<polygon fill="#000000" stroke="#000000" points="1103.9045,-324 1093.9045,-328.5001 1098.9045,-324 1093.9045,-324.0001 1093.9045,-324.0001 1093.9045,-324.0001 1098.9045,-324 1093.9044,-319.5001 1103.9045,-324 1103.9045,-324"/>
<text text-anchor="middle" x="1085.7783" y="-329.4524" font-family="Helvetica,sans-Serif" font-size="10.00" fill="#000000">representante1</text>
<text text-anchor="middle" x="1072.1694" y="-312.5476" font-family="Helvetica,sans-Serif" font-size="10.00" fill="#000000">1</text>
</g>
<!-- A3&#45;&gt;A5 -->
<g id="edge7" class="edge">
<title>A3&#45;&gt;A5</title>
<path fill="none" stroke="#000000" d="M1058.1177,-237.7845C1076.0901,-223.0244 1092.7983,-211.0981 1104,-207 1163.2692,-185.3164 1186.7308,-185.3164 1246,-207 1263.2096,-213.2961 1279.7548,-222.7796 1295.0475,-233.6751"/>
<polygon fill="none" stroke="#000000" points="1057.8255,-238.0292 1055.7946,-244.9484 1048.6265,-245.7349 1050.6574,-238.8157 1057.8255,-238.0292"/>
<polygon fill="#000000" stroke="#000000" points="1303.411,-239.8622 1292.6954,-237.5326 1299.3913,-236.8885 1295.3717,-233.9149 1295.3717,-233.9149 1295.3717,-233.9149 1299.3913,-236.8885 1298.048,-230.2972 1303.411,-239.8622 1303.411,-239.8622"/>
<text text-anchor="middle" x="1283.812" y="-232.8772" font-family="Helvetica,sans-Serif" font-size="10.00" fill="#000000">jugador*</text>
<text text-anchor="middle" x="1057.0941" y="-224.6159" font-family="Helvetica,sans-Serif" font-size="10.00" fill="#000000">1</text>
</g>
<!-- A4&#45;&gt;A5 -->
<g id="edge6" class="edge">
<title>A4&#45;&gt;A5</title>
<path fill="none" stroke="#000000" d="M1256.4161,-324C1269.2824,-324 1282.6436,-324 1295.6686,-324"/>
<polygon fill="none" stroke="#000000" points="1256.2195,-320.5001 1246.2195,-324 1256.2194,-327.5001 1256.2195,-320.5001"/>
</g>
<!-- A7 -->
<g id="node8" class="node">
<title>A7</title>
<polygon fill="none" stroke="#000000" points="1104,-100 1104,-132 1246,-132 1246,-100 1104,-100"/>
<text text-anchor="start" x="1150.829" y="-113" font-family="Helvetica,sans-Serif" font-size="10.00" fill="#000000">Estadistica</text>
<polygon fill="none" stroke="#000000" points="1104,-68 1104,-100 1246,-100 1246,-68 1104,-68"/>
<text text-anchor="start" x="1144.1605" y="-81" font-family="Helvetica,sans-Serif" font-size="10.00" fill="#000000">nombre:Texto</text>
<polygon fill="none" stroke="#000000" points="1104,0 1104,-68 1246,-68 1246,0 1104,0"/>
<text text-anchor="start" x="1113.741" y="-49" font-family="Helvetica,sans-Serif" font-size="10.00" fill="#000000">+Constructor(nombre:Texto</text>
<text text-anchor="start" x="1129.994" y="-37" font-family="Helvetica,sans-Serif" font-size="10.00" fill="#000000">tipo:TipoEstadistica)</text>
<text text-anchor="start" x="1130.1335" y="-25" font-family="Helvetica,sans-Serif" font-size="10.00" fill="#000000">+getNombre():Texto</text>
<text text-anchor="start" x="1116.7965" y="-13" font-family="Helvetica,sans-Serif" font-size="10.00" fill="#000000">+getTipo():TipoEstadistica</text>
</g>
<!-- A11 -->
<g id="node12" class="node">
<title>A11</title>
<polygon fill="none" stroke="#000000" points="1341.5,-72 1341.5,-116 1428.5,-116 1428.5,-72 1341.5,-72"/>
<text text-anchor="start" x="1360.264" y="-97" font-family="Helvetica,sans-Serif" font-size="10.00" fill="#000000">&lt;&lt;Enum&gt;&gt;</text>
<text text-anchor="start" x="1351.106" y="-85" font-family="Helvetica,sans-Serif" font-size="10.00" fill="#000000">TipoEstadistica</text>
<polygon fill="none" stroke="#000000" points="1341.5,-16 1341.5,-72 1428.5,-72 1428.5,-16 1341.5,-16"/>
<text text-anchor="start" x="1361.939" y="-53" font-family="Helvetica,sans-Serif" font-size="10.00" fill="#000000">POSITIVA</text>
<text text-anchor="start" x="1359.719" y="-41" font-family="Helvetica,sans-Serif" font-size="10.00" fill="#000000">NEGATIVA</text>
<text text-anchor="start" x="1364.448" y="-29" font-family="Helvetica,sans-Serif" font-size="10.00" fill="#000000">NEUTRA</text>
</g>
<!-- A7&#45;&gt;A11 -->
<g id="edge13" class="edge">
<title>A7&#45;&gt;A11</title>
<path fill="none" stroke="#000000" d="M1246.2195,-66C1273.8477,-66 1304.9549,-66 1330.6586,-66"/>
<polygon fill="#000000" stroke="#000000" points="1340.9518,-66 1330.9519,-70.5001 1335.9518,-66 1330.9518,-66.0001 1330.9518,-66.0001 1330.9518,-66.0001 1335.9518,-66 1330.9518,-61.5001 1340.9518,-66 1340.9518,-66"/>
<text text-anchor="middle" x="1322.8257" y="-71.4524" font-family="Helvetica,sans-Serif" font-size="10.00" fill="#000000">tipo1</text>
<text text-anchor="middle" x="1264.3456" y="-54.5476" font-family="Helvetica,sans-Serif" font-size="10.00" fill="#000000">*</text>
</g>
<!-- A8 -->
<g id="node9" class="node">
<title>A8</title>
<polygon fill="none" stroke="#000000" points="893.5,-196 893.5,-228 1038.5,-228 1038.5,-196 893.5,-196"/>
<text text-anchor="start" x="923.2175" y="-209" font-family="Helvetica,sans-Serif" font-size="10.00" fill="#000000">RegistroEstadistica</text>
<polygon fill="none" stroke="#000000" points="893.5,-152 893.5,-196 1038.5,-196 1038.5,-152 893.5,-152"/>
<text text-anchor="start" x="943.4995" y="-177" font-family="Helvetica,sans-Serif" font-size="10.00" fill="#000000">valor:Real</text>
<text text-anchor="start" x="916.8235" y="-165" font-family="Helvetica,sans-Serif" font-size="10.00" fill="#000000">estadistica:Estadistica</text>
<polygon fill="none" stroke="#000000" points="893.5,-84 893.5,-152 1038.5,-152 1038.5,-84 893.5,-84"/>
<text text-anchor="start" x="913.08" y="-133" font-family="Helvetica,sans-Serif" font-size="10.00" fill="#000000">+Constructor(valor:Real</text>
<text text-anchor="start" x="915.159" y="-121" font-family="Helvetica,sans-Serif" font-size="10.00" fill="#000000">estadistica:Estadistica)</text>
<text text-anchor="start" x="929.468" y="-109" font-family="Helvetica,sans-Serif" font-size="10.00" fill="#000000">+getValor():Real</text>
<text text-anchor="start" x="903.0715" y="-97" font-family="Helvetica,sans-Serif" font-size="10.00" fill="#000000">+getEstadistica():Estadistica</text>
</g>
<!-- A8&#45;&gt;A2JA7 -->
<g id="edge12" class="edge">
<title>A8&#45;&gt;A2JA7</title>
<path fill="none" stroke="#000000" stroke-dasharray="5,2" d="M965.5,-83.7951C965.5,-81.4806 965.5,-79.166 965.5,-76.8515"/>
<polygon fill="#000000" stroke="#000000" points="965.5,-66.7031 970.0001,-76.7031 965.5,-71.7031 965.5001,-76.7031 965.5001,-76.7031 965.5001,-76.7031 965.5,-71.7031 961.0001,-76.7032 965.5,-66.7031 965.5,-66.7031"/>
</g>
<!-- A9&#45;&gt;A2 -->
<g id="edge16" class="edge">
<title>A9&#45;&gt;A2</title>
<path fill="none" stroke="#000000" d="M536.073,-265.2809C545.1396,-267.9673 554.5722,-270.7621 564.1293,-273.5939"/>
<polygon fill="none" stroke="#000000" points="535.7278,-265.1787 528.8386,-267.3093 524.2222,-261.7695 531.1114,-259.6389 535.7278,-265.1787"/>
<polygon fill="#000000" stroke="#000000" points="573.7191,-276.4353 562.8527,-277.9089 568.9251,-275.0148 564.1311,-273.5943 564.1311,-273.5943 564.1311,-273.5943 568.9251,-275.0148 565.4096,-269.2798 573.7191,-276.4353 573.7191,-276.4353"/>
<text text-anchor="middle" x="553.9386" y="-276.39" font-family="Helvetica,sans-Serif" font-size="10.00" fill="#000000">2</text>
<text text-anchor="middle" x="544.0028" y="-255.8149" font-family="Helvetica,sans-Serif" font-size="10.00" fill="#000000">*</text>
</g>
<!-- A10 -->
<g id="node11" class="node">
<title>A10</title>
<polygon fill="none" stroke="#000000" points="593.5,-182 593.5,-214 808.5,-214 808.5,-182 593.5,-182"/>
<text text-anchor="start" x="664.607" y="-195" font-family="Helvetica,sans-Serif" font-size="10.00" fill="#000000">RegistroReporte</text>
<polygon fill="none" stroke="#000000" points="593.5,-138 593.5,-182 808.5,-182 808.5,-138 593.5,-138"/>
<text text-anchor="start" x="603.483" y="-163" font-family="Helvetica,sans-Serif" font-size="10.00" fill="#000000">estadisticaParticipanteA:RegistroEstadistica</text>
<text text-anchor="start" x="603.483" y="-151" font-family="Helvetica,sans-Serif" font-size="10.00" fill="#000000">estadisticaParticipanteB:RegistroEstadistica</text>
</g>
<!-- A9&#45;&gt;A10 -->
<g id="edge14" class="edge">
<title>A9&#45;&gt;A10</title>
<path fill="none" stroke="#000000" d="M535.9116,-220.703C550.9352,-216.6225 566.9685,-212.2678 582.9119,-207.9375"/>
<polygon fill="none" stroke="#000000" points="535.8027,-220.7325 531.0609,-226.1654 524.2222,-223.8779 528.964,-218.4451 535.8027,-220.7325"/>
<polygon fill="#000000" stroke="#000000" points="592.8175,-205.2471 584.3466,-212.2109 587.9923,-206.5577 583.1671,-207.8683 583.1671,-207.8683 583.1671,-207.8683 587.9923,-206.5577 581.9875,-203.5256 592.8175,-205.2471 592.8175,-205.2471"/>
<text text-anchor="middle" x="577.5405" y="-215.155" font-family="Helvetica,sans-Serif" font-size="10.00" fill="#000000">registros*</text>
<text text-anchor="middle" x="539.4992" y="-207.97" font-family="Helvetica,sans-Serif" font-size="10.00" fill="#000000">1</text>
</g>
<!-- A10&#45;&gt;A8 -->
<g id="edge15" class="edge">
<title>A10&#45;&gt;A8</title>
<path fill="none" stroke="#000000" d="M820.333,-166.956C841.3398,-165.3706 862.7753,-163.7528 882.5011,-162.2641"/>
<polygon fill="none" stroke="#000000" points="820.2516,-166.9621 814.5697,-171.4023 808.2856,-167.8652 813.9676,-163.425 820.2516,-166.9621"/>
<polygon fill="#000000" stroke="#000000" points="892.6494,-161.4982 883.0164,-166.7381 887.6636,-161.8745 882.6777,-162.2508 882.6777,-162.2508 882.6777,-162.2508 887.6636,-161.8745 882.339,-157.7636 892.6494,-161.4982 892.6494,-161.4982"/>
<text text-anchor="middle" x="875.2107" y="-168.2907" font-family="Helvetica,sans-Serif" font-size="10.00" fill="#000000">2</text>
<text text-anchor="middle" x="825.7243" y="-155.0727" font-family="Helvetica,sans-Serif" font-size="10.00" fill="#000000">*</text>
</g>
<!-- A2JA7&#45;&gt;A7 -->
<g id="edge11" class="edge">
<title>A2JA7&#45;&gt;A7</title>
<path fill="none" stroke="#000000" d="M966.101,-66C972.9922,-66 1037.8519,-66 1093.4956,-66"/>
<polygon fill="#000000" stroke="#000000" points="1103.7622,-66 1093.7623,-70.5001 1098.7622,-66 1093.7622,-66.0001 1093.7622,-66.0001 1093.7622,-66.0001 1098.7622,-66 1093.7622,-61.5001 1103.7622,-66 1103.7622,-66"/>
<text text-anchor="middle" x="1085.6361" y="-71.4524" font-family="Helvetica,sans-Serif" font-size="10.00" fill="#000000">*</text>
</g>
</g>
</svg>
