<?xml version="1.0" encoding="UTF-8" standalone="no"?>
<!DOCTYPE svg PUBLIC "-//W3C//DTD SVG 1.1//EN"
 "http://www.w3.org/Graphics/SVG/1.1/DTD/svg11.dtd">
<!-- Generated by graphviz version 2.40.1 (20161225.0304)
 -->
<!-- Title: G Pages: 1 -->
<svg width="2210pt" height="570pt"
 viewBox="0.00 0.00 2209.57 569.54" xmlns="http://www.w3.org/2000/svg" xmlns:xlink="http://www.w3.org/1999/xlink">
<g id="graph0" class="graph" transform="scale(1 1) rotate(0) translate(4 565.5402)">
<title>G</title>
<polygon fill="#ffffff" stroke="transparent" points="-4,4 -4,-565.5402 2205.565,-565.5402 2205.565,4 -4,4"/>
<!-- A0 -->
<g id="node1" class="node">
<title>A0</title>
<polygon fill="none" stroke="#000000" points=".5,-529.5402 .5,-561.5402 341.5,-561.5402 341.5,-529.5402 .5,-529.5402"/>
<text text-anchor="start" x="155.163" y="-542.5402" font-family="Helvetica,sans-Serif" font-size="10.00" fill="#000000">Torneo</text>
<polygon fill="none" stroke="#000000" points=".5,-425.5402 .5,-529.5402 341.5,-529.5402 341.5,-425.5402 .5,-425.5402"/>
<text text-anchor="start" x="140.1605" y="-510.5402" font-family="Helvetica,sans-Serif" font-size="10.00" fill="#000000">nombre:Texto</text>
<text text-anchor="start" x="131.822" y="-498.5402" font-family="Helvetica,sans-Serif" font-size="10.00" fill="#000000">fechaInicio:Fecha</text>
<text text-anchor="start" x="102.6515" y="-486.5402" font-family="Helvetica,sans-Serif" font-size="10.00" fill="#000000">fechaInicioInscripciones:Fecha</text>
<text text-anchor="start" x="100.712" y="-474.5402" font-family="Helvetica,sans-Serif" font-size="10.00" fill="#000000">fechaCierreInscripciones:Fecha</text>
<text text-anchor="start" x="109.042" y="-462.5402" font-family="Helvetica,sans-Serif" font-size="10.00" fill="#000000">numeroParticipantes:Entero</text>
<text text-anchor="start" x="131.5485" y="-450.5402" font-family="Helvetica,sans-Serif" font-size="10.00" fill="#000000">limiteEdad:Entero</text>
<text text-anchor="start" x="120.1595" y="-438.5402" font-family="Helvetica,sans-Serif" font-size="10.00" fill="#000000">valorInscripcion:Entero</text>
<polygon fill="none" stroke="#000000" points=".5,-105.5402 .5,-425.5402 341.5,-425.5402 341.5,-105.5402 .5,-105.5402"/>
<text text-anchor="start" x="109.741" y="-406.5402" font-family="Helvetica,sans-Serif" font-size="10.00" fill="#000000">+Constructor(nombre:Texto</text>
<text text-anchor="start" x="131.822" y="-394.5402" font-family="Helvetica,sans-Serif" font-size="10.00" fill="#000000">fechaInicio:Fecha</text>
<text text-anchor="start" x="102.6515" y="-382.5402" font-family="Helvetica,sans-Serif" font-size="10.00" fill="#000000">fechaInicioInscripciones:Fecha</text>
<text text-anchor="start" x="100.712" y="-370.5402" font-family="Helvetica,sans-Serif" font-size="10.00" fill="#000000">fechaCierreInscripciones:Fecha</text>
<text text-anchor="start" x="109.042" y="-358.5402" font-family="Helvetica,sans-Serif" font-size="10.00" fill="#000000">numeroParticipantes:Entero</text>
<text text-anchor="start" x="131.5485" y="-346.5402" font-family="Helvetica,sans-Serif" font-size="10.00" fill="#000000">limiteEdad:Entero</text>
<text text-anchor="start" x="120.1595" y="-334.5402" font-family="Helvetica,sans-Serif" font-size="10.00" fill="#000000">valorInscripcion:Entero</text>
<text text-anchor="start" x="120.1555" y="-322.5402" font-family="Helvetica,sans-Serif" font-size="10.00" fill="#000000">tipoTorneo:TipoTorneo</text>
<text text-anchor="start" x="10.288" y="-310.5402" font-family="Helvetica,sans-Serif" font-size="10.00" fill="#000000">caracter:CaracterTorneo)+registrarParticipante(participante:Participante)</text>
<text text-anchor="start" x="126.1335" y="-298.5402" font-family="Helvetica,sans-Serif" font-size="10.00" fill="#000000">+getNombre():Texto</text>
<text text-anchor="start" x="116.96" y="-286.5402" font-family="Helvetica,sans-Serif" font-size="10.00" fill="#000000">+getFechaInicio():Fecha</text>
<text text-anchor="start" x="87.7895" y="-274.5402" font-family="Helvetica,sans-Serif" font-size="10.00" fill="#000000">+getFechaInicioInscripciones():Fecha</text>
<text text-anchor="start" x="85.85" y="-262.5402" font-family="Helvetica,sans-Serif" font-size="10.00" fill="#000000">+getFechaCierreInscripciones():Fecha</text>
<text text-anchor="start" x="95.015" y="-250.5402" font-family="Helvetica,sans-Serif" font-size="10.00" fill="#000000">+getNumeroParticipantes():Entero</text>
<text text-anchor="start" x="116.6815" y="-238.5402" font-family="Helvetica,sans-Serif" font-size="10.00" fill="#000000">+getLimiteEdad():Entero</text>
<text text-anchor="start" x="106.128" y="-226.5402" font-family="Helvetica,sans-Serif" font-size="10.00" fill="#000000">+getValorInscripcion():Entero</text>
<text text-anchor="start" x="105.2935" y="-214.5402" font-family="Helvetica,sans-Serif" font-size="10.00" fill="#000000">+getTipoTorneo():TipoTorneo</text>
<text text-anchor="start" x="78.6215" y="-202.5402" font-family="Helvetica,sans-Serif" font-size="10.00" fill="#000000">+getParticipantes():Participante［*］</text>
<text text-anchor="start" x="102.2435" y="-190.5402" font-family="Helvetica,sans-Serif" font-size="10.00" fill="#000000">+getCaracter():CaracterTorneo</text>
<text text-anchor="start" x="93.344" y="-178.5402" font-family="Helvetica,sans-Serif" font-size="10.00" fill="#000000">+setFechaInicio(fechaInicio:Fecha)</text>
<text text-anchor="start" x="35.003" y="-166.5402" font-family="Helvetica,sans-Serif" font-size="10.00" fill="#000000">+setFechaInicioInscripciones(fechaInicioInscripciones:Fecha)</text>
<text text-anchor="start" x="31.124" y="-154.5402" font-family="Helvetica,sans-Serif" font-size="10.00" fill="#000000">+setFechaCierreInscripciones(fechaCierreInscripciones:Fecha)</text>
<text text-anchor="start" x="67.65" y="-142.5402" font-family="Helvetica,sans-Serif" font-size="10.00" fill="#000000">buscarParticipante(nombre:Texto):Participante</text>
<text text-anchor="start" x="58.8875" y="-130.5402" font-family="Helvetica,sans-Serif" font-size="10.00" fill="#000000">+registrarJugador(equipo:Equipo,jugador:Jugador)</text>
<text text-anchor="start" x="44.4445" y="-118.5402" font-family="Helvetica,sans-Serif" font-size="10.00" fill="#000000">+registrarJugador(nombreEquipo:Texto,jugador:Jugador)</text>
</g>
<!-- A1 -->
<g id="node2" class="node">
<title>A1</title>
<polygon fill="none" stroke="#000000" points="422.5,-516.5402 422.5,-560.5402 493.5,-560.5402 493.5,-516.5402 422.5,-516.5402"/>
<text text-anchor="start" x="433.264" y="-541.5402" font-family="Helvetica,sans-Serif" font-size="10.00" fill="#000000">&lt;&lt;Enum&gt;&gt;</text>
<text text-anchor="start" x="432.44" y="-529.5402" font-family="Helvetica,sans-Serif" font-size="10.00" fill="#000000">TipoTorneo</text>
<polygon fill="none" stroke="#000000" points="422.5,-448.5402 422.5,-516.5402 493.5,-516.5402 493.5,-448.5402 422.5,-448.5402"/>
<text text-anchor="start" x="441.6075" y="-497.5402" font-family="Helvetica,sans-Serif" font-size="10.00" fill="#000000">LOCAL</text>
<text text-anchor="start" x="432.164" y="-485.5402" font-family="Helvetica,sans-Serif" font-size="10.00" fill="#000000">REGIONAL</text>
<text text-anchor="start" x="432.444" y="-473.5402" font-family="Helvetica,sans-Serif" font-size="10.00" fill="#000000">NACIONAL</text>
<text text-anchor="start" x="435.5035" y="-461.5402" font-family="Helvetica,sans-Serif" font-size="10.00" fill="#000000">MUNDIAL</text>
</g>
<!-- A0&#45;&gt;A1 -->
<g id="edge3" class="edge">
<title>A0&#45;&gt;A1</title>
<path fill="none" stroke="#000000" d="M341.1799,-435.2344C367.8136,-451.1033 393.1507,-466.1996 413.338,-478.2276"/>
<polygon fill="#000000" stroke="#000000" points="421.9493,-483.3584 411.0552,-482.1057 417.654,-480.7991 413.3586,-478.2399 413.3586,-478.2399 413.3586,-478.2399 417.654,-480.7991 415.6619,-474.374 421.9493,-483.3584 421.9493,-483.3584"/>
<text text-anchor="middle" x="402.0513" y="-478.3417" font-family="Helvetica,sans-Serif" font-size="10.00" fill="#000000">tipoTorneo1</text>
<text text-anchor="middle" x="361.0779" y="-434.2512" font-family="Helvetica,sans-Serif" font-size="10.00" fill="#000000">*</text>
</g>
<!-- A4 -->
<g id="node5" class="node">
<title>A4</title>
<polygon fill="none" stroke="#000000" points="574,-276.5402 574,-320.5402 726,-320.5402 726,-276.5402 574,-276.5402"/>
<text text-anchor="start" x="619.151" y="-301.5402" font-family="Helvetica,sans-Serif" font-size="10.00" fill="#000000">&lt;&lt;interface&gt;&gt;</text>
<text text-anchor="start" x="623.6055" y="-289.5402" font-family="Helvetica,sans-Serif" font-size="10.00" fill="#000000">Participante</text>
<polygon fill="none" stroke="#000000" points="574,-244.5402 574,-276.5402 726,-276.5402 726,-244.5402 574,-244.5402"/>
<text text-anchor="start" x="583.7425" y="-257.5402" font-family="Helvetica,sans-Serif" font-size="10.00" fill="#000000">+getNombreCompleto():Texto</text>
</g>
<!-- A0&#45;&gt;A4 -->
<g id="edge4" class="edge">
<title>A0&#45;&gt;A4</title>
<path fill="none" stroke="#000000" d="M352.7987,-238.4482C365.5133,-234.146 378.3172,-230.4303 391,-227.5402 448.6336,-214.4066 466.1361,-215.4615 524,-227.5402 538.2378,-230.5122 552.8367,-235.1858 566.8181,-240.5823"/>
<polygon fill="none" stroke="#000000" points="352.4694,-238.5644 348.1423,-244.3329 341.1532,-242.5574 345.4803,-236.7888 352.4694,-238.5644"/>
<polygon fill="#000000" stroke="#000000" points="576.3868,-244.4219 565.4303,-244.8742 571.7465,-242.5599 567.1061,-240.6978 567.1061,-240.6978 567.1061,-240.6978 571.7465,-242.5599 568.7819,-236.5215 576.3868,-244.4219 576.3868,-244.4219"/>
<text text-anchor="middle" x="556.4168" y="-242.5161" font-family="Helvetica,sans-Serif" font-size="10.00" fill="#000000">participantes*</text>
<text text-anchor="middle" x="355.434" y="-225.5553" font-family="Helvetica,sans-Serif" font-size="10.00" fill="#000000">1</text>
</g>
<!-- A8 -->
<g id="node9" class="node">
<title>A8</title>
<polygon fill="none" stroke="#000000" points="412.5,-280.5402 412.5,-324.5402 502.5,-324.5402 502.5,-280.5402 412.5,-280.5402"/>
<text text-anchor="start" x="432.764" y="-305.5402" font-family="Helvetica,sans-Serif" font-size="10.00" fill="#000000">&lt;&lt;Enum&gt;&gt;</text>
<text text-anchor="start" x="422.4965" y="-293.5402" font-family="Helvetica,sans-Serif" font-size="10.00" fill="#000000">CaracterTorneo</text>
<polygon fill="none" stroke="#000000" points="412.5,-236.5402 412.5,-280.5402 502.5,-280.5402 502.5,-236.5402 412.5,-236.5402"/>
<text text-anchor="start" x="429.445" y="-261.5402" font-family="Helvetica,sans-Serif" font-size="10.00" fill="#000000">INDIVIDUAL</text>
<text text-anchor="start" x="436.943" y="-249.5402" font-family="Helvetica,sans-Serif" font-size="10.00" fill="#000000">GRUPAL</text>
</g>
<!-- A0&#45;&gt;A8 -->
<g id="edge2" class="edge">
<title>A0&#45;&gt;A8</title>
<path fill="none" stroke="#000000" d="M341.1799,-302.0209C363.2186,-297.951 384.3697,-294.0451 402.4497,-290.7063"/>
<polygon fill="#000000" stroke="#000000" points="412.443,-288.8608 403.4265,-295.1021 407.5261,-289.7688 402.6093,-290.6769 402.6093,-290.6769 402.6093,-290.6769 407.5261,-289.7688 401.792,-286.2517 412.443,-288.8608 412.443,-288.8608"/>
<text text-anchor="middle" x="396.1532" y="-297.4643" font-family="Helvetica,sans-Serif" font-size="10.00" fill="#000000">caracter1</text>
<text text-anchor="middle" x="357.4697" y="-287.4174" font-family="Helvetica,sans-Serif" font-size="10.00" fill="#000000">*</text>
</g>
<!-- A11 -->
<g id="node12" class="node">
<title>A11</title>
<polygon fill="none" stroke="#000000" points="391.5,-398.5402 391.5,-430.5402 524.5,-430.5402 524.5,-398.5402 391.5,-398.5402"/>
<text text-anchor="start" x="440.2185" y="-411.5402" font-family="Helvetica,sans-Serif" font-size="10.00" fill="#000000">Reporte</text>
<polygon fill="none" stroke="#000000" points="391.5,-342.5402 391.5,-398.5402 524.5,-398.5402 524.5,-342.5402 391.5,-342.5402"/>
<text text-anchor="start" x="430.4895" y="-379.5402" font-family="Helvetica,sans-Serif" font-size="10.00" fill="#000000">fecha:Fecha</text>
<text text-anchor="start" x="401.042" y="-367.5402" font-family="Helvetica,sans-Serif" font-size="10.00" fill="#000000">participanteA:Participante</text>
<text text-anchor="start" x="401.042" y="-355.5402" font-family="Helvetica,sans-Serif" font-size="10.00" fill="#000000">participanteB:Participante</text>
</g>
<!-- A0&#45;&gt;A11 -->
<g id="edge1" class="edge">
<title>A0&#45;&gt;A11</title>
<path fill="none" stroke="#000000" stroke-dasharray="5,2" d="M341.1799,-365.0595C354.9523,-367.6028 368.3781,-370.0821 380.9244,-372.399"/>
<polygon fill="#000000" stroke="#000000" points="390.7875,-374.2205 380.1366,-376.8296 385.8707,-373.3124 380.9538,-372.4044 380.9538,-372.4044 380.9538,-372.4044 385.8707,-373.3124 381.771,-367.9792 390.7875,-374.2205 390.7875,-374.2205"/>
</g>
<!-- A2 -->
<g id="node3" class="node">
<title>A2</title>
<polygon fill="none" stroke="#000000" points="1524.3483,-221.5402 1411.2167,-221.5402 1411.2167,-185.5402 1524.3483,-185.5402 1524.3483,-221.5402"/>
<text text-anchor="middle" x="1467.7825" y="-206.5402" font-family="Helvetica,sans-Serif" font-size="10.00" fill="#000000">&lt;&lt;interface&gt;&gt;</text>
<text text-anchor="middle" x="1467.7825" y="-194.5402" font-family="Helvetica,sans-Serif" font-size="10.00" fill="#000000">RegistroEstadistica</text>
</g>
<!-- A3 -->
<g id="node4" class="node">
<title>A3</title>
<polygon fill="none" stroke="#000000" points="1575.065,-236.5402 1575.065,-268.5402 1766.065,-268.5402 1766.065,-236.5402 1575.065,-236.5402"/>
<text text-anchor="start" x="1618.3395" y="-249.5402" font-family="Helvetica,sans-Serif" font-size="10.00" fill="#000000">RegistroEstadisticaImpl</text>
<polygon fill="none" stroke="#000000" points="1575.065,-204.5402 1575.065,-236.5402 1766.065,-236.5402 1766.065,-204.5402 1575.065,-204.5402"/>
<text text-anchor="start" x="1584.718" y="-217.5402" font-family="Helvetica,sans-Serif" font-size="10.00" fill="#000000">estadisticas:ValorEstadistica［*］</text>
</g>
<!-- A2&#45;&gt;A3 -->
<g id="edge18" class="edge">
<title>A2&#45;&gt;A3</title>
<path fill="none" stroke="#000000" d="M1534.4511,-214.4164C1547.2319,-216.5014 1560.8469,-218.7225 1574.3332,-220.9227"/>
<polygon fill="none" stroke="#000000" points="1534.8315,-210.9322 1524.3984,-212.7764 1533.7044,-217.8409 1534.8315,-210.9322"/>
</g>
<!-- A2&#45;&gt;A4 -->
<g id="edge17" class="edge">
<title>A2&#45;&gt;A4</title>
<path fill="none" stroke="#000000" d="M1417.4294,-225.5362C1399.7826,-232.7836 1379.6998,-240.5203 1361,-246.5402 1112.2099,-326.6313 1036.2074,-331.101 776,-306.5402 759.8161,-305.0126 742.6165,-302.4047 726.2964,-299.4567"/>
<polygon fill="none" stroke="#000000" points="1419.0684,-228.6452 1426.9583,-221.5741 1416.3809,-222.1817 1419.0684,-228.6452"/>
</g>
<!-- A3JA9 -->
<!-- A3&#45;&gt;A3JA9 -->
<g id="edge10" class="edge">
<title>A3&#45;&gt;A3JA9</title>
<path fill="none" stroke="#000000" d="M1765.7287,-237.4758C1815.6256,-237.9638 1867.6227,-238.4723 1873.9274,-238.5339"/>
<text text-anchor="middle" x="1783.9367" y="-226.2011" font-family="Helvetica,sans-Serif" font-size="10.00" fill="#000000">*</text>
</g>
<!-- A5 -->
<g id="node6" class="node">
<title>A5</title>
<polygon fill="none" stroke="#000000" points="788.5,-124.5402 788.5,-156.5402 965.5,-156.5402 965.5,-124.5402 788.5,-124.5402"/>
<text text-anchor="start" x="861.438" y="-137.5402" font-family="Helvetica,sans-Serif" font-size="10.00" fill="#000000">Equipo</text>
<polygon fill="none" stroke="#000000" points="788.5,-92.5402 788.5,-124.5402 965.5,-124.5402 965.5,-92.5402 788.5,-92.5402"/>
<text text-anchor="start" x="846.1605" y="-105.5402" font-family="Helvetica,sans-Serif" font-size="10.00" fill="#000000">nombre:Texto</text>
<polygon fill="none" stroke="#000000" points="788.5,-.5402 788.5,-92.5402 965.5,-92.5402 965.5,-.5402 788.5,-.5402"/>
<text text-anchor="start" x="815.741" y="-73.5402" font-family="Helvetica,sans-Serif" font-size="10.00" fill="#000000">+Constructor(nombre:Texto</text>
<text text-anchor="start" x="824.485" y="-61.5402" font-family="Helvetica,sans-Serif" font-size="10.00" fill="#000000">representante:Persona)</text>
<text text-anchor="start" x="832.1335" y="-49.5402" font-family="Helvetica,sans-Serif" font-size="10.00" fill="#000000">+getNombre():Texto</text>
<text text-anchor="start" x="811.0075" y="-37.5402" font-family="Helvetica,sans-Serif" font-size="10.00" fill="#000000">+getRepresentante():Persona</text>
<text text-anchor="start" x="798.507" y="-25.5402" font-family="Helvetica,sans-Serif" font-size="10.00" fill="#000000">+getJugadores():Jugador［*］</text>
<text text-anchor="start" x="798.2355" y="-13.5402" font-family="Helvetica,sans-Serif" font-size="10.00" fill="#000000">+registrarJugador(jugador:Jugador)</text>
</g>
<!-- A4&#45;&gt;A5 -->
<g id="edge9" class="edge">
<title>A4&#45;&gt;A5</title>
<path fill="none" stroke="#000000" d="M699.9379,-237.563C726.3006,-213.8191 759.4074,-184.0011 789.8083,-156.6201"/>
<polygon fill="none" stroke="#000000" points="697.4254,-235.1156 692.3372,-244.4086 702.1101,-240.3169 697.4254,-235.1156"/>
</g>
<!-- A7 -->
<g id="node8" class="node">
<title>A7</title>
<polygon fill="none" stroke="#000000" points="1219,-205.5402 1219,-237.5402 1361,-237.5402 1361,-205.5402 1219,-205.5402"/>
<text text-anchor="start" x="1271.938" y="-218.5402" font-family="Helvetica,sans-Serif" font-size="10.00" fill="#000000">Jugador</text>
<polygon fill="none" stroke="#000000" points="1219,-173.5402 1219,-205.5402 1361,-205.5402 1361,-173.5402 1219,-173.5402"/>
<text text-anchor="start" x="1237.489" y="-186.5402" font-family="Helvetica,sans-Serif" font-size="10.00" fill="#000000">fechaNacimiento:Fecha</text>
<polygon fill="none" stroke="#000000" points="1219,-93.5402 1219,-173.5402 1361,-173.5402 1361,-93.5402 1219,-93.5402"/>
<text text-anchor="start" x="1228.741" y="-154.5402" font-family="Helvetica,sans-Serif" font-size="10.00" fill="#000000">+Constructor(nombre:Texto</text>
<text text-anchor="start" x="1258.8815" y="-142.5402" font-family="Helvetica,sans-Serif" font-size="10.00" fill="#000000">apellido:Texto</text>
<text text-anchor="start" x="1264.165" y="-130.5402" font-family="Helvetica,sans-Serif" font-size="10.00" fill="#000000">email:Texto</text>
<text text-anchor="start" x="1261.3855" y="-118.5402" font-family="Helvetica,sans-Serif" font-size="10.00" fill="#000000">celular:Texto</text>
<text text-anchor="start" x="1235.8245" y="-106.5402" font-family="Helvetica,sans-Serif" font-size="10.00" fill="#000000">fechaNacimiento:Fecha)</text>
</g>
<!-- A4&#45;&gt;A7 -->
<g id="edge8" class="edge">
<title>A4&#45;&gt;A7</title>
<path fill="none" stroke="#000000" d="M736.3858,-295.6036C842.1129,-307.9878 1024.848,-317.5816 1169,-263.5402 1186.5921,-256.945 1203.5504,-246.7079 1218.9224,-235.2923"/>
<polygon fill="none" stroke="#000000" points="736.7457,-292.1218 726.3984,-294.3985 735.9071,-299.0714 736.7457,-292.1218"/>
</g>
<!-- A5&#45;&gt;A2 -->
<g id="edge20" class="edge">
<title>A5&#45;&gt;A2</title>
<path fill="none" stroke="#000000" d="M965.0341,-30.3823C984.8769,-21.7562 1006.2191,-14.0769 1027,-9.5402 1088.6589,3.9206 1106.9798,2.1433 1169,-9.5402 1259.0292,-26.5 1285.6967,-32.3644 1361,-84.5402 1397.6933,-109.964 1430.4255,-150.4074 1449.6928,-176.9663"/>
<polygon fill="#000000" stroke="#000000" points="1455.6969,-185.3992 1446.2311,-179.8631 1452.7969,-181.3261 1449.8969,-177.253 1449.8969,-177.253 1449.8969,-177.253 1452.7969,-181.3261 1453.5627,-174.643 1455.6969,-185.3992 1455.6969,-185.3992"/>
</g>
<!-- A6 -->
<g id="node7" class="node">
<title>A6</title>
<polygon fill="none" stroke="#000000" points="1027,-222.5402 1027,-254.5402 1169,-254.5402 1169,-222.5402 1027,-222.5402"/>
<text text-anchor="start" x="1079.383" y="-235.5402" font-family="Helvetica,sans-Serif" font-size="10.00" fill="#000000">Persona</text>
<polygon fill="none" stroke="#000000" points="1027,-154.5402 1027,-222.5402 1169,-222.5402 1169,-154.5402 1027,-154.5402"/>
<text text-anchor="start" x="1067.1605" y="-203.5402" font-family="Helvetica,sans-Serif" font-size="10.00" fill="#000000">nombre:Texto</text>
<text text-anchor="start" x="1066.8815" y="-191.5402" font-family="Helvetica,sans-Serif" font-size="10.00" fill="#000000">apellido:Texto</text>
<text text-anchor="start" x="1072.165" y="-179.5402" font-family="Helvetica,sans-Serif" font-size="10.00" fill="#000000">email:Texto</text>
<text text-anchor="start" x="1069.3855" y="-167.5402" font-family="Helvetica,sans-Serif" font-size="10.00" fill="#000000">celular:Texto</text>
<polygon fill="none" stroke="#000000" points="1027,-38.5402 1027,-154.5402 1169,-154.5402 1169,-38.5402 1027,-38.5402"/>
<text text-anchor="start" x="1036.741" y="-135.5402" font-family="Helvetica,sans-Serif" font-size="10.00" fill="#000000">+Constructor(nombre:Texto</text>
<text text-anchor="start" x="1066.8815" y="-123.5402" font-family="Helvetica,sans-Serif" font-size="10.00" fill="#000000">apellido:Texto</text>
<text text-anchor="start" x="1072.165" y="-111.5402" font-family="Helvetica,sans-Serif" font-size="10.00" fill="#000000">email:Texto</text>
<text text-anchor="start" x="1067.721" y="-99.5402" font-family="Helvetica,sans-Serif" font-size="10.00" fill="#000000">celular:Texto)</text>
<text text-anchor="start" x="1053.1335" y="-87.5402" font-family="Helvetica,sans-Serif" font-size="10.00" fill="#000000">+getNombre():Texto</text>
<text text-anchor="start" x="1053.1295" y="-75.5402" font-family="Helvetica,sans-Serif" font-size="10.00" fill="#000000">+getApellido():Texto</text>
<text text-anchor="start" x="1058.413" y="-63.5402" font-family="Helvetica,sans-Serif" font-size="10.00" fill="#000000">+getEmail():Texto</text>
<text text-anchor="start" x="1055.079" y="-51.5402" font-family="Helvetica,sans-Serif" font-size="10.00" fill="#000000">+getCelular():Texto</text>
</g>
<!-- A5&#45;&gt;A6 -->
<g id="edge5" class="edge">
<title>A5&#45;&gt;A6</title>
<path fill="none" stroke="#000000" d="M976.9157,-109.3676C990.3488,-113.4915 1003.9865,-117.6782 1017.0289,-121.6822"/>
<polygon fill="none" stroke="#000000" points="976.7878,-109.3284 969.8781,-111.3913 965.3163,-105.8066 972.226,-103.7436 976.7878,-109.3284"/>
<polygon fill="#000000" stroke="#000000" points="1026.8733,-124.7044 1015.993,-126.0714 1022.0935,-123.237 1017.3136,-121.7696 1017.3136,-121.7696 1017.3136,-121.7696 1022.0935,-123.237 1018.6343,-117.4677 1026.8733,-124.7044 1026.8733,-124.7044"/>
<text text-anchor="middle" x="1007.0647" y="-124.465" font-family="Helvetica,sans-Serif" font-size="10.00" fill="#000000">representante1</text>
<text text-anchor="middle" x="985.1248" y="-100.046" font-family="Helvetica,sans-Serif" font-size="10.00" fill="#000000">1</text>
</g>
<!-- A5&#45;&gt;A7 -->
<g id="edge7" class="edge">
<title>A5&#45;&gt;A7</title>
<path fill="none" stroke="#000000" d="M976.7404,-34.1011C1034.979,-14.9349 1108.5564,-2.4136 1169,-29.5402 1195.9525,-41.6363 1219.3551,-63.0321 1238.2066,-85.3232"/>
<polygon fill="none" stroke="#000000" points="976.6596,-34.1287 972.2775,-39.8556 965.3057,-38.0132 969.6878,-32.2863 976.6596,-34.1287"/>
<polygon fill="#000000" stroke="#000000" points="1244.6831,-93.2315 1234.8656,-88.346 1241.5151,-89.3631 1238.3471,-85.4948 1238.3471,-85.4948 1238.3471,-85.4948 1241.5151,-89.3631 1241.8286,-82.6436 1244.6831,-93.2315 1244.6831,-93.2315"/>
<text text-anchor="middle" x="1226.6591" y="-81.5634" font-family="Helvetica,sans-Serif" font-size="10.00" fill="#000000">jugador*</text>
<text text-anchor="middle" x="979.7199" y="-21.1485" font-family="Helvetica,sans-Serif" font-size="10.00" fill="#000000">1</text>
</g>
<!-- A6&#45;&gt;A7 -->
<g id="edge6" class="edge">
<title>A6&#45;&gt;A7</title>
<path fill="none" stroke="#000000" d="M1179.2143,-154.577C1192.4022,-155.8821 1205.9714,-157.2248 1218.8942,-158.5037"/>
<polygon fill="none" stroke="#000000" points="1179.517,-151.0899 1169.2209,-153.5881 1178.8276,-158.0559 1179.517,-151.0899"/>
</g>
<!-- A7&#45;&gt;A2 -->
<g id="edge19" class="edge">
<title>A7&#45;&gt;A2</title>
<path fill="none" stroke="#000000" d="M1361.0308,-180.7226C1374.2872,-183.5561 1388.0962,-186.5077 1401.2121,-189.3111"/>
<polygon fill="#000000" stroke="#000000" points="1411.0862,-191.4217 1400.3664,-193.7319 1406.1966,-190.3765 1401.3071,-189.3313 1401.3071,-189.3313 1401.3071,-189.3313 1406.1966,-190.3765 1402.2477,-184.9307 1411.0862,-191.4217 1411.0862,-191.4217"/>
</g>
<!-- A9 -->
<g id="node10" class="node">
<title>A9</title>
<polygon fill="none" stroke="#000000" points="1984.065,-238.5402 1984.065,-270.5402 2065.065,-270.5402 2065.065,-238.5402 1984.065,-238.5402"/>
<text text-anchor="start" x="2000.394" y="-251.5402" font-family="Helvetica,sans-Serif" font-size="10.00" fill="#000000">Estadistica</text>
<polygon fill="none" stroke="#000000" points="1984.065,-206.5402 1984.065,-238.5402 2065.065,-238.5402 2065.065,-206.5402 1984.065,-206.5402"/>
<text text-anchor="start" x="1993.7255" y="-219.5402" font-family="Helvetica,sans-Serif" font-size="10.00" fill="#000000">nombre:Texto</text>
</g>
<!-- A13 -->
<g id="node14" class="node">
<title>A13</title>
<polygon fill="none" stroke="#000000" points="2115.065,-244.5402 2115.065,-288.5402 2202.065,-288.5402 2202.065,-244.5402 2115.065,-244.5402"/>
<text text-anchor="start" x="2133.829" y="-269.5402" font-family="Helvetica,sans-Serif" font-size="10.00" fill="#000000">&lt;&lt;Enum&gt;&gt;</text>
<text text-anchor="start" x="2124.671" y="-257.5402" font-family="Helvetica,sans-Serif" font-size="10.00" fill="#000000">TipoEstadistica</text>
<polygon fill="none" stroke="#000000" points="2115.065,-188.5402 2115.065,-244.5402 2202.065,-244.5402 2202.065,-188.5402 2115.065,-188.5402"/>
<text text-anchor="start" x="2135.504" y="-225.5402" font-family="Helvetica,sans-Serif" font-size="10.00" fill="#000000">POSITIVA</text>
<text text-anchor="start" x="2133.284" y="-213.5402" font-family="Helvetica,sans-Serif" font-size="10.00" fill="#000000">NEGATIVA</text>
<text text-anchor="start" x="2138.013" y="-201.5402" font-family="Helvetica,sans-Serif" font-size="10.00" fill="#000000">NEUTRA</text>
</g>
<!-- A9&#45;&gt;A13 -->
<g id="edge13" class="edge">
<title>A9&#45;&gt;A13</title>
<path fill="none" stroke="#000000" d="M2064.6331,-238.5402C2077.0326,-238.5402 2090.8705,-238.5402 2104.0168,-238.5402"/>
<polygon fill="#000000" stroke="#000000" points="2114.3709,-238.5402 2104.371,-243.0403 2109.3709,-238.5402 2104.3709,-238.5403 2104.3709,-238.5403 2104.3709,-238.5403 2109.3709,-238.5402 2104.3709,-234.0403 2114.3709,-238.5402 2114.3709,-238.5402"/>
<text text-anchor="middle" x="2096.2448" y="-243.9925" font-family="Helvetica,sans-Serif" font-size="10.00" fill="#000000">tipo1</text>
<text text-anchor="middle" x="2082.7592" y="-227.0878" font-family="Helvetica,sans-Serif" font-size="10.00" fill="#000000">*</text>
</g>
<!-- A10 -->
<g id="node11" class="node">
<title>A10</title>
<polygon fill="none" stroke="#000000" points="1815.565,-301.5402 1815.565,-333.5402 1933.565,-333.5402 1933.565,-301.5402 1815.565,-301.5402"/>
<text text-anchor="start" x="1838.7265" y="-314.5402" font-family="Helvetica,sans-Serif" font-size="10.00" fill="#000000">ValorEstadistica</text>
<polygon fill="none" stroke="#000000" points="1815.565,-257.5402 1815.565,-301.5402 1933.565,-301.5402 1933.565,-257.5402 1815.565,-257.5402"/>
<text text-anchor="start" x="1852.0645" y="-282.5402" font-family="Helvetica,sans-Serif" font-size="10.00" fill="#000000">valor:Real</text>
<text text-anchor="start" x="1825.3885" y="-270.5402" font-family="Helvetica,sans-Serif" font-size="10.00" fill="#000000">estadistica:Estadistica</text>
</g>
<!-- A10&#45;&gt;A3JA9 -->
<g id="edge12" class="edge">
<title>A10&#45;&gt;A3JA9</title>
<path fill="none" stroke="#000000" stroke-dasharray="5,2" d="M1874.565,-257.1007C1874.565,-254.4589 1874.565,-251.8171 1874.565,-249.1753"/>
<polygon fill="#000000" stroke="#000000" points="1874.565,-238.9855 1879.0651,-248.9854 1874.565,-243.9855 1874.5651,-248.9855 1874.5651,-248.9855 1874.5651,-248.9855 1874.565,-243.9855 1870.0651,-248.9855 1874.565,-238.9855 1874.565,-238.9855"/>
</g>
<!-- A11&#45;&gt;A4 -->
<g id="edge16" class="edge">
<title>A11&#45;&gt;A4</title>
<path fill="none" stroke="#000000" d="M534.6772,-344.8444C546.4882,-338.4634 558.6983,-331.8668 570.5572,-325.4599"/>
<polygon fill="none" stroke="#000000" points="534.5749,-344.8997 531.1973,-351.2709 524.0171,-350.6036 527.3947,-344.2324 534.5749,-344.8997"/>
<polygon fill="#000000" stroke="#000000" points="579.5448,-320.6043 572.8857,-329.3167 575.1457,-322.9809 570.7467,-325.3576 570.7467,-325.3576 570.7467,-325.3576 575.1457,-322.9809 568.6077,-321.3984 579.5448,-320.6043 579.5448,-320.6043"/>
<text text-anchor="middle" x="567.6149" y="-333.6566" font-family="Helvetica,sans-Serif" font-size="10.00" fill="#000000">2</text>
<text text-anchor="middle" x="535.9471" y="-331.5513" font-family="Helvetica,sans-Serif" font-size="10.00" fill="#000000">*</text>
</g>
<!-- A12 -->
<g id="node13" class="node">
<title>A12</title>
<polygon fill="none" stroke="#000000" points="776.5,-392.5402 776.5,-424.5402 977.5,-424.5402 977.5,-392.5402 776.5,-392.5402"/>
<text text-anchor="start" x="840.607" y="-405.5402" font-family="Helvetica,sans-Serif" font-size="10.00" fill="#000000">RegistroReporte</text>
<polygon fill="none" stroke="#000000" points="776.5,-348.5402 776.5,-392.5402 977.5,-392.5402 977.5,-348.5402 776.5,-348.5402"/>
<text text-anchor="start" x="786.427" y="-373.5402" font-family="Helvetica,sans-Serif" font-size="10.00" fill="#000000">estadisticaParticipanteA:ValorEstadistica</text>
<text text-anchor="start" x="786.427" y="-361.5402" font-family="Helvetica,sans-Serif" font-size="10.00" fill="#000000">estadisticaParticipanteB:ValorEstadistica</text>
</g>
<!-- A11&#45;&gt;A12 -->
<g id="edge14" class="edge">
<title>A11&#45;&gt;A12</title>
<path fill="none" stroke="#000000" d="M536.653,-386.5402C601.4214,-386.5402 693.7692,-386.5402 765.8563,-386.5402"/>
<polygon fill="none" stroke="#000000" points="536.3551,-386.5403 530.3551,-390.5402 524.3551,-386.5402 530.3551,-382.5402 536.3551,-386.5403"/>
<polygon fill="#000000" stroke="#000000" points="775.8887,-386.5402 765.8888,-391.0403 770.8887,-386.5402 765.8887,-386.5403 765.8887,-386.5403 765.8887,-386.5403 770.8887,-386.5402 765.8887,-382.0403 775.8887,-386.5402 775.8887,-386.5402"/>
<text text-anchor="middle" x="757.7626" y="-391.9925" font-family="Helvetica,sans-Serif" font-size="10.00" fill="#000000">registros*</text>
<text text-anchor="middle" x="542.4813" y="-375.0878" font-family="Helvetica,sans-Serif" font-size="10.00" fill="#000000">1</text>
</g>
<!-- A12&#45;&gt;A10 -->
<g id="edge15" class="edge">
<title>A12&#45;&gt;A10</title>
<path fill="none" stroke="#000000" d="M989.1773,-380.666C1072.2974,-376.8342 1188.1623,-372.5402 1290,-372.5402 1290,-372.5402 1290,-372.5402 1467.7825,-372.5402 1588.0619,-372.5402 1724.9108,-339.638 1805.2712,-316.8488"/>
<polygon fill="none" stroke="#000000" points="989.1438,-380.6675 983.337,-384.9431 977.1569,-381.2274 982.9637,-376.9518 989.1438,-380.6675"/>
<polygon fill="#000000" stroke="#000000" points="1815.2665,-313.9836 1806.8937,-321.065 1810.4601,-315.3614 1805.6537,-316.7392 1805.6537,-316.7392 1805.6537,-316.7392 1810.4601,-315.3614 1804.4137,-312.4135 1815.2665,-313.9836 1815.2665,-313.9836"/>
<text text-anchor="middle" x="1800.1713" y="-324.1035" font-family="Helvetica,sans-Serif" font-size="10.00" fill="#000000">2</text>
<text text-anchor="middle" x="994.8689" y="-368.9386" font-family="Helvetica,sans-Serif" font-size="10.00" fill="#000000">*</text>
</g>
<!-- A3JA9&#45;&gt;A9 -->
<g id="edge11" class="edge">
<title>A3JA9&#45;&gt;A9</title>
<path fill="none" stroke="#000000" d="M1874.9939,-238.5402C1880.2199,-238.5402 1932.1653,-238.5402 1973.2863,-238.5402"/>
<polygon fill="#000000" stroke="#000000" points="1983.4726,-238.5402 1973.4726,-243.0403 1978.4726,-238.5402 1973.4726,-238.5403 1973.4726,-238.5403 1973.4726,-238.5403 1978.4726,-238.5402 1973.4726,-234.0403 1983.4726,-238.5402 1983.4726,-238.5402"/>
<text text-anchor="middle" x="1965.3464" y="-243.9925" font-family="Helvetica,sans-Serif" font-size="10.00" fill="#000000">*</text>
</g>
</g>
</svg>
