<?xml version="1.0" encoding="UTF-8" standalone="no"?>
<!DOCTYPE svg PUBLIC "-//W3C//DTD SVG 1.1//EN"
 "http://www.w3.org/Graphics/SVG/1.1/DTD/svg11.dtd">
<!-- Generated by graphviz version 2.40.1 (20161225.0304)
 -->
<!-- Title: G Pages: 1 -->
<svg width="1554pt" height="620pt"
 viewBox="0.00 0.00 1554.00 620.00" xmlns="http://www.w3.org/2000/svg" xmlns:xlink="http://www.w3.org/1999/xlink">
<g id="graph0" class="graph" transform="scale(1 1) rotate(0) translate(4 616)">
<title>G</title>
<polygon fill="#ffffff" stroke="transparent" points="-4,4 -4,-616 1550,-616 1550,4 -4,4"/>
<!-- A0 -->
<g id="node1" class="node">
<title>A0</title>
<polygon fill="none" stroke="#000000" points="0,-580 0,-612 360,-612 360,-580 0,-580"/>
<text text-anchor="start" x="164.163" y="-593" font-family="Helvetica,sans-Serif" font-size="10.00" fill="#000000">Torneo</text>
<polygon fill="none" stroke="#000000" points="0,-476 0,-580 360,-580 360,-476 0,-476"/>
<text text-anchor="start" x="149.1605" y="-561" font-family="Helvetica,sans-Serif" font-size="10.00" fill="#000000">nombre:Texto</text>
<text text-anchor="start" x="140.822" y="-549" font-family="Helvetica,sans-Serif" font-size="10.00" fill="#000000">fechaInicio:Fecha</text>
<text text-anchor="start" x="111.6515" y="-537" font-family="Helvetica,sans-Serif" font-size="10.00" fill="#000000">fechaInicioInscripciones:Fecha</text>
<text text-anchor="start" x="109.712" y="-525" font-family="Helvetica,sans-Serif" font-size="10.00" fill="#000000">fechaCierreInscripciones:Fecha</text>
<text text-anchor="start" x="118.042" y="-513" font-family="Helvetica,sans-Serif" font-size="10.00" fill="#000000">numeroParticipantes:Entero</text>
<text text-anchor="start" x="140.5485" y="-501" font-family="Helvetica,sans-Serif" font-size="10.00" fill="#000000">limiteEdad:Entero</text>
<text text-anchor="start" x="129.1595" y="-489" font-family="Helvetica,sans-Serif" font-size="10.00" fill="#000000">valorInscripcion:Entero</text>
<polygon fill="none" stroke="#000000" points="0,0 0,-476 360,-476 360,0 0,0"/>
<text text-anchor="start" x="118.741" y="-457" font-family="Helvetica,sans-Serif" font-size="10.00" fill="#000000">+Constructor(nombre:Texto</text>
<text text-anchor="start" x="140.822" y="-445" font-family="Helvetica,sans-Serif" font-size="10.00" fill="#000000">fechaInicio:Fecha</text>
<text text-anchor="start" x="111.6515" y="-433" font-family="Helvetica,sans-Serif" font-size="10.00" fill="#000000">fechaInicioInscripciones:Fecha</text>
<text text-anchor="start" x="109.712" y="-421" font-family="Helvetica,sans-Serif" font-size="10.00" fill="#000000">fechaCierreInscripciones:Fecha</text>
<text text-anchor="start" x="118.042" y="-409" font-family="Helvetica,sans-Serif" font-size="10.00" fill="#000000">numeroParticipantes:Entero</text>
<text text-anchor="start" x="140.5485" y="-397" font-family="Helvetica,sans-Serif" font-size="10.00" fill="#000000">limiteEdad:Entero</text>
<text text-anchor="start" x="129.1595" y="-385" font-family="Helvetica,sans-Serif" font-size="10.00" fill="#000000">valorInscripcion:Entero</text>
<text text-anchor="start" x="129.1555" y="-373" font-family="Helvetica,sans-Serif" font-size="10.00" fill="#000000">tipoTorneo:TipoTorneo</text>
<text text-anchor="start" x="19.288" y="-361" font-family="Helvetica,sans-Serif" font-size="10.00" fill="#000000">caracter:CaracterTorneo)+registrarParticipante(participante:Participante)</text>
<text text-anchor="start" x="135.1335" y="-349" font-family="Helvetica,sans-Serif" font-size="10.00" fill="#000000">+getNombre():Texto</text>
<text text-anchor="start" x="125.96" y="-337" font-family="Helvetica,sans-Serif" font-size="10.00" fill="#000000">+getFechaInicio():Fecha</text>
<text text-anchor="start" x="96.7895" y="-325" font-family="Helvetica,sans-Serif" font-size="10.00" fill="#000000">+getFechaInicioInscripciones():Fecha</text>
<text text-anchor="start" x="94.85" y="-313" font-family="Helvetica,sans-Serif" font-size="10.00" fill="#000000">+getFechaCierreInscripciones():Fecha</text>
<text text-anchor="start" x="104.015" y="-301" font-family="Helvetica,sans-Serif" font-size="10.00" fill="#000000">+getNumeroParticipantes():Entero</text>
<text text-anchor="start" x="125.6815" y="-289" font-family="Helvetica,sans-Serif" font-size="10.00" fill="#000000">+getLimiteEdad():Entero</text>
<text text-anchor="start" x="115.128" y="-277" font-family="Helvetica,sans-Serif" font-size="10.00" fill="#000000">+getValorInscripcion():Entero</text>
<text text-anchor="start" x="114.2935" y="-265" font-family="Helvetica,sans-Serif" font-size="10.00" fill="#000000">+getTipoTorneo():TipoTorneo</text>
<text text-anchor="start" x="87.6215" y="-253" font-family="Helvetica,sans-Serif" font-size="10.00" fill="#000000">+getParticipantes():Participante［*］</text>
<text text-anchor="start" x="111.2435" y="-241" font-family="Helvetica,sans-Serif" font-size="10.00" fill="#000000">+getCaracter():CaracterTorneo</text>
<text text-anchor="start" x="102.344" y="-229" font-family="Helvetica,sans-Serif" font-size="10.00" fill="#000000">+setFechaInicio(fechaInicio:Fecha)</text>
<text text-anchor="start" x="44.003" y="-217" font-family="Helvetica,sans-Serif" font-size="10.00" fill="#000000">+setFechaInicioInscripciones(fechaInicioInscripciones:Fecha)</text>
<text text-anchor="start" x="40.124" y="-205" font-family="Helvetica,sans-Serif" font-size="10.00" fill="#000000">+setFechaCierreInscripciones(fechaCierreInscripciones:Fecha)</text>
<text text-anchor="start" x="76.65" y="-193" font-family="Helvetica,sans-Serif" font-size="10.00" fill="#000000">buscarParticipante(nombre:Texto):Participante</text>
<text text-anchor="start" x="67.8875" y="-181" font-family="Helvetica,sans-Serif" font-size="10.00" fill="#000000">+registrarJugador(equipo:Equipo,jugador:Jugador)</text>
<text text-anchor="start" x="53.4445" y="-169" font-family="Helvetica,sans-Serif" font-size="10.00" fill="#000000">+registrarJugador(nombreEquipo:Texto,jugador:Jugador)</text>
<text text-anchor="start" x="52.896" y="-157" font-family="Helvetica,sans-Serif" font-size="10.00" fill="#000000">+registrarEstadisticaParticipante(participante:Participante</text>
<text text-anchor="start" x="110.5475" y="-145" font-family="Helvetica,sans-Serif" font-size="10.00" fill="#000000">estadistica:RegistroEstadistica)</text>
<text text-anchor="start" x="92.0685" y="-133" font-family="Helvetica,sans-Serif" font-size="10.00" fill="#000000">+getEstadisticas():Estadistica［*］</text>
<text text-anchor="start" x="69.2905" y="-121" font-family="Helvetica,sans-Serif" font-size="10.00" fill="#000000">+buscarMejor(estadistica:Estadistica):Participante</text>
<text text-anchor="start" x="78.1735" y="-109" font-family="Helvetica,sans-Serif" font-size="10.00" fill="#000000">+buscarSuperiorIgualA(estadistica:Estadistica</text>
<text text-anchor="start" x="105.548" y="-97" font-family="Helvetica,sans-Serif" font-size="10.00" fill="#000000">valor:Real):Participante［*］</text>
<text text-anchor="start" x="92.346" y="-85" font-family="Helvetica,sans-Serif" font-size="10.00" fill="#000000">+buscarInferiorA(estadistica:Estadistica</text>
<text text-anchor="start" x="105.548" y="-73" font-family="Helvetica,sans-Serif" font-size="10.00" fill="#000000">valor:Real):Participante［*］</text>
<text text-anchor="start" x="67.9005" y="-61" font-family="Helvetica,sans-Serif" font-size="10.00" fill="#000000">+promedioEstadistica(estadistica:Estadistica):Real</text>
<text text-anchor="start" x="9.8305" y="-49" font-family="Helvetica,sans-Serif" font-size="10.00" fill="#000000">+obtenerEstadisticas(participante:Participante):RegistroEstadistica［*］</text>
<text text-anchor="start" x="68.452" y="-37" font-family="Helvetica,sans-Serif" font-size="10.00" fill="#000000">+compararParticipantes(participanteA:Participante</text>
<text text-anchor="start" x="123.042" y="-25" font-family="Helvetica,sans-Serif" font-size="10.00" fill="#000000">participanteB:Participante</text>
<text text-anchor="start" x="113.0425" y="-13" font-family="Helvetica,sans-Serif" font-size="10.00" fill="#000000">estadistica:Estadistica):Entero</text>
</g>
<!-- A1 -->
<g id="node2" class="node">
<title>A1</title>
<polygon fill="none" stroke="#000000" points="441.5,-438 441.5,-482 512.5,-482 512.5,-438 441.5,-438"/>
<text text-anchor="start" x="452.264" y="-463" font-family="Helvetica,sans-Serif" font-size="10.00" fill="#000000">&lt;&lt;Enum&gt;&gt;</text>
<text text-anchor="start" x="451.44" y="-451" font-family="Helvetica,sans-Serif" font-size="10.00" fill="#000000">TipoTorneo</text>
<polygon fill="none" stroke="#000000" points="441.5,-370 441.5,-438 512.5,-438 512.5,-370 441.5,-370"/>
<text text-anchor="start" x="460.6075" y="-419" font-family="Helvetica,sans-Serif" font-size="10.00" fill="#000000">LOCAL</text>
<text text-anchor="start" x="451.164" y="-407" font-family="Helvetica,sans-Serif" font-size="10.00" fill="#000000">REGIONAL</text>
<text text-anchor="start" x="451.444" y="-395" font-family="Helvetica,sans-Serif" font-size="10.00" fill="#000000">NACIONAL</text>
<text text-anchor="start" x="454.5035" y="-383" font-family="Helvetica,sans-Serif" font-size="10.00" fill="#000000">MUNDIAL</text>
</g>
<!-- A0&#45;&gt;A1 -->
<g id="edge3" class="edge">
<title>A0&#45;&gt;A1</title>
<path fill="none" stroke="#000000" d="M360.1663,-378.9172C386.5317,-389.5879 411.4832,-399.6863 431.4673,-407.7743"/>
<polygon fill="#000000" stroke="#000000" points="440.863,-411.5769 429.9051,-411.9966 436.2282,-409.7011 431.5934,-407.8253 431.5934,-407.8253 431.5934,-407.8253 436.2282,-409.7011 433.2816,-403.6539 440.863,-411.5769 440.863,-411.5769"/>
<text text-anchor="middle" x="420.8898" y="-409.6117" font-family="Helvetica,sans-Serif" font-size="10.00" fill="#000000">tipoTorneo1</text>
<text text-anchor="middle" x="380.1396" y="-374.8825" font-family="Helvetica,sans-Serif" font-size="10.00" fill="#000000">*</text>
</g>
<!-- A2 -->
<g id="node3" class="node">
<title>A2</title>
<polygon fill="none" stroke="#000000" points="593.5,-382 593.5,-426 846.5,-426 846.5,-382 593.5,-382"/>
<text text-anchor="start" x="690.54" y="-407" font-family="Helvetica,sans-Serif" font-size="10.00" fill="#000000">&lt;&lt;abstract&gt;&gt;</text>
<text text-anchor="start" x="693.6055" y="-395" font-family="Helvetica,sans-Serif" font-size="10.00" fill="#000000">Participante</text>
<polygon fill="none" stroke="#000000" points="593.5,-350 593.5,-382 846.5,-382 846.5,-350 593.5,-350"/>
<text text-anchor="start" x="627.209" y="-363" font-family="Helvetica,sans-Serif" font-size="10.00" fill="#000000">estadisticas:RegistroEstadistica［*］</text>
<polygon fill="none" stroke="#000000" points="593.5,-258 593.5,-350 846.5,-350 846.5,-258 593.5,-258"/>
<text text-anchor="start" x="687.916" y="-331" font-family="Helvetica,sans-Serif" font-size="10.00" fill="#000000">+Constructor()</text>
<text text-anchor="start" x="613.457" y="-319" font-family="Helvetica,sans-Serif" font-size="10.00" fill="#000000">+getEstadisticas():RegistroEstadistica［*］</text>
<text text-anchor="start" x="624.2825" y="-307" font-family="Helvetica,sans-Serif" font-size="10.00" fill="#000000">+&lt;&lt;abstract&gt;&gt;getNombreCompleto():Texto</text>
<text text-anchor="start" x="603.4615" y="-295" font-family="Helvetica,sans-Serif" font-size="10.00" fill="#000000">+registrarEstadistica(estadistica:RegistroEstadistica)</text>
<text text-anchor="start" x="640.681" y="-283" font-family="Helvetica,sans-Serif" font-size="10.00" fill="#000000">+comparar(participante:Participante</text>
<text text-anchor="start" x="653.0425" y="-271" font-family="Helvetica,sans-Serif" font-size="10.00" fill="#000000">estadistica:Estadistica):Entero</text>
</g>
<!-- A0&#45;&gt;A2 -->
<g id="edge4" class="edge">
<title>A0&#45;&gt;A2</title>
<path fill="none" stroke="#000000" d="M372.384,-320.3982C385.1127,-321.2957 397.7393,-322.1706 410,-323 466.5141,-326.8231 528.8562,-330.7132 582.6886,-333.9694"/>
<polygon fill="none" stroke="#000000" points="372.1275,-320.3801 365.8596,-323.9458 360.1575,-319.5315 366.4254,-315.9658 372.1275,-320.3801"/>
<polygon fill="#000000" stroke="#000000" points="592.987,-334.5909 582.7341,-338.4802 587.9961,-334.2896 583.0052,-333.9884 583.0052,-333.9884 583.0052,-333.9884 587.9961,-334.2896 583.2763,-329.4966 592.987,-334.5909 592.987,-334.5909"/>
<text text-anchor="middle" x="574.3846" y="-338.936" font-family="Helvetica,sans-Serif" font-size="10.00" fill="#000000">participantes*</text>
<text text-anchor="middle" x="378.836" y="-309.382" font-family="Helvetica,sans-Serif" font-size="10.00" fill="#000000">1</text>
</g>
<!-- A6 -->
<g id="node7" class="node">
<title>A6</title>
<polygon fill="none" stroke="#000000" points="431.5,-164 431.5,-208 521.5,-208 521.5,-164 431.5,-164"/>
<text text-anchor="start" x="451.764" y="-189" font-family="Helvetica,sans-Serif" font-size="10.00" fill="#000000">&lt;&lt;Enum&gt;&gt;</text>
<text text-anchor="start" x="441.4965" y="-177" font-family="Helvetica,sans-Serif" font-size="10.00" fill="#000000">CaracterTorneo</text>
<polygon fill="none" stroke="#000000" points="431.5,-120 431.5,-164 521.5,-164 521.5,-120 431.5,-120"/>
<text text-anchor="start" x="448.445" y="-145" font-family="Helvetica,sans-Serif" font-size="10.00" fill="#000000">INDIVIDUAL</text>
<text text-anchor="start" x="455.943" y="-133" font-family="Helvetica,sans-Serif" font-size="10.00" fill="#000000">GRUPAL</text>
</g>
<!-- A0&#45;&gt;A6 -->
<g id="edge2" class="edge">
<title>A0&#45;&gt;A6</title>
<path fill="none" stroke="#000000" d="M360.1663,-219.7146C382.5745,-208.9829 403.9615,-198.7402 422.1454,-190.0316"/>
<polygon fill="#000000" stroke="#000000" points="431.3509,-185.6228 424.2756,-194.0009 426.8414,-187.7826 422.3318,-189.9423 422.3318,-189.9423 422.3318,-189.9423 426.8414,-187.7826 420.3881,-185.8837 431.3509,-185.6228 431.3509,-185.6228"/>
<text text-anchor="middle" x="418.6538" y="-198.0755" font-family="Helvetica,sans-Serif" font-size="10.00" fill="#000000">caracter1</text>
<text text-anchor="middle" x="372.8635" y="-201.262" font-family="Helvetica,sans-Serif" font-size="10.00" fill="#000000">*</text>
</g>
<!-- A9 -->
<g id="node10" class="node">
<title>A9</title>
<polygon fill="none" stroke="#000000" points="410.5,-282 410.5,-314 543.5,-314 543.5,-282 410.5,-282"/>
<text text-anchor="start" x="459.2185" y="-295" font-family="Helvetica,sans-Serif" font-size="10.00" fill="#000000">Reporte</text>
<polygon fill="none" stroke="#000000" points="410.5,-226 410.5,-282 543.5,-282 543.5,-226 410.5,-226"/>
<text text-anchor="start" x="449.4895" y="-263" font-family="Helvetica,sans-Serif" font-size="10.00" fill="#000000">fecha:Fecha</text>
<text text-anchor="start" x="420.042" y="-251" font-family="Helvetica,sans-Serif" font-size="10.00" fill="#000000">participanteA:Participante</text>
<text text-anchor="start" x="420.042" y="-239" font-family="Helvetica,sans-Serif" font-size="10.00" fill="#000000">participanteB:Participante</text>
</g>
<!-- A0&#45;&gt;A9 -->
<g id="edge1" class="edge">
<title>A0&#45;&gt;A9</title>
<path fill="none" stroke="#000000" stroke-dasharray="5,2" d="M360.1663,-284.1248C373.9032,-282.4569 387.2563,-280.8357 399.723,-279.322"/>
<polygon fill="#000000" stroke="#000000" points="409.9755,-278.0772 400.5908,-283.7498 405.0119,-278.6799 400.0484,-279.2826 400.0484,-279.2826 400.0484,-279.2826 405.0119,-278.6799 399.506,-274.8154 409.9755,-278.0772 409.9755,-278.0772"/>
</g>
<!-- A3 -->
<g id="node4" class="node">
<title>A3</title>
<polygon fill="none" stroke="#000000" points="923.5,-397 923.5,-429 1100.5,-429 1100.5,-397 923.5,-397"/>
<text text-anchor="start" x="996.438" y="-410" font-family="Helvetica,sans-Serif" font-size="10.00" fill="#000000">Equipo</text>
<polygon fill="none" stroke="#000000" points="923.5,-365 923.5,-397 1100.5,-397 1100.5,-365 923.5,-365"/>
<text text-anchor="start" x="981.1605" y="-378" font-family="Helvetica,sans-Serif" font-size="10.00" fill="#000000">nombre:Texto</text>
<polygon fill="none" stroke="#000000" points="923.5,-273 923.5,-365 1100.5,-365 1100.5,-273 923.5,-273"/>
<text text-anchor="start" x="950.741" y="-346" font-family="Helvetica,sans-Serif" font-size="10.00" fill="#000000">+Constructor(nombre:Texto</text>
<text text-anchor="start" x="959.485" y="-334" font-family="Helvetica,sans-Serif" font-size="10.00" fill="#000000">representante:Persona)</text>
<text text-anchor="start" x="967.1335" y="-322" font-family="Helvetica,sans-Serif" font-size="10.00" fill="#000000">+getNombre():Texto</text>
<text text-anchor="start" x="946.0075" y="-310" font-family="Helvetica,sans-Serif" font-size="10.00" fill="#000000">+getRepresentante():Persona</text>
<text text-anchor="start" x="933.507" y="-298" font-family="Helvetica,sans-Serif" font-size="10.00" fill="#000000">+getJugadores():Jugador［*］</text>
<text text-anchor="start" x="933.2355" y="-286" font-family="Helvetica,sans-Serif" font-size="10.00" fill="#000000">+registrarJugador(jugador:Jugador)</text>
</g>
<!-- A2&#45;&gt;A3 -->
<g id="edge9" class="edge">
<title>A2&#45;&gt;A3</title>
<path fill="none" stroke="#000000" d="M856.5777,-346.225C879.0034,-346.9162 901.7108,-347.6161 922.5731,-348.2591"/>
<polygon fill="none" stroke="#000000" points="856.4046,-342.7181 846.3015,-345.9083 856.1889,-349.7148 856.4046,-342.7181"/>
</g>
<!-- A5 -->
<g id="node6" class="node">
<title>A5</title>
<polygon fill="none" stroke="#000000" points="1369.5,-403 1369.5,-435 1546.5,-435 1546.5,-403 1369.5,-403"/>
<text text-anchor="start" x="1439.938" y="-416" font-family="Helvetica,sans-Serif" font-size="10.00" fill="#000000">Jugador</text>
<polygon fill="none" stroke="#000000" points="1369.5,-371 1369.5,-403 1546.5,-403 1546.5,-371 1369.5,-371"/>
<text text-anchor="start" x="1405.489" y="-384" font-family="Helvetica,sans-Serif" font-size="10.00" fill="#000000">fechaNacimiento:Fecha</text>
<polygon fill="none" stroke="#000000" points="1369.5,-267 1369.5,-371 1546.5,-371 1546.5,-267 1369.5,-267"/>
<text text-anchor="start" x="1396.741" y="-352" font-family="Helvetica,sans-Serif" font-size="10.00" fill="#000000">+Constructor(nombre:Texto</text>
<text text-anchor="start" x="1426.8815" y="-340" font-family="Helvetica,sans-Serif" font-size="10.00" fill="#000000">apellido:Texto</text>
<text text-anchor="start" x="1432.165" y="-328" font-family="Helvetica,sans-Serif" font-size="10.00" fill="#000000">email:Texto</text>
<text text-anchor="start" x="1429.3855" y="-316" font-family="Helvetica,sans-Serif" font-size="10.00" fill="#000000">celular:Texto</text>
<text text-anchor="start" x="1403.8245" y="-304" font-family="Helvetica,sans-Serif" font-size="10.00" fill="#000000">fechaNacimiento:Fecha)</text>
<text text-anchor="start" x="1390.627" y="-292" font-family="Helvetica,sans-Serif" font-size="10.00" fill="#000000">+getFechaNacimiento():Fecha</text>
<text text-anchor="start" x="1379.2295" y="-280" font-family="Helvetica,sans-Serif" font-size="10.00" fill="#000000">+calcularEdad(fecha:Fecha):Entero</text>
</g>
<!-- A2&#45;&gt;A5 -->
<g id="edge8" class="edge">
<title>A2&#45;&gt;A5</title>
<path fill="none" stroke="#000000" d="M855.3504,-422.5575C868.7923,-428.4847 882.4717,-433.7817 896,-438 1075.9282,-494.1036 1142.0011,-532.7548 1319,-468 1339.3966,-460.5379 1358.8598,-448.5987 1376.411,-435.1378"/>
<polygon fill="none" stroke="#000000" points="856.6401,-419.2994 846.0871,-418.3589 853.7503,-425.6751 856.6401,-419.2994"/>
</g>
<!-- A2JA7 -->
<!-- A2&#45;&gt;A2JA7 -->
<g id="edge10" class="edge">
<title>A2&#45;&gt;A2JA7</title>
<path fill="none" stroke="#000000" d="M832.8077,-257.7839C837.5467,-252.3675 841.9844,-246.7651 846,-241 886.4054,-182.9902 840.343,-133.5893 896,-90 934.6364,-59.7408 1004.5478,-78.9872 1011.0171,-80.858"/>
<text text-anchor="middle" x="838.2882" y="-235.5494" font-family="Helvetica,sans-Serif" font-size="10.00" fill="#000000">*</text>
</g>
<!-- A4 -->
<g id="node5" class="node">
<title>A4</title>
<polygon fill="none" stroke="#000000" points="1177,-427 1177,-459 1319,-459 1319,-427 1177,-427"/>
<text text-anchor="start" x="1229.383" y="-440" font-family="Helvetica,sans-Serif" font-size="10.00" fill="#000000">Persona</text>
<polygon fill="none" stroke="#000000" points="1177,-359 1177,-427 1319,-427 1319,-359 1177,-359"/>
<text text-anchor="start" x="1217.1605" y="-408" font-family="Helvetica,sans-Serif" font-size="10.00" fill="#000000">nombre:Texto</text>
<text text-anchor="start" x="1216.8815" y="-396" font-family="Helvetica,sans-Serif" font-size="10.00" fill="#000000">apellido:Texto</text>
<text text-anchor="start" x="1222.165" y="-384" font-family="Helvetica,sans-Serif" font-size="10.00" fill="#000000">email:Texto</text>
<text text-anchor="start" x="1219.3855" y="-372" font-family="Helvetica,sans-Serif" font-size="10.00" fill="#000000">celular:Texto</text>
<polygon fill="none" stroke="#000000" points="1177,-243 1177,-359 1319,-359 1319,-243 1177,-243"/>
<text text-anchor="start" x="1186.741" y="-340" font-family="Helvetica,sans-Serif" font-size="10.00" fill="#000000">+Constructor(nombre:Texto</text>
<text text-anchor="start" x="1216.8815" y="-328" font-family="Helvetica,sans-Serif" font-size="10.00" fill="#000000">apellido:Texto</text>
<text text-anchor="start" x="1222.165" y="-316" font-family="Helvetica,sans-Serif" font-size="10.00" fill="#000000">email:Texto</text>
<text text-anchor="start" x="1217.721" y="-304" font-family="Helvetica,sans-Serif" font-size="10.00" fill="#000000">celular:Texto)</text>
<text text-anchor="start" x="1203.1335" y="-292" font-family="Helvetica,sans-Serif" font-size="10.00" fill="#000000">+getNombre():Texto</text>
<text text-anchor="start" x="1203.1295" y="-280" font-family="Helvetica,sans-Serif" font-size="10.00" fill="#000000">+getApellido():Texto</text>
<text text-anchor="start" x="1208.413" y="-268" font-family="Helvetica,sans-Serif" font-size="10.00" fill="#000000">+getEmail():Texto</text>
<text text-anchor="start" x="1205.079" y="-256" font-family="Helvetica,sans-Serif" font-size="10.00" fill="#000000">+getCelular():Texto</text>
</g>
<!-- A3&#45;&gt;A4 -->
<g id="edge5" class="edge">
<title>A3&#45;&gt;A4</title>
<path fill="none" stroke="#000000" d="M1112.5183,-351C1130.6199,-351 1149.2721,-351 1166.7287,-351"/>
<polygon fill="none" stroke="#000000" points="1112.2367,-351.0001 1106.2367,-355 1100.2367,-351 1106.2368,-347 1112.2367,-351.0001"/>
<polygon fill="#000000" stroke="#000000" points="1176.8556,-351 1166.8556,-355.5001 1171.8556,-351 1166.8556,-351.0001 1166.8556,-351.0001 1166.8556,-351.0001 1171.8556,-351 1166.8555,-346.5001 1176.8556,-351 1176.8556,-351"/>
<text text-anchor="middle" x="1158.7294" y="-356.4524" font-family="Helvetica,sans-Serif" font-size="10.00" fill="#000000">representante1</text>
<text text-anchor="middle" x="1118.3629" y="-339.5476" font-family="Helvetica,sans-Serif" font-size="10.00" fill="#000000">1</text>
</g>
<!-- A3&#45;&gt;A5 -->
<g id="edge7" class="edge">
<title>A3&#45;&gt;A5</title>
<path fill="none" stroke="#000000" d="M1110.27,-277.5562C1140.7047,-255.6615 1168.4893,-236.7045 1177,-234 1237.1472,-214.8865 1259.7308,-212.3164 1319,-234 1336.2096,-240.2961 1352.7548,-249.7796 1368.0475,-260.6751"/>
<polygon fill="none" stroke="#000000" points="1110.0418,-277.7212 1107.5225,-284.4779 1100.3166,-284.7512 1102.8358,-277.9945 1110.0418,-277.7212"/>
<polygon fill="#000000" stroke="#000000" points="1376.411,-266.8622 1365.6954,-264.5326 1372.3913,-263.8885 1368.3717,-260.9149 1368.3717,-260.9149 1368.3717,-260.9149 1372.3913,-263.8885 1371.048,-257.2972 1376.411,-266.8622 1376.411,-266.8622"/>
<text text-anchor="middle" x="1356.812" y="-259.8772" font-family="Helvetica,sans-Serif" font-size="10.00" fill="#000000">jugador*</text>
<text text-anchor="middle" x="1110.0549" y="-264.2823" font-family="Helvetica,sans-Serif" font-size="10.00" fill="#000000">1</text>
</g>
<!-- A4&#45;&gt;A5 -->
<g id="edge6" class="edge">
<title>A4&#45;&gt;A5</title>
<path fill="none" stroke="#000000" d="M1329.4161,-351C1342.2824,-351 1355.6436,-351 1368.6686,-351"/>
<polygon fill="none" stroke="#000000" points="1329.2195,-347.5001 1319.2195,-351 1329.2194,-354.5001 1329.2195,-347.5001"/>
</g>
<!-- A7 -->
<g id="node8" class="node">
<title>A7</title>
<polygon fill="none" stroke="#000000" points="1177,-115 1177,-147 1319,-147 1319,-115 1177,-115"/>
<text text-anchor="start" x="1223.829" y="-128" font-family="Helvetica,sans-Serif" font-size="10.00" fill="#000000">Estadistica</text>
<polygon fill="none" stroke="#000000" points="1177,-83 1177,-115 1319,-115 1319,-83 1177,-83"/>
<text text-anchor="start" x="1217.1605" y="-96" font-family="Helvetica,sans-Serif" font-size="10.00" fill="#000000">nombre:Texto</text>
<polygon fill="none" stroke="#000000" points="1177,-15 1177,-83 1319,-83 1319,-15 1177,-15"/>
<text text-anchor="start" x="1186.741" y="-64" font-family="Helvetica,sans-Serif" font-size="10.00" fill="#000000">+Constructor(nombre:Texto</text>
<text text-anchor="start" x="1202.994" y="-52" font-family="Helvetica,sans-Serif" font-size="10.00" fill="#000000">tipo:TipoEstadistica)</text>
<text text-anchor="start" x="1203.1335" y="-40" font-family="Helvetica,sans-Serif" font-size="10.00" fill="#000000">+getNombre():Texto</text>
<text text-anchor="start" x="1189.7965" y="-28" font-family="Helvetica,sans-Serif" font-size="10.00" fill="#000000">+getTipo():TipoEstadistica</text>
</g>
<!-- A11 -->
<g id="node12" class="node">
<title>A11</title>
<polygon fill="none" stroke="#000000" points="1414.5,-87 1414.5,-131 1501.5,-131 1501.5,-87 1414.5,-87"/>
<text text-anchor="start" x="1433.264" y="-112" font-family="Helvetica,sans-Serif" font-size="10.00" fill="#000000">&lt;&lt;Enum&gt;&gt;</text>
<text text-anchor="start" x="1424.106" y="-100" font-family="Helvetica,sans-Serif" font-size="10.00" fill="#000000">TipoEstadistica</text>
<polygon fill="none" stroke="#000000" points="1414.5,-31 1414.5,-87 1501.5,-87 1501.5,-31 1414.5,-31"/>
<text text-anchor="start" x="1434.939" y="-68" font-family="Helvetica,sans-Serif" font-size="10.00" fill="#000000">POSITIVA</text>
<text text-anchor="start" x="1432.719" y="-56" font-family="Helvetica,sans-Serif" font-size="10.00" fill="#000000">NEGATIVA</text>
<text text-anchor="start" x="1437.448" y="-44" font-family="Helvetica,sans-Serif" font-size="10.00" fill="#000000">NEUTRA</text>
</g>
<!-- A7&#45;&gt;A11 -->
<g id="edge13" class="edge">
<title>A7&#45;&gt;A11</title>
<path fill="none" stroke="#000000" d="M1319.2195,-81C1346.8477,-81 1377.9549,-81 1403.6586,-81"/>
<polygon fill="#000000" stroke="#000000" points="1413.9518,-81 1403.9519,-85.5001 1408.9518,-81 1403.9518,-81.0001 1403.9518,-81.0001 1403.9518,-81.0001 1408.9518,-81 1403.9518,-76.5001 1413.9518,-81 1413.9518,-81"/>
<text text-anchor="middle" x="1395.8257" y="-86.4524" font-family="Helvetica,sans-Serif" font-size="10.00" fill="#000000">tipo1</text>
<text text-anchor="middle" x="1337.3456" y="-69.5476" font-family="Helvetica,sans-Serif" font-size="10.00" fill="#000000">*</text>
</g>
<!-- A8 -->
<g id="node9" class="node">
<title>A8</title>
<polygon fill="none" stroke="#000000" points="896.5,-223 896.5,-255 1127.5,-255 1127.5,-223 896.5,-223"/>
<text text-anchor="start" x="969.2175" y="-236" font-family="Helvetica,sans-Serif" font-size="10.00" fill="#000000">RegistroEstadistica</text>
<polygon fill="none" stroke="#000000" points="896.5,-179 896.5,-223 1127.5,-223 1127.5,-179 896.5,-179"/>
<text text-anchor="start" x="989.4995" y="-204" font-family="Helvetica,sans-Serif" font-size="10.00" fill="#000000">valor:Real</text>
<text text-anchor="start" x="962.8235" y="-192" font-family="Helvetica,sans-Serif" font-size="10.00" fill="#000000">estadistica:Estadistica</text>
<polygon fill="none" stroke="#000000" points="896.5,-99 896.5,-179 1127.5,-179 1127.5,-99 896.5,-99"/>
<text text-anchor="start" x="959.08" y="-160" font-family="Helvetica,sans-Serif" font-size="10.00" fill="#000000">+Constructor(valor:Real</text>
<text text-anchor="start" x="961.159" y="-148" font-family="Helvetica,sans-Serif" font-size="10.00" fill="#000000">estadistica:Estadistica)</text>
<text text-anchor="start" x="975.468" y="-136" font-family="Helvetica,sans-Serif" font-size="10.00" fill="#000000">+getValor():Real</text>
<text text-anchor="start" x="949.0715" y="-124" font-family="Helvetica,sans-Serif" font-size="10.00" fill="#000000">+getEstadistica():Estadistica</text>
<text text-anchor="start" x="906.435" y="-112" font-family="Helvetica,sans-Serif" font-size="10.00" fill="#000000">compareTo(registro:RegistroEstadistica):Entero</text>
</g>
<!-- A8&#45;&gt;A2JA7 -->
<g id="edge12" class="edge">
<title>A8&#45;&gt;A2JA7</title>
<path fill="none" stroke="#000000" stroke-dasharray="5,2" d="M1011.5,-98.9312C1011.5,-96.4623 1011.5,-93.9935 1011.5,-91.5247"/>
<polygon fill="#000000" stroke="#000000" points="1011.5,-81.375 1016.0001,-91.375 1011.5,-86.375 1011.5001,-91.375 1011.5001,-91.375 1011.5001,-91.375 1011.5,-86.375 1007.0001,-91.375 1011.5,-81.375 1011.5,-81.375"/>
</g>
<!-- A9&#45;&gt;A2 -->
<g id="edge16" class="edge">
<title>A9&#45;&gt;A2</title>
<path fill="none" stroke="#000000" d="M555.073,-293.2809C564.1396,-295.9673 573.5722,-298.7621 583.1293,-301.5939"/>
<polygon fill="none" stroke="#000000" points="554.7278,-293.1787 547.8386,-295.3093 543.2222,-289.7695 550.1114,-287.6389 554.7278,-293.1787"/>
<polygon fill="#000000" stroke="#000000" points="592.7191,-304.4353 581.8527,-305.9089 587.9251,-303.0148 583.1311,-301.5943 583.1311,-301.5943 583.1311,-301.5943 587.9251,-303.0148 584.4096,-297.2798 592.7191,-304.4353 592.7191,-304.4353"/>
<text text-anchor="middle" x="572.9386" y="-304.39" font-family="Helvetica,sans-Serif" font-size="10.00" fill="#000000">2</text>
<text text-anchor="middle" x="563.0028" y="-283.8149" font-family="Helvetica,sans-Serif" font-size="10.00" fill="#000000">*</text>
</g>
<!-- A10 -->
<g id="node11" class="node">
<title>A10</title>
<polygon fill="none" stroke="#000000" points="612.5,-200 612.5,-232 827.5,-232 827.5,-200 612.5,-200"/>
<text text-anchor="start" x="683.607" y="-213" font-family="Helvetica,sans-Serif" font-size="10.00" fill="#000000">RegistroReporte</text>
<polygon fill="none" stroke="#000000" points="612.5,-156 612.5,-200 827.5,-200 827.5,-156 612.5,-156"/>
<text text-anchor="start" x="622.483" y="-181" font-family="Helvetica,sans-Serif" font-size="10.00" fill="#000000">estadisticaParticipanteA:RegistroEstadistica</text>
<text text-anchor="start" x="622.483" y="-169" font-family="Helvetica,sans-Serif" font-size="10.00" fill="#000000">estadisticaParticipanteB:RegistroEstadistica</text>
</g>
<!-- A9&#45;&gt;A10 -->
<g id="edge14" class="edge">
<title>A9&#45;&gt;A10</title>
<path fill="none" stroke="#000000" d="M554.9116,-245.4762C569.9352,-240.7775 585.9685,-235.7629 601.9119,-230.7765"/>
<polygon fill="none" stroke="#000000" points="554.6752,-245.5501 550.1427,-251.1588 543.2222,-249.1321 547.7547,-243.5235 554.6752,-245.5501"/>
<polygon fill="#000000" stroke="#000000" points="611.8175,-227.6785 603.6166,-234.9584 607.0454,-229.171 602.2734,-230.6635 602.2734,-230.6635 602.2734,-230.6635 607.0454,-229.171 600.9301,-226.3687 611.8175,-227.6785 611.8175,-227.6785"/>
<text text-anchor="middle" x="597.0407" y="-238.1561" font-family="Helvetica,sans-Serif" font-size="10.00" fill="#000000">registros*</text>
<text text-anchor="middle" x="557.999" y="-232.6545" font-family="Helvetica,sans-Serif" font-size="10.00" fill="#000000">1</text>
</g>
<!-- A10&#45;&gt;A8 -->
<g id="edge15" class="edge">
<title>A10&#45;&gt;A8</title>
<path fill="none" stroke="#000000" d="M839.5082,-187.0132C854.7431,-186.1263 870.3681,-185.2166 885.6906,-184.3245"/>
<polygon fill="none" stroke="#000000" points="839.3801,-187.0206 833.6228,-191.3626 827.4004,-187.7181 833.1577,-183.3761 839.3801,-187.0206"/>
<polygon fill="#000000" stroke="#000000" points="895.7089,-183.7413 885.9874,-188.815 890.7173,-184.0319 885.7258,-184.3226 885.7258,-184.3226 885.7258,-184.3226 890.7173,-184.0319 885.4642,-179.8302 895.7089,-183.7413 895.7089,-183.7413"/>
<text text-anchor="middle" x="878.1046" y="-190.2328" font-family="Helvetica,sans-Serif" font-size="10.00" fill="#000000">2</text>
<text text-anchor="middle" x="845.0047" y="-175.2265" font-family="Helvetica,sans-Serif" font-size="10.00" fill="#000000">*</text>
</g>
<!-- A2JA7&#45;&gt;A7 -->
<g id="edge11" class="edge">
<title>A2JA7&#45;&gt;A7</title>
<path fill="none" stroke="#000000" d="M1011.8837,-81C1018.1754,-81 1100.6021,-81 1166.3173,-81"/>
<polygon fill="#000000" stroke="#000000" points="1176.7064,-81 1166.7065,-85.5001 1171.7064,-81 1166.7064,-81.0001 1166.7064,-81.0001 1166.7064,-81.0001 1171.7064,-81 1166.7064,-76.5001 1176.7064,-81 1176.7064,-81"/>
<text text-anchor="middle" x="1158.5803" y="-86.4524" font-family="Helvetica,sans-Serif" font-size="10.00" fill="#000000">*</text>
</g>
</g>
</svg>
