<?xml version="1.0" encoding="UTF-8" standalone="no"?>
<!DOCTYPE svg PUBLIC "-//W3C//DTD SVG 1.1//EN"
 "http://www.w3.org/Graphics/SVG/1.1/DTD/svg11.dtd">
<!-- Generated by graphviz version 2.40.1 (20161225.0304)
 -->
<!-- Title: G Pages: 1 -->
<svg width="2025pt" height="440pt"
 viewBox="0.00 0.00 2024.57 440.00" xmlns="http://www.w3.org/2000/svg" xmlns:xlink="http://www.w3.org/1999/xlink">
<g id="graph0" class="graph" transform="scale(1 1) rotate(0) translate(4 436)">
<title>G</title>
<polygon fill="#ffffff" stroke="transparent" points="-4,4 -4,-436 2020.565,-436 2020.565,4 -4,4"/>
<!-- A0 -->
<g id="node1" class="node">
<title>A0</title>
<polygon fill="none" stroke="#000000" points=".5,-400 .5,-432 341.5,-432 341.5,-400 .5,-400"/>
<text text-anchor="start" x="155.163" y="-413" font-family="Helvetica,sans-Serif" font-size="10.00" fill="#000000">Torneo</text>
<polygon fill="none" stroke="#000000" points=".5,-296 .5,-400 341.5,-400 341.5,-296 .5,-296"/>
<text text-anchor="start" x="140.1605" y="-381" font-family="Helvetica,sans-Serif" font-size="10.00" fill="#000000">nombre:Texto</text>
<text text-anchor="start" x="131.822" y="-369" font-family="Helvetica,sans-Serif" font-size="10.00" fill="#000000">fechaInicio:Fecha</text>
<text text-anchor="start" x="102.6515" y="-357" font-family="Helvetica,sans-Serif" font-size="10.00" fill="#000000">fechaInicioInscripciones:Fecha</text>
<text text-anchor="start" x="100.712" y="-345" font-family="Helvetica,sans-Serif" font-size="10.00" fill="#000000">fechaCierreInscripciones:Fecha</text>
<text text-anchor="start" x="109.042" y="-333" font-family="Helvetica,sans-Serif" font-size="10.00" fill="#000000">numeroParticipantes:Entero</text>
<text text-anchor="start" x="131.5485" y="-321" font-family="Helvetica,sans-Serif" font-size="10.00" fill="#000000">limiteEdad:Entero</text>
<text text-anchor="start" x="120.1595" y="-309" font-family="Helvetica,sans-Serif" font-size="10.00" fill="#000000">valorInscripcion:Entero</text>
<polygon fill="none" stroke="#000000" points=".5,0 .5,-296 341.5,-296 341.5,0 .5,0"/>
<text text-anchor="start" x="109.741" y="-277" font-family="Helvetica,sans-Serif" font-size="10.00" fill="#000000">+Constructor(nombre:Texto</text>
<text text-anchor="start" x="131.822" y="-265" font-family="Helvetica,sans-Serif" font-size="10.00" fill="#000000">fechaInicio:Fecha</text>
<text text-anchor="start" x="102.6515" y="-253" font-family="Helvetica,sans-Serif" font-size="10.00" fill="#000000">fechaInicioInscripciones:Fecha</text>
<text text-anchor="start" x="100.712" y="-241" font-family="Helvetica,sans-Serif" font-size="10.00" fill="#000000">fechaCierreInscripciones:Fecha</text>
<text text-anchor="start" x="109.042" y="-229" font-family="Helvetica,sans-Serif" font-size="10.00" fill="#000000">numeroParticipantes:Entero</text>
<text text-anchor="start" x="131.5485" y="-217" font-family="Helvetica,sans-Serif" font-size="10.00" fill="#000000">limiteEdad:Entero</text>
<text text-anchor="start" x="120.1595" y="-205" font-family="Helvetica,sans-Serif" font-size="10.00" fill="#000000">valorInscripcion:Entero</text>
<text text-anchor="start" x="120.1555" y="-193" font-family="Helvetica,sans-Serif" font-size="10.00" fill="#000000">tipoTorneo:TipoTorneo</text>
<text text-anchor="start" x="10.288" y="-181" font-family="Helvetica,sans-Serif" font-size="10.00" fill="#000000">caracter:CaracterTorneo)+registrarParticipante(participante:Participante)</text>
<text text-anchor="start" x="126.1335" y="-169" font-family="Helvetica,sans-Serif" font-size="10.00" fill="#000000">+getNombre():Texto</text>
<text text-anchor="start" x="116.96" y="-157" font-family="Helvetica,sans-Serif" font-size="10.00" fill="#000000">+getFechaInicio():Fecha</text>
<text text-anchor="start" x="87.7895" y="-145" font-family="Helvetica,sans-Serif" font-size="10.00" fill="#000000">+getFechaInicioInscripciones():Fecha</text>
<text text-anchor="start" x="85.85" y="-133" font-family="Helvetica,sans-Serif" font-size="10.00" fill="#000000">+getFechaCierreInscripciones():Fecha</text>
<text text-anchor="start" x="95.015" y="-121" font-family="Helvetica,sans-Serif" font-size="10.00" fill="#000000">+getNumeroParticipantes():Entero</text>
<text text-anchor="start" x="116.6815" y="-109" font-family="Helvetica,sans-Serif" font-size="10.00" fill="#000000">+getLimiteEdad():Entero</text>
<text text-anchor="start" x="106.128" y="-97" font-family="Helvetica,sans-Serif" font-size="10.00" fill="#000000">+getValorInscripcion():Entero</text>
<text text-anchor="start" x="105.2935" y="-85" font-family="Helvetica,sans-Serif" font-size="10.00" fill="#000000">+getTipoTorneo():TipoTorneo</text>
<text text-anchor="start" x="78.6215" y="-73" font-family="Helvetica,sans-Serif" font-size="10.00" fill="#000000">+getParticipantes():Participante［*］</text>
<text text-anchor="start" x="102.2435" y="-61" font-family="Helvetica,sans-Serif" font-size="10.00" fill="#000000">+getCaracter():CaracterTorneo</text>
<text text-anchor="start" x="93.344" y="-49" font-family="Helvetica,sans-Serif" font-size="10.00" fill="#000000">+setFechaInicio(fechaInicio:Fecha)</text>
<text text-anchor="start" x="35.003" y="-37" font-family="Helvetica,sans-Serif" font-size="10.00" fill="#000000">+setFechaInicioInscripciones(fechaInicioInscripciones:Fecha)</text>
<text text-anchor="start" x="31.124" y="-25" font-family="Helvetica,sans-Serif" font-size="10.00" fill="#000000">+setFechaCierreInscripciones(fechaCierreInscripciones:Fecha)</text>
<text text-anchor="start" x="67.65" y="-13" font-family="Helvetica,sans-Serif" font-size="10.00" fill="#000000">buscarParticipante(nombre:Texto):Participante</text>
</g>
<!-- A1 -->
<g id="node2" class="node">
<title>A1</title>
<polygon fill="none" stroke="#000000" points="422.5,-348 422.5,-392 493.5,-392 493.5,-348 422.5,-348"/>
<text text-anchor="start" x="433.264" y="-373" font-family="Helvetica,sans-Serif" font-size="10.00" fill="#000000">&lt;&lt;Enum&gt;&gt;</text>
<text text-anchor="start" x="432.44" y="-361" font-family="Helvetica,sans-Serif" font-size="10.00" fill="#000000">TipoTorneo</text>
<polygon fill="none" stroke="#000000" points="422.5,-280 422.5,-348 493.5,-348 493.5,-280 422.5,-280"/>
<text text-anchor="start" x="441.6075" y="-329" font-family="Helvetica,sans-Serif" font-size="10.00" fill="#000000">LOCAL</text>
<text text-anchor="start" x="432.164" y="-317" font-family="Helvetica,sans-Serif" font-size="10.00" fill="#000000">REGIONAL</text>
<text text-anchor="start" x="432.444" y="-305" font-family="Helvetica,sans-Serif" font-size="10.00" fill="#000000">NACIONAL</text>
<text text-anchor="start" x="435.5035" y="-293" font-family="Helvetica,sans-Serif" font-size="10.00" fill="#000000">MUNDIAL</text>
</g>
<!-- A0&#45;&gt;A1 -->
<g id="edge3" class="edge">
<title>A0&#45;&gt;A1</title>
<path fill="none" stroke="#000000" d="M341.1799,-287.3644C367.4553,-298.3506 392.4687,-308.8092 412.5205,-317.1932"/>
<polygon fill="#000000" stroke="#000000" points="421.9493,-321.1356 410.9874,-321.4297 417.3363,-319.2068 412.7233,-317.278 412.7233,-317.278 412.7233,-317.278 417.3363,-319.2068 414.4593,-313.1263 421.9493,-321.1356 421.9493,-321.1356"/>
<text text-anchor="middle" x="401.9656" y="-318.9415" font-family="Helvetica,sans-Serif" font-size="10.00" fill="#000000">tipoTorneo1</text>
<text text-anchor="middle" x="361.1636" y="-283.5585" font-family="Helvetica,sans-Serif" font-size="10.00" fill="#000000">*</text>
</g>
<!-- A4 -->
<g id="node5" class="node">
<title>A4</title>
<polygon fill="none" stroke="#000000" points="574,-246 574,-290 726,-290 726,-246 574,-246"/>
<text text-anchor="start" x="619.151" y="-271" font-family="Helvetica,sans-Serif" font-size="10.00" fill="#000000">&lt;&lt;interface&gt;&gt;</text>
<text text-anchor="start" x="623.6055" y="-259" font-family="Helvetica,sans-Serif" font-size="10.00" fill="#000000">Participante</text>
<polygon fill="none" stroke="#000000" points="574,-214 574,-246 726,-246 726,-214 574,-214"/>
<text text-anchor="start" x="583.7425" y="-227" font-family="Helvetica,sans-Serif" font-size="10.00" fill="#000000">+getNombreCompleto():Texto</text>
</g>
<!-- A0&#45;&gt;A4 -->
<g id="edge4" class="edge">
<title>A0&#45;&gt;A4</title>
<path fill="none" stroke="#000000" d="M353.3637,-230.151C366.1003,-231.1204 378.7415,-232.0778 391,-233 448.5189,-237.327 513.2329,-242.0744 563.5852,-245.7414"/>
<polygon fill="none" stroke="#000000" points="353.0978,-230.1308 346.8111,-233.6631 341.1326,-229.2186 347.4193,-225.6863 353.0978,-230.1308"/>
<polygon fill="#000000" stroke="#000000" points="573.7805,-246.4834 563.4802,-250.2456 568.7937,-246.1204 563.8069,-245.7574 563.8069,-245.7574 563.8069,-245.7574 568.7937,-246.1204 564.1336,-241.2693 573.7805,-246.4834 573.7805,-246.4834"/>
<text text-anchor="middle" x="555.0886" y="-250.5977" font-family="Helvetica,sans-Serif" font-size="10.00" fill="#000000">participantes*</text>
<text text-anchor="middle" x="359.8487" y="-219.1684" font-family="Helvetica,sans-Serif" font-size="10.00" fill="#000000">1</text>
</g>
<!-- A8 -->
<g id="node9" class="node">
<title>A8</title>
<polygon fill="none" stroke="#000000" points="412.5,-74 412.5,-118 502.5,-118 502.5,-74 412.5,-74"/>
<text text-anchor="start" x="432.764" y="-99" font-family="Helvetica,sans-Serif" font-size="10.00" fill="#000000">&lt;&lt;Enum&gt;&gt;</text>
<text text-anchor="start" x="422.4965" y="-87" font-family="Helvetica,sans-Serif" font-size="10.00" fill="#000000">CaracterTorneo</text>
<polygon fill="none" stroke="#000000" points="412.5,-30 412.5,-74 502.5,-74 502.5,-30 412.5,-30"/>
<text text-anchor="start" x="429.445" y="-55" font-family="Helvetica,sans-Serif" font-size="10.00" fill="#000000">INDIVIDUAL</text>
<text text-anchor="start" x="436.943" y="-43" font-family="Helvetica,sans-Serif" font-size="10.00" fill="#000000">GRUPAL</text>
</g>
<!-- A0&#45;&gt;A8 -->
<g id="edge2" class="edge">
<title>A0&#45;&gt;A8</title>
<path fill="none" stroke="#000000" d="M341.1799,-131.5521C363.6287,-120.445 385.1564,-109.7937 403.4556,-100.7397"/>
<polygon fill="#000000" stroke="#000000" points="412.443,-96.293 405.4756,-104.761 407.9615,-98.5104 403.48,-100.7277 403.48,-100.7277 403.48,-100.7277 407.9615,-98.5104 401.4844,-96.6944 412.443,-96.293 412.443,-96.293"/>
<text text-anchor="middle" x="399.9449" y="-108.9071" font-family="Helvetica,sans-Serif" font-size="10.00" fill="#000000">caracter1</text>
<text text-anchor="middle" x="353.6779" y="-112.9381" font-family="Helvetica,sans-Serif" font-size="10.00" fill="#000000">*</text>
</g>
<!-- A11 -->
<g id="node12" class="node">
<title>A11</title>
<polygon fill="none" stroke="#000000" points="391.5,-192 391.5,-224 524.5,-224 524.5,-192 391.5,-192"/>
<text text-anchor="start" x="440.2185" y="-205" font-family="Helvetica,sans-Serif" font-size="10.00" fill="#000000">Reporte</text>
<polygon fill="none" stroke="#000000" points="391.5,-136 391.5,-192 524.5,-192 524.5,-136 391.5,-136"/>
<text text-anchor="start" x="430.4895" y="-173" font-family="Helvetica,sans-Serif" font-size="10.00" fill="#000000">fecha:Fecha</text>
<text text-anchor="start" x="401.042" y="-161" font-family="Helvetica,sans-Serif" font-size="10.00" fill="#000000">participanteA:Participante</text>
<text text-anchor="start" x="401.042" y="-149" font-family="Helvetica,sans-Serif" font-size="10.00" fill="#000000">participanteB:Participante</text>
</g>
<!-- A0&#45;&gt;A11 -->
<g id="edge1" class="edge">
<title>A0&#45;&gt;A11</title>
<path fill="none" stroke="#000000" stroke-dasharray="5,2" d="M341.1799,-194.5907C354.816,-192.8802 368.1122,-191.2124 380.5515,-189.6521"/>
<polygon fill="#000000" stroke="#000000" points="390.7875,-188.3681 381.4254,-194.0778 385.8264,-188.9905 380.8653,-189.6128 380.8653,-189.6128 380.8653,-189.6128 385.8264,-188.9905 380.3052,-185.1478 390.7875,-188.3681 390.7875,-188.3681"/>
</g>
<!-- A2 -->
<g id="node3" class="node">
<title>A2</title>
<polygon fill="none" stroke="#000000" points="1507.3483,-230 1394.2167,-230 1394.2167,-194 1507.3483,-194 1507.3483,-230"/>
<text text-anchor="middle" x="1450.7825" y="-215" font-family="Helvetica,sans-Serif" font-size="10.00" fill="#000000">&lt;&lt;interface&gt;&gt;</text>
<text text-anchor="middle" x="1450.7825" y="-203" font-family="Helvetica,sans-Serif" font-size="10.00" fill="#000000">RegistroEstadistica</text>
</g>
<!-- A3 -->
<g id="node4" class="node">
<title>A3</title>
<polygon fill="none" stroke="#000000" points="1558.065,-212 1558.065,-244 1749.065,-244 1749.065,-212 1558.065,-212"/>
<text text-anchor="start" x="1601.3395" y="-225" font-family="Helvetica,sans-Serif" font-size="10.00" fill="#000000">RegistroEstadisticaImpl</text>
<polygon fill="none" stroke="#000000" points="1558.065,-180 1558.065,-212 1749.065,-212 1749.065,-180 1558.065,-180"/>
<text text-anchor="start" x="1567.718" y="-193" font-family="Helvetica,sans-Serif" font-size="10.00" fill="#000000">estadisticas:ValorEstadistica［*］</text>
</g>
<!-- A2&#45;&gt;A3 -->
<g id="edge18" class="edge">
<title>A2&#45;&gt;A3</title>
<path fill="none" stroke="#000000" d="M1517.4511,-212C1530.2319,-212 1543.8469,-212 1557.3332,-212"/>
<polygon fill="none" stroke="#000000" points="1517.3985,-208.5001 1507.3984,-212 1517.3984,-215.5001 1517.3985,-208.5001"/>
</g>
<!-- A2&#45;&gt;A4 -->
<g id="edge17" class="edge">
<title>A2&#45;&gt;A4</title>
<path fill="none" stroke="#000000" d="M1436.8656,-239.2212C1419.2673,-271.1348 1386.1172,-323.6421 1344,-355 1277.5736,-404.4571 1250.5466,-404.5564 1169,-419 993.0335,-450.1673 936.7801,-412.0087 776,-334 750.6399,-321.6956 724.2521,-305.1788 702.2173,-290.1937"/>
<polygon fill="none" stroke="#000000" points="1440.1587,-240.4881 1441.8206,-230.0244 1433.9961,-237.1679 1440.1587,-240.4881"/>
</g>
<!-- A2JA9 -->
<!-- A2&#45;&gt;A2JA9 -->
<g id="edge10" class="edge">
<title>A2&#45;&gt;A2JA9</title>
<path fill="none" stroke="#000000" d="M1458.2918,-193.8849C1472.4563,-162.2926 1506.3696,-97.7494 1557.565,-69 1592.4141,-49.4301 1645.8567,-58.6436 1652.4009,-59.8717"/>
<text text-anchor="middle" x="1458.2774" y="-170.8849" font-family="Helvetica,sans-Serif" font-size="10.00" fill="#000000">*</text>
</g>
<!-- A5 -->
<g id="node6" class="node">
<title>A5</title>
<polygon fill="none" stroke="#000000" points="805.5,-293 805.5,-325 947.5,-325 947.5,-293 805.5,-293"/>
<text text-anchor="start" x="860.938" y="-306" font-family="Helvetica,sans-Serif" font-size="10.00" fill="#000000">Equipo</text>
<polygon fill="none" stroke="#000000" points="805.5,-261 805.5,-293 947.5,-293 947.5,-261 805.5,-261"/>
<text text-anchor="start" x="845.6605" y="-274" font-family="Helvetica,sans-Serif" font-size="10.00" fill="#000000">nombre:Texto</text>
<polygon fill="none" stroke="#000000" points="805.5,-217 805.5,-261 947.5,-261 947.5,-217 805.5,-217"/>
<text text-anchor="start" x="815.241" y="-242" font-family="Helvetica,sans-Serif" font-size="10.00" fill="#000000">+Constructor(nombre:Texto</text>
<text text-anchor="start" x="823.985" y="-230" font-family="Helvetica,sans-Serif" font-size="10.00" fill="#000000">representante:Persona)</text>
</g>
<!-- A4&#45;&gt;A5 -->
<g id="edge9" class="edge">
<title>A4&#45;&gt;A5</title>
<path fill="none" stroke="#000000" d="M736.0705,-259.22C758.9001,-261.1351 783.2957,-263.1815 805.2407,-265.0224"/>
<polygon fill="none" stroke="#000000" points="736.3089,-255.7278 726.0513,-258.3796 735.7237,-262.7033 736.3089,-255.7278"/>
</g>
<!-- A7 -->
<g id="node8" class="node">
<title>A7</title>
<polygon fill="none" stroke="#000000" points="1219.5,-203 1219.5,-235 1344.5,-235 1344.5,-203 1219.5,-203"/>
<text text-anchor="start" x="1263.938" y="-216" font-family="Helvetica,sans-Serif" font-size="10.00" fill="#000000">Jugador</text>
<polygon fill="none" stroke="#000000" points="1219.5,-171 1219.5,-203 1344.5,-203 1344.5,-171 1219.5,-171"/>
<text text-anchor="start" x="1229.489" y="-184" font-family="Helvetica,sans-Serif" font-size="10.00" fill="#000000">fechaNacimiento:Fecha</text>
</g>
<!-- A4&#45;&gt;A7 -->
<g id="edge8" class="edge">
<title>A4&#45;&gt;A7</title>
<path fill="none" stroke="#000000" d="M735.6379,-218.5182C748.9812,-214.3471 762.7408,-210.6304 776,-208 932.8935,-176.8745 1122.596,-187.5322 1218.876,-196.2562"/>
<polygon fill="none" stroke="#000000" points="734.4498,-215.2238 726.0086,-221.6267 736.6003,-221.8853 734.4498,-215.2238"/>
</g>
<!-- A5&#45;&gt;A2 -->
<g id="edge20" class="edge">
<title>A5&#45;&gt;A2</title>
<path fill="none" stroke="#000000" d="M922.8641,-325.206C950.0396,-352.7047 986.8623,-383.3278 1027,-398 1086.2749,-419.6678 1108.5552,-416.1505 1169,-398 1274.8757,-366.2074 1377.6808,-280.3152 1424.4811,-237.2852"/>
<polygon fill="#000000" stroke="#000000" points="1432.0309,-230.2663 1427.771,-240.371 1428.369,-233.6708 1424.707,-237.0752 1424.707,-237.0752 1424.707,-237.0752 1428.369,-233.6708 1421.643,-233.7795 1432.0309,-230.2663 1432.0309,-230.2663"/>
</g>
<!-- A6 -->
<g id="node7" class="node">
<title>A6</title>
<polygon fill="none" stroke="#000000" points="1027,-357 1027,-389 1169,-389 1169,-357 1027,-357"/>
<text text-anchor="start" x="1079.383" y="-370" font-family="Helvetica,sans-Serif" font-size="10.00" fill="#000000">Persona</text>
<polygon fill="none" stroke="#000000" points="1027,-289 1027,-357 1169,-357 1169,-289 1027,-289"/>
<text text-anchor="start" x="1067.1605" y="-338" font-family="Helvetica,sans-Serif" font-size="10.00" fill="#000000">nombre:Texto</text>
<text text-anchor="start" x="1066.8815" y="-326" font-family="Helvetica,sans-Serif" font-size="10.00" fill="#000000">apellido:Texto</text>
<text text-anchor="start" x="1072.165" y="-314" font-family="Helvetica,sans-Serif" font-size="10.00" fill="#000000">email:Texto</text>
<text text-anchor="start" x="1069.3855" y="-302" font-family="Helvetica,sans-Serif" font-size="10.00" fill="#000000">celular:Texto</text>
<polygon fill="none" stroke="#000000" points="1027,-221 1027,-289 1169,-289 1169,-221 1027,-221"/>
<text text-anchor="start" x="1036.741" y="-270" font-family="Helvetica,sans-Serif" font-size="10.00" fill="#000000">+Constructor(nombre:Texto</text>
<text text-anchor="start" x="1066.8815" y="-258" font-family="Helvetica,sans-Serif" font-size="10.00" fill="#000000">apellido:Texto</text>
<text text-anchor="start" x="1072.165" y="-246" font-family="Helvetica,sans-Serif" font-size="10.00" fill="#000000">email:Texto</text>
<text text-anchor="start" x="1067.721" y="-234" font-family="Helvetica,sans-Serif" font-size="10.00" fill="#000000">celular:Texto)</text>
</g>
<!-- A5&#45;&gt;A6 -->
<g id="edge5" class="edge">
<title>A5&#45;&gt;A6</title>
<path fill="none" stroke="#000000" d="M959.8667,-283.7967C978.5522,-286.6649 998.3472,-289.7034 1016.9373,-292.557"/>
<polygon fill="none" stroke="#000000" points="959.6643,-283.7657 953.1269,-286.809 947.8032,-281.945 954.3407,-278.9016 959.6643,-283.7657"/>
<polygon fill="#000000" stroke="#000000" points="1026.8304,-294.0755 1016.2633,-297.0061 1021.8883,-293.3169 1016.9461,-292.5582 1016.9461,-292.5582 1016.9461,-292.5582 1021.8883,-293.3169 1017.6289,-288.1103 1026.8304,-294.0755 1026.8304,-294.0755"/>
<text text-anchor="middle" x="1007.6316" y="-296.6799" font-family="Helvetica,sans-Serif" font-size="10.00" fill="#000000">representante1</text>
<text text-anchor="middle" x="967.002" y="-273.3406" font-family="Helvetica,sans-Serif" font-size="10.00" fill="#000000">1</text>
</g>
<!-- A5&#45;&gt;A7 -->
<g id="edge7" class="edge">
<title>A5&#45;&gt;A7</title>
<path fill="none" stroke="#000000" d="M958.8636,-232.9426C980.5818,-224.5194 1004.3012,-216.7073 1027,-212 1087.37,-199.4805 1157.4887,-197.93 1208.8208,-199.1131"/>
<polygon fill="none" stroke="#000000" points="958.8521,-232.9471 954.7594,-238.8843 947.7048,-237.3899 951.7976,-231.4527 958.8521,-232.9471"/>
<polygon fill="#000000" stroke="#000000" points="1218.8283,-199.3838 1208.7103,-203.6117 1213.8301,-199.2486 1208.832,-199.1133 1208.832,-199.1133 1208.832,-199.1133 1213.8301,-199.2486 1208.9537,-194.615 1218.8283,-199.3838 1218.8283,-199.3838"/>
<text text-anchor="middle" x="1200.4803" y="-204.343" font-family="Helvetica,sans-Serif" font-size="10.00" fill="#000000">jugador*</text>
<text text-anchor="middle" x="961.4137" y="-219.8274" font-family="Helvetica,sans-Serif" font-size="10.00" fill="#000000">1</text>
</g>
<!-- A6&#45;&gt;A7 -->
<g id="edge6" class="edge">
<title>A6&#45;&gt;A7</title>
<path fill="none" stroke="#000000" d="M1178.1611,-260.4418C1193.4746,-251.9297 1209.2257,-243.1743 1223.6712,-235.1446"/>
<polygon fill="none" stroke="#000000" points="1176.2485,-257.5005 1169.2085,-265.4181 1179.6495,-263.6188 1176.2485,-257.5005"/>
</g>
<!-- A7&#45;&gt;A2 -->
<g id="edge19" class="edge">
<title>A7&#45;&gt;A2</title>
<path fill="none" stroke="#000000" d="M1344.0536,-206.3257C1356.9848,-207.0132 1370.6555,-207.74 1383.7393,-208.4356"/>
<polygon fill="#000000" stroke="#000000" points="1394.081,-208.9854 1383.8562,-212.9481 1389.0881,-208.7199 1384.0951,-208.4544 1384.0951,-208.4544 1384.0951,-208.4544 1389.0881,-208.7199 1384.3341,-203.9608 1394.081,-208.9854 1394.081,-208.9854"/>
</g>
<!-- A9 -->
<g id="node10" class="node">
<title>A9</title>
<polygon fill="none" stroke="#000000" points="1799.065,-60 1799.065,-92 1880.065,-92 1880.065,-60 1799.065,-60"/>
<text text-anchor="start" x="1815.394" y="-73" font-family="Helvetica,sans-Serif" font-size="10.00" fill="#000000">Estadistica</text>
<polygon fill="none" stroke="#000000" points="1799.065,-28 1799.065,-60 1880.065,-60 1880.065,-28 1799.065,-28"/>
<text text-anchor="start" x="1808.7255" y="-41" font-family="Helvetica,sans-Serif" font-size="10.00" fill="#000000">nombre:Texto</text>
</g>
<!-- A13 -->
<g id="node14" class="node">
<title>A13</title>
<polygon fill="none" stroke="#000000" points="1930.065,-66 1930.065,-110 2017.065,-110 2017.065,-66 1930.065,-66"/>
<text text-anchor="start" x="1948.829" y="-91" font-family="Helvetica,sans-Serif" font-size="10.00" fill="#000000">&lt;&lt;Enum&gt;&gt;</text>
<text text-anchor="start" x="1939.671" y="-79" font-family="Helvetica,sans-Serif" font-size="10.00" fill="#000000">TipoEstadistica</text>
<polygon fill="none" stroke="#000000" points="1930.065,-10 1930.065,-66 2017.065,-66 2017.065,-10 1930.065,-10"/>
<text text-anchor="start" x="1950.504" y="-47" font-family="Helvetica,sans-Serif" font-size="10.00" fill="#000000">POSITIVA</text>
<text text-anchor="start" x="1948.284" y="-35" font-family="Helvetica,sans-Serif" font-size="10.00" fill="#000000">NEGATIVA</text>
<text text-anchor="start" x="1953.013" y="-23" font-family="Helvetica,sans-Serif" font-size="10.00" fill="#000000">NEUTRA</text>
</g>
<!-- A9&#45;&gt;A13 -->
<g id="edge13" class="edge">
<title>A9&#45;&gt;A13</title>
<path fill="none" stroke="#000000" d="M1879.6331,-60C1892.0326,-60 1905.8705,-60 1919.0168,-60"/>
<polygon fill="#000000" stroke="#000000" points="1929.3709,-60 1919.371,-64.5001 1924.3709,-60 1919.3709,-60.0001 1919.3709,-60.0001 1919.3709,-60.0001 1924.3709,-60 1919.3709,-55.5001 1929.3709,-60 1929.3709,-60"/>
<text text-anchor="middle" x="1911.2448" y="-65.4524" font-family="Helvetica,sans-Serif" font-size="10.00" fill="#000000">tipo1</text>
<text text-anchor="middle" x="1897.7592" y="-48.5476" font-family="Helvetica,sans-Serif" font-size="10.00" fill="#000000">*</text>
</g>
<!-- A10 -->
<g id="node11" class="node">
<title>A10</title>
<polygon fill="none" stroke="#000000" points="1594.065,-122 1594.065,-154 1712.065,-154 1712.065,-122 1594.065,-122"/>
<text text-anchor="start" x="1617.2265" y="-135" font-family="Helvetica,sans-Serif" font-size="10.00" fill="#000000">ValorEstadistica</text>
<polygon fill="none" stroke="#000000" points="1594.065,-78 1594.065,-122 1712.065,-122 1712.065,-78 1594.065,-78"/>
<text text-anchor="start" x="1630.5645" y="-103" font-family="Helvetica,sans-Serif" font-size="10.00" fill="#000000">valor:Real</text>
<text text-anchor="start" x="1603.8885" y="-91" font-family="Helvetica,sans-Serif" font-size="10.00" fill="#000000">estadistica:Estadistica</text>
</g>
<!-- A10&#45;&gt;A2JA9 -->
<g id="edge12" class="edge">
<title>A10&#45;&gt;A2JA9</title>
<path fill="none" stroke="#000000" stroke-dasharray="5,2" d="M1653.065,-77.8008C1653.065,-75.3591 1653.065,-72.9174 1653.065,-70.4756"/>
<polygon fill="#000000" stroke="#000000" points="1653.065,-60.4375 1657.5651,-70.4375 1653.065,-65.4375 1653.0651,-70.4375 1653.0651,-70.4375 1653.0651,-70.4375 1653.065,-65.4375 1648.5651,-70.4375 1653.065,-60.4375 1653.065,-60.4375"/>
</g>
<!-- A11&#45;&gt;A4 -->
<g id="edge16" class="edge">
<title>A11&#45;&gt;A4</title>
<path fill="none" stroke="#000000" d="M535.502,-209.1748C545.0035,-212.7286 554.7512,-216.3745 564.3563,-219.967"/>
<polygon fill="none" stroke="#000000" points="535.2567,-209.0831 528.2356,-210.7276 524.0171,-204.8791 531.0382,-203.2346 535.2567,-209.0831"/>
<polygon fill="#000000" stroke="#000000" points="573.8995,-223.5364 562.9567,-224.248 569.2163,-221.7848 564.5332,-220.0331 564.5332,-220.0331 564.5332,-220.0331 569.2163,-221.7848 566.1097,-215.8183 573.8995,-223.5364 573.8995,-223.5364"/>
<text text-anchor="middle" x="553.9609" y="-222.1031" font-family="Helvetica,sans-Serif" font-size="10.00" fill="#000000">2</text>
<text text-anchor="middle" x="543.9557" y="-200.3124" font-family="Helvetica,sans-Serif" font-size="10.00" fill="#000000">*</text>
</g>
<!-- A12 -->
<g id="node13" class="node">
<title>A12</title>
<polygon fill="none" stroke="#000000" points="776.5,-95 776.5,-127 977.5,-127 977.5,-95 776.5,-95"/>
<text text-anchor="start" x="840.607" y="-108" font-family="Helvetica,sans-Serif" font-size="10.00" fill="#000000">RegistroReporte</text>
<polygon fill="none" stroke="#000000" points="776.5,-51 776.5,-95 977.5,-95 977.5,-51 776.5,-51"/>
<text text-anchor="start" x="786.427" y="-76" font-family="Helvetica,sans-Serif" font-size="10.00" fill="#000000">estadisticaParticipanteA:ValorEstadistica</text>
<text text-anchor="start" x="786.427" y="-64" font-family="Helvetica,sans-Serif" font-size="10.00" fill="#000000">estadisticaParticipanteB:ValorEstadistica</text>
</g>
<!-- A11&#45;&gt;A12 -->
<g id="edge14" class="edge">
<title>A11&#45;&gt;A12</title>
<path fill="none" stroke="#000000" d="M536.2313,-162.9008C601.0138,-148.8311 693.5946,-128.7241 765.8352,-113.0346"/>
<polygon fill="none" stroke="#000000" points="536.0817,-162.9332 531.0674,-168.1156 524.3551,-165.4802 529.3694,-160.2978 536.0817,-162.9332"/>
<polygon fill="#000000" stroke="#000000" points="775.8887,-110.8511 767.0716,-117.3711 771.0026,-111.9124 766.1165,-112.9736 766.1165,-112.9736 766.1165,-112.9736 771.0026,-111.9124 765.1614,-108.5761 775.8887,-110.8511 775.8887,-110.8511"/>
<text text-anchor="middle" x="759.9694" y="-119.958" font-family="Helvetica,sans-Serif" font-size="10.00" fill="#000000">registros*</text>
<text text-anchor="middle" x="540.2744" y="-150.3733" font-family="Helvetica,sans-Serif" font-size="10.00" fill="#000000">1</text>
</g>
<!-- A12&#45;&gt;A10 -->
<g id="edge15" class="edge">
<title>A12&#45;&gt;A10</title>
<path fill="none" stroke="#000000" d="M989.2721,-92.9209C1152.3462,-98.5908 1449.1514,-108.9102 1583.588,-113.5844"/>
<polygon fill="none" stroke="#000000" points="989.2189,-92.9192 983.0835,-96.7082 977.2262,-92.5021 983.3616,-88.713 989.2189,-92.9192"/>
<polygon fill="#000000" stroke="#000000" points="1593.7592,-113.938 1583.6089,-118.0877 1588.7623,-113.7642 1583.7653,-113.5905 1583.7653,-113.5905 1583.7653,-113.5905 1588.7623,-113.7642 1583.9217,-109.0932 1593.7592,-113.938 1593.7592,-113.938"/>
<text text-anchor="middle" x="1575.3503" y="-118.7554" font-family="Helvetica,sans-Serif" font-size="10.00" fill="#000000">2</text>
<text text-anchor="middle" x="995.6351" y="-81.6847" font-family="Helvetica,sans-Serif" font-size="10.00" fill="#000000">*</text>
</g>
<!-- A2JA9&#45;&gt;A9 -->
<g id="edge11" class="edge">
<title>A2JA9&#45;&gt;A9</title>
<path fill="none" stroke="#000000" d="M1653.5986,-60C1660.6303,-60 1735.6442,-60 1788.086,-60"/>
<polygon fill="#000000" stroke="#000000" points="1798.2465,-60 1788.2466,-64.5001 1793.2465,-60 1788.2465,-60.0001 1788.2465,-60.0001 1788.2465,-60.0001 1793.2465,-60 1788.2465,-55.5001 1798.2465,-60 1798.2465,-60"/>
<text text-anchor="middle" x="1780.1204" y="-65.4524" font-family="Helvetica,sans-Serif" font-size="10.00" fill="#000000">*</text>
</g>
</g>
</svg>
