<?xml version="1.0" encoding="UTF-8" standalone="no"?>
<!DOCTYPE svg PUBLIC "-//W3C//DTD SVG 1.1//EN"
 "http://www.w3.org/Graphics/SVG/1.1/DTD/svg11.dtd">
<!-- Generated by graphviz version 2.40.1 (20161225.0304)
 -->
<!-- Title: G Pages: 1 -->
<svg width="1930pt" height="392pt"
 viewBox="0.00 0.00 1930.26 392.00" xmlns="http://www.w3.org/2000/svg" xmlns:xlink="http://www.w3.org/1999/xlink">
<g id="graph0" class="graph" transform="scale(1 1) rotate(0) translate(4 388)">
<title>G</title>
<polygon fill="#ffffff" stroke="transparent" points="-4,4 -4,-388 1926.263,-388 1926.263,4 -4,4"/>
<!-- A0 -->
<g id="node1" class="node">
<title>A0</title>
<polygon fill="none" stroke="#000000" points=".5,-352 .5,-384 341.5,-384 341.5,-352 .5,-352"/>
<text text-anchor="start" x="155.163" y="-365" font-family="Helvetica,sans-Serif" font-size="10.00" fill="#000000">Torneo</text>
<polygon fill="none" stroke="#000000" points=".5,-248 .5,-352 341.5,-352 341.5,-248 .5,-248"/>
<text text-anchor="start" x="140.1605" y="-333" font-family="Helvetica,sans-Serif" font-size="10.00" fill="#000000">nombre:Texto</text>
<text text-anchor="start" x="131.822" y="-321" font-family="Helvetica,sans-Serif" font-size="10.00" fill="#000000">fechaInicio:Fecha</text>
<text text-anchor="start" x="102.6515" y="-309" font-family="Helvetica,sans-Serif" font-size="10.00" fill="#000000">fechaInicioInscripciones:Fecha</text>
<text text-anchor="start" x="100.712" y="-297" font-family="Helvetica,sans-Serif" font-size="10.00" fill="#000000">fechaCierreInscripciones:Fecha</text>
<text text-anchor="start" x="109.042" y="-285" font-family="Helvetica,sans-Serif" font-size="10.00" fill="#000000">numeroParticipantes:Entero</text>
<text text-anchor="start" x="131.5485" y="-273" font-family="Helvetica,sans-Serif" font-size="10.00" fill="#000000">limiteEdad:Entero</text>
<text text-anchor="start" x="120.1595" y="-261" font-family="Helvetica,sans-Serif" font-size="10.00" fill="#000000">valorInscripcion:Entero</text>
<polygon fill="none" stroke="#000000" points=".5,0 .5,-248 341.5,-248 341.5,0 .5,0"/>
<text text-anchor="start" x="109.741" y="-229" font-family="Helvetica,sans-Serif" font-size="10.00" fill="#000000">+Constructor(nombre:Texto</text>
<text text-anchor="start" x="131.822" y="-217" font-family="Helvetica,sans-Serif" font-size="10.00" fill="#000000">fechaInicio:Fecha</text>
<text text-anchor="start" x="102.6515" y="-205" font-family="Helvetica,sans-Serif" font-size="10.00" fill="#000000">fechaInicioInscripciones:Fecha</text>
<text text-anchor="start" x="100.712" y="-193" font-family="Helvetica,sans-Serif" font-size="10.00" fill="#000000">fechaCierreInscripciones:Fecha</text>
<text text-anchor="start" x="109.042" y="-181" font-family="Helvetica,sans-Serif" font-size="10.00" fill="#000000">numeroParticipantes:Entero</text>
<text text-anchor="start" x="131.5485" y="-169" font-family="Helvetica,sans-Serif" font-size="10.00" fill="#000000">limiteEdad:Entero</text>
<text text-anchor="start" x="120.1595" y="-157" font-family="Helvetica,sans-Serif" font-size="10.00" fill="#000000">valorInscripcion:Entero</text>
<text text-anchor="start" x="120.1555" y="-145" font-family="Helvetica,sans-Serif" font-size="10.00" fill="#000000">tipoTorneo:TipoTorneo</text>
<text text-anchor="start" x="10.288" y="-133" font-family="Helvetica,sans-Serif" font-size="10.00" fill="#000000">caracter:CaracterTorneo)+registrarParticipante(participante:Participante)</text>
<text text-anchor="start" x="126.1335" y="-121" font-family="Helvetica,sans-Serif" font-size="10.00" fill="#000000">+getNombre():Texto</text>
<text text-anchor="start" x="116.96" y="-109" font-family="Helvetica,sans-Serif" font-size="10.00" fill="#000000">+getFechaInicio():Fecha</text>
<text text-anchor="start" x="87.7895" y="-97" font-family="Helvetica,sans-Serif" font-size="10.00" fill="#000000">+getFechaInicioInscripciones():Fecha</text>
<text text-anchor="start" x="85.85" y="-85" font-family="Helvetica,sans-Serif" font-size="10.00" fill="#000000">+getFechaCierreInscripciones():Fecha</text>
<text text-anchor="start" x="95.015" y="-73" font-family="Helvetica,sans-Serif" font-size="10.00" fill="#000000">+getNumeroParticipantes():Entero</text>
<text text-anchor="start" x="116.6815" y="-61" font-family="Helvetica,sans-Serif" font-size="10.00" fill="#000000">+getLimiteEdad():Entero</text>
<text text-anchor="start" x="106.128" y="-49" font-family="Helvetica,sans-Serif" font-size="10.00" fill="#000000">+getValorInscripcion():Entero</text>
<text text-anchor="start" x="105.2935" y="-37" font-family="Helvetica,sans-Serif" font-size="10.00" fill="#000000">+getTipoTorneo():TipoTorneo</text>
<text text-anchor="start" x="78.6215" y="-25" font-family="Helvetica,sans-Serif" font-size="10.00" fill="#000000">+getParticipantes():Participante［*］</text>
<text text-anchor="start" x="102.2435" y="-13" font-family="Helvetica,sans-Serif" font-size="10.00" fill="#000000">+getCaracter():CaracterTorneo</text>
</g>
<!-- A1 -->
<g id="node2" class="node">
<title>A1</title>
<polygon fill="none" stroke="#000000" points="422.5,-324 422.5,-368 493.5,-368 493.5,-324 422.5,-324"/>
<text text-anchor="start" x="433.264" y="-349" font-family="Helvetica,sans-Serif" font-size="10.00" fill="#000000">&lt;&lt;Enum&gt;&gt;</text>
<text text-anchor="start" x="432.44" y="-337" font-family="Helvetica,sans-Serif" font-size="10.00" fill="#000000">TipoTorneo</text>
<polygon fill="none" stroke="#000000" points="422.5,-256 422.5,-324 493.5,-324 493.5,-256 422.5,-256"/>
<text text-anchor="start" x="441.6075" y="-305" font-family="Helvetica,sans-Serif" font-size="10.00" fill="#000000">LOCAL</text>
<text text-anchor="start" x="432.164" y="-293" font-family="Helvetica,sans-Serif" font-size="10.00" fill="#000000">REGIONAL</text>
<text text-anchor="start" x="432.444" y="-281" font-family="Helvetica,sans-Serif" font-size="10.00" fill="#000000">NACIONAL</text>
<text text-anchor="start" x="435.5035" y="-269" font-family="Helvetica,sans-Serif" font-size="10.00" fill="#000000">MUNDIAL</text>
</g>
<!-- A0&#45;&gt;A1 -->
<g id="edge3" class="edge">
<title>A0&#45;&gt;A1</title>
<path fill="none" stroke="#000000" d="M341.1799,-263.3644C367.4553,-274.3506 392.4687,-284.8092 412.5205,-293.1932"/>
<polygon fill="#000000" stroke="#000000" points="421.9493,-297.1356 410.9874,-297.4297 417.3363,-295.2068 412.7233,-293.278 412.7233,-293.278 412.7233,-293.278 417.3363,-295.2068 414.4593,-289.1263 421.9493,-297.1356 421.9493,-297.1356"/>
<text text-anchor="middle" x="401.9656" y="-294.9415" font-family="Helvetica,sans-Serif" font-size="10.00" fill="#000000">tipoTorneo1</text>
<text text-anchor="middle" x="361.1636" y="-259.5585" font-family="Helvetica,sans-Serif" font-size="10.00" fill="#000000">*</text>
</g>
<!-- A4 -->
<g id="node5" class="node">
<title>A4</title>
<polygon fill="none" stroke="#000000" points="663.5475,-246 574.1505,-246 574.1505,-210 663.5475,-210 663.5475,-246"/>
<text text-anchor="middle" x="618.849" y="-231" font-family="Helvetica,sans-Serif" font-size="10.00" fill="#000000">&lt;&lt;interface&gt;&gt;</text>
<text text-anchor="middle" x="618.849" y="-219" font-family="Helvetica,sans-Serif" font-size="10.00" fill="#000000">Participante</text>
</g>
<!-- A0&#45;&gt;A4 -->
<g id="edge4" class="edge">
<title>A0&#45;&gt;A4</title>
<path fill="none" stroke="#000000" d="M353.6392,-206.7051C429.2615,-212.7771 511.334,-219.3671 563.8333,-223.5825"/>
<polygon fill="none" stroke="#000000" points="353.242,-206.6733 346.9411,-210.1802 341.2805,-205.7128 347.5815,-202.2059 353.242,-206.6733"/>
<polygon fill="#000000" stroke="#000000" points="573.9281,-224.3931 563.6,-228.0782 568.9442,-223.9929 563.9602,-223.5926 563.9602,-223.5926 563.9602,-223.5926 568.9442,-223.9929 564.3204,-219.1071 573.9281,-224.3931 573.9281,-224.3931"/>
<text text-anchor="middle" x="555.1836" y="-228.3676" font-family="Helvetica,sans-Serif" font-size="10.00" fill="#000000">participantes*</text>
<text text-anchor="middle" x="360.025" y="-195.7383" font-family="Helvetica,sans-Serif" font-size="10.00" fill="#000000">1</text>
</g>
<!-- A8 -->
<g id="node9" class="node">
<title>A8</title>
<polygon fill="none" stroke="#000000" points="412.5,-50 412.5,-94 502.5,-94 502.5,-50 412.5,-50"/>
<text text-anchor="start" x="432.764" y="-75" font-family="Helvetica,sans-Serif" font-size="10.00" fill="#000000">&lt;&lt;Enum&gt;&gt;</text>
<text text-anchor="start" x="422.4965" y="-63" font-family="Helvetica,sans-Serif" font-size="10.00" fill="#000000">CaracterTorneo</text>
<polygon fill="none" stroke="#000000" points="412.5,-6 412.5,-50 502.5,-50 502.5,-6 412.5,-6"/>
<text text-anchor="start" x="429.445" y="-31" font-family="Helvetica,sans-Serif" font-size="10.00" fill="#000000">INDIVIDUAL</text>
<text text-anchor="start" x="436.943" y="-19" font-family="Helvetica,sans-Serif" font-size="10.00" fill="#000000">GRUPAL</text>
</g>
<!-- A0&#45;&gt;A8 -->
<g id="edge2" class="edge">
<title>A0&#45;&gt;A8</title>
<path fill="none" stroke="#000000" d="M341.1799,-107.5521C363.6287,-96.445 385.1564,-85.7937 403.4556,-76.7397"/>
<polygon fill="#000000" stroke="#000000" points="412.443,-72.293 405.4756,-80.761 407.9615,-74.5104 403.48,-76.7277 403.48,-76.7277 403.48,-76.7277 407.9615,-74.5104 401.4844,-72.6944 412.443,-72.293 412.443,-72.293"/>
<text text-anchor="middle" x="399.9449" y="-84.9071" font-family="Helvetica,sans-Serif" font-size="10.00" fill="#000000">caracter1</text>
<text text-anchor="middle" x="353.6779" y="-88.9381" font-family="Helvetica,sans-Serif" font-size="10.00" fill="#000000">*</text>
</g>
<!-- A11 -->
<g id="node12" class="node">
<title>A11</title>
<polygon fill="none" stroke="#000000" points="391.5,-168 391.5,-200 524.5,-200 524.5,-168 391.5,-168"/>
<text text-anchor="start" x="440.2185" y="-181" font-family="Helvetica,sans-Serif" font-size="10.00" fill="#000000">Reporte</text>
<polygon fill="none" stroke="#000000" points="391.5,-112 391.5,-168 524.5,-168 524.5,-112 391.5,-112"/>
<text text-anchor="start" x="430.4895" y="-149" font-family="Helvetica,sans-Serif" font-size="10.00" fill="#000000">fecha:Fecha</text>
<text text-anchor="start" x="401.042" y="-137" font-family="Helvetica,sans-Serif" font-size="10.00" fill="#000000">participanteA:Participante</text>
<text text-anchor="start" x="401.042" y="-125" font-family="Helvetica,sans-Serif" font-size="10.00" fill="#000000">participanteB:Participante</text>
</g>
<!-- A0&#45;&gt;A11 -->
<g id="edge1" class="edge">
<title>A0&#45;&gt;A11</title>
<path fill="none" stroke="#000000" stroke-dasharray="5,2" d="M341.1799,-170.5907C354.816,-168.8802 368.1122,-167.2124 380.5515,-165.6521"/>
<polygon fill="#000000" stroke="#000000" points="390.7875,-164.3681 381.4254,-170.0778 385.8264,-164.9905 380.8653,-165.6128 380.8653,-165.6128 380.8653,-165.6128 385.8264,-164.9905 380.3052,-161.1478 390.7875,-164.3681 390.7875,-164.3681"/>
</g>
<!-- A2 -->
<g id="node3" class="node">
<title>A2</title>
<polygon fill="none" stroke="#000000" points="1399.0463,-228 1285.9147,-228 1285.9147,-192 1399.0463,-192 1399.0463,-228"/>
<text text-anchor="middle" x="1342.4805" y="-213" font-family="Helvetica,sans-Serif" font-size="10.00" fill="#000000">&lt;&lt;interface&gt;&gt;</text>
<text text-anchor="middle" x="1342.4805" y="-201" font-family="Helvetica,sans-Serif" font-size="10.00" fill="#000000">RegistroEstadistica</text>
</g>
<!-- A3 -->
<g id="node4" class="node">
<title>A3</title>
<polygon fill="none" stroke="#000000" points="1449.763,-210 1449.763,-242 1654.763,-242 1654.763,-210 1449.763,-210"/>
<text text-anchor="start" x="1500.0375" y="-223" font-family="Helvetica,sans-Serif" font-size="10.00" fill="#000000">RegistroEstadisticaImpl</text>
<polygon fill="none" stroke="#000000" points="1449.763,-178 1449.763,-210 1654.763,-210 1654.763,-178 1449.763,-178"/>
<text text-anchor="start" x="1459.472" y="-191" font-family="Helvetica,sans-Serif" font-size="10.00" fill="#000000">estadisticas:ValorEstadistica［*］</text>
</g>
<!-- A2&#45;&gt;A3 -->
<g id="edge18" class="edge">
<title>A2&#45;&gt;A3</title>
<path fill="none" stroke="#000000" d="M1409.1426,-210C1421.9005,-210 1435.5298,-210 1449.1143,-210"/>
<polygon fill="none" stroke="#000000" points="1409.1154,-206.5001 1399.1154,-210 1409.1153,-213.5001 1409.1154,-206.5001"/>
</g>
<!-- A2&#45;&gt;A4 -->
<g id="edge17" class="edge">
<title>A2&#45;&gt;A4</title>
<path fill="none" stroke="#000000" d="M1320.6453,-235.6148C1300.7049,-257.3514 1269.2889,-287.6872 1235.698,-305 1164.7795,-341.5514 1139.9786,-336.0547 1060.698,-345 905.0212,-362.5651 859.3226,-340.7691 713.698,-283 689.2807,-273.3137 663.6263,-258.0881 645.1639,-246.11"/>
<polygon fill="none" stroke="#000000" points="1323.3752,-237.8134 1327.4554,-228.0358 1318.1683,-233.1349 1323.3752,-237.8134"/>
</g>
<!-- A2JA9 -->
<!-- A2&#45;&gt;A2JA9 -->
<g id="edge10" class="edge">
<title>A2&#45;&gt;A2JA9</title>
<path fill="none" stroke="#000000" d="M1349.9713,-191.8518C1364.1067,-160.2077 1397.9761,-95.5859 1449.263,-67 1487.3357,-45.7794 1545.9482,-56.8345 1551.3594,-57.9176"/>
<text text-anchor="middle" x="1349.9309" y="-168.8518" font-family="Helvetica,sans-Serif" font-size="10.00" fill="#000000">*</text>
</g>
<!-- A5 -->
<g id="node6" class="node">
<title>A5</title>
<polygon fill="none" stroke="#000000" points="781.198,-242 781.198,-274 862.198,-274 862.198,-242 781.198,-242"/>
<text text-anchor="start" x="806.136" y="-255" font-family="Helvetica,sans-Serif" font-size="10.00" fill="#000000">Equipo</text>
<polygon fill="none" stroke="#000000" points="781.198,-210 781.198,-242 862.198,-242 862.198,-210 781.198,-210"/>
<text text-anchor="start" x="790.8585" y="-223" font-family="Helvetica,sans-Serif" font-size="10.00" fill="#000000">nombre:Texto</text>
</g>
<!-- A4&#45;&gt;A5 -->
<g id="edge9" class="edge">
<title>A4&#45;&gt;A5</title>
<path fill="none" stroke="#000000" d="M673.9042,-231.8091C707.5708,-234.1384 749.9052,-237.0674 780.5387,-239.1869"/>
<polygon fill="none" stroke="#000000" points="673.9746,-228.3057 663.7568,-231.1071 673.4913,-235.289 673.9746,-228.3057"/>
</g>
<!-- A7 -->
<g id="node8" class="node">
<title>A7</title>
<polygon fill="none" stroke="#000000" points="1111.198,-201 1111.198,-233 1236.198,-233 1236.198,-201 1111.198,-201"/>
<text text-anchor="start" x="1155.636" y="-214" font-family="Helvetica,sans-Serif" font-size="10.00" fill="#000000">Jugador</text>
<polygon fill="none" stroke="#000000" points="1111.198,-169 1111.198,-201 1236.198,-201 1236.198,-169 1111.198,-169"/>
<text text-anchor="start" x="1121.187" y="-182" font-family="Helvetica,sans-Serif" font-size="10.00" fill="#000000">fechaNacimiento:Fecha</text>
</g>
<!-- A4&#45;&gt;A7 -->
<g id="edge8" class="edge">
<title>A4&#45;&gt;A7</title>
<path fill="none" stroke="#000000" d="M673.4282,-209.7547C686.4763,-206.1506 700.463,-202.898 713.698,-201 854.2582,-180.8425 1021.5015,-188.7165 1110.3666,-195.3861"/>
<polygon fill="none" stroke="#000000" points="672.3047,-206.4358 663.6611,-212.5627 674.2389,-213.1633 672.3047,-206.4358"/>
</g>
<!-- A5&#45;&gt;A2 -->
<g id="edge20" class="edge">
<title>A5&#45;&gt;A2</title>
<path fill="none" stroke="#000000" d="M861.9012,-271.6798C892.3701,-291.9735 935.9837,-317.098 978.698,-328 1014.0104,-337.0128 1024.9677,-335.1792 1060.698,-328 1151.1413,-309.8274 1248.7654,-261.8754 1302.0599,-233.0001"/>
<polygon fill="#000000" stroke="#000000" points="1310.8543,-228.1897 1304.2405,-236.9366 1306.4676,-230.5891 1302.0809,-232.9886 1302.0809,-232.9886 1302.0809,-232.9886 1306.4676,-230.5891 1299.9214,-229.0406 1310.8543,-228.1897 1310.8543,-228.1897"/>
</g>
<!-- A6 -->
<g id="node7" class="node">
<title>A6</title>
<polygon fill="none" stroke="#000000" points="978.698,-287 978.698,-319 1060.698,-319 1060.698,-287 978.698,-287"/>
<text text-anchor="start" x="1001.081" y="-300" font-family="Helvetica,sans-Serif" font-size="10.00" fill="#000000">Persona</text>
<polygon fill="none" stroke="#000000" points="978.698,-219 978.698,-287 1060.698,-287 1060.698,-219 978.698,-219"/>
<text text-anchor="start" x="988.8585" y="-268" font-family="Helvetica,sans-Serif" font-size="10.00" fill="#000000">nombre:Texto</text>
<text text-anchor="start" x="988.5795" y="-256" font-family="Helvetica,sans-Serif" font-size="10.00" fill="#000000">apellido:Texto</text>
<text text-anchor="start" x="993.863" y="-244" font-family="Helvetica,sans-Serif" font-size="10.00" fill="#000000">email:Texto</text>
<text text-anchor="start" x="991.0835" y="-232" font-family="Helvetica,sans-Serif" font-size="10.00" fill="#000000">celular:Texto</text>
</g>
<!-- A5&#45;&gt;A6 -->
<g id="edge5" class="edge">
<title>A5&#45;&gt;A6</title>
<path fill="none" stroke="#000000" d="M873.9203,-249.1713C903.1943,-253.1532 939.4481,-258.0844 968.4781,-262.0331"/>
<polygon fill="none" stroke="#000000" points="873.7369,-249.1464 867.2525,-252.3012 861.8464,-247.529 868.3308,-244.3742 873.7369,-249.1464"/>
<polygon fill="#000000" stroke="#000000" points="978.4218,-263.3856 967.9065,-266.4967 973.4674,-262.7117 968.513,-262.0377 968.513,-262.0377 968.513,-262.0377 973.4674,-262.7117 969.1196,-257.5788 978.4218,-263.3856 978.4218,-263.3856"/>
<text text-anchor="middle" x="959.3218" y="-266.3178" font-family="Helvetica,sans-Serif" font-size="10.00" fill="#000000">representante1</text>
<text text-anchor="middle" x="880.9464" y="-238.5968" font-family="Helvetica,sans-Serif" font-size="10.00" fill="#000000">1</text>
</g>
<!-- A5&#45;&gt;A7 -->
<g id="edge7" class="edge">
<title>A5&#45;&gt;A7</title>
<path fill="none" stroke="#000000" d="M873.7652,-229.2051C904.2228,-222.3243 943.4089,-214.3749 978.698,-210 1018.7142,-205.0391 1063.6679,-202.7473 1100.2695,-201.7143"/>
<polygon fill="none" stroke="#000000" points="873.4013,-229.2887 868.4495,-234.5308 861.7061,-231.9762 866.6579,-226.734 873.4013,-229.2887"/>
<polygon fill="#000000" stroke="#000000" points="1110.3605,-201.4552 1100.4794,-206.2105 1105.3622,-201.5836 1100.3638,-201.712 1100.3638,-201.712 1100.3638,-201.712 1105.3622,-201.5836 1100.2483,-197.2135 1110.3605,-201.4552 1110.3605,-201.4552"/>
<text text-anchor="middle" x="1092.4573" y="-207.3701" font-family="Helvetica,sans-Serif" font-size="10.00" fill="#000000">jugador*</text>
<text text-anchor="middle" x="877.4789" y="-216.6791" font-family="Helvetica,sans-Serif" font-size="10.00" fill="#000000">1</text>
</g>
<!-- A6&#45;&gt;A7 -->
<g id="edge6" class="edge">
<title>A6&#45;&gt;A7</title>
<path fill="none" stroke="#000000" d="M1070.0349,-246.7009C1082.9835,-240.9647 1097.0745,-234.7225 1110.563,-228.7471"/>
<polygon fill="none" stroke="#000000" points="1068.5586,-243.5268 1060.8332,-250.7772 1071.3938,-249.9269 1068.5586,-243.5268"/>
</g>
<!-- A7&#45;&gt;A2 -->
<g id="edge19" class="edge">
<title>A7&#45;&gt;A2</title>
<path fill="none" stroke="#000000" d="M1235.7516,-204.3257C1248.6828,-205.0132 1262.3535,-205.74 1275.4373,-206.4356"/>
<polygon fill="#000000" stroke="#000000" points="1285.779,-206.9854 1275.5542,-210.9481 1280.7861,-206.7199 1275.7931,-206.4544 1275.7931,-206.4544 1275.7931,-206.4544 1280.7861,-206.7199 1276.0321,-201.9608 1285.779,-206.9854 1285.779,-206.9854"/>
</g>
<!-- A9 -->
<g id="node10" class="node">
<title>A9</title>
<polygon fill="none" stroke="#000000" points="1704.763,-58 1704.763,-90 1785.763,-90 1785.763,-58 1704.763,-58"/>
<text text-anchor="start" x="1721.092" y="-71" font-family="Helvetica,sans-Serif" font-size="10.00" fill="#000000">Estadistica</text>
<polygon fill="none" stroke="#000000" points="1704.763,-26 1704.763,-58 1785.763,-58 1785.763,-26 1704.763,-26"/>
<text text-anchor="start" x="1714.4235" y="-39" font-family="Helvetica,sans-Serif" font-size="10.00" fill="#000000">nombre:Texto</text>
</g>
<!-- A13 -->
<g id="node14" class="node">
<title>A13</title>
<polygon fill="none" stroke="#000000" points="1835.763,-64 1835.763,-108 1922.763,-108 1922.763,-64 1835.763,-64"/>
<text text-anchor="start" x="1854.527" y="-89" font-family="Helvetica,sans-Serif" font-size="10.00" fill="#000000">&lt;&lt;Enum&gt;&gt;</text>
<text text-anchor="start" x="1845.369" y="-77" font-family="Helvetica,sans-Serif" font-size="10.00" fill="#000000">TipoEstadistica</text>
<polygon fill="none" stroke="#000000" points="1835.763,-8 1835.763,-64 1922.763,-64 1922.763,-8 1835.763,-8"/>
<text text-anchor="start" x="1856.202" y="-45" font-family="Helvetica,sans-Serif" font-size="10.00" fill="#000000">POSITIVA</text>
<text text-anchor="start" x="1853.982" y="-33" font-family="Helvetica,sans-Serif" font-size="10.00" fill="#000000">NEGATIVA</text>
<text text-anchor="start" x="1858.711" y="-21" font-family="Helvetica,sans-Serif" font-size="10.00" fill="#000000">NEUTRA</text>
</g>
<!-- A9&#45;&gt;A13 -->
<g id="edge13" class="edge">
<title>A9&#45;&gt;A13</title>
<path fill="none" stroke="#000000" d="M1785.3311,-58C1797.7306,-58 1811.5685,-58 1824.7148,-58"/>
<polygon fill="#000000" stroke="#000000" points="1835.0689,-58 1825.069,-62.5001 1830.0689,-58 1825.0689,-58.0001 1825.0689,-58.0001 1825.0689,-58.0001 1830.0689,-58 1825.0689,-53.5001 1835.0689,-58 1835.0689,-58"/>
<text text-anchor="middle" x="1816.9428" y="-63.4524" font-family="Helvetica,sans-Serif" font-size="10.00" fill="#000000">tipo1</text>
<text text-anchor="middle" x="1803.4572" y="-46.5476" font-family="Helvetica,sans-Serif" font-size="10.00" fill="#000000">*</text>
</g>
<!-- A10 -->
<g id="node11" class="node">
<title>A10</title>
<polygon fill="none" stroke="#000000" points="1492.763,-120 1492.763,-152 1610.763,-152 1610.763,-120 1492.763,-120"/>
<text text-anchor="start" x="1508.9805" y="-133" font-family="Helvetica,sans-Serif" font-size="10.00" fill="#000000">RegistroEstadistica</text>
<polygon fill="none" stroke="#000000" points="1492.763,-76 1492.763,-120 1610.763,-120 1610.763,-76 1492.763,-76"/>
<text text-anchor="start" x="1529.2625" y="-101" font-family="Helvetica,sans-Serif" font-size="10.00" fill="#000000">valor:Real</text>
<text text-anchor="start" x="1502.5865" y="-89" font-family="Helvetica,sans-Serif" font-size="10.00" fill="#000000">estadistica:Estadistica</text>
</g>
<!-- A10&#45;&gt;A2JA9 -->
<g id="edge12" class="edge">
<title>A10&#45;&gt;A2JA9</title>
<path fill="none" stroke="#000000" stroke-dasharray="5,2" d="M1551.763,-75.8008C1551.763,-73.3591 1551.763,-70.9174 1551.763,-68.4756"/>
<polygon fill="#000000" stroke="#000000" points="1551.763,-58.4375 1556.2631,-68.4375 1551.763,-63.4375 1551.7631,-68.4375 1551.7631,-68.4375 1551.7631,-68.4375 1551.763,-63.4375 1547.2631,-68.4375 1551.763,-58.4375 1551.763,-58.4375"/>
</g>
<!-- A11&#45;&gt;A4 -->
<g id="edge16" class="edge">
<title>A11&#45;&gt;A4</title>
<path fill="none" stroke="#000000" d="M535.3645,-190.7461C546.8587,-195.8752 558.4291,-201.0384 569.1408,-205.8183"/>
<polygon fill="none" stroke="#000000" points="535.0168,-190.591 527.9075,-191.7987 524.0584,-185.7008 531.1676,-184.4931 535.0168,-190.591"/>
<polygon fill="#000000" stroke="#000000" points="578.3096,-209.9098 567.3437,-209.9441 573.7436,-207.8722 569.1775,-205.8347 569.1775,-205.8347 569.1775,-205.8347 573.7436,-207.8722 571.0113,-201.7253 578.3096,-209.9098 578.3096,-209.9098"/>
<text text-anchor="middle" x="558.3123" y="-207.242" font-family="Helvetica,sans-Serif" font-size="10.00" fill="#000000">2</text>
<text text-anchor="middle" x="544.0556" y="-182.3686" font-family="Helvetica,sans-Serif" font-size="10.00" fill="#000000">*</text>
</g>
<!-- A12 -->
<g id="node13" class="node">
<title>A12</title>
<polygon fill="none" stroke="#000000" points="714.198,-93 714.198,-125 929.198,-125 929.198,-93 714.198,-93"/>
<text text-anchor="start" x="785.305" y="-106" font-family="Helvetica,sans-Serif" font-size="10.00" fill="#000000">RegistroReporte</text>
<polygon fill="none" stroke="#000000" points="714.198,-49 714.198,-93 929.198,-93 929.198,-49 714.198,-49"/>
<text text-anchor="start" x="724.181" y="-74" font-family="Helvetica,sans-Serif" font-size="10.00" fill="#000000">estadisticaParticipanteA:ValorEstadistica</text>
<text text-anchor="start" x="724.181" y="-62" font-family="Helvetica,sans-Serif" font-size="10.00" fill="#000000">estadisticaParticipanteB:ValorEstadistica</text>
</g>
<!-- A11&#45;&gt;A12 -->
<g id="edge14" class="edge">
<title>A11&#45;&gt;A12</title>
<path fill="none" stroke="#000000" d="M536.0108,-141.1051C584.8453,-131.8403 648.5624,-119.7521 703.3802,-109.3521"/>
<polygon fill="none" stroke="#000000" points="535.9975,-141.1075 530.8483,-146.1558 524.2078,-143.3443 529.3571,-138.296 535.9975,-141.1075"/>
<polygon fill="#000000" stroke="#000000" points="713.5068,-107.431 704.5208,-113.7161 708.5944,-108.363 703.682,-109.295 703.682,-109.295 703.682,-109.295 708.5944,-108.363 702.8432,-104.8738 713.5068,-107.431 713.5068,-107.431"/>
<text text-anchor="middle" x="697.2737" y="-116.1138" font-family="Helvetica,sans-Serif" font-size="10.00" fill="#000000">registros*</text>
<text text-anchor="middle" x="540.4409" y="-128.6615" font-family="Helvetica,sans-Serif" font-size="10.00" fill="#000000">1</text>
</g>
<!-- A12&#45;&gt;A10 -->
<g id="edge15" class="edge">
<title>A12&#45;&gt;A10</title>
<path fill="none" stroke="#000000" d="M941.1504,-91.4332C1095.3853,-97.1333 1358.128,-106.8437 1482.5344,-111.4415"/>
<polygon fill="none" stroke="#000000" points="940.9872,-91.4272 934.8435,-95.2029 928.9954,-90.9839 935.139,-87.2083 940.9872,-91.4272"/>
<polygon fill="#000000" stroke="#000000" points="1492.6931,-111.8169 1482.5337,-115.9444 1487.6965,-111.6322 1482.6999,-111.4475 1482.6999,-111.4475 1482.6999,-111.4475 1487.6965,-111.6322 1482.8661,-106.9506 1492.6931,-111.8169 1492.6931,-111.8169"/>
<text text-anchor="middle" x="1474.2671" y="-116.5941" font-family="Helvetica,sans-Serif" font-size="10.00" fill="#000000">2</text>
<text text-anchor="middle" x="947.4213" y="-80.2068" font-family="Helvetica,sans-Serif" font-size="10.00" fill="#000000">*</text>
</g>
<!-- A2JA9&#45;&gt;A9 -->
<g id="edge11" class="edge">
<title>A2JA9&#45;&gt;A9</title>
<path fill="none" stroke="#000000" d="M1552.3166,-58C1559.7113,-58 1639.5599,-58 1694.0514,-58"/>
<polygon fill="#000000" stroke="#000000" points="1704.2451,-58 1694.2451,-62.5001 1699.2451,-58 1694.2451,-58.0001 1694.2451,-58.0001 1694.2451,-58.0001 1699.2451,-58 1694.245,-53.5001 1704.2451,-58 1704.2451,-58"/>
<text text-anchor="middle" x="1686.1189" y="-63.4524" font-family="Helvetica,sans-Serif" font-size="10.00" fill="#000000">*</text>
</g>
</g>
</svg>
