<?xml version="1.0" encoding="UTF-8" standalone="no"?>
<!DOCTYPE svg PUBLIC "-//W3C//DTD SVG 1.1//EN"
 "http://www.w3.org/Graphics/SVG/1.1/DTD/svg11.dtd">
<!-- Generated by graphviz version 2.40.1 (20161225.0304)
 -->
<!-- Title: G Pages: 1 -->
<svg width="2331pt" height="508pt"
 viewBox="0.00 0.00 2331.00 507.98" xmlns="http://www.w3.org/2000/svg" xmlns:xlink="http://www.w3.org/1999/xlink">
<g id="graph0" class="graph" transform="scale(1 1) rotate(0) translate(4 503.9797)">
<title>G</title>
<polygon fill="#ffffff" stroke="transparent" points="-4,4 -4,-503.9797 2327,-503.9797 2327,4 -4,4"/>
<!-- A0 -->
<g id="node1" class="node">
<title>A0</title>
<polygon fill="none" stroke="#000000" points=".5,-448 .5,-480 341.5,-480 341.5,-448 .5,-448"/>
<text text-anchor="start" x="155.163" y="-461" font-family="Helvetica,sans-Serif" font-size="10.00" fill="#000000">Torneo</text>
<polygon fill="none" stroke="#000000" points=".5,-344 .5,-448 341.5,-448 341.5,-344 .5,-344"/>
<text text-anchor="start" x="140.1605" y="-429" font-family="Helvetica,sans-Serif" font-size="10.00" fill="#000000">nombre:Texto</text>
<text text-anchor="start" x="131.822" y="-417" font-family="Helvetica,sans-Serif" font-size="10.00" fill="#000000">fechaInicio:Fecha</text>
<text text-anchor="start" x="102.6515" y="-405" font-family="Helvetica,sans-Serif" font-size="10.00" fill="#000000">fechaInicioInscripciones:Fecha</text>
<text text-anchor="start" x="100.712" y="-393" font-family="Helvetica,sans-Serif" font-size="10.00" fill="#000000">fechaCierreInscripciones:Fecha</text>
<text text-anchor="start" x="109.042" y="-381" font-family="Helvetica,sans-Serif" font-size="10.00" fill="#000000">numeroParticipantes:Entero</text>
<text text-anchor="start" x="131.5485" y="-369" font-family="Helvetica,sans-Serif" font-size="10.00" fill="#000000">limiteEdad:Entero</text>
<text text-anchor="start" x="120.1595" y="-357" font-family="Helvetica,sans-Serif" font-size="10.00" fill="#000000">valorInscripcion:Entero</text>
<polygon fill="none" stroke="#000000" points=".5,0 .5,-344 341.5,-344 341.5,0 .5,0"/>
<text text-anchor="start" x="109.741" y="-325" font-family="Helvetica,sans-Serif" font-size="10.00" fill="#000000">+Constructor(nombre:Texto</text>
<text text-anchor="start" x="131.822" y="-313" font-family="Helvetica,sans-Serif" font-size="10.00" fill="#000000">fechaInicio:Fecha</text>
<text text-anchor="start" x="102.6515" y="-301" font-family="Helvetica,sans-Serif" font-size="10.00" fill="#000000">fechaInicioInscripciones:Fecha</text>
<text text-anchor="start" x="100.712" y="-289" font-family="Helvetica,sans-Serif" font-size="10.00" fill="#000000">fechaCierreInscripciones:Fecha</text>
<text text-anchor="start" x="109.042" y="-277" font-family="Helvetica,sans-Serif" font-size="10.00" fill="#000000">numeroParticipantes:Entero</text>
<text text-anchor="start" x="131.5485" y="-265" font-family="Helvetica,sans-Serif" font-size="10.00" fill="#000000">limiteEdad:Entero</text>
<text text-anchor="start" x="120.1595" y="-253" font-family="Helvetica,sans-Serif" font-size="10.00" fill="#000000">valorInscripcion:Entero</text>
<text text-anchor="start" x="120.1555" y="-241" font-family="Helvetica,sans-Serif" font-size="10.00" fill="#000000">tipoTorneo:TipoTorneo</text>
<text text-anchor="start" x="10.288" y="-229" font-family="Helvetica,sans-Serif" font-size="10.00" fill="#000000">caracter:CaracterTorneo)+registrarParticipante(participante:Participante)</text>
<text text-anchor="start" x="126.1335" y="-217" font-family="Helvetica,sans-Serif" font-size="10.00" fill="#000000">+getNombre():Texto</text>
<text text-anchor="start" x="116.96" y="-205" font-family="Helvetica,sans-Serif" font-size="10.00" fill="#000000">+getFechaInicio():Fecha</text>
<text text-anchor="start" x="87.7895" y="-193" font-family="Helvetica,sans-Serif" font-size="10.00" fill="#000000">+getFechaInicioInscripciones():Fecha</text>
<text text-anchor="start" x="85.85" y="-181" font-family="Helvetica,sans-Serif" font-size="10.00" fill="#000000">+getFechaCierreInscripciones():Fecha</text>
<text text-anchor="start" x="95.015" y="-169" font-family="Helvetica,sans-Serif" font-size="10.00" fill="#000000">+getNumeroParticipantes():Entero</text>
<text text-anchor="start" x="116.6815" y="-157" font-family="Helvetica,sans-Serif" font-size="10.00" fill="#000000">+getLimiteEdad():Entero</text>
<text text-anchor="start" x="106.128" y="-145" font-family="Helvetica,sans-Serif" font-size="10.00" fill="#000000">+getValorInscripcion():Entero</text>
<text text-anchor="start" x="105.2935" y="-133" font-family="Helvetica,sans-Serif" font-size="10.00" fill="#000000">+getTipoTorneo():TipoTorneo</text>
<text text-anchor="start" x="78.6215" y="-121" font-family="Helvetica,sans-Serif" font-size="10.00" fill="#000000">+getParticipantes():Participante［*］</text>
<text text-anchor="start" x="102.2435" y="-109" font-family="Helvetica,sans-Serif" font-size="10.00" fill="#000000">+getCaracter():CaracterTorneo</text>
<text text-anchor="start" x="93.344" y="-97" font-family="Helvetica,sans-Serif" font-size="10.00" fill="#000000">+setFechaInicio(fechaInicio:Fecha)</text>
<text text-anchor="start" x="35.003" y="-85" font-family="Helvetica,sans-Serif" font-size="10.00" fill="#000000">+setFechaInicioInscripciones(fechaInicioInscripciones:Fecha)</text>
<text text-anchor="start" x="31.124" y="-73" font-family="Helvetica,sans-Serif" font-size="10.00" fill="#000000">+setFechaCierreInscripciones(fechaCierreInscripciones:Fecha)</text>
<text text-anchor="start" x="67.65" y="-61" font-family="Helvetica,sans-Serif" font-size="10.00" fill="#000000">buscarParticipante(nombre:Texto):Participante</text>
<text text-anchor="start" x="58.8875" y="-49" font-family="Helvetica,sans-Serif" font-size="10.00" fill="#000000">+registrarJugador(equipo:Equipo,jugador:Jugador)</text>
<text text-anchor="start" x="44.4445" y="-37" font-family="Helvetica,sans-Serif" font-size="10.00" fill="#000000">+registrarJugador(nombreEquipo:Texto,jugador:Jugador)</text>
<text text-anchor="start" x="43.896" y="-25" font-family="Helvetica,sans-Serif" font-size="10.00" fill="#000000">+registrarEstadisticaParticipante(participante:Participante</text>
<text text-anchor="start" x="108.4915" y="-13" font-family="Helvetica,sans-Serif" font-size="10.00" fill="#000000">estadistica:ValorEstadistica)</text>
</g>
<!-- A1 -->
<g id="node2" class="node">
<title>A1</title>
<polygon fill="none" stroke="#000000" points="422.5,-372 422.5,-416 493.5,-416 493.5,-372 422.5,-372"/>
<text text-anchor="start" x="433.264" y="-397" font-family="Helvetica,sans-Serif" font-size="10.00" fill="#000000">&lt;&lt;Enum&gt;&gt;</text>
<text text-anchor="start" x="432.44" y="-385" font-family="Helvetica,sans-Serif" font-size="10.00" fill="#000000">TipoTorneo</text>
<polygon fill="none" stroke="#000000" points="422.5,-304 422.5,-372 493.5,-372 493.5,-304 422.5,-304"/>
<text text-anchor="start" x="441.6075" y="-353" font-family="Helvetica,sans-Serif" font-size="10.00" fill="#000000">LOCAL</text>
<text text-anchor="start" x="432.164" y="-341" font-family="Helvetica,sans-Serif" font-size="10.00" fill="#000000">REGIONAL</text>
<text text-anchor="start" x="432.444" y="-329" font-family="Helvetica,sans-Serif" font-size="10.00" fill="#000000">NACIONAL</text>
<text text-anchor="start" x="435.5035" y="-317" font-family="Helvetica,sans-Serif" font-size="10.00" fill="#000000">MUNDIAL</text>
</g>
<!-- A0&#45;&gt;A1 -->
<g id="edge3" class="edge">
<title>A0&#45;&gt;A1</title>
<path fill="none" stroke="#000000" d="M341.1799,-311.3644C367.4553,-322.3506 392.4687,-332.8092 412.5205,-341.1932"/>
<polygon fill="#000000" stroke="#000000" points="421.9493,-345.1356 410.9874,-345.4297 417.3363,-343.2068 412.7233,-341.278 412.7233,-341.278 412.7233,-341.278 417.3363,-343.2068 414.4593,-337.1263 421.9493,-345.1356 421.9493,-345.1356"/>
<text text-anchor="middle" x="401.9656" y="-342.9415" font-family="Helvetica,sans-Serif" font-size="10.00" fill="#000000">tipoTorneo1</text>
<text text-anchor="middle" x="361.1636" y="-307.5585" font-family="Helvetica,sans-Serif" font-size="10.00" fill="#000000">*</text>
</g>
<!-- A4 -->
<g id="node5" class="node">
<title>A4</title>
<polygon fill="none" stroke="#000000" points="574,-276 574,-320 794,-320 794,-276 574,-276"/>
<text text-anchor="start" x="653.151" y="-301" font-family="Helvetica,sans-Serif" font-size="10.00" fill="#000000">&lt;&lt;interface&gt;&gt;</text>
<text text-anchor="start" x="657.6055" y="-289" font-family="Helvetica,sans-Serif" font-size="10.00" fill="#000000">Participante</text>
<polygon fill="none" stroke="#000000" points="574,-232 574,-276 794,-276 794,-232 574,-232"/>
<text text-anchor="start" x="617.7425" y="-257" font-family="Helvetica,sans-Serif" font-size="10.00" fill="#000000">+getNombreCompleto():Texto</text>
<text text-anchor="start" x="583.8485" y="-245" font-family="Helvetica,sans-Serif" font-size="10.00" fill="#000000">+getRegistroEstadistica():RegistroEstadistica</text>
</g>
<!-- A0&#45;&gt;A4 -->
<g id="edge4" class="edge">
<title>A0&#45;&gt;A4</title>
<path fill="none" stroke="#000000" d="M353.355,-254.2702C366.0936,-255.2113 378.7377,-256.1298 391,-257 447.725,-261.0257 510.6528,-265.151 563.605,-268.5245"/>
<polygon fill="none" stroke="#000000" points="353.0891,-254.2506 346.8094,-257.7953 341.1221,-253.3619 347.4018,-249.8172 353.0891,-254.2506"/>
<polygon fill="#000000" stroke="#000000" points="573.7146,-269.1672 563.4492,-273.0236 568.7246,-268.8499 563.7347,-268.5327 563.7347,-268.5327 563.7347,-268.5327 568.7246,-268.8499 564.0202,-264.0417 573.7146,-269.1672 573.7146,-269.1672"/>
<text text-anchor="middle" x="555.0887" y="-273.4526" font-family="Helvetica,sans-Serif" font-size="10.00" fill="#000000">participantes*</text>
<text text-anchor="middle" x="359.8243" y="-243.275" font-family="Helvetica,sans-Serif" font-size="10.00" fill="#000000">1</text>
</g>
<!-- A8 -->
<g id="node9" class="node">
<title>A8</title>
<polygon fill="none" stroke="#000000" points="412.5,-98 412.5,-142 502.5,-142 502.5,-98 412.5,-98"/>
<text text-anchor="start" x="432.764" y="-123" font-family="Helvetica,sans-Serif" font-size="10.00" fill="#000000">&lt;&lt;Enum&gt;&gt;</text>
<text text-anchor="start" x="422.4965" y="-111" font-family="Helvetica,sans-Serif" font-size="10.00" fill="#000000">CaracterTorneo</text>
<polygon fill="none" stroke="#000000" points="412.5,-54 412.5,-98 502.5,-98 502.5,-54 412.5,-54"/>
<text text-anchor="start" x="429.445" y="-79" font-family="Helvetica,sans-Serif" font-size="10.00" fill="#000000">INDIVIDUAL</text>
<text text-anchor="start" x="436.943" y="-67" font-family="Helvetica,sans-Serif" font-size="10.00" fill="#000000">GRUPAL</text>
</g>
<!-- A0&#45;&gt;A8 -->
<g id="edge2" class="edge">
<title>A0&#45;&gt;A8</title>
<path fill="none" stroke="#000000" d="M341.1799,-155.5521C363.6287,-144.445 385.1564,-133.7937 403.4556,-124.7397"/>
<polygon fill="#000000" stroke="#000000" points="412.443,-120.293 405.4756,-128.761 407.9615,-122.5104 403.48,-124.7277 403.48,-124.7277 403.48,-124.7277 407.9615,-122.5104 401.4844,-120.6944 412.443,-120.293 412.443,-120.293"/>
<text text-anchor="middle" x="399.9449" y="-132.9071" font-family="Helvetica,sans-Serif" font-size="10.00" fill="#000000">caracter1</text>
<text text-anchor="middle" x="353.6779" y="-136.9381" font-family="Helvetica,sans-Serif" font-size="10.00" fill="#000000">*</text>
</g>
<!-- A11 -->
<g id="node12" class="node">
<title>A11</title>
<polygon fill="none" stroke="#000000" points="391.5,-216 391.5,-248 524.5,-248 524.5,-216 391.5,-216"/>
<text text-anchor="start" x="440.2185" y="-229" font-family="Helvetica,sans-Serif" font-size="10.00" fill="#000000">Reporte</text>
<polygon fill="none" stroke="#000000" points="391.5,-160 391.5,-216 524.5,-216 524.5,-160 391.5,-160"/>
<text text-anchor="start" x="430.4895" y="-197" font-family="Helvetica,sans-Serif" font-size="10.00" fill="#000000">fecha:Fecha</text>
<text text-anchor="start" x="401.042" y="-185" font-family="Helvetica,sans-Serif" font-size="10.00" fill="#000000">participanteA:Participante</text>
<text text-anchor="start" x="401.042" y="-173" font-family="Helvetica,sans-Serif" font-size="10.00" fill="#000000">participanteB:Participante</text>
</g>
<!-- A0&#45;&gt;A11 -->
<g id="edge1" class="edge">
<title>A0&#45;&gt;A11</title>
<path fill="none" stroke="#000000" stroke-dasharray="5,2" d="M341.1799,-218.5907C354.816,-216.8802 368.1122,-215.2124 380.5515,-213.6521"/>
<polygon fill="#000000" stroke="#000000" points="390.7875,-212.3681 381.4254,-218.0778 385.8264,-212.9905 380.8653,-213.6128 380.8653,-213.6128 380.8653,-213.6128 385.8264,-212.9905 380.3052,-209.1478 390.7875,-212.3681 390.7875,-212.3681"/>
</g>
<!-- A2 -->
<g id="node3" class="node">
<title>A2</title>
<polygon fill="none" stroke="#000000" points="1514.5,-322 1514.5,-366 1753.5,-366 1753.5,-322 1514.5,-322"/>
<text text-anchor="start" x="1603.151" y="-347" font-family="Helvetica,sans-Serif" font-size="10.00" fill="#000000">&lt;&lt;interface&gt;&gt;</text>
<text text-anchor="start" x="1591.2175" y="-335" font-family="Helvetica,sans-Serif" font-size="10.00" fill="#000000">RegistroEstadistica</text>
<polygon fill="none" stroke="#000000" points="1514.5,-254 1514.5,-322 1753.5,-322 1753.5,-254 1514.5,-254"/>
<text text-anchor="start" x="1534.401" y="-303" font-family="Helvetica,sans-Serif" font-size="10.00" fill="#000000">+getEstadisticas():ValorEstadistica［*］</text>
<text text-anchor="start" x="1524.4055" y="-291" font-family="Helvetica,sans-Serif" font-size="10.00" fill="#000000">+registrarEstadistica(estadistica:ValorEstadistica)</text>
<text text-anchor="start" x="1554.681" y="-279" font-family="Helvetica,sans-Serif" font-size="10.00" fill="#000000">+comparar(participante:Participante</text>
<text text-anchor="start" x="1567.0425" y="-267" font-family="Helvetica,sans-Serif" font-size="10.00" fill="#000000">estadistica:Estadistica):Entero</text>
</g>
<!-- A3 -->
<g id="node4" class="node">
<title>A3</title>
<polygon fill="none" stroke="#000000" points="1803.5,-326 1803.5,-358 1994.5,-358 1994.5,-326 1803.5,-326"/>
<text text-anchor="start" x="1846.7745" y="-339" font-family="Helvetica,sans-Serif" font-size="10.00" fill="#000000">RegistroEstadisticaImpl</text>
<polygon fill="none" stroke="#000000" points="1803.5,-294 1803.5,-326 1994.5,-326 1994.5,-294 1803.5,-294"/>
<text text-anchor="start" x="1813.153" y="-307" font-family="Helvetica,sans-Serif" font-size="10.00" fill="#000000">estadisticas:ValorEstadistica［*］</text>
<polygon fill="none" stroke="#000000" points="1803.5,-262 1803.5,-294 1994.5,-294 1994.5,-262 1803.5,-262"/>
<text text-anchor="start" x="1866.916" y="-275" font-family="Helvetica,sans-Serif" font-size="10.00" fill="#000000">+Constructor()</text>
</g>
<!-- A2&#45;&gt;A3 -->
<g id="edge18" class="edge">
<title>A2&#45;&gt;A3</title>
<path fill="none" stroke="#000000" d="M1763.3459,-310C1776.6241,-310 1789.9379,-310 1802.7536,-310"/>
<polygon fill="none" stroke="#000000" points="1763.2077,-306.5001 1753.2077,-310 1763.2076,-313.5001 1763.2077,-306.5001"/>
</g>
<!-- A2&#45;&gt;A4 -->
<g id="edge17" class="edge">
<title>A2&#45;&gt;A4</title>
<path fill="none" stroke="#000000" d="M1575.9759,-373.6461C1545.681,-402.9083 1506.1166,-435.0409 1464,-453 1312.8239,-517.4637 1256.967,-504.8653 1095,-477 978.3529,-456.9317 949.2174,-442.2087 844,-388 807.0762,-368.9766 768.8533,-342.5138 739.0292,-320.0872"/>
<polygon fill="none" stroke="#000000" points="1578.7941,-375.7839 1583.4742,-366.2787 1573.8881,-370.7907 1578.7941,-375.7839"/>
</g>
<!-- A2JA9 -->
<!-- A2&#45;&gt;A2JA9 -->
<g id="edge10" class="edge">
<title>A2&#45;&gt;A2JA9</title>
<path fill="none" stroke="#000000" d="M1655.3148,-253.8929C1681.1259,-195.8176 1730.0265,-107.7336 1803,-65 1837.4894,-44.8029 1891.2467,-54.5652 1897.8317,-55.8644"/>
<text text-anchor="middle" x="1655.25" y="-230.893" font-family="Helvetica,sans-Serif" font-size="10.00" fill="#000000">*</text>
</g>
<!-- A5 -->
<g id="node6" class="node">
<title>A5</title>
<polygon fill="none" stroke="#000000" points="856.5,-347 856.5,-379 1033.5,-379 1033.5,-347 856.5,-347"/>
<text text-anchor="start" x="929.438" y="-360" font-family="Helvetica,sans-Serif" font-size="10.00" fill="#000000">Equipo</text>
<polygon fill="none" stroke="#000000" points="856.5,-315 856.5,-347 1033.5,-347 1033.5,-315 856.5,-315"/>
<text text-anchor="start" x="914.1605" y="-328" font-family="Helvetica,sans-Serif" font-size="10.00" fill="#000000">nombre:Texto</text>
<polygon fill="none" stroke="#000000" points="856.5,-223 856.5,-315 1033.5,-315 1033.5,-223 856.5,-223"/>
<text text-anchor="start" x="883.741" y="-296" font-family="Helvetica,sans-Serif" font-size="10.00" fill="#000000">+Constructor(nombre:Texto</text>
<text text-anchor="start" x="892.485" y="-284" font-family="Helvetica,sans-Serif" font-size="10.00" fill="#000000">representante:Persona)</text>
<text text-anchor="start" x="900.1335" y="-272" font-family="Helvetica,sans-Serif" font-size="10.00" fill="#000000">+getNombre():Texto</text>
<text text-anchor="start" x="879.0075" y="-260" font-family="Helvetica,sans-Serif" font-size="10.00" fill="#000000">+getRepresentante():Persona</text>
<text text-anchor="start" x="866.507" y="-248" font-family="Helvetica,sans-Serif" font-size="10.00" fill="#000000">+getJugadores():Jugador［*］</text>
<text text-anchor="start" x="866.2355" y="-236" font-family="Helvetica,sans-Serif" font-size="10.00" fill="#000000">+registrarJugador(jugador:Jugador)</text>
</g>
<!-- A4&#45;&gt;A5 -->
<g id="edge9" class="edge">
<title>A4&#45;&gt;A5</title>
<path fill="none" stroke="#000000" d="M804.259,-287.5412C821.5792,-289.2034 839.1364,-290.8883 855.6958,-292.4775"/>
<polygon fill="none" stroke="#000000" points="804.3865,-284.0374 794.0979,-286.566 803.7178,-291.0054 804.3865,-284.0374"/>
</g>
<!-- A7 -->
<g id="node8" class="node">
<title>A7</title>
<polygon fill="none" stroke="#000000" points="1287.5,-318 1287.5,-350 1464.5,-350 1464.5,-318 1287.5,-318"/>
<text text-anchor="start" x="1357.938" y="-331" font-family="Helvetica,sans-Serif" font-size="10.00" fill="#000000">Jugador</text>
<polygon fill="none" stroke="#000000" points="1287.5,-286 1287.5,-318 1464.5,-318 1464.5,-286 1287.5,-286"/>
<text text-anchor="start" x="1323.489" y="-299" font-family="Helvetica,sans-Serif" font-size="10.00" fill="#000000">fechaNacimiento:Fecha</text>
<polygon fill="none" stroke="#000000" points="1287.5,-182 1287.5,-286 1464.5,-286 1464.5,-182 1287.5,-182"/>
<text text-anchor="start" x="1314.741" y="-267" font-family="Helvetica,sans-Serif" font-size="10.00" fill="#000000">+Constructor(nombre:Texto</text>
<text text-anchor="start" x="1344.8815" y="-255" font-family="Helvetica,sans-Serif" font-size="10.00" fill="#000000">apellido:Texto</text>
<text text-anchor="start" x="1350.165" y="-243" font-family="Helvetica,sans-Serif" font-size="10.00" fill="#000000">email:Texto</text>
<text text-anchor="start" x="1347.3855" y="-231" font-family="Helvetica,sans-Serif" font-size="10.00" fill="#000000">celular:Texto</text>
<text text-anchor="start" x="1321.8245" y="-219" font-family="Helvetica,sans-Serif" font-size="10.00" fill="#000000">fechaNacimiento:Fecha)</text>
<text text-anchor="start" x="1308.627" y="-207" font-family="Helvetica,sans-Serif" font-size="10.00" fill="#000000">+getFechaNacimiento():Fecha</text>
<text text-anchor="start" x="1297.2295" y="-195" font-family="Helvetica,sans-Serif" font-size="10.00" fill="#000000">+calcularEdad(fecha:Fecha):Entero</text>
</g>
<!-- A4&#45;&gt;A7 -->
<g id="edge8" class="edge">
<title>A4&#45;&gt;A7</title>
<path fill="none" stroke="#000000" d="M792.637,-228.4394C809.559,-222.634 827.054,-217.519 844,-214 1015.0735,-178.4745 1066.1317,-167.5003 1237,-204 1253.6173,-207.5497 1270.653,-213.2464 1286.8415,-219.783"/>
<polygon fill="none" stroke="#000000" points="791.0128,-225.301 782.7483,-231.9304 793.3431,-231.9018 791.0128,-225.301"/>
</g>
<!-- A5&#45;&gt;A2 -->
<g id="edge20" class="edge">
<title>A5&#45;&gt;A2</title>
<path fill="none" stroke="#000000" d="M1000.5778,-379.0812C1025.8291,-407.6731 1058.2527,-436.7431 1095,-452 1244.755,-514.1761 1429.4057,-433.9457 1538.9608,-371.2087"/>
<polygon fill="#000000" stroke="#000000" points="1547.694,-366.1533 1541.2938,-375.0577 1543.3667,-368.6582 1539.0394,-371.1632 1539.0394,-371.1632 1539.0394,-371.1632 1543.3667,-368.6582 1536.785,-367.2686 1547.694,-366.1533 1547.694,-366.1533"/>
</g>
<!-- A6 -->
<g id="node7" class="node">
<title>A6</title>
<polygon fill="none" stroke="#000000" points="1095,-411 1095,-443 1237,-443 1237,-411 1095,-411"/>
<text text-anchor="start" x="1147.383" y="-424" font-family="Helvetica,sans-Serif" font-size="10.00" fill="#000000">Persona</text>
<polygon fill="none" stroke="#000000" points="1095,-343 1095,-411 1237,-411 1237,-343 1095,-343"/>
<text text-anchor="start" x="1135.1605" y="-392" font-family="Helvetica,sans-Serif" font-size="10.00" fill="#000000">nombre:Texto</text>
<text text-anchor="start" x="1134.8815" y="-380" font-family="Helvetica,sans-Serif" font-size="10.00" fill="#000000">apellido:Texto</text>
<text text-anchor="start" x="1140.165" y="-368" font-family="Helvetica,sans-Serif" font-size="10.00" fill="#000000">email:Texto</text>
<text text-anchor="start" x="1137.3855" y="-356" font-family="Helvetica,sans-Serif" font-size="10.00" fill="#000000">celular:Texto</text>
<polygon fill="none" stroke="#000000" points="1095,-227 1095,-343 1237,-343 1237,-227 1095,-227"/>
<text text-anchor="start" x="1104.741" y="-324" font-family="Helvetica,sans-Serif" font-size="10.00" fill="#000000">+Constructor(nombre:Texto</text>
<text text-anchor="start" x="1134.8815" y="-312" font-family="Helvetica,sans-Serif" font-size="10.00" fill="#000000">apellido:Texto</text>
<text text-anchor="start" x="1140.165" y="-300" font-family="Helvetica,sans-Serif" font-size="10.00" fill="#000000">email:Texto</text>
<text text-anchor="start" x="1135.721" y="-288" font-family="Helvetica,sans-Serif" font-size="10.00" fill="#000000">celular:Texto)</text>
<text text-anchor="start" x="1121.1335" y="-276" font-family="Helvetica,sans-Serif" font-size="10.00" fill="#000000">+getNombre():Texto</text>
<text text-anchor="start" x="1121.1295" y="-264" font-family="Helvetica,sans-Serif" font-size="10.00" fill="#000000">+getApellido():Texto</text>
<text text-anchor="start" x="1126.413" y="-252" font-family="Helvetica,sans-Serif" font-size="10.00" fill="#000000">+getEmail():Texto</text>
<text text-anchor="start" x="1123.079" y="-240" font-family="Helvetica,sans-Serif" font-size="10.00" fill="#000000">+getCelular():Texto</text>
</g>
<!-- A5&#45;&gt;A6 -->
<g id="edge5" class="edge">
<title>A5&#45;&gt;A6</title>
<path fill="none" stroke="#000000" d="M1045.4021,-316.4884C1058.5803,-318.5112 1071.946,-320.5628 1084.7448,-322.5274"/>
<polygon fill="none" stroke="#000000" points="1045.1773,-316.4539 1038.6399,-319.4973 1033.3163,-314.6332 1039.8537,-311.5899 1045.1773,-316.4539"/>
<polygon fill="#000000" stroke="#000000" points="1094.8733,-324.0821 1084.3063,-327.0127 1089.9312,-323.3235 1084.9891,-322.5648 1084.9891,-322.5648 1084.9891,-322.5648 1089.9312,-323.3235 1085.6718,-318.1169 1094.8733,-324.0821 1094.8733,-324.0821"/>
<text text-anchor="middle" x="1075.6746" y="-326.6865" font-family="Helvetica,sans-Serif" font-size="10.00" fill="#000000">representante1</text>
<text text-anchor="middle" x="1052.515" y="-306.0288" font-family="Helvetica,sans-Serif" font-size="10.00" fill="#000000">1</text>
</g>
<!-- A5&#45;&gt;A7 -->
<g id="edge7" class="edge">
<title>A5&#45;&gt;A7</title>
<path fill="none" stroke="#000000" d="M1044.4932,-236.9545C1060.8216,-229.1428 1077.9784,-222.3825 1095,-218 1156.1179,-202.2641 1174.7649,-207.5213 1237,-218 1250.2268,-220.227 1263.8781,-223.5717 1277.2185,-227.4795"/>
<polygon fill="none" stroke="#000000" points="1044.074,-237.1633 1040.4872,-243.4192 1033.3331,-242.5144 1036.9199,-236.2585 1044.074,-237.1633"/>
<polygon fill="#000000" stroke="#000000" points="1286.8668,-230.4165 1275.9897,-231.8092 1282.0835,-228.9604 1277.3002,-227.5043 1277.3002,-227.5043 1277.3002,-227.5043 1282.0835,-228.9604 1278.6107,-223.1993 1286.8668,-230.4165 1286.8668,-230.4165"/>
<text text-anchor="middle" x="1267.0648" y="-230.2239" font-family="Helvetica,sans-Serif" font-size="10.00" fill="#000000">jugador*</text>
<text text-anchor="middle" x="1045.7884" y="-223.8661" font-family="Helvetica,sans-Serif" font-size="10.00" fill="#000000">1</text>
</g>
<!-- A6&#45;&gt;A7 -->
<g id="edge6" class="edge">
<title>A6&#45;&gt;A7</title>
<path fill="none" stroke="#000000" d="M1247.034,-308.311C1260.0178,-304.0347 1273.5146,-299.5895 1286.6686,-295.2571"/>
<polygon fill="none" stroke="#000000" points="1245.6227,-305.0908 1237.2195,-311.5435 1247.8125,-311.7395 1245.6227,-305.0908"/>
</g>
<!-- A7&#45;&gt;A2 -->
<g id="edge19" class="edge">
<title>A7&#45;&gt;A2</title>
<path fill="none" stroke="#000000" d="M1464.289,-281.1423C1476.9498,-283.3015 1490.1848,-285.5586 1503.4347,-287.8183"/>
<polygon fill="#000000" stroke="#000000" points="1513.5607,-289.5452 1502.9465,-292.3 1508.6319,-288.7046 1503.703,-287.864 1503.703,-287.864 1503.703,-287.864 1508.6319,-288.7046 1504.4596,-283.4281 1513.5607,-289.5452 1513.5607,-289.5452"/>
</g>
<!-- A9 -->
<g id="node10" class="node">
<title>A9</title>
<polygon fill="none" stroke="#000000" points="2044,-78 2044,-110 2186,-110 2186,-78 2044,-78"/>
<text text-anchor="start" x="2090.829" y="-91" font-family="Helvetica,sans-Serif" font-size="10.00" fill="#000000">Estadistica</text>
<polygon fill="none" stroke="#000000" points="2044,-46 2044,-78 2186,-78 2186,-46 2044,-46"/>
<text text-anchor="start" x="2084.1605" y="-59" font-family="Helvetica,sans-Serif" font-size="10.00" fill="#000000">nombre:Texto</text>
<polygon fill="none" stroke="#000000" points="2044,-2 2044,-46 2186,-46 2186,-2 2044,-2"/>
<text text-anchor="start" x="2053.741" y="-27" font-family="Helvetica,sans-Serif" font-size="10.00" fill="#000000">+Constructor(nombre:Texto</text>
<text text-anchor="start" x="2069.994" y="-15" font-family="Helvetica,sans-Serif" font-size="10.00" fill="#000000">tipo:TipoEstadistica)</text>
</g>
<!-- A13 -->
<g id="node14" class="node">
<title>A13</title>
<polygon fill="none" stroke="#000000" points="2236.5,-62 2236.5,-106 2323.5,-106 2323.5,-62 2236.5,-62"/>
<text text-anchor="start" x="2255.264" y="-87" font-family="Helvetica,sans-Serif" font-size="10.00" fill="#000000">&lt;&lt;Enum&gt;&gt;</text>
<text text-anchor="start" x="2246.106" y="-75" font-family="Helvetica,sans-Serif" font-size="10.00" fill="#000000">TipoEstadistica</text>
<polygon fill="none" stroke="#000000" points="2236.5,-6 2236.5,-62 2323.5,-62 2323.5,-6 2236.5,-6"/>
<text text-anchor="start" x="2256.939" y="-43" font-family="Helvetica,sans-Serif" font-size="10.00" fill="#000000">POSITIVA</text>
<text text-anchor="start" x="2254.719" y="-31" font-family="Helvetica,sans-Serif" font-size="10.00" fill="#000000">NEGATIVA</text>
<text text-anchor="start" x="2259.448" y="-19" font-family="Helvetica,sans-Serif" font-size="10.00" fill="#000000">NEUTRA</text>
</g>
<!-- A9&#45;&gt;A13 -->
<g id="edge13" class="edge">
<title>A9&#45;&gt;A13</title>
<path fill="none" stroke="#000000" d="M2186.1954,-56C2199.3558,-56 2212.9009,-56 2225.4496,-56"/>
<polygon fill="#000000" stroke="#000000" points="2235.7259,-56 2225.7259,-60.5001 2230.7259,-56 2225.7259,-56.0001 2225.7259,-56.0001 2225.7259,-56.0001 2230.7259,-56 2225.7258,-51.5001 2235.7259,-56 2235.7259,-56"/>
<text text-anchor="middle" x="2217.5997" y="-61.4524" font-family="Helvetica,sans-Serif" font-size="10.00" fill="#000000">tipo1</text>
<text text-anchor="middle" x="2204.3215" y="-44.5476" font-family="Helvetica,sans-Serif" font-size="10.00" fill="#000000">*</text>
</g>
<!-- A10 -->
<g id="node11" class="node">
<title>A10</title>
<polygon fill="none" stroke="#000000" points="1836.5,-162 1836.5,-194 1961.5,-194 1961.5,-162 1836.5,-162"/>
<text text-anchor="start" x="1863.1615" y="-175" font-family="Helvetica,sans-Serif" font-size="10.00" fill="#000000">ValorEstadistica</text>
<polygon fill="none" stroke="#000000" points="1836.5,-118 1836.5,-162 1961.5,-162 1961.5,-118 1836.5,-118"/>
<text text-anchor="start" x="1876.4995" y="-143" font-family="Helvetica,sans-Serif" font-size="10.00" fill="#000000">valor:Real</text>
<text text-anchor="start" x="1849.8235" y="-131" font-family="Helvetica,sans-Serif" font-size="10.00" fill="#000000">estadistica:Estadistica</text>
<polygon fill="none" stroke="#000000" points="1836.5,-74 1836.5,-118 1961.5,-118 1961.5,-74 1836.5,-74"/>
<text text-anchor="start" x="1846.08" y="-99" font-family="Helvetica,sans-Serif" font-size="10.00" fill="#000000">+Constructor(valor:Real</text>
<text text-anchor="start" x="1848.159" y="-87" font-family="Helvetica,sans-Serif" font-size="10.00" fill="#000000">estadistica:Estadistica)</text>
</g>
<!-- A10&#45;&gt;A2JA9 -->
<g id="edge12" class="edge">
<title>A10&#45;&gt;A2JA9</title>
<path fill="none" stroke="#000000" stroke-dasharray="5,2" d="M1898.5,-73.8409C1898.5,-71.5074 1898.5,-69.174 1898.5,-66.8406"/>
<polygon fill="#000000" stroke="#000000" points="1898.5,-56.6094 1903.0001,-66.6093 1898.5,-61.6094 1898.5001,-66.6094 1898.5001,-66.6094 1898.5001,-66.6094 1898.5,-61.6094 1894.0001,-66.6094 1898.5,-56.6094 1898.5,-56.6094"/>
</g>
<!-- A11&#45;&gt;A4 -->
<g id="edge16" class="edge">
<title>A11&#45;&gt;A4</title>
<path fill="none" stroke="#000000" d="M535.8406,-228.903C545.0848,-231.8415 554.673,-234.8894 564.3236,-237.9572"/>
<polygon fill="none" stroke="#000000" points="535.6685,-228.8483 528.7387,-230.8427 524.2324,-225.213 531.1623,-223.2186 535.6685,-228.8483"/>
<polygon fill="#000000" stroke="#000000" points="573.9845,-241.0282 563.0912,-242.2872 569.2195,-239.5134 564.4544,-237.9987 564.4544,-237.9987 564.4544,-237.9987 569.2195,-239.5134 565.8177,-233.7102 573.9845,-241.0282 573.9845,-241.0282"/>
<text text-anchor="middle" x="554.1496" y="-240.5922" font-family="Helvetica,sans-Serif" font-size="10.00" fill="#000000">2</text>
<text text-anchor="middle" x="544.0674" y="-219.649" font-family="Helvetica,sans-Serif" font-size="10.00" fill="#000000">*</text>
</g>
<!-- A12 -->
<g id="node13" class="node">
<title>A12</title>
<polygon fill="none" stroke="#000000" points="844.5,-101 844.5,-133 1045.5,-133 1045.5,-101 844.5,-101"/>
<text text-anchor="start" x="908.607" y="-114" font-family="Helvetica,sans-Serif" font-size="10.00" fill="#000000">RegistroReporte</text>
<polygon fill="none" stroke="#000000" points="844.5,-57 844.5,-101 1045.5,-101 1045.5,-57 844.5,-57"/>
<text text-anchor="start" x="854.427" y="-82" font-family="Helvetica,sans-Serif" font-size="10.00" fill="#000000">estadisticaParticipanteA:ValorEstadistica</text>
<text text-anchor="start" x="854.427" y="-70" font-family="Helvetica,sans-Serif" font-size="10.00" fill="#000000">estadisticaParticipanteB:ValorEstadistica</text>
</g>
<!-- A11&#45;&gt;A12 -->
<g id="edge14" class="edge">
<title>A11&#45;&gt;A12</title>
<path fill="none" stroke="#000000" d="M535.9268,-186.4466C616.7171,-168.3641 743.3223,-140.0274 834.1877,-119.69"/>
<polygon fill="none" stroke="#000000" points="535.9044,-186.4515 530.923,-191.6655 524.1941,-189.0726 529.1756,-183.8586 535.9044,-186.4515"/>
<polygon fill="#000000" stroke="#000000" points="843.974,-117.4997 835.1984,-124.0752 839.0947,-118.5918 834.2154,-119.6839 834.2154,-119.6839 834.2154,-119.6839 839.0947,-118.5918 833.2325,-115.2925 843.974,-117.4997 843.974,-117.4997"/>
<text text-anchor="middle" x="828.1316" y="-126.707" font-family="Helvetica,sans-Serif" font-size="10.00" fill="#000000">registros*</text>
<text text-anchor="middle" x="540.0365" y="-173.8652" font-family="Helvetica,sans-Serif" font-size="10.00" fill="#000000">1</text>
</g>
<!-- A12&#45;&gt;A10 -->
<g id="edge15" class="edge">
<title>A12&#45;&gt;A10</title>
<path fill="none" stroke="#000000" d="M1057.3636,-99.6139C1255.4894,-107.7134 1660.4884,-124.27 1825.7922,-131.0277"/>
<polygon fill="none" stroke="#000000" points="1057.2311,-99.6086 1051.0727,-103.3601 1045.2412,-99.1183 1051.3996,-95.3668 1057.2311,-99.6086"/>
<polygon fill="#000000" stroke="#000000" points="1835.8559,-131.4391 1825.6804,-135.5268 1830.8601,-131.2348 1825.8643,-131.0305 1825.8643,-131.0305 1825.8643,-131.0305 1830.8601,-131.2348 1826.0481,-126.5343 1835.8559,-131.4391 1835.8559,-131.4391"/>
<text text-anchor="middle" x="1817.3996" y="-136.144" font-family="Helvetica,sans-Serif" font-size="10.00" fill="#000000">2</text>
<text text-anchor="middle" x="1063.6974" y="-88.4134" font-family="Helvetica,sans-Serif" font-size="10.00" fill="#000000">*</text>
</g>
<!-- A2JA9&#45;&gt;A9 -->
<g id="edge11" class="edge">
<title>A2JA9&#45;&gt;A9</title>
<path fill="none" stroke="#000000" d="M1899.1211,-56C1906.3509,-56 1975.3232,-56 2033.3905,-56"/>
<polygon fill="#000000" stroke="#000000" points="2043.7162,-56 2033.7162,-60.5001 2038.7162,-56 2033.7162,-56.0001 2033.7162,-56.0001 2033.7162,-56.0001 2038.7162,-56 2033.7161,-51.5001 2043.7162,-56 2043.7162,-56"/>
<text text-anchor="middle" x="2025.59" y="-61.4524" font-family="Helvetica,sans-Serif" font-size="10.00" fill="#000000">*</text>
</g>
</g>
</svg>
