<?xml version="1.0" encoding="UTF-8" standalone="no"?>
<!DOCTYPE svg PUBLIC "-//W3C//DTD SVG 1.1//EN"
 "http://www.w3.org/Graphics/SVG/1.1/DTD/svg11.dtd">
<!-- Generated by graphviz version 2.40.1 (20161225.0304)
 -->
<!-- Title: G Pages: 1 -->
<svg width="1818pt" height="370pt"
 viewBox="0.00 0.00 1818.26 370.00" xmlns="http://www.w3.org/2000/svg" xmlns:xlink="http://www.w3.org/1999/xlink">
<g id="graph0" class="graph" transform="scale(1 1) rotate(0) translate(4 366)">
<title>G</title>
<polygon fill="#ffffff" stroke="transparent" points="-4,4 -4,-366 1814.263,-366 1814.263,4 -4,4"/>
<!-- A0 -->
<g id="node1" class="node">
<title>A0</title>
<polygon fill="none" stroke="#000000" points=".5,-292 .5,-324 229.5,-324 229.5,-292 .5,-292"/>
<text text-anchor="start" x="99.163" y="-305" font-family="Helvetica,sans-Serif" font-size="10.00" fill="#000000">Torneo</text>
<polygon fill="none" stroke="#000000" points=".5,-188 .5,-292 229.5,-292 229.5,-188 .5,-188"/>
<text text-anchor="start" x="84.1605" y="-273" font-family="Helvetica,sans-Serif" font-size="10.00" fill="#000000">nombre:Texto</text>
<text text-anchor="start" x="75.822" y="-261" font-family="Helvetica,sans-Serif" font-size="10.00" fill="#000000">fechaInicio:Fecha</text>
<text text-anchor="start" x="46.6515" y="-249" font-family="Helvetica,sans-Serif" font-size="10.00" fill="#000000">fechaInicioInscripciones:Fecha</text>
<text text-anchor="start" x="44.712" y="-237" font-family="Helvetica,sans-Serif" font-size="10.00" fill="#000000">fechaCierreInscripciones:Fecha</text>
<text text-anchor="start" x="53.042" y="-225" font-family="Helvetica,sans-Serif" font-size="10.00" fill="#000000">numeroParticipantes:Entero</text>
<text text-anchor="start" x="75.5485" y="-213" font-family="Helvetica,sans-Serif" font-size="10.00" fill="#000000">limiteEdad:Entero</text>
<text text-anchor="start" x="64.1595" y="-201" font-family="Helvetica,sans-Serif" font-size="10.00" fill="#000000">valorInscripcion:Entero</text>
<polygon fill="none" stroke="#000000" points=".5,-48 .5,-188 229.5,-188 229.5,-48 .5,-48"/>
<text text-anchor="start" x="53.741" y="-169" font-family="Helvetica,sans-Serif" font-size="10.00" fill="#000000">+Constructor(nombre:Texto</text>
<text text-anchor="start" x="75.822" y="-157" font-family="Helvetica,sans-Serif" font-size="10.00" fill="#000000">fechaInicio:Fecha</text>
<text text-anchor="start" x="46.6515" y="-145" font-family="Helvetica,sans-Serif" font-size="10.00" fill="#000000">fechaInicioInscripciones:Fecha</text>
<text text-anchor="start" x="44.712" y="-133" font-family="Helvetica,sans-Serif" font-size="10.00" fill="#000000">fechaCierreInscripciones:Fecha</text>
<text text-anchor="start" x="53.042" y="-121" font-family="Helvetica,sans-Serif" font-size="10.00" fill="#000000">numeroParticipantes:Entero</text>
<text text-anchor="start" x="75.5485" y="-109" font-family="Helvetica,sans-Serif" font-size="10.00" fill="#000000">limiteEdad:Entero</text>
<text text-anchor="start" x="64.1595" y="-97" font-family="Helvetica,sans-Serif" font-size="10.00" fill="#000000">valorInscripcion:Entero</text>
<text text-anchor="start" x="64.1555" y="-85" font-family="Helvetica,sans-Serif" font-size="10.00" fill="#000000">tipoTorneo:TipoTorneo</text>
<text text-anchor="start" x="58.8855" y="-73" font-family="Helvetica,sans-Serif" font-size="10.00" fill="#000000">caracter:CaracterTorneo)</text>
<text text-anchor="start" x="10.4025" y="-61" font-family="Helvetica,sans-Serif" font-size="10.00" fill="#000000">+registrarParticipante(participante:Participante)</text>
</g>
<!-- A1 -->
<g id="node2" class="node">
<title>A1</title>
<polygon fill="none" stroke="#000000" points="310.5,-318 310.5,-362 381.5,-362 381.5,-318 310.5,-318"/>
<text text-anchor="start" x="321.264" y="-343" font-family="Helvetica,sans-Serif" font-size="10.00" fill="#000000">&lt;&lt;Enum&gt;&gt;</text>
<text text-anchor="start" x="320.44" y="-331" font-family="Helvetica,sans-Serif" font-size="10.00" fill="#000000">TipoTorneo</text>
<polygon fill="none" stroke="#000000" points="310.5,-250 310.5,-318 381.5,-318 381.5,-250 310.5,-250"/>
<text text-anchor="start" x="329.6075" y="-299" font-family="Helvetica,sans-Serif" font-size="10.00" fill="#000000">LOCAL</text>
<text text-anchor="start" x="320.164" y="-287" font-family="Helvetica,sans-Serif" font-size="10.00" fill="#000000">REGIONAL</text>
<text text-anchor="start" x="320.444" y="-275" font-family="Helvetica,sans-Serif" font-size="10.00" fill="#000000">NACIONAL</text>
<text text-anchor="start" x="323.5035" y="-263" font-family="Helvetica,sans-Serif" font-size="10.00" fill="#000000">MUNDIAL</text>
</g>
<!-- A0&#45;&gt;A1 -->
<g id="edge3" class="edge">
<title>A0&#45;&gt;A1</title>
<path fill="none" stroke="#000000" d="M229.3232,-245.6484C254.7553,-258.8599 280.2311,-272.0941 300.8182,-282.7887"/>
<polygon fill="#000000" stroke="#000000" points="309.9155,-287.5145 298.9669,-286.8979 305.4784,-285.2095 301.0414,-282.9046 301.0414,-282.9046 301.0414,-282.9046 305.4784,-285.2095 303.1159,-278.9112 309.9155,-287.5145 309.9155,-287.5145"/>
<text text-anchor="middle" x="289.9337" y="-283.6592" font-family="Helvetica,sans-Serif" font-size="10.00" fill="#000000">tipoTorneo1</text>
<text text-anchor="middle" x="249.3049" y="-243.5037" font-family="Helvetica,sans-Serif" font-size="10.00" fill="#000000">*</text>
</g>
<!-- A4 -->
<g id="node5" class="node">
<title>A4</title>
<polygon fill="none" stroke="#000000" points="551.5475,-240 462.1505,-240 462.1505,-204 551.5475,-204 551.5475,-240"/>
<text text-anchor="middle" x="506.849" y="-225" font-family="Helvetica,sans-Serif" font-size="10.00" fill="#000000">&lt;&lt;interface&gt;&gt;</text>
<text text-anchor="middle" x="506.849" y="-213" font-family="Helvetica,sans-Serif" font-size="10.00" fill="#000000">Participante</text>
</g>
<!-- A0&#45;&gt;A4 -->
<g id="edge4" class="edge">
<title>A0&#45;&gt;A4</title>
<path fill="none" stroke="#000000" d="M241.2706,-199.3552C254.013,-200.6213 266.7602,-201.8573 279,-203 337.9735,-208.5056 405.6082,-214.0481 451.7717,-217.714"/>
<polygon fill="none" stroke="#000000" points="241.0122,-199.3294 234.6436,-202.7119 229.0719,-198.1341 235.4405,-194.7517 241.0122,-199.3294"/>
<polygon fill="#000000" stroke="#000000" points="461.8644,-218.5128 451.5405,-222.2097 456.8799,-218.1183 451.8955,-217.7238 451.8955,-217.7238 451.8955,-217.7238 456.8799,-218.1183 452.2506,-213.2378 461.8644,-218.5128 461.8644,-218.5128"/>
<text text-anchor="middle" x="443.1279" y="-222.5088" font-family="Helvetica,sans-Serif" font-size="10.00" fill="#000000">participantes*</text>
<text text-anchor="middle" x="247.9498" y="-188.5292" font-family="Helvetica,sans-Serif" font-size="10.00" fill="#000000">1</text>
</g>
<!-- A8 -->
<g id="node9" class="node">
<title>A8</title>
<polygon fill="none" stroke="#000000" points="300.5,-44 300.5,-88 390.5,-88 390.5,-44 300.5,-44"/>
<text text-anchor="start" x="320.764" y="-69" font-family="Helvetica,sans-Serif" font-size="10.00" fill="#000000">&lt;&lt;Enum&gt;&gt;</text>
<text text-anchor="start" x="310.4965" y="-57" font-family="Helvetica,sans-Serif" font-size="10.00" fill="#000000">CaracterTorneo</text>
<polygon fill="none" stroke="#000000" points="300.5,0 300.5,-44 390.5,-44 390.5,0 300.5,0"/>
<text text-anchor="start" x="317.445" y="-25" font-family="Helvetica,sans-Serif" font-size="10.00" fill="#000000">INDIVIDUAL</text>
<text text-anchor="start" x="324.943" y="-13" font-family="Helvetica,sans-Serif" font-size="10.00" fill="#000000">GRUPAL</text>
</g>
<!-- A0&#45;&gt;A8 -->
<g id="edge2" class="edge">
<title>A0&#45;&gt;A8</title>
<path fill="none" stroke="#000000" d="M229.3232,-115.416C251.1217,-102.0161 272.9523,-88.5964 291.7091,-77.0663"/>
<polygon fill="#000000" stroke="#000000" points="300.3771,-71.7379 294.2146,-80.8084 296.1175,-74.3564 291.8579,-76.9748 291.8579,-76.9748 291.8579,-76.9748 296.1175,-74.3564 289.5013,-73.1412 300.3771,-71.7379 300.3771,-71.7379"/>
<text text-anchor="middle" x="289.3616" y="-85.431" font-family="Helvetica,sans-Serif" font-size="10.00" fill="#000000">caracter1</text>
<text text-anchor="middle" x="240.3387" y="-95.7229" font-family="Helvetica,sans-Serif" font-size="10.00" fill="#000000">*</text>
</g>
<!-- A11 -->
<g id="node12" class="node">
<title>A11</title>
<polygon fill="none" stroke="#000000" points="279.5,-162 279.5,-194 412.5,-194 412.5,-162 279.5,-162"/>
<text text-anchor="start" x="328.2185" y="-175" font-family="Helvetica,sans-Serif" font-size="10.00" fill="#000000">Reporte</text>
<polygon fill="none" stroke="#000000" points="279.5,-106 279.5,-162 412.5,-162 412.5,-106 279.5,-106"/>
<text text-anchor="start" x="318.4895" y="-143" font-family="Helvetica,sans-Serif" font-size="10.00" fill="#000000">fecha:Fecha</text>
<text text-anchor="start" x="289.042" y="-131" font-family="Helvetica,sans-Serif" font-size="10.00" fill="#000000">participanteA:Participante</text>
<text text-anchor="start" x="289.042" y="-119" font-family="Helvetica,sans-Serif" font-size="10.00" fill="#000000">participanteB:Participante</text>
</g>
<!-- A0&#45;&gt;A11 -->
<g id="edge1" class="edge">
<title>A0&#45;&gt;A11</title>
<path fill="none" stroke="#000000" stroke-dasharray="5,2" d="M229.3232,-168.1055C242.7253,-166.0168 256.1395,-163.9263 268.844,-161.9464"/>
<polygon fill="#000000" stroke="#000000" points="278.8669,-160.3844 269.6791,-166.3707 273.9265,-161.1544 268.9861,-161.9243 268.9861,-161.9243 268.9861,-161.9243 273.9265,-161.1544 268.2932,-157.478 278.8669,-160.3844 278.8669,-160.3844"/>
</g>
<!-- A2 -->
<g id="node3" class="node">
<title>A2</title>
<polygon fill="none" stroke="#000000" points="1287.0463,-222 1173.9147,-222 1173.9147,-186 1287.0463,-186 1287.0463,-222"/>
<text text-anchor="middle" x="1230.4805" y="-207" font-family="Helvetica,sans-Serif" font-size="10.00" fill="#000000">&lt;&lt;interface&gt;&gt;</text>
<text text-anchor="middle" x="1230.4805" y="-195" font-family="Helvetica,sans-Serif" font-size="10.00" fill="#000000">RegistroEstadistica</text>
</g>
<!-- A3 -->
<g id="node4" class="node">
<title>A3</title>
<polygon fill="none" stroke="#000000" points="1337.763,-204 1337.763,-236 1542.763,-236 1542.763,-204 1337.763,-204"/>
<text text-anchor="start" x="1388.0375" y="-217" font-family="Helvetica,sans-Serif" font-size="10.00" fill="#000000">RegistroEstadisticaImpl</text>
<polygon fill="none" stroke="#000000" points="1337.763,-172 1337.763,-204 1542.763,-204 1542.763,-172 1337.763,-172"/>
<text text-anchor="start" x="1347.472" y="-185" font-family="Helvetica,sans-Serif" font-size="10.00" fill="#000000">estadisticas:ValorEstadistica［*］</text>
</g>
<!-- A2&#45;&gt;A3 -->
<g id="edge18" class="edge">
<title>A2&#45;&gt;A3</title>
<path fill="none" stroke="#000000" d="M1297.1426,-204C1309.9005,-204 1323.5298,-204 1337.1143,-204"/>
<polygon fill="none" stroke="#000000" points="1297.1154,-200.5001 1287.1154,-204 1297.1153,-207.5001 1297.1154,-200.5001"/>
</g>
<!-- A2&#45;&gt;A4 -->
<g id="edge17" class="edge">
<title>A2&#45;&gt;A4</title>
<path fill="none" stroke="#000000" d="M1208.6453,-229.6148C1188.7049,-251.3514 1157.2889,-281.6872 1123.698,-299 1052.7795,-335.5514 1027.9786,-330.0547 948.698,-339 793.0212,-356.5651 747.3226,-334.7691 601.698,-277 577.2807,-267.3137 551.6263,-252.0881 533.1639,-240.11"/>
<polygon fill="none" stroke="#000000" points="1211.3752,-231.8134 1215.4554,-222.0358 1206.1683,-227.1349 1211.3752,-231.8134"/>
</g>
<!-- A2JA9 -->
<!-- A2&#45;&gt;A2JA9 -->
<g id="edge10" class="edge">
<title>A2&#45;&gt;A2JA9</title>
<path fill="none" stroke="#000000" d="M1237.9713,-185.8518C1252.1067,-154.2077 1285.9761,-89.5859 1337.263,-61 1375.3357,-39.7794 1433.9482,-50.8345 1439.3594,-51.9176"/>
<text text-anchor="middle" x="1237.9309" y="-162.8518" font-family="Helvetica,sans-Serif" font-size="10.00" fill="#000000">*</text>
</g>
<!-- A5 -->
<g id="node6" class="node">
<title>A5</title>
<polygon fill="none" stroke="#000000" points="669.198,-236 669.198,-268 750.198,-268 750.198,-236 669.198,-236"/>
<text text-anchor="start" x="694.136" y="-249" font-family="Helvetica,sans-Serif" font-size="10.00" fill="#000000">Equipo</text>
<polygon fill="none" stroke="#000000" points="669.198,-204 669.198,-236 750.198,-236 750.198,-204 669.198,-204"/>
<text text-anchor="start" x="678.8585" y="-217" font-family="Helvetica,sans-Serif" font-size="10.00" fill="#000000">nombre:Texto</text>
</g>
<!-- A4&#45;&gt;A5 -->
<g id="edge9" class="edge">
<title>A4&#45;&gt;A5</title>
<path fill="none" stroke="#000000" d="M561.9042,-225.8091C595.5708,-228.1384 637.9052,-231.0674 668.5387,-233.1869"/>
<polygon fill="none" stroke="#000000" points="561.9746,-222.3057 551.7568,-225.1071 561.4913,-229.289 561.9746,-222.3057"/>
</g>
<!-- A7 -->
<g id="node8" class="node">
<title>A7</title>
<polygon fill="none" stroke="#000000" points="999.198,-195 999.198,-227 1124.198,-227 1124.198,-195 999.198,-195"/>
<text text-anchor="start" x="1043.636" y="-208" font-family="Helvetica,sans-Serif" font-size="10.00" fill="#000000">Jugador</text>
<polygon fill="none" stroke="#000000" points="999.198,-163 999.198,-195 1124.198,-195 1124.198,-163 999.198,-163"/>
<text text-anchor="start" x="1009.187" y="-176" font-family="Helvetica,sans-Serif" font-size="10.00" fill="#000000">fechaNacimiento:Fecha</text>
</g>
<!-- A4&#45;&gt;A7 -->
<g id="edge8" class="edge">
<title>A4&#45;&gt;A7</title>
<path fill="none" stroke="#000000" d="M561.4282,-203.7547C574.4763,-200.1506 588.463,-196.898 601.698,-195 742.2582,-174.8425 909.5015,-182.7165 998.3666,-189.3861"/>
<polygon fill="none" stroke="#000000" points="560.3047,-200.4358 551.6611,-206.5627 562.2389,-207.1633 560.3047,-200.4358"/>
</g>
<!-- A5&#45;&gt;A2 -->
<g id="edge20" class="edge">
<title>A5&#45;&gt;A2</title>
<path fill="none" stroke="#000000" d="M749.9012,-265.6798C780.3701,-285.9735 823.9837,-311.098 866.698,-322 902.0104,-331.0128 912.9677,-329.1792 948.698,-322 1039.1413,-303.8274 1136.7654,-255.8754 1190.0599,-227.0001"/>
<polygon fill="#000000" stroke="#000000" points="1198.8543,-222.1897 1192.2405,-230.9366 1194.4676,-224.5891 1190.0809,-226.9886 1190.0809,-226.9886 1190.0809,-226.9886 1194.4676,-224.5891 1187.9214,-223.0406 1198.8543,-222.1897 1198.8543,-222.1897"/>
</g>
<!-- A6 -->
<g id="node7" class="node">
<title>A6</title>
<polygon fill="none" stroke="#000000" points="866.698,-281 866.698,-313 948.698,-313 948.698,-281 866.698,-281"/>
<text text-anchor="start" x="889.081" y="-294" font-family="Helvetica,sans-Serif" font-size="10.00" fill="#000000">Persona</text>
<polygon fill="none" stroke="#000000" points="866.698,-213 866.698,-281 948.698,-281 948.698,-213 866.698,-213"/>
<text text-anchor="start" x="876.8585" y="-262" font-family="Helvetica,sans-Serif" font-size="10.00" fill="#000000">nombre:Texto</text>
<text text-anchor="start" x="876.5795" y="-250" font-family="Helvetica,sans-Serif" font-size="10.00" fill="#000000">apellido:Texto</text>
<text text-anchor="start" x="881.863" y="-238" font-family="Helvetica,sans-Serif" font-size="10.00" fill="#000000">email:Texto</text>
<text text-anchor="start" x="879.0835" y="-226" font-family="Helvetica,sans-Serif" font-size="10.00" fill="#000000">celular:Texto</text>
</g>
<!-- A5&#45;&gt;A6 -->
<g id="edge5" class="edge">
<title>A5&#45;&gt;A6</title>
<path fill="none" stroke="#000000" d="M761.9203,-243.1713C791.1943,-247.1532 827.4481,-252.0844 856.4781,-256.0331"/>
<polygon fill="none" stroke="#000000" points="761.7369,-243.1464 755.2525,-246.3012 749.8464,-241.529 756.3308,-238.3742 761.7369,-243.1464"/>
<polygon fill="#000000" stroke="#000000" points="866.4218,-257.3856 855.9065,-260.4967 861.4674,-256.7117 856.513,-256.0377 856.513,-256.0377 856.513,-256.0377 861.4674,-256.7117 857.1196,-251.5788 866.4218,-257.3856 866.4218,-257.3856"/>
<text text-anchor="middle" x="847.3218" y="-260.3178" font-family="Helvetica,sans-Serif" font-size="10.00" fill="#000000">representante1</text>
<text text-anchor="middle" x="768.9464" y="-232.5968" font-family="Helvetica,sans-Serif" font-size="10.00" fill="#000000">1</text>
</g>
<!-- A5&#45;&gt;A7 -->
<g id="edge7" class="edge">
<title>A5&#45;&gt;A7</title>
<path fill="none" stroke="#000000" d="M761.7652,-223.2051C792.2228,-216.3243 831.4089,-208.3749 866.698,-204 906.7142,-199.0391 951.6679,-196.7473 988.2695,-195.7143"/>
<polygon fill="none" stroke="#000000" points="761.4013,-223.2887 756.4495,-228.5308 749.7061,-225.9762 754.6579,-220.734 761.4013,-223.2887"/>
<polygon fill="#000000" stroke="#000000" points="998.3605,-195.4552 988.4794,-200.2105 993.3622,-195.5836 988.3638,-195.712 988.3638,-195.712 988.3638,-195.712 993.3622,-195.5836 988.2483,-191.2135 998.3605,-195.4552 998.3605,-195.4552"/>
<text text-anchor="middle" x="980.4573" y="-201.3701" font-family="Helvetica,sans-Serif" font-size="10.00" fill="#000000">jugador*</text>
<text text-anchor="middle" x="765.4789" y="-210.6791" font-family="Helvetica,sans-Serif" font-size="10.00" fill="#000000">1</text>
</g>
<!-- A6&#45;&gt;A7 -->
<g id="edge6" class="edge">
<title>A6&#45;&gt;A7</title>
<path fill="none" stroke="#000000" d="M958.0349,-240.7009C970.9835,-234.9647 985.0745,-228.7225 998.563,-222.7471"/>
<polygon fill="none" stroke="#000000" points="956.5586,-237.5268 948.8332,-244.7772 959.3938,-243.9269 956.5586,-237.5268"/>
</g>
<!-- A7&#45;&gt;A2 -->
<g id="edge19" class="edge">
<title>A7&#45;&gt;A2</title>
<path fill="none" stroke="#000000" d="M1123.7516,-198.3257C1136.6828,-199.0132 1150.3535,-199.74 1163.4373,-200.4356"/>
<polygon fill="#000000" stroke="#000000" points="1173.779,-200.9854 1163.5542,-204.9481 1168.7861,-200.7199 1163.7931,-200.4544 1163.7931,-200.4544 1163.7931,-200.4544 1168.7861,-200.7199 1164.0321,-195.9608 1173.779,-200.9854 1173.779,-200.9854"/>
</g>
<!-- A9 -->
<g id="node10" class="node">
<title>A9</title>
<polygon fill="none" stroke="#000000" points="1592.763,-52 1592.763,-84 1673.763,-84 1673.763,-52 1592.763,-52"/>
<text text-anchor="start" x="1609.092" y="-65" font-family="Helvetica,sans-Serif" font-size="10.00" fill="#000000">Estadistica</text>
<polygon fill="none" stroke="#000000" points="1592.763,-20 1592.763,-52 1673.763,-52 1673.763,-20 1592.763,-20"/>
<text text-anchor="start" x="1602.4235" y="-33" font-family="Helvetica,sans-Serif" font-size="10.00" fill="#000000">nombre:Texto</text>
</g>
<!-- A13 -->
<g id="node14" class="node">
<title>A13</title>
<polygon fill="none" stroke="#000000" points="1723.763,-58 1723.763,-102 1810.763,-102 1810.763,-58 1723.763,-58"/>
<text text-anchor="start" x="1742.527" y="-83" font-family="Helvetica,sans-Serif" font-size="10.00" fill="#000000">&lt;&lt;Enum&gt;&gt;</text>
<text text-anchor="start" x="1733.369" y="-71" font-family="Helvetica,sans-Serif" font-size="10.00" fill="#000000">TipoEstadistica</text>
<polygon fill="none" stroke="#000000" points="1723.763,-2 1723.763,-58 1810.763,-58 1810.763,-2 1723.763,-2"/>
<text text-anchor="start" x="1744.202" y="-39" font-family="Helvetica,sans-Serif" font-size="10.00" fill="#000000">POSITIVA</text>
<text text-anchor="start" x="1741.982" y="-27" font-family="Helvetica,sans-Serif" font-size="10.00" fill="#000000">NEGATIVA</text>
<text text-anchor="start" x="1746.711" y="-15" font-family="Helvetica,sans-Serif" font-size="10.00" fill="#000000">NEUTRA</text>
</g>
<!-- A9&#45;&gt;A13 -->
<g id="edge13" class="edge">
<title>A9&#45;&gt;A13</title>
<path fill="none" stroke="#000000" d="M1673.3311,-52C1685.7306,-52 1699.5685,-52 1712.7148,-52"/>
<polygon fill="#000000" stroke="#000000" points="1723.0689,-52 1713.069,-56.5001 1718.0689,-52 1713.0689,-52.0001 1713.0689,-52.0001 1713.0689,-52.0001 1718.0689,-52 1713.0689,-47.5001 1723.0689,-52 1723.0689,-52"/>
<text text-anchor="middle" x="1704.9428" y="-57.4524" font-family="Helvetica,sans-Serif" font-size="10.00" fill="#000000">tipo1</text>
<text text-anchor="middle" x="1691.4572" y="-40.5476" font-family="Helvetica,sans-Serif" font-size="10.00" fill="#000000">*</text>
</g>
<!-- A10 -->
<g id="node11" class="node">
<title>A10</title>
<polygon fill="none" stroke="#000000" points="1380.763,-114 1380.763,-146 1498.763,-146 1498.763,-114 1380.763,-114"/>
<text text-anchor="start" x="1396.9805" y="-127" font-family="Helvetica,sans-Serif" font-size="10.00" fill="#000000">RegistroEstadistica</text>
<polygon fill="none" stroke="#000000" points="1380.763,-70 1380.763,-114 1498.763,-114 1498.763,-70 1380.763,-70"/>
<text text-anchor="start" x="1417.2625" y="-95" font-family="Helvetica,sans-Serif" font-size="10.00" fill="#000000">valor:Real</text>
<text text-anchor="start" x="1390.5865" y="-83" font-family="Helvetica,sans-Serif" font-size="10.00" fill="#000000">estadistica:Estadistica</text>
</g>
<!-- A10&#45;&gt;A2JA9 -->
<g id="edge12" class="edge">
<title>A10&#45;&gt;A2JA9</title>
<path fill="none" stroke="#000000" stroke-dasharray="5,2" d="M1439.763,-69.8008C1439.763,-67.3591 1439.763,-64.9174 1439.763,-62.4756"/>
<polygon fill="#000000" stroke="#000000" points="1439.763,-52.4375 1444.2631,-62.4375 1439.763,-57.4375 1439.7631,-62.4375 1439.7631,-62.4375 1439.7631,-62.4375 1439.763,-57.4375 1435.2631,-62.4375 1439.763,-52.4375 1439.763,-52.4375"/>
</g>
<!-- A11&#45;&gt;A4 -->
<g id="edge16" class="edge">
<title>A11&#45;&gt;A4</title>
<path fill="none" stroke="#000000" d="M423.3645,-184.7461C434.8587,-189.8752 446.4291,-195.0384 457.1408,-199.8183"/>
<polygon fill="none" stroke="#000000" points="423.0168,-184.591 415.9075,-185.7987 412.0584,-179.7008 419.1676,-178.4931 423.0168,-184.591"/>
<polygon fill="#000000" stroke="#000000" points="466.3096,-203.9098 455.3437,-203.9441 461.7436,-201.8722 457.1775,-199.8347 457.1775,-199.8347 457.1775,-199.8347 461.7436,-201.8722 459.0113,-195.7253 466.3096,-203.9098 466.3096,-203.9098"/>
<text text-anchor="middle" x="446.3123" y="-201.242" font-family="Helvetica,sans-Serif" font-size="10.00" fill="#000000">2</text>
<text text-anchor="middle" x="432.0556" y="-176.3686" font-family="Helvetica,sans-Serif" font-size="10.00" fill="#000000">*</text>
</g>
<!-- A12 -->
<g id="node13" class="node">
<title>A12</title>
<polygon fill="none" stroke="#000000" points="602.198,-87 602.198,-119 817.198,-119 817.198,-87 602.198,-87"/>
<text text-anchor="start" x="673.305" y="-100" font-family="Helvetica,sans-Serif" font-size="10.00" fill="#000000">RegistroReporte</text>
<polygon fill="none" stroke="#000000" points="602.198,-43 602.198,-87 817.198,-87 817.198,-43 602.198,-43"/>
<text text-anchor="start" x="612.181" y="-68" font-family="Helvetica,sans-Serif" font-size="10.00" fill="#000000">estadisticaParticipanteA:ValorEstadistica</text>
<text text-anchor="start" x="612.181" y="-56" font-family="Helvetica,sans-Serif" font-size="10.00" fill="#000000">estadisticaParticipanteB:ValorEstadistica</text>
</g>
<!-- A11&#45;&gt;A12 -->
<g id="edge14" class="edge">
<title>A11&#45;&gt;A12</title>
<path fill="none" stroke="#000000" d="M424.0108,-135.1051C472.8453,-125.8403 536.5624,-113.7521 591.3802,-103.3521"/>
<polygon fill="none" stroke="#000000" points="423.9975,-135.1075 418.8483,-140.1558 412.2078,-137.3443 417.3571,-132.296 423.9975,-135.1075"/>
<polygon fill="#000000" stroke="#000000" points="601.5068,-101.431 592.5208,-107.7161 596.5944,-102.363 591.682,-103.295 591.682,-103.295 591.682,-103.295 596.5944,-102.363 590.8432,-98.8738 601.5068,-101.431 601.5068,-101.431"/>
<text text-anchor="middle" x="585.2737" y="-110.1138" font-family="Helvetica,sans-Serif" font-size="10.00" fill="#000000">registros*</text>
<text text-anchor="middle" x="428.4409" y="-122.6615" font-family="Helvetica,sans-Serif" font-size="10.00" fill="#000000">1</text>
</g>
<!-- A12&#45;&gt;A10 -->
<g id="edge15" class="edge">
<title>A12&#45;&gt;A10</title>
<path fill="none" stroke="#000000" d="M829.1504,-85.4332C983.3853,-91.1333 1246.128,-100.8437 1370.5344,-105.4415"/>
<polygon fill="none" stroke="#000000" points="828.9872,-85.4272 822.8435,-89.2029 816.9954,-84.9839 823.139,-81.2083 828.9872,-85.4272"/>
<polygon fill="#000000" stroke="#000000" points="1380.6931,-105.8169 1370.5337,-109.9444 1375.6965,-105.6322 1370.6999,-105.4475 1370.6999,-105.4475 1370.6999,-105.4475 1375.6965,-105.6322 1370.8661,-100.9506 1380.6931,-105.8169 1380.6931,-105.8169"/>
<text text-anchor="middle" x="1362.2671" y="-110.5941" font-family="Helvetica,sans-Serif" font-size="10.00" fill="#000000">2</text>
<text text-anchor="middle" x="835.4213" y="-74.2068" font-family="Helvetica,sans-Serif" font-size="10.00" fill="#000000">*</text>
</g>
<!-- A2JA9&#45;&gt;A9 -->
<g id="edge11" class="edge">
<title>A2JA9&#45;&gt;A9</title>
<path fill="none" stroke="#000000" d="M1440.3166,-52C1447.7113,-52 1527.5599,-52 1582.0514,-52"/>
<polygon fill="#000000" stroke="#000000" points="1592.2451,-52 1582.2451,-56.5001 1587.2451,-52 1582.2451,-52.0001 1582.2451,-52.0001 1582.2451,-52.0001 1587.2451,-52 1582.245,-47.5001 1592.2451,-52 1592.2451,-52"/>
<text text-anchor="middle" x="1574.1189" y="-57.4524" font-family="Helvetica,sans-Serif" font-size="10.00" fill="#000000">*</text>
</g>
</g>
</svg>
