<?xml version="1.0" encoding="UTF-8" standalone="no"?>
<!DOCTYPE svg PUBLIC "-//W3C//DTD SVG 1.1//EN"
 "http://www.w3.org/Graphics/SVG/1.1/DTD/svg11.dtd">
<!-- Generated by graphviz version 2.40.1 (20161225.0304)
 -->
<!-- Title: G Pages: 1 -->
<svg width="2392pt" height="584pt"
 viewBox="0.00 0.00 2392.00 584.00" xmlns="http://www.w3.org/2000/svg" xmlns:xlink="http://www.w3.org/1999/xlink">
<g id="graph0" class="graph" transform="scale(1 1) rotate(0) translate(4 580)">
<title>G</title>
<polygon fill="#ffffff" stroke="transparent" points="-4,4 -4,-580 2388,-580 2388,4 -4,4"/>
<!-- A0 -->
<g id="node1" class="node">
<title>A0</title>
<polygon fill="none" stroke="#000000" points="0,-544 0,-576 360,-576 360,-544 0,-544"/>
<text text-anchor="start" x="164.163" y="-557" font-family="Helvetica,sans-Serif" font-size="10.00" fill="#000000">Torneo</text>
<polygon fill="none" stroke="#000000" points="0,-440 0,-544 360,-544 360,-440 0,-440"/>
<text text-anchor="start" x="149.1605" y="-525" font-family="Helvetica,sans-Serif" font-size="10.00" fill="#000000">nombre:Texto</text>
<text text-anchor="start" x="140.822" y="-513" font-family="Helvetica,sans-Serif" font-size="10.00" fill="#000000">fechaInicio:Fecha</text>
<text text-anchor="start" x="111.6515" y="-501" font-family="Helvetica,sans-Serif" font-size="10.00" fill="#000000">fechaInicioInscripciones:Fecha</text>
<text text-anchor="start" x="109.712" y="-489" font-family="Helvetica,sans-Serif" font-size="10.00" fill="#000000">fechaCierreInscripciones:Fecha</text>
<text text-anchor="start" x="118.042" y="-477" font-family="Helvetica,sans-Serif" font-size="10.00" fill="#000000">numeroParticipantes:Entero</text>
<text text-anchor="start" x="140.5485" y="-465" font-family="Helvetica,sans-Serif" font-size="10.00" fill="#000000">limiteEdad:Entero</text>
<text text-anchor="start" x="129.1595" y="-453" font-family="Helvetica,sans-Serif" font-size="10.00" fill="#000000">valorInscripcion:Entero</text>
<polygon fill="none" stroke="#000000" points="0,0 0,-440 360,-440 360,0 0,0"/>
<text text-anchor="start" x="118.741" y="-421" font-family="Helvetica,sans-Serif" font-size="10.00" fill="#000000">+Constructor(nombre:Texto</text>
<text text-anchor="start" x="140.822" y="-409" font-family="Helvetica,sans-Serif" font-size="10.00" fill="#000000">fechaInicio:Fecha</text>
<text text-anchor="start" x="111.6515" y="-397" font-family="Helvetica,sans-Serif" font-size="10.00" fill="#000000">fechaInicioInscripciones:Fecha</text>
<text text-anchor="start" x="109.712" y="-385" font-family="Helvetica,sans-Serif" font-size="10.00" fill="#000000">fechaCierreInscripciones:Fecha</text>
<text text-anchor="start" x="118.042" y="-373" font-family="Helvetica,sans-Serif" font-size="10.00" fill="#000000">numeroParticipantes:Entero</text>
<text text-anchor="start" x="140.5485" y="-361" font-family="Helvetica,sans-Serif" font-size="10.00" fill="#000000">limiteEdad:Entero</text>
<text text-anchor="start" x="129.1595" y="-349" font-family="Helvetica,sans-Serif" font-size="10.00" fill="#000000">valorInscripcion:Entero</text>
<text text-anchor="start" x="129.1555" y="-337" font-family="Helvetica,sans-Serif" font-size="10.00" fill="#000000">tipoTorneo:TipoTorneo</text>
<text text-anchor="start" x="19.288" y="-325" font-family="Helvetica,sans-Serif" font-size="10.00" fill="#000000">caracter:CaracterTorneo)+registrarParticipante(participante:Participante)</text>
<text text-anchor="start" x="135.1335" y="-313" font-family="Helvetica,sans-Serif" font-size="10.00" fill="#000000">+getNombre():Texto</text>
<text text-anchor="start" x="125.96" y="-301" font-family="Helvetica,sans-Serif" font-size="10.00" fill="#000000">+getFechaInicio():Fecha</text>
<text text-anchor="start" x="96.7895" y="-289" font-family="Helvetica,sans-Serif" font-size="10.00" fill="#000000">+getFechaInicioInscripciones():Fecha</text>
<text text-anchor="start" x="94.85" y="-277" font-family="Helvetica,sans-Serif" font-size="10.00" fill="#000000">+getFechaCierreInscripciones():Fecha</text>
<text text-anchor="start" x="104.015" y="-265" font-family="Helvetica,sans-Serif" font-size="10.00" fill="#000000">+getNumeroParticipantes():Entero</text>
<text text-anchor="start" x="125.6815" y="-253" font-family="Helvetica,sans-Serif" font-size="10.00" fill="#000000">+getLimiteEdad():Entero</text>
<text text-anchor="start" x="115.128" y="-241" font-family="Helvetica,sans-Serif" font-size="10.00" fill="#000000">+getValorInscripcion():Entero</text>
<text text-anchor="start" x="114.2935" y="-229" font-family="Helvetica,sans-Serif" font-size="10.00" fill="#000000">+getTipoTorneo():TipoTorneo</text>
<text text-anchor="start" x="87.6215" y="-217" font-family="Helvetica,sans-Serif" font-size="10.00" fill="#000000">+getParticipantes():Participante［*］</text>
<text text-anchor="start" x="111.2435" y="-205" font-family="Helvetica,sans-Serif" font-size="10.00" fill="#000000">+getCaracter():CaracterTorneo</text>
<text text-anchor="start" x="102.344" y="-193" font-family="Helvetica,sans-Serif" font-size="10.00" fill="#000000">+setFechaInicio(fechaInicio:Fecha)</text>
<text text-anchor="start" x="44.003" y="-181" font-family="Helvetica,sans-Serif" font-size="10.00" fill="#000000">+setFechaInicioInscripciones(fechaInicioInscripciones:Fecha)</text>
<text text-anchor="start" x="40.124" y="-169" font-family="Helvetica,sans-Serif" font-size="10.00" fill="#000000">+setFechaCierreInscripciones(fechaCierreInscripciones:Fecha)</text>
<text text-anchor="start" x="76.65" y="-157" font-family="Helvetica,sans-Serif" font-size="10.00" fill="#000000">buscarParticipante(nombre:Texto):Participante</text>
<text text-anchor="start" x="67.8875" y="-145" font-family="Helvetica,sans-Serif" font-size="10.00" fill="#000000">+registrarJugador(equipo:Equipo,jugador:Jugador)</text>
<text text-anchor="start" x="53.4445" y="-133" font-family="Helvetica,sans-Serif" font-size="10.00" fill="#000000">+registrarJugador(nombreEquipo:Texto,jugador:Jugador)</text>
<text text-anchor="start" x="52.896" y="-121" font-family="Helvetica,sans-Serif" font-size="10.00" fill="#000000">+registrarEstadisticaParticipante(participante:Participante</text>
<text text-anchor="start" x="110.5475" y="-109" font-family="Helvetica,sans-Serif" font-size="10.00" fill="#000000">estadistica:ValorEstadistica)</text>
<text text-anchor="start" x="92.0685" y="-97" font-family="Helvetica,sans-Serif" font-size="10.00" fill="#000000">+getEstadisticas():Estadistica［*］</text>
<text text-anchor="start" x="69.2905" y="-85" font-family="Helvetica,sans-Serif" font-size="10.00" fill="#000000">+buscarMejor(estadistica:Estadistica):Participante</text>
<text text-anchor="start" x="78.1735" y="-73" font-family="Helvetica,sans-Serif" font-size="10.00" fill="#000000">+buscarSuperiorIgualA(estadistica:Estadistica</text>
<text text-anchor="start" x="105.548" y="-61" font-family="Helvetica,sans-Serif" font-size="10.00" fill="#000000">valor:Real):Participante［*］</text>
<text text-anchor="start" x="92.346" y="-49" font-family="Helvetica,sans-Serif" font-size="10.00" fill="#000000">+buscarInferiorA(estadistica:Estadistica</text>
<text text-anchor="start" x="105.548" y="-37" font-family="Helvetica,sans-Serif" font-size="10.00" fill="#000000">valor:Real):Participante［*］</text>
<text text-anchor="start" x="67.9005" y="-25" font-family="Helvetica,sans-Serif" font-size="10.00" fill="#000000">+promedioEstadistica(estadistica:Estadistica):Real</text>
<text text-anchor="start" x="9.8305" y="-13" font-family="Helvetica,sans-Serif" font-size="10.00" fill="#000000">+obtenerEstadisticas(participante:Participante):ValorEstadistica［*］</text>
</g>
<!-- A1 -->
<g id="node2" class="node">
<title>A1</title>
<polygon fill="none" stroke="#000000" points="441.5,-420 441.5,-464 512.5,-464 512.5,-420 441.5,-420"/>
<text text-anchor="start" x="452.264" y="-445" font-family="Helvetica,sans-Serif" font-size="10.00" fill="#000000">&lt;&lt;Enum&gt;&gt;</text>
<text text-anchor="start" x="451.44" y="-433" font-family="Helvetica,sans-Serif" font-size="10.00" fill="#000000">TipoTorneo</text>
<polygon fill="none" stroke="#000000" points="441.5,-352 441.5,-420 512.5,-420 512.5,-352 441.5,-352"/>
<text text-anchor="start" x="460.6075" y="-401" font-family="Helvetica,sans-Serif" font-size="10.00" fill="#000000">LOCAL</text>
<text text-anchor="start" x="451.164" y="-389" font-family="Helvetica,sans-Serif" font-size="10.00" fill="#000000">REGIONAL</text>
<text text-anchor="start" x="451.444" y="-377" font-family="Helvetica,sans-Serif" font-size="10.00" fill="#000000">NACIONAL</text>
<text text-anchor="start" x="454.5035" y="-365" font-family="Helvetica,sans-Serif" font-size="10.00" fill="#000000">MUNDIAL</text>
</g>
<!-- A0&#45;&gt;A1 -->
<g id="edge3" class="edge">
<title>A0&#45;&gt;A1</title>
<path fill="none" stroke="#000000" d="M360.1663,-360.9172C386.5317,-371.5879 411.4832,-381.6863 431.4673,-389.7743"/>
<polygon fill="#000000" stroke="#000000" points="440.863,-393.5769 429.9051,-393.9966 436.2282,-391.7011 431.5934,-389.8253 431.5934,-389.8253 431.5934,-389.8253 436.2282,-391.7011 433.2816,-385.6539 440.863,-393.5769 440.863,-393.5769"/>
<text text-anchor="middle" x="420.8898" y="-391.6117" font-family="Helvetica,sans-Serif" font-size="10.00" fill="#000000">tipoTorneo1</text>
<text text-anchor="middle" x="380.1396" y="-356.8825" font-family="Helvetica,sans-Serif" font-size="10.00" fill="#000000">*</text>
</g>
<!-- A4 -->
<g id="node5" class="node">
<title>A4</title>
<polygon fill="none" stroke="#000000" points="593,-324 593,-368 813,-368 813,-324 593,-324"/>
<text text-anchor="start" x="672.151" y="-349" font-family="Helvetica,sans-Serif" font-size="10.00" fill="#000000">&lt;&lt;interface&gt;&gt;</text>
<text text-anchor="start" x="676.6055" y="-337" font-family="Helvetica,sans-Serif" font-size="10.00" fill="#000000">Participante</text>
<polygon fill="none" stroke="#000000" points="593,-280 593,-324 813,-324 813,-280 593,-280"/>
<text text-anchor="start" x="636.7425" y="-305" font-family="Helvetica,sans-Serif" font-size="10.00" fill="#000000">+getNombreCompleto():Texto</text>
<text text-anchor="start" x="602.8485" y="-293" font-family="Helvetica,sans-Serif" font-size="10.00" fill="#000000">+getRegistroEstadistica():RegistroEstadistica</text>
</g>
<!-- A0&#45;&gt;A4 -->
<g id="edge4" class="edge">
<title>A0&#45;&gt;A4</title>
<path fill="none" stroke="#000000" d="M372.3873,-302.3491C385.1152,-303.2585 397.7408,-304.1495 410,-305 466.7313,-308.9359 529.66,-313.0496 582.6111,-316.4387"/>
<polygon fill="none" stroke="#000000" points="372.1308,-302.3308 365.86,-305.8913 360.1616,-301.4722 366.4324,-297.9118 372.1308,-302.3308"/>
<polygon fill="#000000" stroke="#000000" points="592.7204,-317.0848 582.4537,-320.9378 587.7305,-316.7658 582.7407,-316.4469 582.7407,-316.4469 582.7407,-316.4469 587.7305,-316.7658 583.0277,-311.9561 592.7204,-317.0848 592.7204,-317.0848"/>
<text text-anchor="middle" x="574.0921" y="-321.364" font-family="Helvetica,sans-Serif" font-size="10.00" fill="#000000">participantes*</text>
<text text-anchor="middle" x="378.846" y="-291.3383" font-family="Helvetica,sans-Serif" font-size="10.00" fill="#000000">1</text>
</g>
<!-- A8 -->
<g id="node9" class="node">
<title>A8</title>
<polygon fill="none" stroke="#000000" points="431.5,-146 431.5,-190 521.5,-190 521.5,-146 431.5,-146"/>
<text text-anchor="start" x="451.764" y="-171" font-family="Helvetica,sans-Serif" font-size="10.00" fill="#000000">&lt;&lt;Enum&gt;&gt;</text>
<text text-anchor="start" x="441.4965" y="-159" font-family="Helvetica,sans-Serif" font-size="10.00" fill="#000000">CaracterTorneo</text>
<polygon fill="none" stroke="#000000" points="431.5,-102 431.5,-146 521.5,-146 521.5,-102 431.5,-102"/>
<text text-anchor="start" x="448.445" y="-127" font-family="Helvetica,sans-Serif" font-size="10.00" fill="#000000">INDIVIDUAL</text>
<text text-anchor="start" x="455.943" y="-115" font-family="Helvetica,sans-Serif" font-size="10.00" fill="#000000">GRUPAL</text>
</g>
<!-- A0&#45;&gt;A8 -->
<g id="edge2" class="edge">
<title>A0&#45;&gt;A8</title>
<path fill="none" stroke="#000000" d="M360.1663,-201.7146C382.5745,-190.9829 403.9615,-180.7402 422.1454,-172.0316"/>
<polygon fill="#000000" stroke="#000000" points="431.3509,-167.6228 424.2756,-176.0009 426.8414,-169.7826 422.3318,-171.9423 422.3318,-171.9423 422.3318,-171.9423 426.8414,-169.7826 420.3881,-167.8837 431.3509,-167.6228 431.3509,-167.6228"/>
<text text-anchor="middle" x="418.6538" y="-180.0755" font-family="Helvetica,sans-Serif" font-size="10.00" fill="#000000">caracter1</text>
<text text-anchor="middle" x="372.8635" y="-183.262" font-family="Helvetica,sans-Serif" font-size="10.00" fill="#000000">*</text>
</g>
<!-- A11 -->
<g id="node12" class="node">
<title>A11</title>
<polygon fill="none" stroke="#000000" points="410.5,-264 410.5,-296 543.5,-296 543.5,-264 410.5,-264"/>
<text text-anchor="start" x="459.2185" y="-277" font-family="Helvetica,sans-Serif" font-size="10.00" fill="#000000">Reporte</text>
<polygon fill="none" stroke="#000000" points="410.5,-208 410.5,-264 543.5,-264 543.5,-208 410.5,-208"/>
<text text-anchor="start" x="449.4895" y="-245" font-family="Helvetica,sans-Serif" font-size="10.00" fill="#000000">fecha:Fecha</text>
<text text-anchor="start" x="420.042" y="-233" font-family="Helvetica,sans-Serif" font-size="10.00" fill="#000000">participanteA:Participante</text>
<text text-anchor="start" x="420.042" y="-221" font-family="Helvetica,sans-Serif" font-size="10.00" fill="#000000">participanteB:Participante</text>
</g>
<!-- A0&#45;&gt;A11 -->
<g id="edge1" class="edge">
<title>A0&#45;&gt;A11</title>
<path fill="none" stroke="#000000" stroke-dasharray="5,2" d="M360.1663,-266.1248C373.9032,-264.4569 387.2563,-262.8357 399.723,-261.322"/>
<polygon fill="#000000" stroke="#000000" points="409.9755,-260.0772 400.5908,-265.7498 405.0119,-260.6799 400.0484,-261.2826 400.0484,-261.2826 400.0484,-261.2826 405.0119,-260.6799 399.506,-256.8154 409.9755,-260.0772 409.9755,-260.0772"/>
</g>
<!-- A2 -->
<g id="node3" class="node">
<title>A2</title>
<polygon fill="none" stroke="#000000" points="1547.5,-373 1547.5,-417 1800.5,-417 1800.5,-373 1547.5,-373"/>
<text text-anchor="start" x="1643.151" y="-398" font-family="Helvetica,sans-Serif" font-size="10.00" fill="#000000">&lt;&lt;interface&gt;&gt;</text>
<text text-anchor="start" x="1631.2175" y="-386" font-family="Helvetica,sans-Serif" font-size="10.00" fill="#000000">RegistroEstadistica</text>
<polygon fill="none" stroke="#000000" points="1547.5,-305 1547.5,-373 1800.5,-373 1800.5,-305 1547.5,-305"/>
<text text-anchor="start" x="1567.457" y="-354" font-family="Helvetica,sans-Serif" font-size="10.00" fill="#000000">+getEstadisticas():ValorEstadistica［*］</text>
<text text-anchor="start" x="1557.4615" y="-342" font-family="Helvetica,sans-Serif" font-size="10.00" fill="#000000">+registrarEstadistica(estadistica:ValorEstadistica)</text>
<text text-anchor="start" x="1594.681" y="-330" font-family="Helvetica,sans-Serif" font-size="10.00" fill="#000000">+comparar(participante:Participante</text>
<text text-anchor="start" x="1607.0425" y="-318" font-family="Helvetica,sans-Serif" font-size="10.00" fill="#000000">estadistica:Estadistica):Entero</text>
</g>
<!-- A3 -->
<g id="node4" class="node">
<title>A3</title>
<polygon fill="none" stroke="#000000" points="1850.5,-377 1850.5,-409 2055.5,-409 2055.5,-377 1850.5,-377"/>
<text text-anchor="start" x="1900.7745" y="-390" font-family="Helvetica,sans-Serif" font-size="10.00" fill="#000000">RegistroEstadisticaImpl</text>
<polygon fill="none" stroke="#000000" points="1850.5,-345 1850.5,-377 2055.5,-377 2055.5,-345 1850.5,-345"/>
<text text-anchor="start" x="1860.209" y="-358" font-family="Helvetica,sans-Serif" font-size="10.00" fill="#000000">estadisticas:ValorEstadistica［*］</text>
<polygon fill="none" stroke="#000000" points="1850.5,-313 1850.5,-345 2055.5,-345 2055.5,-313 1850.5,-313"/>
<text text-anchor="start" x="1920.916" y="-326" font-family="Helvetica,sans-Serif" font-size="10.00" fill="#000000">+Constructor()</text>
</g>
<!-- A2&#45;&gt;A3 -->
<g id="edge18" class="edge">
<title>A2&#45;&gt;A3</title>
<path fill="none" stroke="#000000" d="M1810.4555,-361C1823.6937,-361 1836.9624,-361 1849.7846,-361"/>
<polygon fill="none" stroke="#000000" points="1810.3461,-357.5001 1800.346,-361 1810.346,-364.5001 1810.3461,-357.5001"/>
</g>
<!-- A2&#45;&gt;A4 -->
<g id="edge17" class="edge">
<title>A2&#45;&gt;A4</title>
<path fill="none" stroke="#000000" d="M1612.6834,-424.1346C1581.0411,-452.9224 1540.0293,-484.4376 1497,-502 1344.8657,-564.0938 1290.1666,-551.5043 1128,-525 1005.3842,-504.9598 973.9185,-491.9762 863,-436 825.7669,-417.2099 787.3765,-390.6207 757.5361,-368.0645"/>
<polygon fill="none" stroke="#000000" points="1615.1405,-426.6297 1620.1091,-417.2722 1610.3895,-421.4888 1615.1405,-426.6297"/>
</g>
<!-- A2JA9 -->
<!-- A2&#45;&gt;A2JA9 -->
<g id="edge10" class="edge">
<title>A2&#45;&gt;A2JA9</title>
<path fill="none" stroke="#000000" d="M1693.8812,-304.9572C1719.7642,-242.693 1770.8192,-144.7829 1850,-98 1887.5266,-75.8279 1946.634,-87.7453 1952.0928,-88.9113"/>
<text text-anchor="middle" x="1693.3353" y="-281.9646" font-family="Helvetica,sans-Serif" font-size="10.00" fill="#000000">*</text>
</g>
<!-- A5 -->
<g id="node6" class="node">
<title>A5</title>
<polygon fill="none" stroke="#000000" points="882.5,-395 882.5,-427 1059.5,-427 1059.5,-395 882.5,-395"/>
<text text-anchor="start" x="955.438" y="-408" font-family="Helvetica,sans-Serif" font-size="10.00" fill="#000000">Equipo</text>
<polygon fill="none" stroke="#000000" points="882.5,-363 882.5,-395 1059.5,-395 1059.5,-363 882.5,-363"/>
<text text-anchor="start" x="940.1605" y="-376" font-family="Helvetica,sans-Serif" font-size="10.00" fill="#000000">nombre:Texto</text>
<polygon fill="none" stroke="#000000" points="882.5,-271 882.5,-363 1059.5,-363 1059.5,-271 882.5,-271"/>
<text text-anchor="start" x="909.741" y="-344" font-family="Helvetica,sans-Serif" font-size="10.00" fill="#000000">+Constructor(nombre:Texto</text>
<text text-anchor="start" x="918.485" y="-332" font-family="Helvetica,sans-Serif" font-size="10.00" fill="#000000">representante:Persona)</text>
<text text-anchor="start" x="926.1335" y="-320" font-family="Helvetica,sans-Serif" font-size="10.00" fill="#000000">+getNombre():Texto</text>
<text text-anchor="start" x="905.0075" y="-308" font-family="Helvetica,sans-Serif" font-size="10.00" fill="#000000">+getRepresentante():Persona</text>
<text text-anchor="start" x="892.507" y="-296" font-family="Helvetica,sans-Serif" font-size="10.00" fill="#000000">+getJugadores():Jugador［*］</text>
<text text-anchor="start" x="892.2355" y="-284" font-family="Helvetica,sans-Serif" font-size="10.00" fill="#000000">+registrarJugador(jugador:Jugador)</text>
</g>
<!-- A4&#45;&gt;A5 -->
<g id="edge9" class="edge">
<title>A4&#45;&gt;A5</title>
<path fill="none" stroke="#000000" d="M823.5255,-335.2641C843.0732,-337.091 863.0015,-338.9534 881.618,-340.6933"/>
<polygon fill="none" stroke="#000000" points="823.6292,-331.7586 813.3469,-334.3128 822.9778,-338.7282 823.6292,-331.7586"/>
</g>
<!-- A7 -->
<g id="node8" class="node">
<title>A7</title>
<polygon fill="none" stroke="#000000" points="1320.5,-367 1320.5,-399 1497.5,-399 1497.5,-367 1320.5,-367"/>
<text text-anchor="start" x="1390.938" y="-380" font-family="Helvetica,sans-Serif" font-size="10.00" fill="#000000">Jugador</text>
<polygon fill="none" stroke="#000000" points="1320.5,-335 1320.5,-367 1497.5,-367 1497.5,-335 1320.5,-335"/>
<text text-anchor="start" x="1356.489" y="-348" font-family="Helvetica,sans-Serif" font-size="10.00" fill="#000000">fechaNacimiento:Fecha</text>
<polygon fill="none" stroke="#000000" points="1320.5,-231 1320.5,-335 1497.5,-335 1497.5,-231 1320.5,-231"/>
<text text-anchor="start" x="1347.741" y="-316" font-family="Helvetica,sans-Serif" font-size="10.00" fill="#000000">+Constructor(nombre:Texto</text>
<text text-anchor="start" x="1377.8815" y="-304" font-family="Helvetica,sans-Serif" font-size="10.00" fill="#000000">apellido:Texto</text>
<text text-anchor="start" x="1383.165" y="-292" font-family="Helvetica,sans-Serif" font-size="10.00" fill="#000000">email:Texto</text>
<text text-anchor="start" x="1380.3855" y="-280" font-family="Helvetica,sans-Serif" font-size="10.00" fill="#000000">celular:Texto</text>
<text text-anchor="start" x="1354.8245" y="-268" font-family="Helvetica,sans-Serif" font-size="10.00" fill="#000000">fechaNacimiento:Fecha)</text>
<text text-anchor="start" x="1341.627" y="-256" font-family="Helvetica,sans-Serif" font-size="10.00" fill="#000000">+getFechaNacimiento():Fecha</text>
<text text-anchor="start" x="1330.2295" y="-244" font-family="Helvetica,sans-Serif" font-size="10.00" fill="#000000">+calcularEdad(fecha:Fecha):Entero</text>
</g>
<!-- A4&#45;&gt;A7 -->
<g id="edge8" class="edge">
<title>A4&#45;&gt;A7</title>
<path fill="none" stroke="#000000" d="M811.6304,-276.4075C828.5533,-270.6065 846.0503,-265.5012 863,-262 1040.2024,-225.396 1093.1629,-213.6703 1270,-252 1286.6516,-255.6093 1303.7043,-261.399 1319.8991,-268.0415"/>
<polygon fill="none" stroke="#000000" points="810.007,-273.2687 801.7413,-279.8965 812.3361,-279.8699 810.007,-273.2687"/>
</g>
<!-- A5&#45;&gt;A2 -->
<g id="edge20" class="edge">
<title>A5&#45;&gt;A2</title>
<path fill="none" stroke="#000000" d="M1029.8651,-427.1525C1056.3923,-455.7551 1090.2163,-484.8137 1128,-500 1279.1961,-560.7697 1464.8436,-483.416 1575.9281,-422.0818"/>
<polygon fill="#000000" stroke="#000000" points="1584.7868,-417.1371 1578.2482,-425.9404 1580.4209,-419.5741 1576.055,-422.0111 1576.055,-422.0111 1576.055,-422.0111 1580.4209,-419.5741 1573.8617,-418.0817 1584.7868,-417.1371 1584.7868,-417.1371"/>
</g>
<!-- A6 -->
<g id="node7" class="node">
<title>A6</title>
<polygon fill="none" stroke="#000000" points="1128,-459 1128,-491 1270,-491 1270,-459 1128,-459"/>
<text text-anchor="start" x="1180.383" y="-472" font-family="Helvetica,sans-Serif" font-size="10.00" fill="#000000">Persona</text>
<polygon fill="none" stroke="#000000" points="1128,-391 1128,-459 1270,-459 1270,-391 1128,-391"/>
<text text-anchor="start" x="1168.1605" y="-440" font-family="Helvetica,sans-Serif" font-size="10.00" fill="#000000">nombre:Texto</text>
<text text-anchor="start" x="1167.8815" y="-428" font-family="Helvetica,sans-Serif" font-size="10.00" fill="#000000">apellido:Texto</text>
<text text-anchor="start" x="1173.165" y="-416" font-family="Helvetica,sans-Serif" font-size="10.00" fill="#000000">email:Texto</text>
<text text-anchor="start" x="1170.3855" y="-404" font-family="Helvetica,sans-Serif" font-size="10.00" fill="#000000">celular:Texto</text>
<polygon fill="none" stroke="#000000" points="1128,-275 1128,-391 1270,-391 1270,-275 1128,-275"/>
<text text-anchor="start" x="1137.741" y="-372" font-family="Helvetica,sans-Serif" font-size="10.00" fill="#000000">+Constructor(nombre:Texto</text>
<text text-anchor="start" x="1167.8815" y="-360" font-family="Helvetica,sans-Serif" font-size="10.00" fill="#000000">apellido:Texto</text>
<text text-anchor="start" x="1173.165" y="-348" font-family="Helvetica,sans-Serif" font-size="10.00" fill="#000000">email:Texto</text>
<text text-anchor="start" x="1168.721" y="-336" font-family="Helvetica,sans-Serif" font-size="10.00" fill="#000000">celular:Texto)</text>
<text text-anchor="start" x="1154.1335" y="-324" font-family="Helvetica,sans-Serif" font-size="10.00" fill="#000000">+getNombre():Texto</text>
<text text-anchor="start" x="1154.1295" y="-312" font-family="Helvetica,sans-Serif" font-size="10.00" fill="#000000">+getApellido():Texto</text>
<text text-anchor="start" x="1159.413" y="-300" font-family="Helvetica,sans-Serif" font-size="10.00" fill="#000000">+getEmail():Texto</text>
<text text-anchor="start" x="1156.079" y="-288" font-family="Helvetica,sans-Serif" font-size="10.00" fill="#000000">+getCelular():Texto</text>
</g>
<!-- A5&#45;&gt;A6 -->
<g id="edge5" class="edge">
<title>A5&#45;&gt;A6</title>
<path fill="none" stroke="#000000" d="M1071.2559,-363.9921C1086.7168,-366.2927 1102.512,-368.6429 1117.4875,-370.8712"/>
<polygon fill="none" stroke="#000000" points="1071.0404,-363.9601 1064.517,-367.0335 1059.1711,-362.194 1065.6945,-359.1206 1071.0404,-363.9601"/>
<polygon fill="#000000" stroke="#000000" points="1127.7101,-372.3923 1117.1567,-375.3715 1122.7646,-371.6564 1117.819,-370.9205 1117.819,-370.9205 1117.819,-370.9205 1122.7646,-371.6564 1118.4813,-366.4695 1127.7101,-372.3923 1127.7101,-372.3923"/>
<text text-anchor="middle" x="1108.5374" y="-375.0849" font-family="Helvetica,sans-Serif" font-size="10.00" fill="#000000">representante1</text>
<text text-anchor="middle" x="1078.3439" y="-353.5014" font-family="Helvetica,sans-Serif" font-size="10.00" fill="#000000">1</text>
</g>
<!-- A5&#45;&gt;A7 -->
<g id="edge7" class="edge">
<title>A5&#45;&gt;A7</title>
<path fill="none" stroke="#000000" d="M1069.9518,-287.4748C1088.6213,-278.598 1108.4365,-270.8394 1128,-266 1189.2645,-250.8451 1207.7989,-255.3212 1270,-266 1283.2494,-268.2747 1296.914,-271.6898 1310.2612,-275.6793"/>
<polygon fill="none" stroke="#000000" points="1069.8681,-287.5159 1066.2522,-293.755 1059.1024,-292.8169 1062.7182,-286.5778 1069.8681,-287.5159"/>
<polygon fill="#000000" stroke="#000000" points="1319.9134,-278.6777 1309.0286,-280.0085 1315.1385,-277.1944 1310.3636,-275.711 1310.3636,-275.711 1310.3636,-275.711 1315.1385,-277.1944 1311.6986,-271.4136 1319.9134,-278.6777 1319.9134,-278.6777"/>
<text text-anchor="middle" x="1300.0957" y="-278.3723" font-family="Helvetica,sans-Serif" font-size="10.00" fill="#000000">jugador*</text>
<text text-anchor="middle" x="1071.6303" y="-274.2268" font-family="Helvetica,sans-Serif" font-size="10.00" fill="#000000">1</text>
</g>
<!-- A6&#45;&gt;A7 -->
<g id="edge6" class="edge">
<title>A6&#45;&gt;A7</title>
<path fill="none" stroke="#000000" d="M1280.034,-356.6978C1293.0178,-352.4835 1306.5146,-348.1026 1319.6686,-343.8331"/>
<polygon fill="none" stroke="#000000" points="1278.6504,-353.4671 1270.2195,-359.8834 1280.8116,-360.1251 1278.6504,-353.4671"/>
</g>
<!-- A7&#45;&gt;A2 -->
<g id="edge19" class="edge">
<title>A7&#45;&gt;A2</title>
<path fill="none" stroke="#000000" d="M1497.1096,-330.3813C1509.8191,-332.5875 1523.1359,-334.8991 1536.5138,-337.2213"/>
<polygon fill="#000000" stroke="#000000" points="1546.7469,-338.9976 1536.1245,-341.7209 1541.8205,-338.1424 1536.8942,-337.2872 1536.8942,-337.2872 1536.8942,-337.2872 1541.8205,-338.1424 1537.6638,-332.8535 1546.7469,-338.9976 1546.7469,-338.9976"/>
</g>
<!-- A9 -->
<g id="node10" class="node">
<title>A9</title>
<polygon fill="none" stroke="#000000" points="2105,-123 2105,-155 2247,-155 2247,-123 2105,-123"/>
<text text-anchor="start" x="2151.829" y="-136" font-family="Helvetica,sans-Serif" font-size="10.00" fill="#000000">Estadistica</text>
<polygon fill="none" stroke="#000000" points="2105,-91 2105,-123 2247,-123 2247,-91 2105,-91"/>
<text text-anchor="start" x="2145.1605" y="-104" font-family="Helvetica,sans-Serif" font-size="10.00" fill="#000000">nombre:Texto</text>
<polygon fill="none" stroke="#000000" points="2105,-23 2105,-91 2247,-91 2247,-23 2105,-23"/>
<text text-anchor="start" x="2114.741" y="-72" font-family="Helvetica,sans-Serif" font-size="10.00" fill="#000000">+Constructor(nombre:Texto</text>
<text text-anchor="start" x="2130.994" y="-60" font-family="Helvetica,sans-Serif" font-size="10.00" fill="#000000">tipo:TipoEstadistica)</text>
<text text-anchor="start" x="2131.1335" y="-48" font-family="Helvetica,sans-Serif" font-size="10.00" fill="#000000">+getNombre():Texto</text>
<text text-anchor="start" x="2117.7965" y="-36" font-family="Helvetica,sans-Serif" font-size="10.00" fill="#000000">+getTipo():TipoEstadistica</text>
</g>
<!-- A13 -->
<g id="node14" class="node">
<title>A13</title>
<polygon fill="none" stroke="#000000" points="2297.5,-95 2297.5,-139 2384.5,-139 2384.5,-95 2297.5,-95"/>
<text text-anchor="start" x="2316.264" y="-120" font-family="Helvetica,sans-Serif" font-size="10.00" fill="#000000">&lt;&lt;Enum&gt;&gt;</text>
<text text-anchor="start" x="2307.106" y="-108" font-family="Helvetica,sans-Serif" font-size="10.00" fill="#000000">TipoEstadistica</text>
<polygon fill="none" stroke="#000000" points="2297.5,-39 2297.5,-95 2384.5,-95 2384.5,-39 2297.5,-39"/>
<text text-anchor="start" x="2317.939" y="-76" font-family="Helvetica,sans-Serif" font-size="10.00" fill="#000000">POSITIVA</text>
<text text-anchor="start" x="2315.719" y="-64" font-family="Helvetica,sans-Serif" font-size="10.00" fill="#000000">NEGATIVA</text>
<text text-anchor="start" x="2320.448" y="-52" font-family="Helvetica,sans-Serif" font-size="10.00" fill="#000000">NEUTRA</text>
</g>
<!-- A9&#45;&gt;A13 -->
<g id="edge13" class="edge">
<title>A9&#45;&gt;A13</title>
<path fill="none" stroke="#000000" d="M2247.1954,-89C2260.3558,-89 2273.9009,-89 2286.4496,-89"/>
<polygon fill="#000000" stroke="#000000" points="2296.7259,-89 2286.7259,-93.5001 2291.7259,-89 2286.7259,-89.0001 2286.7259,-89.0001 2286.7259,-89.0001 2291.7259,-89 2286.7258,-84.5001 2296.7259,-89 2296.7259,-89"/>
<text text-anchor="middle" x="2278.5997" y="-94.4524" font-family="Helvetica,sans-Serif" font-size="10.00" fill="#000000">tipo1</text>
<text text-anchor="middle" x="2265.3215" y="-77.5476" font-family="Helvetica,sans-Serif" font-size="10.00" fill="#000000">*</text>
</g>
<!-- A10 -->
<g id="node11" class="node">
<title>A10</title>
<polygon fill="none" stroke="#000000" points="1880.5,-219 1880.5,-251 2025.5,-251 2025.5,-219 1880.5,-219"/>
<text text-anchor="start" x="1910.2175" y="-232" font-family="Helvetica,sans-Serif" font-size="10.00" fill="#000000">RegistroEstadistica</text>
<polygon fill="none" stroke="#000000" points="1880.5,-175 1880.5,-219 2025.5,-219 2025.5,-175 1880.5,-175"/>
<text text-anchor="start" x="1930.4995" y="-200" font-family="Helvetica,sans-Serif" font-size="10.00" fill="#000000">valor:Real</text>
<text text-anchor="start" x="1903.8235" y="-188" font-family="Helvetica,sans-Serif" font-size="10.00" fill="#000000">estadistica:Estadistica</text>
<polygon fill="none" stroke="#000000" points="1880.5,-107 1880.5,-175 2025.5,-175 2025.5,-107 1880.5,-107"/>
<text text-anchor="start" x="1900.08" y="-156" font-family="Helvetica,sans-Serif" font-size="10.00" fill="#000000">+Constructor(valor:Real</text>
<text text-anchor="start" x="1902.159" y="-144" font-family="Helvetica,sans-Serif" font-size="10.00" fill="#000000">estadistica:Estadistica)</text>
<text text-anchor="start" x="1916.468" y="-132" font-family="Helvetica,sans-Serif" font-size="10.00" fill="#000000">+getValor():Real</text>
<text text-anchor="start" x="1890.0715" y="-120" font-family="Helvetica,sans-Serif" font-size="10.00" fill="#000000">+getEstadistica():Estadistica</text>
</g>
<!-- A10&#45;&gt;A2JA9 -->
<g id="edge12" class="edge">
<title>A10&#45;&gt;A2JA9</title>
<path fill="none" stroke="#000000" stroke-dasharray="5,2" d="M1952.5,-106.7951C1952.5,-104.4806 1952.5,-102.166 1952.5,-99.8515"/>
<polygon fill="#000000" stroke="#000000" points="1952.5,-89.7031 1957.0001,-99.7031 1952.5,-94.7031 1952.5001,-99.7031 1952.5001,-99.7031 1952.5001,-99.7031 1952.5,-94.7031 1948.0001,-99.7032 1952.5,-89.7031 1952.5,-89.7031"/>
</g>
<!-- A11&#45;&gt;A4 -->
<g id="edge16" class="edge">
<title>A11&#45;&gt;A4</title>
<path fill="none" stroke="#000000" d="M554.8406,-276.903C564.0848,-279.8415 573.673,-282.8894 583.3236,-285.9572"/>
<polygon fill="none" stroke="#000000" points="554.6685,-276.8483 547.7387,-278.8427 543.2324,-273.213 550.1623,-271.2186 554.6685,-276.8483"/>
<polygon fill="#000000" stroke="#000000" points="592.9845,-289.0282 582.0912,-290.2872 588.2195,-287.5134 583.4544,-285.9987 583.4544,-285.9987 583.4544,-285.9987 588.2195,-287.5134 584.8177,-281.7102 592.9845,-289.0282 592.9845,-289.0282"/>
<text text-anchor="middle" x="573.1496" y="-288.5922" font-family="Helvetica,sans-Serif" font-size="10.00" fill="#000000">2</text>
<text text-anchor="middle" x="563.0674" y="-267.649" font-family="Helvetica,sans-Serif" font-size="10.00" fill="#000000">*</text>
</g>
<!-- A12 -->
<g id="node13" class="node">
<title>A12</title>
<polygon fill="none" stroke="#000000" points="863.5,-149 863.5,-181 1078.5,-181 1078.5,-149 863.5,-149"/>
<text text-anchor="start" x="934.607" y="-162" font-family="Helvetica,sans-Serif" font-size="10.00" fill="#000000">RegistroReporte</text>
<polygon fill="none" stroke="#000000" points="863.5,-105 863.5,-149 1078.5,-149 1078.5,-105 863.5,-105"/>
<text text-anchor="start" x="873.483" y="-130" font-family="Helvetica,sans-Serif" font-size="10.00" fill="#000000">estadisticaParticipanteA:ValorEstadistica</text>
<text text-anchor="start" x="873.483" y="-118" font-family="Helvetica,sans-Serif" font-size="10.00" fill="#000000">estadisticaParticipanteB:ValorEstadistica</text>
</g>
<!-- A11&#45;&gt;A12 -->
<g id="edge14" class="edge">
<title>A11&#45;&gt;A12</title>
<path fill="none" stroke="#000000" d="M555.0338,-234.6717C635.3039,-216.9603 760.9184,-189.2437 853.0239,-168.9208"/>
<polygon fill="none" stroke="#000000" points="554.8412,-234.7141 549.844,-239.913 543.123,-237.2998 548.1202,-232.1009 554.8412,-234.7141"/>
<polygon fill="#000000" stroke="#000000" points="862.9549,-166.7296 854.1594,-173.2786 858.0723,-167.807 853.1897,-168.8843 853.1897,-168.8843 853.1897,-168.8843 858.0723,-167.807 852.2201,-164.49 862.9549,-166.7296 862.9549,-166.7296"/>
<text text-anchor="middle" x="847.0756" y="-175.889" font-family="Helvetica,sans-Serif" font-size="10.00" fill="#000000">registros*</text>
<text text-anchor="middle" x="559.0022" y="-222.1404" font-family="Helvetica,sans-Serif" font-size="10.00" fill="#000000">1</text>
</g>
<!-- A12&#45;&gt;A10 -->
<g id="edge15" class="edge">
<title>A12&#45;&gt;A10</title>
<path fill="none" stroke="#000000" d="M1090.4653,-147.3979C1292.5578,-154.8066 1695.8062,-169.5896 1869.6231,-175.9617"/>
<polygon fill="none" stroke="#000000" points="1090.3922,-147.3953 1084.2496,-151.1728 1078.4002,-146.9556 1084.5428,-143.1782 1090.3922,-147.3953"/>
<polygon fill="#000000" stroke="#000000" points="1879.734,-176.3324 1869.5758,-180.4629 1874.7374,-176.1492 1869.7407,-175.966 1869.7407,-175.966 1869.7407,-175.966 1874.7374,-176.1492 1869.9056,-171.469 1879.734,-176.3324 1879.734,-176.3324"/>
<text text-anchor="middle" x="1861.3104" y="-181.115" font-family="Helvetica,sans-Serif" font-size="10.00" fill="#000000">2</text>
<text text-anchor="middle" x="1096.8239" y="-136.173" font-family="Helvetica,sans-Serif" font-size="10.00" fill="#000000">*</text>
</g>
<!-- A2JA9&#45;&gt;A9 -->
<g id="edge11" class="edge">
<title>A2JA9&#45;&gt;A9</title>
<path fill="none" stroke="#000000" d="M1953.1411,-89C1960.717,-89 2033.9635,-89 2094.4491,-89"/>
<polygon fill="#000000" stroke="#000000" points="2104.8032,-89 2094.8033,-93.5001 2099.8032,-89 2094.8032,-89.0001 2094.8032,-89.0001 2094.8032,-89.0001 2099.8032,-89 2094.8032,-84.5001 2104.8032,-89 2104.8032,-89"/>
<text text-anchor="middle" x="2086.6771" y="-94.4524" font-family="Helvetica,sans-Serif" font-size="10.00" fill="#000000">*</text>
</g>
</g>
</svg>
