<?xml version="1.0" encoding="UTF-8" standalone="no"?>
<!DOCTYPE svg PUBLIC "-//W3C//DTD SVG 1.1//EN"
 "http://www.w3.org/Graphics/SVG/1.1/DTD/svg11.dtd">
<!-- Generated by graphviz version 2.40.1 (20161225.0304)
 -->
<!-- Title: G Pages: 1 -->
<svg width="1272pt" height="428pt"
 viewBox="0.00 0.00 1272.00 428.00" xmlns="http://www.w3.org/2000/svg" xmlns:xlink="http://www.w3.org/1999/xlink">
<g id="graph0" class="graph" transform="scale(1 1) rotate(0) translate(4 424)">
<title>G</title>
<polygon fill="#ffffff" stroke="transparent" points="-4,4 -4,-424 1268,-424 1268,4 -4,4"/>
<!-- A0 -->
<g id="node1" class="node">
<title>A0</title>
<polygon fill="none" stroke="#000000" points=".5,-388 .5,-420 341.5,-420 341.5,-388 .5,-388"/>
<text text-anchor="start" x="155.163" y="-401" font-family="Helvetica,sans-Serif" font-size="10.00" fill="#000000">Torneo</text>
<polygon fill="none" stroke="#000000" points=".5,-284 .5,-388 341.5,-388 341.5,-284 .5,-284"/>
<text text-anchor="start" x="140.1605" y="-369" font-family="Helvetica,sans-Serif" font-size="10.00" fill="#000000">nombre:Texto</text>
<text text-anchor="start" x="131.822" y="-357" font-family="Helvetica,sans-Serif" font-size="10.00" fill="#000000">fechaInicio:Fecha</text>
<text text-anchor="start" x="102.6515" y="-345" font-family="Helvetica,sans-Serif" font-size="10.00" fill="#000000">fechaInicioInscripciones:Fecha</text>
<text text-anchor="start" x="100.712" y="-333" font-family="Helvetica,sans-Serif" font-size="10.00" fill="#000000">fechaCierreInscripciones:Fecha</text>
<text text-anchor="start" x="109.042" y="-321" font-family="Helvetica,sans-Serif" font-size="10.00" fill="#000000">numeroParticipantes:Entero</text>
<text text-anchor="start" x="131.5485" y="-309" font-family="Helvetica,sans-Serif" font-size="10.00" fill="#000000">limiteEdad:Entero</text>
<text text-anchor="start" x="120.1595" y="-297" font-family="Helvetica,sans-Serif" font-size="10.00" fill="#000000">valorInscripcion:Entero</text>
<polygon fill="none" stroke="#000000" points=".5,0 .5,-284 341.5,-284 341.5,0 .5,0"/>
<text text-anchor="start" x="109.741" y="-265" font-family="Helvetica,sans-Serif" font-size="10.00" fill="#000000">+Constructor(nombre:Texto</text>
<text text-anchor="start" x="131.822" y="-253" font-family="Helvetica,sans-Serif" font-size="10.00" fill="#000000">fechaInicio:Fecha</text>
<text text-anchor="start" x="102.6515" y="-241" font-family="Helvetica,sans-Serif" font-size="10.00" fill="#000000">fechaInicioInscripciones:Fecha</text>
<text text-anchor="start" x="100.712" y="-229" font-family="Helvetica,sans-Serif" font-size="10.00" fill="#000000">fechaCierreInscripciones:Fecha</text>
<text text-anchor="start" x="109.042" y="-217" font-family="Helvetica,sans-Serif" font-size="10.00" fill="#000000">numeroParticipantes:Entero</text>
<text text-anchor="start" x="131.5485" y="-205" font-family="Helvetica,sans-Serif" font-size="10.00" fill="#000000">limiteEdad:Entero</text>
<text text-anchor="start" x="120.1595" y="-193" font-family="Helvetica,sans-Serif" font-size="10.00" fill="#000000">valorInscripcion:Entero</text>
<text text-anchor="start" x="120.1555" y="-181" font-family="Helvetica,sans-Serif" font-size="10.00" fill="#000000">tipoTorneo:TipoTorneo</text>
<text text-anchor="start" x="10.288" y="-169" font-family="Helvetica,sans-Serif" font-size="10.00" fill="#000000">caracter:CaracterTorneo)+registrarParticipante(participante:Participante)</text>
<text text-anchor="start" x="126.1335" y="-157" font-family="Helvetica,sans-Serif" font-size="10.00" fill="#000000">+getNombre():Texto</text>
<text text-anchor="start" x="116.96" y="-145" font-family="Helvetica,sans-Serif" font-size="10.00" fill="#000000">+getFechaInicio():Fecha</text>
<text text-anchor="start" x="87.7895" y="-133" font-family="Helvetica,sans-Serif" font-size="10.00" fill="#000000">+getFechaInicioInscripciones():Fecha</text>
<text text-anchor="start" x="85.85" y="-121" font-family="Helvetica,sans-Serif" font-size="10.00" fill="#000000">+getFechaCierreInscripciones():Fecha</text>
<text text-anchor="start" x="95.015" y="-109" font-family="Helvetica,sans-Serif" font-size="10.00" fill="#000000">+getNumeroParticipantes():Entero</text>
<text text-anchor="start" x="116.6815" y="-97" font-family="Helvetica,sans-Serif" font-size="10.00" fill="#000000">+getLimiteEdad():Entero</text>
<text text-anchor="start" x="106.128" y="-85" font-family="Helvetica,sans-Serif" font-size="10.00" fill="#000000">+getValorInscripcion():Entero</text>
<text text-anchor="start" x="105.2935" y="-73" font-family="Helvetica,sans-Serif" font-size="10.00" fill="#000000">+getTipoTorneo():TipoTorneo</text>
<text text-anchor="start" x="78.6215" y="-61" font-family="Helvetica,sans-Serif" font-size="10.00" fill="#000000">+getParticipantes():Participante［*］</text>
<text text-anchor="start" x="102.2435" y="-49" font-family="Helvetica,sans-Serif" font-size="10.00" fill="#000000">+getCaracter():CaracterTorneo</text>
<text text-anchor="start" x="93.344" y="-37" font-family="Helvetica,sans-Serif" font-size="10.00" fill="#000000">+setFechaInicio(fechaInicio:Fecha)</text>
<text text-anchor="start" x="35.003" y="-25" font-family="Helvetica,sans-Serif" font-size="10.00" fill="#000000">+setFechaInicioInscripciones(fechaInicioInscripciones:Fecha)</text>
<text text-anchor="start" x="31.124" y="-13" font-family="Helvetica,sans-Serif" font-size="10.00" fill="#000000">+setFechaCierreInscripciones(fechaCierreInscripciones:Fecha)</text>
</g>
<!-- A1 -->
<g id="node2" class="node">
<title>A1</title>
<polygon fill="none" stroke="#000000" points="422.5,-342 422.5,-386 493.5,-386 493.5,-342 422.5,-342"/>
<text text-anchor="start" x="433.264" y="-367" font-family="Helvetica,sans-Serif" font-size="10.00" fill="#000000">&lt;&lt;Enum&gt;&gt;</text>
<text text-anchor="start" x="432.44" y="-355" font-family="Helvetica,sans-Serif" font-size="10.00" fill="#000000">TipoTorneo</text>
<polygon fill="none" stroke="#000000" points="422.5,-274 422.5,-342 493.5,-342 493.5,-274 422.5,-274"/>
<text text-anchor="start" x="441.6075" y="-323" font-family="Helvetica,sans-Serif" font-size="10.00" fill="#000000">LOCAL</text>
<text text-anchor="start" x="432.164" y="-311" font-family="Helvetica,sans-Serif" font-size="10.00" fill="#000000">REGIONAL</text>
<text text-anchor="start" x="432.444" y="-299" font-family="Helvetica,sans-Serif" font-size="10.00" fill="#000000">NACIONAL</text>
<text text-anchor="start" x="435.5035" y="-287" font-family="Helvetica,sans-Serif" font-size="10.00" fill="#000000">MUNDIAL</text>
</g>
<!-- A0&#45;&gt;A1 -->
<g id="edge3" class="edge">
<title>A0&#45;&gt;A1</title>
<path fill="none" stroke="#000000" d="M341.1799,-281.3644C367.4553,-292.3506 392.4687,-302.8092 412.5205,-311.1932"/>
<polygon fill="#000000" stroke="#000000" points="421.9493,-315.1356 410.9874,-315.4297 417.3363,-313.2068 412.7233,-311.278 412.7233,-311.278 412.7233,-311.278 417.3363,-313.2068 414.4593,-307.1263 421.9493,-315.1356 421.9493,-315.1356"/>
<text text-anchor="middle" x="401.9656" y="-312.9415" font-family="Helvetica,sans-Serif" font-size="10.00" fill="#000000">tipoTorneo1</text>
<text text-anchor="middle" x="361.1636" y="-277.5585" font-family="Helvetica,sans-Serif" font-size="10.00" fill="#000000">*</text>
</g>
<!-- A2 -->
<g id="node3" class="node">
<title>A2</title>
<polygon fill="none" stroke="#000000" points="579.5,-240 579.5,-284 784.5,-284 784.5,-240 579.5,-240"/>
<text text-anchor="start" x="652.54" y="-265" font-family="Helvetica,sans-Serif" font-size="10.00" fill="#000000">&lt;&lt;abstract&gt;&gt;</text>
<text text-anchor="start" x="655.6055" y="-253" font-family="Helvetica,sans-Serif" font-size="10.00" fill="#000000">Participante</text>
<polygon fill="none" stroke="#000000" points="579.5,-208 579.5,-240 784.5,-240 784.5,-208 579.5,-208"/>
<text text-anchor="start" x="589.209" y="-221" font-family="Helvetica,sans-Serif" font-size="10.00" fill="#000000">estadisticas:RegistroEstadistica［*］</text>
</g>
<!-- A0&#45;&gt;A2 -->
<g id="edge4" class="edge">
<title>A0&#45;&gt;A2</title>
<path fill="none" stroke="#000000" d="M353.3555,-224.2624C366.0941,-225.2053 378.738,-226.1263 391,-227 449.61,-231.1759 514.8978,-235.4774 568.711,-238.9293"/>
<polygon fill="none" stroke="#000000" points="353.0897,-224.2427 346.8095,-227.7866 341.1227,-223.3525 347.4029,-219.8086 353.0897,-224.2427"/>
<polygon fill="#000000" stroke="#000000" points="578.9678,-239.5858 568.7007,-243.4377 573.978,-239.2664 568.9882,-238.9469 568.9882,-238.9469 568.9882,-238.9469 573.978,-239.2664 569.2757,-234.4561 578.9678,-239.5858 578.9678,-239.5858"/>
<text text-anchor="middle" x="560.3387" y="-243.863" font-family="Helvetica,sans-Serif" font-size="10.00" fill="#000000">participantes*</text>
<text text-anchor="middle" x="359.8259" y="-213.268" font-family="Helvetica,sans-Serif" font-size="10.00" fill="#000000">1</text>
</g>
<!-- A6 -->
<g id="node7" class="node">
<title>A6</title>
<polygon fill="none" stroke="#000000" points="412.5,-68 412.5,-112 502.5,-112 502.5,-68 412.5,-68"/>
<text text-anchor="start" x="432.764" y="-93" font-family="Helvetica,sans-Serif" font-size="10.00" fill="#000000">&lt;&lt;Enum&gt;&gt;</text>
<text text-anchor="start" x="422.4965" y="-81" font-family="Helvetica,sans-Serif" font-size="10.00" fill="#000000">CaracterTorneo</text>
<polygon fill="none" stroke="#000000" points="412.5,-24 412.5,-68 502.5,-68 502.5,-24 412.5,-24"/>
<text text-anchor="start" x="429.445" y="-49" font-family="Helvetica,sans-Serif" font-size="10.00" fill="#000000">INDIVIDUAL</text>
<text text-anchor="start" x="436.943" y="-37" font-family="Helvetica,sans-Serif" font-size="10.00" fill="#000000">GRUPAL</text>
</g>
<!-- A0&#45;&gt;A6 -->
<g id="edge2" class="edge">
<title>A0&#45;&gt;A6</title>
<path fill="none" stroke="#000000" d="M341.1799,-125.5521C363.6287,-114.445 385.1564,-103.7937 403.4556,-94.7397"/>
<polygon fill="#000000" stroke="#000000" points="412.443,-90.293 405.4756,-98.761 407.9615,-92.5104 403.48,-94.7277 403.48,-94.7277 403.48,-94.7277 407.9615,-92.5104 401.4844,-90.6944 412.443,-90.293 412.443,-90.293"/>
<text text-anchor="middle" x="399.9449" y="-102.9071" font-family="Helvetica,sans-Serif" font-size="10.00" fill="#000000">caracter1</text>
<text text-anchor="middle" x="353.6779" y="-106.9381" font-family="Helvetica,sans-Serif" font-size="10.00" fill="#000000">*</text>
</g>
<!-- A9 -->
<g id="node10" class="node">
<title>A9</title>
<polygon fill="none" stroke="#000000" points="391.5,-186 391.5,-218 524.5,-218 524.5,-186 391.5,-186"/>
<text text-anchor="start" x="440.2185" y="-199" font-family="Helvetica,sans-Serif" font-size="10.00" fill="#000000">Reporte</text>
<polygon fill="none" stroke="#000000" points="391.5,-130 391.5,-186 524.5,-186 524.5,-130 391.5,-130"/>
<text text-anchor="start" x="430.4895" y="-167" font-family="Helvetica,sans-Serif" font-size="10.00" fill="#000000">fecha:Fecha</text>
<text text-anchor="start" x="401.042" y="-155" font-family="Helvetica,sans-Serif" font-size="10.00" fill="#000000">participanteA:Participante</text>
<text text-anchor="start" x="401.042" y="-143" font-family="Helvetica,sans-Serif" font-size="10.00" fill="#000000">participanteB:Participante</text>
</g>
<!-- A0&#45;&gt;A9 -->
<g id="edge1" class="edge">
<title>A0&#45;&gt;A9</title>
<path fill="none" stroke="#000000" stroke-dasharray="5,2" d="M341.1799,-188.5907C354.816,-186.8802 368.1122,-185.2124 380.5515,-183.6521"/>
<polygon fill="#000000" stroke="#000000" points="390.7875,-182.3681 381.4254,-188.0778 385.8264,-182.9905 380.8653,-183.6128 380.8653,-183.6128 380.8653,-183.6128 385.8264,-182.9905 380.3052,-179.1478 390.7875,-182.3681 390.7875,-182.3681"/>
</g>
<!-- A3 -->
<g id="node4" class="node">
<title>A3</title>
<polygon fill="none" stroke="#000000" points="858,-244 858,-276 939,-276 939,-244 858,-244"/>
<text text-anchor="start" x="882.938" y="-257" font-family="Helvetica,sans-Serif" font-size="10.00" fill="#000000">Equipo</text>
<polygon fill="none" stroke="#000000" points="858,-212 858,-244 939,-244 939,-212 858,-212"/>
<text text-anchor="start" x="867.6605" y="-225" font-family="Helvetica,sans-Serif" font-size="10.00" fill="#000000">nombre:Texto</text>
</g>
<!-- A2&#45;&gt;A3 -->
<g id="edge9" class="edge">
<title>A2&#45;&gt;A3</title>
<path fill="none" stroke="#000000" d="M794.1122,-244.9597C816.7828,-244.7503 839.1978,-244.5432 857.3713,-244.3753"/>
<polygon fill="none" stroke="#000000" points="794.0111,-241.4604 784.0439,-245.0527 794.0758,-248.4601 794.0111,-241.4604"/>
</g>
<!-- A5 -->
<g id="node6" class="node">
<title>A5</title>
<polygon fill="none" stroke="#000000" points="1139.5,-244 1139.5,-276 1264.5,-276 1264.5,-244 1139.5,-244"/>
<text text-anchor="start" x="1183.938" y="-257" font-family="Helvetica,sans-Serif" font-size="10.00" fill="#000000">Jugador</text>
<polygon fill="none" stroke="#000000" points="1139.5,-212 1139.5,-244 1264.5,-244 1264.5,-212 1139.5,-212"/>
<text text-anchor="start" x="1149.489" y="-225" font-family="Helvetica,sans-Serif" font-size="10.00" fill="#000000">fechaNacimiento:Fecha</text>
</g>
<!-- A2&#45;&gt;A5 -->
<g id="edge8" class="edge">
<title>A2&#45;&gt;A5</title>
<path fill="none" stroke="#000000" d="M793.9855,-284.448C876.4777,-307.1709 990.7542,-327.1992 1089,-303 1111.1637,-297.5408 1133.7948,-286.852 1152.8925,-276.0545"/>
<polygon fill="none" stroke="#000000" points="794.9133,-281.0733 784.3394,-281.7389 793.0205,-287.8125 794.9133,-281.0733"/>
</g>
<!-- A2JA7 -->
<!-- A2&#45;&gt;A2JA7 -->
<g id="edge10" class="edge">
<title>A2&#45;&gt;A2JA7</title>
<path fill="none" stroke="#000000" d="M777.9931,-207.9619C781.8625,-205.16 785.5557,-202.1756 789,-199 823.5018,-167.1897 800.6549,-133.0541 839,-106 859.3194,-91.6638 893.3954,-96.2978 897.5755,-96.9331"/>
<text text-anchor="middle" x="787.6245" y="-187.4338" font-family="Helvetica,sans-Serif" font-size="10.00" fill="#000000">*</text>
</g>
<!-- A4 -->
<g id="node5" class="node">
<title>A4</title>
<polygon fill="none" stroke="#000000" points="1007,-262 1007,-294 1089,-294 1089,-262 1007,-262"/>
<text text-anchor="start" x="1029.383" y="-275" font-family="Helvetica,sans-Serif" font-size="10.00" fill="#000000">Persona</text>
<polygon fill="none" stroke="#000000" points="1007,-194 1007,-262 1089,-262 1089,-194 1007,-194"/>
<text text-anchor="start" x="1017.1605" y="-243" font-family="Helvetica,sans-Serif" font-size="10.00" fill="#000000">nombre:Texto</text>
<text text-anchor="start" x="1016.8815" y="-231" font-family="Helvetica,sans-Serif" font-size="10.00" fill="#000000">apellido:Texto</text>
<text text-anchor="start" x="1022.165" y="-219" font-family="Helvetica,sans-Serif" font-size="10.00" fill="#000000">email:Texto</text>
<text text-anchor="start" x="1019.3855" y="-207" font-family="Helvetica,sans-Serif" font-size="10.00" fill="#000000">celular:Texto</text>
</g>
<!-- A3&#45;&gt;A4 -->
<g id="edge5" class="edge">
<title>A3&#45;&gt;A4</title>
<path fill="none" stroke="#000000" d="M950.6673,-244C965.6407,-244 981.9208,-244 996.8053,-244"/>
<polygon fill="none" stroke="#000000" points="950.5922,-244.0001 944.5921,-248 938.5922,-244 944.5922,-240 950.5922,-244.0001"/>
<polygon fill="#000000" stroke="#000000" points="1006.8538,-244 996.8538,-248.5001 1001.8538,-244 996.8538,-244.0001 996.8538,-244.0001 996.8538,-244.0001 1001.8538,-244 996.8537,-239.5001 1006.8538,-244 1006.8538,-244"/>
<text text-anchor="middle" x="988.7276" y="-249.4524" font-family="Helvetica,sans-Serif" font-size="10.00" fill="#000000">representante1</text>
<text text-anchor="middle" x="956.7183" y="-232.5476" font-family="Helvetica,sans-Serif" font-size="10.00" fill="#000000">1</text>
</g>
<!-- A3&#45;&gt;A5 -->
<g id="edge7" class="edge">
<title>A3&#45;&gt;A5</title>
<path fill="none" stroke="#000000" d="M949.2384,-209.5021C966.7896,-199.5668 987.0484,-190.0533 1007,-185 1042.3289,-176.0519 1053.6132,-176.2838 1089,-185 1107.7006,-189.6062 1126.734,-197.9355 1143.6969,-206.9117"/>
<polygon fill="none" stroke="#000000" points="949.0313,-209.6238 945.8868,-216.1132 938.6872,-215.7066 941.8316,-209.2172 949.0313,-209.6238"/>
<polygon fill="#000000" stroke="#000000" points="1152.8925,-211.9455 1141.96,-211.091 1148.5067,-209.5446 1144.1208,-207.1437 1144.1208,-207.1437 1144.1208,-207.1437 1148.5067,-209.5446 1146.2816,-203.1964 1152.8925,-211.9455 1152.8925,-211.9455"/>
<text text-anchor="middle" x="1132.9341" y="-207.6559" font-family="Helvetica,sans-Serif" font-size="10.00" fill="#000000">jugador*</text>
<text text-anchor="middle" x="950.0276" y="-196.2326" font-family="Helvetica,sans-Serif" font-size="10.00" fill="#000000">1</text>
</g>
<!-- A4&#45;&gt;A5 -->
<g id="edge6" class="edge">
<title>A4&#45;&gt;A5</title>
<path fill="none" stroke="#000000" d="M1099.4712,-244C1112.1059,-244 1125.7694,-244 1138.865,-244"/>
<polygon fill="none" stroke="#000000" points="1099.1352,-240.5001 1089.1352,-244 1099.1351,-247.5001 1099.1352,-240.5001"/>
</g>
<!-- A7 -->
<g id="node8" class="node">
<title>A7</title>
<polygon fill="none" stroke="#000000" points="1008,-97 1008,-129 1089,-129 1089,-97 1008,-97"/>
<text text-anchor="start" x="1024.329" y="-110" font-family="Helvetica,sans-Serif" font-size="10.00" fill="#000000">Estadistica</text>
<polygon fill="none" stroke="#000000" points="1008,-65 1008,-97 1089,-97 1089,-65 1008,-65"/>
<text text-anchor="start" x="1017.6605" y="-78" font-family="Helvetica,sans-Serif" font-size="10.00" fill="#000000">nombre:Texto</text>
</g>
<!-- A11 -->
<g id="node12" class="node">
<title>A11</title>
<polygon fill="none" stroke="#000000" points="1158.5,-103 1158.5,-147 1245.5,-147 1245.5,-103 1158.5,-103"/>
<text text-anchor="start" x="1177.264" y="-128" font-family="Helvetica,sans-Serif" font-size="10.00" fill="#000000">&lt;&lt;Enum&gt;&gt;</text>
<text text-anchor="start" x="1168.106" y="-116" font-family="Helvetica,sans-Serif" font-size="10.00" fill="#000000">TipoEstadistica</text>
<polygon fill="none" stroke="#000000" points="1158.5,-47 1158.5,-103 1245.5,-103 1245.5,-47 1158.5,-47"/>
<text text-anchor="start" x="1178.939" y="-84" font-family="Helvetica,sans-Serif" font-size="10.00" fill="#000000">POSITIVA</text>
<text text-anchor="start" x="1176.719" y="-72" font-family="Helvetica,sans-Serif" font-size="10.00" fill="#000000">NEGATIVA</text>
<text text-anchor="start" x="1181.448" y="-60" font-family="Helvetica,sans-Serif" font-size="10.00" fill="#000000">NEUTRA</text>
</g>
<!-- A7&#45;&gt;A11 -->
<g id="edge13" class="edge">
<title>A7&#45;&gt;A11</title>
<path fill="none" stroke="#000000" d="M1088.7322,-97C1106.8012,-97 1128.3148,-97 1147.6829,-97"/>
<polygon fill="#000000" stroke="#000000" points="1157.8852,-97 1147.8852,-101.5001 1152.8852,-97 1147.8852,-97.0001 1147.8852,-97.0001 1147.8852,-97.0001 1152.8852,-97 1147.8852,-92.5001 1157.8852,-97 1157.8852,-97"/>
<text text-anchor="middle" x="1139.759" y="-102.4524" font-family="Helvetica,sans-Serif" font-size="10.00" fill="#000000">tipo1</text>
<text text-anchor="middle" x="1106.8583" y="-85.5476" font-family="Helvetica,sans-Serif" font-size="10.00" fill="#000000">*</text>
</g>
<!-- A8 -->
<g id="node9" class="node">
<title>A8</title>
<polygon fill="none" stroke="#000000" points="839,-159 839,-191 957,-191 957,-159 839,-159"/>
<text text-anchor="start" x="855.2175" y="-172" font-family="Helvetica,sans-Serif" font-size="10.00" fill="#000000">RegistroEstadistica</text>
<polygon fill="none" stroke="#000000" points="839,-115 839,-159 957,-159 957,-115 839,-115"/>
<text text-anchor="start" x="875.4995" y="-140" font-family="Helvetica,sans-Serif" font-size="10.00" fill="#000000">valor:Real</text>
<text text-anchor="start" x="848.8235" y="-128" font-family="Helvetica,sans-Serif" font-size="10.00" fill="#000000">estadistica:Estadistica</text>
</g>
<!-- A8&#45;&gt;A2JA7 -->
<g id="edge12" class="edge">
<title>A8&#45;&gt;A2JA7</title>
<path fill="none" stroke="#000000" stroke-dasharray="5,2" d="M898,-114.8008C898,-112.3591 898,-109.9174 898,-107.4756"/>
<polygon fill="#000000" stroke="#000000" points="898,-97.4375 902.5001,-107.4375 898,-102.4375 898.0001,-107.4375 898.0001,-107.4375 898.0001,-107.4375 898,-102.4375 893.5001,-107.4375 898,-97.4375 898,-97.4375"/>
</g>
<!-- A9&#45;&gt;A2 -->
<g id="edge16" class="edge">
<title>A9&#45;&gt;A2</title>
<path fill="none" stroke="#000000" d="M535.581,-199.0975C546.338,-202.5551 557.556,-206.1608 568.7835,-209.7697"/>
<polygon fill="none" stroke="#000000" points="535.5253,-199.0796 528.589,-201.0516 524.1009,-195.4074 531.0371,-193.4354 535.5253,-199.0796"/>
<polygon fill="#000000" stroke="#000000" points="578.6413,-212.9383 567.7439,-214.1622 573.8811,-211.4082 569.121,-209.8781 569.121,-209.8781 569.121,-209.8781 573.8811,-211.4082 570.4981,-205.594 578.6413,-212.9383 578.6413,-212.9383"/>
<text text-anchor="middle" x="558.7982" y="-212.4384" font-family="Helvetica,sans-Serif" font-size="10.00" fill="#000000">2</text>
<text text-anchor="middle" x="543.944" y="-189.9073" font-family="Helvetica,sans-Serif" font-size="10.00" fill="#000000">*</text>
</g>
<!-- A10 -->
<g id="node11" class="node">
<title>A10</title>
<polygon fill="none" stroke="#000000" points="574.5,-158 574.5,-190 789.5,-190 789.5,-158 574.5,-158"/>
<text text-anchor="start" x="645.607" y="-171" font-family="Helvetica,sans-Serif" font-size="10.00" fill="#000000">RegistroReporte</text>
<polygon fill="none" stroke="#000000" points="574.5,-114 574.5,-158 789.5,-158 789.5,-114 574.5,-114"/>
<text text-anchor="start" x="584.483" y="-139" font-family="Helvetica,sans-Serif" font-size="10.00" fill="#000000">estadisticaParticipanteA:RegistroEstadistica</text>
<text text-anchor="start" x="584.483" y="-127" font-family="Helvetica,sans-Serif" font-size="10.00" fill="#000000">estadisticaParticipanteB:RegistroEstadistica</text>
</g>
<!-- A9&#45;&gt;A10 -->
<g id="edge14" class="edge">
<title>A9&#45;&gt;A10</title>
<path fill="none" stroke="#000000" d="M536.0456,-166.2857C544.977,-165.4085 554.221,-164.5006 563.52,-163.5873"/>
<polygon fill="none" stroke="#000000" points="536.0434,-166.2858 530.4632,-170.8532 524.1009,-167.4588 529.6812,-162.8915 536.0434,-166.2858"/>
<polygon fill="#000000" stroke="#000000" points="573.62,-162.5954 564.1077,-168.0513 568.6439,-163.0841 563.6678,-163.5729 563.6678,-163.5729 563.6678,-163.5729 568.6439,-163.0841 563.228,-159.0944 573.62,-162.5954 573.62,-162.5954"/>
<text text-anchor="middle" x="556.4068" y="-169.779" font-family="Helvetica,sans-Serif" font-size="10.00" fill="#000000">registros*</text>
<text text-anchor="middle" x="541.3141" y="-154.2752" font-family="Helvetica,sans-Serif" font-size="10.00" fill="#000000">1</text>
</g>
<!-- A10&#45;&gt;A8 -->
<g id="edge15" class="edge">
<title>A10&#45;&gt;A8</title>
<path fill="none" stroke="#000000" d="M801.5093,-152.5543C810.7668,-152.5971 819.9082,-152.6393 828.6584,-152.6797"/>
<polygon fill="none" stroke="#000000" points="801.1156,-152.5526 795.0972,-156.5248 789.1157,-152.4971 795.1342,-148.5249 801.1156,-152.5526"/>
<polygon fill="#000000" stroke="#000000" points="838.7342,-152.7263 828.7135,-157.1799 833.7343,-152.7031 828.7343,-152.68 828.7343,-152.68 828.7343,-152.68 833.7343,-152.7031 828.7551,-148.18 838.7342,-152.7263 838.7342,-152.7263"/>
<text text-anchor="middle" x="820.5692" y="-158.0948" font-family="Helvetica,sans-Serif" font-size="10.00" fill="#000000">2</text>
<text text-anchor="middle" x="807.2807" y="-141.1285" font-family="Helvetica,sans-Serif" font-size="10.00" fill="#000000">*</text>
</g>
<!-- A2JA7&#45;&gt;A7 -->
<g id="edge11" class="edge">
<title>A2JA7&#45;&gt;A7</title>
<path fill="none" stroke="#000000" d="M898.4303,-97C903.6738,-97 955.7929,-97 997.0515,-97"/>
<polygon fill="#000000" stroke="#000000" points="1007.2718,-97 997.2719,-101.5001 1002.2718,-97 997.2718,-97.0001 997.2718,-97.0001 997.2718,-97.0001 1002.2718,-97 997.2718,-92.5001 1007.2718,-97 1007.2718,-97"/>
<text text-anchor="middle" x="989.1457" y="-102.4524" font-family="Helvetica,sans-Serif" font-size="10.00" fill="#000000">*</text>
</g>
</g>
</svg>
