<?xml version="1.0" encoding="UTF-8" standalone="no"?>
<!DOCTYPE svg PUBLIC "-//W3C//DTD SVG 1.1//EN"
 "http://www.w3.org/Graphics/SVG/1.1/DTD/svg11.dtd">
<!-- Generated by graphviz version 2.40.1 (20161225.0304)
 -->
<!-- Title: G Pages: 1 -->
<svg width="1721pt" height="370pt"
 viewBox="0.00 0.00 1721.26 370.00" xmlns="http://www.w3.org/2000/svg" xmlns:xlink="http://www.w3.org/1999/xlink">
<g id="graph0" class="graph" transform="scale(1 1) rotate(0) translate(4 366)">
<title>G</title>
<polygon fill="#ffffff" stroke="transparent" points="-4,4 -4,-366 1717.263,-366 1717.263,4 -4,4"/>
<!-- A0 -->
<g id="node1" class="node">
<title>A0</title>
<polygon fill="none" stroke="#000000" points="0,-222 0,-254 160,-254 160,-222 0,-222"/>
<text text-anchor="start" x="64.163" y="-235" font-family="Helvetica,sans-Serif" font-size="10.00" fill="#000000">Torneo</text>
<polygon fill="none" stroke="#000000" points="0,-118 0,-222 160,-222 160,-118 0,-118"/>
<text text-anchor="start" x="49.1605" y="-203" font-family="Helvetica,sans-Serif" font-size="10.00" fill="#000000">nombre:Texto</text>
<text text-anchor="start" x="40.822" y="-191" font-family="Helvetica,sans-Serif" font-size="10.00" fill="#000000">fechaInicio:Fecha</text>
<text text-anchor="start" x="11.6515" y="-179" font-family="Helvetica,sans-Serif" font-size="10.00" fill="#000000">fechaInicioInscripciones:Fecha</text>
<text text-anchor="start" x="9.712" y="-167" font-family="Helvetica,sans-Serif" font-size="10.00" fill="#000000">fechaCierreInscripciones:Fecha</text>
<text text-anchor="start" x="18.042" y="-155" font-family="Helvetica,sans-Serif" font-size="10.00" fill="#000000">numeroParticipantes:Entero</text>
<text text-anchor="start" x="40.5485" y="-143" font-family="Helvetica,sans-Serif" font-size="10.00" fill="#000000">limiteEdad:Entero</text>
<text text-anchor="start" x="29.1595" y="-131" font-family="Helvetica,sans-Serif" font-size="10.00" fill="#000000">valorInscripcion:Entero</text>
</g>
<!-- A1 -->
<g id="node2" class="node">
<title>A1</title>
<polygon fill="none" stroke="#000000" points="241.5,-318 241.5,-362 312.5,-362 312.5,-318 241.5,-318"/>
<text text-anchor="start" x="252.264" y="-343" font-family="Helvetica,sans-Serif" font-size="10.00" fill="#000000">&lt;&lt;Enum&gt;&gt;</text>
<text text-anchor="start" x="251.44" y="-331" font-family="Helvetica,sans-Serif" font-size="10.00" fill="#000000">TipoTorneo</text>
<polygon fill="none" stroke="#000000" points="241.5,-250 241.5,-318 312.5,-318 312.5,-250 241.5,-250"/>
<text text-anchor="start" x="260.6075" y="-299" font-family="Helvetica,sans-Serif" font-size="10.00" fill="#000000">LOCAL</text>
<text text-anchor="start" x="251.164" y="-287" font-family="Helvetica,sans-Serif" font-size="10.00" fill="#000000">REGIONAL</text>
<text text-anchor="start" x="251.444" y="-275" font-family="Helvetica,sans-Serif" font-size="10.00" fill="#000000">NACIONAL</text>
<text text-anchor="start" x="254.5035" y="-263" font-family="Helvetica,sans-Serif" font-size="10.00" fill="#000000">MUNDIAL</text>
</g>
<!-- A0&#45;&gt;A1 -->
<g id="edge3" class="edge">
<title>A0&#45;&gt;A1</title>
<path fill="none" stroke="#000000" d="M160.2075,-234.9817C184.7216,-249.9521 210.7876,-265.8703 232.0152,-278.8337"/>
<polygon fill="#000000" stroke="#000000" points="240.7978,-284.1972 229.918,-282.8257 236.5306,-281.5912 232.2634,-278.9852 232.2634,-278.9852 232.2634,-278.9852 236.5306,-281.5912 234.6088,-275.1447 240.7978,-284.1972 240.7978,-284.1972"/>
<text text-anchor="middle" x="220.923" y="-278.9637" font-family="Helvetica,sans-Serif" font-size="10.00" fill="#000000">tipoTorneo1</text>
<text text-anchor="middle" x="180.0824" y="-234.2152" font-family="Helvetica,sans-Serif" font-size="10.00" fill="#000000">*</text>
</g>
<!-- A4 -->
<g id="node5" class="node">
<title>A4</title>
<polygon fill="none" stroke="#000000" points="482.5475,-240 393.1505,-240 393.1505,-204 482.5475,-204 482.5475,-240"/>
<text text-anchor="middle" x="437.849" y="-225" font-family="Helvetica,sans-Serif" font-size="10.00" fill="#000000">&lt;&lt;interface&gt;&gt;</text>
<text text-anchor="middle" x="437.849" y="-213" font-family="Helvetica,sans-Serif" font-size="10.00" fill="#000000">Participante</text>
</g>
<!-- A0&#45;&gt;A4 -->
<g id="edge4" class="edge">
<title>A0&#45;&gt;A4</title>
<path fill="none" stroke="#000000" d="M172.1301,-198.5908C184.8413,-200.1692 197.737,-201.6876 210,-203 268.8937,-209.3028 336.5415,-214.7132 382.7301,-218.1302"/>
<polygon fill="none" stroke="#000000" points="171.932,-198.5659 165.4785,-201.7834 160.0264,-197.0638 166.4799,-193.8463 171.932,-198.5659"/>
<polygon fill="#000000" stroke="#000000" points="392.8285,-218.8708 382.5261,-222.6272 387.8419,-218.505 382.8553,-218.1393 382.8553,-218.1393 382.8553,-218.1393 387.8419,-218.505 383.1845,-213.6513 392.8285,-218.8708 392.8285,-218.8708"/>
<text text-anchor="middle" x="374.1327" y="-222.9747" font-family="Helvetica,sans-Serif" font-size="10.00" fill="#000000">participantes*</text>
<text text-anchor="middle" x="179.0679" y="-187.9467" font-family="Helvetica,sans-Serif" font-size="10.00" fill="#000000">1</text>
</g>
<!-- A8 -->
<g id="node9" class="node">
<title>A8</title>
<polygon fill="none" stroke="#000000" points="231.5,-44 231.5,-88 321.5,-88 321.5,-44 231.5,-44"/>
<text text-anchor="start" x="251.764" y="-69" font-family="Helvetica,sans-Serif" font-size="10.00" fill="#000000">&lt;&lt;Enum&gt;&gt;</text>
<text text-anchor="start" x="241.4965" y="-57" font-family="Helvetica,sans-Serif" font-size="10.00" fill="#000000">CaracterTorneo</text>
<polygon fill="none" stroke="#000000" points="231.5,0 231.5,-44 321.5,-44 321.5,0 231.5,0"/>
<text text-anchor="start" x="248.445" y="-25" font-family="Helvetica,sans-Serif" font-size="10.00" fill="#000000">INDIVIDUAL</text>
<text text-anchor="start" x="255.943" y="-13" font-family="Helvetica,sans-Serif" font-size="10.00" fill="#000000">GRUPAL</text>
</g>
<!-- A0&#45;&gt;A8 -->
<g id="edge2" class="edge">
<title>A0&#45;&gt;A8</title>
<path fill="none" stroke="#000000" d="M160.2075,-128.0384C181.4716,-112.6719 203.9035,-96.4616 223.3322,-82.4215"/>
<polygon fill="#000000" stroke="#000000" points="231.4627,-76.546 225.9933,-86.0505 227.4101,-79.4746 223.3576,-82.4032 223.3576,-82.4032 223.3576,-82.4032 227.4101,-79.4746 220.7218,-78.7559 231.4627,-76.546 231.4627,-76.546"/>
<text text-anchor="middle" x="221.7219" y="-91.0136" font-family="Helvetica,sans-Serif" font-size="10.00" fill="#000000">caracter1</text>
<text text-anchor="middle" x="169.9483" y="-107.5708" font-family="Helvetica,sans-Serif" font-size="10.00" fill="#000000">*</text>
</g>
<!-- A11 -->
<g id="node12" class="node">
<title>A11</title>
<polygon fill="none" stroke="#000000" points="210.5,-162 210.5,-194 343.5,-194 343.5,-162 210.5,-162"/>
<text text-anchor="start" x="259.2185" y="-175" font-family="Helvetica,sans-Serif" font-size="10.00" fill="#000000">Reporte</text>
<polygon fill="none" stroke="#000000" points="210.5,-106 210.5,-162 343.5,-162 343.5,-106 210.5,-106"/>
<text text-anchor="start" x="249.4895" y="-143" font-family="Helvetica,sans-Serif" font-size="10.00" fill="#000000">fecha:Fecha</text>
<text text-anchor="start" x="220.042" y="-131" font-family="Helvetica,sans-Serif" font-size="10.00" fill="#000000">participanteA:Participante</text>
<text text-anchor="start" x="220.042" y="-119" font-family="Helvetica,sans-Serif" font-size="10.00" fill="#000000">participanteB:Participante</text>
</g>
<!-- A0&#45;&gt;A11 -->
<g id="edge1" class="edge">
<title>A0&#45;&gt;A11</title>
<path fill="none" stroke="#000000" stroke-dasharray="5,2" d="M160.2075,-171.3055C173.1867,-168.9276 186.6009,-166.4701 199.5017,-164.1066"/>
<polygon fill="#000000" stroke="#000000" points="209.7197,-162.2346 200.6944,-168.463 204.8016,-163.1356 199.8834,-164.0367 199.8834,-164.0367 199.8834,-164.0367 204.8016,-163.1356 199.0724,-159.6104 209.7197,-162.2346 209.7197,-162.2346"/>
</g>
<!-- A2 -->
<g id="node3" class="node">
<title>A2</title>
<polygon fill="none" stroke="#000000" points="1204.0463,-222 1090.9147,-222 1090.9147,-186 1204.0463,-186 1204.0463,-222"/>
<text text-anchor="middle" x="1147.4805" y="-207" font-family="Helvetica,sans-Serif" font-size="10.00" fill="#000000">&lt;&lt;interface&gt;&gt;</text>
<text text-anchor="middle" x="1147.4805" y="-195" font-family="Helvetica,sans-Serif" font-size="10.00" fill="#000000">RegistroEstadistica</text>
</g>
<!-- A3 -->
<g id="node4" class="node">
<title>A3</title>
<polygon fill="none" stroke="#000000" points="1254.763,-204 1254.763,-236 1445.763,-236 1445.763,-204 1254.763,-204"/>
<text text-anchor="start" x="1298.0375" y="-217" font-family="Helvetica,sans-Serif" font-size="10.00" fill="#000000">RegistroEstadisticaImpl</text>
<polygon fill="none" stroke="#000000" points="1254.763,-172 1254.763,-204 1445.763,-204 1445.763,-172 1254.763,-172"/>
<text text-anchor="start" x="1264.416" y="-185" font-family="Helvetica,sans-Serif" font-size="10.00" fill="#000000">estadisticas:ValorEstadistica［*］</text>
</g>
<!-- A2&#45;&gt;A3 -->
<g id="edge18" class="edge">
<title>A2&#45;&gt;A3</title>
<path fill="none" stroke="#000000" d="M1214.1491,-204C1226.9299,-204 1240.5449,-204 1254.0312,-204"/>
<polygon fill="none" stroke="#000000" points="1214.0965,-200.5001 1204.0964,-204 1214.0964,-207.5001 1214.0965,-200.5001"/>
</g>
<!-- A2&#45;&gt;A4 -->
<g id="edge17" class="edge">
<title>A2&#45;&gt;A4</title>
<path fill="none" stroke="#000000" d="M1125.6453,-229.6148C1105.7049,-251.3514 1074.2889,-281.6872 1040.698,-299 969.7795,-335.5514 944.9786,-330.0547 865.698,-339 716.1038,-355.8788 672.2877,-333.374 532.698,-277 508.341,-267.1633 482.6818,-251.9494 464.2023,-240.0141"/>
<polygon fill="none" stroke="#000000" points="1128.3752,-231.8134 1132.4554,-222.0358 1123.1683,-227.1349 1128.3752,-231.8134"/>
</g>
<!-- A2JA9 -->
<!-- A2&#45;&gt;A2JA9 -->
<g id="edge10" class="edge">
<title>A2&#45;&gt;A2JA9</title>
<path fill="none" stroke="#000000" d="M1154.9898,-185.8849C1169.1543,-154.2926 1203.0676,-89.7494 1254.263,-61 1289.1121,-41.4301 1342.5547,-50.6436 1349.0989,-51.8717"/>
<text text-anchor="middle" x="1154.9754" y="-162.8849" font-family="Helvetica,sans-Serif" font-size="10.00" fill="#000000">*</text>
</g>
<!-- A5 -->
<g id="node6" class="node">
<title>A5</title>
<polygon fill="none" stroke="#000000" points="593.198,-236 593.198,-268 674.198,-268 674.198,-236 593.198,-236"/>
<text text-anchor="start" x="618.136" y="-249" font-family="Helvetica,sans-Serif" font-size="10.00" fill="#000000">Equipo</text>
<polygon fill="none" stroke="#000000" points="593.198,-204 593.198,-236 674.198,-236 674.198,-204 593.198,-204"/>
<text text-anchor="start" x="602.8585" y="-217" font-family="Helvetica,sans-Serif" font-size="10.00" fill="#000000">nombre:Texto</text>
</g>
<!-- A4&#45;&gt;A5 -->
<g id="edge9" class="edge">
<title>A4&#45;&gt;A5</title>
<path fill="none" stroke="#000000" d="M492.6777,-225.9294C524.3969,-228.2026 563.6345,-231.0146 592.5788,-233.089"/>
<polygon fill="none" stroke="#000000" points="492.8906,-222.4358 482.666,-225.2119 492.3902,-229.4179 492.8906,-222.4358"/>
</g>
<!-- A7 -->
<g id="node8" class="node">
<title>A7</title>
<polygon fill="none" stroke="#000000" points="916.198,-195 916.198,-227 1041.198,-227 1041.198,-195 916.198,-195"/>
<text text-anchor="start" x="960.636" y="-208" font-family="Helvetica,sans-Serif" font-size="10.00" fill="#000000">Jugador</text>
<polygon fill="none" stroke="#000000" points="916.198,-163 916.198,-195 1041.198,-195 1041.198,-163 916.198,-163"/>
<text text-anchor="start" x="926.187" y="-176" font-family="Helvetica,sans-Serif" font-size="10.00" fill="#000000">fechaNacimiento:Fecha</text>
</g>
<!-- A4&#45;&gt;A7 -->
<g id="edge8" class="edge">
<title>A4&#45;&gt;A7</title>
<path fill="none" stroke="#000000" d="M492.4287,-203.7587C505.4768,-200.1545 519.4634,-196.9008 532.698,-195 668.0146,-175.5654 828.8448,-182.9673 915.4534,-189.4125"/>
<polygon fill="none" stroke="#000000" points="491.3053,-200.4398 482.6617,-206.5667 493.2395,-207.1673 491.3053,-200.4398"/>
</g>
<!-- A5&#45;&gt;A2 -->
<g id="edge20" class="edge">
<title>A5&#45;&gt;A2</title>
<path fill="none" stroke="#000000" d="M673.7505,-266.9598C702.6682,-287.0077 743.4148,-311.3022 783.698,-322 818.9215,-331.3541 829.9677,-329.1792 865.698,-322 956.1413,-303.8274 1053.7654,-255.8754 1107.0599,-227.0001"/>
<polygon fill="#000000" stroke="#000000" points="1115.8543,-222.1897 1109.2405,-230.9366 1111.4676,-224.5891 1107.0809,-226.9886 1107.0809,-226.9886 1107.0809,-226.9886 1111.4676,-224.5891 1104.9214,-223.0406 1115.8543,-222.1897 1115.8543,-222.1897"/>
</g>
<!-- A6 -->
<g id="node7" class="node">
<title>A6</title>
<polygon fill="none" stroke="#000000" points="783.698,-281 783.698,-313 865.698,-313 865.698,-281 783.698,-281"/>
<text text-anchor="start" x="806.081" y="-294" font-family="Helvetica,sans-Serif" font-size="10.00" fill="#000000">Persona</text>
<polygon fill="none" stroke="#000000" points="783.698,-213 783.698,-281 865.698,-281 865.698,-213 783.698,-213"/>
<text text-anchor="start" x="793.8585" y="-262" font-family="Helvetica,sans-Serif" font-size="10.00" fill="#000000">nombre:Texto</text>
<text text-anchor="start" x="793.5795" y="-250" font-family="Helvetica,sans-Serif" font-size="10.00" fill="#000000">apellido:Texto</text>
<text text-anchor="start" x="798.863" y="-238" font-family="Helvetica,sans-Serif" font-size="10.00" fill="#000000">email:Texto</text>
<text text-anchor="start" x="796.0835" y="-226" font-family="Helvetica,sans-Serif" font-size="10.00" fill="#000000">celular:Texto</text>
</g>
<!-- A5&#45;&gt;A6 -->
<g id="edge5" class="edge">
<title>A5&#45;&gt;A6</title>
<path fill="none" stroke="#000000" d="M686.0496,-243.4517C713.3113,-247.2953 746.4216,-251.9636 773.4485,-255.7742"/>
<polygon fill="none" stroke="#000000" points="685.6927,-243.4014 679.193,-246.5245 673.8102,-241.726 680.3099,-238.6029 685.6927,-243.4014"/>
<polygon fill="#000000" stroke="#000000" points="783.4841,-257.1892 772.9538,-260.2489 778.5331,-256.4911 773.5821,-255.793 773.5821,-255.793 773.5821,-255.793 778.5331,-256.4911 774.2104,-251.337 783.4841,-257.1892 783.4841,-257.1892"/>
<text text-anchor="middle" x="764.3554" y="-260.0281" font-family="Helvetica,sans-Serif" font-size="10.00" fill="#000000">representante1</text>
<text text-anchor="middle" x="692.9389" y="-232.887" font-family="Helvetica,sans-Serif" font-size="10.00" fill="#000000">1</text>
</g>
<!-- A5&#45;&gt;A7 -->
<g id="edge7" class="edge">
<title>A5&#45;&gt;A7</title>
<path fill="none" stroke="#000000" d="M685.5966,-222.6602C714.3615,-215.8947 750.7786,-208.2326 783.698,-204 823.6913,-198.8579 868.6434,-196.5538 905.2499,-195.5593"/>
<polygon fill="none" stroke="#000000" points="685.4398,-222.6977 680.5363,-227.985 673.7697,-225.4922 678.6733,-220.2049 685.4398,-222.6977"/>
<polygon fill="#000000" stroke="#000000" points="915.3425,-195.3122 905.4556,-200.0557 910.344,-195.4346 905.3455,-195.557 905.3455,-195.557 905.3455,-195.557 910.344,-195.4346 905.2353,-191.0584 915.3425,-195.3122 915.3425,-195.3122"/>
<text text-anchor="middle" x="897.4286" y="-201.2056" font-family="Helvetica,sans-Serif" font-size="10.00" fill="#000000">jugador*</text>
<text text-anchor="middle" x="689.4292" y="-210.0511" font-family="Helvetica,sans-Serif" font-size="10.00" fill="#000000">1</text>
</g>
<!-- A6&#45;&gt;A7 -->
<g id="edge6" class="edge">
<title>A6&#45;&gt;A7</title>
<path fill="none" stroke="#000000" d="M875.0349,-240.7009C887.9835,-234.9647 902.0745,-228.7225 915.563,-222.7471"/>
<polygon fill="none" stroke="#000000" points="873.5586,-237.5268 865.8332,-244.7772 876.3938,-243.9269 873.5586,-237.5268"/>
</g>
<!-- A7&#45;&gt;A2 -->
<g id="edge19" class="edge">
<title>A7&#45;&gt;A2</title>
<path fill="none" stroke="#000000" d="M1040.7516,-198.3257C1053.6828,-199.0132 1067.3535,-199.74 1080.4373,-200.4356"/>
<polygon fill="#000000" stroke="#000000" points="1090.779,-200.9854 1080.5542,-204.9481 1085.7861,-200.7199 1080.7931,-200.4544 1080.7931,-200.4544 1080.7931,-200.4544 1085.7861,-200.7199 1081.0321,-195.9608 1090.779,-200.9854 1090.779,-200.9854"/>
</g>
<!-- A9 -->
<g id="node10" class="node">
<title>A9</title>
<polygon fill="none" stroke="#000000" points="1495.763,-52 1495.763,-84 1576.763,-84 1576.763,-52 1495.763,-52"/>
<text text-anchor="start" x="1512.092" y="-65" font-family="Helvetica,sans-Serif" font-size="10.00" fill="#000000">Estadistica</text>
<polygon fill="none" stroke="#000000" points="1495.763,-20 1495.763,-52 1576.763,-52 1576.763,-20 1495.763,-20"/>
<text text-anchor="start" x="1505.4235" y="-33" font-family="Helvetica,sans-Serif" font-size="10.00" fill="#000000">nombre:Texto</text>
</g>
<!-- A13 -->
<g id="node14" class="node">
<title>A13</title>
<polygon fill="none" stroke="#000000" points="1626.763,-58 1626.763,-102 1713.763,-102 1713.763,-58 1626.763,-58"/>
<text text-anchor="start" x="1645.527" y="-83" font-family="Helvetica,sans-Serif" font-size="10.00" fill="#000000">&lt;&lt;Enum&gt;&gt;</text>
<text text-anchor="start" x="1636.369" y="-71" font-family="Helvetica,sans-Serif" font-size="10.00" fill="#000000">TipoEstadistica</text>
<polygon fill="none" stroke="#000000" points="1626.763,-2 1626.763,-58 1713.763,-58 1713.763,-2 1626.763,-2"/>
<text text-anchor="start" x="1647.202" y="-39" font-family="Helvetica,sans-Serif" font-size="10.00" fill="#000000">POSITIVA</text>
<text text-anchor="start" x="1644.982" y="-27" font-family="Helvetica,sans-Serif" font-size="10.00" fill="#000000">NEGATIVA</text>
<text text-anchor="start" x="1649.711" y="-15" font-family="Helvetica,sans-Serif" font-size="10.00" fill="#000000">NEUTRA</text>
</g>
<!-- A9&#45;&gt;A13 -->
<g id="edge13" class="edge">
<title>A9&#45;&gt;A13</title>
<path fill="none" stroke="#000000" d="M1576.3311,-52C1588.7306,-52 1602.5685,-52 1615.7148,-52"/>
<polygon fill="#000000" stroke="#000000" points="1626.0689,-52 1616.069,-56.5001 1621.0689,-52 1616.0689,-52.0001 1616.0689,-52.0001 1616.0689,-52.0001 1621.0689,-52 1616.0689,-47.5001 1626.0689,-52 1626.0689,-52"/>
<text text-anchor="middle" x="1607.9428" y="-57.4524" font-family="Helvetica,sans-Serif" font-size="10.00" fill="#000000">tipo1</text>
<text text-anchor="middle" x="1594.4572" y="-40.5476" font-family="Helvetica,sans-Serif" font-size="10.00" fill="#000000">*</text>
</g>
<!-- A10 -->
<g id="node11" class="node">
<title>A10</title>
<polygon fill="none" stroke="#000000" points="1290.763,-114 1290.763,-146 1408.763,-146 1408.763,-114 1290.763,-114"/>
<text text-anchor="start" x="1313.9245" y="-127" font-family="Helvetica,sans-Serif" font-size="10.00" fill="#000000">ValorEstadistica</text>
<polygon fill="none" stroke="#000000" points="1290.763,-70 1290.763,-114 1408.763,-114 1408.763,-70 1290.763,-70"/>
<text text-anchor="start" x="1327.2625" y="-95" font-family="Helvetica,sans-Serif" font-size="10.00" fill="#000000">valor:Real</text>
<text text-anchor="start" x="1300.5865" y="-83" font-family="Helvetica,sans-Serif" font-size="10.00" fill="#000000">estadistica:Estadistica</text>
</g>
<!-- A10&#45;&gt;A2JA9 -->
<g id="edge12" class="edge">
<title>A10&#45;&gt;A2JA9</title>
<path fill="none" stroke="#000000" stroke-dasharray="5,2" d="M1349.763,-69.8008C1349.763,-67.3591 1349.763,-64.9174 1349.763,-62.4756"/>
<polygon fill="#000000" stroke="#000000" points="1349.763,-52.4375 1354.2631,-62.4375 1349.763,-57.4375 1349.7631,-62.4375 1349.7631,-62.4375 1349.7631,-62.4375 1349.763,-57.4375 1345.2631,-62.4375 1349.763,-52.4375 1349.763,-52.4375"/>
</g>
<!-- A11&#45;&gt;A4 -->
<g id="edge16" class="edge">
<title>A11&#45;&gt;A4</title>
<path fill="none" stroke="#000000" d="M354.3645,-184.7461C365.8587,-189.8752 377.4291,-195.0384 388.1408,-199.8183"/>
<polygon fill="none" stroke="#000000" points="354.0168,-184.591 346.9075,-185.7987 343.0584,-179.7008 350.1676,-178.4931 354.0168,-184.591"/>
<polygon fill="#000000" stroke="#000000" points="397.3096,-203.9098 386.3437,-203.9441 392.7436,-201.8722 388.1775,-199.8347 388.1775,-199.8347 388.1775,-199.8347 392.7436,-201.8722 390.0113,-195.7253 397.3096,-203.9098 397.3096,-203.9098"/>
<text text-anchor="middle" x="377.3123" y="-201.242" font-family="Helvetica,sans-Serif" font-size="10.00" fill="#000000">2</text>
<text text-anchor="middle" x="363.0556" y="-176.3686" font-family="Helvetica,sans-Serif" font-size="10.00" fill="#000000">*</text>
</g>
<!-- A12 -->
<g id="node13" class="node">
<title>A12</title>
<polygon fill="none" stroke="#000000" points="533.198,-87 533.198,-119 734.198,-119 734.198,-87 533.198,-87"/>
<text text-anchor="start" x="597.305" y="-100" font-family="Helvetica,sans-Serif" font-size="10.00" fill="#000000">RegistroReporte</text>
<polygon fill="none" stroke="#000000" points="533.198,-43 533.198,-87 734.198,-87 734.198,-43 533.198,-43"/>
<text text-anchor="start" x="543.125" y="-68" font-family="Helvetica,sans-Serif" font-size="10.00" fill="#000000">estadisticaParticipanteA:ValorEstadistica</text>
<text text-anchor="start" x="543.125" y="-56" font-family="Helvetica,sans-Serif" font-size="10.00" fill="#000000">estadisticaParticipanteB:ValorEstadistica</text>
</g>
<!-- A11&#45;&gt;A12 -->
<g id="edge14" class="edge">
<title>A11&#45;&gt;A12</title>
<path fill="none" stroke="#000000" d="M355.0486,-134.8055C404.1764,-125.3022 468.2037,-112.9167 522.4423,-102.4247"/>
<polygon fill="none" stroke="#000000" points="354.9553,-134.8234 349.8242,-139.8902 343.1737,-137.1026 348.3048,-132.0358 354.9553,-134.8234"/>
<polygon fill="#000000" stroke="#000000" points="532.4501,-100.4888 523.4868,-106.8061 527.5411,-101.4384 522.6321,-102.388 522.6321,-102.388 522.6321,-102.388 527.5411,-101.4384 521.7774,-97.97 532.4501,-100.4888 532.4501,-100.4888"/>
<text text-anchor="middle" x="516.2591" y="-109.2298" font-family="Helvetica,sans-Serif" font-size="10.00" fill="#000000">registros*</text>
<text text-anchor="middle" x="359.3647" y="-122.3615" font-family="Helvetica,sans-Serif" font-size="10.00" fill="#000000">1</text>
</g>
<!-- A12&#45;&gt;A10 -->
<g id="edge15" class="edge">
<title>A12&#45;&gt;A10</title>
<path fill="none" stroke="#000000" d="M746.2315,-85.2591C896.2099,-90.9102 1156.4297,-100.7152 1280.3285,-105.3837"/>
<polygon fill="none" stroke="#000000" points="745.9574,-85.2488 739.811,-89.02 733.9659,-84.7969 740.1123,-81.0257 745.9574,-85.2488"/>
<polygon fill="#000000" stroke="#000000" points="1290.4491,-105.7651 1280.2867,-109.8852 1285.4526,-105.5768 1280.4562,-105.3884 1280.4562,-105.3884 1280.4562,-105.3884 1285.4526,-105.5768 1280.6257,-100.8916 1290.4491,-105.7651 1290.4491,-105.7651"/>
<text text-anchor="middle" x="1272.0175" y="-110.5289" font-family="Helvetica,sans-Serif" font-size="10.00" fill="#000000">2</text>
<text text-anchor="middle" x="752.3974" y="-74.033" font-family="Helvetica,sans-Serif" font-size="10.00" fill="#000000">*</text>
</g>
<!-- A2JA9&#45;&gt;A9 -->
<g id="edge11" class="edge">
<title>A2JA9&#45;&gt;A9</title>
<path fill="none" stroke="#000000" d="M1350.2966,-52C1357.3283,-52 1432.3422,-52 1484.784,-52"/>
<polygon fill="#000000" stroke="#000000" points="1494.9445,-52 1484.9446,-56.5001 1489.9445,-52 1484.9445,-52.0001 1484.9445,-52.0001 1484.9445,-52.0001 1489.9445,-52 1484.9445,-47.5001 1494.9445,-52 1494.9445,-52"/>
<text text-anchor="middle" x="1476.8184" y="-57.4524" font-family="Helvetica,sans-Serif" font-size="10.00" fill="#000000">*</text>
</g>
</g>
</svg>
