<?xml version="1.0" encoding="UTF-8" standalone="no"?>
<!DOCTYPE svg PUBLIC "-//W3C//DTD SVG 1.1//EN"
 "http://www.w3.org/Graphics/SVG/1.1/DTD/svg11.dtd">
<!-- Generated by graphviz version 2.40.1 (20161225.0304)
 -->
<!-- Title: G Pages: 1 -->
<svg width="2526pt" height="587pt"
 viewBox="0.00 0.00 2526.00 587.00" xmlns="http://www.w3.org/2000/svg" xmlns:xlink="http://www.w3.org/1999/xlink">
<g id="graph0" class="graph" transform="scale(1 1) rotate(0) translate(4 583)">
<title>G</title>
<polygon fill="#ffffff" stroke="transparent" points="-4,4 -4,-583 2522,-583 2522,4 -4,4"/>
<!-- A0 -->
<g id="node1" class="node">
<title>A0</title>
<polygon fill="none" stroke="#000000" points=".5,-547 .5,-579 341.5,-579 341.5,-547 .5,-547"/>
<text text-anchor="start" x="155.163" y="-560" font-family="Helvetica,sans-Serif" font-size="10.00" fill="#000000">Torneo</text>
<polygon fill="none" stroke="#000000" points=".5,-443 .5,-547 341.5,-547 341.5,-443 .5,-443"/>
<text text-anchor="start" x="140.1605" y="-528" font-family="Helvetica,sans-Serif" font-size="10.00" fill="#000000">nombre:Texto</text>
<text text-anchor="start" x="131.822" y="-516" font-family="Helvetica,sans-Serif" font-size="10.00" fill="#000000">fechaInicio:Fecha</text>
<text text-anchor="start" x="102.6515" y="-504" font-family="Helvetica,sans-Serif" font-size="10.00" fill="#000000">fechaInicioInscripciones:Fecha</text>
<text text-anchor="start" x="100.712" y="-492" font-family="Helvetica,sans-Serif" font-size="10.00" fill="#000000">fechaCierreInscripciones:Fecha</text>
<text text-anchor="start" x="109.042" y="-480" font-family="Helvetica,sans-Serif" font-size="10.00" fill="#000000">numeroParticipantes:Entero</text>
<text text-anchor="start" x="131.5485" y="-468" font-family="Helvetica,sans-Serif" font-size="10.00" fill="#000000">limiteEdad:Entero</text>
<text text-anchor="start" x="120.1595" y="-456" font-family="Helvetica,sans-Serif" font-size="10.00" fill="#000000">valorInscripcion:Entero</text>
<polygon fill="none" stroke="#000000" points=".5,-87 .5,-443 341.5,-443 341.5,-87 .5,-87"/>
<text text-anchor="start" x="109.741" y="-424" font-family="Helvetica,sans-Serif" font-size="10.00" fill="#000000">+Constructor(nombre:Texto</text>
<text text-anchor="start" x="131.822" y="-412" font-family="Helvetica,sans-Serif" font-size="10.00" fill="#000000">fechaInicio:Fecha</text>
<text text-anchor="start" x="102.6515" y="-400" font-family="Helvetica,sans-Serif" font-size="10.00" fill="#000000">fechaInicioInscripciones:Fecha</text>
<text text-anchor="start" x="100.712" y="-388" font-family="Helvetica,sans-Serif" font-size="10.00" fill="#000000">fechaCierreInscripciones:Fecha</text>
<text text-anchor="start" x="109.042" y="-376" font-family="Helvetica,sans-Serif" font-size="10.00" fill="#000000">numeroParticipantes:Entero</text>
<text text-anchor="start" x="131.5485" y="-364" font-family="Helvetica,sans-Serif" font-size="10.00" fill="#000000">limiteEdad:Entero</text>
<text text-anchor="start" x="120.1595" y="-352" font-family="Helvetica,sans-Serif" font-size="10.00" fill="#000000">valorInscripcion:Entero</text>
<text text-anchor="start" x="120.1555" y="-340" font-family="Helvetica,sans-Serif" font-size="10.00" fill="#000000">tipoTorneo:TipoTorneo</text>
<text text-anchor="start" x="10.288" y="-328" font-family="Helvetica,sans-Serif" font-size="10.00" fill="#000000">caracter:CaracterTorneo)+registrarParticipante(participante:Participante)</text>
<text text-anchor="start" x="126.1335" y="-316" font-family="Helvetica,sans-Serif" font-size="10.00" fill="#000000">+getNombre():Texto</text>
<text text-anchor="start" x="116.96" y="-304" font-family="Helvetica,sans-Serif" font-size="10.00" fill="#000000">+getFechaInicio():Fecha</text>
<text text-anchor="start" x="87.7895" y="-292" font-family="Helvetica,sans-Serif" font-size="10.00" fill="#000000">+getFechaInicioInscripciones():Fecha</text>
<text text-anchor="start" x="85.85" y="-280" font-family="Helvetica,sans-Serif" font-size="10.00" fill="#000000">+getFechaCierreInscripciones():Fecha</text>
<text text-anchor="start" x="95.015" y="-268" font-family="Helvetica,sans-Serif" font-size="10.00" fill="#000000">+getNumeroParticipantes():Entero</text>
<text text-anchor="start" x="116.6815" y="-256" font-family="Helvetica,sans-Serif" font-size="10.00" fill="#000000">+getLimiteEdad():Entero</text>
<text text-anchor="start" x="106.128" y="-244" font-family="Helvetica,sans-Serif" font-size="10.00" fill="#000000">+getValorInscripcion():Entero</text>
<text text-anchor="start" x="105.2935" y="-232" font-family="Helvetica,sans-Serif" font-size="10.00" fill="#000000">+getTipoTorneo():TipoTorneo</text>
<text text-anchor="start" x="78.6215" y="-220" font-family="Helvetica,sans-Serif" font-size="10.00" fill="#000000">+getParticipantes():Participante［*］</text>
<text text-anchor="start" x="102.2435" y="-208" font-family="Helvetica,sans-Serif" font-size="10.00" fill="#000000">+getCaracter():CaracterTorneo</text>
<text text-anchor="start" x="93.344" y="-196" font-family="Helvetica,sans-Serif" font-size="10.00" fill="#000000">+setFechaInicio(fechaInicio:Fecha)</text>
<text text-anchor="start" x="35.003" y="-184" font-family="Helvetica,sans-Serif" font-size="10.00" fill="#000000">+setFechaInicioInscripciones(fechaInicioInscripciones:Fecha)</text>
<text text-anchor="start" x="31.124" y="-172" font-family="Helvetica,sans-Serif" font-size="10.00" fill="#000000">+setFechaCierreInscripciones(fechaCierreInscripciones:Fecha)</text>
<text text-anchor="start" x="67.65" y="-160" font-family="Helvetica,sans-Serif" font-size="10.00" fill="#000000">buscarParticipante(nombre:Texto):Participante</text>
<text text-anchor="start" x="58.8875" y="-148" font-family="Helvetica,sans-Serif" font-size="10.00" fill="#000000">+registrarJugador(equipo:Equipo,jugador:Jugador)</text>
<text text-anchor="start" x="44.4445" y="-136" font-family="Helvetica,sans-Serif" font-size="10.00" fill="#000000">+registrarJugador(nombreEquipo:Texto,jugador:Jugador)</text>
<text text-anchor="start" x="43.896" y="-124" font-family="Helvetica,sans-Serif" font-size="10.00" fill="#000000">+registrarEstadisticaParticipante(participante:Participante</text>
<text text-anchor="start" x="108.4915" y="-112" font-family="Helvetica,sans-Serif" font-size="10.00" fill="#000000">estadistica:ValorEstadistica)</text>
<text text-anchor="start" x="83.0685" y="-100" font-family="Helvetica,sans-Serif" font-size="10.00" fill="#000000">+getEstadisticas():Estadistica［*］</text>
</g>
<!-- A1 -->
<g id="node2" class="node">
<title>A1</title>
<polygon fill="none" stroke="#000000" points="422.5,-516 422.5,-560 493.5,-560 493.5,-516 422.5,-516"/>
<text text-anchor="start" x="433.264" y="-541" font-family="Helvetica,sans-Serif" font-size="10.00" fill="#000000">&lt;&lt;Enum&gt;&gt;</text>
<text text-anchor="start" x="432.44" y="-529" font-family="Helvetica,sans-Serif" font-size="10.00" fill="#000000">TipoTorneo</text>
<polygon fill="none" stroke="#000000" points="422.5,-448 422.5,-516 493.5,-516 493.5,-448 422.5,-448"/>
<text text-anchor="start" x="441.6075" y="-497" font-family="Helvetica,sans-Serif" font-size="10.00" fill="#000000">LOCAL</text>
<text text-anchor="start" x="432.164" y="-485" font-family="Helvetica,sans-Serif" font-size="10.00" fill="#000000">REGIONAL</text>
<text text-anchor="start" x="432.444" y="-473" font-family="Helvetica,sans-Serif" font-size="10.00" fill="#000000">NACIONAL</text>
<text text-anchor="start" x="435.5035" y="-461" font-family="Helvetica,sans-Serif" font-size="10.00" fill="#000000">MUNDIAL</text>
</g>
<!-- A0&#45;&gt;A1 -->
<g id="edge3" class="edge">
<title>A0&#45;&gt;A1</title>
<path fill="none" stroke="#000000" d="M341.1799,-434.6943C367.8136,-450.5631 393.1507,-465.6595 413.338,-477.6875"/>
<polygon fill="#000000" stroke="#000000" points="421.9493,-482.8182 411.0552,-481.5655 417.654,-480.259 413.3586,-477.6997 413.3586,-477.6997 413.3586,-477.6997 417.654,-480.259 415.6619,-473.8338 421.9493,-482.8182 421.9493,-482.8182"/>
<text text-anchor="middle" x="402.0513" y="-477.8015" font-family="Helvetica,sans-Serif" font-size="10.00" fill="#000000">tipoTorneo1</text>
<text text-anchor="middle" x="361.0779" y="-433.711" font-family="Helvetica,sans-Serif" font-size="10.00" fill="#000000">*</text>
</g>
<!-- A4 -->
<g id="node5" class="node">
<title>A4</title>
<polygon fill="none" stroke="#000000" points="574,-282 574,-326 794,-326 794,-282 574,-282"/>
<text text-anchor="start" x="653.151" y="-307" font-family="Helvetica,sans-Serif" font-size="10.00" fill="#000000">&lt;&lt;interface&gt;&gt;</text>
<text text-anchor="start" x="657.6055" y="-295" font-family="Helvetica,sans-Serif" font-size="10.00" fill="#000000">Participante</text>
<polygon fill="none" stroke="#000000" points="574,-238 574,-282 794,-282 794,-238 574,-238"/>
<text text-anchor="start" x="617.7425" y="-263" font-family="Helvetica,sans-Serif" font-size="10.00" fill="#000000">+getNombreCompleto():Texto</text>
<text text-anchor="start" x="583.8485" y="-251" font-family="Helvetica,sans-Serif" font-size="10.00" fill="#000000">+getRegistroEstadistica():RegistroEstadistica</text>
</g>
<!-- A0&#45;&gt;A4 -->
<g id="edge4" class="edge">
<title>A0&#45;&gt;A4</title>
<path fill="none" stroke="#000000" d="M352.7987,-237.9081C365.5133,-233.6058 378.3172,-229.8902 391,-227 448.6336,-213.8664 465.697,-217.2589 524,-227 537.1719,-229.2007 550.7117,-232.3545 564.0733,-236.0534"/>
<polygon fill="none" stroke="#000000" points="352.4694,-238.0242 348.1423,-243.7928 341.1532,-242.0172 345.4803,-236.2486 352.4694,-238.0242"/>
<polygon fill="#000000" stroke="#000000" points="573.7633,-238.8373 562.9095,-240.401 568.9577,-237.4566 564.1521,-236.076 564.1521,-236.076 564.1521,-236.076 568.9577,-237.4566 565.3947,-231.7509 573.7633,-238.8373 573.7633,-238.8373"/>
<text text-anchor="middle" x="554.008" y="-238.956" font-family="Helvetica,sans-Serif" font-size="10.00" fill="#000000">participantes*</text>
<text text-anchor="middle" x="355.434" y="-225.0151" font-family="Helvetica,sans-Serif" font-size="10.00" fill="#000000">1</text>
</g>
<!-- A8 -->
<g id="node9" class="node">
<title>A8</title>
<polygon fill="none" stroke="#000000" points="412.5,-280 412.5,-324 502.5,-324 502.5,-280 412.5,-280"/>
<text text-anchor="start" x="432.764" y="-305" font-family="Helvetica,sans-Serif" font-size="10.00" fill="#000000">&lt;&lt;Enum&gt;&gt;</text>
<text text-anchor="start" x="422.4965" y="-293" font-family="Helvetica,sans-Serif" font-size="10.00" fill="#000000">CaracterTorneo</text>
<polygon fill="none" stroke="#000000" points="412.5,-236 412.5,-280 502.5,-280 502.5,-236 412.5,-236"/>
<text text-anchor="start" x="429.445" y="-261" font-family="Helvetica,sans-Serif" font-size="10.00" fill="#000000">INDIVIDUAL</text>
<text text-anchor="start" x="436.943" y="-249" font-family="Helvetica,sans-Serif" font-size="10.00" fill="#000000">GRUPAL</text>
</g>
<!-- A0&#45;&gt;A8 -->
<g id="edge2" class="edge">
<title>A0&#45;&gt;A8</title>
<path fill="none" stroke="#000000" d="M341.1799,-301.4807C363.2186,-297.4108 384.3697,-293.5049 402.4497,-290.1661"/>
<polygon fill="#000000" stroke="#000000" points="412.443,-288.3206 403.4265,-294.5619 407.5261,-289.2287 402.6093,-290.1367 402.6093,-290.1367 402.6093,-290.1367 407.5261,-289.2287 401.792,-285.7115 412.443,-288.3206 412.443,-288.3206"/>
<text text-anchor="middle" x="396.1532" y="-296.9241" font-family="Helvetica,sans-Serif" font-size="10.00" fill="#000000">caracter1</text>
<text text-anchor="middle" x="357.4697" y="-286.8772" font-family="Helvetica,sans-Serif" font-size="10.00" fill="#000000">*</text>
</g>
<!-- A11 -->
<g id="node12" class="node">
<title>A11</title>
<polygon fill="none" stroke="#000000" points="391.5,-398 391.5,-430 524.5,-430 524.5,-398 391.5,-398"/>
<text text-anchor="start" x="440.2185" y="-411" font-family="Helvetica,sans-Serif" font-size="10.00" fill="#000000">Reporte</text>
<polygon fill="none" stroke="#000000" points="391.5,-342 391.5,-398 524.5,-398 524.5,-342 391.5,-342"/>
<text text-anchor="start" x="430.4895" y="-379" font-family="Helvetica,sans-Serif" font-size="10.00" fill="#000000">fecha:Fecha</text>
<text text-anchor="start" x="401.042" y="-367" font-family="Helvetica,sans-Serif" font-size="10.00" fill="#000000">participanteA:Participante</text>
<text text-anchor="start" x="401.042" y="-355" font-family="Helvetica,sans-Serif" font-size="10.00" fill="#000000">participanteB:Participante</text>
</g>
<!-- A0&#45;&gt;A11 -->
<g id="edge1" class="edge">
<title>A0&#45;&gt;A11</title>
<path fill="none" stroke="#000000" stroke-dasharray="5,2" d="M341.1799,-364.5193C354.9523,-367.0626 368.3781,-369.542 380.9244,-371.8589"/>
<polygon fill="#000000" stroke="#000000" points="390.7875,-373.6803 380.1366,-376.2894 385.8707,-372.7722 380.9538,-371.8642 380.9538,-371.8642 380.9538,-371.8642 385.8707,-372.7722 381.771,-367.439 390.7875,-373.6803 390.7875,-373.6803"/>
</g>
<!-- A2 -->
<g id="node3" class="node">
<title>A2</title>
<polygon fill="none" stroke="#000000" points="1514.5,-216 1514.5,-260 1753.5,-260 1753.5,-216 1514.5,-216"/>
<text text-anchor="start" x="1603.151" y="-241" font-family="Helvetica,sans-Serif" font-size="10.00" fill="#000000">&lt;&lt;interface&gt;&gt;</text>
<text text-anchor="start" x="1591.2175" y="-229" font-family="Helvetica,sans-Serif" font-size="10.00" fill="#000000">RegistroEstadistica</text>
<polygon fill="none" stroke="#000000" points="1514.5,-148 1514.5,-216 1753.5,-216 1753.5,-148 1514.5,-148"/>
<text text-anchor="start" x="1534.401" y="-197" font-family="Helvetica,sans-Serif" font-size="10.00" fill="#000000">+getEstadisticas():ValorEstadistica［*］</text>
<text text-anchor="start" x="1524.4055" y="-185" font-family="Helvetica,sans-Serif" font-size="10.00" fill="#000000">+registrarEstadistica(estadistica:ValorEstadistica)</text>
<text text-anchor="start" x="1554.681" y="-173" font-family="Helvetica,sans-Serif" font-size="10.00" fill="#000000">+comparar(participante:Participante</text>
<text text-anchor="start" x="1567.0425" y="-161" font-family="Helvetica,sans-Serif" font-size="10.00" fill="#000000">estadistica:Estadistica):Entero</text>
</g>
<!-- A3 -->
<g id="node4" class="node">
<title>A3</title>
<polygon fill="none" stroke="#000000" points="1803.5,-250 1803.5,-282 1994.5,-282 1994.5,-250 1803.5,-250"/>
<text text-anchor="start" x="1846.7745" y="-263" font-family="Helvetica,sans-Serif" font-size="10.00" fill="#000000">RegistroEstadisticaImpl</text>
<polygon fill="none" stroke="#000000" points="1803.5,-218 1803.5,-250 1994.5,-250 1994.5,-218 1803.5,-218"/>
<text text-anchor="start" x="1813.153" y="-231" font-family="Helvetica,sans-Serif" font-size="10.00" fill="#000000">estadisticas:ValorEstadistica［*］</text>
<polygon fill="none" stroke="#000000" points="1803.5,-186 1803.5,-218 1994.5,-218 1994.5,-186 1803.5,-186"/>
<text text-anchor="start" x="1866.916" y="-199" font-family="Helvetica,sans-Serif" font-size="10.00" fill="#000000">+Constructor()</text>
</g>
<!-- A2&#45;&gt;A3 -->
<g id="edge18" class="edge">
<title>A2&#45;&gt;A3</title>
<path fill="none" stroke="#000000" d="M1763.3459,-218.6995C1776.6241,-220.2027 1789.9379,-221.71 1802.7536,-223.1608"/>
<polygon fill="none" stroke="#000000" points="1763.538,-215.199 1753.2077,-217.5518 1762.7505,-222.1546 1763.538,-215.199"/>
</g>
<!-- A2&#45;&gt;A4 -->
<g id="edge17" class="edge">
<title>A2&#45;&gt;A4</title>
<path fill="none" stroke="#000000" d="M1504.2348,-258.5455C1490.8064,-262.9379 1477.2315,-266.877 1464,-270 1195.3616,-333.4055 1119.2552,-326.5293 844,-306 827.8938,-304.7988 810.9509,-302.9263 794.3598,-300.7449"/>
<polygon fill="none" stroke="#000000" points="1505.6148,-261.7742 1513.9799,-255.2722 1503.3859,-255.1385 1505.6148,-261.7742"/>
</g>
<!-- A3JA9 -->
<!-- A3&#45;&gt;A3JA9 -->
<g id="edge10" class="edge">
<title>A3&#45;&gt;A3JA9</title>
<path fill="none" stroke="#000000" d="M1994.118,-240.5792C2049.9462,-244.4206 2110.5295,-248.5892 2116.0865,-248.9715"/>
<text text-anchor="middle" x="2012.7816" y="-230.3911" font-family="Helvetica,sans-Serif" font-size="10.00" fill="#000000">*</text>
</g>
<!-- A5 -->
<g id="node6" class="node">
<title>A5</title>
<polygon fill="none" stroke="#000000" points="856.5,-124 856.5,-156 1033.5,-156 1033.5,-124 856.5,-124"/>
<text text-anchor="start" x="929.438" y="-137" font-family="Helvetica,sans-Serif" font-size="10.00" fill="#000000">Equipo</text>
<polygon fill="none" stroke="#000000" points="856.5,-92 856.5,-124 1033.5,-124 1033.5,-92 856.5,-92"/>
<text text-anchor="start" x="914.1605" y="-105" font-family="Helvetica,sans-Serif" font-size="10.00" fill="#000000">nombre:Texto</text>
<polygon fill="none" stroke="#000000" points="856.5,0 856.5,-92 1033.5,-92 1033.5,0 856.5,0"/>
<text text-anchor="start" x="883.741" y="-73" font-family="Helvetica,sans-Serif" font-size="10.00" fill="#000000">+Constructor(nombre:Texto</text>
<text text-anchor="start" x="892.485" y="-61" font-family="Helvetica,sans-Serif" font-size="10.00" fill="#000000">representante:Persona)</text>
<text text-anchor="start" x="900.1335" y="-49" font-family="Helvetica,sans-Serif" font-size="10.00" fill="#000000">+getNombre():Texto</text>
<text text-anchor="start" x="879.0075" y="-37" font-family="Helvetica,sans-Serif" font-size="10.00" fill="#000000">+getRepresentante():Persona</text>
<text text-anchor="start" x="866.507" y="-25" font-family="Helvetica,sans-Serif" font-size="10.00" fill="#000000">+getJugadores():Jugador［*］</text>
<text text-anchor="start" x="866.2355" y="-13" font-family="Helvetica,sans-Serif" font-size="10.00" fill="#000000">+registrarJugador(jugador:Jugador)</text>
</g>
<!-- A4&#45;&gt;A5 -->
<g id="edge9" class="edge">
<title>A4&#45;&gt;A5</title>
<path fill="none" stroke="#000000" d="M748.2833,-231.6592C780.7191,-206.2583 820.5705,-175.0504 855.866,-147.4101"/>
<polygon fill="none" stroke="#000000" points="745.9191,-229.065 740.2039,-237.9862 750.235,-234.5762 745.9191,-229.065"/>
</g>
<!-- A7 -->
<g id="node8" class="node">
<title>A7</title>
<polygon fill="none" stroke="#000000" points="1287.5,-229 1287.5,-261 1464.5,-261 1464.5,-229 1287.5,-229"/>
<text text-anchor="start" x="1357.938" y="-242" font-family="Helvetica,sans-Serif" font-size="10.00" fill="#000000">Jugador</text>
<polygon fill="none" stroke="#000000" points="1287.5,-197 1287.5,-229 1464.5,-229 1464.5,-197 1287.5,-197"/>
<text text-anchor="start" x="1323.489" y="-210" font-family="Helvetica,sans-Serif" font-size="10.00" fill="#000000">fechaNacimiento:Fecha</text>
<polygon fill="none" stroke="#000000" points="1287.5,-93 1287.5,-197 1464.5,-197 1464.5,-93 1287.5,-93"/>
<text text-anchor="start" x="1314.741" y="-178" font-family="Helvetica,sans-Serif" font-size="10.00" fill="#000000">+Constructor(nombre:Texto</text>
<text text-anchor="start" x="1344.8815" y="-166" font-family="Helvetica,sans-Serif" font-size="10.00" fill="#000000">apellido:Texto</text>
<text text-anchor="start" x="1350.165" y="-154" font-family="Helvetica,sans-Serif" font-size="10.00" fill="#000000">email:Texto</text>
<text text-anchor="start" x="1347.3855" y="-142" font-family="Helvetica,sans-Serif" font-size="10.00" fill="#000000">celular:Texto</text>
<text text-anchor="start" x="1321.8245" y="-130" font-family="Helvetica,sans-Serif" font-size="10.00" fill="#000000">fechaNacimiento:Fecha)</text>
<text text-anchor="start" x="1308.627" y="-118" font-family="Helvetica,sans-Serif" font-size="10.00" fill="#000000">+getFechaNacimiento():Fecha</text>
<text text-anchor="start" x="1297.2295" y="-106" font-family="Helvetica,sans-Serif" font-size="10.00" fill="#000000">+calcularEdad(fecha:Fecha):Entero</text>
</g>
<!-- A4&#45;&gt;A7 -->
<g id="edge8" class="edge">
<title>A4&#45;&gt;A7</title>
<path fill="none" stroke="#000000" d="M804.1677,-295.4057C918.1863,-304.0742 1093.0199,-306.7521 1237,-263 1253.9255,-257.8567 1270.8418,-250.0988 1286.7447,-241.3095"/>
<polygon fill="none" stroke="#000000" points="804.2568,-291.902 794.0127,-294.6056 803.7069,-298.8803 804.2568,-291.902"/>
</g>
<!-- A5&#45;&gt;A2 -->
<g id="edge20" class="edge">
<title>A5&#45;&gt;A2</title>
<path fill="none" stroke="#000000" d="M1033.0942,-30.536C1052.9332,-22.0352 1074.2588,-14.4683 1095,-10 1156.6957,3.291 1174.6707,-.0971 1237,-10 1341.7998,-26.6507 1369.1808,-36.36 1464,-84 1495.8153,-99.985 1528.3072,-121.4939 1556.2195,-141.8864"/>
<polygon fill="#000000" stroke="#000000" points="1564.3465,-147.8864 1553.6286,-145.5671 1560.324,-144.9166 1556.3014,-141.9469 1556.3014,-141.9469 1556.3014,-141.9469 1560.324,-144.9166 1558.9742,-138.3266 1564.3465,-147.8864 1564.3465,-147.8864"/>
</g>
<!-- A6 -->
<g id="node7" class="node">
<title>A6</title>
<polygon fill="none" stroke="#000000" points="1095,-222 1095,-254 1237,-254 1237,-222 1095,-222"/>
<text text-anchor="start" x="1147.383" y="-235" font-family="Helvetica,sans-Serif" font-size="10.00" fill="#000000">Persona</text>
<polygon fill="none" stroke="#000000" points="1095,-154 1095,-222 1237,-222 1237,-154 1095,-154"/>
<text text-anchor="start" x="1135.1605" y="-203" font-family="Helvetica,sans-Serif" font-size="10.00" fill="#000000">nombre:Texto</text>
<text text-anchor="start" x="1134.8815" y="-191" font-family="Helvetica,sans-Serif" font-size="10.00" fill="#000000">apellido:Texto</text>
<text text-anchor="start" x="1140.165" y="-179" font-family="Helvetica,sans-Serif" font-size="10.00" fill="#000000">email:Texto</text>
<text text-anchor="start" x="1137.3855" y="-167" font-family="Helvetica,sans-Serif" font-size="10.00" fill="#000000">celular:Texto</text>
<polygon fill="none" stroke="#000000" points="1095,-38 1095,-154 1237,-154 1237,-38 1095,-38"/>
<text text-anchor="start" x="1104.741" y="-135" font-family="Helvetica,sans-Serif" font-size="10.00" fill="#000000">+Constructor(nombre:Texto</text>
<text text-anchor="start" x="1134.8815" y="-123" font-family="Helvetica,sans-Serif" font-size="10.00" fill="#000000">apellido:Texto</text>
<text text-anchor="start" x="1140.165" y="-111" font-family="Helvetica,sans-Serif" font-size="10.00" fill="#000000">email:Texto</text>
<text text-anchor="start" x="1135.721" y="-99" font-family="Helvetica,sans-Serif" font-size="10.00" fill="#000000">celular:Texto)</text>
<text text-anchor="start" x="1121.1335" y="-87" font-family="Helvetica,sans-Serif" font-size="10.00" fill="#000000">+getNombre():Texto</text>
<text text-anchor="start" x="1121.1295" y="-75" font-family="Helvetica,sans-Serif" font-size="10.00" fill="#000000">+getApellido():Texto</text>
<text text-anchor="start" x="1126.413" y="-63" font-family="Helvetica,sans-Serif" font-size="10.00" fill="#000000">+getEmail():Texto</text>
<text text-anchor="start" x="1123.079" y="-51" font-family="Helvetica,sans-Serif" font-size="10.00" fill="#000000">+getCelular():Texto</text>
</g>
<!-- A5&#45;&gt;A6 -->
<g id="edge5" class="edge">
<title>A5&#45;&gt;A6</title>
<path fill="none" stroke="#000000" d="M1044.9157,-108.8274C1058.3488,-112.9513 1071.9865,-117.1381 1085.0289,-121.1421"/>
<polygon fill="none" stroke="#000000" points="1044.7878,-108.7882 1037.8781,-110.8512 1033.3163,-105.2664 1040.226,-103.2034 1044.7878,-108.7882"/>
<polygon fill="#000000" stroke="#000000" points="1094.8733,-124.1643 1083.993,-125.5312 1090.0935,-122.6968 1085.3136,-121.2294 1085.3136,-121.2294 1085.3136,-121.2294 1090.0935,-122.6968 1086.6343,-116.9276 1094.8733,-124.1643 1094.8733,-124.1643"/>
<text text-anchor="middle" x="1075.0647" y="-123.9248" font-family="Helvetica,sans-Serif" font-size="10.00" fill="#000000">representante1</text>
<text text-anchor="middle" x="1053.1248" y="-99.5059" font-family="Helvetica,sans-Serif" font-size="10.00" fill="#000000">1</text>
</g>
<!-- A5&#45;&gt;A7 -->
<g id="edge7" class="edge">
<title>A5&#45;&gt;A7</title>
<path fill="none" stroke="#000000" d="M1044.4908,-34.1267C1102.6443,-15.153 1176.22,-2.6357 1237,-29 1265.2802,-41.267 1290.423,-62.4677 1311.2644,-85.052"/>
<polygon fill="none" stroke="#000000" points="1044.4385,-34.1443 1040.0408,-39.8593 1033.0741,-37.9979 1037.4718,-32.283 1044.4385,-34.1443"/>
<polygon fill="#000000" stroke="#000000" points="1318.1658,-92.7532 1308.1407,-88.3092 1314.8289,-89.0296 1311.492,-85.306 1311.492,-85.306 1311.492,-85.306 1314.8289,-89.0296 1314.8432,-82.3027 1318.1658,-92.7532 1318.1658,-92.7532"/>
<text text-anchor="middle" x="1299.7741" y="-81.8952" font-family="Helvetica,sans-Serif" font-size="10.00" fill="#000000">jugador*</text>
<text text-anchor="middle" x="1047.526" y="-21.1725" font-family="Helvetica,sans-Serif" font-size="10.00" fill="#000000">1</text>
</g>
<!-- A6&#45;&gt;A7 -->
<g id="edge6" class="edge">
<title>A6&#45;&gt;A7</title>
<path fill="none" stroke="#000000" d="M1247.4161,-158.0472C1260.2824,-159.9511 1273.6436,-161.9282 1286.6686,-163.8555"/>
<polygon fill="none" stroke="#000000" points="1247.6241,-154.54 1237.2195,-156.5384 1246.5994,-161.4646 1247.6241,-154.54"/>
</g>
<!-- A7&#45;&gt;A2 -->
<g id="edge19" class="edge">
<title>A7&#45;&gt;A2</title>
<path fill="none" stroke="#000000" d="M1464.289,-186.2919C1476.9498,-187.6168 1490.1848,-189.0019 1503.4347,-190.3885"/>
<polygon fill="#000000" stroke="#000000" points="1513.5607,-191.4482 1503.1466,-194.8829 1508.5879,-190.9278 1503.615,-190.4073 1503.615,-190.4073 1503.615,-190.4073 1508.5879,-190.9278 1504.0834,-185.9317 1513.5607,-191.4482 1513.5607,-191.4482"/>
</g>
<!-- A9 -->
<g id="node10" class="node">
<title>A9</title>
<polygon fill="none" stroke="#000000" points="2239,-283 2239,-315 2381,-315 2381,-283 2239,-283"/>
<text text-anchor="start" x="2285.829" y="-296" font-family="Helvetica,sans-Serif" font-size="10.00" fill="#000000">Estadistica</text>
<polygon fill="none" stroke="#000000" points="2239,-251 2239,-283 2381,-283 2381,-251 2239,-251"/>
<text text-anchor="start" x="2279.1605" y="-264" font-family="Helvetica,sans-Serif" font-size="10.00" fill="#000000">nombre:Texto</text>
<polygon fill="none" stroke="#000000" points="2239,-183 2239,-251 2381,-251 2381,-183 2239,-183"/>
<text text-anchor="start" x="2248.741" y="-232" font-family="Helvetica,sans-Serif" font-size="10.00" fill="#000000">+Constructor(nombre:Texto</text>
<text text-anchor="start" x="2264.994" y="-220" font-family="Helvetica,sans-Serif" font-size="10.00" fill="#000000">tipo:TipoEstadistica)</text>
<text text-anchor="start" x="2265.1335" y="-208" font-family="Helvetica,sans-Serif" font-size="10.00" fill="#000000">+getNombre():Texto</text>
<text text-anchor="start" x="2251.7965" y="-196" font-family="Helvetica,sans-Serif" font-size="10.00" fill="#000000">+getTipo():TipoEstadistica</text>
</g>
<!-- A13 -->
<g id="node14" class="node">
<title>A13</title>
<polygon fill="none" stroke="#000000" points="2431.5,-255 2431.5,-299 2518.5,-299 2518.5,-255 2431.5,-255"/>
<text text-anchor="start" x="2450.264" y="-280" font-family="Helvetica,sans-Serif" font-size="10.00" fill="#000000">&lt;&lt;Enum&gt;&gt;</text>
<text text-anchor="start" x="2441.106" y="-268" font-family="Helvetica,sans-Serif" font-size="10.00" fill="#000000">TipoEstadistica</text>
<polygon fill="none" stroke="#000000" points="2431.5,-199 2431.5,-255 2518.5,-255 2518.5,-199 2431.5,-199"/>
<text text-anchor="start" x="2451.939" y="-236" font-family="Helvetica,sans-Serif" font-size="10.00" fill="#000000">POSITIVA</text>
<text text-anchor="start" x="2449.719" y="-224" font-family="Helvetica,sans-Serif" font-size="10.00" fill="#000000">NEGATIVA</text>
<text text-anchor="start" x="2454.448" y="-212" font-family="Helvetica,sans-Serif" font-size="10.00" fill="#000000">NEUTRA</text>
</g>
<!-- A9&#45;&gt;A13 -->
<g id="edge13" class="edge">
<title>A9&#45;&gt;A13</title>
<path fill="none" stroke="#000000" d="M2381.1954,-249C2394.3558,-249 2407.9009,-249 2420.4496,-249"/>
<polygon fill="#000000" stroke="#000000" points="2430.7259,-249 2420.7259,-253.5001 2425.7259,-249 2420.7259,-249.0001 2420.7259,-249.0001 2420.7259,-249.0001 2425.7259,-249 2420.7258,-244.5001 2430.7259,-249 2430.7259,-249"/>
<text text-anchor="middle" x="2412.5997" y="-254.4524" font-family="Helvetica,sans-Serif" font-size="10.00" fill="#000000">tipo1</text>
<text text-anchor="middle" x="2399.3215" y="-237.5476" font-family="Helvetica,sans-Serif" font-size="10.00" fill="#000000">*</text>
</g>
<!-- A10 -->
<g id="node11" class="node">
<title>A10</title>
<polygon fill="none" stroke="#000000" points="2044.5,-386 2044.5,-418 2189.5,-418 2189.5,-386 2044.5,-386"/>
<text text-anchor="start" x="2081.1615" y="-399" font-family="Helvetica,sans-Serif" font-size="10.00" fill="#000000">ValorEstadistica</text>
<polygon fill="none" stroke="#000000" points="2044.5,-342 2044.5,-386 2189.5,-386 2189.5,-342 2044.5,-342"/>
<text text-anchor="start" x="2094.4995" y="-367" font-family="Helvetica,sans-Serif" font-size="10.00" fill="#000000">valor:Real</text>
<text text-anchor="start" x="2067.8235" y="-355" font-family="Helvetica,sans-Serif" font-size="10.00" fill="#000000">estadistica:Estadistica</text>
<polygon fill="none" stroke="#000000" points="2044.5,-274 2044.5,-342 2189.5,-342 2189.5,-274 2044.5,-274"/>
<text text-anchor="start" x="2064.08" y="-323" font-family="Helvetica,sans-Serif" font-size="10.00" fill="#000000">+Constructor(valor:Real</text>
<text text-anchor="start" x="2066.159" y="-311" font-family="Helvetica,sans-Serif" font-size="10.00" fill="#000000">estadistica:Estadistica)</text>
<text text-anchor="start" x="2080.468" y="-299" font-family="Helvetica,sans-Serif" font-size="10.00" fill="#000000">+getValor():Real</text>
<text text-anchor="start" x="2054.0715" y="-287" font-family="Helvetica,sans-Serif" font-size="10.00" fill="#000000">+getEstadistica():Estadistica</text>
</g>
<!-- A10&#45;&gt;A3JA9 -->
<g id="edge12" class="edge">
<title>A10&#45;&gt;A3JA9</title>
<path fill="none" stroke="#000000" stroke-dasharray="5,2" d="M2116.5,-273.9116C2116.5,-269.184 2116.5,-264.4563 2116.5,-259.7286"/>
<polygon fill="#000000" stroke="#000000" points="2116.5,-249.3789 2121.0001,-259.3789 2116.5,-254.3789 2116.5001,-259.3789 2116.5001,-259.3789 2116.5001,-259.3789 2116.5,-254.3789 2112.0001,-259.3789 2116.5,-249.3789 2116.5,-249.3789"/>
</g>
<!-- A11&#45;&gt;A4 -->
<g id="edge16" class="edge">
<title>A11&#45;&gt;A4</title>
<path fill="none" stroke="#000000" d="M535.2026,-350.322C549.2657,-343.8647 564.1426,-337.0339 578.837,-330.2868"/>
<polygon fill="none" stroke="#000000" points="535.1378,-350.3517 531.3542,-356.4905 524.2324,-355.3591 528.016,-349.2203 535.1378,-350.3517"/>
<polygon fill="#000000" stroke="#000000" points="587.9539,-326.1007 580.7438,-334.363 583.41,-328.1871 578.8661,-330.2735 578.8661,-330.2735 578.8661,-330.2735 583.41,-328.1871 576.9883,-326.184 587.9539,-326.1007 587.9539,-326.1007"/>
<text text-anchor="middle" x="575.0082" y="-338.3456" font-family="Helvetica,sans-Serif" font-size="10.00" fill="#000000">2</text>
<text text-anchor="middle" x="537.1781" y="-337.1141" font-family="Helvetica,sans-Serif" font-size="10.00" fill="#000000">*</text>
</g>
<!-- A12 -->
<g id="node13" class="node">
<title>A12</title>
<polygon fill="none" stroke="#000000" points="844.5,-392 844.5,-424 1045.5,-424 1045.5,-392 844.5,-392"/>
<text text-anchor="start" x="908.607" y="-405" font-family="Helvetica,sans-Serif" font-size="10.00" fill="#000000">RegistroReporte</text>
<polygon fill="none" stroke="#000000" points="844.5,-348 844.5,-392 1045.5,-392 1045.5,-348 844.5,-348"/>
<text text-anchor="start" x="854.427" y="-373" font-family="Helvetica,sans-Serif" font-size="10.00" fill="#000000">estadisticaParticipanteA:ValorEstadistica</text>
<text text-anchor="start" x="854.427" y="-361" font-family="Helvetica,sans-Serif" font-size="10.00" fill="#000000">estadisticaParticipanteB:ValorEstadistica</text>
</g>
<!-- A11&#45;&gt;A12 -->
<g id="edge14" class="edge">
<title>A11&#45;&gt;A12</title>
<path fill="none" stroke="#000000" d="M536.4417,-386C617.1784,-386 743.2784,-386 833.9326,-386"/>
<polygon fill="none" stroke="#000000" points="536.1941,-386.0001 530.1941,-390 524.1941,-386 530.1942,-382 536.1941,-386.0001"/>
<polygon fill="#000000" stroke="#000000" points="843.974,-386 833.9741,-390.5001 838.974,-386 833.974,-386.0001 833.974,-386.0001 833.974,-386.0001 838.974,-386 833.974,-381.5001 843.974,-386 843.974,-386"/>
<text text-anchor="middle" x="825.8479" y="-391.4524" font-family="Helvetica,sans-Serif" font-size="10.00" fill="#000000">registros*</text>
<text text-anchor="middle" x="542.3203" y="-374.5476" font-family="Helvetica,sans-Serif" font-size="10.00" fill="#000000">1</text>
</g>
<!-- A12&#45;&gt;A10 -->
<g id="edge15" class="edge">
<title>A12&#45;&gt;A10</title>
<path fill="none" stroke="#000000" d="M1057.0758,-380.3424C1144.0202,-376.4578 1267.3521,-372 1375.5,-372 1375.5,-372 1375.5,-372 1633.5,-372 1774.0754,-372 1937.3327,-360.8825 2033.4987,-353.1872"/>
<polygon fill="none" stroke="#000000" points="1057.0422,-380.3439 1051.2291,-384.611 1045.0545,-380.8863 1050.8675,-376.6191 1057.0422,-380.3439"/>
<polygon fill="#000000" stroke="#000000" points="2043.7392,-352.3603 2034.1339,-357.6506 2038.7555,-352.7628 2033.7717,-353.1652 2033.7717,-353.1652 2033.7717,-353.1652 2038.7555,-352.7628 2033.4095,-348.6798 2043.7392,-352.3603 2043.7392,-352.3603"/>
<text text-anchor="middle" x="2026.3521" y="-359.2441" font-family="Helvetica,sans-Serif" font-size="10.00" fill="#000000">2</text>
<text text-anchor="middle" x="1062.7801" y="-368.6234" font-family="Helvetica,sans-Serif" font-size="10.00" fill="#000000">*</text>
</g>
<!-- A3JA9&#45;&gt;A9 -->
<g id="edge11" class="edge">
<title>A3JA9&#45;&gt;A9</title>
<path fill="none" stroke="#000000" d="M2117.0551,-249C2123.173,-249 2178.7573,-249 2228.7022,-249"/>
<polygon fill="#000000" stroke="#000000" points="2238.9265,-249 2228.9265,-253.5001 2233.9265,-249 2228.9265,-249.0001 2228.9265,-249.0001 2228.9265,-249.0001 2233.9265,-249 2228.9264,-244.5001 2238.9265,-249 2238.9265,-249"/>
<text text-anchor="middle" x="2220.8003" y="-254.4524" font-family="Helvetica,sans-Serif" font-size="10.00" fill="#000000">*</text>
</g>
</g>
</svg>
