<?xml version="1.0" encoding="UTF-8" standalone="no"?>
<!DOCTYPE svg PUBLIC "-//W3C//DTD SVG 1.1//EN"
 "http://www.w3.org/Graphics/SVG/1.1/DTD/svg11.dtd">
<!-- Generated by graphviz version 2.40.1 (20161225.0304)
 -->
<!-- Title: G Pages: 1 -->
<svg width="2373pt" height="532pt"
 viewBox="0.00 0.00 2373.00 532.05" xmlns="http://www.w3.org/2000/svg" xmlns:xlink="http://www.w3.org/1999/xlink">
<g id="graph0" class="graph" transform="scale(1 1) rotate(0) translate(4 528.0496)">
<title>G</title>
<polygon fill="#ffffff" stroke="transparent" points="-4,4 -4,-528.0496 2369,-528.0496 2369,4 -4,4"/>
<!-- A0 -->
<g id="node1" class="node">
<title>A0</title>
<polygon fill="none" stroke="#000000" points=".5,-479 .5,-511 341.5,-511 341.5,-479 .5,-479"/>
<text text-anchor="start" x="155.163" y="-492" font-family="Helvetica,sans-Serif" font-size="10.00" fill="#000000">Torneo</text>
<polygon fill="none" stroke="#000000" points=".5,-375 .5,-479 341.5,-479 341.5,-375 .5,-375"/>
<text text-anchor="start" x="140.1605" y="-460" font-family="Helvetica,sans-Serif" font-size="10.00" fill="#000000">nombre:Texto</text>
<text text-anchor="start" x="131.822" y="-448" font-family="Helvetica,sans-Serif" font-size="10.00" fill="#000000">fechaInicio:Fecha</text>
<text text-anchor="start" x="102.6515" y="-436" font-family="Helvetica,sans-Serif" font-size="10.00" fill="#000000">fechaInicioInscripciones:Fecha</text>
<text text-anchor="start" x="100.712" y="-424" font-family="Helvetica,sans-Serif" font-size="10.00" fill="#000000">fechaCierreInscripciones:Fecha</text>
<text text-anchor="start" x="109.042" y="-412" font-family="Helvetica,sans-Serif" font-size="10.00" fill="#000000">numeroParticipantes:Entero</text>
<text text-anchor="start" x="131.5485" y="-400" font-family="Helvetica,sans-Serif" font-size="10.00" fill="#000000">limiteEdad:Entero</text>
<text text-anchor="start" x="120.1595" y="-388" font-family="Helvetica,sans-Serif" font-size="10.00" fill="#000000">valorInscripcion:Entero</text>
<polygon fill="none" stroke="#000000" points=".5,-19 .5,-375 341.5,-375 341.5,-19 .5,-19"/>
<text text-anchor="start" x="109.741" y="-356" font-family="Helvetica,sans-Serif" font-size="10.00" fill="#000000">+Constructor(nombre:Texto</text>
<text text-anchor="start" x="131.822" y="-344" font-family="Helvetica,sans-Serif" font-size="10.00" fill="#000000">fechaInicio:Fecha</text>
<text text-anchor="start" x="102.6515" y="-332" font-family="Helvetica,sans-Serif" font-size="10.00" fill="#000000">fechaInicioInscripciones:Fecha</text>
<text text-anchor="start" x="100.712" y="-320" font-family="Helvetica,sans-Serif" font-size="10.00" fill="#000000">fechaCierreInscripciones:Fecha</text>
<text text-anchor="start" x="109.042" y="-308" font-family="Helvetica,sans-Serif" font-size="10.00" fill="#000000">numeroParticipantes:Entero</text>
<text text-anchor="start" x="131.5485" y="-296" font-family="Helvetica,sans-Serif" font-size="10.00" fill="#000000">limiteEdad:Entero</text>
<text text-anchor="start" x="120.1595" y="-284" font-family="Helvetica,sans-Serif" font-size="10.00" fill="#000000">valorInscripcion:Entero</text>
<text text-anchor="start" x="120.1555" y="-272" font-family="Helvetica,sans-Serif" font-size="10.00" fill="#000000">tipoTorneo:TipoTorneo</text>
<text text-anchor="start" x="10.288" y="-260" font-family="Helvetica,sans-Serif" font-size="10.00" fill="#000000">caracter:CaracterTorneo)+registrarParticipante(participante:Participante)</text>
<text text-anchor="start" x="126.1335" y="-248" font-family="Helvetica,sans-Serif" font-size="10.00" fill="#000000">+getNombre():Texto</text>
<text text-anchor="start" x="116.96" y="-236" font-family="Helvetica,sans-Serif" font-size="10.00" fill="#000000">+getFechaInicio():Fecha</text>
<text text-anchor="start" x="87.7895" y="-224" font-family="Helvetica,sans-Serif" font-size="10.00" fill="#000000">+getFechaInicioInscripciones():Fecha</text>
<text text-anchor="start" x="85.85" y="-212" font-family="Helvetica,sans-Serif" font-size="10.00" fill="#000000">+getFechaCierreInscripciones():Fecha</text>
<text text-anchor="start" x="95.015" y="-200" font-family="Helvetica,sans-Serif" font-size="10.00" fill="#000000">+getNumeroParticipantes():Entero</text>
<text text-anchor="start" x="116.6815" y="-188" font-family="Helvetica,sans-Serif" font-size="10.00" fill="#000000">+getLimiteEdad():Entero</text>
<text text-anchor="start" x="106.128" y="-176" font-family="Helvetica,sans-Serif" font-size="10.00" fill="#000000">+getValorInscripcion():Entero</text>
<text text-anchor="start" x="105.2935" y="-164" font-family="Helvetica,sans-Serif" font-size="10.00" fill="#000000">+getTipoTorneo():TipoTorneo</text>
<text text-anchor="start" x="78.6215" y="-152" font-family="Helvetica,sans-Serif" font-size="10.00" fill="#000000">+getParticipantes():Participante［*］</text>
<text text-anchor="start" x="102.2435" y="-140" font-family="Helvetica,sans-Serif" font-size="10.00" fill="#000000">+getCaracter():CaracterTorneo</text>
<text text-anchor="start" x="93.344" y="-128" font-family="Helvetica,sans-Serif" font-size="10.00" fill="#000000">+setFechaInicio(fechaInicio:Fecha)</text>
<text text-anchor="start" x="35.003" y="-116" font-family="Helvetica,sans-Serif" font-size="10.00" fill="#000000">+setFechaInicioInscripciones(fechaInicioInscripciones:Fecha)</text>
<text text-anchor="start" x="31.124" y="-104" font-family="Helvetica,sans-Serif" font-size="10.00" fill="#000000">+setFechaCierreInscripciones(fechaCierreInscripciones:Fecha)</text>
<text text-anchor="start" x="67.65" y="-92" font-family="Helvetica,sans-Serif" font-size="10.00" fill="#000000">buscarParticipante(nombre:Texto):Participante</text>
<text text-anchor="start" x="58.8875" y="-80" font-family="Helvetica,sans-Serif" font-size="10.00" fill="#000000">+registrarJugador(equipo:Equipo,jugador:Jugador)</text>
<text text-anchor="start" x="44.4445" y="-68" font-family="Helvetica,sans-Serif" font-size="10.00" fill="#000000">+registrarJugador(nombreEquipo:Texto,jugador:Jugador)</text>
<text text-anchor="start" x="43.896" y="-56" font-family="Helvetica,sans-Serif" font-size="10.00" fill="#000000">+registrarEstadisticaParticipante(participante:Participante</text>
<text text-anchor="start" x="101.5475" y="-44" font-family="Helvetica,sans-Serif" font-size="10.00" fill="#000000">estadistica:ValorEstadistica)</text>
<text text-anchor="start" x="83.0685" y="-32" font-family="Helvetica,sans-Serif" font-size="10.00" fill="#000000">+getEstadisticas():Estadistica［*］</text>
</g>
<!-- A1 -->
<g id="node2" class="node">
<title>A1</title>
<polygon fill="none" stroke="#000000" points="422.5,-397 422.5,-441 493.5,-441 493.5,-397 422.5,-397"/>
<text text-anchor="start" x="433.264" y="-422" font-family="Helvetica,sans-Serif" font-size="10.00" fill="#000000">&lt;&lt;Enum&gt;&gt;</text>
<text text-anchor="start" x="432.44" y="-410" font-family="Helvetica,sans-Serif" font-size="10.00" fill="#000000">TipoTorneo</text>
<polygon fill="none" stroke="#000000" points="422.5,-329 422.5,-397 493.5,-397 493.5,-329 422.5,-329"/>
<text text-anchor="start" x="441.6075" y="-378" font-family="Helvetica,sans-Serif" font-size="10.00" fill="#000000">LOCAL</text>
<text text-anchor="start" x="432.164" y="-366" font-family="Helvetica,sans-Serif" font-size="10.00" fill="#000000">REGIONAL</text>
<text text-anchor="start" x="432.444" y="-354" font-family="Helvetica,sans-Serif" font-size="10.00" fill="#000000">NACIONAL</text>
<text text-anchor="start" x="435.5035" y="-342" font-family="Helvetica,sans-Serif" font-size="10.00" fill="#000000">MUNDIAL</text>
</g>
<!-- A0&#45;&gt;A1 -->
<g id="edge3" class="edge">
<title>A0&#45;&gt;A1</title>
<path fill="none" stroke="#000000" d="M341.1799,-336.3644C367.4553,-347.3506 392.4687,-357.8092 412.5205,-366.1932"/>
<polygon fill="#000000" stroke="#000000" points="421.9493,-370.1356 410.9874,-370.4297 417.3363,-368.2068 412.7233,-366.278 412.7233,-366.278 412.7233,-366.278 417.3363,-368.2068 414.4593,-362.1263 421.9493,-370.1356 421.9493,-370.1356"/>
<text text-anchor="middle" x="401.9656" y="-367.9415" font-family="Helvetica,sans-Serif" font-size="10.00" fill="#000000">tipoTorneo1</text>
<text text-anchor="middle" x="361.1636" y="-332.5585" font-family="Helvetica,sans-Serif" font-size="10.00" fill="#000000">*</text>
</g>
<!-- A4 -->
<g id="node5" class="node">
<title>A4</title>
<polygon fill="none" stroke="#000000" points="574,-301 574,-345 794,-345 794,-301 574,-301"/>
<text text-anchor="start" x="653.151" y="-326" font-family="Helvetica,sans-Serif" font-size="10.00" fill="#000000">&lt;&lt;interface&gt;&gt;</text>
<text text-anchor="start" x="657.6055" y="-314" font-family="Helvetica,sans-Serif" font-size="10.00" fill="#000000">Participante</text>
<polygon fill="none" stroke="#000000" points="574,-257 574,-301 794,-301 794,-257 574,-257"/>
<text text-anchor="start" x="617.7425" y="-282" font-family="Helvetica,sans-Serif" font-size="10.00" fill="#000000">+getNombreCompleto():Texto</text>
<text text-anchor="start" x="583.8485" y="-270" font-family="Helvetica,sans-Serif" font-size="10.00" fill="#000000">+getRegistroEstadistica():RegistroEstadistica</text>
</g>
<!-- A0&#45;&gt;A4 -->
<g id="edge4" class="edge">
<title>A0&#45;&gt;A4</title>
<path fill="none" stroke="#000000" d="M353.355,-279.2702C366.0936,-280.2113 378.7377,-281.1298 391,-282 447.725,-286.0257 510.6528,-290.151 563.605,-293.5245"/>
<polygon fill="none" stroke="#000000" points="353.0891,-279.2506 346.8094,-282.7953 341.1221,-278.3619 347.4018,-274.8172 353.0891,-279.2506"/>
<polygon fill="#000000" stroke="#000000" points="573.7146,-294.1672 563.4492,-298.0236 568.7246,-293.8499 563.7347,-293.5327 563.7347,-293.5327 563.7347,-293.5327 568.7246,-293.8499 564.0202,-289.0417 573.7146,-294.1672 573.7146,-294.1672"/>
<text text-anchor="middle" x="555.0887" y="-298.4526" font-family="Helvetica,sans-Serif" font-size="10.00" fill="#000000">participantes*</text>
<text text-anchor="middle" x="359.8243" y="-268.275" font-family="Helvetica,sans-Serif" font-size="10.00" fill="#000000">1</text>
</g>
<!-- A8 -->
<g id="node9" class="node">
<title>A8</title>
<polygon fill="none" stroke="#000000" points="412.5,-123 412.5,-167 502.5,-167 502.5,-123 412.5,-123"/>
<text text-anchor="start" x="432.764" y="-148" font-family="Helvetica,sans-Serif" font-size="10.00" fill="#000000">&lt;&lt;Enum&gt;&gt;</text>
<text text-anchor="start" x="422.4965" y="-136" font-family="Helvetica,sans-Serif" font-size="10.00" fill="#000000">CaracterTorneo</text>
<polygon fill="none" stroke="#000000" points="412.5,-79 412.5,-123 502.5,-123 502.5,-79 412.5,-79"/>
<text text-anchor="start" x="429.445" y="-104" font-family="Helvetica,sans-Serif" font-size="10.00" fill="#000000">INDIVIDUAL</text>
<text text-anchor="start" x="436.943" y="-92" font-family="Helvetica,sans-Serif" font-size="10.00" fill="#000000">GRUPAL</text>
</g>
<!-- A0&#45;&gt;A8 -->
<g id="edge2" class="edge">
<title>A0&#45;&gt;A8</title>
<path fill="none" stroke="#000000" d="M341.1799,-180.5521C363.6287,-169.445 385.1564,-158.7937 403.4556,-149.7397"/>
<polygon fill="#000000" stroke="#000000" points="412.443,-145.293 405.4756,-153.761 407.9615,-147.5104 403.48,-149.7277 403.48,-149.7277 403.48,-149.7277 407.9615,-147.5104 401.4844,-145.6944 412.443,-145.293 412.443,-145.293"/>
<text text-anchor="middle" x="399.9449" y="-157.9071" font-family="Helvetica,sans-Serif" font-size="10.00" fill="#000000">caracter1</text>
<text text-anchor="middle" x="353.6779" y="-161.9381" font-family="Helvetica,sans-Serif" font-size="10.00" fill="#000000">*</text>
</g>
<!-- A11 -->
<g id="node12" class="node">
<title>A11</title>
<polygon fill="none" stroke="#000000" points="391.5,-241 391.5,-273 524.5,-273 524.5,-241 391.5,-241"/>
<text text-anchor="start" x="440.2185" y="-254" font-family="Helvetica,sans-Serif" font-size="10.00" fill="#000000">Reporte</text>
<polygon fill="none" stroke="#000000" points="391.5,-185 391.5,-241 524.5,-241 524.5,-185 391.5,-185"/>
<text text-anchor="start" x="430.4895" y="-222" font-family="Helvetica,sans-Serif" font-size="10.00" fill="#000000">fecha:Fecha</text>
<text text-anchor="start" x="401.042" y="-210" font-family="Helvetica,sans-Serif" font-size="10.00" fill="#000000">participanteA:Participante</text>
<text text-anchor="start" x="401.042" y="-198" font-family="Helvetica,sans-Serif" font-size="10.00" fill="#000000">participanteB:Participante</text>
</g>
<!-- A0&#45;&gt;A11 -->
<g id="edge1" class="edge">
<title>A0&#45;&gt;A11</title>
<path fill="none" stroke="#000000" stroke-dasharray="5,2" d="M341.1799,-243.5907C354.816,-241.8802 368.1122,-240.2124 380.5515,-238.6521"/>
<polygon fill="#000000" stroke="#000000" points="390.7875,-237.3681 381.4254,-243.0778 385.8264,-237.9905 380.8653,-238.6128 380.8653,-238.6128 380.8653,-238.6128 385.8264,-237.9905 380.3052,-234.1478 390.7875,-237.3681 390.7875,-237.3681"/>
</g>
<!-- A2 -->
<g id="node3" class="node">
<title>A2</title>
<polygon fill="none" stroke="#000000" points="1528.5,-350 1528.5,-394 1781.5,-394 1781.5,-350 1528.5,-350"/>
<text text-anchor="start" x="1624.151" y="-375" font-family="Helvetica,sans-Serif" font-size="10.00" fill="#000000">&lt;&lt;interface&gt;&gt;</text>
<text text-anchor="start" x="1612.2175" y="-363" font-family="Helvetica,sans-Serif" font-size="10.00" fill="#000000">RegistroEstadistica</text>
<polygon fill="none" stroke="#000000" points="1528.5,-282 1528.5,-350 1781.5,-350 1781.5,-282 1528.5,-282"/>
<text text-anchor="start" x="1548.457" y="-331" font-family="Helvetica,sans-Serif" font-size="10.00" fill="#000000">+getEstadisticas():ValorEstadistica［*］</text>
<text text-anchor="start" x="1538.4615" y="-319" font-family="Helvetica,sans-Serif" font-size="10.00" fill="#000000">+registrarEstadistica(estadistica:ValorEstadistica)</text>
<text text-anchor="start" x="1575.681" y="-307" font-family="Helvetica,sans-Serif" font-size="10.00" fill="#000000">+comparar(participante:Participante</text>
<text text-anchor="start" x="1588.0425" y="-295" font-family="Helvetica,sans-Serif" font-size="10.00" fill="#000000">estadistica:Estadistica):Entero</text>
</g>
<!-- A3 -->
<g id="node4" class="node">
<title>A3</title>
<polygon fill="none" stroke="#000000" points="1831.5,-354 1831.5,-386 2036.5,-386 2036.5,-354 1831.5,-354"/>
<text text-anchor="start" x="1881.7745" y="-367" font-family="Helvetica,sans-Serif" font-size="10.00" fill="#000000">RegistroEstadisticaImpl</text>
<polygon fill="none" stroke="#000000" points="1831.5,-322 1831.5,-354 2036.5,-354 2036.5,-322 1831.5,-322"/>
<text text-anchor="start" x="1841.209" y="-335" font-family="Helvetica,sans-Serif" font-size="10.00" fill="#000000">estadisticas:ValorEstadistica［*］</text>
<polygon fill="none" stroke="#000000" points="1831.5,-290 1831.5,-322 2036.5,-322 2036.5,-290 1831.5,-290"/>
<text text-anchor="start" x="1901.916" y="-303" font-family="Helvetica,sans-Serif" font-size="10.00" fill="#000000">+Constructor()</text>
</g>
<!-- A2&#45;&gt;A3 -->
<g id="edge18" class="edge">
<title>A2&#45;&gt;A3</title>
<path fill="none" stroke="#000000" d="M1791.4555,-338C1804.6937,-338 1817.9624,-338 1830.7846,-338"/>
<polygon fill="none" stroke="#000000" points="1791.3461,-334.5001 1781.346,-338 1791.346,-341.5001 1791.3461,-334.5001"/>
</g>
<!-- A2&#45;&gt;A4 -->
<g id="edge17" class="edge">
<title>A2&#45;&gt;A4</title>
<path fill="none" stroke="#000000" d="M1593.6834,-401.1346C1562.0411,-429.9224 1521.0293,-461.4376 1478,-479 1325.8657,-541.0938 1271.1666,-528.5043 1109,-502 986.3842,-481.9598 954.9185,-468.9762 844,-413 806.7669,-394.2099 768.3765,-367.6207 738.5361,-345.0645"/>
<polygon fill="none" stroke="#000000" points="1596.1405,-403.6297 1601.1091,-394.2722 1591.3895,-398.4888 1596.1405,-403.6297"/>
</g>
<!-- A2JA9 -->
<!-- A2&#45;&gt;A2JA9 -->
<g id="edge10" class="edge">
<title>A2&#45;&gt;A2JA9</title>
<path fill="none" stroke="#000000" d="M1674.8812,-281.9572C1700.7642,-219.693 1751.8192,-121.7829 1831,-75 1868.5266,-52.8279 1927.634,-64.7453 1933.0928,-65.9113"/>
<text text-anchor="middle" x="1674.3353" y="-258.9646" font-family="Helvetica,sans-Serif" font-size="10.00" fill="#000000">*</text>
</g>
<!-- A5 -->
<g id="node6" class="node">
<title>A5</title>
<polygon fill="none" stroke="#000000" points="863.5,-372 863.5,-404 1040.5,-404 1040.5,-372 863.5,-372"/>
<text text-anchor="start" x="936.438" y="-385" font-family="Helvetica,sans-Serif" font-size="10.00" fill="#000000">Equipo</text>
<polygon fill="none" stroke="#000000" points="863.5,-340 863.5,-372 1040.5,-372 1040.5,-340 863.5,-340"/>
<text text-anchor="start" x="921.1605" y="-353" font-family="Helvetica,sans-Serif" font-size="10.00" fill="#000000">nombre:Texto</text>
<polygon fill="none" stroke="#000000" points="863.5,-248 863.5,-340 1040.5,-340 1040.5,-248 863.5,-248"/>
<text text-anchor="start" x="890.741" y="-321" font-family="Helvetica,sans-Serif" font-size="10.00" fill="#000000">+Constructor(nombre:Texto</text>
<text text-anchor="start" x="899.485" y="-309" font-family="Helvetica,sans-Serif" font-size="10.00" fill="#000000">representante:Persona)</text>
<text text-anchor="start" x="907.1335" y="-297" font-family="Helvetica,sans-Serif" font-size="10.00" fill="#000000">+getNombre():Texto</text>
<text text-anchor="start" x="886.0075" y="-285" font-family="Helvetica,sans-Serif" font-size="10.00" fill="#000000">+getRepresentante():Persona</text>
<text text-anchor="start" x="873.507" y="-273" font-family="Helvetica,sans-Serif" font-size="10.00" fill="#000000">+getJugadores():Jugador［*］</text>
<text text-anchor="start" x="873.2355" y="-261" font-family="Helvetica,sans-Serif" font-size="10.00" fill="#000000">+registrarJugador(jugador:Jugador)</text>
</g>
<!-- A4&#45;&gt;A5 -->
<g id="edge9" class="edge">
<title>A4&#45;&gt;A5</title>
<path fill="none" stroke="#000000" d="M804.5255,-312.2641C824.0732,-314.091 844.0015,-315.9534 862.618,-317.6933"/>
<polygon fill="none" stroke="#000000" points="804.6292,-308.7586 794.3469,-311.3128 803.9778,-315.7282 804.6292,-308.7586"/>
</g>
<!-- A7 -->
<g id="node8" class="node">
<title>A7</title>
<polygon fill="none" stroke="#000000" points="1301.5,-344 1301.5,-376 1478.5,-376 1478.5,-344 1301.5,-344"/>
<text text-anchor="start" x="1371.938" y="-357" font-family="Helvetica,sans-Serif" font-size="10.00" fill="#000000">Jugador</text>
<polygon fill="none" stroke="#000000" points="1301.5,-312 1301.5,-344 1478.5,-344 1478.5,-312 1301.5,-312"/>
<text text-anchor="start" x="1337.489" y="-325" font-family="Helvetica,sans-Serif" font-size="10.00" fill="#000000">fechaNacimiento:Fecha</text>
<polygon fill="none" stroke="#000000" points="1301.5,-208 1301.5,-312 1478.5,-312 1478.5,-208 1301.5,-208"/>
<text text-anchor="start" x="1328.741" y="-293" font-family="Helvetica,sans-Serif" font-size="10.00" fill="#000000">+Constructor(nombre:Texto</text>
<text text-anchor="start" x="1358.8815" y="-281" font-family="Helvetica,sans-Serif" font-size="10.00" fill="#000000">apellido:Texto</text>
<text text-anchor="start" x="1364.165" y="-269" font-family="Helvetica,sans-Serif" font-size="10.00" fill="#000000">email:Texto</text>
<text text-anchor="start" x="1361.3855" y="-257" font-family="Helvetica,sans-Serif" font-size="10.00" fill="#000000">celular:Texto</text>
<text text-anchor="start" x="1335.8245" y="-245" font-family="Helvetica,sans-Serif" font-size="10.00" fill="#000000">fechaNacimiento:Fecha)</text>
<text text-anchor="start" x="1322.627" y="-233" font-family="Helvetica,sans-Serif" font-size="10.00" fill="#000000">+getFechaNacimiento():Fecha</text>
<text text-anchor="start" x="1311.2295" y="-221" font-family="Helvetica,sans-Serif" font-size="10.00" fill="#000000">+calcularEdad(fecha:Fecha):Entero</text>
</g>
<!-- A4&#45;&gt;A7 -->
<g id="edge8" class="edge">
<title>A4&#45;&gt;A7</title>
<path fill="none" stroke="#000000" d="M792.6304,-253.4075C809.5533,-247.6065 827.0503,-242.5012 844,-239 1021.2024,-202.396 1074.1629,-190.6703 1251,-229 1267.6516,-232.6093 1284.7043,-238.399 1300.8991,-245.0415"/>
<polygon fill="none" stroke="#000000" points="791.007,-250.2687 782.7413,-256.8965 793.3361,-256.8699 791.007,-250.2687"/>
</g>
<!-- A5&#45;&gt;A2 -->
<g id="edge20" class="edge">
<title>A5&#45;&gt;A2</title>
<path fill="none" stroke="#000000" d="M1010.8651,-404.1525C1037.3923,-432.7551 1071.2163,-461.8137 1109,-477 1260.1961,-537.7697 1445.8436,-460.416 1556.9281,-399.0818"/>
<polygon fill="#000000" stroke="#000000" points="1565.7868,-394.1371 1559.2482,-402.9404 1561.4209,-396.5741 1557.055,-399.0111 1557.055,-399.0111 1557.055,-399.0111 1561.4209,-396.5741 1554.8617,-395.0817 1565.7868,-394.1371 1565.7868,-394.1371"/>
</g>
<!-- A6 -->
<g id="node7" class="node">
<title>A6</title>
<polygon fill="none" stroke="#000000" points="1109,-436 1109,-468 1251,-468 1251,-436 1109,-436"/>
<text text-anchor="start" x="1161.383" y="-449" font-family="Helvetica,sans-Serif" font-size="10.00" fill="#000000">Persona</text>
<polygon fill="none" stroke="#000000" points="1109,-368 1109,-436 1251,-436 1251,-368 1109,-368"/>
<text text-anchor="start" x="1149.1605" y="-417" font-family="Helvetica,sans-Serif" font-size="10.00" fill="#000000">nombre:Texto</text>
<text text-anchor="start" x="1148.8815" y="-405" font-family="Helvetica,sans-Serif" font-size="10.00" fill="#000000">apellido:Texto</text>
<text text-anchor="start" x="1154.165" y="-393" font-family="Helvetica,sans-Serif" font-size="10.00" fill="#000000">email:Texto</text>
<text text-anchor="start" x="1151.3855" y="-381" font-family="Helvetica,sans-Serif" font-size="10.00" fill="#000000">celular:Texto</text>
<polygon fill="none" stroke="#000000" points="1109,-252 1109,-368 1251,-368 1251,-252 1109,-252"/>
<text text-anchor="start" x="1118.741" y="-349" font-family="Helvetica,sans-Serif" font-size="10.00" fill="#000000">+Constructor(nombre:Texto</text>
<text text-anchor="start" x="1148.8815" y="-337" font-family="Helvetica,sans-Serif" font-size="10.00" fill="#000000">apellido:Texto</text>
<text text-anchor="start" x="1154.165" y="-325" font-family="Helvetica,sans-Serif" font-size="10.00" fill="#000000">email:Texto</text>
<text text-anchor="start" x="1149.721" y="-313" font-family="Helvetica,sans-Serif" font-size="10.00" fill="#000000">celular:Texto)</text>
<text text-anchor="start" x="1135.1335" y="-301" font-family="Helvetica,sans-Serif" font-size="10.00" fill="#000000">+getNombre():Texto</text>
<text text-anchor="start" x="1135.1295" y="-289" font-family="Helvetica,sans-Serif" font-size="10.00" fill="#000000">+getApellido():Texto</text>
<text text-anchor="start" x="1140.413" y="-277" font-family="Helvetica,sans-Serif" font-size="10.00" fill="#000000">+getEmail():Texto</text>
<text text-anchor="start" x="1137.079" y="-265" font-family="Helvetica,sans-Serif" font-size="10.00" fill="#000000">+getCelular():Texto</text>
</g>
<!-- A5&#45;&gt;A6 -->
<g id="edge5" class="edge">
<title>A5&#45;&gt;A6</title>
<path fill="none" stroke="#000000" d="M1052.2559,-340.9921C1067.7168,-343.2927 1083.512,-345.6429 1098.4875,-347.8712"/>
<polygon fill="none" stroke="#000000" points="1052.0404,-340.9601 1045.517,-344.0335 1040.1711,-339.194 1046.6945,-336.1206 1052.0404,-340.9601"/>
<polygon fill="#000000" stroke="#000000" points="1108.7101,-349.3923 1098.1567,-352.3715 1103.7646,-348.6564 1098.819,-347.9205 1098.819,-347.9205 1098.819,-347.9205 1103.7646,-348.6564 1099.4813,-343.4695 1108.7101,-349.3923 1108.7101,-349.3923"/>
<text text-anchor="middle" x="1089.5374" y="-352.0849" font-family="Helvetica,sans-Serif" font-size="10.00" fill="#000000">representante1</text>
<text text-anchor="middle" x="1059.3439" y="-330.5014" font-family="Helvetica,sans-Serif" font-size="10.00" fill="#000000">1</text>
</g>
<!-- A5&#45;&gt;A7 -->
<g id="edge7" class="edge">
<title>A5&#45;&gt;A7</title>
<path fill="none" stroke="#000000" d="M1050.9518,-264.4748C1069.6213,-255.598 1089.4365,-247.8394 1109,-243 1170.2645,-227.8451 1188.7989,-232.3212 1251,-243 1264.2494,-245.2747 1277.914,-248.6898 1291.2612,-252.6793"/>
<polygon fill="none" stroke="#000000" points="1050.8681,-264.5159 1047.2522,-270.755 1040.1024,-269.8169 1043.7182,-263.5778 1050.8681,-264.5159"/>
<polygon fill="#000000" stroke="#000000" points="1300.9134,-255.6777 1290.0286,-257.0085 1296.1385,-254.1944 1291.3636,-252.711 1291.3636,-252.711 1291.3636,-252.711 1296.1385,-254.1944 1292.6986,-248.4136 1300.9134,-255.6777 1300.9134,-255.6777"/>
<text text-anchor="middle" x="1281.0957" y="-255.3723" font-family="Helvetica,sans-Serif" font-size="10.00" fill="#000000">jugador*</text>
<text text-anchor="middle" x="1052.6303" y="-251.2268" font-family="Helvetica,sans-Serif" font-size="10.00" fill="#000000">1</text>
</g>
<!-- A6&#45;&gt;A7 -->
<g id="edge6" class="edge">
<title>A6&#45;&gt;A7</title>
<path fill="none" stroke="#000000" d="M1261.034,-333.6978C1274.0178,-329.4835 1287.5146,-325.1026 1300.6686,-320.8331"/>
<polygon fill="none" stroke="#000000" points="1259.6504,-330.4671 1251.2195,-336.8834 1261.8116,-337.1251 1259.6504,-330.4671"/>
</g>
<!-- A7&#45;&gt;A2 -->
<g id="edge19" class="edge">
<title>A7&#45;&gt;A2</title>
<path fill="none" stroke="#000000" d="M1478.1096,-307.3813C1490.8191,-309.5875 1504.1359,-311.8991 1517.5138,-314.2213"/>
<polygon fill="#000000" stroke="#000000" points="1527.7469,-315.9976 1517.1245,-318.7209 1522.8205,-315.1424 1517.8942,-314.2872 1517.8942,-314.2872 1517.8942,-314.2872 1522.8205,-315.1424 1518.6638,-309.8535 1527.7469,-315.9976 1527.7469,-315.9976"/>
</g>
<!-- A9 -->
<g id="node10" class="node">
<title>A9</title>
<polygon fill="none" stroke="#000000" points="2086,-100 2086,-132 2228,-132 2228,-100 2086,-100"/>
<text text-anchor="start" x="2132.829" y="-113" font-family="Helvetica,sans-Serif" font-size="10.00" fill="#000000">Estadistica</text>
<polygon fill="none" stroke="#000000" points="2086,-68 2086,-100 2228,-100 2228,-68 2086,-68"/>
<text text-anchor="start" x="2126.1605" y="-81" font-family="Helvetica,sans-Serif" font-size="10.00" fill="#000000">nombre:Texto</text>
<polygon fill="none" stroke="#000000" points="2086,0 2086,-68 2228,-68 2228,0 2086,0"/>
<text text-anchor="start" x="2095.741" y="-49" font-family="Helvetica,sans-Serif" font-size="10.00" fill="#000000">+Constructor(nombre:Texto</text>
<text text-anchor="start" x="2111.994" y="-37" font-family="Helvetica,sans-Serif" font-size="10.00" fill="#000000">tipo:TipoEstadistica)</text>
<text text-anchor="start" x="2112.1335" y="-25" font-family="Helvetica,sans-Serif" font-size="10.00" fill="#000000">+getNombre():Texto</text>
<text text-anchor="start" x="2098.7965" y="-13" font-family="Helvetica,sans-Serif" font-size="10.00" fill="#000000">+getTipo():TipoEstadistica</text>
</g>
<!-- A13 -->
<g id="node14" class="node">
<title>A13</title>
<polygon fill="none" stroke="#000000" points="2278.5,-72 2278.5,-116 2365.5,-116 2365.5,-72 2278.5,-72"/>
<text text-anchor="start" x="2297.264" y="-97" font-family="Helvetica,sans-Serif" font-size="10.00" fill="#000000">&lt;&lt;Enum&gt;&gt;</text>
<text text-anchor="start" x="2288.106" y="-85" font-family="Helvetica,sans-Serif" font-size="10.00" fill="#000000">TipoEstadistica</text>
<polygon fill="none" stroke="#000000" points="2278.5,-16 2278.5,-72 2365.5,-72 2365.5,-16 2278.5,-16"/>
<text text-anchor="start" x="2298.939" y="-53" font-family="Helvetica,sans-Serif" font-size="10.00" fill="#000000">POSITIVA</text>
<text text-anchor="start" x="2296.719" y="-41" font-family="Helvetica,sans-Serif" font-size="10.00" fill="#000000">NEGATIVA</text>
<text text-anchor="start" x="2301.448" y="-29" font-family="Helvetica,sans-Serif" font-size="10.00" fill="#000000">NEUTRA</text>
</g>
<!-- A9&#45;&gt;A13 -->
<g id="edge13" class="edge">
<title>A9&#45;&gt;A13</title>
<path fill="none" stroke="#000000" d="M2228.1954,-66C2241.3558,-66 2254.9009,-66 2267.4496,-66"/>
<polygon fill="#000000" stroke="#000000" points="2277.7259,-66 2267.7259,-70.5001 2272.7259,-66 2267.7259,-66.0001 2267.7259,-66.0001 2267.7259,-66.0001 2272.7259,-66 2267.7258,-61.5001 2277.7259,-66 2277.7259,-66"/>
<text text-anchor="middle" x="2259.5997" y="-71.4524" font-family="Helvetica,sans-Serif" font-size="10.00" fill="#000000">tipo1</text>
<text text-anchor="middle" x="2246.3215" y="-54.5476" font-family="Helvetica,sans-Serif" font-size="10.00" fill="#000000">*</text>
</g>
<!-- A10 -->
<g id="node11" class="node">
<title>A10</title>
<polygon fill="none" stroke="#000000" points="1861.5,-196 1861.5,-228 2006.5,-228 2006.5,-196 1861.5,-196"/>
<text text-anchor="start" x="1891.2175" y="-209" font-family="Helvetica,sans-Serif" font-size="10.00" fill="#000000">RegistroEstadistica</text>
<polygon fill="none" stroke="#000000" points="1861.5,-152 1861.5,-196 2006.5,-196 2006.5,-152 1861.5,-152"/>
<text text-anchor="start" x="1911.4995" y="-177" font-family="Helvetica,sans-Serif" font-size="10.00" fill="#000000">valor:Real</text>
<text text-anchor="start" x="1884.8235" y="-165" font-family="Helvetica,sans-Serif" font-size="10.00" fill="#000000">estadistica:Estadistica</text>
<polygon fill="none" stroke="#000000" points="1861.5,-84 1861.5,-152 2006.5,-152 2006.5,-84 1861.5,-84"/>
<text text-anchor="start" x="1881.08" y="-133" font-family="Helvetica,sans-Serif" font-size="10.00" fill="#000000">+Constructor(valor:Real</text>
<text text-anchor="start" x="1883.159" y="-121" font-family="Helvetica,sans-Serif" font-size="10.00" fill="#000000">estadistica:Estadistica)</text>
<text text-anchor="start" x="1897.468" y="-109" font-family="Helvetica,sans-Serif" font-size="10.00" fill="#000000">+getValor():Real</text>
<text text-anchor="start" x="1871.0715" y="-97" font-family="Helvetica,sans-Serif" font-size="10.00" fill="#000000">+getEstadistica():Estadistica</text>
</g>
<!-- A10&#45;&gt;A2JA9 -->
<g id="edge12" class="edge">
<title>A10&#45;&gt;A2JA9</title>
<path fill="none" stroke="#000000" stroke-dasharray="5,2" d="M1933.5,-83.7951C1933.5,-81.4806 1933.5,-79.166 1933.5,-76.8515"/>
<polygon fill="#000000" stroke="#000000" points="1933.5,-66.7031 1938.0001,-76.7031 1933.5,-71.7031 1933.5001,-76.7031 1933.5001,-76.7031 1933.5001,-76.7031 1933.5,-71.7031 1929.0001,-76.7032 1933.5,-66.7031 1933.5,-66.7031"/>
</g>
<!-- A11&#45;&gt;A4 -->
<g id="edge16" class="edge">
<title>A11&#45;&gt;A4</title>
<path fill="none" stroke="#000000" d="M535.8406,-253.903C545.0848,-256.8415 554.673,-259.8894 564.3236,-262.9572"/>
<polygon fill="none" stroke="#000000" points="535.6685,-253.8483 528.7387,-255.8427 524.2324,-250.213 531.1623,-248.2186 535.6685,-253.8483"/>
<polygon fill="#000000" stroke="#000000" points="573.9845,-266.0282 563.0912,-267.2872 569.2195,-264.5134 564.4544,-262.9987 564.4544,-262.9987 564.4544,-262.9987 569.2195,-264.5134 565.8177,-258.7102 573.9845,-266.0282 573.9845,-266.0282"/>
<text text-anchor="middle" x="554.1496" y="-265.5922" font-family="Helvetica,sans-Serif" font-size="10.00" fill="#000000">2</text>
<text text-anchor="middle" x="544.0674" y="-244.649" font-family="Helvetica,sans-Serif" font-size="10.00" fill="#000000">*</text>
</g>
<!-- A12 -->
<g id="node13" class="node">
<title>A12</title>
<polygon fill="none" stroke="#000000" points="844.5,-126 844.5,-158 1059.5,-158 1059.5,-126 844.5,-126"/>
<text text-anchor="start" x="915.607" y="-139" font-family="Helvetica,sans-Serif" font-size="10.00" fill="#000000">RegistroReporte</text>
<polygon fill="none" stroke="#000000" points="844.5,-82 844.5,-126 1059.5,-126 1059.5,-82 844.5,-82"/>
<text text-anchor="start" x="854.483" y="-107" font-family="Helvetica,sans-Serif" font-size="10.00" fill="#000000">estadisticaParticipanteA:ValorEstadistica</text>
<text text-anchor="start" x="854.483" y="-95" font-family="Helvetica,sans-Serif" font-size="10.00" fill="#000000">estadisticaParticipanteB:ValorEstadistica</text>
</g>
<!-- A11&#45;&gt;A12 -->
<g id="edge14" class="edge">
<title>A11&#45;&gt;A12</title>
<path fill="none" stroke="#000000" d="M536.0338,-211.6717C616.3039,-193.9603 741.9184,-166.2437 834.0239,-145.9208"/>
<polygon fill="none" stroke="#000000" points="535.8412,-211.7141 530.844,-216.913 524.123,-214.2998 529.1202,-209.1009 535.8412,-211.7141"/>
<polygon fill="#000000" stroke="#000000" points="843.9549,-143.7296 835.1594,-150.2786 839.0723,-144.807 834.1897,-145.8843 834.1897,-145.8843 834.1897,-145.8843 839.0723,-144.807 833.2201,-141.49 843.9549,-143.7296 843.9549,-143.7296"/>
<text text-anchor="middle" x="828.0756" y="-152.889" font-family="Helvetica,sans-Serif" font-size="10.00" fill="#000000">registros*</text>
<text text-anchor="middle" x="540.0022" y="-199.1404" font-family="Helvetica,sans-Serif" font-size="10.00" fill="#000000">1</text>
</g>
<!-- A12&#45;&gt;A10 -->
<g id="edge15" class="edge">
<title>A12&#45;&gt;A10</title>
<path fill="none" stroke="#000000" d="M1071.4653,-124.3979C1273.5578,-131.8066 1676.8062,-146.5896 1850.6231,-152.9617"/>
<polygon fill="none" stroke="#000000" points="1071.3922,-124.3953 1065.2496,-128.1728 1059.4002,-123.9556 1065.5428,-120.1782 1071.3922,-124.3953"/>
<polygon fill="#000000" stroke="#000000" points="1860.734,-153.3324 1850.5758,-157.4629 1855.7374,-153.1492 1850.7407,-152.966 1850.7407,-152.966 1850.7407,-152.966 1855.7374,-153.1492 1850.9056,-148.469 1860.734,-153.3324 1860.734,-153.3324"/>
<text text-anchor="middle" x="1842.3104" y="-158.115" font-family="Helvetica,sans-Serif" font-size="10.00" fill="#000000">2</text>
<text text-anchor="middle" x="1077.8239" y="-113.173" font-family="Helvetica,sans-Serif" font-size="10.00" fill="#000000">*</text>
</g>
<!-- A2JA9&#45;&gt;A9 -->
<g id="edge11" class="edge">
<title>A2JA9&#45;&gt;A9</title>
<path fill="none" stroke="#000000" d="M1934.1411,-66C1941.717,-66 2014.9635,-66 2075.4491,-66"/>
<polygon fill="#000000" stroke="#000000" points="2085.8032,-66 2075.8033,-70.5001 2080.8032,-66 2075.8032,-66.0001 2075.8032,-66.0001 2075.8032,-66.0001 2080.8032,-66 2075.8032,-61.5001 2085.8032,-66 2085.8032,-66"/>
<text text-anchor="middle" x="2067.6771" y="-71.4524" font-family="Helvetica,sans-Serif" font-size="10.00" fill="#000000">*</text>
</g>
</g>
</svg>
