<?xml version="1.0" encoding="UTF-8" standalone="no"?>
<!DOCTYPE svg PUBLIC "-//W3C//DTD SVG 1.1//EN"
 "http://www.w3.org/Graphics/SVG/1.1/DTD/svg11.dtd">
<!-- Generated by graphviz version 2.40.1 (20161225.0304)
 -->
<!-- Title: G Pages: 1 -->
<svg width="2053pt" height="480pt"
 viewBox="0.00 0.00 2052.57 480.10" xmlns="http://www.w3.org/2000/svg" xmlns:xlink="http://www.w3.org/1999/xlink">
<g id="graph0" class="graph" transform="scale(1 1) rotate(0) translate(4 476.0992)">
<title>G</title>
<polygon fill="#ffffff" stroke="transparent" points="-4,4 -4,-476.0992 2048.565,-476.0992 2048.565,4 -4,4"/>
<!-- A0 -->
<g id="node1" class="node">
<title>A0</title>
<polygon fill="none" stroke="#000000" points=".5,-406 .5,-438 341.5,-438 341.5,-406 .5,-406"/>
<text text-anchor="start" x="155.163" y="-419" font-family="Helvetica,sans-Serif" font-size="10.00" fill="#000000">Torneo</text>
<polygon fill="none" stroke="#000000" points=".5,-302 .5,-406 341.5,-406 341.5,-302 .5,-302"/>
<text text-anchor="start" x="140.1605" y="-387" font-family="Helvetica,sans-Serif" font-size="10.00" fill="#000000">nombre:Texto</text>
<text text-anchor="start" x="131.822" y="-375" font-family="Helvetica,sans-Serif" font-size="10.00" fill="#000000">fechaInicio:Fecha</text>
<text text-anchor="start" x="102.6515" y="-363" font-family="Helvetica,sans-Serif" font-size="10.00" fill="#000000">fechaInicioInscripciones:Fecha</text>
<text text-anchor="start" x="100.712" y="-351" font-family="Helvetica,sans-Serif" font-size="10.00" fill="#000000">fechaCierreInscripciones:Fecha</text>
<text text-anchor="start" x="109.042" y="-339" font-family="Helvetica,sans-Serif" font-size="10.00" fill="#000000">numeroParticipantes:Entero</text>
<text text-anchor="start" x="131.5485" y="-327" font-family="Helvetica,sans-Serif" font-size="10.00" fill="#000000">limiteEdad:Entero</text>
<text text-anchor="start" x="120.1595" y="-315" font-family="Helvetica,sans-Serif" font-size="10.00" fill="#000000">valorInscripcion:Entero</text>
<polygon fill="none" stroke="#000000" points=".5,-6 .5,-302 341.5,-302 341.5,-6 .5,-6"/>
<text text-anchor="start" x="109.741" y="-283" font-family="Helvetica,sans-Serif" font-size="10.00" fill="#000000">+Constructor(nombre:Texto</text>
<text text-anchor="start" x="131.822" y="-271" font-family="Helvetica,sans-Serif" font-size="10.00" fill="#000000">fechaInicio:Fecha</text>
<text text-anchor="start" x="102.6515" y="-259" font-family="Helvetica,sans-Serif" font-size="10.00" fill="#000000">fechaInicioInscripciones:Fecha</text>
<text text-anchor="start" x="100.712" y="-247" font-family="Helvetica,sans-Serif" font-size="10.00" fill="#000000">fechaCierreInscripciones:Fecha</text>
<text text-anchor="start" x="109.042" y="-235" font-family="Helvetica,sans-Serif" font-size="10.00" fill="#000000">numeroParticipantes:Entero</text>
<text text-anchor="start" x="131.5485" y="-223" font-family="Helvetica,sans-Serif" font-size="10.00" fill="#000000">limiteEdad:Entero</text>
<text text-anchor="start" x="120.1595" y="-211" font-family="Helvetica,sans-Serif" font-size="10.00" fill="#000000">valorInscripcion:Entero</text>
<text text-anchor="start" x="120.1555" y="-199" font-family="Helvetica,sans-Serif" font-size="10.00" fill="#000000">tipoTorneo:TipoTorneo</text>
<text text-anchor="start" x="10.288" y="-187" font-family="Helvetica,sans-Serif" font-size="10.00" fill="#000000">caracter:CaracterTorneo)+registrarParticipante(participante:Participante)</text>
<text text-anchor="start" x="126.1335" y="-175" font-family="Helvetica,sans-Serif" font-size="10.00" fill="#000000">+getNombre():Texto</text>
<text text-anchor="start" x="116.96" y="-163" font-family="Helvetica,sans-Serif" font-size="10.00" fill="#000000">+getFechaInicio():Fecha</text>
<text text-anchor="start" x="87.7895" y="-151" font-family="Helvetica,sans-Serif" font-size="10.00" fill="#000000">+getFechaInicioInscripciones():Fecha</text>
<text text-anchor="start" x="85.85" y="-139" font-family="Helvetica,sans-Serif" font-size="10.00" fill="#000000">+getFechaCierreInscripciones():Fecha</text>
<text text-anchor="start" x="95.015" y="-127" font-family="Helvetica,sans-Serif" font-size="10.00" fill="#000000">+getNumeroParticipantes():Entero</text>
<text text-anchor="start" x="116.6815" y="-115" font-family="Helvetica,sans-Serif" font-size="10.00" fill="#000000">+getLimiteEdad():Entero</text>
<text text-anchor="start" x="106.128" y="-103" font-family="Helvetica,sans-Serif" font-size="10.00" fill="#000000">+getValorInscripcion():Entero</text>
<text text-anchor="start" x="105.2935" y="-91" font-family="Helvetica,sans-Serif" font-size="10.00" fill="#000000">+getTipoTorneo():TipoTorneo</text>
<text text-anchor="start" x="78.6215" y="-79" font-family="Helvetica,sans-Serif" font-size="10.00" fill="#000000">+getParticipantes():Participante［*］</text>
<text text-anchor="start" x="102.2435" y="-67" font-family="Helvetica,sans-Serif" font-size="10.00" fill="#000000">+getCaracter():CaracterTorneo</text>
<text text-anchor="start" x="93.344" y="-55" font-family="Helvetica,sans-Serif" font-size="10.00" fill="#000000">+setFechaInicio(fechaInicio:Fecha)</text>
<text text-anchor="start" x="35.003" y="-43" font-family="Helvetica,sans-Serif" font-size="10.00" fill="#000000">+setFechaInicioInscripciones(fechaInicioInscripciones:Fecha)</text>
<text text-anchor="start" x="31.124" y="-31" font-family="Helvetica,sans-Serif" font-size="10.00" fill="#000000">+setFechaCierreInscripciones(fechaCierreInscripciones:Fecha)</text>
<text text-anchor="start" x="67.65" y="-19" font-family="Helvetica,sans-Serif" font-size="10.00" fill="#000000">buscarParticipante(nombre:Texto):Participante</text>
</g>
<!-- A1 -->
<g id="node2" class="node">
<title>A1</title>
<polygon fill="none" stroke="#000000" points="422.5,-354 422.5,-398 493.5,-398 493.5,-354 422.5,-354"/>
<text text-anchor="start" x="433.264" y="-379" font-family="Helvetica,sans-Serif" font-size="10.00" fill="#000000">&lt;&lt;Enum&gt;&gt;</text>
<text text-anchor="start" x="432.44" y="-367" font-family="Helvetica,sans-Serif" font-size="10.00" fill="#000000">TipoTorneo</text>
<polygon fill="none" stroke="#000000" points="422.5,-286 422.5,-354 493.5,-354 493.5,-286 422.5,-286"/>
<text text-anchor="start" x="441.6075" y="-335" font-family="Helvetica,sans-Serif" font-size="10.00" fill="#000000">LOCAL</text>
<text text-anchor="start" x="432.164" y="-323" font-family="Helvetica,sans-Serif" font-size="10.00" fill="#000000">REGIONAL</text>
<text text-anchor="start" x="432.444" y="-311" font-family="Helvetica,sans-Serif" font-size="10.00" fill="#000000">NACIONAL</text>
<text text-anchor="start" x="435.5035" y="-299" font-family="Helvetica,sans-Serif" font-size="10.00" fill="#000000">MUNDIAL</text>
</g>
<!-- A0&#45;&gt;A1 -->
<g id="edge3" class="edge">
<title>A0&#45;&gt;A1</title>
<path fill="none" stroke="#000000" d="M341.1799,-293.3644C367.4553,-304.3506 392.4687,-314.8092 412.5205,-323.1932"/>
<polygon fill="#000000" stroke="#000000" points="421.9493,-327.1356 410.9874,-327.4297 417.3363,-325.2068 412.7233,-323.278 412.7233,-323.278 412.7233,-323.278 417.3363,-325.2068 414.4593,-319.1263 421.9493,-327.1356 421.9493,-327.1356"/>
<text text-anchor="middle" x="401.9656" y="-324.9415" font-family="Helvetica,sans-Serif" font-size="10.00" fill="#000000">tipoTorneo1</text>
<text text-anchor="middle" x="361.1636" y="-289.5585" font-family="Helvetica,sans-Serif" font-size="10.00" fill="#000000">*</text>
</g>
<!-- A4 -->
<g id="node5" class="node">
<title>A4</title>
<polygon fill="none" stroke="#000000" points="574,-252 574,-296 726,-296 726,-252 574,-252"/>
<text text-anchor="start" x="619.151" y="-277" font-family="Helvetica,sans-Serif" font-size="10.00" fill="#000000">&lt;&lt;interface&gt;&gt;</text>
<text text-anchor="start" x="623.6055" y="-265" font-family="Helvetica,sans-Serif" font-size="10.00" fill="#000000">Participante</text>
<polygon fill="none" stroke="#000000" points="574,-220 574,-252 726,-252 726,-220 574,-220"/>
<text text-anchor="start" x="583.7425" y="-233" font-family="Helvetica,sans-Serif" font-size="10.00" fill="#000000">+getNombreCompleto():Texto</text>
</g>
<!-- A0&#45;&gt;A4 -->
<g id="edge4" class="edge">
<title>A0&#45;&gt;A4</title>
<path fill="none" stroke="#000000" d="M353.3637,-236.151C366.1003,-237.1204 378.7415,-238.0778 391,-239 448.5189,-243.327 513.2329,-248.0744 563.5852,-251.7414"/>
<polygon fill="none" stroke="#000000" points="353.0978,-236.1308 346.8111,-239.6631 341.1326,-235.2186 347.4193,-231.6863 353.0978,-236.1308"/>
<polygon fill="#000000" stroke="#000000" points="573.7805,-252.4834 563.4802,-256.2456 568.7937,-252.1204 563.8069,-251.7574 563.8069,-251.7574 563.8069,-251.7574 568.7937,-252.1204 564.1336,-247.2693 573.7805,-252.4834 573.7805,-252.4834"/>
<text text-anchor="middle" x="555.0886" y="-256.5977" font-family="Helvetica,sans-Serif" font-size="10.00" fill="#000000">participantes*</text>
<text text-anchor="middle" x="359.8487" y="-225.1684" font-family="Helvetica,sans-Serif" font-size="10.00" fill="#000000">1</text>
</g>
<!-- A8 -->
<g id="node9" class="node">
<title>A8</title>
<polygon fill="none" stroke="#000000" points="412.5,-80 412.5,-124 502.5,-124 502.5,-80 412.5,-80"/>
<text text-anchor="start" x="432.764" y="-105" font-family="Helvetica,sans-Serif" font-size="10.00" fill="#000000">&lt;&lt;Enum&gt;&gt;</text>
<text text-anchor="start" x="422.4965" y="-93" font-family="Helvetica,sans-Serif" font-size="10.00" fill="#000000">CaracterTorneo</text>
<polygon fill="none" stroke="#000000" points="412.5,-36 412.5,-80 502.5,-80 502.5,-36 412.5,-36"/>
<text text-anchor="start" x="429.445" y="-61" font-family="Helvetica,sans-Serif" font-size="10.00" fill="#000000">INDIVIDUAL</text>
<text text-anchor="start" x="436.943" y="-49" font-family="Helvetica,sans-Serif" font-size="10.00" fill="#000000">GRUPAL</text>
</g>
<!-- A0&#45;&gt;A8 -->
<g id="edge2" class="edge">
<title>A0&#45;&gt;A8</title>
<path fill="none" stroke="#000000" d="M341.1799,-137.5521C363.6287,-126.445 385.1564,-115.7937 403.4556,-106.7397"/>
<polygon fill="#000000" stroke="#000000" points="412.443,-102.293 405.4756,-110.761 407.9615,-104.5104 403.48,-106.7277 403.48,-106.7277 403.48,-106.7277 407.9615,-104.5104 401.4844,-102.6944 412.443,-102.293 412.443,-102.293"/>
<text text-anchor="middle" x="399.9449" y="-114.9071" font-family="Helvetica,sans-Serif" font-size="10.00" fill="#000000">caracter1</text>
<text text-anchor="middle" x="353.6779" y="-118.9381" font-family="Helvetica,sans-Serif" font-size="10.00" fill="#000000">*</text>
</g>
<!-- A11 -->
<g id="node12" class="node">
<title>A11</title>
<polygon fill="none" stroke="#000000" points="391.5,-198 391.5,-230 524.5,-230 524.5,-198 391.5,-198"/>
<text text-anchor="start" x="440.2185" y="-211" font-family="Helvetica,sans-Serif" font-size="10.00" fill="#000000">Reporte</text>
<polygon fill="none" stroke="#000000" points="391.5,-142 391.5,-198 524.5,-198 524.5,-142 391.5,-142"/>
<text text-anchor="start" x="430.4895" y="-179" font-family="Helvetica,sans-Serif" font-size="10.00" fill="#000000">fecha:Fecha</text>
<text text-anchor="start" x="401.042" y="-167" font-family="Helvetica,sans-Serif" font-size="10.00" fill="#000000">participanteA:Participante</text>
<text text-anchor="start" x="401.042" y="-155" font-family="Helvetica,sans-Serif" font-size="10.00" fill="#000000">participanteB:Participante</text>
</g>
<!-- A0&#45;&gt;A11 -->
<g id="edge1" class="edge">
<title>A0&#45;&gt;A11</title>
<path fill="none" stroke="#000000" stroke-dasharray="5,2" d="M341.1799,-200.5907C354.816,-198.8802 368.1122,-197.2124 380.5515,-195.6521"/>
<polygon fill="#000000" stroke="#000000" points="390.7875,-194.3681 381.4254,-200.0778 385.8264,-194.9905 380.8653,-195.6128 380.8653,-195.6128 380.8653,-195.6128 385.8264,-194.9905 380.3052,-191.1478 390.7875,-194.3681 390.7875,-194.3681"/>
</g>
<!-- A2 -->
<g id="node3" class="node">
<title>A2</title>
<polygon fill="none" stroke="#000000" points="1521.3483,-220 1408.2167,-220 1408.2167,-184 1521.3483,-184 1521.3483,-220"/>
<text text-anchor="middle" x="1464.7825" y="-205" font-family="Helvetica,sans-Serif" font-size="10.00" fill="#000000">&lt;&lt;interface&gt;&gt;</text>
<text text-anchor="middle" x="1464.7825" y="-193" font-family="Helvetica,sans-Serif" font-size="10.00" fill="#000000">RegistroEstadistica</text>
</g>
<!-- A3 -->
<g id="node4" class="node">
<title>A3</title>
<polygon fill="none" stroke="#000000" points="1572.065,-202 1572.065,-234 1777.065,-234 1777.065,-202 1572.065,-202"/>
<text text-anchor="start" x="1622.3395" y="-215" font-family="Helvetica,sans-Serif" font-size="10.00" fill="#000000">RegistroEstadisticaImpl</text>
<polygon fill="none" stroke="#000000" points="1572.065,-170 1572.065,-202 1777.065,-202 1777.065,-170 1572.065,-170"/>
<text text-anchor="start" x="1581.774" y="-183" font-family="Helvetica,sans-Serif" font-size="10.00" fill="#000000">estadisticas:ValorEstadistica［*］</text>
</g>
<!-- A2&#45;&gt;A3 -->
<g id="edge18" class="edge">
<title>A2&#45;&gt;A3</title>
<path fill="none" stroke="#000000" d="M1531.4446,-202C1544.2025,-202 1557.8318,-202 1571.4163,-202"/>
<polygon fill="none" stroke="#000000" points="1531.4174,-198.5001 1521.4174,-202 1531.4173,-205.5001 1531.4174,-198.5001"/>
</g>
<!-- A2&#45;&gt;A4 -->
<g id="edge17" class="edge">
<title>A2&#45;&gt;A4</title>
<path fill="none" stroke="#000000" d="M1454.7368,-229.6801C1439.3893,-268.4836 1406.6644,-339.0991 1358,-382 1294.3921,-438.0746 1266.0227,-440.7504 1183,-458 1001.1328,-495.7864 937.2466,-455.212 776,-363 743.9897,-344.6943 712.1222,-318.0399 688.4443,-296.1678"/>
<polygon fill="none" stroke="#000000" points="1458.1055,-230.6718 1458.434,-220.082 1451.5733,-228.1556 1458.1055,-230.6718"/>
</g>
<!-- A2JA9 -->
<!-- A2&#45;&gt;A2JA9 -->
<g id="edge10" class="edge">
<title>A2&#45;&gt;A2JA9</title>
<path fill="none" stroke="#000000" d="M1472.2733,-183.8518C1486.4087,-152.2077 1520.2781,-87.5859 1571.565,-59 1609.6377,-37.7794 1668.2502,-48.8345 1673.6614,-49.9176"/>
<text text-anchor="middle" x="1472.2329" y="-160.8518" font-family="Helvetica,sans-Serif" font-size="10.00" fill="#000000">*</text>
</g>
<!-- A5 -->
<g id="node6" class="node">
<title>A5</title>
<polygon fill="none" stroke="#000000" points="795.5,-322 795.5,-354 971.5,-354 971.5,-322 795.5,-322"/>
<text text-anchor="start" x="867.938" y="-335" font-family="Helvetica,sans-Serif" font-size="10.00" fill="#000000">Equipo</text>
<polygon fill="none" stroke="#000000" points="795.5,-290 795.5,-322 971.5,-322 971.5,-290 795.5,-290"/>
<text text-anchor="start" x="852.6605" y="-303" font-family="Helvetica,sans-Serif" font-size="10.00" fill="#000000">nombre:Texto</text>
<polygon fill="none" stroke="#000000" points="795.5,-210 795.5,-290 971.5,-290 971.5,-210 795.5,-210"/>
<text text-anchor="start" x="822.241" y="-271" font-family="Helvetica,sans-Serif" font-size="10.00" fill="#000000">+Constructor(nombre:Texto</text>
<text text-anchor="start" x="830.985" y="-259" font-family="Helvetica,sans-Serif" font-size="10.00" fill="#000000">representante:Persona)</text>
<text text-anchor="start" x="838.6335" y="-247" font-family="Helvetica,sans-Serif" font-size="10.00" fill="#000000">+getNombre():Texto</text>
<text text-anchor="start" x="817.5075" y="-235" font-family="Helvetica,sans-Serif" font-size="10.00" fill="#000000">+getRepresentante():Persona</text>
<text text-anchor="start" x="805.007" y="-223" font-family="Helvetica,sans-Serif" font-size="10.00" fill="#000000">+getJugadores():Jugador［*］</text>
</g>
<!-- A4&#45;&gt;A5 -->
<g id="edge9" class="edge">
<title>A4&#45;&gt;A5</title>
<path fill="none" stroke="#000000" d="M736.1057,-266.8503C755.4084,-268.8343 775.9139,-270.9419 795.3004,-272.9345"/>
<polygon fill="none" stroke="#000000" points="736.439,-263.3662 726.1335,-265.8253 735.7232,-270.3295 736.439,-263.3662"/>
</g>
<!-- A7 -->
<g id="node8" class="node">
<title>A7</title>
<polygon fill="none" stroke="#000000" points="1233.5,-193 1233.5,-225 1358.5,-225 1358.5,-193 1233.5,-193"/>
<text text-anchor="start" x="1277.938" y="-206" font-family="Helvetica,sans-Serif" font-size="10.00" fill="#000000">Jugador</text>
<polygon fill="none" stroke="#000000" points="1233.5,-161 1233.5,-193 1358.5,-193 1358.5,-161 1233.5,-161"/>
<text text-anchor="start" x="1243.489" y="-174" font-family="Helvetica,sans-Serif" font-size="10.00" fill="#000000">fechaNacimiento:Fecha</text>
</g>
<!-- A4&#45;&gt;A7 -->
<g id="edge8" class="edge">
<title>A4&#45;&gt;A7</title>
<path fill="none" stroke="#000000" d="M732.0311,-215.9235C746.379,-210.0132 761.395,-204.7013 776,-201 936.4477,-160.3378 1133.7965,-173.8583 1232.7076,-184.7777"/>
<polygon fill="none" stroke="#000000" points="730.5456,-212.7518 722.71,-219.883 733.2824,-219.1946 730.5456,-212.7518"/>
</g>
<!-- A5&#45;&gt;A2 -->
<g id="edge20" class="edge">
<title>A5&#45;&gt;A2</title>
<path fill="none" stroke="#000000" d="M936.0822,-354.3672C963.4193,-385.7781 999.7436,-419.1819 1041,-436 1099.4418,-459.8236 1123.64,-457.4337 1183,-436 1299.711,-393.8581 1402.2193,-280.0009 1444.3645,-228.2445"/>
<polygon fill="#000000" stroke="#000000" points="1450.834,-220.2011 1448.073,-230.8137 1447.7003,-224.0972 1444.5665,-227.9933 1444.5665,-227.9933 1444.5665,-227.9933 1447.7003,-224.0972 1441.06,-225.1729 1450.834,-220.2011 1450.834,-220.2011"/>
</g>
<!-- A6 -->
<g id="node7" class="node">
<title>A6</title>
<polygon fill="none" stroke="#000000" points="1041,-395 1041,-427 1183,-427 1183,-395 1041,-395"/>
<text text-anchor="start" x="1093.383" y="-408" font-family="Helvetica,sans-Serif" font-size="10.00" fill="#000000">Persona</text>
<polygon fill="none" stroke="#000000" points="1041,-327 1041,-395 1183,-395 1183,-327 1041,-327"/>
<text text-anchor="start" x="1081.1605" y="-376" font-family="Helvetica,sans-Serif" font-size="10.00" fill="#000000">nombre:Texto</text>
<text text-anchor="start" x="1080.8815" y="-364" font-family="Helvetica,sans-Serif" font-size="10.00" fill="#000000">apellido:Texto</text>
<text text-anchor="start" x="1086.165" y="-352" font-family="Helvetica,sans-Serif" font-size="10.00" fill="#000000">email:Texto</text>
<text text-anchor="start" x="1083.3855" y="-340" font-family="Helvetica,sans-Serif" font-size="10.00" fill="#000000">celular:Texto</text>
<polygon fill="none" stroke="#000000" points="1041,-211 1041,-327 1183,-327 1183,-211 1041,-211"/>
<text text-anchor="start" x="1050.741" y="-308" font-family="Helvetica,sans-Serif" font-size="10.00" fill="#000000">+Constructor(nombre:Texto</text>
<text text-anchor="start" x="1080.8815" y="-296" font-family="Helvetica,sans-Serif" font-size="10.00" fill="#000000">apellido:Texto</text>
<text text-anchor="start" x="1086.165" y="-284" font-family="Helvetica,sans-Serif" font-size="10.00" fill="#000000">email:Texto</text>
<text text-anchor="start" x="1081.721" y="-272" font-family="Helvetica,sans-Serif" font-size="10.00" fill="#000000">celular:Texto)</text>
<text text-anchor="start" x="1067.1335" y="-260" font-family="Helvetica,sans-Serif" font-size="10.00" fill="#000000">+getNombre():Texto</text>
<text text-anchor="start" x="1067.1295" y="-248" font-family="Helvetica,sans-Serif" font-size="10.00" fill="#000000">+getApellido():Texto</text>
<text text-anchor="start" x="1072.413" y="-236" font-family="Helvetica,sans-Serif" font-size="10.00" fill="#000000">+getEmail():Texto</text>
<text text-anchor="start" x="1069.079" y="-224" font-family="Helvetica,sans-Serif" font-size="10.00" fill="#000000">+getCelular():Texto</text>
</g>
<!-- A5&#45;&gt;A6 -->
<g id="edge5" class="edge">
<title>A5&#45;&gt;A6</title>
<path fill="none" stroke="#000000" d="M983.4269,-298.1807C999.2379,-300.7409 1015.4208,-303.3614 1030.7384,-305.8417"/>
<polygon fill="none" stroke="#000000" points="983.3629,-298.1704 976.8007,-301.1599 971.5172,-296.2522 978.0795,-293.2628 983.3629,-298.1704"/>
<polygon fill="#000000" stroke="#000000" points="1040.6667,-307.4493 1030.076,-310.2929 1035.731,-306.6501 1030.7953,-305.8508 1030.7953,-305.8508 1030.7953,-305.8508 1035.731,-306.6501 1031.5146,-301.4087 1040.6667,-307.4493 1040.6667,-307.4493"/>
<text text-anchor="middle" x="1021.4226" y="-309.8957" font-family="Helvetica,sans-Serif" font-size="10.00" fill="#000000">representante1</text>
<text text-anchor="middle" x="990.7614" y="-287.8059" font-family="Helvetica,sans-Serif" font-size="10.00" fill="#000000">1</text>
</g>
<!-- A5&#45;&gt;A7 -->
<g id="edge7" class="edge">
<title>A5&#45;&gt;A7</title>
<path fill="none" stroke="#000000" d="M982.5711,-223.5877C1001.4158,-214.8376 1021.3896,-207.063 1041,-202 1100.8977,-186.5356 1171.3478,-185.2873 1222.9213,-187.3347"/>
<polygon fill="none" stroke="#000000" points="982.438,-223.6515 978.757,-229.8523 971.6173,-228.8393 975.2984,-222.6385 982.438,-223.6515"/>
<polygon fill="#000000" stroke="#000000" points="1232.9756,-187.7849 1222.7843,-191.833 1227.9806,-187.5612 1222.9856,-187.3375 1222.9856,-187.3375 1222.9856,-187.3375 1227.9806,-187.5612 1223.187,-182.842 1232.9756,-187.7849 1232.9756,-187.7849"/>
<text text-anchor="middle" x="1214.4895" y="-192.418" font-family="Helvetica,sans-Serif" font-size="10.00" fill="#000000">jugador*</text>
<text text-anchor="middle" x="984.308" y="-210.3814" font-family="Helvetica,sans-Serif" font-size="10.00" fill="#000000">1</text>
</g>
<!-- A6&#45;&gt;A7 -->
<g id="edge6" class="edge">
<title>A6&#45;&gt;A7</title>
<path fill="none" stroke="#000000" d="M1191.5114,-264.4036C1211.0165,-251.0105 1231.273,-237.1014 1248.6693,-225.1562"/>
<polygon fill="none" stroke="#000000" points="1189.471,-261.5589 1183.2085,-270.1048 1193.4334,-267.3295 1189.471,-261.5589"/>
</g>
<!-- A7&#45;&gt;A2 -->
<g id="edge19" class="edge">
<title>A7&#45;&gt;A2</title>
<path fill="none" stroke="#000000" d="M1358.0536,-196.3257C1370.9848,-197.0132 1384.6555,-197.74 1397.7393,-198.4356"/>
<polygon fill="#000000" stroke="#000000" points="1408.081,-198.9854 1397.8562,-202.9481 1403.0881,-198.7199 1398.0951,-198.4544 1398.0951,-198.4544 1398.0951,-198.4544 1403.0881,-198.7199 1398.3341,-193.9608 1408.081,-198.9854 1408.081,-198.9854"/>
</g>
<!-- A9 -->
<g id="node10" class="node">
<title>A9</title>
<polygon fill="none" stroke="#000000" points="1827.065,-50 1827.065,-82 1908.065,-82 1908.065,-50 1827.065,-50"/>
<text text-anchor="start" x="1843.394" y="-63" font-family="Helvetica,sans-Serif" font-size="10.00" fill="#000000">Estadistica</text>
<polygon fill="none" stroke="#000000" points="1827.065,-18 1827.065,-50 1908.065,-50 1908.065,-18 1827.065,-18"/>
<text text-anchor="start" x="1836.7255" y="-31" font-family="Helvetica,sans-Serif" font-size="10.00" fill="#000000">nombre:Texto</text>
</g>
<!-- A13 -->
<g id="node14" class="node">
<title>A13</title>
<polygon fill="none" stroke="#000000" points="1958.065,-56 1958.065,-100 2045.065,-100 2045.065,-56 1958.065,-56"/>
<text text-anchor="start" x="1976.829" y="-81" font-family="Helvetica,sans-Serif" font-size="10.00" fill="#000000">&lt;&lt;Enum&gt;&gt;</text>
<text text-anchor="start" x="1967.671" y="-69" font-family="Helvetica,sans-Serif" font-size="10.00" fill="#000000">TipoEstadistica</text>
<polygon fill="none" stroke="#000000" points="1958.065,0 1958.065,-56 2045.065,-56 2045.065,0 1958.065,0"/>
<text text-anchor="start" x="1978.504" y="-37" font-family="Helvetica,sans-Serif" font-size="10.00" fill="#000000">POSITIVA</text>
<text text-anchor="start" x="1976.284" y="-25" font-family="Helvetica,sans-Serif" font-size="10.00" fill="#000000">NEGATIVA</text>
<text text-anchor="start" x="1981.013" y="-13" font-family="Helvetica,sans-Serif" font-size="10.00" fill="#000000">NEUTRA</text>
</g>
<!-- A9&#45;&gt;A13 -->
<g id="edge13" class="edge">
<title>A9&#45;&gt;A13</title>
<path fill="none" stroke="#000000" d="M1907.6331,-50C1920.0326,-50 1933.8705,-50 1947.0168,-50"/>
<polygon fill="#000000" stroke="#000000" points="1957.3709,-50 1947.371,-54.5001 1952.3709,-50 1947.3709,-50.0001 1947.3709,-50.0001 1947.3709,-50.0001 1952.3709,-50 1947.3709,-45.5001 1957.3709,-50 1957.3709,-50"/>
<text text-anchor="middle" x="1939.2448" y="-55.4524" font-family="Helvetica,sans-Serif" font-size="10.00" fill="#000000">tipo1</text>
<text text-anchor="middle" x="1925.7592" y="-38.5476" font-family="Helvetica,sans-Serif" font-size="10.00" fill="#000000">*</text>
</g>
<!-- A10 -->
<g id="node11" class="node">
<title>A10</title>
<polygon fill="none" stroke="#000000" points="1615.065,-112 1615.065,-144 1733.065,-144 1733.065,-112 1615.065,-112"/>
<text text-anchor="start" x="1631.2825" y="-125" font-family="Helvetica,sans-Serif" font-size="10.00" fill="#000000">RegistroEstadistica</text>
<polygon fill="none" stroke="#000000" points="1615.065,-68 1615.065,-112 1733.065,-112 1733.065,-68 1615.065,-68"/>
<text text-anchor="start" x="1651.5645" y="-93" font-family="Helvetica,sans-Serif" font-size="10.00" fill="#000000">valor:Real</text>
<text text-anchor="start" x="1624.8885" y="-81" font-family="Helvetica,sans-Serif" font-size="10.00" fill="#000000">estadistica:Estadistica</text>
</g>
<!-- A10&#45;&gt;A2JA9 -->
<g id="edge12" class="edge">
<title>A10&#45;&gt;A2JA9</title>
<path fill="none" stroke="#000000" stroke-dasharray="5,2" d="M1674.065,-67.8008C1674.065,-65.3591 1674.065,-62.9174 1674.065,-60.4756"/>
<polygon fill="#000000" stroke="#000000" points="1674.065,-50.4375 1678.5651,-60.4375 1674.065,-55.4375 1674.0651,-60.4375 1674.0651,-60.4375 1674.0651,-60.4375 1674.065,-55.4375 1669.5651,-60.4375 1674.065,-50.4375 1674.065,-50.4375"/>
</g>
<!-- A11&#45;&gt;A4 -->
<g id="edge16" class="edge">
<title>A11&#45;&gt;A4</title>
<path fill="none" stroke="#000000" d="M535.502,-215.1748C545.0035,-218.7286 554.7512,-222.3745 564.3563,-225.967"/>
<polygon fill="none" stroke="#000000" points="535.2567,-215.0831 528.2356,-216.7276 524.0171,-210.8791 531.0382,-209.2346 535.2567,-215.0831"/>
<polygon fill="#000000" stroke="#000000" points="573.8995,-229.5364 562.9567,-230.248 569.2163,-227.7848 564.5332,-226.0331 564.5332,-226.0331 564.5332,-226.0331 569.2163,-227.7848 566.1097,-221.8183 573.8995,-229.5364 573.8995,-229.5364"/>
<text text-anchor="middle" x="553.9609" y="-228.1031" font-family="Helvetica,sans-Serif" font-size="10.00" fill="#000000">2</text>
<text text-anchor="middle" x="543.9557" y="-206.3124" font-family="Helvetica,sans-Serif" font-size="10.00" fill="#000000">*</text>
</g>
<!-- A12 -->
<g id="node13" class="node">
<title>A12</title>
<polygon fill="none" stroke="#000000" points="776.5,-85 776.5,-117 991.5,-117 991.5,-85 776.5,-85"/>
<text text-anchor="start" x="847.607" y="-98" font-family="Helvetica,sans-Serif" font-size="10.00" fill="#000000">RegistroReporte</text>
<polygon fill="none" stroke="#000000" points="776.5,-41 776.5,-85 991.5,-85 991.5,-41 776.5,-41"/>
<text text-anchor="start" x="786.483" y="-66" font-family="Helvetica,sans-Serif" font-size="10.00" fill="#000000">estadisticaParticipanteA:ValorEstadistica</text>
<text text-anchor="start" x="786.483" y="-54" font-family="Helvetica,sans-Serif" font-size="10.00" fill="#000000">estadisticaParticipanteB:ValorEstadistica</text>
</g>
<!-- A11&#45;&gt;A12 -->
<g id="edge14" class="edge">
<title>A11&#45;&gt;A12</title>
<path fill="none" stroke="#000000" d="M535.8465,-166.3214C600.2656,-150.141 692.5391,-126.9644 765.8357,-108.5542"/>
<polygon fill="none" stroke="#000000" points="535.701,-166.3579 530.8562,-171.6991 524.0625,-169.2813 528.9073,-163.9401 535.701,-166.3579"/>
<polygon fill="#000000" stroke="#000000" points="775.5893,-106.1043 766.9868,-112.9049 770.7399,-107.3224 765.8905,-108.5405 765.8905,-108.5405 765.8905,-108.5405 770.7399,-107.3224 764.7943,-104.176 775.5893,-106.1043 775.5893,-106.1043"/>
<text text-anchor="middle" x="760.0682" y="-115.7177" font-family="Helvetica,sans-Serif" font-size="10.00" fill="#000000">registros*</text>
<text text-anchor="middle" x="539.5835" y="-153.6679" font-family="Helvetica,sans-Serif" font-size="10.00" fill="#000000">1</text>
</g>
<!-- A12&#45;&gt;A10 -->
<g id="edge15" class="edge">
<title>A12&#45;&gt;A10</title>
<path fill="none" stroke="#000000" d="M1003.4849,-83.0978C1170.9755,-88.8181 1469.458,-99.0121 1604.405,-103.6209"/>
<polygon fill="none" stroke="#000000" points="1003.3472,-83.0932 997.2141,-86.886 991.3542,-82.6835 997.4872,-78.8907 1003.3472,-83.0932"/>
<polygon fill="#000000" stroke="#000000" points="1614.6138,-103.9696 1604.466,-108.1255 1609.6167,-103.7989 1604.6196,-103.6282 1604.6196,-103.6282 1604.6196,-103.6282 1609.6167,-103.7989 1604.7733,-99.1308 1614.6138,-103.9696 1614.6138,-103.9696"/>
<text text-anchor="middle" x="1596.2097" y="-108.7983" font-family="Helvetica,sans-Serif" font-size="10.00" fill="#000000">2</text>
<text text-anchor="middle" x="1009.7583" y="-71.8548" font-family="Helvetica,sans-Serif" font-size="10.00" fill="#000000">*</text>
</g>
<!-- A2JA9&#45;&gt;A9 -->
<g id="edge11" class="edge">
<title>A2JA9&#45;&gt;A9</title>
<path fill="none" stroke="#000000" d="M1674.6186,-50C1682.0133,-50 1761.8619,-50 1816.3534,-50"/>
<polygon fill="#000000" stroke="#000000" points="1826.5471,-50 1816.5471,-54.5001 1821.5471,-50 1816.5471,-50.0001 1816.5471,-50.0001 1816.5471,-50.0001 1821.5471,-50 1816.547,-45.5001 1826.5471,-50 1826.5471,-50"/>
<text text-anchor="middle" x="1808.4209" y="-55.4524" font-family="Helvetica,sans-Serif" font-size="10.00" fill="#000000">*</text>
</g>
</g>
</svg>
