<?xml version="1.0" encoding="UTF-8" standalone="no"?>
<!DOCTYPE svg PUBLIC "-//W3C//DTD SVG 1.1//EN"
 "http://www.w3.org/Graphics/SVG/1.1/DTD/svg11.dtd">
<!-- Generated by graphviz version 2.40.1 (20161225.0304)
 -->
<!-- Title: G Pages: 1 -->
<svg width="2331pt" height="533pt"
 viewBox="0.00 0.00 2331.00 533.12" xmlns="http://www.w3.org/2000/svg" xmlns:xlink="http://www.w3.org/1999/xlink">
<g id="graph0" class="graph" transform="scale(1 1) rotate(0) translate(4 529.1177)">
<title>G</title>
<polygon fill="#ffffff" stroke="transparent" points="-4,4 -4,-529.1177 2327,-529.1177 2327,4 -4,4"/>
<!-- A0 -->
<g id="node1" class="node">
<title>A0</title>
<polygon fill="none" stroke="#000000" points=".5,-479 .5,-511 341.5,-511 341.5,-479 .5,-479"/>
<text text-anchor="start" x="155.163" y="-492" font-family="Helvetica,sans-Serif" font-size="10.00" fill="#000000">Torneo</text>
<polygon fill="none" stroke="#000000" points=".5,-375 .5,-479 341.5,-479 341.5,-375 .5,-375"/>
<text text-anchor="start" x="140.1605" y="-460" font-family="Helvetica,sans-Serif" font-size="10.00" fill="#000000">nombre:Texto</text>
<text text-anchor="start" x="131.822" y="-448" font-family="Helvetica,sans-Serif" font-size="10.00" fill="#000000">fechaInicio:Fecha</text>
<text text-anchor="start" x="102.6515" y="-436" font-family="Helvetica,sans-Serif" font-size="10.00" fill="#000000">fechaInicioInscripciones:Fecha</text>
<text text-anchor="start" x="100.712" y="-424" font-family="Helvetica,sans-Serif" font-size="10.00" fill="#000000">fechaCierreInscripciones:Fecha</text>
<text text-anchor="start" x="109.042" y="-412" font-family="Helvetica,sans-Serif" font-size="10.00" fill="#000000">numeroParticipantes:Entero</text>
<text text-anchor="start" x="131.5485" y="-400" font-family="Helvetica,sans-Serif" font-size="10.00" fill="#000000">limiteEdad:Entero</text>
<text text-anchor="start" x="120.1595" y="-388" font-family="Helvetica,sans-Serif" font-size="10.00" fill="#000000">valorInscripcion:Entero</text>
<polygon fill="none" stroke="#000000" points=".5,-19 .5,-375 341.5,-375 341.5,-19 .5,-19"/>
<text text-anchor="start" x="109.741" y="-356" font-family="Helvetica,sans-Serif" font-size="10.00" fill="#000000">+Constructor(nombre:Texto</text>
<text text-anchor="start" x="131.822" y="-344" font-family="Helvetica,sans-Serif" font-size="10.00" fill="#000000">fechaInicio:Fecha</text>
<text text-anchor="start" x="102.6515" y="-332" font-family="Helvetica,sans-Serif" font-size="10.00" fill="#000000">fechaInicioInscripciones:Fecha</text>
<text text-anchor="start" x="100.712" y="-320" font-family="Helvetica,sans-Serif" font-size="10.00" fill="#000000">fechaCierreInscripciones:Fecha</text>
<text text-anchor="start" x="109.042" y="-308" font-family="Helvetica,sans-Serif" font-size="10.00" fill="#000000">numeroParticipantes:Entero</text>
<text text-anchor="start" x="131.5485" y="-296" font-family="Helvetica,sans-Serif" font-size="10.00" fill="#000000">limiteEdad:Entero</text>
<text text-anchor="start" x="120.1595" y="-284" font-family="Helvetica,sans-Serif" font-size="10.00" fill="#000000">valorInscripcion:Entero</text>
<text text-anchor="start" x="120.1555" y="-272" font-family="Helvetica,sans-Serif" font-size="10.00" fill="#000000">tipoTorneo:TipoTorneo</text>
<text text-anchor="start" x="10.288" y="-260" font-family="Helvetica,sans-Serif" font-size="10.00" fill="#000000">caracter:CaracterTorneo)+registrarParticipante(participante:Participante)</text>
<text text-anchor="start" x="126.1335" y="-248" font-family="Helvetica,sans-Serif" font-size="10.00" fill="#000000">+getNombre():Texto</text>
<text text-anchor="start" x="116.96" y="-236" font-family="Helvetica,sans-Serif" font-size="10.00" fill="#000000">+getFechaInicio():Fecha</text>
<text text-anchor="start" x="87.7895" y="-224" font-family="Helvetica,sans-Serif" font-size="10.00" fill="#000000">+getFechaInicioInscripciones():Fecha</text>
<text text-anchor="start" x="85.85" y="-212" font-family="Helvetica,sans-Serif" font-size="10.00" fill="#000000">+getFechaCierreInscripciones():Fecha</text>
<text text-anchor="start" x="95.015" y="-200" font-family="Helvetica,sans-Serif" font-size="10.00" fill="#000000">+getNumeroParticipantes():Entero</text>
<text text-anchor="start" x="116.6815" y="-188" font-family="Helvetica,sans-Serif" font-size="10.00" fill="#000000">+getLimiteEdad():Entero</text>
<text text-anchor="start" x="106.128" y="-176" font-family="Helvetica,sans-Serif" font-size="10.00" fill="#000000">+getValorInscripcion():Entero</text>
<text text-anchor="start" x="105.2935" y="-164" font-family="Helvetica,sans-Serif" font-size="10.00" fill="#000000">+getTipoTorneo():TipoTorneo</text>
<text text-anchor="start" x="78.6215" y="-152" font-family="Helvetica,sans-Serif" font-size="10.00" fill="#000000">+getParticipantes():Participante［*］</text>
<text text-anchor="start" x="102.2435" y="-140" font-family="Helvetica,sans-Serif" font-size="10.00" fill="#000000">+getCaracter():CaracterTorneo</text>
<text text-anchor="start" x="93.344" y="-128" font-family="Helvetica,sans-Serif" font-size="10.00" fill="#000000">+setFechaInicio(fechaInicio:Fecha)</text>
<text text-anchor="start" x="35.003" y="-116" font-family="Helvetica,sans-Serif" font-size="10.00" fill="#000000">+setFechaInicioInscripciones(fechaInicioInscripciones:Fecha)</text>
<text text-anchor="start" x="31.124" y="-104" font-family="Helvetica,sans-Serif" font-size="10.00" fill="#000000">+setFechaCierreInscripciones(fechaCierreInscripciones:Fecha)</text>
<text text-anchor="start" x="67.65" y="-92" font-family="Helvetica,sans-Serif" font-size="10.00" fill="#000000">buscarParticipante(nombre:Texto):Participante</text>
<text text-anchor="start" x="58.8875" y="-80" font-family="Helvetica,sans-Serif" font-size="10.00" fill="#000000">+registrarJugador(equipo:Equipo,jugador:Jugador)</text>
<text text-anchor="start" x="44.4445" y="-68" font-family="Helvetica,sans-Serif" font-size="10.00" fill="#000000">+registrarJugador(nombreEquipo:Texto,jugador:Jugador)</text>
<text text-anchor="start" x="43.896" y="-56" font-family="Helvetica,sans-Serif" font-size="10.00" fill="#000000">+registrarEstadisticaParticipante(participante:Participante</text>
<text text-anchor="start" x="108.4915" y="-44" font-family="Helvetica,sans-Serif" font-size="10.00" fill="#000000">estadistica:ValorEstadistica)</text>
<text text-anchor="start" x="83.0685" y="-32" font-family="Helvetica,sans-Serif" font-size="10.00" fill="#000000">+getEstadisticas():Estadistica［*］</text>
</g>
<!-- A1 -->
<g id="node2" class="node">
<title>A1</title>
<polygon fill="none" stroke="#000000" points="422.5,-397 422.5,-441 493.5,-441 493.5,-397 422.5,-397"/>
<text text-anchor="start" x="433.264" y="-422" font-family="Helvetica,sans-Serif" font-size="10.00" fill="#000000">&lt;&lt;Enum&gt;&gt;</text>
<text text-anchor="start" x="432.44" y="-410" font-family="Helvetica,sans-Serif" font-size="10.00" fill="#000000">TipoTorneo</text>
<polygon fill="none" stroke="#000000" points="422.5,-329 422.5,-397 493.5,-397 493.5,-329 422.5,-329"/>
<text text-anchor="start" x="441.6075" y="-378" font-family="Helvetica,sans-Serif" font-size="10.00" fill="#000000">LOCAL</text>
<text text-anchor="start" x="432.164" y="-366" font-family="Helvetica,sans-Serif" font-size="10.00" fill="#000000">REGIONAL</text>
<text text-anchor="start" x="432.444" y="-354" font-family="Helvetica,sans-Serif" font-size="10.00" fill="#000000">NACIONAL</text>
<text text-anchor="start" x="435.5035" y="-342" font-family="Helvetica,sans-Serif" font-size="10.00" fill="#000000">MUNDIAL</text>
</g>
<!-- A0&#45;&gt;A1 -->
<g id="edge3" class="edge">
<title>A0&#45;&gt;A1</title>
<path fill="none" stroke="#000000" d="M341.1799,-336.3644C367.4553,-347.3506 392.4687,-357.8092 412.5205,-366.1932"/>
<polygon fill="#000000" stroke="#000000" points="421.9493,-370.1356 410.9874,-370.4297 417.3363,-368.2068 412.7233,-366.278 412.7233,-366.278 412.7233,-366.278 417.3363,-368.2068 414.4593,-362.1263 421.9493,-370.1356 421.9493,-370.1356"/>
<text text-anchor="middle" x="401.9656" y="-367.9415" font-family="Helvetica,sans-Serif" font-size="10.00" fill="#000000">tipoTorneo1</text>
<text text-anchor="middle" x="361.1636" y="-332.5585" font-family="Helvetica,sans-Serif" font-size="10.00" fill="#000000">*</text>
</g>
<!-- A4 -->
<g id="node5" class="node">
<title>A4</title>
<polygon fill="none" stroke="#000000" points="574,-301 574,-345 794,-345 794,-301 574,-301"/>
<text text-anchor="start" x="653.151" y="-326" font-family="Helvetica,sans-Serif" font-size="10.00" fill="#000000">&lt;&lt;interface&gt;&gt;</text>
<text text-anchor="start" x="657.6055" y="-314" font-family="Helvetica,sans-Serif" font-size="10.00" fill="#000000">Participante</text>
<polygon fill="none" stroke="#000000" points="574,-257 574,-301 794,-301 794,-257 574,-257"/>
<text text-anchor="start" x="617.7425" y="-282" font-family="Helvetica,sans-Serif" font-size="10.00" fill="#000000">+getNombreCompleto():Texto</text>
<text text-anchor="start" x="583.8485" y="-270" font-family="Helvetica,sans-Serif" font-size="10.00" fill="#000000">+getRegistroEstadistica():RegistroEstadistica</text>
</g>
<!-- A0&#45;&gt;A4 -->
<g id="edge4" class="edge">
<title>A0&#45;&gt;A4</title>
<path fill="none" stroke="#000000" d="M353.355,-279.2702C366.0936,-280.2113 378.7377,-281.1298 391,-282 447.725,-286.0257 510.6528,-290.151 563.605,-293.5245"/>
<polygon fill="none" stroke="#000000" points="353.0891,-279.2506 346.8094,-282.7953 341.1221,-278.3619 347.4018,-274.8172 353.0891,-279.2506"/>
<polygon fill="#000000" stroke="#000000" points="573.7146,-294.1672 563.4492,-298.0236 568.7246,-293.8499 563.7347,-293.5327 563.7347,-293.5327 563.7347,-293.5327 568.7246,-293.8499 564.0202,-289.0417 573.7146,-294.1672 573.7146,-294.1672"/>
<text text-anchor="middle" x="555.0887" y="-298.4526" font-family="Helvetica,sans-Serif" font-size="10.00" fill="#000000">participantes*</text>
<text text-anchor="middle" x="359.8243" y="-268.275" font-family="Helvetica,sans-Serif" font-size="10.00" fill="#000000">1</text>
</g>
<!-- A8 -->
<g id="node9" class="node">
<title>A8</title>
<polygon fill="none" stroke="#000000" points="412.5,-123 412.5,-167 502.5,-167 502.5,-123 412.5,-123"/>
<text text-anchor="start" x="432.764" y="-148" font-family="Helvetica,sans-Serif" font-size="10.00" fill="#000000">&lt;&lt;Enum&gt;&gt;</text>
<text text-anchor="start" x="422.4965" y="-136" font-family="Helvetica,sans-Serif" font-size="10.00" fill="#000000">CaracterTorneo</text>
<polygon fill="none" stroke="#000000" points="412.5,-79 412.5,-123 502.5,-123 502.5,-79 412.5,-79"/>
<text text-anchor="start" x="429.445" y="-104" font-family="Helvetica,sans-Serif" font-size="10.00" fill="#000000">INDIVIDUAL</text>
<text text-anchor="start" x="436.943" y="-92" font-family="Helvetica,sans-Serif" font-size="10.00" fill="#000000">GRUPAL</text>
</g>
<!-- A0&#45;&gt;A8 -->
<g id="edge2" class="edge">
<title>A0&#45;&gt;A8</title>
<path fill="none" stroke="#000000" d="M341.1799,-180.5521C363.6287,-169.445 385.1564,-158.7937 403.4556,-149.7397"/>
<polygon fill="#000000" stroke="#000000" points="412.443,-145.293 405.4756,-153.761 407.9615,-147.5104 403.48,-149.7277 403.48,-149.7277 403.48,-149.7277 407.9615,-147.5104 401.4844,-145.6944 412.443,-145.293 412.443,-145.293"/>
<text text-anchor="middle" x="399.9449" y="-157.9071" font-family="Helvetica,sans-Serif" font-size="10.00" fill="#000000">caracter1</text>
<text text-anchor="middle" x="353.6779" y="-161.9381" font-family="Helvetica,sans-Serif" font-size="10.00" fill="#000000">*</text>
</g>
<!-- A11 -->
<g id="node12" class="node">
<title>A11</title>
<polygon fill="none" stroke="#000000" points="391.5,-241 391.5,-273 524.5,-273 524.5,-241 391.5,-241"/>
<text text-anchor="start" x="440.2185" y="-254" font-family="Helvetica,sans-Serif" font-size="10.00" fill="#000000">Reporte</text>
<polygon fill="none" stroke="#000000" points="391.5,-185 391.5,-241 524.5,-241 524.5,-185 391.5,-185"/>
<text text-anchor="start" x="430.4895" y="-222" font-family="Helvetica,sans-Serif" font-size="10.00" fill="#000000">fecha:Fecha</text>
<text text-anchor="start" x="401.042" y="-210" font-family="Helvetica,sans-Serif" font-size="10.00" fill="#000000">participanteA:Participante</text>
<text text-anchor="start" x="401.042" y="-198" font-family="Helvetica,sans-Serif" font-size="10.00" fill="#000000">participanteB:Participante</text>
</g>
<!-- A0&#45;&gt;A11 -->
<g id="edge1" class="edge">
<title>A0&#45;&gt;A11</title>
<path fill="none" stroke="#000000" stroke-dasharray="5,2" d="M341.1799,-243.5907C354.816,-241.8802 368.1122,-240.2124 380.5515,-238.6521"/>
<polygon fill="#000000" stroke="#000000" points="390.7875,-237.3681 381.4254,-243.0778 385.8264,-237.9905 380.8653,-238.6128 380.8653,-238.6128 380.8653,-238.6128 385.8264,-237.9905 380.3052,-234.1478 390.7875,-237.3681 390.7875,-237.3681"/>
</g>
<!-- A2 -->
<g id="node3" class="node">
<title>A2</title>
<polygon fill="none" stroke="#000000" points="1514.5,-350 1514.5,-394 1753.5,-394 1753.5,-350 1514.5,-350"/>
<text text-anchor="start" x="1603.151" y="-375" font-family="Helvetica,sans-Serif" font-size="10.00" fill="#000000">&lt;&lt;interface&gt;&gt;</text>
<text text-anchor="start" x="1591.2175" y="-363" font-family="Helvetica,sans-Serif" font-size="10.00" fill="#000000">RegistroEstadistica</text>
<polygon fill="none" stroke="#000000" points="1514.5,-282 1514.5,-350 1753.5,-350 1753.5,-282 1514.5,-282"/>
<text text-anchor="start" x="1534.401" y="-331" font-family="Helvetica,sans-Serif" font-size="10.00" fill="#000000">+getEstadisticas():ValorEstadistica［*］</text>
<text text-anchor="start" x="1524.4055" y="-319" font-family="Helvetica,sans-Serif" font-size="10.00" fill="#000000">+registrarEstadistica(estadistica:ValorEstadistica)</text>
<text text-anchor="start" x="1554.681" y="-307" font-family="Helvetica,sans-Serif" font-size="10.00" fill="#000000">+comparar(participante:Participante</text>
<text text-anchor="start" x="1567.0425" y="-295" font-family="Helvetica,sans-Serif" font-size="10.00" fill="#000000">estadistica:Estadistica):Entero</text>
</g>
<!-- A3 -->
<g id="node4" class="node">
<title>A3</title>
<polygon fill="none" stroke="#000000" points="1803.5,-354 1803.5,-386 1994.5,-386 1994.5,-354 1803.5,-354"/>
<text text-anchor="start" x="1846.7745" y="-367" font-family="Helvetica,sans-Serif" font-size="10.00" fill="#000000">RegistroEstadisticaImpl</text>
<polygon fill="none" stroke="#000000" points="1803.5,-322 1803.5,-354 1994.5,-354 1994.5,-322 1803.5,-322"/>
<text text-anchor="start" x="1813.153" y="-335" font-family="Helvetica,sans-Serif" font-size="10.00" fill="#000000">estadisticas:ValorEstadistica［*］</text>
<polygon fill="none" stroke="#000000" points="1803.5,-290 1803.5,-322 1994.5,-322 1994.5,-290 1803.5,-290"/>
<text text-anchor="start" x="1866.916" y="-303" font-family="Helvetica,sans-Serif" font-size="10.00" fill="#000000">+Constructor()</text>
</g>
<!-- A2&#45;&gt;A3 -->
<g id="edge18" class="edge">
<title>A2&#45;&gt;A3</title>
<path fill="none" stroke="#000000" d="M1763.3459,-338C1776.6241,-338 1789.9379,-338 1802.7536,-338"/>
<polygon fill="none" stroke="#000000" points="1763.2077,-334.5001 1753.2077,-338 1763.2076,-341.5001 1763.2077,-334.5001"/>
</g>
<!-- A2&#45;&gt;A4 -->
<g id="edge17" class="edge">
<title>A2&#45;&gt;A4</title>
<path fill="none" stroke="#000000" d="M1575.1453,-401.5049C1544.9137,-430.1951 1505.6474,-461.5182 1464,-479 1312.4884,-542.5982 1256.9391,-529.8605 1095,-502 978.3529,-481.9317 949.2174,-467.2087 844,-413 807.0762,-393.9766 768.8533,-367.5138 739.0292,-345.0872"/>
<polygon fill="none" stroke="#000000" points="1577.8685,-403.7408 1582.6326,-394.2775 1573.007,-398.7044 1577.8685,-403.7408"/>
</g>
<!-- A2JA9 -->
<!-- A2&#45;&gt;A2JA9 -->
<g id="edge10" class="edge">
<title>A2&#45;&gt;A2JA9</title>
<path fill="none" stroke="#000000" d="M1652.6068,-281.8241C1676.9681,-219.6812 1725.4797,-122.1168 1803,-75 1837.7234,-53.8951 1893.012,-64.8454 1898.119,-65.9184"/>
<text text-anchor="middle" x="1651.6569" y="-258.8467" font-family="Helvetica,sans-Serif" font-size="10.00" fill="#000000">*</text>
</g>
<!-- A5 -->
<g id="node6" class="node">
<title>A5</title>
<polygon fill="none" stroke="#000000" points="856.5,-372 856.5,-404 1033.5,-404 1033.5,-372 856.5,-372"/>
<text text-anchor="start" x="929.438" y="-385" font-family="Helvetica,sans-Serif" font-size="10.00" fill="#000000">Equipo</text>
<polygon fill="none" stroke="#000000" points="856.5,-340 856.5,-372 1033.5,-372 1033.5,-340 856.5,-340"/>
<text text-anchor="start" x="914.1605" y="-353" font-family="Helvetica,sans-Serif" font-size="10.00" fill="#000000">nombre:Texto</text>
<polygon fill="none" stroke="#000000" points="856.5,-248 856.5,-340 1033.5,-340 1033.5,-248 856.5,-248"/>
<text text-anchor="start" x="883.741" y="-321" font-family="Helvetica,sans-Serif" font-size="10.00" fill="#000000">+Constructor(nombre:Texto</text>
<text text-anchor="start" x="892.485" y="-309" font-family="Helvetica,sans-Serif" font-size="10.00" fill="#000000">representante:Persona)</text>
<text text-anchor="start" x="900.1335" y="-297" font-family="Helvetica,sans-Serif" font-size="10.00" fill="#000000">+getNombre():Texto</text>
<text text-anchor="start" x="879.0075" y="-285" font-family="Helvetica,sans-Serif" font-size="10.00" fill="#000000">+getRepresentante():Persona</text>
<text text-anchor="start" x="866.507" y="-273" font-family="Helvetica,sans-Serif" font-size="10.00" fill="#000000">+getJugadores():Jugador［*］</text>
<text text-anchor="start" x="866.2355" y="-261" font-family="Helvetica,sans-Serif" font-size="10.00" fill="#000000">+registrarJugador(jugador:Jugador)</text>
</g>
<!-- A4&#45;&gt;A5 -->
<g id="edge9" class="edge">
<title>A4&#45;&gt;A5</title>
<path fill="none" stroke="#000000" d="M804.259,-312.5412C821.5792,-314.2034 839.1364,-315.8883 855.6958,-317.4775"/>
<polygon fill="none" stroke="#000000" points="804.3865,-309.0374 794.0979,-311.566 803.7178,-316.0054 804.3865,-309.0374"/>
</g>
<!-- A7 -->
<g id="node8" class="node">
<title>A7</title>
<polygon fill="none" stroke="#000000" points="1287.5,-344 1287.5,-376 1464.5,-376 1464.5,-344 1287.5,-344"/>
<text text-anchor="start" x="1357.938" y="-357" font-family="Helvetica,sans-Serif" font-size="10.00" fill="#000000">Jugador</text>
<polygon fill="none" stroke="#000000" points="1287.5,-312 1287.5,-344 1464.5,-344 1464.5,-312 1287.5,-312"/>
<text text-anchor="start" x="1323.489" y="-325" font-family="Helvetica,sans-Serif" font-size="10.00" fill="#000000">fechaNacimiento:Fecha</text>
<polygon fill="none" stroke="#000000" points="1287.5,-208 1287.5,-312 1464.5,-312 1464.5,-208 1287.5,-208"/>
<text text-anchor="start" x="1314.741" y="-293" font-family="Helvetica,sans-Serif" font-size="10.00" fill="#000000">+Constructor(nombre:Texto</text>
<text text-anchor="start" x="1344.8815" y="-281" font-family="Helvetica,sans-Serif" font-size="10.00" fill="#000000">apellido:Texto</text>
<text text-anchor="start" x="1350.165" y="-269" font-family="Helvetica,sans-Serif" font-size="10.00" fill="#000000">email:Texto</text>
<text text-anchor="start" x="1347.3855" y="-257" font-family="Helvetica,sans-Serif" font-size="10.00" fill="#000000">celular:Texto</text>
<text text-anchor="start" x="1321.8245" y="-245" font-family="Helvetica,sans-Serif" font-size="10.00" fill="#000000">fechaNacimiento:Fecha)</text>
<text text-anchor="start" x="1308.627" y="-233" font-family="Helvetica,sans-Serif" font-size="10.00" fill="#000000">+getFechaNacimiento():Fecha</text>
<text text-anchor="start" x="1297.2295" y="-221" font-family="Helvetica,sans-Serif" font-size="10.00" fill="#000000">+calcularEdad(fecha:Fecha):Entero</text>
</g>
<!-- A4&#45;&gt;A7 -->
<g id="edge8" class="edge">
<title>A4&#45;&gt;A7</title>
<path fill="none" stroke="#000000" d="M792.637,-253.4394C809.559,-247.634 827.054,-242.519 844,-239 1015.0735,-203.4745 1066.242,-191.9879 1237,-229 1253.6516,-232.6093 1270.7043,-238.399 1286.8991,-245.0415"/>
<polygon fill="none" stroke="#000000" points="791.0128,-250.301 782.7483,-256.9304 793.3431,-256.9018 791.0128,-250.301"/>
</g>
<!-- A5&#45;&gt;A2 -->
<g id="edge20" class="edge">
<title>A5&#45;&gt;A2</title>
<path fill="none" stroke="#000000" d="M1000.5778,-404.0812C1025.8291,-432.6731 1058.2527,-461.7431 1095,-477 1243.9001,-538.8212 1427.6573,-460.8594 1537.4519,-399.1626"/>
<polygon fill="#000000" stroke="#000000" points="1546.2071,-394.189 1539.7349,-403.0411 1541.8596,-396.6587 1537.5121,-399.1284 1537.5121,-399.1284 1537.5121,-399.1284 1541.8596,-396.6587 1535.2894,-395.2157 1546.2071,-394.189 1546.2071,-394.189"/>
</g>
<!-- A6 -->
<g id="node7" class="node">
<title>A6</title>
<polygon fill="none" stroke="#000000" points="1095,-436 1095,-468 1237,-468 1237,-436 1095,-436"/>
<text text-anchor="start" x="1147.383" y="-449" font-family="Helvetica,sans-Serif" font-size="10.00" fill="#000000">Persona</text>
<polygon fill="none" stroke="#000000" points="1095,-368 1095,-436 1237,-436 1237,-368 1095,-368"/>
<text text-anchor="start" x="1135.1605" y="-417" font-family="Helvetica,sans-Serif" font-size="10.00" fill="#000000">nombre:Texto</text>
<text text-anchor="start" x="1134.8815" y="-405" font-family="Helvetica,sans-Serif" font-size="10.00" fill="#000000">apellido:Texto</text>
<text text-anchor="start" x="1140.165" y="-393" font-family="Helvetica,sans-Serif" font-size="10.00" fill="#000000">email:Texto</text>
<text text-anchor="start" x="1137.3855" y="-381" font-family="Helvetica,sans-Serif" font-size="10.00" fill="#000000">celular:Texto</text>
<polygon fill="none" stroke="#000000" points="1095,-252 1095,-368 1237,-368 1237,-252 1095,-252"/>
<text text-anchor="start" x="1104.741" y="-349" font-family="Helvetica,sans-Serif" font-size="10.00" fill="#000000">+Constructor(nombre:Texto</text>
<text text-anchor="start" x="1134.8815" y="-337" font-family="Helvetica,sans-Serif" font-size="10.00" fill="#000000">apellido:Texto</text>
<text text-anchor="start" x="1140.165" y="-325" font-family="Helvetica,sans-Serif" font-size="10.00" fill="#000000">email:Texto</text>
<text text-anchor="start" x="1135.721" y="-313" font-family="Helvetica,sans-Serif" font-size="10.00" fill="#000000">celular:Texto)</text>
<text text-anchor="start" x="1121.1335" y="-301" font-family="Helvetica,sans-Serif" font-size="10.00" fill="#000000">+getNombre():Texto</text>
<text text-anchor="start" x="1121.1295" y="-289" font-family="Helvetica,sans-Serif" font-size="10.00" fill="#000000">+getApellido():Texto</text>
<text text-anchor="start" x="1126.413" y="-277" font-family="Helvetica,sans-Serif" font-size="10.00" fill="#000000">+getEmail():Texto</text>
<text text-anchor="start" x="1123.079" y="-265" font-family="Helvetica,sans-Serif" font-size="10.00" fill="#000000">+getCelular():Texto</text>
</g>
<!-- A5&#45;&gt;A6 -->
<g id="edge5" class="edge">
<title>A5&#45;&gt;A6</title>
<path fill="none" stroke="#000000" d="M1045.4021,-341.4884C1058.5803,-343.5112 1071.946,-345.5628 1084.7448,-347.5274"/>
<polygon fill="none" stroke="#000000" points="1045.1773,-341.4539 1038.6399,-344.4973 1033.3163,-339.6332 1039.8537,-336.5899 1045.1773,-341.4539"/>
<polygon fill="#000000" stroke="#000000" points="1094.8733,-349.0821 1084.3063,-352.0127 1089.9312,-348.3235 1084.9891,-347.5648 1084.9891,-347.5648 1084.9891,-347.5648 1089.9312,-348.3235 1085.6718,-343.1169 1094.8733,-349.0821 1094.8733,-349.0821"/>
<text text-anchor="middle" x="1075.6746" y="-351.6865" font-family="Helvetica,sans-Serif" font-size="10.00" fill="#000000">representante1</text>
<text text-anchor="middle" x="1052.515" y="-331.0288" font-family="Helvetica,sans-Serif" font-size="10.00" fill="#000000">1</text>
</g>
<!-- A5&#45;&gt;A7 -->
<g id="edge7" class="edge">
<title>A5&#45;&gt;A7</title>
<path fill="none" stroke="#000000" d="M1044.4932,-261.9545C1060.8216,-254.1428 1077.9784,-247.3825 1095,-243 1156.1179,-227.2641 1174.7989,-232.3212 1237,-243 1250.2494,-245.2747 1263.914,-248.6898 1277.2612,-252.6793"/>
<polygon fill="none" stroke="#000000" points="1044.074,-262.1633 1040.4872,-268.4192 1033.3331,-267.5144 1036.9199,-261.2585 1044.074,-262.1633"/>
<polygon fill="#000000" stroke="#000000" points="1286.9134,-255.6777 1276.0286,-257.0085 1282.1385,-254.1944 1277.3636,-252.711 1277.3636,-252.711 1277.3636,-252.711 1282.1385,-254.1944 1278.6986,-248.4136 1286.9134,-255.6777 1286.9134,-255.6777"/>
<text text-anchor="middle" x="1267.0957" y="-255.3723" font-family="Helvetica,sans-Serif" font-size="10.00" fill="#000000">jugador*</text>
<text text-anchor="middle" x="1045.7884" y="-248.8661" font-family="Helvetica,sans-Serif" font-size="10.00" fill="#000000">1</text>
</g>
<!-- A6&#45;&gt;A7 -->
<g id="edge6" class="edge">
<title>A6&#45;&gt;A7</title>
<path fill="none" stroke="#000000" d="M1247.034,-333.6978C1260.0178,-329.4835 1273.5146,-325.1026 1286.6686,-320.8331"/>
<polygon fill="none" stroke="#000000" points="1245.6504,-330.4671 1237.2195,-336.8834 1247.8116,-337.1251 1245.6504,-330.4671"/>
</g>
<!-- A7&#45;&gt;A2 -->
<g id="edge19" class="edge">
<title>A7&#45;&gt;A2</title>
<path fill="none" stroke="#000000" d="M1464.289,-307.8306C1476.9498,-310.0879 1490.1848,-312.4477 1503.4347,-314.8101"/>
<polygon fill="#000000" stroke="#000000" points="1513.5607,-316.6155 1502.9261,-319.2903 1508.6383,-315.7378 1503.716,-314.8601 1503.716,-314.8601 1503.716,-314.8601 1508.6383,-315.7378 1504.5059,-310.43 1513.5607,-316.6155 1513.5607,-316.6155"/>
</g>
<!-- A9 -->
<g id="node10" class="node">
<title>A9</title>
<polygon fill="none" stroke="#000000" points="2044,-100 2044,-132 2186,-132 2186,-100 2044,-100"/>
<text text-anchor="start" x="2090.829" y="-113" font-family="Helvetica,sans-Serif" font-size="10.00" fill="#000000">Estadistica</text>
<polygon fill="none" stroke="#000000" points="2044,-68 2044,-100 2186,-100 2186,-68 2044,-68"/>
<text text-anchor="start" x="2084.1605" y="-81" font-family="Helvetica,sans-Serif" font-size="10.00" fill="#000000">nombre:Texto</text>
<polygon fill="none" stroke="#000000" points="2044,0 2044,-68 2186,-68 2186,0 2044,0"/>
<text text-anchor="start" x="2053.741" y="-49" font-family="Helvetica,sans-Serif" font-size="10.00" fill="#000000">+Constructor(nombre:Texto</text>
<text text-anchor="start" x="2069.994" y="-37" font-family="Helvetica,sans-Serif" font-size="10.00" fill="#000000">tipo:TipoEstadistica)</text>
<text text-anchor="start" x="2070.1335" y="-25" font-family="Helvetica,sans-Serif" font-size="10.00" fill="#000000">+getNombre():Texto</text>
<text text-anchor="start" x="2056.7965" y="-13" font-family="Helvetica,sans-Serif" font-size="10.00" fill="#000000">+getTipo():TipoEstadistica</text>
</g>
<!-- A13 -->
<g id="node14" class="node">
<title>A13</title>
<polygon fill="none" stroke="#000000" points="2236.5,-72 2236.5,-116 2323.5,-116 2323.5,-72 2236.5,-72"/>
<text text-anchor="start" x="2255.264" y="-97" font-family="Helvetica,sans-Serif" font-size="10.00" fill="#000000">&lt;&lt;Enum&gt;&gt;</text>
<text text-anchor="start" x="2246.106" y="-85" font-family="Helvetica,sans-Serif" font-size="10.00" fill="#000000">TipoEstadistica</text>
<polygon fill="none" stroke="#000000" points="2236.5,-16 2236.5,-72 2323.5,-72 2323.5,-16 2236.5,-16"/>
<text text-anchor="start" x="2256.939" y="-53" font-family="Helvetica,sans-Serif" font-size="10.00" fill="#000000">POSITIVA</text>
<text text-anchor="start" x="2254.719" y="-41" font-family="Helvetica,sans-Serif" font-size="10.00" fill="#000000">NEGATIVA</text>
<text text-anchor="start" x="2259.448" y="-29" font-family="Helvetica,sans-Serif" font-size="10.00" fill="#000000">NEUTRA</text>
</g>
<!-- A9&#45;&gt;A13 -->
<g id="edge13" class="edge">
<title>A9&#45;&gt;A13</title>
<path fill="none" stroke="#000000" d="M2186.1954,-66C2199.3558,-66 2212.9009,-66 2225.4496,-66"/>
<polygon fill="#000000" stroke="#000000" points="2235.7259,-66 2225.7259,-70.5001 2230.7259,-66 2225.7259,-66.0001 2225.7259,-66.0001 2225.7259,-66.0001 2230.7259,-66 2225.7258,-61.5001 2235.7259,-66 2235.7259,-66"/>
<text text-anchor="middle" x="2217.5997" y="-71.4524" font-family="Helvetica,sans-Serif" font-size="10.00" fill="#000000">tipo1</text>
<text text-anchor="middle" x="2204.3215" y="-54.5476" font-family="Helvetica,sans-Serif" font-size="10.00" fill="#000000">*</text>
</g>
<!-- A10 -->
<g id="node11" class="node">
<title>A10</title>
<polygon fill="none" stroke="#000000" points="1826.5,-196 1826.5,-228 1971.5,-228 1971.5,-196 1826.5,-196"/>
<text text-anchor="start" x="1863.1615" y="-209" font-family="Helvetica,sans-Serif" font-size="10.00" fill="#000000">ValorEstadistica</text>
<polygon fill="none" stroke="#000000" points="1826.5,-152 1826.5,-196 1971.5,-196 1971.5,-152 1826.5,-152"/>
<text text-anchor="start" x="1876.4995" y="-177" font-family="Helvetica,sans-Serif" font-size="10.00" fill="#000000">valor:Real</text>
<text text-anchor="start" x="1849.8235" y="-165" font-family="Helvetica,sans-Serif" font-size="10.00" fill="#000000">estadistica:Estadistica</text>
<polygon fill="none" stroke="#000000" points="1826.5,-84 1826.5,-152 1971.5,-152 1971.5,-84 1826.5,-84"/>
<text text-anchor="start" x="1846.08" y="-133" font-family="Helvetica,sans-Serif" font-size="10.00" fill="#000000">+Constructor(valor:Real</text>
<text text-anchor="start" x="1848.159" y="-121" font-family="Helvetica,sans-Serif" font-size="10.00" fill="#000000">estadistica:Estadistica)</text>
<text text-anchor="start" x="1862.468" y="-109" font-family="Helvetica,sans-Serif" font-size="10.00" fill="#000000">+getValor():Real</text>
<text text-anchor="start" x="1836.0715" y="-97" font-family="Helvetica,sans-Serif" font-size="10.00" fill="#000000">+getEstadistica():Estadistica</text>
</g>
<!-- A10&#45;&gt;A2JA9 -->
<g id="edge12" class="edge">
<title>A10&#45;&gt;A2JA9</title>
<path fill="none" stroke="#000000" stroke-dasharray="5,2" d="M1898.5,-83.7951C1898.5,-81.4806 1898.5,-79.166 1898.5,-76.8515"/>
<polygon fill="#000000" stroke="#000000" points="1898.5,-66.7031 1903.0001,-76.7031 1898.5,-71.7031 1898.5001,-76.7031 1898.5001,-76.7031 1898.5001,-76.7031 1898.5,-71.7031 1894.0001,-76.7032 1898.5,-66.7031 1898.5,-66.7031"/>
</g>
<!-- A11&#45;&gt;A4 -->
<g id="edge16" class="edge">
<title>A11&#45;&gt;A4</title>
<path fill="none" stroke="#000000" d="M535.8406,-253.903C545.0848,-256.8415 554.673,-259.8894 564.3236,-262.9572"/>
<polygon fill="none" stroke="#000000" points="535.6685,-253.8483 528.7387,-255.8427 524.2324,-250.213 531.1623,-248.2186 535.6685,-253.8483"/>
<polygon fill="#000000" stroke="#000000" points="573.9845,-266.0282 563.0912,-267.2872 569.2195,-264.5134 564.4544,-262.9987 564.4544,-262.9987 564.4544,-262.9987 569.2195,-264.5134 565.8177,-258.7102 573.9845,-266.0282 573.9845,-266.0282"/>
<text text-anchor="middle" x="554.1496" y="-265.5922" font-family="Helvetica,sans-Serif" font-size="10.00" fill="#000000">2</text>
<text text-anchor="middle" x="544.0674" y="-244.649" font-family="Helvetica,sans-Serif" font-size="10.00" fill="#000000">*</text>
</g>
<!-- A12 -->
<g id="node13" class="node">
<title>A12</title>
<polygon fill="none" stroke="#000000" points="844.5,-126 844.5,-158 1045.5,-158 1045.5,-126 844.5,-126"/>
<text text-anchor="start" x="908.607" y="-139" font-family="Helvetica,sans-Serif" font-size="10.00" fill="#000000">RegistroReporte</text>
<polygon fill="none" stroke="#000000" points="844.5,-82 844.5,-126 1045.5,-126 1045.5,-82 844.5,-82"/>
<text text-anchor="start" x="854.427" y="-107" font-family="Helvetica,sans-Serif" font-size="10.00" fill="#000000">estadisticaParticipanteA:ValorEstadistica</text>
<text text-anchor="start" x="854.427" y="-95" font-family="Helvetica,sans-Serif" font-size="10.00" fill="#000000">estadisticaParticipanteB:ValorEstadistica</text>
</g>
<!-- A11&#45;&gt;A12 -->
<g id="edge14" class="edge">
<title>A11&#45;&gt;A12</title>
<path fill="none" stroke="#000000" d="M535.9268,-211.4466C616.7171,-193.3641 743.3223,-165.0274 834.1877,-144.69"/>
<polygon fill="none" stroke="#000000" points="535.9044,-211.4515 530.923,-216.6655 524.1941,-214.0726 529.1756,-208.8586 535.9044,-211.4515"/>
<polygon fill="#000000" stroke="#000000" points="843.974,-142.4997 835.1984,-149.0752 839.0947,-143.5918 834.2154,-144.6839 834.2154,-144.6839 834.2154,-144.6839 839.0947,-143.5918 833.2325,-140.2925 843.974,-142.4997 843.974,-142.4997"/>
<text text-anchor="middle" x="828.1316" y="-151.707" font-family="Helvetica,sans-Serif" font-size="10.00" fill="#000000">registros*</text>
<text text-anchor="middle" x="540.0365" y="-198.8652" font-family="Helvetica,sans-Serif" font-size="10.00" fill="#000000">1</text>
</g>
<!-- A12&#45;&gt;A10 -->
<g id="edge15" class="edge">
<title>A12&#45;&gt;A10</title>
<path fill="none" stroke="#000000" d="M1057.4115,-124.2608C1251.6003,-131.5887 1644.4207,-146.4121 1815.6131,-152.8722"/>
<polygon fill="none" stroke="#000000" points="1057.2326,-124.2542 1051.086,-128.025 1045.2412,-123.8016 1051.3878,-120.0307 1057.2326,-124.2542"/>
<polygon fill="#000000" stroke="#000000" points="1825.8237,-153.2575 1815.661,-157.3771 1820.8272,-153.0689 1815.8308,-152.8803 1815.8308,-152.8803 1815.8308,-152.8803 1820.8272,-153.0689 1816.0005,-148.3835 1825.8237,-153.2575 1825.8237,-153.2575"/>
<text text-anchor="middle" x="1807.3917" y="-158.0203" font-family="Helvetica,sans-Serif" font-size="10.00" fill="#000000">2</text>
<text text-anchor="middle" x="1063.6732" y="-113.0387" font-family="Helvetica,sans-Serif" font-size="10.00" fill="#000000">*</text>
</g>
<!-- A2JA9&#45;&gt;A9 -->
<g id="edge11" class="edge">
<title>A2JA9&#45;&gt;A9</title>
<path fill="none" stroke="#000000" d="M1899.1211,-66C1906.3509,-66 1975.3232,-66 2033.3905,-66"/>
<polygon fill="#000000" stroke="#000000" points="2043.7162,-66 2033.7162,-70.5001 2038.7162,-66 2033.7162,-66.0001 2033.7162,-66.0001 2033.7162,-66.0001 2038.7162,-66 2033.7161,-61.5001 2043.7162,-66 2043.7162,-66"/>
<text text-anchor="middle" x="2025.59" y="-71.4524" font-family="Helvetica,sans-Serif" font-size="10.00" fill="#000000">*</text>
</g>
</g>
</svg>
