<?xml version="1.0" encoding="UTF-8" standalone="no"?>
<!DOCTYPE svg PUBLIC "-//W3C//DTD SVG 1.1//EN"
 "http://www.w3.org/Graphics/SVG/1.1/DTD/svg11.dtd">
<!-- Generated by graphviz version 2.40.1 (20161225.0304)
 -->
<!-- Title: G Pages: 1 -->
<svg width="2373pt" height="507pt"
 viewBox="0.00 0.00 2373.00 506.93" xmlns="http://www.w3.org/2000/svg" xmlns:xlink="http://www.w3.org/1999/xlink">
<g id="graph0" class="graph" transform="scale(1 1) rotate(0) translate(4 502.9319)">
<title>G</title>
<polygon fill="#ffffff" stroke="transparent" points="-4,4 -4,-502.9319 2369,-502.9319 2369,4 -4,4"/>
<!-- A0 -->
<g id="node1" class="node">
<title>A0</title>
<polygon fill="none" stroke="#000000" points=".5,-448 .5,-480 341.5,-480 341.5,-448 .5,-448"/>
<text text-anchor="start" x="155.163" y="-461" font-family="Helvetica,sans-Serif" font-size="10.00" fill="#000000">Torneo</text>
<polygon fill="none" stroke="#000000" points=".5,-344 .5,-448 341.5,-448 341.5,-344 .5,-344"/>
<text text-anchor="start" x="140.1605" y="-429" font-family="Helvetica,sans-Serif" font-size="10.00" fill="#000000">nombre:Texto</text>
<text text-anchor="start" x="131.822" y="-417" font-family="Helvetica,sans-Serif" font-size="10.00" fill="#000000">fechaInicio:Fecha</text>
<text text-anchor="start" x="102.6515" y="-405" font-family="Helvetica,sans-Serif" font-size="10.00" fill="#000000">fechaInicioInscripciones:Fecha</text>
<text text-anchor="start" x="100.712" y="-393" font-family="Helvetica,sans-Serif" font-size="10.00" fill="#000000">fechaCierreInscripciones:Fecha</text>
<text text-anchor="start" x="109.042" y="-381" font-family="Helvetica,sans-Serif" font-size="10.00" fill="#000000">numeroParticipantes:Entero</text>
<text text-anchor="start" x="131.5485" y="-369" font-family="Helvetica,sans-Serif" font-size="10.00" fill="#000000">limiteEdad:Entero</text>
<text text-anchor="start" x="120.1595" y="-357" font-family="Helvetica,sans-Serif" font-size="10.00" fill="#000000">valorInscripcion:Entero</text>
<polygon fill="none" stroke="#000000" points=".5,0 .5,-344 341.5,-344 341.5,0 .5,0"/>
<text text-anchor="start" x="109.741" y="-325" font-family="Helvetica,sans-Serif" font-size="10.00" fill="#000000">+Constructor(nombre:Texto</text>
<text text-anchor="start" x="131.822" y="-313" font-family="Helvetica,sans-Serif" font-size="10.00" fill="#000000">fechaInicio:Fecha</text>
<text text-anchor="start" x="102.6515" y="-301" font-family="Helvetica,sans-Serif" font-size="10.00" fill="#000000">fechaInicioInscripciones:Fecha</text>
<text text-anchor="start" x="100.712" y="-289" font-family="Helvetica,sans-Serif" font-size="10.00" fill="#000000">fechaCierreInscripciones:Fecha</text>
<text text-anchor="start" x="109.042" y="-277" font-family="Helvetica,sans-Serif" font-size="10.00" fill="#000000">numeroParticipantes:Entero</text>
<text text-anchor="start" x="131.5485" y="-265" font-family="Helvetica,sans-Serif" font-size="10.00" fill="#000000">limiteEdad:Entero</text>
<text text-anchor="start" x="120.1595" y="-253" font-family="Helvetica,sans-Serif" font-size="10.00" fill="#000000">valorInscripcion:Entero</text>
<text text-anchor="start" x="120.1555" y="-241" font-family="Helvetica,sans-Serif" font-size="10.00" fill="#000000">tipoTorneo:TipoTorneo</text>
<text text-anchor="start" x="10.288" y="-229" font-family="Helvetica,sans-Serif" font-size="10.00" fill="#000000">caracter:CaracterTorneo)+registrarParticipante(participante:Participante)</text>
<text text-anchor="start" x="126.1335" y="-217" font-family="Helvetica,sans-Serif" font-size="10.00" fill="#000000">+getNombre():Texto</text>
<text text-anchor="start" x="116.96" y="-205" font-family="Helvetica,sans-Serif" font-size="10.00" fill="#000000">+getFechaInicio():Fecha</text>
<text text-anchor="start" x="87.7895" y="-193" font-family="Helvetica,sans-Serif" font-size="10.00" fill="#000000">+getFechaInicioInscripciones():Fecha</text>
<text text-anchor="start" x="85.85" y="-181" font-family="Helvetica,sans-Serif" font-size="10.00" fill="#000000">+getFechaCierreInscripciones():Fecha</text>
<text text-anchor="start" x="95.015" y="-169" font-family="Helvetica,sans-Serif" font-size="10.00" fill="#000000">+getNumeroParticipantes():Entero</text>
<text text-anchor="start" x="116.6815" y="-157" font-family="Helvetica,sans-Serif" font-size="10.00" fill="#000000">+getLimiteEdad():Entero</text>
<text text-anchor="start" x="106.128" y="-145" font-family="Helvetica,sans-Serif" font-size="10.00" fill="#000000">+getValorInscripcion():Entero</text>
<text text-anchor="start" x="105.2935" y="-133" font-family="Helvetica,sans-Serif" font-size="10.00" fill="#000000">+getTipoTorneo():TipoTorneo</text>
<text text-anchor="start" x="78.6215" y="-121" font-family="Helvetica,sans-Serif" font-size="10.00" fill="#000000">+getParticipantes():Participante［*］</text>
<text text-anchor="start" x="102.2435" y="-109" font-family="Helvetica,sans-Serif" font-size="10.00" fill="#000000">+getCaracter():CaracterTorneo</text>
<text text-anchor="start" x="93.344" y="-97" font-family="Helvetica,sans-Serif" font-size="10.00" fill="#000000">+setFechaInicio(fechaInicio:Fecha)</text>
<text text-anchor="start" x="35.003" y="-85" font-family="Helvetica,sans-Serif" font-size="10.00" fill="#000000">+setFechaInicioInscripciones(fechaInicioInscripciones:Fecha)</text>
<text text-anchor="start" x="31.124" y="-73" font-family="Helvetica,sans-Serif" font-size="10.00" fill="#000000">+setFechaCierreInscripciones(fechaCierreInscripciones:Fecha)</text>
<text text-anchor="start" x="67.65" y="-61" font-family="Helvetica,sans-Serif" font-size="10.00" fill="#000000">buscarParticipante(nombre:Texto):Participante</text>
<text text-anchor="start" x="58.8875" y="-49" font-family="Helvetica,sans-Serif" font-size="10.00" fill="#000000">+registrarJugador(equipo:Equipo,jugador:Jugador)</text>
<text text-anchor="start" x="44.4445" y="-37" font-family="Helvetica,sans-Serif" font-size="10.00" fill="#000000">+registrarJugador(nombreEquipo:Texto,jugador:Jugador)</text>
<text text-anchor="start" x="43.896" y="-25" font-family="Helvetica,sans-Serif" font-size="10.00" fill="#000000">+registrarEstadisticaParticipante(participante:Participante</text>
<text text-anchor="start" x="101.5475" y="-13" font-family="Helvetica,sans-Serif" font-size="10.00" fill="#000000">estadistica:ValorEstadistica)</text>
</g>
<!-- A1 -->
<g id="node2" class="node">
<title>A1</title>
<polygon fill="none" stroke="#000000" points="422.5,-372 422.5,-416 493.5,-416 493.5,-372 422.5,-372"/>
<text text-anchor="start" x="433.264" y="-397" font-family="Helvetica,sans-Serif" font-size="10.00" fill="#000000">&lt;&lt;Enum&gt;&gt;</text>
<text text-anchor="start" x="432.44" y="-385" font-family="Helvetica,sans-Serif" font-size="10.00" fill="#000000">TipoTorneo</text>
<polygon fill="none" stroke="#000000" points="422.5,-304 422.5,-372 493.5,-372 493.5,-304 422.5,-304"/>
<text text-anchor="start" x="441.6075" y="-353" font-family="Helvetica,sans-Serif" font-size="10.00" fill="#000000">LOCAL</text>
<text text-anchor="start" x="432.164" y="-341" font-family="Helvetica,sans-Serif" font-size="10.00" fill="#000000">REGIONAL</text>
<text text-anchor="start" x="432.444" y="-329" font-family="Helvetica,sans-Serif" font-size="10.00" fill="#000000">NACIONAL</text>
<text text-anchor="start" x="435.5035" y="-317" font-family="Helvetica,sans-Serif" font-size="10.00" fill="#000000">MUNDIAL</text>
</g>
<!-- A0&#45;&gt;A1 -->
<g id="edge3" class="edge">
<title>A0&#45;&gt;A1</title>
<path fill="none" stroke="#000000" d="M341.1799,-311.3644C367.4553,-322.3506 392.4687,-332.8092 412.5205,-341.1932"/>
<polygon fill="#000000" stroke="#000000" points="421.9493,-345.1356 410.9874,-345.4297 417.3363,-343.2068 412.7233,-341.278 412.7233,-341.278 412.7233,-341.278 417.3363,-343.2068 414.4593,-337.1263 421.9493,-345.1356 421.9493,-345.1356"/>
<text text-anchor="middle" x="401.9656" y="-342.9415" font-family="Helvetica,sans-Serif" font-size="10.00" fill="#000000">tipoTorneo1</text>
<text text-anchor="middle" x="361.1636" y="-307.5585" font-family="Helvetica,sans-Serif" font-size="10.00" fill="#000000">*</text>
</g>
<!-- A4 -->
<g id="node5" class="node">
<title>A4</title>
<polygon fill="none" stroke="#000000" points="574,-276 574,-320 794,-320 794,-276 574,-276"/>
<text text-anchor="start" x="653.151" y="-301" font-family="Helvetica,sans-Serif" font-size="10.00" fill="#000000">&lt;&lt;interface&gt;&gt;</text>
<text text-anchor="start" x="657.6055" y="-289" font-family="Helvetica,sans-Serif" font-size="10.00" fill="#000000">Participante</text>
<polygon fill="none" stroke="#000000" points="574,-232 574,-276 794,-276 794,-232 574,-232"/>
<text text-anchor="start" x="617.7425" y="-257" font-family="Helvetica,sans-Serif" font-size="10.00" fill="#000000">+getNombreCompleto():Texto</text>
<text text-anchor="start" x="583.8485" y="-245" font-family="Helvetica,sans-Serif" font-size="10.00" fill="#000000">+getRegistroEstadistica():RegistroEstadistica</text>
</g>
<!-- A0&#45;&gt;A4 -->
<g id="edge4" class="edge">
<title>A0&#45;&gt;A4</title>
<path fill="none" stroke="#000000" d="M353.355,-254.2702C366.0936,-255.2113 378.7377,-256.1298 391,-257 447.725,-261.0257 510.6528,-265.151 563.605,-268.5245"/>
<polygon fill="none" stroke="#000000" points="353.0891,-254.2506 346.8094,-257.7953 341.1221,-253.3619 347.4018,-249.8172 353.0891,-254.2506"/>
<polygon fill="#000000" stroke="#000000" points="573.7146,-269.1672 563.4492,-273.0236 568.7246,-268.8499 563.7347,-268.5327 563.7347,-268.5327 563.7347,-268.5327 568.7246,-268.8499 564.0202,-264.0417 573.7146,-269.1672 573.7146,-269.1672"/>
<text text-anchor="middle" x="555.0887" y="-273.4526" font-family="Helvetica,sans-Serif" font-size="10.00" fill="#000000">participantes*</text>
<text text-anchor="middle" x="359.8243" y="-243.275" font-family="Helvetica,sans-Serif" font-size="10.00" fill="#000000">1</text>
</g>
<!-- A8 -->
<g id="node9" class="node">
<title>A8</title>
<polygon fill="none" stroke="#000000" points="412.5,-98 412.5,-142 502.5,-142 502.5,-98 412.5,-98"/>
<text text-anchor="start" x="432.764" y="-123" font-family="Helvetica,sans-Serif" font-size="10.00" fill="#000000">&lt;&lt;Enum&gt;&gt;</text>
<text text-anchor="start" x="422.4965" y="-111" font-family="Helvetica,sans-Serif" font-size="10.00" fill="#000000">CaracterTorneo</text>
<polygon fill="none" stroke="#000000" points="412.5,-54 412.5,-98 502.5,-98 502.5,-54 412.5,-54"/>
<text text-anchor="start" x="429.445" y="-79" font-family="Helvetica,sans-Serif" font-size="10.00" fill="#000000">INDIVIDUAL</text>
<text text-anchor="start" x="436.943" y="-67" font-family="Helvetica,sans-Serif" font-size="10.00" fill="#000000">GRUPAL</text>
</g>
<!-- A0&#45;&gt;A8 -->
<g id="edge2" class="edge">
<title>A0&#45;&gt;A8</title>
<path fill="none" stroke="#000000" d="M341.1799,-155.5521C363.6287,-144.445 385.1564,-133.7937 403.4556,-124.7397"/>
<polygon fill="#000000" stroke="#000000" points="412.443,-120.293 405.4756,-128.761 407.9615,-122.5104 403.48,-124.7277 403.48,-124.7277 403.48,-124.7277 407.9615,-122.5104 401.4844,-120.6944 412.443,-120.293 412.443,-120.293"/>
<text text-anchor="middle" x="399.9449" y="-132.9071" font-family="Helvetica,sans-Serif" font-size="10.00" fill="#000000">caracter1</text>
<text text-anchor="middle" x="353.6779" y="-136.9381" font-family="Helvetica,sans-Serif" font-size="10.00" fill="#000000">*</text>
</g>
<!-- A11 -->
<g id="node12" class="node">
<title>A11</title>
<polygon fill="none" stroke="#000000" points="391.5,-216 391.5,-248 524.5,-248 524.5,-216 391.5,-216"/>
<text text-anchor="start" x="440.2185" y="-229" font-family="Helvetica,sans-Serif" font-size="10.00" fill="#000000">Reporte</text>
<polygon fill="none" stroke="#000000" points="391.5,-160 391.5,-216 524.5,-216 524.5,-160 391.5,-160"/>
<text text-anchor="start" x="430.4895" y="-197" font-family="Helvetica,sans-Serif" font-size="10.00" fill="#000000">fecha:Fecha</text>
<text text-anchor="start" x="401.042" y="-185" font-family="Helvetica,sans-Serif" font-size="10.00" fill="#000000">participanteA:Participante</text>
<text text-anchor="start" x="401.042" y="-173" font-family="Helvetica,sans-Serif" font-size="10.00" fill="#000000">participanteB:Participante</text>
</g>
<!-- A0&#45;&gt;A11 -->
<g id="edge1" class="edge">
<title>A0&#45;&gt;A11</title>
<path fill="none" stroke="#000000" stroke-dasharray="5,2" d="M341.1799,-218.5907C354.816,-216.8802 368.1122,-215.2124 380.5515,-213.6521"/>
<polygon fill="#000000" stroke="#000000" points="390.7875,-212.3681 381.4254,-218.0778 385.8264,-212.9905 380.8653,-213.6128 380.8653,-213.6128 380.8653,-213.6128 385.8264,-212.9905 380.3052,-209.1478 390.7875,-212.3681 390.7875,-212.3681"/>
</g>
<!-- A2 -->
<g id="node3" class="node">
<title>A2</title>
<polygon fill="none" stroke="#000000" points="1528.5,-322 1528.5,-366 1781.5,-366 1781.5,-322 1528.5,-322"/>
<text text-anchor="start" x="1624.151" y="-347" font-family="Helvetica,sans-Serif" font-size="10.00" fill="#000000">&lt;&lt;interface&gt;&gt;</text>
<text text-anchor="start" x="1612.2175" y="-335" font-family="Helvetica,sans-Serif" font-size="10.00" fill="#000000">RegistroEstadistica</text>
<polygon fill="none" stroke="#000000" points="1528.5,-254 1528.5,-322 1781.5,-322 1781.5,-254 1528.5,-254"/>
<text text-anchor="start" x="1548.457" y="-303" font-family="Helvetica,sans-Serif" font-size="10.00" fill="#000000">+getEstadisticas():ValorEstadistica［*］</text>
<text text-anchor="start" x="1538.4615" y="-291" font-family="Helvetica,sans-Serif" font-size="10.00" fill="#000000">+registrarEstadistica(estadistica:ValorEstadistica)</text>
<text text-anchor="start" x="1575.681" y="-279" font-family="Helvetica,sans-Serif" font-size="10.00" fill="#000000">+comparar(participante:Participante</text>
<text text-anchor="start" x="1588.0425" y="-267" font-family="Helvetica,sans-Serif" font-size="10.00" fill="#000000">estadistica:Estadistica):Entero</text>
</g>
<!-- A3 -->
<g id="node4" class="node">
<title>A3</title>
<polygon fill="none" stroke="#000000" points="1831.5,-326 1831.5,-358 2036.5,-358 2036.5,-326 1831.5,-326"/>
<text text-anchor="start" x="1881.7745" y="-339" font-family="Helvetica,sans-Serif" font-size="10.00" fill="#000000">RegistroEstadisticaImpl</text>
<polygon fill="none" stroke="#000000" points="1831.5,-294 1831.5,-326 2036.5,-326 2036.5,-294 1831.5,-294"/>
<text text-anchor="start" x="1841.209" y="-307" font-family="Helvetica,sans-Serif" font-size="10.00" fill="#000000">estadisticas:ValorEstadistica［*］</text>
<polygon fill="none" stroke="#000000" points="1831.5,-262 1831.5,-294 2036.5,-294 2036.5,-262 1831.5,-262"/>
<text text-anchor="start" x="1901.916" y="-275" font-family="Helvetica,sans-Serif" font-size="10.00" fill="#000000">+Constructor()</text>
</g>
<!-- A2&#45;&gt;A3 -->
<g id="edge18" class="edge">
<title>A2&#45;&gt;A3</title>
<path fill="none" stroke="#000000" d="M1791.4555,-310C1804.6937,-310 1817.9624,-310 1830.7846,-310"/>
<polygon fill="none" stroke="#000000" points="1791.3461,-306.5001 1781.346,-310 1791.346,-313.5001 1791.3461,-306.5001"/>
</g>
<!-- A2&#45;&gt;A4 -->
<g id="edge17" class="edge">
<title>A2&#45;&gt;A4</title>
<path fill="none" stroke="#000000" d="M1595.8981,-373.3605C1564.1113,-403.4683 1522.3137,-436.7852 1478,-455 1326.0689,-517.4503 1271.1592,-502.2206 1109,-476 986.4893,-456.1904 954.8875,-443.7247 844,-388 806.7351,-369.2732 768.3434,-342.6864 738.5103,-320.1157"/>
<polygon fill="none" stroke="#000000" points="1598.5691,-375.6475 1603.3462,-366.1907 1593.7145,-370.6044 1598.5691,-375.6475"/>
</g>
<!-- A2JA9 -->
<!-- A2&#45;&gt;A2JA9 -->
<g id="edge10" class="edge">
<title>A2&#45;&gt;A2JA9</title>
<path fill="none" stroke="#000000" d="M1677.7952,-253.7497C1705.1619,-195.5535 1756.4924,-107.3681 1831,-65 1868.8897,-43.4544 1927.668,-54.8041 1933.0952,-55.9154"/>
<text text-anchor="middle" x="1678.1541" y="-230.753" font-family="Helvetica,sans-Serif" font-size="10.00" fill="#000000">*</text>
</g>
<!-- A5 -->
<g id="node6" class="node">
<title>A5</title>
<polygon fill="none" stroke="#000000" points="863.5,-347 863.5,-379 1040.5,-379 1040.5,-347 863.5,-347"/>
<text text-anchor="start" x="936.438" y="-360" font-family="Helvetica,sans-Serif" font-size="10.00" fill="#000000">Equipo</text>
<polygon fill="none" stroke="#000000" points="863.5,-315 863.5,-347 1040.5,-347 1040.5,-315 863.5,-315"/>
<text text-anchor="start" x="921.1605" y="-328" font-family="Helvetica,sans-Serif" font-size="10.00" fill="#000000">nombre:Texto</text>
<polygon fill="none" stroke="#000000" points="863.5,-223 863.5,-315 1040.5,-315 1040.5,-223 863.5,-223"/>
<text text-anchor="start" x="890.741" y="-296" font-family="Helvetica,sans-Serif" font-size="10.00" fill="#000000">+Constructor(nombre:Texto</text>
<text text-anchor="start" x="899.485" y="-284" font-family="Helvetica,sans-Serif" font-size="10.00" fill="#000000">representante:Persona)</text>
<text text-anchor="start" x="907.1335" y="-272" font-family="Helvetica,sans-Serif" font-size="10.00" fill="#000000">+getNombre():Texto</text>
<text text-anchor="start" x="886.0075" y="-260" font-family="Helvetica,sans-Serif" font-size="10.00" fill="#000000">+getRepresentante():Persona</text>
<text text-anchor="start" x="873.507" y="-248" font-family="Helvetica,sans-Serif" font-size="10.00" fill="#000000">+getJugadores():Jugador［*］</text>
<text text-anchor="start" x="873.2355" y="-236" font-family="Helvetica,sans-Serif" font-size="10.00" fill="#000000">+registrarJugador(jugador:Jugador)</text>
</g>
<!-- A4&#45;&gt;A5 -->
<g id="edge9" class="edge">
<title>A4&#45;&gt;A5</title>
<path fill="none" stroke="#000000" d="M804.5255,-287.2641C824.0732,-289.091 844.0015,-290.9534 862.618,-292.6933"/>
<polygon fill="none" stroke="#000000" points="804.6292,-283.7586 794.3469,-286.3128 803.9778,-290.7282 804.6292,-283.7586"/>
</g>
<!-- A7 -->
<g id="node8" class="node">
<title>A7</title>
<polygon fill="none" stroke="#000000" points="1301.5,-318 1301.5,-350 1478.5,-350 1478.5,-318 1301.5,-318"/>
<text text-anchor="start" x="1371.938" y="-331" font-family="Helvetica,sans-Serif" font-size="10.00" fill="#000000">Jugador</text>
<polygon fill="none" stroke="#000000" points="1301.5,-286 1301.5,-318 1478.5,-318 1478.5,-286 1301.5,-286"/>
<text text-anchor="start" x="1337.489" y="-299" font-family="Helvetica,sans-Serif" font-size="10.00" fill="#000000">fechaNacimiento:Fecha</text>
<polygon fill="none" stroke="#000000" points="1301.5,-182 1301.5,-286 1478.5,-286 1478.5,-182 1301.5,-182"/>
<text text-anchor="start" x="1328.741" y="-267" font-family="Helvetica,sans-Serif" font-size="10.00" fill="#000000">+Constructor(nombre:Texto</text>
<text text-anchor="start" x="1358.8815" y="-255" font-family="Helvetica,sans-Serif" font-size="10.00" fill="#000000">apellido:Texto</text>
<text text-anchor="start" x="1364.165" y="-243" font-family="Helvetica,sans-Serif" font-size="10.00" fill="#000000">email:Texto</text>
<text text-anchor="start" x="1361.3855" y="-231" font-family="Helvetica,sans-Serif" font-size="10.00" fill="#000000">celular:Texto</text>
<text text-anchor="start" x="1335.8245" y="-219" font-family="Helvetica,sans-Serif" font-size="10.00" fill="#000000">fechaNacimiento:Fecha)</text>
<text text-anchor="start" x="1322.627" y="-207" font-family="Helvetica,sans-Serif" font-size="10.00" fill="#000000">+getFechaNacimiento():Fecha</text>
<text text-anchor="start" x="1311.2295" y="-195" font-family="Helvetica,sans-Serif" font-size="10.00" fill="#000000">+calcularEdad(fecha:Fecha):Entero</text>
</g>
<!-- A4&#45;&gt;A7 -->
<g id="edge8" class="edge">
<title>A4&#45;&gt;A7</title>
<path fill="none" stroke="#000000" d="M792.6304,-228.4075C809.5533,-222.6065 827.0503,-217.5012 844,-214 1021.2024,-177.396 1074.0487,-166.2008 1251,-204 1267.6173,-207.5497 1284.653,-213.2464 1300.8415,-219.783"/>
<polygon fill="none" stroke="#000000" points="791.007,-225.2687 782.7413,-231.8965 793.3361,-231.8699 791.007,-225.2687"/>
</g>
<!-- A5&#45;&gt;A2 -->
<g id="edge20" class="edge">
<title>A5&#45;&gt;A2</title>
<path fill="none" stroke="#000000" d="M1010.8651,-379.1525C1037.3923,-407.7551 1071.2163,-436.8137 1109,-452 1261.0601,-513.1169 1447.61,-433.5081 1558.4558,-371.1343"/>
<polygon fill="#000000" stroke="#000000" points="1567.2925,-366.1078 1560.8252,-374.9636 1562.9464,-368.58 1558.6003,-371.0521 1558.6003,-371.0521 1558.6003,-371.0521 1562.9464,-368.58 1556.3754,-367.1406 1567.2925,-366.1078 1567.2925,-366.1078"/>
</g>
<!-- A6 -->
<g id="node7" class="node">
<title>A6</title>
<polygon fill="none" stroke="#000000" points="1109,-411 1109,-443 1251,-443 1251,-411 1109,-411"/>
<text text-anchor="start" x="1161.383" y="-424" font-family="Helvetica,sans-Serif" font-size="10.00" fill="#000000">Persona</text>
<polygon fill="none" stroke="#000000" points="1109,-343 1109,-411 1251,-411 1251,-343 1109,-343"/>
<text text-anchor="start" x="1149.1605" y="-392" font-family="Helvetica,sans-Serif" font-size="10.00" fill="#000000">nombre:Texto</text>
<text text-anchor="start" x="1148.8815" y="-380" font-family="Helvetica,sans-Serif" font-size="10.00" fill="#000000">apellido:Texto</text>
<text text-anchor="start" x="1154.165" y="-368" font-family="Helvetica,sans-Serif" font-size="10.00" fill="#000000">email:Texto</text>
<text text-anchor="start" x="1151.3855" y="-356" font-family="Helvetica,sans-Serif" font-size="10.00" fill="#000000">celular:Texto</text>
<polygon fill="none" stroke="#000000" points="1109,-227 1109,-343 1251,-343 1251,-227 1109,-227"/>
<text text-anchor="start" x="1118.741" y="-324" font-family="Helvetica,sans-Serif" font-size="10.00" fill="#000000">+Constructor(nombre:Texto</text>
<text text-anchor="start" x="1148.8815" y="-312" font-family="Helvetica,sans-Serif" font-size="10.00" fill="#000000">apellido:Texto</text>
<text text-anchor="start" x="1154.165" y="-300" font-family="Helvetica,sans-Serif" font-size="10.00" fill="#000000">email:Texto</text>
<text text-anchor="start" x="1149.721" y="-288" font-family="Helvetica,sans-Serif" font-size="10.00" fill="#000000">celular:Texto)</text>
<text text-anchor="start" x="1135.1335" y="-276" font-family="Helvetica,sans-Serif" font-size="10.00" fill="#000000">+getNombre():Texto</text>
<text text-anchor="start" x="1135.1295" y="-264" font-family="Helvetica,sans-Serif" font-size="10.00" fill="#000000">+getApellido():Texto</text>
<text text-anchor="start" x="1140.413" y="-252" font-family="Helvetica,sans-Serif" font-size="10.00" fill="#000000">+getEmail():Texto</text>
<text text-anchor="start" x="1137.079" y="-240" font-family="Helvetica,sans-Serif" font-size="10.00" fill="#000000">+getCelular():Texto</text>
</g>
<!-- A5&#45;&gt;A6 -->
<g id="edge5" class="edge">
<title>A5&#45;&gt;A6</title>
<path fill="none" stroke="#000000" d="M1052.2559,-315.9921C1067.7168,-318.2927 1083.512,-320.6429 1098.4875,-322.8712"/>
<polygon fill="none" stroke="#000000" points="1052.0404,-315.9601 1045.517,-319.0335 1040.1711,-314.194 1046.6945,-311.1206 1052.0404,-315.9601"/>
<polygon fill="#000000" stroke="#000000" points="1108.7101,-324.3923 1098.1567,-327.3715 1103.7646,-323.6564 1098.819,-322.9205 1098.819,-322.9205 1098.819,-322.9205 1103.7646,-323.6564 1099.4813,-318.4695 1108.7101,-324.3923 1108.7101,-324.3923"/>
<text text-anchor="middle" x="1089.5374" y="-327.0849" font-family="Helvetica,sans-Serif" font-size="10.00" fill="#000000">representante1</text>
<text text-anchor="middle" x="1059.3439" y="-305.5014" font-family="Helvetica,sans-Serif" font-size="10.00" fill="#000000">1</text>
</g>
<!-- A5&#45;&gt;A7 -->
<g id="edge7" class="edge">
<title>A5&#45;&gt;A7</title>
<path fill="none" stroke="#000000" d="M1050.9518,-239.4748C1069.6213,-230.598 1089.4365,-222.8394 1109,-218 1170.2645,-202.8451 1188.7649,-207.5213 1251,-218 1264.2268,-220.227 1277.8781,-223.5717 1291.2185,-227.4795"/>
<polygon fill="none" stroke="#000000" points="1050.8681,-239.5159 1047.2522,-245.755 1040.1024,-244.8169 1043.7182,-238.5778 1050.8681,-239.5159"/>
<polygon fill="#000000" stroke="#000000" points="1300.8668,-230.4165 1289.9897,-231.8092 1296.0835,-228.9604 1291.3002,-227.5043 1291.3002,-227.5043 1291.3002,-227.5043 1296.0835,-228.9604 1292.6107,-223.1993 1300.8668,-230.4165 1300.8668,-230.4165"/>
<text text-anchor="middle" x="1281.0648" y="-230.2239" font-family="Helvetica,sans-Serif" font-size="10.00" fill="#000000">jugador*</text>
<text text-anchor="middle" x="1052.6303" y="-226.2268" font-family="Helvetica,sans-Serif" font-size="10.00" fill="#000000">1</text>
</g>
<!-- A6&#45;&gt;A7 -->
<g id="edge6" class="edge">
<title>A6&#45;&gt;A7</title>
<path fill="none" stroke="#000000" d="M1261.034,-308.311C1274.0178,-304.0347 1287.5146,-299.5895 1300.6686,-295.2571"/>
<polygon fill="none" stroke="#000000" points="1259.6227,-305.0908 1251.2195,-311.5435 1261.8125,-311.7395 1259.6227,-305.0908"/>
</g>
<!-- A7&#45;&gt;A2 -->
<g id="edge19" class="edge">
<title>A7&#45;&gt;A2</title>
<path fill="none" stroke="#000000" d="M1478.1096,-280.7125C1490.8191,-282.8228 1504.1359,-285.0339 1517.5138,-287.2551"/>
<polygon fill="#000000" stroke="#000000" points="1527.7469,-288.9542 1517.1448,-291.7554 1522.8144,-288.1352 1517.8819,-287.3162 1517.8819,-287.3162 1517.8819,-287.3162 1522.8144,-288.1352 1518.619,-282.8769 1527.7469,-288.9542 1527.7469,-288.9542"/>
</g>
<!-- A9 -->
<g id="node10" class="node">
<title>A9</title>
<polygon fill="none" stroke="#000000" points="2086,-78 2086,-110 2228,-110 2228,-78 2086,-78"/>
<text text-anchor="start" x="2132.829" y="-91" font-family="Helvetica,sans-Serif" font-size="10.00" fill="#000000">Estadistica</text>
<polygon fill="none" stroke="#000000" points="2086,-46 2086,-78 2228,-78 2228,-46 2086,-46"/>
<text text-anchor="start" x="2126.1605" y="-59" font-family="Helvetica,sans-Serif" font-size="10.00" fill="#000000">nombre:Texto</text>
<polygon fill="none" stroke="#000000" points="2086,-2 2086,-46 2228,-46 2228,-2 2086,-2"/>
<text text-anchor="start" x="2095.741" y="-27" font-family="Helvetica,sans-Serif" font-size="10.00" fill="#000000">+Constructor(nombre:Texto</text>
<text text-anchor="start" x="2111.994" y="-15" font-family="Helvetica,sans-Serif" font-size="10.00" fill="#000000">tipo:TipoEstadistica)</text>
</g>
<!-- A13 -->
<g id="node14" class="node">
<title>A13</title>
<polygon fill="none" stroke="#000000" points="2278.5,-62 2278.5,-106 2365.5,-106 2365.5,-62 2278.5,-62"/>
<text text-anchor="start" x="2297.264" y="-87" font-family="Helvetica,sans-Serif" font-size="10.00" fill="#000000">&lt;&lt;Enum&gt;&gt;</text>
<text text-anchor="start" x="2288.106" y="-75" font-family="Helvetica,sans-Serif" font-size="10.00" fill="#000000">TipoEstadistica</text>
<polygon fill="none" stroke="#000000" points="2278.5,-6 2278.5,-62 2365.5,-62 2365.5,-6 2278.5,-6"/>
<text text-anchor="start" x="2298.939" y="-43" font-family="Helvetica,sans-Serif" font-size="10.00" fill="#000000">POSITIVA</text>
<text text-anchor="start" x="2296.719" y="-31" font-family="Helvetica,sans-Serif" font-size="10.00" fill="#000000">NEGATIVA</text>
<text text-anchor="start" x="2301.448" y="-19" font-family="Helvetica,sans-Serif" font-size="10.00" fill="#000000">NEUTRA</text>
</g>
<!-- A9&#45;&gt;A13 -->
<g id="edge13" class="edge">
<title>A9&#45;&gt;A13</title>
<path fill="none" stroke="#000000" d="M2228.1954,-56C2241.3558,-56 2254.9009,-56 2267.4496,-56"/>
<polygon fill="#000000" stroke="#000000" points="2277.7259,-56 2267.7259,-60.5001 2272.7259,-56 2267.7259,-56.0001 2267.7259,-56.0001 2267.7259,-56.0001 2272.7259,-56 2267.7258,-51.5001 2277.7259,-56 2277.7259,-56"/>
<text text-anchor="middle" x="2259.5997" y="-61.4524" font-family="Helvetica,sans-Serif" font-size="10.00" fill="#000000">tipo1</text>
<text text-anchor="middle" x="2246.3215" y="-44.5476" font-family="Helvetica,sans-Serif" font-size="10.00" fill="#000000">*</text>
</g>
<!-- A10 -->
<g id="node11" class="node">
<title>A10</title>
<polygon fill="none" stroke="#000000" points="1871.5,-162 1871.5,-194 1996.5,-194 1996.5,-162 1871.5,-162"/>
<text text-anchor="start" x="1891.2175" y="-175" font-family="Helvetica,sans-Serif" font-size="10.00" fill="#000000">RegistroEstadistica</text>
<polygon fill="none" stroke="#000000" points="1871.5,-118 1871.5,-162 1996.5,-162 1996.5,-118 1871.5,-118"/>
<text text-anchor="start" x="1911.4995" y="-143" font-family="Helvetica,sans-Serif" font-size="10.00" fill="#000000">valor:Real</text>
<text text-anchor="start" x="1884.8235" y="-131" font-family="Helvetica,sans-Serif" font-size="10.00" fill="#000000">estadistica:Estadistica</text>
<polygon fill="none" stroke="#000000" points="1871.5,-74 1871.5,-118 1996.5,-118 1996.5,-74 1871.5,-74"/>
<text text-anchor="start" x="1881.08" y="-99" font-family="Helvetica,sans-Serif" font-size="10.00" fill="#000000">+Constructor(valor:Real</text>
<text text-anchor="start" x="1883.159" y="-87" font-family="Helvetica,sans-Serif" font-size="10.00" fill="#000000">estadistica:Estadistica)</text>
</g>
<!-- A10&#45;&gt;A2JA9 -->
<g id="edge12" class="edge">
<title>A10&#45;&gt;A2JA9</title>
<path fill="none" stroke="#000000" stroke-dasharray="5,2" d="M1933.5,-73.8409C1933.5,-71.5074 1933.5,-69.174 1933.5,-66.8406"/>
<polygon fill="#000000" stroke="#000000" points="1933.5,-56.6094 1938.0001,-66.6093 1933.5,-61.6094 1933.5001,-66.6094 1933.5001,-66.6094 1933.5001,-66.6094 1933.5,-61.6094 1929.0001,-66.6094 1933.5,-56.6094 1933.5,-56.6094"/>
</g>
<!-- A11&#45;&gt;A4 -->
<g id="edge16" class="edge">
<title>A11&#45;&gt;A4</title>
<path fill="none" stroke="#000000" d="M535.8406,-228.903C545.0848,-231.8415 554.673,-234.8894 564.3236,-237.9572"/>
<polygon fill="none" stroke="#000000" points="535.6685,-228.8483 528.7387,-230.8427 524.2324,-225.213 531.1623,-223.2186 535.6685,-228.8483"/>
<polygon fill="#000000" stroke="#000000" points="573.9845,-241.0282 563.0912,-242.2872 569.2195,-239.5134 564.4544,-237.9987 564.4544,-237.9987 564.4544,-237.9987 569.2195,-239.5134 565.8177,-233.7102 573.9845,-241.0282 573.9845,-241.0282"/>
<text text-anchor="middle" x="554.1496" y="-240.5922" font-family="Helvetica,sans-Serif" font-size="10.00" fill="#000000">2</text>
<text text-anchor="middle" x="544.0674" y="-219.649" font-family="Helvetica,sans-Serif" font-size="10.00" fill="#000000">*</text>
</g>
<!-- A12 -->
<g id="node13" class="node">
<title>A12</title>
<polygon fill="none" stroke="#000000" points="844.5,-101 844.5,-133 1059.5,-133 1059.5,-101 844.5,-101"/>
<text text-anchor="start" x="915.607" y="-114" font-family="Helvetica,sans-Serif" font-size="10.00" fill="#000000">RegistroReporte</text>
<polygon fill="none" stroke="#000000" points="844.5,-57 844.5,-101 1059.5,-101 1059.5,-57 844.5,-57"/>
<text text-anchor="start" x="854.483" y="-82" font-family="Helvetica,sans-Serif" font-size="10.00" fill="#000000">estadisticaParticipanteA:ValorEstadistica</text>
<text text-anchor="start" x="854.483" y="-70" font-family="Helvetica,sans-Serif" font-size="10.00" fill="#000000">estadisticaParticipanteB:ValorEstadistica</text>
</g>
<!-- A11&#45;&gt;A12 -->
<g id="edge14" class="edge">
<title>A11&#45;&gt;A12</title>
<path fill="none" stroke="#000000" d="M536.0338,-186.6717C616.3039,-168.9603 741.9184,-141.2437 834.0239,-120.9208"/>
<polygon fill="none" stroke="#000000" points="535.8412,-186.7141 530.844,-191.913 524.123,-189.2998 529.1202,-184.1009 535.8412,-186.7141"/>
<polygon fill="#000000" stroke="#000000" points="843.9549,-118.7296 835.1594,-125.2786 839.0723,-119.807 834.1897,-120.8843 834.1897,-120.8843 834.1897,-120.8843 839.0723,-119.807 833.2201,-116.49 843.9549,-118.7296 843.9549,-118.7296"/>
<text text-anchor="middle" x="828.0756" y="-127.889" font-family="Helvetica,sans-Serif" font-size="10.00" fill="#000000">registros*</text>
<text text-anchor="middle" x="540.0022" y="-174.1404" font-family="Helvetica,sans-Serif" font-size="10.00" fill="#000000">1</text>
</g>
<!-- A12&#45;&gt;A10 -->
<g id="edge15" class="edge">
<title>A12&#45;&gt;A10</title>
<path fill="none" stroke="#000000" d="M1071.4024,-99.7619C1277.4711,-107.9459 1692.8227,-124.4415 1860.6662,-131.1074"/>
<polygon fill="none" stroke="#000000" points="1071.3908,-99.7615 1065.2367,-103.5202 1059.4002,-99.2852 1065.5543,-95.5265 1071.3908,-99.7615"/>
<polygon fill="#000000" stroke="#000000" points="1870.879,-131.513 1860.7083,-135.6125 1865.883,-131.3146 1860.8869,-131.1161 1860.8869,-131.1161 1860.8869,-131.1161 1865.883,-131.3146 1861.0655,-126.6196 1870.879,-131.513 1870.879,-131.513"/>
<text text-anchor="middle" x="1852.4318" y="-136.2394" font-family="Helvetica,sans-Serif" font-size="10.00" fill="#000000">2</text>
<text text-anchor="middle" x="1077.8475" y="-88.5588" font-family="Helvetica,sans-Serif" font-size="10.00" fill="#000000">*</text>
</g>
<!-- A2JA9&#45;&gt;A9 -->
<g id="edge11" class="edge">
<title>A2JA9&#45;&gt;A9</title>
<path fill="none" stroke="#000000" d="M1934.1411,-56C1941.717,-56 2014.9635,-56 2075.4491,-56"/>
<polygon fill="#000000" stroke="#000000" points="2085.8032,-56 2075.8033,-60.5001 2080.8032,-56 2075.8032,-56.0001 2075.8032,-56.0001 2075.8032,-56.0001 2080.8032,-56 2075.8032,-51.5001 2085.8032,-56 2085.8032,-56"/>
<text text-anchor="middle" x="2067.6771" y="-61.4524" font-family="Helvetica,sans-Serif" font-size="10.00" fill="#000000">*</text>
</g>
</g>
</svg>
