<?xml version="1.0" encoding="UTF-8" standalone="no"?>
<!DOCTYPE svg PUBLIC "-//W3C//DTD SVG 1.1//EN"
 "http://www.w3.org/Graphics/SVG/1.1/DTD/svg11.dtd">
<!-- Generated by graphviz version 2.40.1 (20161225.0304)
 -->
<!-- Title: G Pages: 1 -->
<svg width="2260pt" height="646pt"
 viewBox="0.00 0.00 2260.00 646.00" xmlns="http://www.w3.org/2000/svg" xmlns:xlink="http://www.w3.org/1999/xlink">
<g id="graph0" class="graph" transform="scale(1 1) rotate(0) translate(4 642)">
<title>G</title>
<polygon fill="#ffffff" stroke="transparent" points="-4,4 -4,-642 2256,-642 2256,4 -4,4"/>
<!-- A0 -->
<g id="node1" class="node">
<title>A0</title>
<polygon fill="none" stroke="#000000" points="0,-580 0,-612 360,-612 360,-580 0,-580"/>
<text text-anchor="start" x="164.163" y="-593" font-family="Helvetica,sans-Serif" font-size="10.00" fill="#000000">Torneo</text>
<polygon fill="none" stroke="#000000" points="0,-476 0,-580 360,-580 360,-476 0,-476"/>
<text text-anchor="start" x="149.1605" y="-561" font-family="Helvetica,sans-Serif" font-size="10.00" fill="#000000">nombre:Texto</text>
<text text-anchor="start" x="140.822" y="-549" font-family="Helvetica,sans-Serif" font-size="10.00" fill="#000000">fechaInicio:Fecha</text>
<text text-anchor="start" x="111.6515" y="-537" font-family="Helvetica,sans-Serif" font-size="10.00" fill="#000000">fechaInicioInscripciones:Fecha</text>
<text text-anchor="start" x="109.712" y="-525" font-family="Helvetica,sans-Serif" font-size="10.00" fill="#000000">fechaCierreInscripciones:Fecha</text>
<text text-anchor="start" x="118.042" y="-513" font-family="Helvetica,sans-Serif" font-size="10.00" fill="#000000">numeroParticipantes:Entero</text>
<text text-anchor="start" x="140.5485" y="-501" font-family="Helvetica,sans-Serif" font-size="10.00" fill="#000000">limiteEdad:Entero</text>
<text text-anchor="start" x="129.1595" y="-489" font-family="Helvetica,sans-Serif" font-size="10.00" fill="#000000">valorInscripcion:Entero</text>
<polygon fill="none" stroke="#000000" points="0,0 0,-476 360,-476 360,0 0,0"/>
<text text-anchor="start" x="118.741" y="-457" font-family="Helvetica,sans-Serif" font-size="10.00" fill="#000000">+Constructor(nombre:Texto</text>
<text text-anchor="start" x="140.822" y="-445" font-family="Helvetica,sans-Serif" font-size="10.00" fill="#000000">fechaInicio:Fecha</text>
<text text-anchor="start" x="111.6515" y="-433" font-family="Helvetica,sans-Serif" font-size="10.00" fill="#000000">fechaInicioInscripciones:Fecha</text>
<text text-anchor="start" x="109.712" y="-421" font-family="Helvetica,sans-Serif" font-size="10.00" fill="#000000">fechaCierreInscripciones:Fecha</text>
<text text-anchor="start" x="118.042" y="-409" font-family="Helvetica,sans-Serif" font-size="10.00" fill="#000000">numeroParticipantes:Entero</text>
<text text-anchor="start" x="140.5485" y="-397" font-family="Helvetica,sans-Serif" font-size="10.00" fill="#000000">limiteEdad:Entero</text>
<text text-anchor="start" x="129.1595" y="-385" font-family="Helvetica,sans-Serif" font-size="10.00" fill="#000000">valorInscripcion:Entero</text>
<text text-anchor="start" x="129.1555" y="-373" font-family="Helvetica,sans-Serif" font-size="10.00" fill="#000000">tipoTorneo:TipoTorneo</text>
<text text-anchor="start" x="19.288" y="-361" font-family="Helvetica,sans-Serif" font-size="10.00" fill="#000000">caracter:CaracterTorneo)+registrarParticipante(participante:Participante)</text>
<text text-anchor="start" x="135.1335" y="-349" font-family="Helvetica,sans-Serif" font-size="10.00" fill="#000000">+getNombre():Texto</text>
<text text-anchor="start" x="125.96" y="-337" font-family="Helvetica,sans-Serif" font-size="10.00" fill="#000000">+getFechaInicio():Fecha</text>
<text text-anchor="start" x="96.7895" y="-325" font-family="Helvetica,sans-Serif" font-size="10.00" fill="#000000">+getFechaInicioInscripciones():Fecha</text>
<text text-anchor="start" x="94.85" y="-313" font-family="Helvetica,sans-Serif" font-size="10.00" fill="#000000">+getFechaCierreInscripciones():Fecha</text>
<text text-anchor="start" x="104.015" y="-301" font-family="Helvetica,sans-Serif" font-size="10.00" fill="#000000">+getNumeroParticipantes():Entero</text>
<text text-anchor="start" x="125.6815" y="-289" font-family="Helvetica,sans-Serif" font-size="10.00" fill="#000000">+getLimiteEdad():Entero</text>
<text text-anchor="start" x="115.128" y="-277" font-family="Helvetica,sans-Serif" font-size="10.00" fill="#000000">+getValorInscripcion():Entero</text>
<text text-anchor="start" x="114.2935" y="-265" font-family="Helvetica,sans-Serif" font-size="10.00" fill="#000000">+getTipoTorneo():TipoTorneo</text>
<text text-anchor="start" x="87.6215" y="-253" font-family="Helvetica,sans-Serif" font-size="10.00" fill="#000000">+getParticipantes():Participante［*］</text>
<text text-anchor="start" x="111.2435" y="-241" font-family="Helvetica,sans-Serif" font-size="10.00" fill="#000000">+getCaracter():CaracterTorneo</text>
<text text-anchor="start" x="102.344" y="-229" font-family="Helvetica,sans-Serif" font-size="10.00" fill="#000000">+setFechaInicio(fechaInicio:Fecha)</text>
<text text-anchor="start" x="44.003" y="-217" font-family="Helvetica,sans-Serif" font-size="10.00" fill="#000000">+setFechaInicioInscripciones(fechaInicioInscripciones:Fecha)</text>
<text text-anchor="start" x="40.124" y="-205" font-family="Helvetica,sans-Serif" font-size="10.00" fill="#000000">+setFechaCierreInscripciones(fechaCierreInscripciones:Fecha)</text>
<text text-anchor="start" x="76.65" y="-193" font-family="Helvetica,sans-Serif" font-size="10.00" fill="#000000">buscarParticipante(nombre:Texto):Participante</text>
<text text-anchor="start" x="67.8875" y="-181" font-family="Helvetica,sans-Serif" font-size="10.00" fill="#000000">+registrarJugador(equipo:Equipo,jugador:Jugador)</text>
<text text-anchor="start" x="53.4445" y="-169" font-family="Helvetica,sans-Serif" font-size="10.00" fill="#000000">+registrarJugador(nombreEquipo:Texto,jugador:Jugador)</text>
<text text-anchor="start" x="52.896" y="-157" font-family="Helvetica,sans-Serif" font-size="10.00" fill="#000000">+registrarEstadisticaParticipante(participante:Participante</text>
<text text-anchor="start" x="110.5475" y="-145" font-family="Helvetica,sans-Serif" font-size="10.00" fill="#000000">estadistica:RegistroEstadistica)</text>
<text text-anchor="start" x="92.0685" y="-133" font-family="Helvetica,sans-Serif" font-size="10.00" fill="#000000">+getEstadisticas():Estadistica［*］</text>
<text text-anchor="start" x="69.2905" y="-121" font-family="Helvetica,sans-Serif" font-size="10.00" fill="#000000">+buscarMejor(estadistica:Estadistica):Participante</text>
<text text-anchor="start" x="78.1735" y="-109" font-family="Helvetica,sans-Serif" font-size="10.00" fill="#000000">+buscarSuperiorIgualA(estadistica:Estadistica</text>
<text text-anchor="start" x="105.548" y="-97" font-family="Helvetica,sans-Serif" font-size="10.00" fill="#000000">valor:Real):Participante［*］</text>
<text text-anchor="start" x="92.346" y="-85" font-family="Helvetica,sans-Serif" font-size="10.00" fill="#000000">+buscarInferiorA(estadistica:Estadistica</text>
<text text-anchor="start" x="105.548" y="-73" font-family="Helvetica,sans-Serif" font-size="10.00" fill="#000000">valor:Real):Participante［*］</text>
<text text-anchor="start" x="67.9005" y="-61" font-family="Helvetica,sans-Serif" font-size="10.00" fill="#000000">+promedioEstadistica(estadistica:Estadistica):Real</text>
<text text-anchor="start" x="9.8305" y="-49" font-family="Helvetica,sans-Serif" font-size="10.00" fill="#000000">+obtenerEstadisticas(participante:Participante):RegistroEstadistica［*］</text>
<text text-anchor="start" x="68.452" y="-37" font-family="Helvetica,sans-Serif" font-size="10.00" fill="#000000">+compararParticipantes(participanteA:Participante</text>
<text text-anchor="start" x="123.042" y="-25" font-family="Helvetica,sans-Serif" font-size="10.00" fill="#000000">participanteB:Participante</text>
<text text-anchor="start" x="113.0425" y="-13" font-family="Helvetica,sans-Serif" font-size="10.00" fill="#000000">estadistica:Estadistica):Entero</text>
</g>
<!-- A1 -->
<g id="node2" class="node">
<title>A1</title>
<polygon fill="none" stroke="#000000" points="479.5,-452 479.5,-496 550.5,-496 550.5,-452 479.5,-452"/>
<text text-anchor="start" x="490.264" y="-477" font-family="Helvetica,sans-Serif" font-size="10.00" fill="#000000">&lt;&lt;Enum&gt;&gt;</text>
<text text-anchor="start" x="489.44" y="-465" font-family="Helvetica,sans-Serif" font-size="10.00" fill="#000000">TipoTorneo</text>
<polygon fill="none" stroke="#000000" points="479.5,-384 479.5,-452 550.5,-452 550.5,-384 479.5,-384"/>
<text text-anchor="start" x="498.6075" y="-433" font-family="Helvetica,sans-Serif" font-size="10.00" fill="#000000">LOCAL</text>
<text text-anchor="start" x="489.164" y="-421" font-family="Helvetica,sans-Serif" font-size="10.00" fill="#000000">REGIONAL</text>
<text text-anchor="start" x="489.444" y="-409" font-family="Helvetica,sans-Serif" font-size="10.00" fill="#000000">NACIONAL</text>
<text text-anchor="start" x="492.5035" y="-397" font-family="Helvetica,sans-Serif" font-size="10.00" fill="#000000">MUNDIAL</text>
</g>
<!-- A0&#45;&gt;A1 -->
<g id="edge3" class="edge">
<title>A0&#45;&gt;A1</title>
<path fill="none" stroke="#000000" d="M360.4675,-378.2949C401.0822,-394.5651 440.651,-410.4162 469.513,-421.9783"/>
<polygon fill="#000000" stroke="#000000" points="478.8766,-425.7293 467.9203,-426.1879 474.2352,-423.87 469.5937,-422.0106 469.5937,-422.0106 469.5937,-422.0106 474.2352,-423.87 471.2672,-417.8333 478.8766,-425.7293 478.8766,-425.7293"/>
<text text-anchor="middle" x="458.9072" y="-423.835" font-family="Helvetica,sans-Serif" font-size="10.00" fill="#000000">tipoTorneo1</text>
<text text-anchor="middle" x="380.4369" y="-374.1892" font-family="Helvetica,sans-Serif" font-size="10.00" fill="#000000">*</text>
</g>
<!-- A3 -->
<g id="node4" class="node">
<title>A3</title>
<polygon fill="none" stroke="#000000" points="669.5,-372 669.5,-416 994.5,-416 994.5,-372 669.5,-372"/>
<text text-anchor="start" x="801.151" y="-397" font-family="Helvetica,sans-Serif" font-size="10.00" fill="#000000">&lt;&lt;interface&gt;&gt;</text>
<text text-anchor="start" x="805.6055" y="-385" font-family="Helvetica,sans-Serif" font-size="10.00" fill="#000000">Participante</text>
<polygon fill="none" stroke="#000000" points="669.5,-340 669.5,-372 994.5,-372 994.5,-340 669.5,-340"/>
<text text-anchor="start" x="829.221" y="-353" font-family="Helvetica,sans-Serif" font-size="10.00" fill="#000000"> &#160;</text>
<polygon fill="none" stroke="#000000" points="669.5,-296 669.5,-340 994.5,-340 994.5,-296 669.5,-296"/>
<text text-anchor="start" x="765.7425" y="-321" font-family="Helvetica,sans-Serif" font-size="10.00" fill="#000000">+getNombreCompleto():Texto</text>
<text text-anchor="start" x="679.0595" y="-309" font-family="Helvetica,sans-Serif" font-size="10.00" fill="#000000">+getEstadisticaParticipanteRegister():EstadisticaParticipanteRegister</text>
</g>
<!-- A0&#45;&gt;A3 -->
<g id="edge4" class="edge">
<title>A0&#45;&gt;A3</title>
<path fill="none" stroke="#000000" d="M372.2541,-333.2014C385.0143,-334.6086 397.6834,-335.8946 410,-337 491.6059,-344.3242 582.3665,-348.8753 658.703,-351.6784"/>
<polygon fill="none" stroke="#000000" points="371.9248,-333.1642 365.5136,-336.4653 360.0007,-331.8169 366.4119,-328.5158 371.9248,-333.1642"/>
<polygon fill="#000000" stroke="#000000" points="668.8957,-352.0455 658.7401,-356.1825 663.8989,-351.8655 658.9021,-351.6855 658.9021,-351.6855 658.9021,-351.6855 663.8989,-351.8655 659.0641,-347.1884 668.8957,-352.0455 668.8957,-352.0455"/>
<text text-anchor="middle" x="650.477" y="-356.84" font-family="Helvetica,sans-Serif" font-size="10.00" fill="#000000">participantes*</text>
<text text-anchor="middle" x="378.9612" y="-322.4531" font-family="Helvetica,sans-Serif" font-size="10.00" fill="#000000">1</text>
</g>
<!-- A8 -->
<g id="node9" class="node">
<title>A8</title>
<polygon fill="none" stroke="#000000" points="469.5,-122 469.5,-166 559.5,-166 559.5,-122 469.5,-122"/>
<text text-anchor="start" x="489.764" y="-147" font-family="Helvetica,sans-Serif" font-size="10.00" fill="#000000">&lt;&lt;Enum&gt;&gt;</text>
<text text-anchor="start" x="479.4965" y="-135" font-family="Helvetica,sans-Serif" font-size="10.00" fill="#000000">CaracterTorneo</text>
<polygon fill="none" stroke="#000000" points="469.5,-78 469.5,-122 559.5,-122 559.5,-78 469.5,-78"/>
<text text-anchor="start" x="486.445" y="-103" font-family="Helvetica,sans-Serif" font-size="10.00" fill="#000000">INDIVIDUAL</text>
<text text-anchor="start" x="493.943" y="-91" font-family="Helvetica,sans-Serif" font-size="10.00" fill="#000000">GRUPAL</text>
</g>
<!-- A0&#45;&gt;A8 -->
<g id="edge2" class="edge">
<title>A0&#45;&gt;A8</title>
<path fill="none" stroke="#000000" d="M360.0229,-202.3684C376.859,-193.0084 393.7113,-183.7628 410,-175 426.0986,-166.3395 443.7717,-157.2285 459.9301,-149.0503"/>
<polygon fill="#000000" stroke="#000000" points="469.2456,-144.3534 462.3424,-152.8738 464.781,-146.6045 460.3164,-148.8556 460.3164,-148.8556 460.3164,-148.8556 464.781,-146.6045 458.2904,-144.8375 469.2456,-144.3534 469.2456,-144.3534"/>
<text text-anchor="middle" x="456.8658" y="-157.0614" font-family="Helvetica,sans-Serif" font-size="10.00" fill="#000000">caracter1</text>
<text text-anchor="middle" x="371.7675" y="-183.18" font-family="Helvetica,sans-Serif" font-size="10.00" fill="#000000">*</text>
</g>
<!-- A11 -->
<g id="node12" class="node">
<title>A11</title>
<polygon fill="none" stroke="#000000" points="410.5,-296 410.5,-328 619.5,-328 619.5,-296 410.5,-296"/>
<text text-anchor="start" x="497.2185" y="-309" font-family="Helvetica,sans-Serif" font-size="10.00" fill="#000000">Reporte</text>
<polygon fill="none" stroke="#000000" points="410.5,-240 410.5,-296 619.5,-296 619.5,-240 410.5,-240"/>
<text text-anchor="start" x="487.4895" y="-277" font-family="Helvetica,sans-Serif" font-size="10.00" fill="#000000">fecha:Fecha</text>
<text text-anchor="start" x="458.042" y="-265" font-family="Helvetica,sans-Serif" font-size="10.00" fill="#000000">participanteA:Participante</text>
<text text-anchor="start" x="458.042" y="-253" font-family="Helvetica,sans-Serif" font-size="10.00" fill="#000000">participanteB:Participante</text>
<polygon fill="none" stroke="#000000" points="410.5,-184 410.5,-240 619.5,-240 619.5,-184 410.5,-184"/>
<text text-anchor="start" x="427.6225" y="-221" font-family="Helvetica,sans-Serif" font-size="10.00" fill="#000000">+Constructor(participanteA:Participante</text>
<text text-anchor="start" x="456.3775" y="-209" font-family="Helvetica,sans-Serif" font-size="10.00" fill="#000000">participanteB:Participante)</text>
<text text-anchor="start" x="420.406" y="-197" font-family="Helvetica,sans-Serif" font-size="10.00" fill="#000000">+getRegistros():RegistroReporte［*］</text>
</g>
<!-- A0&#45;&gt;A11 -->
<g id="edge1" class="edge">
<title>A0&#45;&gt;A11</title>
<path fill="none" stroke="#000000" stroke-dasharray="5,2" d="M360.4675,-279.0243C373.7373,-277.0408 386.8955,-275.0739 399.6051,-273.1741"/>
<polygon fill="#000000" stroke="#000000" points="409.6954,-271.6659 400.4705,-277.5948 404.7503,-272.4051 399.8052,-273.1443 399.8052,-273.1443 399.8052,-273.1443 404.7503,-272.4051 399.1399,-268.6937 409.6954,-271.6659 409.6954,-271.6659"/>
</g>
<!-- A2 -->
<g id="node3" class="node">
<title>A2</title>
<polygon fill="none" stroke="#000000" points="1744.5,-372 1744.5,-416 1997.5,-416 1997.5,-372 1744.5,-372"/>
<text text-anchor="start" x="1840.151" y="-397" font-family="Helvetica,sans-Serif" font-size="10.00" fill="#000000">&lt;&lt;interface&gt;&gt;</text>
<text text-anchor="start" x="1801.823" y="-385" font-family="Helvetica,sans-Serif" font-size="10.00" fill="#000000">EstadisticaParticipanteRegister</text>
<polygon fill="none" stroke="#000000" points="1744.5,-352 1744.5,-372 1997.5,-372 1997.5,-352 1744.5,-352"/>
<polygon fill="none" stroke="#000000" points="1744.5,-284 1744.5,-352 1997.5,-352 1997.5,-284 1744.5,-284"/>
<text text-anchor="start" x="1764.457" y="-333" font-family="Helvetica,sans-Serif" font-size="10.00" fill="#000000">+getEstadisticas():RegistroEstadistica［*］</text>
<text text-anchor="start" x="1754.4615" y="-321" font-family="Helvetica,sans-Serif" font-size="10.00" fill="#000000">+registrarEstadistica(estadistica:RegistroEstadistica)</text>
<text text-anchor="start" x="1791.681" y="-309" font-family="Helvetica,sans-Serif" font-size="10.00" fill="#000000">+comparar(participante:Participante</text>
<text text-anchor="start" x="1804.0425" y="-297" font-family="Helvetica,sans-Serif" font-size="10.00" fill="#000000">estadistica:Estadistica):Entero</text>
</g>
<!-- A2&#45;&gt;A3 -->
<g id="edge17" class="edge">
<title>A2&#45;&gt;A3</title>
<path fill="none" stroke="#000000" d="M1733.6209,-334.6593C1720.2462,-333.5759 1706.8694,-332.6545 1694,-332 1450.3322,-319.6072 1167.5915,-332.6987 994.1307,-343.8632"/>
<polygon fill="none" stroke="#000000" points="1733.5819,-338.1682 1743.8398,-335.5177 1734.1679,-331.1928 1733.5819,-338.1682"/>
</g>
<!-- A4 -->
<g id="node5" class="node">
<title>A4</title>
<polygon fill="none" stroke="#000000" points="2047.5,-366 2047.5,-398 2252.5,-398 2252.5,-366 2047.5,-366"/>
<text text-anchor="start" x="2071.38" y="-379" font-family="Helvetica,sans-Serif" font-size="10.00" fill="#000000">EstadisticaParticipanteRegisterImpl</text>
<polygon fill="none" stroke="#000000" points="2047.5,-334 2047.5,-366 2252.5,-366 2252.5,-334 2047.5,-334"/>
<text text-anchor="start" x="2057.209" y="-347" font-family="Helvetica,sans-Serif" font-size="10.00" fill="#000000">estadisticas:RegistroEstadistica［*］</text>
<polygon fill="none" stroke="#000000" points="2047.5,-302 2047.5,-334 2252.5,-334 2252.5,-302 2047.5,-302"/>
<text text-anchor="start" x="2117.916" y="-315" font-family="Helvetica,sans-Serif" font-size="10.00" fill="#000000">+Constructor()</text>
</g>
<!-- A2&#45;&gt;A4 -->
<g id="edge18" class="edge">
<title>A2&#45;&gt;A4</title>
<path fill="none" stroke="#000000" d="M2007.4555,-350C2020.6937,-350 2033.9624,-350 2046.7846,-350"/>
<polygon fill="none" stroke="#000000" points="2007.3461,-346.5001 1997.346,-350 2007.346,-353.5001 2007.3461,-346.5001"/>
</g>
<!-- A5 -->
<g id="node6" class="node">
<title>A5</title>
<polygon fill="none" stroke="#000000" points="1071.5,-498 1071.5,-530 1248.5,-530 1248.5,-498 1071.5,-498"/>
<text text-anchor="start" x="1144.438" y="-511" font-family="Helvetica,sans-Serif" font-size="10.00" fill="#000000">Equipo</text>
<polygon fill="none" stroke="#000000" points="1071.5,-466 1071.5,-498 1248.5,-498 1248.5,-466 1071.5,-466"/>
<text text-anchor="start" x="1129.1605" y="-479" font-family="Helvetica,sans-Serif" font-size="10.00" fill="#000000">nombre:Texto</text>
<polygon fill="none" stroke="#000000" points="1071.5,-374 1071.5,-466 1248.5,-466 1248.5,-374 1071.5,-374"/>
<text text-anchor="start" x="1098.741" y="-447" font-family="Helvetica,sans-Serif" font-size="10.00" fill="#000000">+Constructor(nombre:Texto</text>
<text text-anchor="start" x="1107.485" y="-435" font-family="Helvetica,sans-Serif" font-size="10.00" fill="#000000">representante:Persona)</text>
<text text-anchor="start" x="1115.1335" y="-423" font-family="Helvetica,sans-Serif" font-size="10.00" fill="#000000">+getNombre():Texto</text>
<text text-anchor="start" x="1094.0075" y="-411" font-family="Helvetica,sans-Serif" font-size="10.00" fill="#000000">+getRepresentante():Persona</text>
<text text-anchor="start" x="1081.507" y="-399" font-family="Helvetica,sans-Serif" font-size="10.00" fill="#000000">+getJugadores():Jugador［*］</text>
<text text-anchor="start" x="1081.2355" y="-387" font-family="Helvetica,sans-Serif" font-size="10.00" fill="#000000">+registrarJugador(jugador:Jugador)</text>
</g>
<!-- A3&#45;&gt;A5 -->
<g id="edge9" class="edge">
<title>A3&#45;&gt;A5</title>
<path fill="none" stroke="#000000" d="M1003.9626,-406.4769C1027.0523,-413.2348 1049.9177,-419.9271 1070.7216,-426.0161"/>
<polygon fill="none" stroke="#000000" points="1004.6392,-403.0281 994.0586,-403.5781 1002.6728,-409.7463 1004.6392,-403.0281"/>
</g>
<!-- A7 -->
<g id="node8" class="node">
<title>A7</title>
<polygon fill="none" stroke="#000000" points="1517.5,-606 1517.5,-638 1694.5,-638 1694.5,-606 1517.5,-606"/>
<text text-anchor="start" x="1587.938" y="-619" font-family="Helvetica,sans-Serif" font-size="10.00" fill="#000000">Jugador</text>
<polygon fill="none" stroke="#000000" points="1517.5,-574 1517.5,-606 1694.5,-606 1694.5,-574 1517.5,-574"/>
<text text-anchor="start" x="1553.489" y="-587" font-family="Helvetica,sans-Serif" font-size="10.00" fill="#000000">fechaNacimiento:Fecha</text>
<polygon fill="none" stroke="#000000" points="1517.5,-470 1517.5,-574 1694.5,-574 1694.5,-470 1517.5,-470"/>
<text text-anchor="start" x="1544.741" y="-555" font-family="Helvetica,sans-Serif" font-size="10.00" fill="#000000">+Constructor(nombre:Texto</text>
<text text-anchor="start" x="1574.8815" y="-543" font-family="Helvetica,sans-Serif" font-size="10.00" fill="#000000">apellido:Texto</text>
<text text-anchor="start" x="1580.165" y="-531" font-family="Helvetica,sans-Serif" font-size="10.00" fill="#000000">email:Texto</text>
<text text-anchor="start" x="1577.3855" y="-519" font-family="Helvetica,sans-Serif" font-size="10.00" fill="#000000">celular:Texto</text>
<text text-anchor="start" x="1551.8245" y="-507" font-family="Helvetica,sans-Serif" font-size="10.00" fill="#000000">fechaNacimiento:Fecha)</text>
<text text-anchor="start" x="1538.627" y="-495" font-family="Helvetica,sans-Serif" font-size="10.00" fill="#000000">+getFechaNacimiento():Fecha</text>
<text text-anchor="start" x="1527.2295" y="-483" font-family="Helvetica,sans-Serif" font-size="10.00" fill="#000000">+calcularEdad(fecha:Fecha):Entero</text>
</g>
<!-- A3&#45;&gt;A7 -->
<g id="edge8" class="edge">
<title>A3&#45;&gt;A7</title>
<path fill="none" stroke="#000000" d="M894.9872,-423.3509C934.6173,-461.9617 988.5133,-508.6362 1044,-539 1158.348,-601.5743 1196.0228,-604.1347 1325,-623 1387.4466,-632.134 1405.5667,-637.4556 1467,-623 1483.7358,-619.062 1500.76,-612.7805 1516.8823,-605.5733"/>
<polygon fill="none" stroke="#000000" points="897.3407,-420.7564 887.7562,-416.241 892.4329,-425.7478 897.3407,-420.7564"/>
</g>
<!-- A3JA9 -->
<!-- A3&#45;&gt;A3JA9 -->
<g id="edge10" class="edge">
<title>A3&#45;&gt;A3JA9</title>
<path fill="none" stroke="#000000" d="M985.2702,-295.861C988.3248,-293.0372 991.243,-290.0854 994,-287 1045.9085,-228.91 983.4071,-167.9636 1044,-119 1082.1706,-88.1553 1152.5042,-107.9323 1159.0141,-109.8542"/>
<text text-anchor="middle" x="992.7592" y="-274.3161" font-family="Helvetica,sans-Serif" font-size="10.00" fill="#000000">*</text>
</g>
<!-- A5&#45;&gt;A2 -->
<g id="edge20" class="edge">
<title>A5&#45;&gt;A2</title>
<path fill="none" stroke="#000000" d="M1248.2399,-398.7694C1272.3449,-386.7733 1298.9935,-375.636 1325,-369 1460.7868,-334.3517 1621.7281,-333.3936 1733.4497,-338.7643"/>
<polygon fill="#000000" stroke="#000000" points="1743.7669,-339.2849 1733.5528,-343.2751 1738.7733,-339.0329 1733.7796,-338.7808 1733.7796,-338.7808 1733.7796,-338.7808 1738.7733,-339.0329 1734.0065,-334.2865 1743.7669,-339.2849 1743.7669,-339.2849"/>
</g>
<!-- A6 -->
<g id="node7" class="node">
<title>A6</title>
<polygon fill="none" stroke="#000000" points="1325,-562 1325,-594 1467,-594 1467,-562 1325,-562"/>
<text text-anchor="start" x="1377.383" y="-575" font-family="Helvetica,sans-Serif" font-size="10.00" fill="#000000">Persona</text>
<polygon fill="none" stroke="#000000" points="1325,-494 1325,-562 1467,-562 1467,-494 1325,-494"/>
<text text-anchor="start" x="1365.1605" y="-543" font-family="Helvetica,sans-Serif" font-size="10.00" fill="#000000">nombre:Texto</text>
<text text-anchor="start" x="1364.8815" y="-531" font-family="Helvetica,sans-Serif" font-size="10.00" fill="#000000">apellido:Texto</text>
<text text-anchor="start" x="1370.165" y="-519" font-family="Helvetica,sans-Serif" font-size="10.00" fill="#000000">email:Texto</text>
<text text-anchor="start" x="1367.3855" y="-507" font-family="Helvetica,sans-Serif" font-size="10.00" fill="#000000">celular:Texto</text>
<polygon fill="none" stroke="#000000" points="1325,-378 1325,-494 1467,-494 1467,-378 1325,-378"/>
<text text-anchor="start" x="1334.741" y="-475" font-family="Helvetica,sans-Serif" font-size="10.00" fill="#000000">+Constructor(nombre:Texto</text>
<text text-anchor="start" x="1364.8815" y="-463" font-family="Helvetica,sans-Serif" font-size="10.00" fill="#000000">apellido:Texto</text>
<text text-anchor="start" x="1370.165" y="-451" font-family="Helvetica,sans-Serif" font-size="10.00" fill="#000000">email:Texto</text>
<text text-anchor="start" x="1365.721" y="-439" font-family="Helvetica,sans-Serif" font-size="10.00" fill="#000000">celular:Texto)</text>
<text text-anchor="start" x="1351.1335" y="-427" font-family="Helvetica,sans-Serif" font-size="10.00" fill="#000000">+getNombre():Texto</text>
<text text-anchor="start" x="1351.1295" y="-415" font-family="Helvetica,sans-Serif" font-size="10.00" fill="#000000">+getApellido():Texto</text>
<text text-anchor="start" x="1356.413" y="-403" font-family="Helvetica,sans-Serif" font-size="10.00" fill="#000000">+getEmail():Texto</text>
<text text-anchor="start" x="1353.079" y="-391" font-family="Helvetica,sans-Serif" font-size="10.00" fill="#000000">+getCelular():Texto</text>
</g>
<!-- A5&#45;&gt;A6 -->
<g id="edge5" class="edge">
<title>A5&#45;&gt;A6</title>
<path fill="none" stroke="#000000" d="M1260.2162,-466.4793C1278.3958,-469.0928 1297.1409,-471.7877 1314.6809,-474.3093"/>
<polygon fill="none" stroke="#000000" points="1260.1146,-466.4648 1253.6064,-469.5702 1248.2367,-464.7571 1254.7449,-461.6516 1260.1146,-466.4648"/>
<polygon fill="#000000" stroke="#000000" points="1324.8556,-475.772 1314.317,-478.8032 1319.9065,-475.0605 1314.9573,-474.349 1314.9573,-474.349 1314.9573,-474.349 1319.9065,-475.0605 1315.5977,-469.8948 1324.8556,-475.772 1324.8556,-475.772"/>
<text text-anchor="middle" x="1305.7111" y="-478.559" font-family="Helvetica,sans-Serif" font-size="10.00" fill="#000000">representante1</text>
<text text-anchor="middle" x="1267.3812" y="-455.9701" font-family="Helvetica,sans-Serif" font-size="10.00" fill="#000000">1</text>
</g>
<!-- A5&#45;&gt;A7 -->
<g id="edge7" class="edge">
<title>A5&#45;&gt;A7</title>
<path fill="none" stroke="#000000" d="M1231.3572,-538.9437C1257.8205,-564.5972 1289.9742,-589.4225 1325,-603 1383.158,-625.5445 1452.1264,-613.963 1507.1212,-596.4183"/>
<polygon fill="none" stroke="#000000" points="1231.1075,-538.6951 1224.0335,-537.2953 1222.6049,-530.2271 1229.6788,-531.6269 1231.1075,-538.6951"/>
<polygon fill="#000000" stroke="#000000" points="1516.8707,-593.1997 1508.7855,-600.6078 1512.1227,-594.7672 1507.3747,-596.3347 1507.3747,-596.3347 1507.3747,-596.3347 1512.1227,-594.7672 1505.964,-592.0615 1516.8707,-593.1997 1516.8707,-593.1997"/>
<text text-anchor="middle" x="1502.308" y="-603.9084" font-family="Helvetica,sans-Serif" font-size="10.00" fill="#000000">jugador*</text>
<text text-anchor="middle" x="1241.4127" y="-534.0291" font-family="Helvetica,sans-Serif" font-size="10.00" fill="#000000">1</text>
</g>
<!-- A6&#45;&gt;A7 -->
<g id="edge6" class="edge">
<title>A6&#45;&gt;A7</title>
<path fill="none" stroke="#000000" d="M1477.034,-512.3022C1490.0178,-516.5165 1503.5146,-520.8974 1516.6686,-525.1669"/>
<polygon fill="none" stroke="#000000" points="1477.8116,-508.8749 1467.2195,-509.1166 1475.6504,-515.5329 1477.8116,-508.8749"/>
</g>
<!-- A7&#45;&gt;A2 -->
<g id="edge19" class="edge">
<title>A7&#45;&gt;A2</title>
<path fill="none" stroke="#000000" d="M1694.1096,-485.7873C1720.563,-465.4232 1749.6477,-443.0335 1776.4374,-422.4105"/>
<polygon fill="#000000" stroke="#000000" points="1784.6723,-416.0711 1779.4933,-425.737 1780.7103,-419.1212 1776.7482,-422.1712 1776.7482,-422.1712 1776.7482,-422.1712 1780.7103,-419.1212 1774.0032,-418.6054 1784.6723,-416.0711 1784.6723,-416.0711"/>
</g>
<!-- A9 -->
<g id="node10" class="node">
<title>A9</title>
<polygon fill="none" stroke="#000000" points="1325,-144 1325,-176 1467,-176 1467,-144 1325,-144"/>
<text text-anchor="start" x="1371.829" y="-157" font-family="Helvetica,sans-Serif" font-size="10.00" fill="#000000">Estadistica</text>
<polygon fill="none" stroke="#000000" points="1325,-112 1325,-144 1467,-144 1467,-112 1325,-112"/>
<text text-anchor="start" x="1365.1605" y="-125" font-family="Helvetica,sans-Serif" font-size="10.00" fill="#000000">nombre:Texto</text>
<polygon fill="none" stroke="#000000" points="1325,-44 1325,-112 1467,-112 1467,-44 1325,-44"/>
<text text-anchor="start" x="1334.741" y="-93" font-family="Helvetica,sans-Serif" font-size="10.00" fill="#000000">+Constructor(nombre:Texto</text>
<text text-anchor="start" x="1350.994" y="-81" font-family="Helvetica,sans-Serif" font-size="10.00" fill="#000000">tipo:TipoEstadistica)</text>
<text text-anchor="start" x="1351.1335" y="-69" font-family="Helvetica,sans-Serif" font-size="10.00" fill="#000000">+getNombre():Texto</text>
<text text-anchor="start" x="1337.7965" y="-57" font-family="Helvetica,sans-Serif" font-size="10.00" fill="#000000">+getTipo():TipoEstadistica</text>
</g>
<!-- A13 -->
<g id="node14" class="node">
<title>A13</title>
<polygon fill="none" stroke="#000000" points="1562.5,-116 1562.5,-160 1649.5,-160 1649.5,-116 1562.5,-116"/>
<text text-anchor="start" x="1581.264" y="-141" font-family="Helvetica,sans-Serif" font-size="10.00" fill="#000000">&lt;&lt;Enum&gt;&gt;</text>
<text text-anchor="start" x="1572.106" y="-129" font-family="Helvetica,sans-Serif" font-size="10.00" fill="#000000">TipoEstadistica</text>
<polygon fill="none" stroke="#000000" points="1562.5,-60 1562.5,-116 1649.5,-116 1649.5,-60 1562.5,-60"/>
<text text-anchor="start" x="1582.939" y="-97" font-family="Helvetica,sans-Serif" font-size="10.00" fill="#000000">POSITIVA</text>
<text text-anchor="start" x="1580.719" y="-85" font-family="Helvetica,sans-Serif" font-size="10.00" fill="#000000">NEGATIVA</text>
<text text-anchor="start" x="1585.448" y="-73" font-family="Helvetica,sans-Serif" font-size="10.00" fill="#000000">NEUTRA</text>
</g>
<!-- A9&#45;&gt;A13 -->
<g id="edge13" class="edge">
<title>A9&#45;&gt;A13</title>
<path fill="none" stroke="#000000" d="M1467.2195,-110C1494.8477,-110 1525.9549,-110 1551.6586,-110"/>
<polygon fill="#000000" stroke="#000000" points="1561.9518,-110 1551.9519,-114.5001 1556.9518,-110 1551.9518,-110.0001 1551.9518,-110.0001 1551.9518,-110.0001 1556.9518,-110 1551.9518,-105.5001 1561.9518,-110 1561.9518,-110"/>
<text text-anchor="middle" x="1543.8257" y="-115.4524" font-family="Helvetica,sans-Serif" font-size="10.00" fill="#000000">tipo1</text>
<text text-anchor="middle" x="1485.3456" y="-98.5476" font-family="Helvetica,sans-Serif" font-size="10.00" fill="#000000">*</text>
</g>
<!-- A10 -->
<g id="node11" class="node">
<title>A10</title>
<polygon fill="none" stroke="#000000" points="1044.5,-252 1044.5,-284 1275.5,-284 1275.5,-252 1044.5,-252"/>
<text text-anchor="start" x="1117.2175" y="-265" font-family="Helvetica,sans-Serif" font-size="10.00" fill="#000000">RegistroEstadistica</text>
<polygon fill="none" stroke="#000000" points="1044.5,-208 1044.5,-252 1275.5,-252 1275.5,-208 1044.5,-208"/>
<text text-anchor="start" x="1137.4995" y="-233" font-family="Helvetica,sans-Serif" font-size="10.00" fill="#000000">valor:Real</text>
<text text-anchor="start" x="1110.8235" y="-221" font-family="Helvetica,sans-Serif" font-size="10.00" fill="#000000">estadistica:Estadistica</text>
<polygon fill="none" stroke="#000000" points="1044.5,-128 1044.5,-208 1275.5,-208 1275.5,-128 1044.5,-128"/>
<text text-anchor="start" x="1107.08" y="-189" font-family="Helvetica,sans-Serif" font-size="10.00" fill="#000000">+Constructor(valor:Real</text>
<text text-anchor="start" x="1109.159" y="-177" font-family="Helvetica,sans-Serif" font-size="10.00" fill="#000000">estadistica:Estadistica)</text>
<text text-anchor="start" x="1123.468" y="-165" font-family="Helvetica,sans-Serif" font-size="10.00" fill="#000000">+getValor():Real</text>
<text text-anchor="start" x="1097.0715" y="-153" font-family="Helvetica,sans-Serif" font-size="10.00" fill="#000000">+getEstadistica():Estadistica</text>
<text text-anchor="start" x="1054.435" y="-141" font-family="Helvetica,sans-Serif" font-size="10.00" fill="#000000">compareTo(registro:RegistroEstadistica):Entero</text>
</g>
<!-- A10&#45;&gt;A3JA9 -->
<g id="edge12" class="edge">
<title>A10&#45;&gt;A3JA9</title>
<path fill="none" stroke="#000000" stroke-dasharray="5,2" d="M1159.5,-127.9312C1159.5,-125.4623 1159.5,-122.9935 1159.5,-120.5247"/>
<polygon fill="#000000" stroke="#000000" points="1159.5,-110.375 1164.0001,-120.375 1159.5,-115.375 1159.5001,-120.375 1159.5001,-120.375 1159.5001,-120.375 1159.5,-115.375 1155.0001,-120.375 1159.5,-110.375 1159.5,-110.375"/>
</g>
<!-- A11&#45;&gt;A3 -->
<g id="edge16" class="edge">
<title>A11&#45;&gt;A3</title>
<path fill="none" stroke="#000000" d="M630.9069,-292.7214C640.1801,-295.6467 649.6605,-298.6374 659.2082,-301.6493"/>
<polygon fill="none" stroke="#000000" points="630.6203,-292.6311 623.6948,-294.6407 619.1762,-289.0209 626.1016,-287.0113 630.6203,-292.6311"/>
<polygon fill="#000000" stroke="#000000" points="668.7732,-304.6666 657.8826,-305.9496 664.0048,-303.1624 659.2364,-301.6581 659.2364,-301.6581 659.2364,-301.6581 664.0048,-303.1624 660.5903,-297.3666 668.7732,-304.6666 668.7732,-304.6666"/>
<text text-anchor="middle" x="648.9439" y="-304.2743" font-family="Helvetica,sans-Serif" font-size="10.00" fill="#000000">2</text>
<text text-anchor="middle" x="639.0055" y="-283.4132" font-family="Helvetica,sans-Serif" font-size="10.00" fill="#000000">*</text>
</g>
<!-- A12 -->
<g id="node13" class="node">
<title>A12</title>
<polygon fill="none" stroke="#000000" points="694.5,-246 694.5,-278 969.5,-278 969.5,-246 694.5,-246"/>
<text text-anchor="start" x="795.607" y="-259" font-family="Helvetica,sans-Serif" font-size="10.00" fill="#000000">RegistroReporte</text>
<polygon fill="none" stroke="#000000" points="694.5,-202 694.5,-246 969.5,-246 969.5,-202 694.5,-202"/>
<text text-anchor="start" x="734.483" y="-227" font-family="Helvetica,sans-Serif" font-size="10.00" fill="#000000">estadisticaParticipanteA:RegistroEstadistica</text>
<text text-anchor="start" x="734.483" y="-215" font-family="Helvetica,sans-Serif" font-size="10.00" fill="#000000">estadisticaParticipanteB:RegistroEstadistica</text>
<polygon fill="none" stroke="#000000" points="694.5,-134 694.5,-202 969.5,-202 969.5,-134 694.5,-134"/>
<text text-anchor="start" x="704.0635" y="-183" font-family="Helvetica,sans-Serif" font-size="10.00" fill="#000000">+Constructor(estadisticaParticipanteA:RegistroEstadistica</text>
<text text-anchor="start" x="732.8185" y="-171" font-family="Helvetica,sans-Serif" font-size="10.00" fill="#000000">estadisticaParticipanteB:RegistroEstadistica)</text>
<text text-anchor="start" x="721.0105" y="-159" font-family="Helvetica,sans-Serif" font-size="10.00" fill="#000000">+getEstadisticaParticianteA():ResgistroEstadistica</text>
<text text-anchor="start" x="721.0105" y="-147" font-family="Helvetica,sans-Serif" font-size="10.00" fill="#000000">+getEstadisticaParticianteB():ResgistroEstadistica</text>
</g>
<!-- A11&#45;&gt;A12 -->
<g id="edge14" class="edge">
<title>A11&#45;&gt;A12</title>
<path fill="none" stroke="#000000" d="M631.0754,-237.6127C648.1498,-234.9196 665.9235,-232.1162 683.5234,-229.3402"/>
<polygon fill="none" stroke="#000000" points="631.0297,-237.6198 625.7262,-242.5059 619.1762,-239.4896 624.4797,-234.6035 631.0297,-237.6198"/>
<polygon fill="#000000" stroke="#000000" points="693.8593,-227.7099 684.6826,-233.713 688.9203,-228.4889 683.9814,-229.268 683.9814,-229.268 683.9814,-229.268 688.9203,-228.4889 683.2803,-224.823 693.8593,-227.7099 693.8593,-227.7099"/>
<text text-anchor="middle" x="677.2714" y="-235.8831" font-family="Helvetica,sans-Serif" font-size="10.00" fill="#000000">registros*</text>
<text text-anchor="middle" x="635.7641" y="-225.3163" font-family="Helvetica,sans-Serif" font-size="10.00" fill="#000000">1</text>
</g>
<!-- A12&#45;&gt;A10 -->
<g id="edge15" class="edge">
<title>A12&#45;&gt;A10</title>
<path fill="none" stroke="#000000" d="M981.1911,-206C998.8126,-206 1016.6561,-206 1033.8995,-206"/>
<polygon fill="none" stroke="#000000" points="981.1759,-206.0001 975.1758,-210 969.1759,-206 975.1759,-202 981.1759,-206.0001"/>
<polygon fill="#000000" stroke="#000000" points="1043.9766,-206 1033.9767,-210.5001 1038.9766,-206 1033.9766,-206.0001 1033.9766,-206.0001 1033.9766,-206.0001 1038.9766,-206 1033.9766,-201.5001 1043.9766,-206 1043.9766,-206"/>
<text text-anchor="middle" x="1025.8505" y="-211.4524" font-family="Helvetica,sans-Serif" font-size="10.00" fill="#000000">2</text>
<text text-anchor="middle" x="987.302" y="-194.5476" font-family="Helvetica,sans-Serif" font-size="10.00" fill="#000000">*</text>
</g>
<!-- A3JA9&#45;&gt;A9 -->
<g id="edge11" class="edge">
<title>A3JA9&#45;&gt;A9</title>
<path fill="none" stroke="#000000" d="M1159.8837,-110C1166.1754,-110 1248.6021,-110 1314.3173,-110"/>
<polygon fill="#000000" stroke="#000000" points="1324.7064,-110 1314.7065,-114.5001 1319.7064,-110 1314.7064,-110.0001 1314.7064,-110.0001 1314.7064,-110.0001 1319.7064,-110 1314.7064,-105.5001 1324.7064,-110 1324.7064,-110"/>
<text text-anchor="middle" x="1306.5803" y="-115.4524" font-family="Helvetica,sans-Serif" font-size="10.00" fill="#000000">*</text>
</g>
</g>
</svg>
