<?xml version="1.0" encoding="UTF-8" standalone="no"?>
<!DOCTYPE svg PUBLIC "-//W3C//DTD SVG 1.1//EN"
 "http://www.w3.org/Graphics/SVG/1.1/DTD/svg11.dtd">
<!-- Generated by graphviz version 2.40.1 (20161225.0304)
 -->
<!-- Title: G Pages: 1 -->
<svg width="2498pt" height="628pt"
 viewBox="0.00 0.00 2498.00 627.74" xmlns="http://www.w3.org/2000/svg" xmlns:xlink="http://www.w3.org/1999/xlink">
<g id="graph0" class="graph" transform="scale(1 1) rotate(0) translate(4 623.7371)">
<title>G</title>
<polygon fill="#ffffff" stroke="transparent" points="-4,4 -4,-623.7371 2494,-623.7371 2494,4 -4,4"/>
<!-- A0 -->
<g id="node1" class="node">
<title>A0</title>
<polygon fill="none" stroke="#000000" points="0,-580 0,-612 346,-612 346,-580 0,-580"/>
<text text-anchor="start" x="157.163" y="-593" font-family="Helvetica,sans-Serif" font-size="10.00" fill="#000000">Torneo</text>
<polygon fill="none" stroke="#000000" points="0,-476 0,-580 346,-580 346,-476 0,-476"/>
<text text-anchor="start" x="142.1605" y="-561" font-family="Helvetica,sans-Serif" font-size="10.00" fill="#000000">nombre:Texto</text>
<text text-anchor="start" x="133.822" y="-549" font-family="Helvetica,sans-Serif" font-size="10.00" fill="#000000">fechaInicio:Fecha</text>
<text text-anchor="start" x="104.6515" y="-537" font-family="Helvetica,sans-Serif" font-size="10.00" fill="#000000">fechaInicioInscripciones:Fecha</text>
<text text-anchor="start" x="102.712" y="-525" font-family="Helvetica,sans-Serif" font-size="10.00" fill="#000000">fechaCierreInscripciones:Fecha</text>
<text text-anchor="start" x="111.042" y="-513" font-family="Helvetica,sans-Serif" font-size="10.00" fill="#000000">numeroParticipantes:Entero</text>
<text text-anchor="start" x="133.5485" y="-501" font-family="Helvetica,sans-Serif" font-size="10.00" fill="#000000">limiteEdad:Entero</text>
<text text-anchor="start" x="122.1595" y="-489" font-family="Helvetica,sans-Serif" font-size="10.00" fill="#000000">valorInscripcion:Entero</text>
<polygon fill="none" stroke="#000000" points="0,0 0,-476 346,-476 346,0 0,0"/>
<text text-anchor="start" x="111.741" y="-457" font-family="Helvetica,sans-Serif" font-size="10.00" fill="#000000">+Constructor(nombre:Texto</text>
<text text-anchor="start" x="133.822" y="-445" font-family="Helvetica,sans-Serif" font-size="10.00" fill="#000000">fechaInicio:Fecha</text>
<text text-anchor="start" x="104.6515" y="-433" font-family="Helvetica,sans-Serif" font-size="10.00" fill="#000000">fechaInicioInscripciones:Fecha</text>
<text text-anchor="start" x="102.712" y="-421" font-family="Helvetica,sans-Serif" font-size="10.00" fill="#000000">fechaCierreInscripciones:Fecha</text>
<text text-anchor="start" x="111.042" y="-409" font-family="Helvetica,sans-Serif" font-size="10.00" fill="#000000">numeroParticipantes:Entero</text>
<text text-anchor="start" x="133.5485" y="-397" font-family="Helvetica,sans-Serif" font-size="10.00" fill="#000000">limiteEdad:Entero</text>
<text text-anchor="start" x="122.1595" y="-385" font-family="Helvetica,sans-Serif" font-size="10.00" fill="#000000">valorInscripcion:Entero</text>
<text text-anchor="start" x="122.1555" y="-373" font-family="Helvetica,sans-Serif" font-size="10.00" fill="#000000">tipoTorneo:TipoTorneo</text>
<text text-anchor="start" x="12.288" y="-361" font-family="Helvetica,sans-Serif" font-size="10.00" fill="#000000">caracter:CaracterTorneo)+registrarParticipante(participante:Participante)</text>
<text text-anchor="start" x="128.1335" y="-349" font-family="Helvetica,sans-Serif" font-size="10.00" fill="#000000">+getNombre():Texto</text>
<text text-anchor="start" x="118.96" y="-337" font-family="Helvetica,sans-Serif" font-size="10.00" fill="#000000">+getFechaInicio():Fecha</text>
<text text-anchor="start" x="89.7895" y="-325" font-family="Helvetica,sans-Serif" font-size="10.00" fill="#000000">+getFechaInicioInscripciones():Fecha</text>
<text text-anchor="start" x="87.85" y="-313" font-family="Helvetica,sans-Serif" font-size="10.00" fill="#000000">+getFechaCierreInscripciones():Fecha</text>
<text text-anchor="start" x="97.015" y="-301" font-family="Helvetica,sans-Serif" font-size="10.00" fill="#000000">+getNumeroParticipantes():Entero</text>
<text text-anchor="start" x="118.6815" y="-289" font-family="Helvetica,sans-Serif" font-size="10.00" fill="#000000">+getLimiteEdad():Entero</text>
<text text-anchor="start" x="108.128" y="-277" font-family="Helvetica,sans-Serif" font-size="10.00" fill="#000000">+getValorInscripcion():Entero</text>
<text text-anchor="start" x="107.2935" y="-265" font-family="Helvetica,sans-Serif" font-size="10.00" fill="#000000">+getTipoTorneo():TipoTorneo</text>
<text text-anchor="start" x="80.6215" y="-253" font-family="Helvetica,sans-Serif" font-size="10.00" fill="#000000">+getParticipantes():Participante［*］</text>
<text text-anchor="start" x="104.2435" y="-241" font-family="Helvetica,sans-Serif" font-size="10.00" fill="#000000">+getCaracter():CaracterTorneo</text>
<text text-anchor="start" x="95.344" y="-229" font-family="Helvetica,sans-Serif" font-size="10.00" fill="#000000">+setFechaInicio(fechaInicio:Fecha)</text>
<text text-anchor="start" x="37.003" y="-217" font-family="Helvetica,sans-Serif" font-size="10.00" fill="#000000">+setFechaInicioInscripciones(fechaInicioInscripciones:Fecha)</text>
<text text-anchor="start" x="33.124" y="-205" font-family="Helvetica,sans-Serif" font-size="10.00" fill="#000000">+setFechaCierreInscripciones(fechaCierreInscripciones:Fecha)</text>
<text text-anchor="start" x="69.65" y="-193" font-family="Helvetica,sans-Serif" font-size="10.00" fill="#000000">buscarParticipante(nombre:Texto):Participante</text>
<text text-anchor="start" x="60.8875" y="-181" font-family="Helvetica,sans-Serif" font-size="10.00" fill="#000000">+registrarJugador(equipo:Equipo,jugador:Jugador)</text>
<text text-anchor="start" x="46.4445" y="-169" font-family="Helvetica,sans-Serif" font-size="10.00" fill="#000000">+registrarJugador(nombreEquipo:Texto,jugador:Jugador)</text>
<text text-anchor="start" x="45.896" y="-157" font-family="Helvetica,sans-Serif" font-size="10.00" fill="#000000">+registrarEstadisticaParticipante(participante:Participante</text>
<text text-anchor="start" x="110.4915" y="-145" font-family="Helvetica,sans-Serif" font-size="10.00" fill="#000000">estadistica:ValorEstadistica)</text>
<text text-anchor="start" x="85.0685" y="-133" font-family="Helvetica,sans-Serif" font-size="10.00" fill="#000000">+getEstadisticas():Estadistica［*］</text>
<text text-anchor="start" x="62.2905" y="-121" font-family="Helvetica,sans-Serif" font-size="10.00" fill="#000000">+buscarMejor(estadistica:Estadistica):Participante</text>
<text text-anchor="start" x="71.1735" y="-109" font-family="Helvetica,sans-Serif" font-size="10.00" fill="#000000">+buscarSuperiorIgualA(estadistica:Estadistica</text>
<text text-anchor="start" x="98.548" y="-97" font-family="Helvetica,sans-Serif" font-size="10.00" fill="#000000">valor:Real):Participante［*］</text>
<text text-anchor="start" x="85.346" y="-85" font-family="Helvetica,sans-Serif" font-size="10.00" fill="#000000">+buscarInferiorA(estadistica:Estadistica</text>
<text text-anchor="start" x="98.548" y="-73" font-family="Helvetica,sans-Serif" font-size="10.00" fill="#000000">valor:Real):Participante［*］</text>
<text text-anchor="start" x="60.9005" y="-61" font-family="Helvetica,sans-Serif" font-size="10.00" fill="#000000">+promedioEstadistica(estadistica:Estadistica):Real</text>
<text text-anchor="start" x="9.7745" y="-49" font-family="Helvetica,sans-Serif" font-size="10.00" fill="#000000">+obtenerEstadisticas(participante:Participante):ValorEstadistica［*］</text>
<text text-anchor="start" x="61.452" y="-37" font-family="Helvetica,sans-Serif" font-size="10.00" fill="#000000">+compararParticipantes(participanteA:Participante</text>
<text text-anchor="start" x="116.042" y="-25" font-family="Helvetica,sans-Serif" font-size="10.00" fill="#000000">participanteB:Participante</text>
<text text-anchor="start" x="106.0425" y="-13" font-family="Helvetica,sans-Serif" font-size="10.00" fill="#000000">estadistica:Estadistica):Entero</text>
</g>
<!-- A1 -->
<g id="node2" class="node">
<title>A1</title>
<polygon fill="none" stroke="#000000" points="465.5,-452 465.5,-496 536.5,-496 536.5,-452 465.5,-452"/>
<text text-anchor="start" x="476.264" y="-477" font-family="Helvetica,sans-Serif" font-size="10.00" fill="#000000">&lt;&lt;Enum&gt;&gt;</text>
<text text-anchor="start" x="475.44" y="-465" font-family="Helvetica,sans-Serif" font-size="10.00" fill="#000000">TipoTorneo</text>
<polygon fill="none" stroke="#000000" points="465.5,-384 465.5,-452 536.5,-452 536.5,-384 465.5,-384"/>
<text text-anchor="start" x="484.6075" y="-433" font-family="Helvetica,sans-Serif" font-size="10.00" fill="#000000">LOCAL</text>
<text text-anchor="start" x="475.164" y="-421" font-family="Helvetica,sans-Serif" font-size="10.00" fill="#000000">REGIONAL</text>
<text text-anchor="start" x="475.444" y="-409" font-family="Helvetica,sans-Serif" font-size="10.00" fill="#000000">NACIONAL</text>
<text text-anchor="start" x="478.5035" y="-397" font-family="Helvetica,sans-Serif" font-size="10.00" fill="#000000">MUNDIAL</text>
</g>
<!-- A0&#45;&gt;A1 -->
<g id="edge3" class="edge">
<title>A0&#45;&gt;A1</title>
<path fill="none" stroke="#000000" d="M346.3398,-376.9238C386.8672,-393.506 426.6086,-409.7666 455.5885,-421.624"/>
<polygon fill="#000000" stroke="#000000" points="464.9895,-425.4705 454.0301,-425.8484 460.3619,-423.577 455.7342,-421.6836 455.7342,-421.6836 455.7342,-421.6836 460.3619,-423.577 457.4383,-417.5187 464.9895,-425.4705 464.9895,-425.4705"/>
<text text-anchor="middle" x="445.0125" y="-423.4292" font-family="Helvetica,sans-Serif" font-size="10.00" fill="#000000">tipoTorneo1</text>
<text text-anchor="middle" x="366.3169" y="-372.9651" font-family="Helvetica,sans-Serif" font-size="10.00" fill="#000000">*</text>
</g>
<!-- A4 -->
<g id="node5" class="node">
<title>A4</title>
<polygon fill="none" stroke="#000000" points="655,-356 655,-400 875,-400 875,-356 655,-356"/>
<text text-anchor="start" x="734.151" y="-381" font-family="Helvetica,sans-Serif" font-size="10.00" fill="#000000">&lt;&lt;interface&gt;&gt;</text>
<text text-anchor="start" x="738.6055" y="-369" font-family="Helvetica,sans-Serif" font-size="10.00" fill="#000000">Participante</text>
<polygon fill="none" stroke="#000000" points="655,-312 655,-356 875,-356 875,-312 655,-312"/>
<text text-anchor="start" x="698.7425" y="-337" font-family="Helvetica,sans-Serif" font-size="10.00" fill="#000000">+getNombreCompleto():Texto</text>
<text text-anchor="start" x="664.8485" y="-325" font-family="Helvetica,sans-Serif" font-size="10.00" fill="#000000">+getRegistroEstadistica():RegistroEstadistica</text>
</g>
<!-- A0&#45;&gt;A4 -->
<g id="edge4" class="edge">
<title>A0&#45;&gt;A4</title>
<path fill="none" stroke="#000000" d="M358.2548,-332.9995C371.0144,-334.4749 383.6887,-335.8295 396,-337 478.7949,-344.8714 572.3728,-349.6432 644.5751,-352.4361"/>
<polygon fill="none" stroke="#000000" points="357.9211,-332.9601 351.4926,-336.2273 346.0042,-331.55 352.4327,-328.2827 357.9211,-332.9601"/>
<polygon fill="#000000" stroke="#000000" points="654.618,-352.8171 644.4545,-356.9346 649.6215,-352.6275 644.6251,-352.4379 644.6251,-352.4379 644.6251,-352.4379 649.6215,-352.6275 644.7958,-347.9411 654.618,-352.8171 654.618,-352.8171"/>
<text text-anchor="middle" x="636.1843" y="-357.5761" font-family="Helvetica,sans-Serif" font-size="10.00" fill="#000000">participantes*</text>
<text text-anchor="middle" x="364.998" y="-322.286" font-family="Helvetica,sans-Serif" font-size="10.00" fill="#000000">1</text>
</g>
<!-- A8 -->
<g id="node9" class="node">
<title>A8</title>
<polygon fill="none" stroke="#000000" points="455.5,-122 455.5,-166 545.5,-166 545.5,-122 455.5,-122"/>
<text text-anchor="start" x="475.764" y="-147" font-family="Helvetica,sans-Serif" font-size="10.00" fill="#000000">&lt;&lt;Enum&gt;&gt;</text>
<text text-anchor="start" x="465.4965" y="-135" font-family="Helvetica,sans-Serif" font-size="10.00" fill="#000000">CaracterTorneo</text>
<polygon fill="none" stroke="#000000" points="455.5,-78 455.5,-122 545.5,-122 545.5,-78 455.5,-78"/>
<text text-anchor="start" x="472.445" y="-103" font-family="Helvetica,sans-Serif" font-size="10.00" fill="#000000">INDIVIDUAL</text>
<text text-anchor="start" x="479.943" y="-91" font-family="Helvetica,sans-Serif" font-size="10.00" fill="#000000">GRUPAL</text>
</g>
<!-- A0&#45;&gt;A8 -->
<g id="edge2" class="edge">
<title>A0&#45;&gt;A8</title>
<path fill="none" stroke="#000000" d="M346.1864,-202.8625C362.9434,-193.3061 379.7479,-183.8839 396,-175 412.1148,-166.1911 429.8602,-157.0037 446.0818,-148.8003"/>
<polygon fill="#000000" stroke="#000000" points="455.4329,-144.0943 448.5232,-152.6095 450.9666,-146.3421 446.5003,-148.5898 446.5003,-148.5898 446.5003,-148.5898 450.9666,-146.3421 444.4773,-144.5701 455.4329,-144.0943 455.4329,-144.0943"/>
<text text-anchor="middle" x="443.0412" y="-156.7929" font-family="Helvetica,sans-Serif" font-size="10.00" fill="#000000">caracter1</text>
<text text-anchor="middle" x="357.7568" y="-183.5491" font-family="Helvetica,sans-Serif" font-size="10.00" fill="#000000">*</text>
</g>
<!-- A11 -->
<g id="node12" class="node">
<title>A11</title>
<polygon fill="none" stroke="#000000" points="396.5,-296 396.5,-328 605.5,-328 605.5,-296 396.5,-296"/>
<text text-anchor="start" x="483.2185" y="-309" font-family="Helvetica,sans-Serif" font-size="10.00" fill="#000000">Reporte</text>
<polygon fill="none" stroke="#000000" points="396.5,-240 396.5,-296 605.5,-296 605.5,-240 396.5,-240"/>
<text text-anchor="start" x="473.4895" y="-277" font-family="Helvetica,sans-Serif" font-size="10.00" fill="#000000">fecha:Fecha</text>
<text text-anchor="start" x="444.042" y="-265" font-family="Helvetica,sans-Serif" font-size="10.00" fill="#000000">participanteA:Participante</text>
<text text-anchor="start" x="444.042" y="-253" font-family="Helvetica,sans-Serif" font-size="10.00" fill="#000000">participanteB:Participante</text>
<polygon fill="none" stroke="#000000" points="396.5,-184 396.5,-240 605.5,-240 605.5,-184 396.5,-184"/>
<text text-anchor="start" x="413.6225" y="-221" font-family="Helvetica,sans-Serif" font-size="10.00" fill="#000000">+Constructor(participanteA:Participante</text>
<text text-anchor="start" x="442.3775" y="-209" font-family="Helvetica,sans-Serif" font-size="10.00" fill="#000000">participanteB:Participante)</text>
<text text-anchor="start" x="406.406" y="-197" font-family="Helvetica,sans-Serif" font-size="10.00" fill="#000000">+getRegistros():RegistroReporte［*］</text>
</g>
<!-- A0&#45;&gt;A11 -->
<g id="edge1" class="edge">
<title>A0&#45;&gt;A11</title>
<path fill="none" stroke="#000000" stroke-dasharray="5,2" d="M346.3398,-279.5359C359.6572,-277.5027 372.8896,-275.4825 385.6833,-273.5293"/>
<polygon fill="#000000" stroke="#000000" points="395.8427,-271.9782 386.6364,-277.936 390.9,-272.7329 385.9572,-273.4875 385.9572,-273.4875 385.9572,-273.4875 390.9,-272.7329 385.2781,-269.0391 395.8427,-271.9782 395.8427,-271.9782"/>
</g>
<!-- A2 -->
<g id="node3" class="node">
<title>A2</title>
<polygon fill="none" stroke="#000000" points="1655.5,-447 1655.5,-491 1894.5,-491 1894.5,-447 1655.5,-447"/>
<text text-anchor="start" x="1744.151" y="-472" font-family="Helvetica,sans-Serif" font-size="10.00" fill="#000000">&lt;&lt;interface&gt;&gt;</text>
<text text-anchor="start" x="1732.2175" y="-460" font-family="Helvetica,sans-Serif" font-size="10.00" fill="#000000">RegistroEstadistica</text>
<polygon fill="none" stroke="#000000" points="1655.5,-379 1655.5,-447 1894.5,-447 1894.5,-379 1655.5,-379"/>
<text text-anchor="start" x="1675.401" y="-428" font-family="Helvetica,sans-Serif" font-size="10.00" fill="#000000">+getEstadisticas():ValorEstadistica［*］</text>
<text text-anchor="start" x="1665.4055" y="-416" font-family="Helvetica,sans-Serif" font-size="10.00" fill="#000000">+registrarEstadistica(estadistica:ValorEstadistica)</text>
<text text-anchor="start" x="1695.681" y="-404" font-family="Helvetica,sans-Serif" font-size="10.00" fill="#000000">+comparar(participante:Participante</text>
<text text-anchor="start" x="1708.0425" y="-392" font-family="Helvetica,sans-Serif" font-size="10.00" fill="#000000">estadistica:Estadistica):Entero</text>
</g>
<!-- A3 -->
<g id="node4" class="node">
<title>A3</title>
<polygon fill="none" stroke="#000000" points="1957.5,-451 1957.5,-483 2148.5,-483 2148.5,-451 1957.5,-451"/>
<text text-anchor="start" x="2000.7745" y="-464" font-family="Helvetica,sans-Serif" font-size="10.00" fill="#000000">RegistroEstadisticaImpl</text>
<polygon fill="none" stroke="#000000" points="1957.5,-419 1957.5,-451 2148.5,-451 2148.5,-419 1957.5,-419"/>
<text text-anchor="start" x="1967.153" y="-432" font-family="Helvetica,sans-Serif" font-size="10.00" fill="#000000">estadisticas:ValorEstadistica［*］</text>
<polygon fill="none" stroke="#000000" points="1957.5,-387 1957.5,-419 2148.5,-419 2148.5,-387 1957.5,-387"/>
<text text-anchor="start" x="2020.916" y="-400" font-family="Helvetica,sans-Serif" font-size="10.00" fill="#000000">+Constructor()</text>
</g>
<!-- A2&#45;&gt;A3 -->
<g id="edge18" class="edge">
<title>A2&#45;&gt;A3</title>
<path fill="none" stroke="#000000" d="M1904.4085,-435C1922.1224,-435 1940.0341,-435 1956.9862,-435"/>
<polygon fill="none" stroke="#000000" points="1904.0104,-431.5001 1894.0104,-435 1904.0104,-438.5001 1904.0104,-431.5001"/>
</g>
<!-- A2&#45;&gt;A4 -->
<g id="edge17" class="edge">
<title>A2&#45;&gt;A4</title>
<path fill="none" stroke="#000000" d="M1714.821,-498.3603C1684.6773,-526.3163 1645.8694,-556.6992 1605,-574 1453.6001,-638.0906 1398.8799,-622.3532 1236,-600 1093.8041,-580.4855 1049.2454,-584.858 925,-513 874.804,-483.9689 828.8376,-435.5464 799.1817,-400.1399"/>
<polygon fill="none" stroke="#000000" points="1717.4189,-500.7212 1722.2939,-491.3145 1712.6169,-495.628 1717.4189,-500.7212"/>
</g>
<!-- A2JA9 -->
<!-- A2&#45;&gt;A2JA9 -->
<g id="edge10" class="edge">
<title>A2&#45;&gt;A2JA9</title>
<path fill="none" stroke="#000000" d="M1791.1302,-378.9471C1813.9381,-312.9671 1861.7577,-205.9456 1944,-155 1983.2068,-130.7131 2046.2422,-144.5471 2052.0656,-145.8974"/>
<text text-anchor="middle" x="1789.3744" y="-356.0244" font-family="Helvetica,sans-Serif" font-size="10.00" fill="#000000">*</text>
</g>
<!-- A5 -->
<g id="node6" class="node">
<title>A5</title>
<polygon fill="none" stroke="#000000" points="967.5,-472 967.5,-504 1144.5,-504 1144.5,-472 967.5,-472"/>
<text text-anchor="start" x="1040.438" y="-485" font-family="Helvetica,sans-Serif" font-size="10.00" fill="#000000">Equipo</text>
<polygon fill="none" stroke="#000000" points="967.5,-440 967.5,-472 1144.5,-472 1144.5,-440 967.5,-440"/>
<text text-anchor="start" x="1025.1605" y="-453" font-family="Helvetica,sans-Serif" font-size="10.00" fill="#000000">nombre:Texto</text>
<polygon fill="none" stroke="#000000" points="967.5,-348 967.5,-440 1144.5,-440 1144.5,-348 967.5,-348"/>
<text text-anchor="start" x="994.741" y="-421" font-family="Helvetica,sans-Serif" font-size="10.00" fill="#000000">+Constructor(nombre:Texto</text>
<text text-anchor="start" x="1003.485" y="-409" font-family="Helvetica,sans-Serif" font-size="10.00" fill="#000000">representante:Persona)</text>
<text text-anchor="start" x="1011.1335" y="-397" font-family="Helvetica,sans-Serif" font-size="10.00" fill="#000000">+getNombre():Texto</text>
<text text-anchor="start" x="990.0075" y="-385" font-family="Helvetica,sans-Serif" font-size="10.00" fill="#000000">+getRepresentante():Persona</text>
<text text-anchor="start" x="977.507" y="-373" font-family="Helvetica,sans-Serif" font-size="10.00" fill="#000000">+getJugadores():Jugador［*］</text>
<text text-anchor="start" x="977.2355" y="-361" font-family="Helvetica,sans-Serif" font-size="10.00" fill="#000000">+registrarJugador(jugador:Jugador)</text>
</g>
<!-- A4&#45;&gt;A5 -->
<g id="edge9" class="edge">
<title>A4&#45;&gt;A5</title>
<path fill="none" stroke="#000000" d="M885.2107,-384.9664C912.4434,-391.5285 940.8868,-398.3824 966.5549,-404.5674"/>
<polygon fill="none" stroke="#000000" points="885.7815,-381.5039 875.2398,-382.5638 884.1416,-388.3091 885.7815,-381.5039"/>
</g>
<!-- A7 -->
<g id="node8" class="node">
<title>A7</title>
<polygon fill="none" stroke="#000000" points="1428.5,-434 1428.5,-466 1605.5,-466 1605.5,-434 1428.5,-434"/>
<text text-anchor="start" x="1498.938" y="-447" font-family="Helvetica,sans-Serif" font-size="10.00" fill="#000000">Jugador</text>
<polygon fill="none" stroke="#000000" points="1428.5,-402 1428.5,-434 1605.5,-434 1605.5,-402 1428.5,-402"/>
<text text-anchor="start" x="1464.489" y="-415" font-family="Helvetica,sans-Serif" font-size="10.00" fill="#000000">fechaNacimiento:Fecha</text>
<polygon fill="none" stroke="#000000" points="1428.5,-298 1428.5,-402 1605.5,-402 1605.5,-298 1428.5,-298"/>
<text text-anchor="start" x="1455.741" y="-383" font-family="Helvetica,sans-Serif" font-size="10.00" fill="#000000">+Constructor(nombre:Texto</text>
<text text-anchor="start" x="1485.8815" y="-371" font-family="Helvetica,sans-Serif" font-size="10.00" fill="#000000">apellido:Texto</text>
<text text-anchor="start" x="1491.165" y="-359" font-family="Helvetica,sans-Serif" font-size="10.00" fill="#000000">email:Texto</text>
<text text-anchor="start" x="1488.3855" y="-347" font-family="Helvetica,sans-Serif" font-size="10.00" fill="#000000">celular:Texto</text>
<text text-anchor="start" x="1462.8245" y="-335" font-family="Helvetica,sans-Serif" font-size="10.00" fill="#000000">fechaNacimiento:Fecha)</text>
<text text-anchor="start" x="1449.627" y="-323" font-family="Helvetica,sans-Serif" font-size="10.00" fill="#000000">+getFechaNacimiento():Fecha</text>
<text text-anchor="start" x="1438.2295" y="-311" font-family="Helvetica,sans-Serif" font-size="10.00" fill="#000000">+calcularEdad(fecha:Fecha):Entero</text>
</g>
<!-- A4&#45;&gt;A7 -->
<g id="edge8" class="edge">
<title>A4&#45;&gt;A7</title>
<path fill="none" stroke="#000000" d="M885.0068,-335.386C1009.3706,-317.6345 1208.864,-299.2952 1378,-330 1394.4261,-332.982 1411.4398,-337.802 1427.6835,-343.3345"/>
<polygon fill="none" stroke="#000000" points="884.4651,-331.9278 875.0704,-336.8259 885.469,-338.8555 884.4651,-331.9278"/>
</g>
<!-- A5&#45;&gt;A2 -->
<g id="edge20" class="edge">
<title>A5&#45;&gt;A2</title>
<path fill="none" stroke="#000000" d="M1125.5718,-504.3497C1156.277,-532.9816 1194.717,-562.009 1236,-577 1386.491,-631.6474 1567.61,-556.1812 1676.7647,-496.065"/>
<polygon fill="#000000" stroke="#000000" points="1685.7976,-491.0346 1679.2505,-499.8315 1681.4293,-493.4673 1677.061,-495.9 1677.061,-495.9 1677.061,-495.9 1681.4293,-493.4673 1674.8716,-491.9685 1685.7976,-491.0346 1685.7976,-491.0346"/>
</g>
<!-- A6 -->
<g id="node7" class="node">
<title>A6</title>
<polygon fill="none" stroke="#000000" points="1236,-536 1236,-568 1378,-568 1378,-536 1236,-536"/>
<text text-anchor="start" x="1288.383" y="-549" font-family="Helvetica,sans-Serif" font-size="10.00" fill="#000000">Persona</text>
<polygon fill="none" stroke="#000000" points="1236,-468 1236,-536 1378,-536 1378,-468 1236,-468"/>
<text text-anchor="start" x="1276.1605" y="-517" font-family="Helvetica,sans-Serif" font-size="10.00" fill="#000000">nombre:Texto</text>
<text text-anchor="start" x="1275.8815" y="-505" font-family="Helvetica,sans-Serif" font-size="10.00" fill="#000000">apellido:Texto</text>
<text text-anchor="start" x="1281.165" y="-493" font-family="Helvetica,sans-Serif" font-size="10.00" fill="#000000">email:Texto</text>
<text text-anchor="start" x="1278.3855" y="-481" font-family="Helvetica,sans-Serif" font-size="10.00" fill="#000000">celular:Texto</text>
<polygon fill="none" stroke="#000000" points="1236,-352 1236,-468 1378,-468 1378,-352 1236,-352"/>
<text text-anchor="start" x="1245.741" y="-449" font-family="Helvetica,sans-Serif" font-size="10.00" fill="#000000">+Constructor(nombre:Texto</text>
<text text-anchor="start" x="1275.8815" y="-437" font-family="Helvetica,sans-Serif" font-size="10.00" fill="#000000">apellido:Texto</text>
<text text-anchor="start" x="1281.165" y="-425" font-family="Helvetica,sans-Serif" font-size="10.00" fill="#000000">email:Texto</text>
<text text-anchor="start" x="1276.721" y="-413" font-family="Helvetica,sans-Serif" font-size="10.00" fill="#000000">celular:Texto)</text>
<text text-anchor="start" x="1262.1335" y="-401" font-family="Helvetica,sans-Serif" font-size="10.00" fill="#000000">+getNombre():Texto</text>
<text text-anchor="start" x="1262.1295" y="-389" font-family="Helvetica,sans-Serif" font-size="10.00" fill="#000000">+getApellido():Texto</text>
<text text-anchor="start" x="1267.413" y="-377" font-family="Helvetica,sans-Serif" font-size="10.00" fill="#000000">+getEmail():Texto</text>
<text text-anchor="start" x="1264.079" y="-365" font-family="Helvetica,sans-Serif" font-size="10.00" fill="#000000">+getCelular():Texto</text>
</g>
<!-- A5&#45;&gt;A6 -->
<g id="edge5" class="edge">
<title>A5&#45;&gt;A6</title>
<path fill="none" stroke="#000000" d="M1156.2607,-439.6217C1179.3221,-442.7394 1203.5519,-446.015 1225.6763,-449.0059"/>
<polygon fill="none" stroke="#000000" points="1156.0613,-439.5949 1149.5795,-442.7549 1144.1695,-437.9871 1150.6513,-434.8271 1156.0613,-439.5949"/>
<polygon fill="#000000" stroke="#000000" points="1235.6816,-450.3586 1225.1689,-453.4782 1230.7267,-449.6887 1225.7718,-449.0188 1225.7718,-449.0188 1225.7718,-449.0188 1230.7267,-449.6887 1226.3747,-444.5593 1235.6816,-450.3586 1235.6816,-450.3586"/>
<text text-anchor="middle" x="1216.5865" y="-453.3064" font-family="Helvetica,sans-Serif" font-size="10.00" fill="#000000">representante1</text>
<text text-anchor="middle" x="1163.2646" y="-429.0393" font-family="Helvetica,sans-Serif" font-size="10.00" fill="#000000">1</text>
</g>
<!-- A5&#45;&gt;A7 -->
<g id="edge7" class="edge">
<title>A5&#45;&gt;A7</title>
<path fill="none" stroke="#000000" d="M1155.3668,-370.8635C1180.9109,-359.3673 1208.8512,-348.9429 1236,-343 1297.6513,-329.5045 1315.4823,-334.3658 1378,-343 1391.0145,-344.7974 1404.5272,-347.5024 1417.7841,-350.6661"/>
<polygon fill="none" stroke="#000000" points="1155.0875,-370.9925 1151.3189,-377.1405 1144.1944,-376.0265 1147.9629,-369.8785 1155.0875,-370.9925"/>
<polygon fill="#000000" stroke="#000000" points="1427.8594,-353.1675 1417.0697,-355.1253 1423.0067,-351.9627 1418.1541,-350.7579 1418.1541,-350.7579 1418.1541,-350.7579 1423.0067,-351.9627 1419.2384,-346.3905 1427.8594,-353.1675 1427.8594,-353.1675"/>
<text text-anchor="middle" x="1408.2307" y="-354.0033" font-family="Helvetica,sans-Serif" font-size="10.00" fill="#000000">jugador*</text>
<text text-anchor="middle" x="1157.1028" y="-357.75" font-family="Helvetica,sans-Serif" font-size="10.00" fill="#000000">1</text>
</g>
<!-- A6&#45;&gt;A7 -->
<g id="edge6" class="edge">
<title>A6&#45;&gt;A7</title>
<path fill="none" stroke="#000000" d="M1387.6523,-429.9719C1400.7531,-425.0943 1414.3857,-420.0187 1427.6686,-415.0733"/>
<polygon fill="none" stroke="#000000" points="1386.3698,-426.7146 1378.2195,-433.4839 1388.8122,-433.2747 1386.3698,-426.7146"/>
</g>
<!-- A7&#45;&gt;A2 -->
<g id="edge19" class="edge">
<title>A7&#45;&gt;A2</title>
<path fill="none" stroke="#000000" d="M1605.289,-400.2396C1617.9498,-402.8405 1631.1848,-405.5593 1644.4347,-408.2812"/>
<polygon fill="#000000" stroke="#000000" points="1654.5607,-410.3613 1643.8597,-412.7569 1649.663,-409.3552 1644.7653,-408.349 1644.7653,-408.349 1644.7653,-408.349 1649.663,-409.3552 1645.6708,-403.941 1654.5607,-410.3613 1654.5607,-410.3613"/>
</g>
<!-- A9 -->
<g id="node10" class="node">
<title>A9</title>
<polygon fill="none" stroke="#000000" points="2211,-180 2211,-212 2353,-212 2353,-180 2211,-180"/>
<text text-anchor="start" x="2257.829" y="-193" font-family="Helvetica,sans-Serif" font-size="10.00" fill="#000000">Estadistica</text>
<polygon fill="none" stroke="#000000" points="2211,-148 2211,-180 2353,-180 2353,-148 2211,-148"/>
<text text-anchor="start" x="2251.1605" y="-161" font-family="Helvetica,sans-Serif" font-size="10.00" fill="#000000">nombre:Texto</text>
<polygon fill="none" stroke="#000000" points="2211,-80 2211,-148 2353,-148 2353,-80 2211,-80"/>
<text text-anchor="start" x="2220.741" y="-129" font-family="Helvetica,sans-Serif" font-size="10.00" fill="#000000">+Constructor(nombre:Texto</text>
<text text-anchor="start" x="2236.994" y="-117" font-family="Helvetica,sans-Serif" font-size="10.00" fill="#000000">tipo:TipoEstadistica)</text>
<text text-anchor="start" x="2237.1335" y="-105" font-family="Helvetica,sans-Serif" font-size="10.00" fill="#000000">+getNombre():Texto</text>
<text text-anchor="start" x="2223.7965" y="-93" font-family="Helvetica,sans-Serif" font-size="10.00" fill="#000000">+getTipo():TipoEstadistica</text>
</g>
<!-- A13 -->
<g id="node14" class="node">
<title>A13</title>
<polygon fill="none" stroke="#000000" points="2403.5,-152 2403.5,-196 2490.5,-196 2490.5,-152 2403.5,-152"/>
<text text-anchor="start" x="2422.264" y="-177" font-family="Helvetica,sans-Serif" font-size="10.00" fill="#000000">&lt;&lt;Enum&gt;&gt;</text>
<text text-anchor="start" x="2413.106" y="-165" font-family="Helvetica,sans-Serif" font-size="10.00" fill="#000000">TipoEstadistica</text>
<polygon fill="none" stroke="#000000" points="2403.5,-96 2403.5,-152 2490.5,-152 2490.5,-96 2403.5,-96"/>
<text text-anchor="start" x="2423.939" y="-133" font-family="Helvetica,sans-Serif" font-size="10.00" fill="#000000">POSITIVA</text>
<text text-anchor="start" x="2421.719" y="-121" font-family="Helvetica,sans-Serif" font-size="10.00" fill="#000000">NEGATIVA</text>
<text text-anchor="start" x="2426.448" y="-109" font-family="Helvetica,sans-Serif" font-size="10.00" fill="#000000">NEUTRA</text>
</g>
<!-- A9&#45;&gt;A13 -->
<g id="edge13" class="edge">
<title>A9&#45;&gt;A13</title>
<path fill="none" stroke="#000000" d="M2353.1954,-146C2366.3558,-146 2379.9009,-146 2392.4496,-146"/>
<polygon fill="#000000" stroke="#000000" points="2402.7259,-146 2392.7259,-150.5001 2397.7259,-146 2392.7259,-146.0001 2392.7259,-146.0001 2392.7259,-146.0001 2397.7259,-146 2392.7258,-141.5001 2402.7259,-146 2402.7259,-146"/>
<text text-anchor="middle" x="2384.5997" y="-151.4524" font-family="Helvetica,sans-Serif" font-size="10.00" fill="#000000">tipo1</text>
<text text-anchor="middle" x="2371.3215" y="-134.5476" font-family="Helvetica,sans-Serif" font-size="10.00" fill="#000000">*</text>
</g>
<!-- A10 -->
<g id="node11" class="node">
<title>A10</title>
<polygon fill="none" stroke="#000000" points="1944.5,-288 1944.5,-320 2161.5,-320 2161.5,-288 1944.5,-288"/>
<text text-anchor="start" x="2017.1615" y="-301" font-family="Helvetica,sans-Serif" font-size="10.00" fill="#000000">ValorEstadistica</text>
<polygon fill="none" stroke="#000000" points="1944.5,-244 1944.5,-288 2161.5,-288 2161.5,-244 1944.5,-244"/>
<text text-anchor="start" x="2030.4995" y="-269" font-family="Helvetica,sans-Serif" font-size="10.00" fill="#000000">valor:Real</text>
<text text-anchor="start" x="2003.8235" y="-257" font-family="Helvetica,sans-Serif" font-size="10.00" fill="#000000">estadistica:Estadistica</text>
<polygon fill="none" stroke="#000000" points="1944.5,-164 1944.5,-244 2161.5,-244 2161.5,-164 1944.5,-164"/>
<text text-anchor="start" x="2000.08" y="-225" font-family="Helvetica,sans-Serif" font-size="10.00" fill="#000000">+Constructor(valor:Real</text>
<text text-anchor="start" x="2002.159" y="-213" font-family="Helvetica,sans-Serif" font-size="10.00" fill="#000000">estadistica:Estadistica)</text>
<text text-anchor="start" x="2016.468" y="-201" font-family="Helvetica,sans-Serif" font-size="10.00" fill="#000000">+getValor():Real</text>
<text text-anchor="start" x="1990.0715" y="-189" font-family="Helvetica,sans-Serif" font-size="10.00" fill="#000000">+getEstadistica():Estadistica</text>
<text text-anchor="start" x="1954.379" y="-177" font-family="Helvetica,sans-Serif" font-size="10.00" fill="#000000">compareTo(registro:ValorEstadistica):Entero</text>
</g>
<!-- A10&#45;&gt;A2JA9 -->
<g id="edge12" class="edge">
<title>A10&#45;&gt;A2JA9</title>
<path fill="none" stroke="#000000" stroke-dasharray="5,2" d="M2052.5,-163.9312C2052.5,-161.4623 2052.5,-158.9935 2052.5,-156.5247"/>
<polygon fill="#000000" stroke="#000000" points="2052.5,-146.375 2057.0001,-156.375 2052.5,-151.375 2052.5001,-156.375 2052.5001,-156.375 2052.5001,-156.375 2052.5,-151.375 2048.0001,-156.375 2052.5,-146.375 2052.5,-146.375"/>
</g>
<!-- A11&#45;&gt;A4 -->
<g id="edge16" class="edge">
<title>A11&#45;&gt;A4</title>
<path fill="none" stroke="#000000" d="M616.5939,-299.8918C626.0888,-303.4816 635.6965,-307.114 645.2173,-310.7135"/>
<polygon fill="none" stroke="#000000" points="616.262,-299.7664 609.2351,-301.3861 605.0374,-295.5226 612.0643,-293.903 616.262,-299.7664"/>
<polygon fill="#000000" stroke="#000000" points="654.7016,-314.2993 643.7564,-314.972 650.0247,-312.5311 645.3478,-310.7628 645.3478,-310.7628 645.3478,-310.7628 650.0247,-312.5311 646.9392,-306.5536 654.7016,-314.2993 654.7016,-314.2993"/>
<text text-anchor="middle" x="634.7577" y="-312.7953" font-family="Helvetica,sans-Serif" font-size="10.00" fill="#000000">2</text>
<text text-anchor="middle" x="624.9814" y="-291.0266" font-family="Helvetica,sans-Serif" font-size="10.00" fill="#000000">*</text>
</g>
<!-- A12 -->
<g id="node13" class="node">
<title>A12</title>
<polygon fill="none" stroke="#000000" points="925.5,-226 925.5,-258 1186.5,-258 1186.5,-226 925.5,-226"/>
<text text-anchor="start" x="1019.607" y="-239" font-family="Helvetica,sans-Serif" font-size="10.00" fill="#000000">RegistroReporte</text>
<polygon fill="none" stroke="#000000" points="925.5,-182 925.5,-226 1186.5,-226 1186.5,-182 925.5,-182"/>
<text text-anchor="start" x="965.427" y="-207" font-family="Helvetica,sans-Serif" font-size="10.00" fill="#000000">estadisticaParticipanteA:ValorEstadistica</text>
<text text-anchor="start" x="965.427" y="-195" font-family="Helvetica,sans-Serif" font-size="10.00" fill="#000000">estadisticaParticipanteB:ValorEstadistica</text>
<polygon fill="none" stroke="#000000" points="925.5,-114 925.5,-182 1186.5,-182 1186.5,-114 925.5,-114"/>
<text text-anchor="start" x="935.0075" y="-163" font-family="Helvetica,sans-Serif" font-size="10.00" fill="#000000">+Constructor(estadisticaParticipanteA:ValorEstadistica</text>
<text text-anchor="start" x="963.7625" y="-151" font-family="Helvetica,sans-Serif" font-size="10.00" fill="#000000">estadisticaParticipanteB:ValorEstadistica)</text>
<text text-anchor="start" x="945.0105" y="-139" font-family="Helvetica,sans-Serif" font-size="10.00" fill="#000000">+getEstadisticaParticianteA():ResgistroEstadistica</text>
<text text-anchor="start" x="945.0105" y="-127" font-family="Helvetica,sans-Serif" font-size="10.00" fill="#000000">+getEstadisticaParticianteB():ResgistroEstadistica</text>
</g>
<!-- A11&#45;&gt;A12 -->
<g id="edge14" class="edge">
<title>A11&#45;&gt;A12</title>
<path fill="none" stroke="#000000" d="M617.3954,-241.2564C704.1711,-230.3117 822.8966,-215.3374 914.8657,-203.7377"/>
<polygon fill="none" stroke="#000000" points="617.123,-241.2907 611.6707,-246.0101 605.2173,-242.7924 610.6696,-238.073 617.123,-241.2907"/>
<polygon fill="#000000" stroke="#000000" points="924.8096,-202.4835 915.4513,-208.1995 919.8489,-203.1092 914.8882,-203.7349 914.8882,-203.7349 914.8882,-203.7349 919.8489,-203.1092 914.325,-199.2703 924.8096,-202.4835 924.8096,-202.4835"/>
<text text-anchor="middle" x="907.8836" y="-210.1376" font-family="Helvetica,sans-Serif" font-size="10.00" fill="#000000">registros*</text>
<text text-anchor="middle" x="622.1433" y="-229.1383" font-family="Helvetica,sans-Serif" font-size="10.00" fill="#000000">1</text>
</g>
<!-- A12&#45;&gt;A10 -->
<g id="edge15" class="edge">
<title>A12&#45;&gt;A10</title>
<path fill="none" stroke="#000000" d="M1198.2376,-194.0174C1395.9632,-205.1233 1749.6016,-224.9867 1933.7212,-235.3284"/>
<polygon fill="none" stroke="#000000" points="1198.0775,-194.0085 1191.8626,-197.6656 1186.0964,-193.3354 1192.3113,-189.6782 1198.0775,-194.0085"/>
<polygon fill="#000000" stroke="#000000" points="1943.9799,-235.9046 1933.7432,-239.8366 1938.9878,-235.6241 1933.9956,-235.3437 1933.9956,-235.3437 1933.9956,-235.3437 1938.9878,-235.6241 1934.248,-230.8508 1943.9799,-235.9046 1943.9799,-235.9046"/>
<text text-anchor="middle" x="1925.4082" y="-240.3271" font-family="Helvetica,sans-Serif" font-size="10.00" fill="#000000">2</text>
<text text-anchor="middle" x="1204.668" y="-182.9129" font-family="Helvetica,sans-Serif" font-size="10.00" fill="#000000">*</text>
</g>
<!-- A2JA9&#45;&gt;A9 -->
<g id="edge11" class="edge">
<title>A2JA9&#45;&gt;A9</title>
<path fill="none" stroke="#000000" d="M2053.1584,-146C2061.0284,-146 2137.9152,-146 2200.4288,-146"/>
<polygon fill="#000000" stroke="#000000" points="2210.7212,-146 2200.7213,-150.5001 2205.7212,-146 2200.7212,-146.0001 2200.7212,-146.0001 2200.7212,-146.0001 2205.7212,-146 2200.7212,-141.5001 2210.7212,-146 2210.7212,-146"/>
<text text-anchor="middle" x="2192.5951" y="-151.4524" font-family="Helvetica,sans-Serif" font-size="10.00" fill="#000000">*</text>
</g>
</g>
</svg>
