<?xml version="1.0" encoding="UTF-8" standalone="no"?>
<!DOCTYPE svg PUBLIC "-//W3C//DTD SVG 1.1//EN"
 "http://www.w3.org/Graphics/SVG/1.1/DTD/svg11.dtd">
<!-- Generated by graphviz version 2.40.1 (20161225.0304)
 -->
<!-- Title: G Pages: 1 -->
<svg width="1259pt" height="392pt"
 viewBox="0.00 0.00 1259.00 392.00" xmlns="http://www.w3.org/2000/svg" xmlns:xlink="http://www.w3.org/1999/xlink">
<g id="graph0" class="graph" transform="scale(1 1) rotate(0) translate(4 388)">
<title>G</title>
<polygon fill="#ffffff" stroke="transparent" points="-4,4 -4,-388 1255,-388 1255,4 -4,4"/>
<!-- A0 -->
<g id="node1" class="node">
<title>A0</title>
<polygon fill="none" stroke="#000000" points=".5,-352 .5,-384 341.5,-384 341.5,-352 .5,-352"/>
<text text-anchor="start" x="155.163" y="-365" font-family="Helvetica,sans-Serif" font-size="10.00" fill="#000000">Torneo</text>
<polygon fill="none" stroke="#000000" points=".5,-248 .5,-352 341.5,-352 341.5,-248 .5,-248"/>
<text text-anchor="start" x="140.1605" y="-333" font-family="Helvetica,sans-Serif" font-size="10.00" fill="#000000">nombre:Texto</text>
<text text-anchor="start" x="131.822" y="-321" font-family="Helvetica,sans-Serif" font-size="10.00" fill="#000000">fechaInicio:Fecha</text>
<text text-anchor="start" x="102.6515" y="-309" font-family="Helvetica,sans-Serif" font-size="10.00" fill="#000000">fechaInicioInscripciones:Fecha</text>
<text text-anchor="start" x="100.712" y="-297" font-family="Helvetica,sans-Serif" font-size="10.00" fill="#000000">fechaCierreInscripciones:Fecha</text>
<text text-anchor="start" x="109.042" y="-285" font-family="Helvetica,sans-Serif" font-size="10.00" fill="#000000">numeroParticipantes:Entero</text>
<text text-anchor="start" x="131.5485" y="-273" font-family="Helvetica,sans-Serif" font-size="10.00" fill="#000000">limiteEdad:Entero</text>
<text text-anchor="start" x="120.1595" y="-261" font-family="Helvetica,sans-Serif" font-size="10.00" fill="#000000">valorInscripcion:Entero</text>
<polygon fill="none" stroke="#000000" points=".5,0 .5,-248 341.5,-248 341.5,0 .5,0"/>
<text text-anchor="start" x="109.741" y="-229" font-family="Helvetica,sans-Serif" font-size="10.00" fill="#000000">+Constructor(nombre:Texto</text>
<text text-anchor="start" x="131.822" y="-217" font-family="Helvetica,sans-Serif" font-size="10.00" fill="#000000">fechaInicio:Fecha</text>
<text text-anchor="start" x="102.6515" y="-205" font-family="Helvetica,sans-Serif" font-size="10.00" fill="#000000">fechaInicioInscripciones:Fecha</text>
<text text-anchor="start" x="100.712" y="-193" font-family="Helvetica,sans-Serif" font-size="10.00" fill="#000000">fechaCierreInscripciones:Fecha</text>
<text text-anchor="start" x="109.042" y="-181" font-family="Helvetica,sans-Serif" font-size="10.00" fill="#000000">numeroParticipantes:Entero</text>
<text text-anchor="start" x="131.5485" y="-169" font-family="Helvetica,sans-Serif" font-size="10.00" fill="#000000">limiteEdad:Entero</text>
<text text-anchor="start" x="120.1595" y="-157" font-family="Helvetica,sans-Serif" font-size="10.00" fill="#000000">valorInscripcion:Entero</text>
<text text-anchor="start" x="120.1555" y="-145" font-family="Helvetica,sans-Serif" font-size="10.00" fill="#000000">tipoTorneo:TipoTorneo</text>
<text text-anchor="start" x="10.288" y="-133" font-family="Helvetica,sans-Serif" font-size="10.00" fill="#000000">caracter:CaracterTorneo)+registrarParticipante(participante:Participante)</text>
<text text-anchor="start" x="126.1335" y="-121" font-family="Helvetica,sans-Serif" font-size="10.00" fill="#000000">+getNombre():Texto</text>
<text text-anchor="start" x="116.96" y="-109" font-family="Helvetica,sans-Serif" font-size="10.00" fill="#000000">+getFechaInicio():Fecha</text>
<text text-anchor="start" x="87.7895" y="-97" font-family="Helvetica,sans-Serif" font-size="10.00" fill="#000000">+getFechaInicioInscripciones():Fecha</text>
<text text-anchor="start" x="85.85" y="-85" font-family="Helvetica,sans-Serif" font-size="10.00" fill="#000000">+getFechaCierreInscripciones():Fecha</text>
<text text-anchor="start" x="95.015" y="-73" font-family="Helvetica,sans-Serif" font-size="10.00" fill="#000000">+getNumeroParticipantes():Entero</text>
<text text-anchor="start" x="116.6815" y="-61" font-family="Helvetica,sans-Serif" font-size="10.00" fill="#000000">+getLimiteEdad():Entero</text>
<text text-anchor="start" x="106.128" y="-49" font-family="Helvetica,sans-Serif" font-size="10.00" fill="#000000">+getValorInscripcion():Entero</text>
<text text-anchor="start" x="105.2935" y="-37" font-family="Helvetica,sans-Serif" font-size="10.00" fill="#000000">+getTipoTorneo():TipoTorneo</text>
<text text-anchor="start" x="78.6215" y="-25" font-family="Helvetica,sans-Serif" font-size="10.00" fill="#000000">+getParticipantes():Participante［*］</text>
<text text-anchor="start" x="102.2435" y="-13" font-family="Helvetica,sans-Serif" font-size="10.00" fill="#000000">+getCaracter():CaracterTorneo</text>
</g>
<!-- A1 -->
<g id="node2" class="node">
<title>A1</title>
<polygon fill="none" stroke="#000000" points="422.5,-324 422.5,-368 493.5,-368 493.5,-324 422.5,-324"/>
<text text-anchor="start" x="433.264" y="-349" font-family="Helvetica,sans-Serif" font-size="10.00" fill="#000000">&lt;&lt;Enum&gt;&gt;</text>
<text text-anchor="start" x="432.44" y="-337" font-family="Helvetica,sans-Serif" font-size="10.00" fill="#000000">TipoTorneo</text>
<polygon fill="none" stroke="#000000" points="422.5,-256 422.5,-324 493.5,-324 493.5,-256 422.5,-256"/>
<text text-anchor="start" x="441.6075" y="-305" font-family="Helvetica,sans-Serif" font-size="10.00" fill="#000000">LOCAL</text>
<text text-anchor="start" x="432.164" y="-293" font-family="Helvetica,sans-Serif" font-size="10.00" fill="#000000">REGIONAL</text>
<text text-anchor="start" x="432.444" y="-281" font-family="Helvetica,sans-Serif" font-size="10.00" fill="#000000">NACIONAL</text>
<text text-anchor="start" x="435.5035" y="-269" font-family="Helvetica,sans-Serif" font-size="10.00" fill="#000000">MUNDIAL</text>
</g>
<!-- A0&#45;&gt;A1 -->
<g id="edge3" class="edge">
<title>A0&#45;&gt;A1</title>
<path fill="none" stroke="#000000" d="M341.1799,-263.3644C367.4553,-274.3506 392.4687,-284.8092 412.5205,-293.1932"/>
<polygon fill="#000000" stroke="#000000" points="421.9493,-297.1356 410.9874,-297.4297 417.3363,-295.2068 412.7233,-293.278 412.7233,-293.278 412.7233,-293.278 417.3363,-295.2068 414.4593,-289.1263 421.9493,-297.1356 421.9493,-297.1356"/>
<text text-anchor="middle" x="401.9656" y="-294.9415" font-family="Helvetica,sans-Serif" font-size="10.00" fill="#000000">tipoTorneo1</text>
<text text-anchor="middle" x="361.1636" y="-259.5585" font-family="Helvetica,sans-Serif" font-size="10.00" fill="#000000">*</text>
</g>
<!-- A2 -->
<g id="node3" class="node">
<title>A2</title>
<polygon fill="none" stroke="#000000" points="579.5,-222 579.5,-266 784.5,-266 784.5,-222 579.5,-222"/>
<text text-anchor="start" x="652.54" y="-247" font-family="Helvetica,sans-Serif" font-size="10.00" fill="#000000">&lt;&lt;abstract&gt;&gt;</text>
<text text-anchor="start" x="655.6055" y="-235" font-family="Helvetica,sans-Serif" font-size="10.00" fill="#000000">Participante</text>
<polygon fill="none" stroke="#000000" points="579.5,-190 579.5,-222 784.5,-222 784.5,-190 579.5,-190"/>
<text text-anchor="start" x="589.209" y="-203" font-family="Helvetica,sans-Serif" font-size="10.00" fill="#000000">estadisticas:RegistroEstadistica［*］</text>
</g>
<!-- A0&#45;&gt;A2 -->
<g id="edge4" class="edge">
<title>A0&#45;&gt;A2</title>
<path fill="none" stroke="#000000" d="M353.3555,-206.2624C366.0941,-207.2053 378.738,-208.1263 391,-209 449.61,-213.1759 514.8978,-217.4774 568.711,-220.9293"/>
<polygon fill="none" stroke="#000000" points="353.0897,-206.2427 346.8095,-209.7866 341.1227,-205.3525 347.4029,-201.8086 353.0897,-206.2427"/>
<polygon fill="#000000" stroke="#000000" points="578.9678,-221.5858 568.7007,-225.4377 573.978,-221.2664 568.9882,-220.9469 568.9882,-220.9469 568.9882,-220.9469 573.978,-221.2664 569.2757,-216.4561 578.9678,-221.5858 578.9678,-221.5858"/>
<text text-anchor="middle" x="560.3387" y="-225.863" font-family="Helvetica,sans-Serif" font-size="10.00" fill="#000000">participantes*</text>
<text text-anchor="middle" x="359.8259" y="-195.268" font-family="Helvetica,sans-Serif" font-size="10.00" fill="#000000">1</text>
</g>
<!-- A6 -->
<g id="node7" class="node">
<title>A6</title>
<polygon fill="none" stroke="#000000" points="412.5,-50 412.5,-94 502.5,-94 502.5,-50 412.5,-50"/>
<text text-anchor="start" x="432.764" y="-75" font-family="Helvetica,sans-Serif" font-size="10.00" fill="#000000">&lt;&lt;Enum&gt;&gt;</text>
<text text-anchor="start" x="422.4965" y="-63" font-family="Helvetica,sans-Serif" font-size="10.00" fill="#000000">CaracterTorneo</text>
<polygon fill="none" stroke="#000000" points="412.5,-6 412.5,-50 502.5,-50 502.5,-6 412.5,-6"/>
<text text-anchor="start" x="429.445" y="-31" font-family="Helvetica,sans-Serif" font-size="10.00" fill="#000000">INDIVIDUAL</text>
<text text-anchor="start" x="436.943" y="-19" font-family="Helvetica,sans-Serif" font-size="10.00" fill="#000000">GRUPAL</text>
</g>
<!-- A0&#45;&gt;A6 -->
<g id="edge2" class="edge">
<title>A0&#45;&gt;A6</title>
<path fill="none" stroke="#000000" d="M341.1799,-107.5521C363.6287,-96.445 385.1564,-85.7937 403.4556,-76.7397"/>
<polygon fill="#000000" stroke="#000000" points="412.443,-72.293 405.4756,-80.761 407.9615,-74.5104 403.48,-76.7277 403.48,-76.7277 403.48,-76.7277 407.9615,-74.5104 401.4844,-72.6944 412.443,-72.293 412.443,-72.293"/>
<text text-anchor="middle" x="399.9449" y="-84.9071" font-family="Helvetica,sans-Serif" font-size="10.00" fill="#000000">caracter1</text>
<text text-anchor="middle" x="353.6779" y="-88.9381" font-family="Helvetica,sans-Serif" font-size="10.00" fill="#000000">*</text>
</g>
<!-- A9 -->
<g id="node10" class="node">
<title>A9</title>
<polygon fill="none" stroke="#000000" points="391.5,-168 391.5,-200 524.5,-200 524.5,-168 391.5,-168"/>
<text text-anchor="start" x="440.2185" y="-181" font-family="Helvetica,sans-Serif" font-size="10.00" fill="#000000">Reporte</text>
<polygon fill="none" stroke="#000000" points="391.5,-112 391.5,-168 524.5,-168 524.5,-112 391.5,-112"/>
<text text-anchor="start" x="430.4895" y="-149" font-family="Helvetica,sans-Serif" font-size="10.00" fill="#000000">fecha:Fecha</text>
<text text-anchor="start" x="401.042" y="-137" font-family="Helvetica,sans-Serif" font-size="10.00" fill="#000000">participanteA:Participante</text>
<text text-anchor="start" x="401.042" y="-125" font-family="Helvetica,sans-Serif" font-size="10.00" fill="#000000">participanteB:Participante</text>
</g>
<!-- A0&#45;&gt;A9 -->
<g id="edge1" class="edge">
<title>A0&#45;&gt;A9</title>
<path fill="none" stroke="#000000" stroke-dasharray="5,2" d="M341.1799,-170.5907C354.816,-168.8802 368.1122,-167.2124 380.5515,-165.6521"/>
<polygon fill="#000000" stroke="#000000" points="390.7875,-164.3681 381.4254,-170.0778 385.8264,-164.9905 380.8653,-165.6128 380.8653,-165.6128 380.8653,-165.6128 385.8264,-164.9905 380.3052,-161.1478 390.7875,-164.3681 390.7875,-164.3681"/>
</g>
<!-- A3 -->
<g id="node4" class="node">
<title>A3</title>
<polygon fill="none" stroke="#000000" points="851.5,-226 851.5,-258 932.5,-258 932.5,-226 851.5,-226"/>
<text text-anchor="start" x="876.438" y="-239" font-family="Helvetica,sans-Serif" font-size="10.00" fill="#000000">Equipo</text>
<polygon fill="none" stroke="#000000" points="851.5,-194 851.5,-226 932.5,-226 932.5,-194 851.5,-194"/>
<text text-anchor="start" x="861.1605" y="-207" font-family="Helvetica,sans-Serif" font-size="10.00" fill="#000000">nombre:Texto</text>
</g>
<!-- A2&#45;&gt;A3 -->
<g id="edge9" class="edge">
<title>A2&#45;&gt;A3</title>
<path fill="none" stroke="#000000" d="M794.0504,-226.9281C814.4086,-226.7342 834.3863,-226.5439 850.901,-226.3867"/>
<polygon fill="none" stroke="#000000" points="794.0054,-223.4283 784.0393,-227.0234 794.0722,-230.4279 794.0054,-223.4283"/>
</g>
<!-- A5 -->
<g id="node6" class="node">
<title>A5</title>
<polygon fill="none" stroke="#000000" points="1126.5,-226 1126.5,-258 1251.5,-258 1251.5,-226 1126.5,-226"/>
<text text-anchor="start" x="1170.938" y="-239" font-family="Helvetica,sans-Serif" font-size="10.00" fill="#000000">Jugador</text>
<polygon fill="none" stroke="#000000" points="1126.5,-194 1126.5,-226 1251.5,-226 1251.5,-194 1126.5,-194"/>
<text text-anchor="start" x="1136.489" y="-207" font-family="Helvetica,sans-Serif" font-size="10.00" fill="#000000">fechaNacimiento:Fecha</text>
</g>
<!-- A2&#45;&gt;A5 -->
<g id="edge8" class="edge">
<title>A2&#45;&gt;A5</title>
<path fill="none" stroke="#000000" d="M794.3586,-267.1122C873.8685,-289.1444 982.4059,-308.0535 1076,-285 1098.1637,-279.5408 1120.7948,-268.852 1139.8925,-258.0545"/>
<polygon fill="none" stroke="#000000" points="794.8947,-263.6265 784.3195,-264.2712 792.9885,-270.362 794.8947,-263.6265"/>
</g>
<!-- A2JA7 -->
<!-- A2&#45;&gt;A2JA7 -->
<g id="edge10" class="edge">
<title>A2&#45;&gt;A2JA7</title>
<path fill="none" stroke="#000000" d="M777.8822,-189.8399C781.7813,-187.0707 785.5111,-184.1265 789,-181 822.2129,-151.2369 802.4324,-119.5294 839,-94 857.198,-81.2952 887.4173,-84.5017 891.1237,-84.9522"/>
<text text-anchor="middle" x="787.6779" y="-169.403" font-family="Helvetica,sans-Serif" font-size="10.00" fill="#000000">*</text>
</g>
<!-- A4 -->
<g id="node5" class="node">
<title>A4</title>
<polygon fill="none" stroke="#000000" points="994,-244 994,-276 1076,-276 1076,-244 994,-244"/>
<text text-anchor="start" x="1016.383" y="-257" font-family="Helvetica,sans-Serif" font-size="10.00" fill="#000000">Persona</text>
<polygon fill="none" stroke="#000000" points="994,-176 994,-244 1076,-244 1076,-176 994,-176"/>
<text text-anchor="start" x="1004.1605" y="-225" font-family="Helvetica,sans-Serif" font-size="10.00" fill="#000000">nombre:Texto</text>
<text text-anchor="start" x="1003.8815" y="-213" font-family="Helvetica,sans-Serif" font-size="10.00" fill="#000000">apellido:Texto</text>
<text text-anchor="start" x="1009.165" y="-201" font-family="Helvetica,sans-Serif" font-size="10.00" fill="#000000">email:Texto</text>
<text text-anchor="start" x="1006.3855" y="-189" font-family="Helvetica,sans-Serif" font-size="10.00" fill="#000000">celular:Texto</text>
</g>
<!-- A3&#45;&gt;A4 -->
<g id="edge5" class="edge">
<title>A3&#45;&gt;A4</title>
<path fill="none" stroke="#000000" d="M944.3462,-226C957.1844,-226 970.8921,-226 983.6594,-226"/>
<polygon fill="none" stroke="#000000" points="944.2375,-226.0001 938.2375,-230 932.2375,-226 938.2375,-222 944.2375,-226.0001"/>
<polygon fill="#000000" stroke="#000000" points="993.6623,-226 983.6624,-230.5001 988.6623,-226 983.6623,-226.0001 983.6623,-226.0001 983.6623,-226.0001 988.6623,-226 983.6623,-221.5001 993.6623,-226 993.6623,-226"/>
<text text-anchor="middle" x="975.5362" y="-231.4524" font-family="Helvetica,sans-Serif" font-size="10.00" fill="#000000">representante1</text>
<text text-anchor="middle" x="950.3637" y="-214.5476" font-family="Helvetica,sans-Serif" font-size="10.00" fill="#000000">1</text>
</g>
<!-- A3&#45;&gt;A5 -->
<g id="edge7" class="edge">
<title>A3&#45;&gt;A5</title>
<path fill="none" stroke="#000000" d="M942.7115,-189.5742C958.4281,-180.359 976.2712,-171.738 994,-167 1029.2088,-157.5905 1040.6132,-158.2838 1076,-167 1094.7006,-171.6062 1113.734,-179.9355 1130.6969,-188.9117"/>
<polygon fill="none" stroke="#000000" points="942.4333,-189.7444 939.4036,-196.2882 932.1979,-196.0085 935.2276,-189.4646 942.4333,-189.7444"/>
<polygon fill="#000000" stroke="#000000" points="1139.8925,-193.9455 1128.96,-193.091 1135.5067,-191.5446 1131.1208,-189.1437 1131.1208,-189.1437 1131.1208,-189.1437 1135.5067,-191.5446 1133.2816,-185.1964 1139.8925,-193.9455 1139.8925,-193.9455"/>
<text text-anchor="middle" x="1119.9341" y="-189.6559" font-family="Helvetica,sans-Serif" font-size="10.00" fill="#000000">jugador*</text>
<text text-anchor="middle" x="943.2464" y="-176.3372" font-family="Helvetica,sans-Serif" font-size="10.00" fill="#000000">1</text>
</g>
<!-- A4&#45;&gt;A5 -->
<g id="edge6" class="edge">
<title>A4&#45;&gt;A5</title>
<path fill="none" stroke="#000000" d="M1086.4712,-226C1099.1059,-226 1112.7694,-226 1125.865,-226"/>
<polygon fill="none" stroke="#000000" points="1086.1352,-222.5001 1076.1352,-226 1086.1351,-229.5001 1086.1352,-222.5001"/>
</g>
<!-- A7 -->
<g id="node8" class="node">
<title>A7</title>
<polygon fill="none" stroke="#000000" points="995,-85 995,-117 1076,-117 1076,-85 995,-85"/>
<text text-anchor="start" x="1011.329" y="-98" font-family="Helvetica,sans-Serif" font-size="10.00" fill="#000000">Estadistica</text>
<polygon fill="none" stroke="#000000" points="995,-53 995,-85 1076,-85 1076,-53 995,-53"/>
<text text-anchor="start" x="1004.6605" y="-66" font-family="Helvetica,sans-Serif" font-size="10.00" fill="#000000">nombre:Texto</text>
</g>
<!-- A11 -->
<g id="node12" class="node">
<title>A11</title>
<polygon fill="none" stroke="#000000" points="1145.5,-91 1145.5,-135 1232.5,-135 1232.5,-91 1145.5,-91"/>
<text text-anchor="start" x="1164.264" y="-116" font-family="Helvetica,sans-Serif" font-size="10.00" fill="#000000">&lt;&lt;Enum&gt;&gt;</text>
<text text-anchor="start" x="1155.106" y="-104" font-family="Helvetica,sans-Serif" font-size="10.00" fill="#000000">TipoEstadistica</text>
<polygon fill="none" stroke="#000000" points="1145.5,-35 1145.5,-91 1232.5,-91 1232.5,-35 1145.5,-35"/>
<text text-anchor="start" x="1165.939" y="-72" font-family="Helvetica,sans-Serif" font-size="10.00" fill="#000000">POSITIVA</text>
<text text-anchor="start" x="1163.719" y="-60" font-family="Helvetica,sans-Serif" font-size="10.00" fill="#000000">NEGATIVA</text>
<text text-anchor="start" x="1168.448" y="-48" font-family="Helvetica,sans-Serif" font-size="10.00" fill="#000000">NEUTRA</text>
</g>
<!-- A7&#45;&gt;A11 -->
<g id="edge13" class="edge">
<title>A7&#45;&gt;A11</title>
<path fill="none" stroke="#000000" d="M1075.7322,-85C1093.8012,-85 1115.3148,-85 1134.6829,-85"/>
<polygon fill="#000000" stroke="#000000" points="1144.8852,-85 1134.8852,-89.5001 1139.8852,-85 1134.8852,-85.0001 1134.8852,-85.0001 1134.8852,-85.0001 1139.8852,-85 1134.8852,-80.5001 1144.8852,-85 1144.8852,-85"/>
<text text-anchor="middle" x="1126.759" y="-90.4524" font-family="Helvetica,sans-Serif" font-size="10.00" fill="#000000">tipo1</text>
<text text-anchor="middle" x="1093.8583" y="-73.5476" font-family="Helvetica,sans-Serif" font-size="10.00" fill="#000000">*</text>
</g>
<!-- A8 -->
<g id="node9" class="node">
<title>A8</title>
<polygon fill="none" stroke="#000000" points="839.5,-135 839.5,-167 944.5,-167 944.5,-135 839.5,-135"/>
<text text-anchor="start" x="849.2175" y="-148" font-family="Helvetica,sans-Serif" font-size="10.00" fill="#000000">RegistroEstadistica</text>
<polygon fill="none" stroke="#000000" points="839.5,-103 839.5,-135 944.5,-135 944.5,-103 839.5,-103"/>
<text text-anchor="start" x="869.4995" y="-116" font-family="Helvetica,sans-Serif" font-size="10.00" fill="#000000">valor:Real</text>
</g>
<!-- A8&#45;&gt;A2JA7 -->
<g id="edge12" class="edge">
<title>A8&#45;&gt;A2JA7</title>
<path fill="none" stroke="#000000" stroke-dasharray="5,2" d="M891.5,-102.8314C891.5,-100.3788 891.5,-97.9262 891.5,-95.4736"/>
<polygon fill="#000000" stroke="#000000" points="891.5,-85.3906 896.0001,-95.3906 891.5,-90.3906 891.5001,-95.3906 891.5001,-95.3906 891.5001,-95.3906 891.5,-90.3906 887.0001,-95.3907 891.5,-85.3906 891.5,-85.3906"/>
</g>
<!-- A9&#45;&gt;A2 -->
<g id="edge16" class="edge">
<title>A9&#45;&gt;A2</title>
<path fill="none" stroke="#000000" d="M535.581,-181.0975C546.338,-184.5551 557.556,-188.1608 568.7835,-191.7697"/>
<polygon fill="none" stroke="#000000" points="535.5253,-181.0796 528.589,-183.0516 524.1009,-177.4074 531.0371,-175.4354 535.5253,-181.0796"/>
<polygon fill="#000000" stroke="#000000" points="578.6413,-194.9383 567.7439,-196.1622 573.8811,-193.4082 569.121,-191.8781 569.121,-191.8781 569.121,-191.8781 573.8811,-193.4082 570.4981,-187.594 578.6413,-194.9383 578.6413,-194.9383"/>
<text text-anchor="middle" x="558.7982" y="-194.4384" font-family="Helvetica,sans-Serif" font-size="10.00" fill="#000000">2</text>
<text text-anchor="middle" x="543.944" y="-171.9073" font-family="Helvetica,sans-Serif" font-size="10.00" fill="#000000">*</text>
</g>
<!-- A10 -->
<g id="node11" class="node">
<title>A10</title>
<polygon fill="none" stroke="#000000" points="574.5,-140 574.5,-172 789.5,-172 789.5,-140 574.5,-140"/>
<text text-anchor="start" x="645.607" y="-153" font-family="Helvetica,sans-Serif" font-size="10.00" fill="#000000">RegistroReporte</text>
<polygon fill="none" stroke="#000000" points="574.5,-96 574.5,-140 789.5,-140 789.5,-96 574.5,-96"/>
<text text-anchor="start" x="584.483" y="-121" font-family="Helvetica,sans-Serif" font-size="10.00" fill="#000000">estadisticaParticipanteA:RegistroEstadistica</text>
<text text-anchor="start" x="584.483" y="-109" font-family="Helvetica,sans-Serif" font-size="10.00" fill="#000000">estadisticaParticipanteB:RegistroEstadistica</text>
</g>
<!-- A9&#45;&gt;A10 -->
<g id="edge14" class="edge">
<title>A9&#45;&gt;A10</title>
<path fill="none" stroke="#000000" d="M536.0456,-148.2857C544.977,-147.4085 554.221,-146.5006 563.52,-145.5873"/>
<polygon fill="none" stroke="#000000" points="536.0434,-148.2858 530.4632,-152.8532 524.1009,-149.4588 529.6812,-144.8915 536.0434,-148.2858"/>
<polygon fill="#000000" stroke="#000000" points="573.62,-144.5954 564.1077,-150.0513 568.6439,-145.0841 563.6678,-145.5729 563.6678,-145.5729 563.6678,-145.5729 568.6439,-145.0841 563.228,-141.0944 573.62,-144.5954 573.62,-144.5954"/>
<text text-anchor="middle" x="556.4068" y="-151.779" font-family="Helvetica,sans-Serif" font-size="10.00" fill="#000000">registros*</text>
<text text-anchor="middle" x="541.3141" y="-136.2752" font-family="Helvetica,sans-Serif" font-size="10.00" fill="#000000">1</text>
</g>
<!-- A10&#45;&gt;A8 -->
<g id="edge15" class="edge">
<title>A10&#45;&gt;A8</title>
<path fill="none" stroke="#000000" d="M801.3363,-134.5706C810.731,-134.6154 819.964,-134.6594 828.7262,-134.7011"/>
<polygon fill="none" stroke="#000000" points="801.2681,-134.5704 795.2491,-138.5418 789.2683,-134.5132 795.2873,-130.5418 801.2681,-134.5704"/>
<polygon fill="#000000" stroke="#000000" points="838.7776,-134.7489 828.7562,-139.2012 833.7777,-134.7251 828.7777,-134.7012 828.7777,-134.7012 828.7777,-134.7012 833.7777,-134.7251 828.7992,-130.2013 838.7776,-134.7489 838.7776,-134.7489"/>
<text text-anchor="middle" x="820.6114" y="-140.1149" font-family="Helvetica,sans-Serif" font-size="10.00" fill="#000000">2</text>
<text text-anchor="middle" x="807.4345" y="-123.1472" font-family="Helvetica,sans-Serif" font-size="10.00" fill="#000000">*</text>
</g>
<!-- A2JA7&#45;&gt;A7 -->
<g id="edge11" class="edge">
<title>A2JA7&#45;&gt;A7</title>
<path fill="none" stroke="#000000" d="M891.9117,-85C896.8313,-85 944.8827,-85 983.9652,-85"/>
<polygon fill="#000000" stroke="#000000" points="994.1906,-85 984.1906,-89.5001 989.1906,-85 984.1906,-85.0001 984.1906,-85.0001 984.1906,-85.0001 989.1906,-85 984.1906,-80.5001 994.1906,-85 994.1906,-85"/>
<text text-anchor="middle" x="976.0644" y="-90.4524" font-family="Helvetica,sans-Serif" font-size="10.00" fill="#000000">*</text>
</g>
</g>
</svg>
