<?xml version="1.0" encoding="UTF-8" standalone="no"?>
<!DOCTYPE svg PUBLIC "-//W3C//DTD SVG 1.1//EN"
 "http://www.w3.org/Graphics/SVG/1.1/DTD/svg11.dtd">
<!-- Generated by graphviz version 2.40.1 (20161225.0304)
 -->
<!-- Title: G Pages: 1 -->
<svg width="1390pt" height="440pt"
 viewBox="0.00 0.00 1390.00 440.00" xmlns="http://www.w3.org/2000/svg" xmlns:xlink="http://www.w3.org/1999/xlink">
<g id="graph0" class="graph" transform="scale(1 1) rotate(0) translate(4 436)">
<title>G</title>
<polygon fill="#ffffff" stroke="transparent" points="-4,4 -4,-436 1386,-436 1386,4 -4,4"/>
<!-- A0 -->
<g id="node1" class="node">
<title>A0</title>
<polygon fill="none" stroke="#000000" points=".5,-400 .5,-432 341.5,-432 341.5,-400 .5,-400"/>
<text text-anchor="start" x="155.163" y="-413" font-family="Helvetica,sans-Serif" font-size="10.00" fill="#000000">Torneo</text>
<polygon fill="none" stroke="#000000" points=".5,-296 .5,-400 341.5,-400 341.5,-296 .5,-296"/>
<text text-anchor="start" x="140.1605" y="-381" font-family="Helvetica,sans-Serif" font-size="10.00" fill="#000000">nombre:Texto</text>
<text text-anchor="start" x="131.822" y="-369" font-family="Helvetica,sans-Serif" font-size="10.00" fill="#000000">fechaInicio:Fecha</text>
<text text-anchor="start" x="102.6515" y="-357" font-family="Helvetica,sans-Serif" font-size="10.00" fill="#000000">fechaInicioInscripciones:Fecha</text>
<text text-anchor="start" x="100.712" y="-345" font-family="Helvetica,sans-Serif" font-size="10.00" fill="#000000">fechaCierreInscripciones:Fecha</text>
<text text-anchor="start" x="109.042" y="-333" font-family="Helvetica,sans-Serif" font-size="10.00" fill="#000000">numeroParticipantes:Entero</text>
<text text-anchor="start" x="131.5485" y="-321" font-family="Helvetica,sans-Serif" font-size="10.00" fill="#000000">limiteEdad:Entero</text>
<text text-anchor="start" x="120.1595" y="-309" font-family="Helvetica,sans-Serif" font-size="10.00" fill="#000000">valorInscripcion:Entero</text>
<polygon fill="none" stroke="#000000" points=".5,0 .5,-296 341.5,-296 341.5,0 .5,0"/>
<text text-anchor="start" x="109.741" y="-277" font-family="Helvetica,sans-Serif" font-size="10.00" fill="#000000">+Constructor(nombre:Texto</text>
<text text-anchor="start" x="131.822" y="-265" font-family="Helvetica,sans-Serif" font-size="10.00" fill="#000000">fechaInicio:Fecha</text>
<text text-anchor="start" x="102.6515" y="-253" font-family="Helvetica,sans-Serif" font-size="10.00" fill="#000000">fechaInicioInscripciones:Fecha</text>
<text text-anchor="start" x="100.712" y="-241" font-family="Helvetica,sans-Serif" font-size="10.00" fill="#000000">fechaCierreInscripciones:Fecha</text>
<text text-anchor="start" x="109.042" y="-229" font-family="Helvetica,sans-Serif" font-size="10.00" fill="#000000">numeroParticipantes:Entero</text>
<text text-anchor="start" x="131.5485" y="-217" font-family="Helvetica,sans-Serif" font-size="10.00" fill="#000000">limiteEdad:Entero</text>
<text text-anchor="start" x="120.1595" y="-205" font-family="Helvetica,sans-Serif" font-size="10.00" fill="#000000">valorInscripcion:Entero</text>
<text text-anchor="start" x="120.1555" y="-193" font-family="Helvetica,sans-Serif" font-size="10.00" fill="#000000">tipoTorneo:TipoTorneo</text>
<text text-anchor="start" x="10.288" y="-181" font-family="Helvetica,sans-Serif" font-size="10.00" fill="#000000">caracter:CaracterTorneo)+registrarParticipante(participante:Participante)</text>
<text text-anchor="start" x="126.1335" y="-169" font-family="Helvetica,sans-Serif" font-size="10.00" fill="#000000">+getNombre():Texto</text>
<text text-anchor="start" x="116.96" y="-157" font-family="Helvetica,sans-Serif" font-size="10.00" fill="#000000">+getFechaInicio():Fecha</text>
<text text-anchor="start" x="87.7895" y="-145" font-family="Helvetica,sans-Serif" font-size="10.00" fill="#000000">+getFechaInicioInscripciones():Fecha</text>
<text text-anchor="start" x="85.85" y="-133" font-family="Helvetica,sans-Serif" font-size="10.00" fill="#000000">+getFechaCierreInscripciones():Fecha</text>
<text text-anchor="start" x="95.015" y="-121" font-family="Helvetica,sans-Serif" font-size="10.00" fill="#000000">+getNumeroParticipantes():Entero</text>
<text text-anchor="start" x="116.6815" y="-109" font-family="Helvetica,sans-Serif" font-size="10.00" fill="#000000">+getLimiteEdad():Entero</text>
<text text-anchor="start" x="106.128" y="-97" font-family="Helvetica,sans-Serif" font-size="10.00" fill="#000000">+getValorInscripcion():Entero</text>
<text text-anchor="start" x="105.2935" y="-85" font-family="Helvetica,sans-Serif" font-size="10.00" fill="#000000">+getTipoTorneo():TipoTorneo</text>
<text text-anchor="start" x="78.6215" y="-73" font-family="Helvetica,sans-Serif" font-size="10.00" fill="#000000">+getParticipantes():Participante［*］</text>
<text text-anchor="start" x="102.2435" y="-61" font-family="Helvetica,sans-Serif" font-size="10.00" fill="#000000">+getCaracter():CaracterTorneo</text>
<text text-anchor="start" x="93.344" y="-49" font-family="Helvetica,sans-Serif" font-size="10.00" fill="#000000">+setFechaInicio(fechaInicio:Fecha)</text>
<text text-anchor="start" x="35.003" y="-37" font-family="Helvetica,sans-Serif" font-size="10.00" fill="#000000">+setFechaInicioInscripciones(fechaInicioInscripciones:Fecha)</text>
<text text-anchor="start" x="31.124" y="-25" font-family="Helvetica,sans-Serif" font-size="10.00" fill="#000000">+setFechaCierreInscripciones(fechaCierreInscripciones:Fecha)</text>
<text text-anchor="start" x="67.65" y="-13" font-family="Helvetica,sans-Serif" font-size="10.00" fill="#000000">buscarParticipante(nombre:Texto):Participante</text>
</g>
<!-- A1 -->
<g id="node2" class="node">
<title>A1</title>
<polygon fill="none" stroke="#000000" points="422.5,-348 422.5,-392 493.5,-392 493.5,-348 422.5,-348"/>
<text text-anchor="start" x="433.264" y="-373" font-family="Helvetica,sans-Serif" font-size="10.00" fill="#000000">&lt;&lt;Enum&gt;&gt;</text>
<text text-anchor="start" x="432.44" y="-361" font-family="Helvetica,sans-Serif" font-size="10.00" fill="#000000">TipoTorneo</text>
<polygon fill="none" stroke="#000000" points="422.5,-280 422.5,-348 493.5,-348 493.5,-280 422.5,-280"/>
<text text-anchor="start" x="441.6075" y="-329" font-family="Helvetica,sans-Serif" font-size="10.00" fill="#000000">LOCAL</text>
<text text-anchor="start" x="432.164" y="-317" font-family="Helvetica,sans-Serif" font-size="10.00" fill="#000000">REGIONAL</text>
<text text-anchor="start" x="432.444" y="-305" font-family="Helvetica,sans-Serif" font-size="10.00" fill="#000000">NACIONAL</text>
<text text-anchor="start" x="435.5035" y="-293" font-family="Helvetica,sans-Serif" font-size="10.00" fill="#000000">MUNDIAL</text>
</g>
<!-- A0&#45;&gt;A1 -->
<g id="edge3" class="edge">
<title>A0&#45;&gt;A1</title>
<path fill="none" stroke="#000000" d="M341.1799,-287.3644C367.4553,-298.3506 392.4687,-308.8092 412.5205,-317.1932"/>
<polygon fill="#000000" stroke="#000000" points="421.9493,-321.1356 410.9874,-321.4297 417.3363,-319.2068 412.7233,-317.278 412.7233,-317.278 412.7233,-317.278 417.3363,-319.2068 414.4593,-313.1263 421.9493,-321.1356 421.9493,-321.1356"/>
<text text-anchor="middle" x="401.9656" y="-318.9415" font-family="Helvetica,sans-Serif" font-size="10.00" fill="#000000">tipoTorneo1</text>
<text text-anchor="middle" x="361.1636" y="-283.5585" font-family="Helvetica,sans-Serif" font-size="10.00" fill="#000000">*</text>
</g>
<!-- A2 -->
<g id="node3" class="node">
<title>A2</title>
<polygon fill="none" stroke="#000000" points="576.5,-268 576.5,-312 787.5,-312 787.5,-268 576.5,-268"/>
<text text-anchor="start" x="652.54" y="-293" font-family="Helvetica,sans-Serif" font-size="10.00" fill="#000000">&lt;&lt;abstract&gt;&gt;</text>
<text text-anchor="start" x="655.6055" y="-281" font-family="Helvetica,sans-Serif" font-size="10.00" fill="#000000">Participante</text>
<polygon fill="none" stroke="#000000" points="576.5,-236 576.5,-268 787.5,-268 787.5,-236 576.5,-236"/>
<text text-anchor="start" x="589.209" y="-249" font-family="Helvetica,sans-Serif" font-size="10.00" fill="#000000">estadisticas:RegistroEstadistica［*］</text>
<polygon fill="none" stroke="#000000" points="576.5,-192 576.5,-236 787.5,-236 787.5,-192 576.5,-192"/>
<text text-anchor="start" x="649.916" y="-217" font-family="Helvetica,sans-Serif" font-size="10.00" fill="#000000">+Constructor()</text>
<text text-anchor="start" x="586.2825" y="-205" font-family="Helvetica,sans-Serif" font-size="10.00" fill="#000000">+&lt;&lt;abstract&gt;&gt;getNombreCompleto():Texto</text>
</g>
<!-- A0&#45;&gt;A2 -->
<g id="edge4" class="edge">
<title>A0&#45;&gt;A2</title>
<path fill="none" stroke="#000000" d="M353.3555,-230.2624C366.0941,-231.2053 378.738,-232.1263 391,-233 448.5443,-237.1 512.526,-241.321 565.7645,-244.7402"/>
<polygon fill="none" stroke="#000000" points="353.0897,-230.2427 346.8095,-233.7866 341.1227,-229.3525 347.4029,-225.8086 353.0897,-230.2427"/>
<polygon fill="#000000" stroke="#000000" points="575.9195,-245.391 565.6521,-249.2421 570.9298,-245.0712 565.94,-244.7513 565.94,-244.7513 565.94,-244.7513 570.9298,-245.0712 566.2278,-240.2605 575.9195,-245.391 575.9195,-245.391"/>
<text text-anchor="middle" x="557.2899" y="-249.6667" font-family="Helvetica,sans-Serif" font-size="10.00" fill="#000000">participantes*</text>
<text text-anchor="middle" x="359.8259" y="-219.268" font-family="Helvetica,sans-Serif" font-size="10.00" fill="#000000">1</text>
</g>
<!-- A6 -->
<g id="node7" class="node">
<title>A6</title>
<polygon fill="none" stroke="#000000" points="412.5,-74 412.5,-118 502.5,-118 502.5,-74 412.5,-74"/>
<text text-anchor="start" x="432.764" y="-99" font-family="Helvetica,sans-Serif" font-size="10.00" fill="#000000">&lt;&lt;Enum&gt;&gt;</text>
<text text-anchor="start" x="422.4965" y="-87" font-family="Helvetica,sans-Serif" font-size="10.00" fill="#000000">CaracterTorneo</text>
<polygon fill="none" stroke="#000000" points="412.5,-30 412.5,-74 502.5,-74 502.5,-30 412.5,-30"/>
<text text-anchor="start" x="429.445" y="-55" font-family="Helvetica,sans-Serif" font-size="10.00" fill="#000000">INDIVIDUAL</text>
<text text-anchor="start" x="436.943" y="-43" font-family="Helvetica,sans-Serif" font-size="10.00" fill="#000000">GRUPAL</text>
</g>
<!-- A0&#45;&gt;A6 -->
<g id="edge2" class="edge">
<title>A0&#45;&gt;A6</title>
<path fill="none" stroke="#000000" d="M341.1799,-131.5521C363.6287,-120.445 385.1564,-109.7937 403.4556,-100.7397"/>
<polygon fill="#000000" stroke="#000000" points="412.443,-96.293 405.4756,-104.761 407.9615,-98.5104 403.48,-100.7277 403.48,-100.7277 403.48,-100.7277 407.9615,-98.5104 401.4844,-96.6944 412.443,-96.293 412.443,-96.293"/>
<text text-anchor="middle" x="399.9449" y="-108.9071" font-family="Helvetica,sans-Serif" font-size="10.00" fill="#000000">caracter1</text>
<text text-anchor="middle" x="353.6779" y="-112.9381" font-family="Helvetica,sans-Serif" font-size="10.00" fill="#000000">*</text>
</g>
<!-- A9 -->
<g id="node10" class="node">
<title>A9</title>
<polygon fill="none" stroke="#000000" points="391.5,-192 391.5,-224 524.5,-224 524.5,-192 391.5,-192"/>
<text text-anchor="start" x="440.2185" y="-205" font-family="Helvetica,sans-Serif" font-size="10.00" fill="#000000">Reporte</text>
<polygon fill="none" stroke="#000000" points="391.5,-136 391.5,-192 524.5,-192 524.5,-136 391.5,-136"/>
<text text-anchor="start" x="430.4895" y="-173" font-family="Helvetica,sans-Serif" font-size="10.00" fill="#000000">fecha:Fecha</text>
<text text-anchor="start" x="401.042" y="-161" font-family="Helvetica,sans-Serif" font-size="10.00" fill="#000000">participanteA:Participante</text>
<text text-anchor="start" x="401.042" y="-149" font-family="Helvetica,sans-Serif" font-size="10.00" fill="#000000">participanteB:Participante</text>
</g>
<!-- A0&#45;&gt;A9 -->
<g id="edge1" class="edge">
<title>A0&#45;&gt;A9</title>
<path fill="none" stroke="#000000" stroke-dasharray="5,2" d="M341.1799,-194.5907C354.816,-192.8802 368.1122,-191.2124 380.5515,-189.6521"/>
<polygon fill="#000000" stroke="#000000" points="390.7875,-188.3681 381.4254,-194.0778 385.8264,-188.9905 380.8653,-189.6128 380.8653,-189.6128 380.8653,-189.6128 385.8264,-188.9905 380.3052,-185.1478 390.7875,-188.3681 390.7875,-188.3681"/>
</g>
<!-- A3 -->
<g id="node4" class="node">
<title>A3</title>
<polygon fill="none" stroke="#000000" points="839,-295 839,-327 1015,-327 1015,-295 839,-295"/>
<text text-anchor="start" x="911.438" y="-308" font-family="Helvetica,sans-Serif" font-size="10.00" fill="#000000">Equipo</text>
<polygon fill="none" stroke="#000000" points="839,-263 839,-295 1015,-295 1015,-263 839,-263"/>
<text text-anchor="start" x="896.1605" y="-276" font-family="Helvetica,sans-Serif" font-size="10.00" fill="#000000">nombre:Texto</text>
<polygon fill="none" stroke="#000000" points="839,-183 839,-263 1015,-263 1015,-183 839,-183"/>
<text text-anchor="start" x="865.741" y="-244" font-family="Helvetica,sans-Serif" font-size="10.00" fill="#000000">+Constructor(nombre:Texto</text>
<text text-anchor="start" x="874.485" y="-232" font-family="Helvetica,sans-Serif" font-size="10.00" fill="#000000">representante:Persona)</text>
<text text-anchor="start" x="882.1335" y="-220" font-family="Helvetica,sans-Serif" font-size="10.00" fill="#000000">+getNombre():Texto</text>
<text text-anchor="start" x="861.0075" y="-208" font-family="Helvetica,sans-Serif" font-size="10.00" fill="#000000">+getRepresentante():Persona</text>
<text text-anchor="start" x="848.507" y="-196" font-family="Helvetica,sans-Serif" font-size="10.00" fill="#000000">+getJugadores():Jugador［*］</text>
</g>
<!-- A2&#45;&gt;A3 -->
<g id="edge9" class="edge">
<title>A2&#45;&gt;A3</title>
<path fill="none" stroke="#000000" d="M797.2092,-253.414C811.2206,-253.5852 825.3548,-253.7579 838.8782,-253.9232"/>
<polygon fill="none" stroke="#000000" points="797.0809,-249.9122 787.0389,-253.2897 796.9953,-256.9117 797.0809,-249.9122"/>
</g>
<!-- A5 -->
<g id="node6" class="node">
<title>A5</title>
<polygon fill="none" stroke="#000000" points="1257.5,-261 1257.5,-293 1382.5,-293 1382.5,-261 1257.5,-261"/>
<text text-anchor="start" x="1301.938" y="-274" font-family="Helvetica,sans-Serif" font-size="10.00" fill="#000000">Jugador</text>
<polygon fill="none" stroke="#000000" points="1257.5,-229 1257.5,-261 1382.5,-261 1382.5,-229 1257.5,-229"/>
<text text-anchor="start" x="1267.489" y="-242" font-family="Helvetica,sans-Serif" font-size="10.00" fill="#000000">fechaNacimiento:Fecha</text>
</g>
<!-- A2&#45;&gt;A5 -->
<g id="edge8" class="edge">
<title>A2&#45;&gt;A5</title>
<path fill="none" stroke="#000000" d="M789.9966,-316.9282C898.6562,-373.0745 1069.0948,-436.7125 1207,-378 1247.3168,-360.8353 1280.1632,-321.3545 1299.7391,-293.0014"/>
<polygon fill="none" stroke="#000000" points="791.4646,-313.7462 780.9811,-312.2136 788.2207,-319.9492 791.4646,-313.7462"/>
</g>
<!-- A2JA7 -->
<!-- A2&#45;&gt;A2JA7 -->
<g id="edge10" class="edge">
<title>A2&#45;&gt;A2JA7</title>
<path fill="none" stroke="#000000" d="M777.3105,-191.9832C781.4363,-188.1283 785.3623,-184.1296 789,-180 821.8453,-142.713 798.1164,-108.2429 839,-80 869.3255,-59.0508 920.1344,-69.4712 926.3671,-70.8556"/>
<text text-anchor="middle" x="784.7046" y="-170.4002" font-family="Helvetica,sans-Serif" font-size="10.00" fill="#000000">*</text>
</g>
<!-- A4 -->
<g id="node5" class="node">
<title>A4</title>
<polygon fill="none" stroke="#000000" points="1065,-337 1065,-369 1207,-369 1207,-337 1065,-337"/>
<text text-anchor="start" x="1117.383" y="-350" font-family="Helvetica,sans-Serif" font-size="10.00" fill="#000000">Persona</text>
<polygon fill="none" stroke="#000000" points="1065,-269 1065,-337 1207,-337 1207,-269 1065,-269"/>
<text text-anchor="start" x="1105.1605" y="-318" font-family="Helvetica,sans-Serif" font-size="10.00" fill="#000000">nombre:Texto</text>
<text text-anchor="start" x="1104.8815" y="-306" font-family="Helvetica,sans-Serif" font-size="10.00" fill="#000000">apellido:Texto</text>
<text text-anchor="start" x="1110.165" y="-294" font-family="Helvetica,sans-Serif" font-size="10.00" fill="#000000">email:Texto</text>
<text text-anchor="start" x="1107.3855" y="-282" font-family="Helvetica,sans-Serif" font-size="10.00" fill="#000000">celular:Texto</text>
<polygon fill="none" stroke="#000000" points="1065,-153 1065,-269 1207,-269 1207,-153 1065,-153"/>
<text text-anchor="start" x="1074.741" y="-250" font-family="Helvetica,sans-Serif" font-size="10.00" fill="#000000">+Constructor(nombre:Texto</text>
<text text-anchor="start" x="1104.8815" y="-238" font-family="Helvetica,sans-Serif" font-size="10.00" fill="#000000">apellido:Texto</text>
<text text-anchor="start" x="1110.165" y="-226" font-family="Helvetica,sans-Serif" font-size="10.00" fill="#000000">email:Texto</text>
<text text-anchor="start" x="1105.721" y="-214" font-family="Helvetica,sans-Serif" font-size="10.00" fill="#000000">celular:Texto)</text>
<text text-anchor="start" x="1091.1335" y="-202" font-family="Helvetica,sans-Serif" font-size="10.00" fill="#000000">+getNombre():Texto</text>
<text text-anchor="start" x="1091.1295" y="-190" font-family="Helvetica,sans-Serif" font-size="10.00" fill="#000000">+getApellido():Texto</text>
<text text-anchor="start" x="1096.413" y="-178" font-family="Helvetica,sans-Serif" font-size="10.00" fill="#000000">+getEmail():Texto</text>
<text text-anchor="start" x="1093.079" y="-166" font-family="Helvetica,sans-Serif" font-size="10.00" fill="#000000">+getCelular():Texto</text>
</g>
<!-- A3&#45;&gt;A4 -->
<g id="edge5" class="edge">
<title>A3&#45;&gt;A4</title>
<path fill="none" stroke="#000000" d="M1027.1819,-257.876C1036.43,-258.1415 1045.7233,-258.4083 1054.7714,-258.6681"/>
<polygon fill="none" stroke="#000000" points="1027.0241,-257.8716 1020.9118,-261.6977 1015.0291,-257.5272 1021.1414,-253.701 1027.0241,-257.8716"/>
<polygon fill="#000000" stroke="#000000" points="1064.8673,-258.9579 1054.7422,-263.169 1059.8694,-258.8144 1054.8714,-258.6709 1054.8714,-258.6709 1054.8714,-258.6709 1059.8694,-258.8144 1055.0006,-254.1727 1064.8673,-258.9579 1064.8673,-258.9579"/>
<text text-anchor="middle" x="1046.506" y="-263.8866" font-family="Helvetica,sans-Serif" font-size="10.00" fill="#000000">representante1</text>
<text text-anchor="middle" x="1033.3903" y="-246.5984" font-family="Helvetica,sans-Serif" font-size="10.00" fill="#000000">1</text>
</g>
<!-- A3&#45;&gt;A5 -->
<g id="edge7" class="edge">
<title>A3&#45;&gt;A5</title>
<path fill="none" stroke="#000000" d="M1016.9069,-175.252C1035.7995,-160.3018 1053.4736,-148.0604 1065,-144 1124.5257,-123.031 1148.9325,-119.278 1207,-144 1243.5371,-159.5555 1273.9388,-193.4389 1293.8883,-220.7584"/>
<polygon fill="none" stroke="#000000" points="1016.901,-175.2567 1014.7379,-182.1358 1007.5561,-182.7849 1009.7192,-175.9058 1016.901,-175.2567"/>
<polygon fill="#000000" stroke="#000000" points="1299.7391,-228.9986 1290.2805,-223.4502 1296.8444,-224.9218 1293.9497,-220.8449 1293.9497,-220.8449 1293.9497,-220.8449 1296.8444,-224.9218 1297.6188,-218.2397 1299.7391,-228.9986 1299.7391,-228.9986"/>
<text text-anchor="middle" x="1282.3533" y="-216.1126" font-family="Helvetica,sans-Serif" font-size="10.00" fill="#000000">jugador*</text>
<text text-anchor="middle" x="1016.3692" y="-161.8314" font-family="Helvetica,sans-Serif" font-size="10.00" fill="#000000">1</text>
</g>
<!-- A4&#45;&gt;A5 -->
<g id="edge6" class="edge">
<title>A4&#45;&gt;A5</title>
<path fill="none" stroke="#000000" d="M1217.3108,-261C1230.6219,-261 1244.23,-261 1256.9946,-261"/>
<polygon fill="none" stroke="#000000" points="1217.2086,-257.5001 1207.2085,-261 1217.2085,-264.5001 1217.2086,-257.5001"/>
</g>
<!-- A7 -->
<g id="node8" class="node">
<title>A7</title>
<polygon fill="none" stroke="#000000" points="1096,-65 1096,-97 1177,-97 1177,-65 1096,-65"/>
<text text-anchor="start" x="1112.329" y="-78" font-family="Helvetica,sans-Serif" font-size="10.00" fill="#000000">Estadistica</text>
<polygon fill="none" stroke="#000000" points="1096,-33 1096,-65 1177,-65 1177,-33 1096,-33"/>
<text text-anchor="start" x="1105.6605" y="-46" font-family="Helvetica,sans-Serif" font-size="10.00" fill="#000000">nombre:Texto</text>
</g>
<!-- A11 -->
<g id="node12" class="node">
<title>A11</title>
<polygon fill="none" stroke="#000000" points="1276.5,-71 1276.5,-115 1363.5,-115 1363.5,-71 1276.5,-71"/>
<text text-anchor="start" x="1295.264" y="-96" font-family="Helvetica,sans-Serif" font-size="10.00" fill="#000000">&lt;&lt;Enum&gt;&gt;</text>
<text text-anchor="start" x="1286.106" y="-84" font-family="Helvetica,sans-Serif" font-size="10.00" fill="#000000">TipoEstadistica</text>
<polygon fill="none" stroke="#000000" points="1276.5,-15 1276.5,-71 1363.5,-71 1363.5,-15 1276.5,-15"/>
<text text-anchor="start" x="1296.939" y="-52" font-family="Helvetica,sans-Serif" font-size="10.00" fill="#000000">POSITIVA</text>
<text text-anchor="start" x="1294.719" y="-40" font-family="Helvetica,sans-Serif" font-size="10.00" fill="#000000">NEGATIVA</text>
<text text-anchor="start" x="1299.448" y="-28" font-family="Helvetica,sans-Serif" font-size="10.00" fill="#000000">NEUTRA</text>
</g>
<!-- A7&#45;&gt;A11 -->
<g id="edge13" class="edge">
<title>A7&#45;&gt;A11</title>
<path fill="none" stroke="#000000" d="M1176.7246,-65C1202.8673,-65 1237.1139,-65 1265.5132,-65"/>
<polygon fill="#000000" stroke="#000000" points="1275.6856,-65 1265.6857,-69.5001 1270.6856,-65 1265.6856,-65.0001 1265.6856,-65.0001 1265.6856,-65.0001 1270.6856,-65 1265.6856,-60.5001 1275.6856,-65 1275.6856,-65"/>
<text text-anchor="middle" x="1257.5595" y="-70.4524" font-family="Helvetica,sans-Serif" font-size="10.00" fill="#000000">tipo1</text>
<text text-anchor="middle" x="1194.8508" y="-53.5476" font-family="Helvetica,sans-Serif" font-size="10.00" fill="#000000">*</text>
</g>
<!-- A8 -->
<g id="node9" class="node">
<title>A8</title>
<polygon fill="none" stroke="#000000" points="868,-133 868,-165 986,-165 986,-133 868,-133"/>
<text text-anchor="start" x="884.2175" y="-146" font-family="Helvetica,sans-Serif" font-size="10.00" fill="#000000">RegistroEstadistica</text>
<polygon fill="none" stroke="#000000" points="868,-89 868,-133 986,-133 986,-89 868,-89"/>
<text text-anchor="start" x="904.4995" y="-114" font-family="Helvetica,sans-Serif" font-size="10.00" fill="#000000">valor:Real</text>
<text text-anchor="start" x="877.8235" y="-102" font-family="Helvetica,sans-Serif" font-size="10.00" fill="#000000">estadistica:Estadistica</text>
</g>
<!-- A8&#45;&gt;A2JA7 -->
<g id="edge12" class="edge">
<title>A8&#45;&gt;A2JA7</title>
<path fill="none" stroke="#000000" stroke-dasharray="5,2" d="M927,-88.8008C927,-86.3591 927,-83.9174 927,-81.4756"/>
<polygon fill="#000000" stroke="#000000" points="927,-71.4375 931.5001,-81.4375 927,-76.4375 927.0001,-81.4375 927.0001,-81.4375 927.0001,-81.4375 927,-76.4375 922.5001,-81.4375 927,-71.4375 927,-71.4375"/>
</g>
<!-- A9&#45;&gt;A2 -->
<g id="edge16" class="edge">
<title>A9&#45;&gt;A2</title>
<path fill="none" stroke="#000000" d="M535.7567,-205.154C545.5466,-208.3007 555.7158,-211.5694 565.9247,-214.8508"/>
<polygon fill="none" stroke="#000000" points="535.5253,-205.0796 528.589,-207.0516 524.1009,-201.4074 531.0371,-199.4354 535.5253,-205.0796"/>
<polygon fill="#000000" stroke="#000000" points="575.7136,-217.9972 564.8162,-219.2212 570.9534,-216.4671 566.1933,-214.9371 566.1933,-214.9371 566.1933,-214.9371 570.9534,-216.4671 567.5704,-210.6529 575.7136,-217.9972 575.7136,-217.9972"/>
<text text-anchor="middle" x="555.8705" y="-217.4973" font-family="Helvetica,sans-Serif" font-size="10.00" fill="#000000">2</text>
<text text-anchor="middle" x="543.944" y="-195.9073" font-family="Helvetica,sans-Serif" font-size="10.00" fill="#000000">*</text>
</g>
<!-- A10 -->
<g id="node11" class="node">
<title>A10</title>
<polygon fill="none" stroke="#000000" points="574.5,-139 574.5,-171 789.5,-171 789.5,-139 574.5,-139"/>
<text text-anchor="start" x="645.607" y="-152" font-family="Helvetica,sans-Serif" font-size="10.00" fill="#000000">RegistroReporte</text>
<polygon fill="none" stroke="#000000" points="574.5,-95 574.5,-139 789.5,-139 789.5,-95 574.5,-95"/>
<text text-anchor="start" x="584.483" y="-120" font-family="Helvetica,sans-Serif" font-size="10.00" fill="#000000">estadisticaParticipanteA:RegistroEstadistica</text>
<text text-anchor="start" x="584.483" y="-108" font-family="Helvetica,sans-Serif" font-size="10.00" fill="#000000">estadisticaParticipanteB:RegistroEstadistica</text>
</g>
<!-- A9&#45;&gt;A10 -->
<g id="edge14" class="edge">
<title>A9&#45;&gt;A10</title>
<path fill="none" stroke="#000000" d="M536.0456,-163.5194C545.072,-161.6255 554.4177,-159.6646 563.8168,-157.6925"/>
<polygon fill="none" stroke="#000000" points="535.8452,-163.5614 530.7945,-168.7083 524.1009,-166.0257 529.1516,-160.8788 535.8452,-163.5614"/>
<polygon fill="#000000" stroke="#000000" points="573.62,-155.6355 564.7572,-162.0932 568.7265,-156.6623 563.8331,-157.6891 563.8331,-157.6891 563.8331,-157.6891 568.7265,-156.6623 562.909,-153.285 573.62,-155.6355 573.62,-155.6355"/>
<text text-anchor="middle" x="557.6158" y="-164.63" font-family="Helvetica,sans-Serif" font-size="10.00" fill="#000000">registros*</text>
<text text-anchor="middle" x="540.1051" y="-151.0313" font-family="Helvetica,sans-Serif" font-size="10.00" fill="#000000">1</text>
</g>
<!-- A10&#45;&gt;A8 -->
<g id="edge15" class="edge">
<title>A10&#45;&gt;A8</title>
<path fill="none" stroke="#000000" d="M801.2758,-130.0727C820.6605,-129.5989 840.1441,-129.1228 857.7914,-128.6915"/>
<polygon fill="none" stroke="#000000" points="801.1763,-130.075 795.2758,-134.2205 789.1799,-130.3683 795.0803,-126.2229 801.1763,-130.075"/>
<polygon fill="#000000" stroke="#000000" points="867.955,-128.4431 858.068,-133.1861 862.9565,-128.5653 857.958,-128.6875 857.958,-128.6875 857.958,-128.6875 862.9565,-128.5653 857.848,-124.1888 867.955,-128.4431 867.955,-128.4431"/>
<text text-anchor="middle" x="850.0408" y="-134.3358" font-family="Helvetica,sans-Serif" font-size="10.00" fill="#000000">2</text>
<text text-anchor="middle" x="807.0941" y="-118.4756" font-family="Helvetica,sans-Serif" font-size="10.00" fill="#000000">*</text>
</g>
<!-- A2JA7&#45;&gt;A7 -->
<g id="edge11" class="edge">
<title>A2JA7&#45;&gt;A7</title>
<path fill="none" stroke="#000000" d="M927.5995,-70.9828C935.776,-70.7481 1025.7561,-68.1649 1084.7789,-66.4705"/>
<polygon fill="#000000" stroke="#000000" points="1095.0511,-66.1756 1085.1844,-70.9608 1090.0531,-66.3191 1085.0552,-66.4626 1085.0552,-66.4626 1085.0552,-66.4626 1090.0531,-66.3191 1084.926,-61.9645 1095.0511,-66.1756 1095.0511,-66.1756"/>
<text text-anchor="middle" x="1077.1749" y="-72.1446" font-family="Helvetica,sans-Serif" font-size="10.00" fill="#000000">*</text>
</g>
</g>
</svg>
