<?xml version="1.0" encoding="UTF-8" standalone="no"?>
<!DOCTYPE svg PUBLIC "-//W3C//DTD SVG 1.1//EN"
 "http://www.w3.org/Graphics/SVG/1.1/DTD/svg11.dtd">
<!-- Generated by graphviz version 2.40.1 (20161225.0304)
 -->
<!-- Title: G Pages: 1 -->
<svg width="1160pt" height="370pt"
 viewBox="0.00 0.00 1160.00 370.00" xmlns="http://www.w3.org/2000/svg" xmlns:xlink="http://www.w3.org/1999/xlink">
<g id="graph0" class="graph" transform="scale(1 1) rotate(0) translate(4 366)">
<title>G</title>
<polygon fill="#ffffff" stroke="transparent" points="-4,4 -4,-366 1156,-366 1156,4 -4,4"/>
<!-- A0 -->
<g id="node1" class="node">
<title>A0</title>
<polygon fill="none" stroke="#000000" points=".5,-292 .5,-324 229.5,-324 229.5,-292 .5,-292"/>
<text text-anchor="start" x="99.163" y="-305" font-family="Helvetica,sans-Serif" font-size="10.00" fill="#000000">Torneo</text>
<polygon fill="none" stroke="#000000" points=".5,-188 .5,-292 229.5,-292 229.5,-188 .5,-188"/>
<text text-anchor="start" x="84.1605" y="-273" font-family="Helvetica,sans-Serif" font-size="10.00" fill="#000000">nombre:Texto</text>
<text text-anchor="start" x="75.822" y="-261" font-family="Helvetica,sans-Serif" font-size="10.00" fill="#000000">fechaInicio:Fecha</text>
<text text-anchor="start" x="46.6515" y="-249" font-family="Helvetica,sans-Serif" font-size="10.00" fill="#000000">fechaInicioInscripciones:Fecha</text>
<text text-anchor="start" x="44.712" y="-237" font-family="Helvetica,sans-Serif" font-size="10.00" fill="#000000">fechaCierreInscripciones:Fecha</text>
<text text-anchor="start" x="53.042" y="-225" font-family="Helvetica,sans-Serif" font-size="10.00" fill="#000000">numeroParticipantes:Entero</text>
<text text-anchor="start" x="75.5485" y="-213" font-family="Helvetica,sans-Serif" font-size="10.00" fill="#000000">limiteEdad:Entero</text>
<text text-anchor="start" x="64.1595" y="-201" font-family="Helvetica,sans-Serif" font-size="10.00" fill="#000000">valorInscripcion:Entero</text>
<polygon fill="none" stroke="#000000" points=".5,-48 .5,-188 229.5,-188 229.5,-48 .5,-48"/>
<text text-anchor="start" x="53.741" y="-169" font-family="Helvetica,sans-Serif" font-size="10.00" fill="#000000">+Constructor(nombre:Texto</text>
<text text-anchor="start" x="75.822" y="-157" font-family="Helvetica,sans-Serif" font-size="10.00" fill="#000000">fechaInicio:Fecha</text>
<text text-anchor="start" x="46.6515" y="-145" font-family="Helvetica,sans-Serif" font-size="10.00" fill="#000000">fechaInicioInscripciones:Fecha</text>
<text text-anchor="start" x="44.712" y="-133" font-family="Helvetica,sans-Serif" font-size="10.00" fill="#000000">fechaCierreInscripciones:Fecha</text>
<text text-anchor="start" x="53.042" y="-121" font-family="Helvetica,sans-Serif" font-size="10.00" fill="#000000">numeroParticipantes:Entero</text>
<text text-anchor="start" x="75.5485" y="-109" font-family="Helvetica,sans-Serif" font-size="10.00" fill="#000000">limiteEdad:Entero</text>
<text text-anchor="start" x="64.1595" y="-97" font-family="Helvetica,sans-Serif" font-size="10.00" fill="#000000">valorInscripcion:Entero</text>
<text text-anchor="start" x="64.1555" y="-85" font-family="Helvetica,sans-Serif" font-size="10.00" fill="#000000">tipoTorneo:TipoTorneo</text>
<text text-anchor="start" x="58.8855" y="-73" font-family="Helvetica,sans-Serif" font-size="10.00" fill="#000000">caracter:CaracterTorneo)</text>
<text text-anchor="start" x="10.4025" y="-61" font-family="Helvetica,sans-Serif" font-size="10.00" fill="#000000">+registrarParticipante(participante:Participante)</text>
</g>
<!-- A1 -->
<g id="node2" class="node">
<title>A1</title>
<polygon fill="none" stroke="#000000" points="310.5,-318 310.5,-362 381.5,-362 381.5,-318 310.5,-318"/>
<text text-anchor="start" x="321.264" y="-343" font-family="Helvetica,sans-Serif" font-size="10.00" fill="#000000">&lt;&lt;Enum&gt;&gt;</text>
<text text-anchor="start" x="320.44" y="-331" font-family="Helvetica,sans-Serif" font-size="10.00" fill="#000000">TipoTorneo</text>
<polygon fill="none" stroke="#000000" points="310.5,-250 310.5,-318 381.5,-318 381.5,-250 310.5,-250"/>
<text text-anchor="start" x="329.6075" y="-299" font-family="Helvetica,sans-Serif" font-size="10.00" fill="#000000">LOCAL</text>
<text text-anchor="start" x="320.164" y="-287" font-family="Helvetica,sans-Serif" font-size="10.00" fill="#000000">REGIONAL</text>
<text text-anchor="start" x="320.444" y="-275" font-family="Helvetica,sans-Serif" font-size="10.00" fill="#000000">NACIONAL</text>
<text text-anchor="start" x="323.5035" y="-263" font-family="Helvetica,sans-Serif" font-size="10.00" fill="#000000">MUNDIAL</text>
</g>
<!-- A0&#45;&gt;A1 -->
<g id="edge3" class="edge">
<title>A0&#45;&gt;A1</title>
<path fill="none" stroke="#000000" d="M229.3232,-245.6484C254.7553,-258.8599 280.2311,-272.0941 300.8182,-282.7887"/>
<polygon fill="#000000" stroke="#000000" points="309.9155,-287.5145 298.9669,-286.8979 305.4784,-285.2095 301.0414,-282.9046 301.0414,-282.9046 301.0414,-282.9046 305.4784,-285.2095 303.1159,-278.9112 309.9155,-287.5145 309.9155,-287.5145"/>
<text text-anchor="middle" x="289.9337" y="-283.6592" font-family="Helvetica,sans-Serif" font-size="10.00" fill="#000000">tipoTorneo1</text>
<text text-anchor="middle" x="249.3049" y="-243.5037" font-family="Helvetica,sans-Serif" font-size="10.00" fill="#000000">*</text>
</g>
<!-- A2 -->
<g id="node3" class="node">
<title>A2</title>
<polygon fill="none" stroke="#000000" points="467.5,-216 467.5,-260 672.5,-260 672.5,-216 467.5,-216"/>
<text text-anchor="start" x="540.54" y="-241" font-family="Helvetica,sans-Serif" font-size="10.00" fill="#000000">&lt;&lt;abstract&gt;&gt;</text>
<text text-anchor="start" x="543.6055" y="-229" font-family="Helvetica,sans-Serif" font-size="10.00" fill="#000000">Participante</text>
<polygon fill="none" stroke="#000000" points="467.5,-184 467.5,-216 672.5,-216 672.5,-184 467.5,-184"/>
<text text-anchor="start" x="477.209" y="-197" font-family="Helvetica,sans-Serif" font-size="10.00" fill="#000000">estadisticas:RegistroEstadistica［*］</text>
</g>
<!-- A0&#45;&gt;A2 -->
<g id="edge4" class="edge">
<title>A0&#45;&gt;A2</title>
<path fill="none" stroke="#000000" d="M241.2504,-199.583C253.9968,-200.8037 266.7504,-201.9668 279,-203 337.5506,-207.9384 402.8331,-212.3099 456.658,-215.6109"/>
<polygon fill="none" stroke="#000000" points="240.9922,-199.558 234.6335,-202.9589 229.0485,-198.3974 235.4072,-194.9964 240.9922,-199.558"/>
<polygon fill="#000000" stroke="#000000" points="466.9172,-216.2357 456.6621,-220.1194 461.9265,-215.9317 456.9357,-215.6277 456.9357,-215.6277 456.9357,-215.6277 461.9265,-215.9317 457.2093,-211.136 466.9172,-216.2357 466.9172,-216.2357"/>
<text text-anchor="middle" x="448.3108" y="-220.5706" font-family="Helvetica,sans-Serif" font-size="10.00" fill="#000000">participantes*</text>
<text text-anchor="middle" x="247.9071" y="-188.7377" font-family="Helvetica,sans-Serif" font-size="10.00" fill="#000000">1</text>
</g>
<!-- A6 -->
<g id="node7" class="node">
<title>A6</title>
<polygon fill="none" stroke="#000000" points="300.5,-44 300.5,-88 390.5,-88 390.5,-44 300.5,-44"/>
<text text-anchor="start" x="320.764" y="-69" font-family="Helvetica,sans-Serif" font-size="10.00" fill="#000000">&lt;&lt;Enum&gt;&gt;</text>
<text text-anchor="start" x="310.4965" y="-57" font-family="Helvetica,sans-Serif" font-size="10.00" fill="#000000">CaracterTorneo</text>
<polygon fill="none" stroke="#000000" points="300.5,0 300.5,-44 390.5,-44 390.5,0 300.5,0"/>
<text text-anchor="start" x="317.445" y="-25" font-family="Helvetica,sans-Serif" font-size="10.00" fill="#000000">INDIVIDUAL</text>
<text text-anchor="start" x="324.943" y="-13" font-family="Helvetica,sans-Serif" font-size="10.00" fill="#000000">GRUPAL</text>
</g>
<!-- A0&#45;&gt;A6 -->
<g id="edge2" class="edge">
<title>A0&#45;&gt;A6</title>
<path fill="none" stroke="#000000" d="M229.3232,-115.416C251.1217,-102.0161 272.9523,-88.5964 291.7091,-77.0663"/>
<polygon fill="#000000" stroke="#000000" points="300.3771,-71.7379 294.2146,-80.8084 296.1175,-74.3564 291.8579,-76.9748 291.8579,-76.9748 291.8579,-76.9748 296.1175,-74.3564 289.5013,-73.1412 300.3771,-71.7379 300.3771,-71.7379"/>
<text text-anchor="middle" x="289.3616" y="-85.431" font-family="Helvetica,sans-Serif" font-size="10.00" fill="#000000">caracter1</text>
<text text-anchor="middle" x="240.3387" y="-95.7229" font-family="Helvetica,sans-Serif" font-size="10.00" fill="#000000">*</text>
</g>
<!-- A9 -->
<g id="node10" class="node">
<title>A9</title>
<polygon fill="none" stroke="#000000" points="279.5,-162 279.5,-194 412.5,-194 412.5,-162 279.5,-162"/>
<text text-anchor="start" x="328.2185" y="-175" font-family="Helvetica,sans-Serif" font-size="10.00" fill="#000000">Reporte</text>
<polygon fill="none" stroke="#000000" points="279.5,-106 279.5,-162 412.5,-162 412.5,-106 279.5,-106"/>
<text text-anchor="start" x="318.4895" y="-143" font-family="Helvetica,sans-Serif" font-size="10.00" fill="#000000">fecha:Fecha</text>
<text text-anchor="start" x="289.042" y="-131" font-family="Helvetica,sans-Serif" font-size="10.00" fill="#000000">participanteA:Participante</text>
<text text-anchor="start" x="289.042" y="-119" font-family="Helvetica,sans-Serif" font-size="10.00" fill="#000000">participanteB:Participante</text>
</g>
<!-- A0&#45;&gt;A9 -->
<g id="edge1" class="edge">
<title>A0&#45;&gt;A9</title>
<path fill="none" stroke="#000000" stroke-dasharray="5,2" d="M229.3232,-168.1055C242.7253,-166.0168 256.1395,-163.9263 268.844,-161.9464"/>
<polygon fill="#000000" stroke="#000000" points="278.8669,-160.3844 269.6791,-166.3707 273.9265,-161.1544 268.9861,-161.9243 268.9861,-161.9243 268.9861,-161.9243 273.9265,-161.1544 268.2932,-157.478 278.8669,-160.3844 278.8669,-160.3844"/>
</g>
<!-- A3 -->
<g id="node4" class="node">
<title>A3</title>
<polygon fill="none" stroke="#000000" points="746,-220 746,-252 827,-252 827,-220 746,-220"/>
<text text-anchor="start" x="770.938" y="-233" font-family="Helvetica,sans-Serif" font-size="10.00" fill="#000000">Equipo</text>
<polygon fill="none" stroke="#000000" points="746,-188 746,-220 827,-220 827,-188 746,-188"/>
<text text-anchor="start" x="755.6605" y="-201" font-family="Helvetica,sans-Serif" font-size="10.00" fill="#000000">nombre:Texto</text>
</g>
<!-- A2&#45;&gt;A3 -->
<g id="edge9" class="edge">
<title>A2&#45;&gt;A3</title>
<path fill="none" stroke="#000000" d="M682.1122,-220.9597C704.7828,-220.7503 727.1978,-220.5432 745.3713,-220.3753"/>
<polygon fill="none" stroke="#000000" points="682.0111,-217.4604 672.0439,-221.0527 682.0758,-224.4601 682.0111,-217.4604"/>
</g>
<!-- A5 -->
<g id="node6" class="node">
<title>A5</title>
<polygon fill="none" stroke="#000000" points="1027.5,-220 1027.5,-252 1152.5,-252 1152.5,-220 1027.5,-220"/>
<text text-anchor="start" x="1071.938" y="-233" font-family="Helvetica,sans-Serif" font-size="10.00" fill="#000000">Jugador</text>
<polygon fill="none" stroke="#000000" points="1027.5,-188 1027.5,-220 1152.5,-220 1152.5,-188 1027.5,-188"/>
<text text-anchor="start" x="1037.489" y="-201" font-family="Helvetica,sans-Serif" font-size="10.00" fill="#000000">fechaNacimiento:Fecha</text>
</g>
<!-- A2&#45;&gt;A5 -->
<g id="edge8" class="edge">
<title>A2&#45;&gt;A5</title>
<path fill="none" stroke="#000000" d="M681.9855,-260.448C764.4777,-283.1709 878.7542,-303.1992 977,-279 999.1637,-273.5408 1021.7948,-262.852 1040.8925,-252.0545"/>
<polygon fill="none" stroke="#000000" points="682.9133,-257.0733 672.3394,-257.7389 681.0205,-263.8125 682.9133,-257.0733"/>
</g>
<!-- A2JA7 -->
<!-- A2&#45;&gt;A2JA7 -->
<g id="edge10" class="edge">
<title>A2&#45;&gt;A2JA7</title>
<path fill="none" stroke="#000000" d="M665.9931,-183.9619C669.8625,-181.16 673.5557,-178.1756 677,-175 711.5018,-143.1897 688.6549,-109.0541 727,-82 747.3194,-67.6638 781.3954,-72.2978 785.5755,-72.9331"/>
<text text-anchor="middle" x="675.6245" y="-163.4338" font-family="Helvetica,sans-Serif" font-size="10.00" fill="#000000">*</text>
</g>
<!-- A4 -->
<g id="node5" class="node">
<title>A4</title>
<polygon fill="none" stroke="#000000" points="895,-238 895,-270 977,-270 977,-238 895,-238"/>
<text text-anchor="start" x="917.383" y="-251" font-family="Helvetica,sans-Serif" font-size="10.00" fill="#000000">Persona</text>
<polygon fill="none" stroke="#000000" points="895,-170 895,-238 977,-238 977,-170 895,-170"/>
<text text-anchor="start" x="905.1605" y="-219" font-family="Helvetica,sans-Serif" font-size="10.00" fill="#000000">nombre:Texto</text>
<text text-anchor="start" x="904.8815" y="-207" font-family="Helvetica,sans-Serif" font-size="10.00" fill="#000000">apellido:Texto</text>
<text text-anchor="start" x="910.165" y="-195" font-family="Helvetica,sans-Serif" font-size="10.00" fill="#000000">email:Texto</text>
<text text-anchor="start" x="907.3855" y="-183" font-family="Helvetica,sans-Serif" font-size="10.00" fill="#000000">celular:Texto</text>
</g>
<!-- A3&#45;&gt;A4 -->
<g id="edge5" class="edge">
<title>A3&#45;&gt;A4</title>
<path fill="none" stroke="#000000" d="M838.6673,-220C853.6407,-220 869.9208,-220 884.8053,-220"/>
<polygon fill="none" stroke="#000000" points="838.5922,-220.0001 832.5921,-224 826.5922,-220 832.5922,-216 838.5922,-220.0001"/>
<polygon fill="#000000" stroke="#000000" points="894.8538,-220 884.8538,-224.5001 889.8538,-220 884.8538,-220.0001 884.8538,-220.0001 884.8538,-220.0001 889.8538,-220 884.8537,-215.5001 894.8538,-220 894.8538,-220"/>
<text text-anchor="middle" x="876.7276" y="-225.4524" font-family="Helvetica,sans-Serif" font-size="10.00" fill="#000000">representante1</text>
<text text-anchor="middle" x="844.7183" y="-208.5476" font-family="Helvetica,sans-Serif" font-size="10.00" fill="#000000">1</text>
</g>
<!-- A3&#45;&gt;A5 -->
<g id="edge7" class="edge">
<title>A3&#45;&gt;A5</title>
<path fill="none" stroke="#000000" d="M837.2384,-185.5021C854.7896,-175.5668 875.0484,-166.0533 895,-161 930.3289,-152.0519 941.6132,-152.2838 977,-161 995.7006,-165.6062 1014.734,-173.9355 1031.6969,-182.9117"/>
<polygon fill="none" stroke="#000000" points="837.0313,-185.6238 833.8868,-192.1132 826.6872,-191.7066 829.8316,-185.2172 837.0313,-185.6238"/>
<polygon fill="#000000" stroke="#000000" points="1040.8925,-187.9455 1029.96,-187.091 1036.5067,-185.5446 1032.1208,-183.1437 1032.1208,-183.1437 1032.1208,-183.1437 1036.5067,-185.5446 1034.2816,-179.1964 1040.8925,-187.9455 1040.8925,-187.9455"/>
<text text-anchor="middle" x="1020.9341" y="-183.6559" font-family="Helvetica,sans-Serif" font-size="10.00" fill="#000000">jugador*</text>
<text text-anchor="middle" x="838.0276" y="-172.2326" font-family="Helvetica,sans-Serif" font-size="10.00" fill="#000000">1</text>
</g>
<!-- A4&#45;&gt;A5 -->
<g id="edge6" class="edge">
<title>A4&#45;&gt;A5</title>
<path fill="none" stroke="#000000" d="M987.4712,-220C1000.1059,-220 1013.7694,-220 1026.865,-220"/>
<polygon fill="none" stroke="#000000" points="987.1352,-216.5001 977.1352,-220 987.1351,-223.5001 987.1352,-216.5001"/>
</g>
<!-- A7 -->
<g id="node8" class="node">
<title>A7</title>
<polygon fill="none" stroke="#000000" points="896,-73 896,-105 977,-105 977,-73 896,-73"/>
<text text-anchor="start" x="912.329" y="-86" font-family="Helvetica,sans-Serif" font-size="10.00" fill="#000000">Estadistica</text>
<polygon fill="none" stroke="#000000" points="896,-41 896,-73 977,-73 977,-41 896,-41"/>
<text text-anchor="start" x="905.6605" y="-54" font-family="Helvetica,sans-Serif" font-size="10.00" fill="#000000">nombre:Texto</text>
</g>
<!-- A11 -->
<g id="node12" class="node">
<title>A11</title>
<polygon fill="none" stroke="#000000" points="1046.5,-79 1046.5,-123 1133.5,-123 1133.5,-79 1046.5,-79"/>
<text text-anchor="start" x="1065.264" y="-104" font-family="Helvetica,sans-Serif" font-size="10.00" fill="#000000">&lt;&lt;Enum&gt;&gt;</text>
<text text-anchor="start" x="1056.106" y="-92" font-family="Helvetica,sans-Serif" font-size="10.00" fill="#000000">TipoEstadistica</text>
<polygon fill="none" stroke="#000000" points="1046.5,-23 1046.5,-79 1133.5,-79 1133.5,-23 1046.5,-23"/>
<text text-anchor="start" x="1066.939" y="-60" font-family="Helvetica,sans-Serif" font-size="10.00" fill="#000000">POSITIVA</text>
<text text-anchor="start" x="1064.719" y="-48" font-family="Helvetica,sans-Serif" font-size="10.00" fill="#000000">NEGATIVA</text>
<text text-anchor="start" x="1069.448" y="-36" font-family="Helvetica,sans-Serif" font-size="10.00" fill="#000000">NEUTRA</text>
</g>
<!-- A7&#45;&gt;A11 -->
<g id="edge13" class="edge">
<title>A7&#45;&gt;A11</title>
<path fill="none" stroke="#000000" d="M976.7322,-73C994.8012,-73 1016.3148,-73 1035.6829,-73"/>
<polygon fill="#000000" stroke="#000000" points="1045.8852,-73 1035.8852,-77.5001 1040.8852,-73 1035.8852,-73.0001 1035.8852,-73.0001 1035.8852,-73.0001 1040.8852,-73 1035.8852,-68.5001 1045.8852,-73 1045.8852,-73"/>
<text text-anchor="middle" x="1027.759" y="-78.4524" font-family="Helvetica,sans-Serif" font-size="10.00" fill="#000000">tipo1</text>
<text text-anchor="middle" x="994.8583" y="-61.5476" font-family="Helvetica,sans-Serif" font-size="10.00" fill="#000000">*</text>
</g>
<!-- A8 -->
<g id="node9" class="node">
<title>A8</title>
<polygon fill="none" stroke="#000000" points="727,-135 727,-167 845,-167 845,-135 727,-135"/>
<text text-anchor="start" x="743.2175" y="-148" font-family="Helvetica,sans-Serif" font-size="10.00" fill="#000000">RegistroEstadistica</text>
<polygon fill="none" stroke="#000000" points="727,-91 727,-135 845,-135 845,-91 727,-91"/>
<text text-anchor="start" x="763.4995" y="-116" font-family="Helvetica,sans-Serif" font-size="10.00" fill="#000000">valor:Real</text>
<text text-anchor="start" x="736.8235" y="-104" font-family="Helvetica,sans-Serif" font-size="10.00" fill="#000000">estadistica:Estadistica</text>
</g>
<!-- A8&#45;&gt;A2JA7 -->
<g id="edge12" class="edge">
<title>A8&#45;&gt;A2JA7</title>
<path fill="none" stroke="#000000" stroke-dasharray="5,2" d="M786,-90.8008C786,-88.3591 786,-85.9174 786,-83.4756"/>
<polygon fill="#000000" stroke="#000000" points="786,-73.4375 790.5001,-83.4375 786,-78.4375 786.0001,-83.4375 786.0001,-83.4375 786.0001,-83.4375 786,-78.4375 781.5001,-83.4375 786,-73.4375 786,-73.4375"/>
</g>
<!-- A9&#45;&gt;A2 -->
<g id="edge16" class="edge">
<title>A9&#45;&gt;A2</title>
<path fill="none" stroke="#000000" d="M423.581,-175.0975C434.338,-178.5551 445.556,-182.1608 456.7835,-185.7697"/>
<polygon fill="none" stroke="#000000" points="423.5253,-175.0796 416.589,-177.0516 412.1009,-171.4074 419.0371,-169.4354 423.5253,-175.0796"/>
<polygon fill="#000000" stroke="#000000" points="466.6413,-188.9383 455.7439,-190.1622 461.8811,-187.4082 457.121,-185.8781 457.121,-185.8781 457.121,-185.8781 461.8811,-187.4082 458.4981,-181.594 466.6413,-188.9383 466.6413,-188.9383"/>
<text text-anchor="middle" x="446.7982" y="-188.4384" font-family="Helvetica,sans-Serif" font-size="10.00" fill="#000000">2</text>
<text text-anchor="middle" x="431.944" y="-165.9073" font-family="Helvetica,sans-Serif" font-size="10.00" fill="#000000">*</text>
</g>
<!-- A10 -->
<g id="node11" class="node">
<title>A10</title>
<polygon fill="none" stroke="#000000" points="462.5,-134 462.5,-166 677.5,-166 677.5,-134 462.5,-134"/>
<text text-anchor="start" x="533.607" y="-147" font-family="Helvetica,sans-Serif" font-size="10.00" fill="#000000">RegistroReporte</text>
<polygon fill="none" stroke="#000000" points="462.5,-90 462.5,-134 677.5,-134 677.5,-90 462.5,-90"/>
<text text-anchor="start" x="472.483" y="-115" font-family="Helvetica,sans-Serif" font-size="10.00" fill="#000000">estadisticaParticipanteA:RegistroEstadistica</text>
<text text-anchor="start" x="472.483" y="-103" font-family="Helvetica,sans-Serif" font-size="10.00" fill="#000000">estadisticaParticipanteB:RegistroEstadistica</text>
</g>
<!-- A9&#45;&gt;A10 -->
<g id="edge14" class="edge">
<title>A9&#45;&gt;A10</title>
<path fill="none" stroke="#000000" d="M424.0456,-142.2857C432.977,-141.4085 442.221,-140.5006 451.52,-139.5873"/>
<polygon fill="none" stroke="#000000" points="424.0434,-142.2858 418.4632,-146.8532 412.1009,-143.4588 417.6812,-138.8915 424.0434,-142.2858"/>
<polygon fill="#000000" stroke="#000000" points="461.62,-138.5954 452.1077,-144.0513 456.6439,-139.0841 451.6678,-139.5729 451.6678,-139.5729 451.6678,-139.5729 456.6439,-139.0841 451.228,-135.0944 461.62,-138.5954 461.62,-138.5954"/>
<text text-anchor="middle" x="444.4068" y="-145.779" font-family="Helvetica,sans-Serif" font-size="10.00" fill="#000000">registros*</text>
<text text-anchor="middle" x="429.3141" y="-130.2752" font-family="Helvetica,sans-Serif" font-size="10.00" fill="#000000">1</text>
</g>
<!-- A10&#45;&gt;A8 -->
<g id="edge15" class="edge">
<title>A10&#45;&gt;A8</title>
<path fill="none" stroke="#000000" d="M689.5093,-128.5543C698.7668,-128.5971 707.9082,-128.6393 716.6584,-128.6797"/>
<polygon fill="none" stroke="#000000" points="689.1156,-128.5526 683.0972,-132.5248 677.1157,-128.4971 683.1342,-124.5249 689.1156,-128.5526"/>
<polygon fill="#000000" stroke="#000000" points="726.7342,-128.7263 716.7135,-133.1799 721.7343,-128.7031 716.7343,-128.68 716.7343,-128.68 716.7343,-128.68 721.7343,-128.7031 716.7551,-124.18 726.7342,-128.7263 726.7342,-128.7263"/>
<text text-anchor="middle" x="708.5692" y="-134.0948" font-family="Helvetica,sans-Serif" font-size="10.00" fill="#000000">2</text>
<text text-anchor="middle" x="695.2807" y="-117.1285" font-family="Helvetica,sans-Serif" font-size="10.00" fill="#000000">*</text>
</g>
<!-- A2JA7&#45;&gt;A7 -->
<g id="edge11" class="edge">
<title>A2JA7&#45;&gt;A7</title>
<path fill="none" stroke="#000000" d="M786.4303,-73C791.6738,-73 843.7929,-73 885.0515,-73"/>
<polygon fill="#000000" stroke="#000000" points="895.2718,-73 885.2719,-77.5001 890.2718,-73 885.2718,-73.0001 885.2718,-73.0001 885.2718,-73.0001 890.2718,-73 885.2718,-68.5001 895.2718,-73 895.2718,-73"/>
<text text-anchor="middle" x="877.1457" y="-78.4524" font-family="Helvetica,sans-Serif" font-size="10.00" fill="#000000">*</text>
</g>
</g>
</svg>
