<?xml version="1.0" encoding="UTF-8" standalone="no"?>
<!DOCTYPE svg PUBLIC "-//W3C//DTD SVG 1.1//EN"
 "http://www.w3.org/Graphics/SVG/1.1/DTD/svg11.dtd">
<!-- Generated by graphviz version 2.40.1 (20161225.0304)
 -->
<!-- Title: G Pages: 1 -->
<svg width="2739pt" height="667pt"
 viewBox="0.00 0.00 2739.00 667.25" xmlns="http://www.w3.org/2000/svg" xmlns:xlink="http://www.w3.org/1999/xlink">
<g id="graph0" class="graph" transform="scale(1 1) rotate(0) translate(4 663.2504)">
<title>G</title>
<polygon fill="#ffffff" stroke="transparent" points="-4,4 -4,-663.2504 2735,-663.2504 2735,4 -4,4"/>
<!-- A0 -->
<g id="node1" class="node">
<title>A0</title>
<polygon fill="none" stroke="#000000" points="0,-627.2504 0,-659.2504 346,-659.2504 346,-627.2504 0,-627.2504"/>
<text text-anchor="start" x="157.163" y="-640.2504" font-family="Helvetica,sans-Serif" font-size="10.00" fill="#000000">Torneo</text>
<polygon fill="none" stroke="#000000" points="0,-523.2504 0,-627.2504 346,-627.2504 346,-523.2504 0,-523.2504"/>
<text text-anchor="start" x="142.1605" y="-608.2504" font-family="Helvetica,sans-Serif" font-size="10.00" fill="#000000">nombre:Texto</text>
<text text-anchor="start" x="133.822" y="-596.2504" font-family="Helvetica,sans-Serif" font-size="10.00" fill="#000000">fechaInicio:Fecha</text>
<text text-anchor="start" x="104.6515" y="-584.2504" font-family="Helvetica,sans-Serif" font-size="10.00" fill="#000000">fechaInicioInscripciones:Fecha</text>
<text text-anchor="start" x="102.712" y="-572.2504" font-family="Helvetica,sans-Serif" font-size="10.00" fill="#000000">fechaCierreInscripciones:Fecha</text>
<text text-anchor="start" x="111.042" y="-560.2504" font-family="Helvetica,sans-Serif" font-size="10.00" fill="#000000">numeroParticipantes:Entero</text>
<text text-anchor="start" x="133.5485" y="-548.2504" font-family="Helvetica,sans-Serif" font-size="10.00" fill="#000000">limiteEdad:Entero</text>
<text text-anchor="start" x="122.1595" y="-536.2504" font-family="Helvetica,sans-Serif" font-size="10.00" fill="#000000">valorInscripcion:Entero</text>
<polygon fill="none" stroke="#000000" points="0,-47.2504 0,-523.2504 346,-523.2504 346,-47.2504 0,-47.2504"/>
<text text-anchor="start" x="111.741" y="-504.2504" font-family="Helvetica,sans-Serif" font-size="10.00" fill="#000000">+Constructor(nombre:Texto</text>
<text text-anchor="start" x="133.822" y="-492.2504" font-family="Helvetica,sans-Serif" font-size="10.00" fill="#000000">fechaInicio:Fecha</text>
<text text-anchor="start" x="104.6515" y="-480.2504" font-family="Helvetica,sans-Serif" font-size="10.00" fill="#000000">fechaInicioInscripciones:Fecha</text>
<text text-anchor="start" x="102.712" y="-468.2504" font-family="Helvetica,sans-Serif" font-size="10.00" fill="#000000">fechaCierreInscripciones:Fecha</text>
<text text-anchor="start" x="111.042" y="-456.2504" font-family="Helvetica,sans-Serif" font-size="10.00" fill="#000000">numeroParticipantes:Entero</text>
<text text-anchor="start" x="133.5485" y="-444.2504" font-family="Helvetica,sans-Serif" font-size="10.00" fill="#000000">limiteEdad:Entero</text>
<text text-anchor="start" x="122.1595" y="-432.2504" font-family="Helvetica,sans-Serif" font-size="10.00" fill="#000000">valorInscripcion:Entero</text>
<text text-anchor="start" x="122.1555" y="-420.2504" font-family="Helvetica,sans-Serif" font-size="10.00" fill="#000000">tipoTorneo:TipoTorneo</text>
<text text-anchor="start" x="12.288" y="-408.2504" font-family="Helvetica,sans-Serif" font-size="10.00" fill="#000000">caracter:CaracterTorneo)+registrarParticipante(participante:Participante)</text>
<text text-anchor="start" x="128.1335" y="-396.2504" font-family="Helvetica,sans-Serif" font-size="10.00" fill="#000000">+getNombre():Texto</text>
<text text-anchor="start" x="118.96" y="-384.2504" font-family="Helvetica,sans-Serif" font-size="10.00" fill="#000000">+getFechaInicio():Fecha</text>
<text text-anchor="start" x="89.7895" y="-372.2504" font-family="Helvetica,sans-Serif" font-size="10.00" fill="#000000">+getFechaInicioInscripciones():Fecha</text>
<text text-anchor="start" x="87.85" y="-360.2504" font-family="Helvetica,sans-Serif" font-size="10.00" fill="#000000">+getFechaCierreInscripciones():Fecha</text>
<text text-anchor="start" x="97.015" y="-348.2504" font-family="Helvetica,sans-Serif" font-size="10.00" fill="#000000">+getNumeroParticipantes():Entero</text>
<text text-anchor="start" x="118.6815" y="-336.2504" font-family="Helvetica,sans-Serif" font-size="10.00" fill="#000000">+getLimiteEdad():Entero</text>
<text text-anchor="start" x="108.128" y="-324.2504" font-family="Helvetica,sans-Serif" font-size="10.00" fill="#000000">+getValorInscripcion():Entero</text>
<text text-anchor="start" x="107.2935" y="-312.2504" font-family="Helvetica,sans-Serif" font-size="10.00" fill="#000000">+getTipoTorneo():TipoTorneo</text>
<text text-anchor="start" x="80.6215" y="-300.2504" font-family="Helvetica,sans-Serif" font-size="10.00" fill="#000000">+getParticipantes():Participante［*］</text>
<text text-anchor="start" x="104.2435" y="-288.2504" font-family="Helvetica,sans-Serif" font-size="10.00" fill="#000000">+getCaracter():CaracterTorneo</text>
<text text-anchor="start" x="95.344" y="-276.2504" font-family="Helvetica,sans-Serif" font-size="10.00" fill="#000000">+setFechaInicio(fechaInicio:Fecha)</text>
<text text-anchor="start" x="37.003" y="-264.2504" font-family="Helvetica,sans-Serif" font-size="10.00" fill="#000000">+setFechaInicioInscripciones(fechaInicioInscripciones:Fecha)</text>
<text text-anchor="start" x="33.124" y="-252.2504" font-family="Helvetica,sans-Serif" font-size="10.00" fill="#000000">+setFechaCierreInscripciones(fechaCierreInscripciones:Fecha)</text>
<text text-anchor="start" x="69.65" y="-240.2504" font-family="Helvetica,sans-Serif" font-size="10.00" fill="#000000">buscarParticipante(nombre:Texto):Participante</text>
<text text-anchor="start" x="60.8875" y="-228.2504" font-family="Helvetica,sans-Serif" font-size="10.00" fill="#000000">+registrarJugador(equipo:Equipo,jugador:Jugador)</text>
<text text-anchor="start" x="46.4445" y="-216.2504" font-family="Helvetica,sans-Serif" font-size="10.00" fill="#000000">+registrarJugador(nombreEquipo:Texto,jugador:Jugador)</text>
<text text-anchor="start" x="45.896" y="-204.2504" font-family="Helvetica,sans-Serif" font-size="10.00" fill="#000000">+registrarEstadisticaParticipante(participante:Participante</text>
<text text-anchor="start" x="110.4915" y="-192.2504" font-family="Helvetica,sans-Serif" font-size="10.00" fill="#000000">estadistica:ValorEstadistica)</text>
<text text-anchor="start" x="85.0685" y="-180.2504" font-family="Helvetica,sans-Serif" font-size="10.00" fill="#000000">+getEstadisticas():Estadistica［*］</text>
<text text-anchor="start" x="62.2905" y="-168.2504" font-family="Helvetica,sans-Serif" font-size="10.00" fill="#000000">+buscarMejor(estadistica:Estadistica):Participante</text>
<text text-anchor="start" x="71.1735" y="-156.2504" font-family="Helvetica,sans-Serif" font-size="10.00" fill="#000000">+buscarSuperiorIgualA(estadistica:Estadistica</text>
<text text-anchor="start" x="98.548" y="-144.2504" font-family="Helvetica,sans-Serif" font-size="10.00" fill="#000000">valor:Real):Participante［*］</text>
<text text-anchor="start" x="85.346" y="-132.2504" font-family="Helvetica,sans-Serif" font-size="10.00" fill="#000000">+buscarInferiorA(estadistica:Estadistica</text>
<text text-anchor="start" x="98.548" y="-120.2504" font-family="Helvetica,sans-Serif" font-size="10.00" fill="#000000">valor:Real):Participante［*］</text>
<text text-anchor="start" x="60.9005" y="-108.2504" font-family="Helvetica,sans-Serif" font-size="10.00" fill="#000000">+promedioEstadistica(estadistica:Estadistica):Real</text>
<text text-anchor="start" x="9.7745" y="-96.2504" font-family="Helvetica,sans-Serif" font-size="10.00" fill="#000000">+obtenerEstadisticas(participante:Participante):ValorEstadistica［*］</text>
<text text-anchor="start" x="61.452" y="-84.2504" font-family="Helvetica,sans-Serif" font-size="10.00" fill="#000000">+compararParticipantes(participanteA:Participante</text>
<text text-anchor="start" x="116.042" y="-72.2504" font-family="Helvetica,sans-Serif" font-size="10.00" fill="#000000">participanteB:Participante</text>
<text text-anchor="start" x="106.0425" y="-60.2504" font-family="Helvetica,sans-Serif" font-size="10.00" fill="#000000">estadistica:Estadistica):Entero</text>
</g>
<!-- A1 -->
<g id="node2" class="node">
<title>A1</title>
<polygon fill="none" stroke="#000000" points="465.5,-578.2504 465.5,-622.2504 536.5,-622.2504 536.5,-578.2504 465.5,-578.2504"/>
<text text-anchor="start" x="476.264" y="-603.2504" font-family="Helvetica,sans-Serif" font-size="10.00" fill="#000000">&lt;&lt;Enum&gt;&gt;</text>
<text text-anchor="start" x="475.44" y="-591.2504" font-family="Helvetica,sans-Serif" font-size="10.00" fill="#000000">TipoTorneo</text>
<polygon fill="none" stroke="#000000" points="465.5,-510.2504 465.5,-578.2504 536.5,-578.2504 536.5,-510.2504 465.5,-510.2504"/>
<text text-anchor="start" x="484.6075" y="-559.2504" font-family="Helvetica,sans-Serif" font-size="10.00" fill="#000000">LOCAL</text>
<text text-anchor="start" x="475.164" y="-547.2504" font-family="Helvetica,sans-Serif" font-size="10.00" fill="#000000">REGIONAL</text>
<text text-anchor="start" x="475.444" y="-535.2504" font-family="Helvetica,sans-Serif" font-size="10.00" fill="#000000">NACIONAL</text>
<text text-anchor="start" x="478.5035" y="-523.2504" font-family="Helvetica,sans-Serif" font-size="10.00" fill="#000000">MUNDIAL</text>
</g>
<!-- A0&#45;&gt;A1 -->
<g id="edge3" class="edge">
<title>A0&#45;&gt;A1</title>
<path fill="none" stroke="#000000" d="M346.152,-468.886C362.9547,-479.8907 379.7777,-490.8252 396,-501.2504 415.551,-513.8147 437.3538,-527.4369 455.9651,-538.9496"/>
<polygon fill="#000000" stroke="#000000" points="464.5459,-544.2481 453.673,-542.823 460.2916,-541.6211 456.0373,-538.9941 456.0373,-538.9941 456.0373,-538.9941 460.2916,-541.6211 458.4016,-535.1652 464.5459,-544.2481 464.5459,-544.2481"/>
<text text-anchor="middle" x="444.6823" y="-538.9165" font-family="Helvetica,sans-Serif" font-size="10.00" fill="#000000">tipoTorneo1</text>
<text text-anchor="middle" x="365.9474" y="-468.7393" font-family="Helvetica,sans-Serif" font-size="10.00" fill="#000000">*</text>
</g>
<!-- A4 -->
<g id="node5" class="node">
<title>A4</title>
<polygon fill="none" stroke="#000000" points="655,-282.2504 655,-326.2504 875,-326.2504 875,-282.2504 655,-282.2504"/>
<text text-anchor="start" x="734.151" y="-307.2504" font-family="Helvetica,sans-Serif" font-size="10.00" fill="#000000">&lt;&lt;interface&gt;&gt;</text>
<text text-anchor="start" x="738.6055" y="-295.2504" font-family="Helvetica,sans-Serif" font-size="10.00" fill="#000000">Participante</text>
<polygon fill="none" stroke="#000000" points="655,-238.2504 655,-282.2504 875,-282.2504 875,-238.2504 655,-238.2504"/>
<text text-anchor="start" x="698.7425" y="-263.2504" font-family="Helvetica,sans-Serif" font-size="10.00" fill="#000000">+getNombreCompleto():Texto</text>
<text text-anchor="start" x="664.8485" y="-251.2504" font-family="Helvetica,sans-Serif" font-size="10.00" fill="#000000">+getRegistroEstadistica():RegistroEstadistica</text>
</g>
<!-- A0&#45;&gt;A4 -->
<g id="edge4" class="edge">
<title>A0&#45;&gt;A4</title>
<path fill="none" stroke="#000000" d="M357.4185,-245.4209C370.2152,-240.6334 383.1404,-236.4907 396,-233.2504 486.0734,-210.5541 513.1347,-219.4987 605,-233.2504 618.1781,-235.2231 631.7703,-238.0618 645.2051,-241.393"/>
<polygon fill="none" stroke="#000000" points="357.3921,-245.4311 353.2536,-251.3365 346.2108,-249.7876 350.3493,-243.8823 357.3921,-245.4311"/>
<polygon fill="#000000" stroke="#000000" points="654.9517,-243.9003 644.1458,-245.767 650.1093,-242.6546 645.267,-241.4089 645.267,-241.4089 645.267,-241.4089 650.1093,-242.6546 646.3881,-237.0507 654.9517,-243.9003 654.9517,-243.9003"/>
<text text-anchor="middle" x="635.2913" y="-244.5703" font-family="Helvetica,sans-Serif" font-size="10.00" fill="#000000">participantes*</text>
<text text-anchor="middle" x="360.0318" y="-232.3315" font-family="Helvetica,sans-Serif" font-size="10.00" fill="#000000">1</text>
</g>
<!-- A8 -->
<g id="node9" class="node">
<title>A8</title>
<polygon fill="none" stroke="#000000" points="455.5,-286.2504 455.5,-330.2504 545.5,-330.2504 545.5,-286.2504 455.5,-286.2504"/>
<text text-anchor="start" x="475.764" y="-311.2504" font-family="Helvetica,sans-Serif" font-size="10.00" fill="#000000">&lt;&lt;Enum&gt;&gt;</text>
<text text-anchor="start" x="465.4965" y="-299.2504" font-family="Helvetica,sans-Serif" font-size="10.00" fill="#000000">CaracterTorneo</text>
<polygon fill="none" stroke="#000000" points="455.5,-242.2504 455.5,-286.2504 545.5,-286.2504 545.5,-242.2504 455.5,-242.2504"/>
<text text-anchor="start" x="472.445" y="-267.2504" font-family="Helvetica,sans-Serif" font-size="10.00" fill="#000000">INDIVIDUAL</text>
<text text-anchor="start" x="479.943" y="-255.2504" font-family="Helvetica,sans-Serif" font-size="10.00" fill="#000000">GRUPAL</text>
</g>
<!-- A0&#45;&gt;A8 -->
<g id="edge2" class="edge">
<title>A0&#45;&gt;A8</title>
<path fill="none" stroke="#000000" d="M346.3398,-317.7885C382.2787,-310.4361 417.5994,-303.2102 445.3457,-297.5338"/>
<polygon fill="#000000" stroke="#000000" points="455.2125,-295.5153 446.3173,-301.9284 450.3139,-296.5175 445.4154,-297.5197 445.4154,-297.5197 445.4154,-297.5197 450.3139,-296.5175 444.5134,-293.111 455.2125,-295.5153 455.2125,-295.5153"/>
<text text-anchor="middle" x="439.1482" y="-304.4292" font-family="Helvetica,sans-Serif" font-size="10.00" fill="#000000">caracter1</text>
<text text-anchor="middle" x="362.4041" y="-302.8746" font-family="Helvetica,sans-Serif" font-size="10.00" fill="#000000">*</text>
</g>
<!-- A11 -->
<g id="node12" class="node">
<title>A11</title>
<polygon fill="none" stroke="#000000" points="396.5,-460.2504 396.5,-492.2504 605.5,-492.2504 605.5,-460.2504 396.5,-460.2504"/>
<text text-anchor="start" x="483.2185" y="-473.2504" font-family="Helvetica,sans-Serif" font-size="10.00" fill="#000000">Reporte</text>
<polygon fill="none" stroke="#000000" points="396.5,-404.2504 396.5,-460.2504 605.5,-460.2504 605.5,-404.2504 396.5,-404.2504"/>
<text text-anchor="start" x="473.4895" y="-441.2504" font-family="Helvetica,sans-Serif" font-size="10.00" fill="#000000">fecha:Fecha</text>
<text text-anchor="start" x="444.042" y="-429.2504" font-family="Helvetica,sans-Serif" font-size="10.00" fill="#000000">participanteA:Participante</text>
<text text-anchor="start" x="444.042" y="-417.2504" font-family="Helvetica,sans-Serif" font-size="10.00" fill="#000000">participanteB:Participante</text>
<polygon fill="none" stroke="#000000" points="396.5,-348.2504 396.5,-404.2504 605.5,-404.2504 605.5,-348.2504 396.5,-348.2504"/>
<text text-anchor="start" x="413.6225" y="-385.2504" font-family="Helvetica,sans-Serif" font-size="10.00" fill="#000000">+Constructor(participanteA:Participante</text>
<text text-anchor="start" x="442.3775" y="-373.2504" font-family="Helvetica,sans-Serif" font-size="10.00" fill="#000000">participanteB:Participante)</text>
<text text-anchor="start" x="406.406" y="-361.2504" font-family="Helvetica,sans-Serif" font-size="10.00" fill="#000000">+getRegistros():RegistroReporte［*］</text>
</g>
<!-- A0&#45;&gt;A11 -->
<g id="edge1" class="edge">
<title>A0&#45;&gt;A11</title>
<path fill="none" stroke="#000000" stroke-dasharray="5,2" d="M346.3398,-388.7123C359.6572,-391.4367 372.8896,-394.1438 385.6833,-396.7611"/>
<polygon fill="#000000" stroke="#000000" points="395.8427,-398.8396 385.1436,-401.2439 390.9442,-397.8374 386.0456,-396.8352 386.0456,-396.8352 386.0456,-396.8352 390.9442,-397.8374 386.9476,-392.4265 395.8427,-398.8396 395.8427,-398.8396"/>
</g>
<!-- A2 -->
<g id="node3" class="node">
<title>A2</title>
<polygon fill="none" stroke="#000000" points="1655.5,-224.2504 1655.5,-268.2504 1894.5,-268.2504 1894.5,-224.2504 1655.5,-224.2504"/>
<text text-anchor="start" x="1744.151" y="-249.2504" font-family="Helvetica,sans-Serif" font-size="10.00" fill="#000000">&lt;&lt;interface&gt;&gt;</text>
<text text-anchor="start" x="1732.2175" y="-237.2504" font-family="Helvetica,sans-Serif" font-size="10.00" fill="#000000">RegistroEstadistica</text>
<polygon fill="none" stroke="#000000" points="1655.5,-156.2504 1655.5,-224.2504 1894.5,-224.2504 1894.5,-156.2504 1655.5,-156.2504"/>
<text text-anchor="start" x="1675.401" y="-205.2504" font-family="Helvetica,sans-Serif" font-size="10.00" fill="#000000">+getEstadisticas():ValorEstadistica［*］</text>
<text text-anchor="start" x="1665.4055" y="-193.2504" font-family="Helvetica,sans-Serif" font-size="10.00" fill="#000000">+registrarEstadistica(estadistica:ValorEstadistica)</text>
<text text-anchor="start" x="1695.681" y="-181.2504" font-family="Helvetica,sans-Serif" font-size="10.00" fill="#000000">+comparar(participante:Participante</text>
<text text-anchor="start" x="1708.0425" y="-169.2504" font-family="Helvetica,sans-Serif" font-size="10.00" fill="#000000">estadistica:Estadistica):Entero</text>
</g>
<!-- A3 -->
<g id="node4" class="node">
<title>A3</title>
<polygon fill="none" stroke="#000000" points="1944.5,-255.2504 1944.5,-287.2504 2135.5,-287.2504 2135.5,-255.2504 1944.5,-255.2504"/>
<text text-anchor="start" x="1987.7745" y="-268.2504" font-family="Helvetica,sans-Serif" font-size="10.00" fill="#000000">RegistroEstadisticaImpl</text>
<polygon fill="none" stroke="#000000" points="1944.5,-223.2504 1944.5,-255.2504 2135.5,-255.2504 2135.5,-223.2504 1944.5,-223.2504"/>
<text text-anchor="start" x="1954.153" y="-236.2504" font-family="Helvetica,sans-Serif" font-size="10.00" fill="#000000">estadisticas:ValorEstadistica［*］</text>
<polygon fill="none" stroke="#000000" points="1944.5,-191.2504 1944.5,-223.2504 2135.5,-223.2504 2135.5,-191.2504 1944.5,-191.2504"/>
<text text-anchor="start" x="2007.916" y="-204.2504" font-family="Helvetica,sans-Serif" font-size="10.00" fill="#000000">+Constructor()</text>
</g>
<!-- A2&#45;&gt;A3 -->
<g id="edge18" class="edge">
<title>A2&#45;&gt;A3</title>
<path fill="none" stroke="#000000" d="M1904.3459,-225.4799C1917.6241,-226.8328 1930.9379,-228.1893 1943.7536,-229.4951"/>
<polygon fill="none" stroke="#000000" points="1904.511,-221.9787 1894.2077,-224.447 1903.8014,-228.9427 1904.511,-221.9787"/>
</g>
<!-- A2&#45;&gt;A4 -->
<g id="edge17" class="edge">
<title>A2&#45;&gt;A4</title>
<path fill="none" stroke="#000000" d="M1644.9469,-260.0608C1631.5756,-263.9453 1618.0929,-267.4464 1605,-270.2504 1309.0648,-333.6272 1226.8072,-328.76 925,-306.2504 908.8938,-305.0491 891.9509,-303.1767 875.3598,-300.9952"/>
<polygon fill="none" stroke="#000000" points="1646.0715,-263.3778 1654.6564,-257.1689 1644.0734,-256.6691 1646.0715,-263.3778"/>
</g>
<!-- A3JA9 -->
<!-- A3&#45;&gt;A3JA9 -->
<g id="edge10" class="edge">
<title>A3&#45;&gt;A3JA9</title>
<path fill="none" stroke="#000000" d="M2135.1646,-244.1466C2203.7908,-247.659 2285.4377,-251.8377 2292.9413,-252.2218"/>
<text text-anchor="middle" x="2153.6991" y="-233.6318" font-family="Helvetica,sans-Serif" font-size="10.00" fill="#000000">*</text>
</g>
<!-- A5 -->
<g id="node6" class="node">
<title>A5</title>
<polygon fill="none" stroke="#000000" points="967.5,-124.2504 967.5,-156.2504 1144.5,-156.2504 1144.5,-124.2504 967.5,-124.2504"/>
<text text-anchor="start" x="1040.438" y="-137.2504" font-family="Helvetica,sans-Serif" font-size="10.00" fill="#000000">Equipo</text>
<polygon fill="none" stroke="#000000" points="967.5,-92.2504 967.5,-124.2504 1144.5,-124.2504 1144.5,-92.2504 967.5,-92.2504"/>
<text text-anchor="start" x="1025.1605" y="-105.2504" font-family="Helvetica,sans-Serif" font-size="10.00" fill="#000000">nombre:Texto</text>
<polygon fill="none" stroke="#000000" points="967.5,-.2504 967.5,-92.2504 1144.5,-92.2504 1144.5,-.2504 967.5,-.2504"/>
<text text-anchor="start" x="994.741" y="-73.2504" font-family="Helvetica,sans-Serif" font-size="10.00" fill="#000000">+Constructor(nombre:Texto</text>
<text text-anchor="start" x="1003.485" y="-61.2504" font-family="Helvetica,sans-Serif" font-size="10.00" fill="#000000">representante:Persona)</text>
<text text-anchor="start" x="1011.1335" y="-49.2504" font-family="Helvetica,sans-Serif" font-size="10.00" fill="#000000">+getNombre():Texto</text>
<text text-anchor="start" x="990.0075" y="-37.2504" font-family="Helvetica,sans-Serif" font-size="10.00" fill="#000000">+getRepresentante():Persona</text>
<text text-anchor="start" x="977.507" y="-25.2504" font-family="Helvetica,sans-Serif" font-size="10.00" fill="#000000">+getJugadores():Jugador［*］</text>
<text text-anchor="start" x="977.2355" y="-13.2504" font-family="Helvetica,sans-Serif" font-size="10.00" fill="#000000">+registrarJugador(jugador:Jugador)</text>
</g>
<!-- A4&#45;&gt;A5 -->
<g id="edge9" class="edge">
<title>A4&#45;&gt;A5</title>
<path fill="none" stroke="#000000" d="M835.9321,-232.4392C875.3605,-204.7511 924.7892,-170.0404 966.76,-140.5669"/>
<polygon fill="none" stroke="#000000" points="833.8488,-229.6253 827.6765,-238.2366 837.8717,-235.3539 833.8488,-229.6253"/>
</g>
<!-- A7 -->
<g id="node8" class="node">
<title>A7</title>
<polygon fill="none" stroke="#000000" points="1428.5,-229.2504 1428.5,-261.2504 1605.5,-261.2504 1605.5,-229.2504 1428.5,-229.2504"/>
<text text-anchor="start" x="1498.938" y="-242.2504" font-family="Helvetica,sans-Serif" font-size="10.00" fill="#000000">Jugador</text>
<polygon fill="none" stroke="#000000" points="1428.5,-197.2504 1428.5,-229.2504 1605.5,-229.2504 1605.5,-197.2504 1428.5,-197.2504"/>
<text text-anchor="start" x="1464.489" y="-210.2504" font-family="Helvetica,sans-Serif" font-size="10.00" fill="#000000">fechaNacimiento:Fecha</text>
<polygon fill="none" stroke="#000000" points="1428.5,-93.2504 1428.5,-197.2504 1605.5,-197.2504 1605.5,-93.2504 1428.5,-93.2504"/>
<text text-anchor="start" x="1455.741" y="-178.2504" font-family="Helvetica,sans-Serif" font-size="10.00" fill="#000000">+Constructor(nombre:Texto</text>
<text text-anchor="start" x="1485.8815" y="-166.2504" font-family="Helvetica,sans-Serif" font-size="10.00" fill="#000000">apellido:Texto</text>
<text text-anchor="start" x="1491.165" y="-154.2504" font-family="Helvetica,sans-Serif" font-size="10.00" fill="#000000">email:Texto</text>
<text text-anchor="start" x="1488.3855" y="-142.2504" font-family="Helvetica,sans-Serif" font-size="10.00" fill="#000000">celular:Texto</text>
<text text-anchor="start" x="1462.8245" y="-130.2504" font-family="Helvetica,sans-Serif" font-size="10.00" fill="#000000">fechaNacimiento:Fecha)</text>
<text text-anchor="start" x="1449.627" y="-118.2504" font-family="Helvetica,sans-Serif" font-size="10.00" fill="#000000">+getFechaNacimiento():Fecha</text>
<text text-anchor="start" x="1438.2295" y="-106.2504" font-family="Helvetica,sans-Serif" font-size="10.00" fill="#000000">+calcularEdad(fecha:Fecha):Entero</text>
</g>
<!-- A4&#45;&gt;A7 -->
<g id="edge8" class="edge">
<title>A4&#45;&gt;A7</title>
<path fill="none" stroke="#000000" d="M885.2069,-296.5973C1010.9886,-307.4772 1212.7666,-313.1578 1378,-263.2504 1394.9341,-258.1355 1411.8549,-250.3922 1427.7594,-241.6087"/>
<polygon fill="none" stroke="#000000" points="885.4283,-293.1032 875.1574,-295.7029 884.8077,-300.0757 885.4283,-293.1032"/>
</g>
<!-- A5&#45;&gt;A2 -->
<g id="edge20" class="edge">
<title>A5&#45;&gt;A2</title>
<path fill="none" stroke="#000000" d="M1144.015,-36.4294C1172.7062,-24.926 1205.11,-14.0304 1236,-8.2504 1298.0345,3.3573 1315.7105,1.9001 1378,-8.2504 1483.0081,-25.362 1510.8734,-34.6552 1605,-84.2504 1639.144,-102.2408 1673.7003,-126.9153 1702.6249,-149.8016"/>
<polygon fill="#000000" stroke="#000000" points="1710.6288,-156.2022 1700.0084,-153.4711 1706.7238,-153.0794 1702.8189,-149.9567 1702.8189,-149.9567 1702.8189,-149.9567 1706.7238,-153.0794 1705.6294,-146.4422 1710.6288,-156.2022 1710.6288,-156.2022"/>
</g>
<!-- A6 -->
<g id="node7" class="node">
<title>A6</title>
<polygon fill="none" stroke="#000000" points="1236,-222.2504 1236,-254.2504 1378,-254.2504 1378,-222.2504 1236,-222.2504"/>
<text text-anchor="start" x="1288.383" y="-235.2504" font-family="Helvetica,sans-Serif" font-size="10.00" fill="#000000">Persona</text>
<polygon fill="none" stroke="#000000" points="1236,-154.2504 1236,-222.2504 1378,-222.2504 1378,-154.2504 1236,-154.2504"/>
<text text-anchor="start" x="1276.1605" y="-203.2504" font-family="Helvetica,sans-Serif" font-size="10.00" fill="#000000">nombre:Texto</text>
<text text-anchor="start" x="1275.8815" y="-191.2504" font-family="Helvetica,sans-Serif" font-size="10.00" fill="#000000">apellido:Texto</text>
<text text-anchor="start" x="1281.165" y="-179.2504" font-family="Helvetica,sans-Serif" font-size="10.00" fill="#000000">email:Texto</text>
<text text-anchor="start" x="1278.3855" y="-167.2504" font-family="Helvetica,sans-Serif" font-size="10.00" fill="#000000">celular:Texto</text>
<polygon fill="none" stroke="#000000" points="1236,-38.2504 1236,-154.2504 1378,-154.2504 1378,-38.2504 1236,-38.2504"/>
<text text-anchor="start" x="1245.741" y="-135.2504" font-family="Helvetica,sans-Serif" font-size="10.00" fill="#000000">+Constructor(nombre:Texto</text>
<text text-anchor="start" x="1275.8815" y="-123.2504" font-family="Helvetica,sans-Serif" font-size="10.00" fill="#000000">apellido:Texto</text>
<text text-anchor="start" x="1281.165" y="-111.2504" font-family="Helvetica,sans-Serif" font-size="10.00" fill="#000000">email:Texto</text>
<text text-anchor="start" x="1276.721" y="-99.2504" font-family="Helvetica,sans-Serif" font-size="10.00" fill="#000000">celular:Texto)</text>
<text text-anchor="start" x="1262.1335" y="-87.2504" font-family="Helvetica,sans-Serif" font-size="10.00" fill="#000000">+getNombre():Texto</text>
<text text-anchor="start" x="1262.1295" y="-75.2504" font-family="Helvetica,sans-Serif" font-size="10.00" fill="#000000">+getApellido():Texto</text>
<text text-anchor="start" x="1267.413" y="-63.2504" font-family="Helvetica,sans-Serif" font-size="10.00" fill="#000000">+getEmail():Texto</text>
<text text-anchor="start" x="1264.079" y="-51.2504" font-family="Helvetica,sans-Serif" font-size="10.00" fill="#000000">+getCelular():Texto</text>
</g>
<!-- A5&#45;&gt;A6 -->
<g id="edge5" class="edge">
<title>A5&#45;&gt;A6</title>
<path fill="none" stroke="#000000" d="M1155.9014,-105.3967C1179.1587,-111.6849 1203.6229,-118.2995 1225.9307,-124.331"/>
<polygon fill="none" stroke="#000000" points="1155.7535,-105.3568 1148.9175,-107.652 1144.1695,-102.2246 1151.0056,-99.9293 1155.7535,-105.3568"/>
<polygon fill="#000000" stroke="#000000" points="1235.6816,-126.9675 1224.8537,-128.7014 1230.855,-125.6624 1226.0283,-124.3573 1226.0283,-124.3573 1226.0283,-124.3573 1230.855,-125.6624 1227.2028,-120.0133 1235.6816,-126.9675 1235.6816,-126.9675"/>
<text text-anchor="middle" x="1215.9777" y="-127.3958" font-family="Helvetica,sans-Serif" font-size="10.00" fill="#000000">representante1</text>
<text text-anchor="middle" x="1163.8735" y="-95.7963" font-family="Helvetica,sans-Serif" font-size="10.00" fill="#000000">1</text>
</g>
<!-- A5&#45;&gt;A7 -->
<g id="edge7" class="edge">
<title>A5&#45;&gt;A7</title>
<path fill="none" stroke="#000000" d="M1155.6441,-35.655C1221.2386,-14.2553 1307.545,1.3107 1378,-29.2504 1406.2802,-41.5174 1431.423,-62.7181 1452.2644,-85.3024"/>
<polygon fill="none" stroke="#000000" points="1155.4309,-35.7269 1151.025,-41.4355 1144.0609,-39.564 1148.4669,-33.8555 1155.4309,-35.7269"/>
<polygon fill="#000000" stroke="#000000" points="1459.1658,-93.0035 1449.1407,-88.5595 1455.8289,-89.2799 1452.492,-85.5563 1452.492,-85.5563 1452.492,-85.5563 1455.8289,-89.2799 1455.8432,-82.5531 1459.1658,-93.0035 1459.1658,-93.0035"/>
<text text-anchor="middle" x="1440.7741" y="-82.1456" font-family="Helvetica,sans-Serif" font-size="10.00" fill="#000000">jugador*</text>
<text text-anchor="middle" x="1158.5328" y="-22.7595" font-family="Helvetica,sans-Serif" font-size="10.00" fill="#000000">1</text>
</g>
<!-- A6&#45;&gt;A7 -->
<g id="edge6" class="edge">
<title>A6&#45;&gt;A7</title>
<path fill="none" stroke="#000000" d="M1388.4161,-158.2976C1401.2824,-160.2015 1414.6436,-162.1785 1427.6686,-164.1059"/>
<polygon fill="none" stroke="#000000" points="1388.6241,-154.7904 1378.2195,-156.7888 1387.5994,-161.715 1388.6241,-154.7904"/>
</g>
<!-- A7&#45;&gt;A2 -->
<g id="edge19" class="edge">
<title>A7&#45;&gt;A2</title>
<path fill="none" stroke="#000000" d="M1605.289,-189.2954C1617.9498,-191.0129 1631.1848,-192.8084 1644.4347,-194.6059"/>
<polygon fill="#000000" stroke="#000000" points="1654.5607,-195.9795 1644.0465,-199.0943 1649.6061,-195.3074 1644.6515,-194.6352 1644.6515,-194.6352 1644.6515,-194.6352 1649.6061,-195.3074 1645.2565,-190.176 1654.5607,-195.9795 1654.5607,-195.9795"/>
</g>
<!-- A9 -->
<g id="node10" class="node">
<title>A9</title>
<polygon fill="none" stroke="#000000" points="2452,-286.2504 2452,-318.2504 2594,-318.2504 2594,-286.2504 2452,-286.2504"/>
<text text-anchor="start" x="2498.829" y="-299.2504" font-family="Helvetica,sans-Serif" font-size="10.00" fill="#000000">Estadistica</text>
<polygon fill="none" stroke="#000000" points="2452,-254.2504 2452,-286.2504 2594,-286.2504 2594,-254.2504 2452,-254.2504"/>
<text text-anchor="start" x="2492.1605" y="-267.2504" font-family="Helvetica,sans-Serif" font-size="10.00" fill="#000000">nombre:Texto</text>
<polygon fill="none" stroke="#000000" points="2452,-186.2504 2452,-254.2504 2594,-254.2504 2594,-186.2504 2452,-186.2504"/>
<text text-anchor="start" x="2461.741" y="-235.2504" font-family="Helvetica,sans-Serif" font-size="10.00" fill="#000000">+Constructor(nombre:Texto</text>
<text text-anchor="start" x="2477.994" y="-223.2504" font-family="Helvetica,sans-Serif" font-size="10.00" fill="#000000">tipo:TipoEstadistica)</text>
<text text-anchor="start" x="2478.1335" y="-211.2504" font-family="Helvetica,sans-Serif" font-size="10.00" fill="#000000">+getNombre():Texto</text>
<text text-anchor="start" x="2464.7965" y="-199.2504" font-family="Helvetica,sans-Serif" font-size="10.00" fill="#000000">+getTipo():TipoEstadistica</text>
</g>
<!-- A13 -->
<g id="node14" class="node">
<title>A13</title>
<polygon fill="none" stroke="#000000" points="2644.5,-258.2504 2644.5,-302.2504 2731.5,-302.2504 2731.5,-258.2504 2644.5,-258.2504"/>
<text text-anchor="start" x="2663.264" y="-283.2504" font-family="Helvetica,sans-Serif" font-size="10.00" fill="#000000">&lt;&lt;Enum&gt;&gt;</text>
<text text-anchor="start" x="2654.106" y="-271.2504" font-family="Helvetica,sans-Serif" font-size="10.00" fill="#000000">TipoEstadistica</text>
<polygon fill="none" stroke="#000000" points="2644.5,-202.2504 2644.5,-258.2504 2731.5,-258.2504 2731.5,-202.2504 2644.5,-202.2504"/>
<text text-anchor="start" x="2664.939" y="-239.2504" font-family="Helvetica,sans-Serif" font-size="10.00" fill="#000000">POSITIVA</text>
<text text-anchor="start" x="2662.719" y="-227.2504" font-family="Helvetica,sans-Serif" font-size="10.00" fill="#000000">NEGATIVA</text>
<text text-anchor="start" x="2667.448" y="-215.2504" font-family="Helvetica,sans-Serif" font-size="10.00" fill="#000000">NEUTRA</text>
</g>
<!-- A9&#45;&gt;A13 -->
<g id="edge13" class="edge">
<title>A9&#45;&gt;A13</title>
<path fill="none" stroke="#000000" d="M2594.1954,-252.2504C2607.3558,-252.2504 2620.9009,-252.2504 2633.4496,-252.2504"/>
<polygon fill="#000000" stroke="#000000" points="2643.7259,-252.2504 2633.7259,-256.7505 2638.7259,-252.2504 2633.7259,-252.2505 2633.7259,-252.2505 2633.7259,-252.2505 2638.7259,-252.2504 2633.7258,-247.7505 2643.7259,-252.2504 2643.7259,-252.2504"/>
<text text-anchor="middle" x="2625.5997" y="-257.7027" font-family="Helvetica,sans-Serif" font-size="10.00" fill="#000000">tipo1</text>
<text text-anchor="middle" x="2612.3215" y="-240.798" font-family="Helvetica,sans-Serif" font-size="10.00" fill="#000000">*</text>
</g>
<!-- A10 -->
<g id="node11" class="node">
<title>A10</title>
<polygon fill="none" stroke="#000000" points="2185.5,-401.2504 2185.5,-433.2504 2402.5,-433.2504 2402.5,-401.2504 2185.5,-401.2504"/>
<text text-anchor="start" x="2258.1615" y="-414.2504" font-family="Helvetica,sans-Serif" font-size="10.00" fill="#000000">ValorEstadistica</text>
<polygon fill="none" stroke="#000000" points="2185.5,-357.2504 2185.5,-401.2504 2402.5,-401.2504 2402.5,-357.2504 2185.5,-357.2504"/>
<text text-anchor="start" x="2271.4995" y="-382.2504" font-family="Helvetica,sans-Serif" font-size="10.00" fill="#000000">valor:Real</text>
<text text-anchor="start" x="2244.8235" y="-370.2504" font-family="Helvetica,sans-Serif" font-size="10.00" fill="#000000">estadistica:Estadistica</text>
<polygon fill="none" stroke="#000000" points="2185.5,-277.2504 2185.5,-357.2504 2402.5,-357.2504 2402.5,-277.2504 2185.5,-277.2504"/>
<text text-anchor="start" x="2241.08" y="-338.2504" font-family="Helvetica,sans-Serif" font-size="10.00" fill="#000000">+Constructor(valor:Real</text>
<text text-anchor="start" x="2243.159" y="-326.2504" font-family="Helvetica,sans-Serif" font-size="10.00" fill="#000000">estadistica:Estadistica)</text>
<text text-anchor="start" x="2257.468" y="-314.2504" font-family="Helvetica,sans-Serif" font-size="10.00" fill="#000000">+getValor():Real</text>
<text text-anchor="start" x="2231.0715" y="-302.2504" font-family="Helvetica,sans-Serif" font-size="10.00" fill="#000000">+getEstadistica():Estadistica</text>
<text text-anchor="start" x="2195.379" y="-290.2504" font-family="Helvetica,sans-Serif" font-size="10.00" fill="#000000">compareTo(registro:ValorEstadistica):Entero</text>
</g>
<!-- A10&#45;&gt;A3JA9 -->
<g id="edge12" class="edge">
<title>A10&#45;&gt;A3JA9</title>
<path fill="none" stroke="#000000" stroke-dasharray="5,2" d="M2293.5,-277.0998C2293.5,-272.3886 2293.5,-267.6775 2293.5,-262.9663"/>
<polygon fill="#000000" stroke="#000000" points="2293.5,-252.6527 2298.0001,-262.6527 2293.5,-257.6527 2293.5001,-262.6527 2293.5001,-262.6527 2293.5001,-262.6527 2293.5,-257.6527 2289.0001,-262.6528 2293.5,-252.6527 2293.5,-252.6527"/>
</g>
<!-- A11&#45;&gt;A4 -->
<g id="edge16" class="edge">
<title>A11&#45;&gt;A4</title>
<path fill="none" stroke="#000000" d="M615.9442,-360.0186C634.3757,-350.4022 653.2499,-340.5548 671.1033,-331.2399"/>
<polygon fill="none" stroke="#000000" points="615.6764,-360.1583 612.2072,-366.48 605.0374,-365.7091 608.5066,-359.3873 615.6764,-360.1583"/>
<polygon fill="#000000" stroke="#000000" points="680.3387,-326.4215 673.5544,-335.0368 675.9058,-328.7343 671.4728,-331.0472 671.4728,-331.0472 671.4728,-331.0472 675.9058,-328.7343 669.3913,-327.0576 680.3387,-326.4215 680.3387,-326.4215"/>
<text text-anchor="middle" x="668.1781" y="-339.2998" font-family="Helvetica,sans-Serif" font-size="10.00" fill="#000000">2</text>
<text text-anchor="middle" x="617.198" y="-346.8308" font-family="Helvetica,sans-Serif" font-size="10.00" fill="#000000">*</text>
</g>
<!-- A12 -->
<g id="node13" class="node">
<title>A12</title>
<polygon fill="none" stroke="#000000" points="925.5,-460.2504 925.5,-492.2504 1186.5,-492.2504 1186.5,-460.2504 925.5,-460.2504"/>
<text text-anchor="start" x="1019.607" y="-473.2504" font-family="Helvetica,sans-Serif" font-size="10.00" fill="#000000">RegistroReporte</text>
<polygon fill="none" stroke="#000000" points="925.5,-416.2504 925.5,-460.2504 1186.5,-460.2504 1186.5,-416.2504 925.5,-416.2504"/>
<text text-anchor="start" x="965.427" y="-441.2504" font-family="Helvetica,sans-Serif" font-size="10.00" fill="#000000">estadisticaParticipanteA:ValorEstadistica</text>
<text text-anchor="start" x="965.427" y="-429.2504" font-family="Helvetica,sans-Serif" font-size="10.00" fill="#000000">estadisticaParticipanteB:ValorEstadistica</text>
<polygon fill="none" stroke="#000000" points="925.5,-348.2504 925.5,-416.2504 1186.5,-416.2504 1186.5,-348.2504 925.5,-348.2504"/>
<text text-anchor="start" x="935.0075" y="-397.2504" font-family="Helvetica,sans-Serif" font-size="10.00" fill="#000000">+Constructor(estadisticaParticipanteA:ValorEstadistica</text>
<text text-anchor="start" x="963.7625" y="-385.2504" font-family="Helvetica,sans-Serif" font-size="10.00" fill="#000000">estadisticaParticipanteB:ValorEstadistica)</text>
<text text-anchor="start" x="945.0105" y="-373.2504" font-family="Helvetica,sans-Serif" font-size="10.00" fill="#000000">+getEstadisticaParticianteA():ResgistroEstadistica</text>
<text text-anchor="start" x="945.0105" y="-361.2504" font-family="Helvetica,sans-Serif" font-size="10.00" fill="#000000">+getEstadisticaParticianteB():ResgistroEstadistica</text>
</g>
<!-- A11&#45;&gt;A12 -->
<g id="edge14" class="edge">
<title>A11&#45;&gt;A12</title>
<path fill="none" stroke="#000000" d="M617.3954,-420.2504C704.0833,-420.2504 822.6563,-420.2504 914.5864,-420.2504"/>
<polygon fill="none" stroke="#000000" points="617.2173,-420.2505 611.2173,-424.2504 605.2173,-420.2504 611.2173,-416.2504 617.2173,-420.2505"/>
<polygon fill="#000000" stroke="#000000" points="924.8096,-420.2504 914.8096,-424.7505 919.8096,-420.2504 914.8096,-420.2505 914.8096,-420.2505 914.8096,-420.2505 919.8096,-420.2504 914.8095,-415.7505 924.8096,-420.2504 924.8096,-420.2504"/>
<text text-anchor="middle" x="906.6834" y="-425.7027" font-family="Helvetica,sans-Serif" font-size="10.00" fill="#000000">registros*</text>
<text text-anchor="middle" x="623.3435" y="-408.798" font-family="Helvetica,sans-Serif" font-size="10.00" fill="#000000">1</text>
</g>
<!-- A12&#45;&gt;A10 -->
<g id="edge15" class="edge">
<title>A12&#45;&gt;A10</title>
<path fill="none" stroke="#000000" d="M1198.5591,-405.6631C1289.5017,-397.6211 1409.7915,-389.2504 1516.5,-389.2504 1516.5,-389.2504 1516.5,-389.2504 1774.5,-389.2504 1912.0552,-389.2504 2069.6801,-377.211 2174.781,-367.4606"/>
<polygon fill="none" stroke="#000000" points="1198.4432,-405.6733 1192.8238,-410.1925 1186.491,-406.7435 1192.1104,-402.2244 1198.4432,-405.6733"/>
<polygon fill="#000000" stroke="#000000" points="2184.7856,-366.5246 2175.2483,-371.9366 2179.8073,-366.9904 2174.8291,-367.4562 2174.8291,-367.4562 2174.8291,-367.4562 2179.8073,-366.9904 2174.4099,-362.9758 2184.7856,-366.5246 2184.7856,-366.5246"/>
<text text-anchor="middle" x="2167.5256" y="-373.6286" font-family="Helvetica,sans-Serif" font-size="10.00" fill="#000000">2</text>
<text text-anchor="middle" x="1203.7913" y="-393.7085" font-family="Helvetica,sans-Serif" font-size="10.00" fill="#000000">*</text>
</g>
<!-- A3JA9&#45;&gt;A9 -->
<g id="edge11" class="edge">
<title>A3JA9&#45;&gt;A9</title>
<path fill="none" stroke="#000000" d="M2294.1584,-252.2504C2302.0284,-252.2504 2378.9152,-252.2504 2441.4288,-252.2504"/>
<polygon fill="#000000" stroke="#000000" points="2451.7212,-252.2504 2441.7213,-256.7505 2446.7212,-252.2504 2441.7212,-252.2505 2441.7212,-252.2505 2441.7212,-252.2505 2446.7212,-252.2504 2441.7212,-247.7505 2451.7212,-252.2504 2451.7212,-252.2504"/>
<text text-anchor="middle" x="2433.5951" y="-257.7027" font-family="Helvetica,sans-Serif" font-size="10.00" fill="#000000">*</text>
</g>
</g>
</svg>
