<?xml version="1.0" encoding="UTF-8" standalone="no"?>
<!DOCTYPE svg PUBLIC "-//W3C//DTD SVG 1.1//EN"
 "http://www.w3.org/Graphics/SVG/1.1/DTD/svg11.dtd">
<!-- Generated by graphviz version 2.40.1 (20161225.0304)
 -->
<!-- Title: G Pages: 1 -->
<svg width="1902pt" height="428pt"
 viewBox="0.00 0.00 1902.26 428.00" xmlns="http://www.w3.org/2000/svg" xmlns:xlink="http://www.w3.org/1999/xlink">
<g id="graph0" class="graph" transform="scale(1 1) rotate(0) translate(4 424)">
<title>G</title>
<polygon fill="#ffffff" stroke="transparent" points="-4,4 -4,-424 1898.263,-424 1898.263,4 -4,4"/>
<!-- A0 -->
<g id="node1" class="node">
<title>A0</title>
<polygon fill="none" stroke="#000000" points=".5,-388 .5,-420 341.5,-420 341.5,-388 .5,-388"/>
<text text-anchor="start" x="155.163" y="-401" font-family="Helvetica,sans-Serif" font-size="10.00" fill="#000000">Torneo</text>
<polygon fill="none" stroke="#000000" points=".5,-284 .5,-388 341.5,-388 341.5,-284 .5,-284"/>
<text text-anchor="start" x="140.1605" y="-369" font-family="Helvetica,sans-Serif" font-size="10.00" fill="#000000">nombre:Texto</text>
<text text-anchor="start" x="131.822" y="-357" font-family="Helvetica,sans-Serif" font-size="10.00" fill="#000000">fechaInicio:Fecha</text>
<text text-anchor="start" x="102.6515" y="-345" font-family="Helvetica,sans-Serif" font-size="10.00" fill="#000000">fechaInicioInscripciones:Fecha</text>
<text text-anchor="start" x="100.712" y="-333" font-family="Helvetica,sans-Serif" font-size="10.00" fill="#000000">fechaCierreInscripciones:Fecha</text>
<text text-anchor="start" x="109.042" y="-321" font-family="Helvetica,sans-Serif" font-size="10.00" fill="#000000">numeroParticipantes:Entero</text>
<text text-anchor="start" x="131.5485" y="-309" font-family="Helvetica,sans-Serif" font-size="10.00" fill="#000000">limiteEdad:Entero</text>
<text text-anchor="start" x="120.1595" y="-297" font-family="Helvetica,sans-Serif" font-size="10.00" fill="#000000">valorInscripcion:Entero</text>
<polygon fill="none" stroke="#000000" points=".5,0 .5,-284 341.5,-284 341.5,0 .5,0"/>
<text text-anchor="start" x="109.741" y="-265" font-family="Helvetica,sans-Serif" font-size="10.00" fill="#000000">+Constructor(nombre:Texto</text>
<text text-anchor="start" x="131.822" y="-253" font-family="Helvetica,sans-Serif" font-size="10.00" fill="#000000">fechaInicio:Fecha</text>
<text text-anchor="start" x="102.6515" y="-241" font-family="Helvetica,sans-Serif" font-size="10.00" fill="#000000">fechaInicioInscripciones:Fecha</text>
<text text-anchor="start" x="100.712" y="-229" font-family="Helvetica,sans-Serif" font-size="10.00" fill="#000000">fechaCierreInscripciones:Fecha</text>
<text text-anchor="start" x="109.042" y="-217" font-family="Helvetica,sans-Serif" font-size="10.00" fill="#000000">numeroParticipantes:Entero</text>
<text text-anchor="start" x="131.5485" y="-205" font-family="Helvetica,sans-Serif" font-size="10.00" fill="#000000">limiteEdad:Entero</text>
<text text-anchor="start" x="120.1595" y="-193" font-family="Helvetica,sans-Serif" font-size="10.00" fill="#000000">valorInscripcion:Entero</text>
<text text-anchor="start" x="120.1555" y="-181" font-family="Helvetica,sans-Serif" font-size="10.00" fill="#000000">tipoTorneo:TipoTorneo</text>
<text text-anchor="start" x="10.288" y="-169" font-family="Helvetica,sans-Serif" font-size="10.00" fill="#000000">caracter:CaracterTorneo)+registrarParticipante(participante:Participante)</text>
<text text-anchor="start" x="126.1335" y="-157" font-family="Helvetica,sans-Serif" font-size="10.00" fill="#000000">+getNombre():Texto</text>
<text text-anchor="start" x="116.96" y="-145" font-family="Helvetica,sans-Serif" font-size="10.00" fill="#000000">+getFechaInicio():Fecha</text>
<text text-anchor="start" x="87.7895" y="-133" font-family="Helvetica,sans-Serif" font-size="10.00" fill="#000000">+getFechaInicioInscripciones():Fecha</text>
<text text-anchor="start" x="85.85" y="-121" font-family="Helvetica,sans-Serif" font-size="10.00" fill="#000000">+getFechaCierreInscripciones():Fecha</text>
<text text-anchor="start" x="95.015" y="-109" font-family="Helvetica,sans-Serif" font-size="10.00" fill="#000000">+getNumeroParticipantes():Entero</text>
<text text-anchor="start" x="116.6815" y="-97" font-family="Helvetica,sans-Serif" font-size="10.00" fill="#000000">+getLimiteEdad():Entero</text>
<text text-anchor="start" x="106.128" y="-85" font-family="Helvetica,sans-Serif" font-size="10.00" fill="#000000">+getValorInscripcion():Entero</text>
<text text-anchor="start" x="105.2935" y="-73" font-family="Helvetica,sans-Serif" font-size="10.00" fill="#000000">+getTipoTorneo():TipoTorneo</text>
<text text-anchor="start" x="78.6215" y="-61" font-family="Helvetica,sans-Serif" font-size="10.00" fill="#000000">+getParticipantes():Participante［*］</text>
<text text-anchor="start" x="102.2435" y="-49" font-family="Helvetica,sans-Serif" font-size="10.00" fill="#000000">+getCaracter():CaracterTorneo</text>
<text text-anchor="start" x="93.344" y="-37" font-family="Helvetica,sans-Serif" font-size="10.00" fill="#000000">+setFechaInicio(fechaInicio:Fecha)</text>
<text text-anchor="start" x="35.003" y="-25" font-family="Helvetica,sans-Serif" font-size="10.00" fill="#000000">+setFechaInicioInscripciones(fechaInicioInscripciones:Fecha)</text>
<text text-anchor="start" x="31.124" y="-13" font-family="Helvetica,sans-Serif" font-size="10.00" fill="#000000">+setFechaCierreInscripciones(fechaCierreInscripciones:Fecha)</text>
</g>
<!-- A1 -->
<g id="node2" class="node">
<title>A1</title>
<polygon fill="none" stroke="#000000" points="422.5,-342 422.5,-386 493.5,-386 493.5,-342 422.5,-342"/>
<text text-anchor="start" x="433.264" y="-367" font-family="Helvetica,sans-Serif" font-size="10.00" fill="#000000">&lt;&lt;Enum&gt;&gt;</text>
<text text-anchor="start" x="432.44" y="-355" font-family="Helvetica,sans-Serif" font-size="10.00" fill="#000000">TipoTorneo</text>
<polygon fill="none" stroke="#000000" points="422.5,-274 422.5,-342 493.5,-342 493.5,-274 422.5,-274"/>
<text text-anchor="start" x="441.6075" y="-323" font-family="Helvetica,sans-Serif" font-size="10.00" fill="#000000">LOCAL</text>
<text text-anchor="start" x="432.164" y="-311" font-family="Helvetica,sans-Serif" font-size="10.00" fill="#000000">REGIONAL</text>
<text text-anchor="start" x="432.444" y="-299" font-family="Helvetica,sans-Serif" font-size="10.00" fill="#000000">NACIONAL</text>
<text text-anchor="start" x="435.5035" y="-287" font-family="Helvetica,sans-Serif" font-size="10.00" fill="#000000">MUNDIAL</text>
</g>
<!-- A0&#45;&gt;A1 -->
<g id="edge3" class="edge">
<title>A0&#45;&gt;A1</title>
<path fill="none" stroke="#000000" d="M341.1799,-281.3644C367.4553,-292.3506 392.4687,-302.8092 412.5205,-311.1932"/>
<polygon fill="#000000" stroke="#000000" points="421.9493,-315.1356 410.9874,-315.4297 417.3363,-313.2068 412.7233,-311.278 412.7233,-311.278 412.7233,-311.278 417.3363,-313.2068 414.4593,-307.1263 421.9493,-315.1356 421.9493,-315.1356"/>
<text text-anchor="middle" x="401.9656" y="-312.9415" font-family="Helvetica,sans-Serif" font-size="10.00" fill="#000000">tipoTorneo1</text>
<text text-anchor="middle" x="361.1636" y="-277.5585" font-family="Helvetica,sans-Serif" font-size="10.00" fill="#000000">*</text>
</g>
<!-- A4 -->
<g id="node5" class="node">
<title>A4</title>
<polygon fill="none" stroke="#000000" points="663.5475,-264 574.1505,-264 574.1505,-228 663.5475,-228 663.5475,-264"/>
<text text-anchor="middle" x="618.849" y="-249" font-family="Helvetica,sans-Serif" font-size="10.00" fill="#000000">&lt;&lt;interface&gt;&gt;</text>
<text text-anchor="middle" x="618.849" y="-237" font-family="Helvetica,sans-Serif" font-size="10.00" fill="#000000">Participante</text>
</g>
<!-- A0&#45;&gt;A4 -->
<g id="edge4" class="edge">
<title>A0&#45;&gt;A4</title>
<path fill="none" stroke="#000000" d="M353.6392,-224.7051C429.2615,-230.7771 511.334,-237.3671 563.8333,-241.5825"/>
<polygon fill="none" stroke="#000000" points="353.242,-224.6733 346.9411,-228.1802 341.2805,-223.7128 347.5815,-220.2059 353.242,-224.6733"/>
<polygon fill="#000000" stroke="#000000" points="573.9281,-242.3931 563.6,-246.0782 568.9442,-241.9929 563.9602,-241.5926 563.9602,-241.5926 563.9602,-241.5926 568.9442,-241.9929 564.3204,-237.1071 573.9281,-242.3931 573.9281,-242.3931"/>
<text text-anchor="middle" x="555.1836" y="-246.3676" font-family="Helvetica,sans-Serif" font-size="10.00" fill="#000000">participantes*</text>
<text text-anchor="middle" x="360.025" y="-213.7383" font-family="Helvetica,sans-Serif" font-size="10.00" fill="#000000">1</text>
</g>
<!-- A8 -->
<g id="node9" class="node">
<title>A8</title>
<polygon fill="none" stroke="#000000" points="412.5,-68 412.5,-112 502.5,-112 502.5,-68 412.5,-68"/>
<text text-anchor="start" x="432.764" y="-93" font-family="Helvetica,sans-Serif" font-size="10.00" fill="#000000">&lt;&lt;Enum&gt;&gt;</text>
<text text-anchor="start" x="422.4965" y="-81" font-family="Helvetica,sans-Serif" font-size="10.00" fill="#000000">CaracterTorneo</text>
<polygon fill="none" stroke="#000000" points="412.5,-24 412.5,-68 502.5,-68 502.5,-24 412.5,-24"/>
<text text-anchor="start" x="429.445" y="-49" font-family="Helvetica,sans-Serif" font-size="10.00" fill="#000000">INDIVIDUAL</text>
<text text-anchor="start" x="436.943" y="-37" font-family="Helvetica,sans-Serif" font-size="10.00" fill="#000000">GRUPAL</text>
</g>
<!-- A0&#45;&gt;A8 -->
<g id="edge2" class="edge">
<title>A0&#45;&gt;A8</title>
<path fill="none" stroke="#000000" d="M341.1799,-125.5521C363.6287,-114.445 385.1564,-103.7937 403.4556,-94.7397"/>
<polygon fill="#000000" stroke="#000000" points="412.443,-90.293 405.4756,-98.761 407.9615,-92.5104 403.48,-94.7277 403.48,-94.7277 403.48,-94.7277 407.9615,-92.5104 401.4844,-90.6944 412.443,-90.293 412.443,-90.293"/>
<text text-anchor="middle" x="399.9449" y="-102.9071" font-family="Helvetica,sans-Serif" font-size="10.00" fill="#000000">caracter1</text>
<text text-anchor="middle" x="353.6779" y="-106.9381" font-family="Helvetica,sans-Serif" font-size="10.00" fill="#000000">*</text>
</g>
<!-- A11 -->
<g id="node12" class="node">
<title>A11</title>
<polygon fill="none" stroke="#000000" points="391.5,-186 391.5,-218 524.5,-218 524.5,-186 391.5,-186"/>
<text text-anchor="start" x="440.2185" y="-199" font-family="Helvetica,sans-Serif" font-size="10.00" fill="#000000">Reporte</text>
<polygon fill="none" stroke="#000000" points="391.5,-130 391.5,-186 524.5,-186 524.5,-130 391.5,-130"/>
<text text-anchor="start" x="430.4895" y="-167" font-family="Helvetica,sans-Serif" font-size="10.00" fill="#000000">fecha:Fecha</text>
<text text-anchor="start" x="401.042" y="-155" font-family="Helvetica,sans-Serif" font-size="10.00" fill="#000000">participanteA:Participante</text>
<text text-anchor="start" x="401.042" y="-143" font-family="Helvetica,sans-Serif" font-size="10.00" fill="#000000">participanteB:Participante</text>
</g>
<!-- A0&#45;&gt;A11 -->
<g id="edge1" class="edge">
<title>A0&#45;&gt;A11</title>
<path fill="none" stroke="#000000" stroke-dasharray="5,2" d="M341.1799,-188.5907C354.816,-186.8802 368.1122,-185.2124 380.5515,-183.6521"/>
<polygon fill="#000000" stroke="#000000" points="390.7875,-182.3681 381.4254,-188.0778 385.8264,-182.9905 380.8653,-183.6128 380.8653,-183.6128 380.8653,-183.6128 385.8264,-182.9905 380.3052,-179.1478 390.7875,-182.3681 390.7875,-182.3681"/>
</g>
<!-- A2 -->
<g id="node3" class="node">
<title>A2</title>
<polygon fill="none" stroke="#000000" points="1385.0463,-246 1271.9147,-246 1271.9147,-210 1385.0463,-210 1385.0463,-246"/>
<text text-anchor="middle" x="1328.4805" y="-231" font-family="Helvetica,sans-Serif" font-size="10.00" fill="#000000">&lt;&lt;interface&gt;&gt;</text>
<text text-anchor="middle" x="1328.4805" y="-219" font-family="Helvetica,sans-Serif" font-size="10.00" fill="#000000">RegistroEstadistica</text>
</g>
<!-- A3 -->
<g id="node4" class="node">
<title>A3</title>
<polygon fill="none" stroke="#000000" points="1435.763,-228 1435.763,-260 1626.763,-260 1626.763,-228 1435.763,-228"/>
<text text-anchor="start" x="1479.0375" y="-241" font-family="Helvetica,sans-Serif" font-size="10.00" fill="#000000">RegistroEstadisticaImpl</text>
<polygon fill="none" stroke="#000000" points="1435.763,-196 1435.763,-228 1626.763,-228 1626.763,-196 1435.763,-196"/>
<text text-anchor="start" x="1445.416" y="-209" font-family="Helvetica,sans-Serif" font-size="10.00" fill="#000000">estadisticas:ValorEstadistica［*］</text>
</g>
<!-- A2&#45;&gt;A3 -->
<g id="edge18" class="edge">
<title>A2&#45;&gt;A3</title>
<path fill="none" stroke="#000000" d="M1395.1491,-228C1407.9299,-228 1421.5449,-228 1435.0312,-228"/>
<polygon fill="none" stroke="#000000" points="1395.0965,-224.5001 1385.0964,-228 1395.0964,-231.5001 1395.0965,-224.5001"/>
</g>
<!-- A2&#45;&gt;A4 -->
<g id="edge17" class="edge">
<title>A2&#45;&gt;A4</title>
<path fill="none" stroke="#000000" d="M1306.6453,-253.6148C1286.7049,-275.3514 1255.2889,-305.6872 1221.698,-323 1150.7795,-359.5514 1125.9786,-354.0547 1046.698,-363 897.1038,-379.8788 853.2877,-357.374 713.698,-301 689.341,-291.1633 663.6818,-275.9494 645.2023,-264.0141"/>
<polygon fill="none" stroke="#000000" points="1309.3752,-255.8134 1313.4554,-246.0358 1304.1683,-251.1349 1309.3752,-255.8134"/>
</g>
<!-- A2JA9 -->
<!-- A2&#45;&gt;A2JA9 -->
<g id="edge10" class="edge">
<title>A2&#45;&gt;A2JA9</title>
<path fill="none" stroke="#000000" d="M1335.9898,-209.8849C1350.1543,-178.2926 1384.0676,-113.7494 1435.263,-85 1470.1121,-65.4301 1523.5547,-74.6436 1530.0989,-75.8717"/>
<text text-anchor="middle" x="1335.9754" y="-186.8849" font-family="Helvetica,sans-Serif" font-size="10.00" fill="#000000">*</text>
</g>
<!-- A5 -->
<g id="node6" class="node">
<title>A5</title>
<polygon fill="none" stroke="#000000" points="774.198,-260 774.198,-292 855.198,-292 855.198,-260 774.198,-260"/>
<text text-anchor="start" x="799.136" y="-273" font-family="Helvetica,sans-Serif" font-size="10.00" fill="#000000">Equipo</text>
<polygon fill="none" stroke="#000000" points="774.198,-228 774.198,-260 855.198,-260 855.198,-228 774.198,-228"/>
<text text-anchor="start" x="783.8585" y="-241" font-family="Helvetica,sans-Serif" font-size="10.00" fill="#000000">nombre:Texto</text>
</g>
<!-- A4&#45;&gt;A5 -->
<g id="edge9" class="edge">
<title>A4&#45;&gt;A5</title>
<path fill="none" stroke="#000000" d="M673.6777,-249.9294C705.3969,-252.2026 744.6345,-255.0146 773.5788,-257.089"/>
<polygon fill="none" stroke="#000000" points="673.8906,-246.4358 663.666,-249.2119 673.3902,-253.4179 673.8906,-246.4358"/>
</g>
<!-- A7 -->
<g id="node8" class="node">
<title>A7</title>
<polygon fill="none" stroke="#000000" points="1097.198,-219 1097.198,-251 1222.198,-251 1222.198,-219 1097.198,-219"/>
<text text-anchor="start" x="1141.636" y="-232" font-family="Helvetica,sans-Serif" font-size="10.00" fill="#000000">Jugador</text>
<polygon fill="none" stroke="#000000" points="1097.198,-187 1097.198,-219 1222.198,-219 1222.198,-187 1097.198,-187"/>
<text text-anchor="start" x="1107.187" y="-200" font-family="Helvetica,sans-Serif" font-size="10.00" fill="#000000">fechaNacimiento:Fecha</text>
</g>
<!-- A4&#45;&gt;A7 -->
<g id="edge8" class="edge">
<title>A4&#45;&gt;A7</title>
<path fill="none" stroke="#000000" d="M673.4287,-227.7587C686.4768,-224.1545 700.4634,-220.9008 713.698,-219 849.0146,-199.5654 1009.8448,-206.9673 1096.4534,-213.4125"/>
<polygon fill="none" stroke="#000000" points="672.3053,-224.4398 663.6617,-230.5667 674.2395,-231.1673 672.3053,-224.4398"/>
</g>
<!-- A5&#45;&gt;A2 -->
<g id="edge20" class="edge">
<title>A5&#45;&gt;A2</title>
<path fill="none" stroke="#000000" d="M854.7505,-290.9598C883.6682,-311.0077 924.4148,-335.3022 964.698,-346 999.9215,-355.3541 1010.9677,-353.1792 1046.698,-346 1137.1413,-327.8274 1234.7654,-279.8754 1288.0599,-251.0001"/>
<polygon fill="#000000" stroke="#000000" points="1296.8543,-246.1897 1290.2405,-254.9366 1292.4676,-248.5891 1288.0809,-250.9886 1288.0809,-250.9886 1288.0809,-250.9886 1292.4676,-248.5891 1285.9214,-247.0406 1296.8543,-246.1897 1296.8543,-246.1897"/>
</g>
<!-- A6 -->
<g id="node7" class="node">
<title>A6</title>
<polygon fill="none" stroke="#000000" points="964.698,-305 964.698,-337 1046.698,-337 1046.698,-305 964.698,-305"/>
<text text-anchor="start" x="987.081" y="-318" font-family="Helvetica,sans-Serif" font-size="10.00" fill="#000000">Persona</text>
<polygon fill="none" stroke="#000000" points="964.698,-237 964.698,-305 1046.698,-305 1046.698,-237 964.698,-237"/>
<text text-anchor="start" x="974.8585" y="-286" font-family="Helvetica,sans-Serif" font-size="10.00" fill="#000000">nombre:Texto</text>
<text text-anchor="start" x="974.5795" y="-274" font-family="Helvetica,sans-Serif" font-size="10.00" fill="#000000">apellido:Texto</text>
<text text-anchor="start" x="979.863" y="-262" font-family="Helvetica,sans-Serif" font-size="10.00" fill="#000000">email:Texto</text>
<text text-anchor="start" x="977.0835" y="-250" font-family="Helvetica,sans-Serif" font-size="10.00" fill="#000000">celular:Texto</text>
</g>
<!-- A5&#45;&gt;A6 -->
<g id="edge5" class="edge">
<title>A5&#45;&gt;A6</title>
<path fill="none" stroke="#000000" d="M867.0496,-267.4517C894.3113,-271.2953 927.4216,-275.9636 954.4485,-279.7742"/>
<polygon fill="none" stroke="#000000" points="866.6927,-267.4014 860.193,-270.5245 854.8102,-265.726 861.3099,-262.6029 866.6927,-267.4014"/>
<polygon fill="#000000" stroke="#000000" points="964.4841,-281.1892 953.9538,-284.2489 959.5331,-280.4911 954.5821,-279.793 954.5821,-279.793 954.5821,-279.793 959.5331,-280.4911 955.2104,-275.337 964.4841,-281.1892 964.4841,-281.1892"/>
<text text-anchor="middle" x="945.3554" y="-284.0281" font-family="Helvetica,sans-Serif" font-size="10.00" fill="#000000">representante1</text>
<text text-anchor="middle" x="873.9389" y="-256.887" font-family="Helvetica,sans-Serif" font-size="10.00" fill="#000000">1</text>
</g>
<!-- A5&#45;&gt;A7 -->
<g id="edge7" class="edge">
<title>A5&#45;&gt;A7</title>
<path fill="none" stroke="#000000" d="M866.5966,-246.6602C895.3615,-239.8947 931.7786,-232.2326 964.698,-228 1004.6913,-222.8579 1049.6434,-220.5538 1086.2499,-219.5593"/>
<polygon fill="none" stroke="#000000" points="866.4398,-246.6977 861.5363,-251.985 854.7697,-249.4922 859.6733,-244.2049 866.4398,-246.6977"/>
<polygon fill="#000000" stroke="#000000" points="1096.3425,-219.3122 1086.4556,-224.0557 1091.344,-219.4346 1086.3455,-219.557 1086.3455,-219.557 1086.3455,-219.557 1091.344,-219.4346 1086.2353,-215.0584 1096.3425,-219.3122 1096.3425,-219.3122"/>
<text text-anchor="middle" x="1078.4286" y="-225.2056" font-family="Helvetica,sans-Serif" font-size="10.00" fill="#000000">jugador*</text>
<text text-anchor="middle" x="870.4292" y="-234.0511" font-family="Helvetica,sans-Serif" font-size="10.00" fill="#000000">1</text>
</g>
<!-- A6&#45;&gt;A7 -->
<g id="edge6" class="edge">
<title>A6&#45;&gt;A7</title>
<path fill="none" stroke="#000000" d="M1056.0349,-264.7009C1068.9835,-258.9647 1083.0745,-252.7225 1096.563,-246.7471"/>
<polygon fill="none" stroke="#000000" points="1054.5586,-261.5268 1046.8332,-268.7772 1057.3938,-267.9269 1054.5586,-261.5268"/>
</g>
<!-- A7&#45;&gt;A2 -->
<g id="edge19" class="edge">
<title>A7&#45;&gt;A2</title>
<path fill="none" stroke="#000000" d="M1221.7516,-222.3257C1234.6828,-223.0132 1248.3535,-223.74 1261.4373,-224.4356"/>
<polygon fill="#000000" stroke="#000000" points="1271.779,-224.9854 1261.5542,-228.9481 1266.7861,-224.7199 1261.7931,-224.4544 1261.7931,-224.4544 1261.7931,-224.4544 1266.7861,-224.7199 1262.0321,-219.9608 1271.779,-224.9854 1271.779,-224.9854"/>
</g>
<!-- A9 -->
<g id="node10" class="node">
<title>A9</title>
<polygon fill="none" stroke="#000000" points="1676.763,-76 1676.763,-108 1757.763,-108 1757.763,-76 1676.763,-76"/>
<text text-anchor="start" x="1693.092" y="-89" font-family="Helvetica,sans-Serif" font-size="10.00" fill="#000000">Estadistica</text>
<polygon fill="none" stroke="#000000" points="1676.763,-44 1676.763,-76 1757.763,-76 1757.763,-44 1676.763,-44"/>
<text text-anchor="start" x="1686.4235" y="-57" font-family="Helvetica,sans-Serif" font-size="10.00" fill="#000000">nombre:Texto</text>
</g>
<!-- A13 -->
<g id="node14" class="node">
<title>A13</title>
<polygon fill="none" stroke="#000000" points="1807.763,-82 1807.763,-126 1894.763,-126 1894.763,-82 1807.763,-82"/>
<text text-anchor="start" x="1826.527" y="-107" font-family="Helvetica,sans-Serif" font-size="10.00" fill="#000000">&lt;&lt;Enum&gt;&gt;</text>
<text text-anchor="start" x="1817.369" y="-95" font-family="Helvetica,sans-Serif" font-size="10.00" fill="#000000">TipoEstadistica</text>
<polygon fill="none" stroke="#000000" points="1807.763,-26 1807.763,-82 1894.763,-82 1894.763,-26 1807.763,-26"/>
<text text-anchor="start" x="1828.202" y="-63" font-family="Helvetica,sans-Serif" font-size="10.00" fill="#000000">POSITIVA</text>
<text text-anchor="start" x="1825.982" y="-51" font-family="Helvetica,sans-Serif" font-size="10.00" fill="#000000">NEGATIVA</text>
<text text-anchor="start" x="1830.711" y="-39" font-family="Helvetica,sans-Serif" font-size="10.00" fill="#000000">NEUTRA</text>
</g>
<!-- A9&#45;&gt;A13 -->
<g id="edge13" class="edge">
<title>A9&#45;&gt;A13</title>
<path fill="none" stroke="#000000" d="M1757.3311,-76C1769.7306,-76 1783.5685,-76 1796.7148,-76"/>
<polygon fill="#000000" stroke="#000000" points="1807.0689,-76 1797.069,-80.5001 1802.0689,-76 1797.0689,-76.0001 1797.0689,-76.0001 1797.0689,-76.0001 1802.0689,-76 1797.0689,-71.5001 1807.0689,-76 1807.0689,-76"/>
<text text-anchor="middle" x="1788.9428" y="-81.4524" font-family="Helvetica,sans-Serif" font-size="10.00" fill="#000000">tipo1</text>
<text text-anchor="middle" x="1775.4572" y="-64.5476" font-family="Helvetica,sans-Serif" font-size="10.00" fill="#000000">*</text>
</g>
<!-- A10 -->
<g id="node11" class="node">
<title>A10</title>
<polygon fill="none" stroke="#000000" points="1471.763,-138 1471.763,-170 1589.763,-170 1589.763,-138 1471.763,-138"/>
<text text-anchor="start" x="1494.9245" y="-151" font-family="Helvetica,sans-Serif" font-size="10.00" fill="#000000">ValorEstadistica</text>
<polygon fill="none" stroke="#000000" points="1471.763,-94 1471.763,-138 1589.763,-138 1589.763,-94 1471.763,-94"/>
<text text-anchor="start" x="1508.2625" y="-119" font-family="Helvetica,sans-Serif" font-size="10.00" fill="#000000">valor:Real</text>
<text text-anchor="start" x="1481.5865" y="-107" font-family="Helvetica,sans-Serif" font-size="10.00" fill="#000000">estadistica:Estadistica</text>
</g>
<!-- A10&#45;&gt;A2JA9 -->
<g id="edge12" class="edge">
<title>A10&#45;&gt;A2JA9</title>
<path fill="none" stroke="#000000" stroke-dasharray="5,2" d="M1530.763,-93.8008C1530.763,-91.3591 1530.763,-88.9174 1530.763,-86.4756"/>
<polygon fill="#000000" stroke="#000000" points="1530.763,-76.4375 1535.2631,-86.4375 1530.763,-81.4375 1530.7631,-86.4375 1530.7631,-86.4375 1530.7631,-86.4375 1530.763,-81.4375 1526.2631,-86.4375 1530.763,-76.4375 1530.763,-76.4375"/>
</g>
<!-- A11&#45;&gt;A4 -->
<g id="edge16" class="edge">
<title>A11&#45;&gt;A4</title>
<path fill="none" stroke="#000000" d="M535.3645,-208.7461C546.8587,-213.8752 558.4291,-219.0384 569.1408,-223.8183"/>
<polygon fill="none" stroke="#000000" points="535.0168,-208.591 527.9075,-209.7987 524.0584,-203.7008 531.1676,-202.4931 535.0168,-208.591"/>
<polygon fill="#000000" stroke="#000000" points="578.3096,-227.9098 567.3437,-227.9441 573.7436,-225.8722 569.1775,-223.8347 569.1775,-223.8347 569.1775,-223.8347 573.7436,-225.8722 571.0113,-219.7253 578.3096,-227.9098 578.3096,-227.9098"/>
<text text-anchor="middle" x="558.3123" y="-225.242" font-family="Helvetica,sans-Serif" font-size="10.00" fill="#000000">2</text>
<text text-anchor="middle" x="544.0556" y="-200.3686" font-family="Helvetica,sans-Serif" font-size="10.00" fill="#000000">*</text>
</g>
<!-- A12 -->
<g id="node13" class="node">
<title>A12</title>
<polygon fill="none" stroke="#000000" points="714.198,-111 714.198,-143 915.198,-143 915.198,-111 714.198,-111"/>
<text text-anchor="start" x="778.305" y="-124" font-family="Helvetica,sans-Serif" font-size="10.00" fill="#000000">RegistroReporte</text>
<polygon fill="none" stroke="#000000" points="714.198,-67 714.198,-111 915.198,-111 915.198,-67 714.198,-67"/>
<text text-anchor="start" x="724.125" y="-92" font-family="Helvetica,sans-Serif" font-size="10.00" fill="#000000">estadisticaParticipanteA:ValorEstadistica</text>
<text text-anchor="start" x="724.125" y="-80" font-family="Helvetica,sans-Serif" font-size="10.00" fill="#000000">estadisticaParticipanteB:ValorEstadistica</text>
</g>
<!-- A11&#45;&gt;A12 -->
<g id="edge14" class="edge">
<title>A11&#45;&gt;A12</title>
<path fill="none" stroke="#000000" d="M536.0486,-158.8055C585.1764,-149.3022 649.2037,-136.9167 703.4423,-126.4247"/>
<polygon fill="none" stroke="#000000" points="535.9553,-158.8234 530.8242,-163.8902 524.1737,-161.1026 529.3048,-156.0358 535.9553,-158.8234"/>
<polygon fill="#000000" stroke="#000000" points="713.4501,-124.4888 704.4868,-130.8061 708.5411,-125.4384 703.6321,-126.388 703.6321,-126.388 703.6321,-126.388 708.5411,-125.4384 702.7774,-121.97 713.4501,-124.4888 713.4501,-124.4888"/>
<text text-anchor="middle" x="697.2591" y="-133.2298" font-family="Helvetica,sans-Serif" font-size="10.00" fill="#000000">registros*</text>
<text text-anchor="middle" x="540.3647" y="-146.3615" font-family="Helvetica,sans-Serif" font-size="10.00" fill="#000000">1</text>
</g>
<!-- A12&#45;&gt;A10 -->
<g id="edge15" class="edge">
<title>A12&#45;&gt;A10</title>
<path fill="none" stroke="#000000" d="M927.2315,-109.2591C1077.2099,-114.9102 1337.4297,-124.7152 1461.3285,-129.3837"/>
<polygon fill="none" stroke="#000000" points="926.9574,-109.2488 920.811,-113.02 914.9659,-108.7969 921.1123,-105.0257 926.9574,-109.2488"/>
<polygon fill="#000000" stroke="#000000" points="1471.4491,-129.7651 1461.2867,-133.8852 1466.4526,-129.5768 1461.4562,-129.3884 1461.4562,-129.3884 1461.4562,-129.3884 1466.4526,-129.5768 1461.6257,-124.8916 1471.4491,-129.7651 1471.4491,-129.7651"/>
<text text-anchor="middle" x="1453.0175" y="-134.5289" font-family="Helvetica,sans-Serif" font-size="10.00" fill="#000000">2</text>
<text text-anchor="middle" x="933.3974" y="-98.033" font-family="Helvetica,sans-Serif" font-size="10.00" fill="#000000">*</text>
</g>
<!-- A2JA9&#45;&gt;A9 -->
<g id="edge11" class="edge">
<title>A2JA9&#45;&gt;A9</title>
<path fill="none" stroke="#000000" d="M1531.2966,-76C1538.3283,-76 1613.3422,-76 1665.784,-76"/>
<polygon fill="#000000" stroke="#000000" points="1675.9445,-76 1665.9446,-80.5001 1670.9445,-76 1665.9445,-76.0001 1665.9445,-76.0001 1665.9445,-76.0001 1670.9445,-76 1665.9445,-71.5001 1675.9445,-76 1675.9445,-76"/>
<text text-anchor="middle" x="1657.8184" y="-81.4524" font-family="Helvetica,sans-Serif" font-size="10.00" fill="#000000">*</text>
</g>
</g>
</svg>
