<?xml version="1.0" encoding="UTF-8" standalone="no"?>
<!DOCTYPE svg PUBLIC "-//W3C//DTD SVG 1.1//EN"
 "http://www.w3.org/Graphics/SVG/1.1/DTD/svg11.dtd">
<!-- Generated by graphviz version 2.40.1 (20161225.0304)
 -->
<!-- Title: G Pages: 1 -->
<svg width="2042pt" height="494pt"
 viewBox="0.00 0.00 2041.57 493.57" xmlns="http://www.w3.org/2000/svg" xmlns:xlink="http://www.w3.org/1999/xlink">
<g id="graph0" class="graph" transform="scale(1 1) rotate(0) translate(4 489.5726)">
<title>G</title>
<polygon fill="#ffffff" stroke="transparent" points="-4,4 -4,-489.5726 2037.565,-489.5726 2037.565,4 -4,4"/>
<!-- A0 -->
<g id="node1" class="node">
<title>A0</title>
<polygon fill="none" stroke="#000000" points=".5,-424 .5,-456 341.5,-456 341.5,-424 .5,-424"/>
<text text-anchor="start" x="155.163" y="-437" font-family="Helvetica,sans-Serif" font-size="10.00" fill="#000000">Torneo</text>
<polygon fill="none" stroke="#000000" points=".5,-320 .5,-424 341.5,-424 341.5,-320 .5,-320"/>
<text text-anchor="start" x="140.1605" y="-405" font-family="Helvetica,sans-Serif" font-size="10.00" fill="#000000">nombre:Texto</text>
<text text-anchor="start" x="131.822" y="-393" font-family="Helvetica,sans-Serif" font-size="10.00" fill="#000000">fechaInicio:Fecha</text>
<text text-anchor="start" x="102.6515" y="-381" font-family="Helvetica,sans-Serif" font-size="10.00" fill="#000000">fechaInicioInscripciones:Fecha</text>
<text text-anchor="start" x="100.712" y="-369" font-family="Helvetica,sans-Serif" font-size="10.00" fill="#000000">fechaCierreInscripciones:Fecha</text>
<text text-anchor="start" x="109.042" y="-357" font-family="Helvetica,sans-Serif" font-size="10.00" fill="#000000">numeroParticipantes:Entero</text>
<text text-anchor="start" x="131.5485" y="-345" font-family="Helvetica,sans-Serif" font-size="10.00" fill="#000000">limiteEdad:Entero</text>
<text text-anchor="start" x="120.1595" y="-333" font-family="Helvetica,sans-Serif" font-size="10.00" fill="#000000">valorInscripcion:Entero</text>
<polygon fill="none" stroke="#000000" points=".5,0 .5,-320 341.5,-320 341.5,0 .5,0"/>
<text text-anchor="start" x="109.741" y="-301" font-family="Helvetica,sans-Serif" font-size="10.00" fill="#000000">+Constructor(nombre:Texto</text>
<text text-anchor="start" x="131.822" y="-289" font-family="Helvetica,sans-Serif" font-size="10.00" fill="#000000">fechaInicio:Fecha</text>
<text text-anchor="start" x="102.6515" y="-277" font-family="Helvetica,sans-Serif" font-size="10.00" fill="#000000">fechaInicioInscripciones:Fecha</text>
<text text-anchor="start" x="100.712" y="-265" font-family="Helvetica,sans-Serif" font-size="10.00" fill="#000000">fechaCierreInscripciones:Fecha</text>
<text text-anchor="start" x="109.042" y="-253" font-family="Helvetica,sans-Serif" font-size="10.00" fill="#000000">numeroParticipantes:Entero</text>
<text text-anchor="start" x="131.5485" y="-241" font-family="Helvetica,sans-Serif" font-size="10.00" fill="#000000">limiteEdad:Entero</text>
<text text-anchor="start" x="120.1595" y="-229" font-family="Helvetica,sans-Serif" font-size="10.00" fill="#000000">valorInscripcion:Entero</text>
<text text-anchor="start" x="120.1555" y="-217" font-family="Helvetica,sans-Serif" font-size="10.00" fill="#000000">tipoTorneo:TipoTorneo</text>
<text text-anchor="start" x="10.288" y="-205" font-family="Helvetica,sans-Serif" font-size="10.00" fill="#000000">caracter:CaracterTorneo)+registrarParticipante(participante:Participante)</text>
<text text-anchor="start" x="126.1335" y="-193" font-family="Helvetica,sans-Serif" font-size="10.00" fill="#000000">+getNombre():Texto</text>
<text text-anchor="start" x="116.96" y="-181" font-family="Helvetica,sans-Serif" font-size="10.00" fill="#000000">+getFechaInicio():Fecha</text>
<text text-anchor="start" x="87.7895" y="-169" font-family="Helvetica,sans-Serif" font-size="10.00" fill="#000000">+getFechaInicioInscripciones():Fecha</text>
<text text-anchor="start" x="85.85" y="-157" font-family="Helvetica,sans-Serif" font-size="10.00" fill="#000000">+getFechaCierreInscripciones():Fecha</text>
<text text-anchor="start" x="95.015" y="-145" font-family="Helvetica,sans-Serif" font-size="10.00" fill="#000000">+getNumeroParticipantes():Entero</text>
<text text-anchor="start" x="116.6815" y="-133" font-family="Helvetica,sans-Serif" font-size="10.00" fill="#000000">+getLimiteEdad():Entero</text>
<text text-anchor="start" x="106.128" y="-121" font-family="Helvetica,sans-Serif" font-size="10.00" fill="#000000">+getValorInscripcion():Entero</text>
<text text-anchor="start" x="105.2935" y="-109" font-family="Helvetica,sans-Serif" font-size="10.00" fill="#000000">+getTipoTorneo():TipoTorneo</text>
<text text-anchor="start" x="78.6215" y="-97" font-family="Helvetica,sans-Serif" font-size="10.00" fill="#000000">+getParticipantes():Participante［*］</text>
<text text-anchor="start" x="102.2435" y="-85" font-family="Helvetica,sans-Serif" font-size="10.00" fill="#000000">+getCaracter():CaracterTorneo</text>
<text text-anchor="start" x="93.344" y="-73" font-family="Helvetica,sans-Serif" font-size="10.00" fill="#000000">+setFechaInicio(fechaInicio:Fecha)</text>
<text text-anchor="start" x="35.003" y="-61" font-family="Helvetica,sans-Serif" font-size="10.00" fill="#000000">+setFechaInicioInscripciones(fechaInicioInscripciones:Fecha)</text>
<text text-anchor="start" x="31.124" y="-49" font-family="Helvetica,sans-Serif" font-size="10.00" fill="#000000">+setFechaCierreInscripciones(fechaCierreInscripciones:Fecha)</text>
<text text-anchor="start" x="67.65" y="-37" font-family="Helvetica,sans-Serif" font-size="10.00" fill="#000000">buscarParticipante(nombre:Texto):Participante</text>
<text text-anchor="start" x="58.8875" y="-25" font-family="Helvetica,sans-Serif" font-size="10.00" fill="#000000">+registrarJugador(equipo:Equipo,jugador:Jugador)</text>
<text text-anchor="start" x="44.4445" y="-13" font-family="Helvetica,sans-Serif" font-size="10.00" fill="#000000">+registrarJugador(nombreEquipo:Texto,jugador:Jugador)</text>
</g>
<!-- A1 -->
<g id="node2" class="node">
<title>A1</title>
<polygon fill="none" stroke="#000000" points="422.5,-360 422.5,-404 493.5,-404 493.5,-360 422.5,-360"/>
<text text-anchor="start" x="433.264" y="-385" font-family="Helvetica,sans-Serif" font-size="10.00" fill="#000000">&lt;&lt;Enum&gt;&gt;</text>
<text text-anchor="start" x="432.44" y="-373" font-family="Helvetica,sans-Serif" font-size="10.00" fill="#000000">TipoTorneo</text>
<polygon fill="none" stroke="#000000" points="422.5,-292 422.5,-360 493.5,-360 493.5,-292 422.5,-292"/>
<text text-anchor="start" x="441.6075" y="-341" font-family="Helvetica,sans-Serif" font-size="10.00" fill="#000000">LOCAL</text>
<text text-anchor="start" x="432.164" y="-329" font-family="Helvetica,sans-Serif" font-size="10.00" fill="#000000">REGIONAL</text>
<text text-anchor="start" x="432.444" y="-317" font-family="Helvetica,sans-Serif" font-size="10.00" fill="#000000">NACIONAL</text>
<text text-anchor="start" x="435.5035" y="-305" font-family="Helvetica,sans-Serif" font-size="10.00" fill="#000000">MUNDIAL</text>
</g>
<!-- A0&#45;&gt;A1 -->
<g id="edge3" class="edge">
<title>A0&#45;&gt;A1</title>
<path fill="none" stroke="#000000" d="M341.1799,-299.3644C367.4553,-310.3506 392.4687,-320.8092 412.5205,-329.1932"/>
<polygon fill="#000000" stroke="#000000" points="421.9493,-333.1356 410.9874,-333.4297 417.3363,-331.2068 412.7233,-329.278 412.7233,-329.278 412.7233,-329.278 417.3363,-331.2068 414.4593,-325.1263 421.9493,-333.1356 421.9493,-333.1356"/>
<text text-anchor="middle" x="401.9656" y="-330.9415" font-family="Helvetica,sans-Serif" font-size="10.00" fill="#000000">tipoTorneo1</text>
<text text-anchor="middle" x="361.1636" y="-295.5585" font-family="Helvetica,sans-Serif" font-size="10.00" fill="#000000">*</text>
</g>
<!-- A4 -->
<g id="node5" class="node">
<title>A4</title>
<polygon fill="none" stroke="#000000" points="574,-258 574,-302 726,-302 726,-258 574,-258"/>
<text text-anchor="start" x="619.151" y="-283" font-family="Helvetica,sans-Serif" font-size="10.00" fill="#000000">&lt;&lt;interface&gt;&gt;</text>
<text text-anchor="start" x="623.6055" y="-271" font-family="Helvetica,sans-Serif" font-size="10.00" fill="#000000">Participante</text>
<polygon fill="none" stroke="#000000" points="574,-226 574,-258 726,-258 726,-226 574,-226"/>
<text text-anchor="start" x="583.7425" y="-239" font-family="Helvetica,sans-Serif" font-size="10.00" fill="#000000">+getNombreCompleto():Texto</text>
</g>
<!-- A0&#45;&gt;A4 -->
<g id="edge4" class="edge">
<title>A0&#45;&gt;A4</title>
<path fill="none" stroke="#000000" d="M353.3637,-242.151C366.1003,-243.1204 378.7415,-244.0778 391,-245 448.5189,-249.327 513.2329,-254.0744 563.5852,-257.7414"/>
<polygon fill="none" stroke="#000000" points="353.0978,-242.1308 346.8111,-245.6631 341.1326,-241.2186 347.4193,-237.6863 353.0978,-242.1308"/>
<polygon fill="#000000" stroke="#000000" points="573.7805,-258.4834 563.4802,-262.2456 568.7937,-258.1204 563.8069,-257.7574 563.8069,-257.7574 563.8069,-257.7574 568.7937,-258.1204 564.1336,-253.2693 573.7805,-258.4834 573.7805,-258.4834"/>
<text text-anchor="middle" x="555.0886" y="-262.5977" font-family="Helvetica,sans-Serif" font-size="10.00" fill="#000000">participantes*</text>
<text text-anchor="middle" x="359.8487" y="-231.1684" font-family="Helvetica,sans-Serif" font-size="10.00" fill="#000000">1</text>
</g>
<!-- A8 -->
<g id="node9" class="node">
<title>A8</title>
<polygon fill="none" stroke="#000000" points="412.5,-86 412.5,-130 502.5,-130 502.5,-86 412.5,-86"/>
<text text-anchor="start" x="432.764" y="-111" font-family="Helvetica,sans-Serif" font-size="10.00" fill="#000000">&lt;&lt;Enum&gt;&gt;</text>
<text text-anchor="start" x="422.4965" y="-99" font-family="Helvetica,sans-Serif" font-size="10.00" fill="#000000">CaracterTorneo</text>
<polygon fill="none" stroke="#000000" points="412.5,-42 412.5,-86 502.5,-86 502.5,-42 412.5,-42"/>
<text text-anchor="start" x="429.445" y="-67" font-family="Helvetica,sans-Serif" font-size="10.00" fill="#000000">INDIVIDUAL</text>
<text text-anchor="start" x="436.943" y="-55" font-family="Helvetica,sans-Serif" font-size="10.00" fill="#000000">GRUPAL</text>
</g>
<!-- A0&#45;&gt;A8 -->
<g id="edge2" class="edge">
<title>A0&#45;&gt;A8</title>
<path fill="none" stroke="#000000" d="M341.1799,-143.5521C363.6287,-132.445 385.1564,-121.7937 403.4556,-112.7397"/>
<polygon fill="#000000" stroke="#000000" points="412.443,-108.293 405.4756,-116.761 407.9615,-110.5104 403.48,-112.7277 403.48,-112.7277 403.48,-112.7277 407.9615,-110.5104 401.4844,-108.6944 412.443,-108.293 412.443,-108.293"/>
<text text-anchor="middle" x="399.9449" y="-120.9071" font-family="Helvetica,sans-Serif" font-size="10.00" fill="#000000">caracter1</text>
<text text-anchor="middle" x="353.6779" y="-124.9381" font-family="Helvetica,sans-Serif" font-size="10.00" fill="#000000">*</text>
</g>
<!-- A11 -->
<g id="node12" class="node">
<title>A11</title>
<polygon fill="none" stroke="#000000" points="391.5,-204 391.5,-236 524.5,-236 524.5,-204 391.5,-204"/>
<text text-anchor="start" x="440.2185" y="-217" font-family="Helvetica,sans-Serif" font-size="10.00" fill="#000000">Reporte</text>
<polygon fill="none" stroke="#000000" points="391.5,-148 391.5,-204 524.5,-204 524.5,-148 391.5,-148"/>
<text text-anchor="start" x="430.4895" y="-185" font-family="Helvetica,sans-Serif" font-size="10.00" fill="#000000">fecha:Fecha</text>
<text text-anchor="start" x="401.042" y="-173" font-family="Helvetica,sans-Serif" font-size="10.00" fill="#000000">participanteA:Participante</text>
<text text-anchor="start" x="401.042" y="-161" font-family="Helvetica,sans-Serif" font-size="10.00" fill="#000000">participanteB:Participante</text>
</g>
<!-- A0&#45;&gt;A11 -->
<g id="edge1" class="edge">
<title>A0&#45;&gt;A11</title>
<path fill="none" stroke="#000000" stroke-dasharray="5,2" d="M341.1799,-206.5907C354.816,-204.8802 368.1122,-203.2124 380.5515,-201.6521"/>
<polygon fill="#000000" stroke="#000000" points="390.7875,-200.3681 381.4254,-206.0778 385.8264,-200.9905 380.8653,-201.6128 380.8653,-201.6128 380.8653,-201.6128 385.8264,-200.9905 380.3052,-197.1478 390.7875,-200.3681 390.7875,-200.3681"/>
</g>
<!-- A2 -->
<g id="node3" class="node">
<title>A2</title>
<polygon fill="none" stroke="#000000" points="1524.3483,-374 1411.2167,-374 1411.2167,-338 1524.3483,-338 1524.3483,-374"/>
<text text-anchor="middle" x="1467.7825" y="-359" font-family="Helvetica,sans-Serif" font-size="10.00" fill="#000000">&lt;&lt;interface&gt;&gt;</text>
<text text-anchor="middle" x="1467.7825" y="-347" font-family="Helvetica,sans-Serif" font-size="10.00" fill="#000000">RegistroEstadistica</text>
</g>
<!-- A3 -->
<g id="node4" class="node">
<title>A3</title>
<polygon fill="none" stroke="#000000" points="1575.065,-356 1575.065,-388 1766.065,-388 1766.065,-356 1575.065,-356"/>
<text text-anchor="start" x="1618.3395" y="-369" font-family="Helvetica,sans-Serif" font-size="10.00" fill="#000000">RegistroEstadisticaImpl</text>
<polygon fill="none" stroke="#000000" points="1575.065,-324 1575.065,-356 1766.065,-356 1766.065,-324 1575.065,-324"/>
<text text-anchor="start" x="1584.718" y="-337" font-family="Helvetica,sans-Serif" font-size="10.00" fill="#000000">estadisticas:ValorEstadistica［*］</text>
</g>
<!-- A2&#45;&gt;A3 -->
<g id="edge18" class="edge">
<title>A2&#45;&gt;A3</title>
<path fill="none" stroke="#000000" d="M1534.4511,-356C1547.2319,-356 1560.8469,-356 1574.3332,-356"/>
<polygon fill="none" stroke="#000000" points="1534.3985,-352.5001 1524.3984,-356 1534.3984,-359.5001 1534.3985,-352.5001"/>
</g>
<!-- A2&#45;&gt;A4 -->
<g id="edge17" class="edge">
<title>A2&#45;&gt;A4</title>
<path fill="none" stroke="#000000" d="M1445.4882,-381.6358C1425.6167,-402.5816 1394.5538,-430.9429 1361,-445 1223.8638,-502.4521 1173.5761,-488.9501 1027,-464 910.4632,-444.1632 877.8798,-435.9568 776,-376 742.0738,-356.0343 709.0162,-326.1322 685.2793,-302.246"/>
<polygon fill="none" stroke="#000000" points="1448.3156,-383.7336 1452.538,-374.0165 1443.1775,-378.9796 1448.3156,-383.7336"/>
</g>
<!-- A2JA9 -->
<!-- A2&#45;&gt;A2JA9 -->
<g id="edge10" class="edge">
<title>A2&#45;&gt;A2JA9</title>
<path fill="none" stroke="#000000" d="M1473.2579,-337.818C1485.1226,-301.9316 1516.8905,-222.4102 1574.565,-187 1609.1933,-165.7394 1664.5681,-176.8308 1669.6834,-177.9173"/>
<text text-anchor="middle" x="1471.2192" y="-314.9222" font-family="Helvetica,sans-Serif" font-size="10.00" fill="#000000">*</text>
</g>
<!-- A5 -->
<g id="node6" class="node">
<title>A5</title>
<polygon fill="none" stroke="#000000" points="788.5,-335 788.5,-367 965.5,-367 965.5,-335 788.5,-335"/>
<text text-anchor="start" x="861.438" y="-348" font-family="Helvetica,sans-Serif" font-size="10.00" fill="#000000">Equipo</text>
<polygon fill="none" stroke="#000000" points="788.5,-303 788.5,-335 965.5,-335 965.5,-303 788.5,-303"/>
<text text-anchor="start" x="846.1605" y="-316" font-family="Helvetica,sans-Serif" font-size="10.00" fill="#000000">nombre:Texto</text>
<polygon fill="none" stroke="#000000" points="788.5,-211 788.5,-303 965.5,-303 965.5,-211 788.5,-211"/>
<text text-anchor="start" x="815.741" y="-284" font-family="Helvetica,sans-Serif" font-size="10.00" fill="#000000">+Constructor(nombre:Texto</text>
<text text-anchor="start" x="824.485" y="-272" font-family="Helvetica,sans-Serif" font-size="10.00" fill="#000000">representante:Persona)</text>
<text text-anchor="start" x="832.1335" y="-260" font-family="Helvetica,sans-Serif" font-size="10.00" fill="#000000">+getNombre():Texto</text>
<text text-anchor="start" x="811.0075" y="-248" font-family="Helvetica,sans-Serif" font-size="10.00" fill="#000000">+getRepresentante():Persona</text>
<text text-anchor="start" x="798.507" y="-236" font-family="Helvetica,sans-Serif" font-size="10.00" fill="#000000">+getJugadores():Jugador［*］</text>
<text text-anchor="start" x="798.2355" y="-224" font-family="Helvetica,sans-Serif" font-size="10.00" fill="#000000">+registrarJugador(jugador:Jugador)</text>
</g>
<!-- A4&#45;&gt;A5 -->
<g id="edge9" class="edge">
<title>A4&#45;&gt;A5</title>
<path fill="none" stroke="#000000" d="M736.3932,-273.5357C753.1996,-275.3907 770.8434,-277.3381 787.7252,-279.2015"/>
<polygon fill="none" stroke="#000000" points="736.375,-270.0125 726.0513,-272.3942 735.6069,-276.9702 736.375,-270.0125"/>
</g>
<!-- A7 -->
<g id="node8" class="node">
<title>A7</title>
<polygon fill="none" stroke="#000000" points="1219,-293 1219,-325 1361,-325 1361,-293 1219,-293"/>
<text text-anchor="start" x="1271.938" y="-306" font-family="Helvetica,sans-Serif" font-size="10.00" fill="#000000">Jugador</text>
<polygon fill="none" stroke="#000000" points="1219,-261 1219,-293 1361,-293 1361,-261 1219,-261"/>
<text text-anchor="start" x="1237.489" y="-274" font-family="Helvetica,sans-Serif" font-size="10.00" fill="#000000">fechaNacimiento:Fecha</text>
<polygon fill="none" stroke="#000000" points="1219,-181 1219,-261 1361,-261 1361,-181 1219,-181"/>
<text text-anchor="start" x="1228.741" y="-242" font-family="Helvetica,sans-Serif" font-size="10.00" fill="#000000">+Constructor(nombre:Texto</text>
<text text-anchor="start" x="1258.8815" y="-230" font-family="Helvetica,sans-Serif" font-size="10.00" fill="#000000">apellido:Texto</text>
<text text-anchor="start" x="1264.165" y="-218" font-family="Helvetica,sans-Serif" font-size="10.00" fill="#000000">email:Texto</text>
<text text-anchor="start" x="1261.3855" y="-206" font-family="Helvetica,sans-Serif" font-size="10.00" fill="#000000">celular:Texto</text>
<text text-anchor="start" x="1235.8245" y="-194" font-family="Helvetica,sans-Serif" font-size="10.00" fill="#000000">fechaNacimiento:Fecha)</text>
</g>
<!-- A4&#45;&gt;A7 -->
<g id="edge8" class="edge">
<title>A4&#45;&gt;A7</title>
<path fill="none" stroke="#000000" d="M723.5481,-221.5411C740.2954,-213.6689 758.3635,-206.5134 776,-202 945.2797,-158.6789 999.1394,-150.0155 1169,-191 1185.865,-195.0692 1203.0201,-201.9126 1218.9084,-209.6017"/>
<polygon fill="none" stroke="#000000" points="721.8654,-218.4671 714.391,-225.976 724.9166,-224.7671 721.8654,-218.4671"/>
</g>
<!-- A5&#45;&gt;A2 -->
<g id="edge20" class="edge">
<title>A5&#45;&gt;A2</title>
<path fill="none" stroke="#000000" d="M932.5778,-367.0812C957.8291,-395.6731 990.2527,-424.7431 1027,-440 1166.1378,-497.768 1346.5991,-420.3213 1426.549,-378.9827"/>
<polygon fill="#000000" stroke="#000000" points="1435.7912,-374.1319 1429.028,-382.7638 1431.364,-376.4556 1426.9367,-378.7792 1426.9367,-378.7792 1426.9367,-378.7792 1431.364,-376.4556 1424.8454,-374.7947 1435.7912,-374.1319 1435.7912,-374.1319"/>
</g>
<!-- A6 -->
<g id="node7" class="node">
<title>A6</title>
<polygon fill="none" stroke="#000000" points="1027,-399 1027,-431 1169,-431 1169,-399 1027,-399"/>
<text text-anchor="start" x="1079.383" y="-412" font-family="Helvetica,sans-Serif" font-size="10.00" fill="#000000">Persona</text>
<polygon fill="none" stroke="#000000" points="1027,-331 1027,-399 1169,-399 1169,-331 1027,-331"/>
<text text-anchor="start" x="1067.1605" y="-380" font-family="Helvetica,sans-Serif" font-size="10.00" fill="#000000">nombre:Texto</text>
<text text-anchor="start" x="1066.8815" y="-368" font-family="Helvetica,sans-Serif" font-size="10.00" fill="#000000">apellido:Texto</text>
<text text-anchor="start" x="1072.165" y="-356" font-family="Helvetica,sans-Serif" font-size="10.00" fill="#000000">email:Texto</text>
<text text-anchor="start" x="1069.3855" y="-344" font-family="Helvetica,sans-Serif" font-size="10.00" fill="#000000">celular:Texto</text>
<polygon fill="none" stroke="#000000" points="1027,-215 1027,-331 1169,-331 1169,-215 1027,-215"/>
<text text-anchor="start" x="1036.741" y="-312" font-family="Helvetica,sans-Serif" font-size="10.00" fill="#000000">+Constructor(nombre:Texto</text>
<text text-anchor="start" x="1066.8815" y="-300" font-family="Helvetica,sans-Serif" font-size="10.00" fill="#000000">apellido:Texto</text>
<text text-anchor="start" x="1072.165" y="-288" font-family="Helvetica,sans-Serif" font-size="10.00" fill="#000000">email:Texto</text>
<text text-anchor="start" x="1067.721" y="-276" font-family="Helvetica,sans-Serif" font-size="10.00" fill="#000000">celular:Texto)</text>
<text text-anchor="start" x="1053.1335" y="-264" font-family="Helvetica,sans-Serif" font-size="10.00" fill="#000000">+getNombre():Texto</text>
<text text-anchor="start" x="1053.1295" y="-252" font-family="Helvetica,sans-Serif" font-size="10.00" fill="#000000">+getApellido():Texto</text>
<text text-anchor="start" x="1058.413" y="-240" font-family="Helvetica,sans-Serif" font-size="10.00" fill="#000000">+getEmail():Texto</text>
<text text-anchor="start" x="1055.079" y="-228" font-family="Helvetica,sans-Serif" font-size="10.00" fill="#000000">+getCelular():Texto</text>
</g>
<!-- A5&#45;&gt;A6 -->
<g id="edge5" class="edge">
<title>A5&#45;&gt;A6</title>
<path fill="none" stroke="#000000" d="M977.4021,-304.4884C990.5803,-306.5112 1003.946,-308.5628 1016.7448,-310.5274"/>
<polygon fill="none" stroke="#000000" points="977.1773,-304.4539 970.6399,-307.4973 965.3163,-302.6332 971.8537,-299.5899 977.1773,-304.4539"/>
<polygon fill="#000000" stroke="#000000" points="1026.8733,-312.0821 1016.3063,-315.0127 1021.9312,-311.3235 1016.9891,-310.5648 1016.9891,-310.5648 1016.9891,-310.5648 1021.9312,-311.3235 1017.6718,-306.1169 1026.8733,-312.0821 1026.8733,-312.0821"/>
<text text-anchor="middle" x="1007.6746" y="-314.6865" font-family="Helvetica,sans-Serif" font-size="10.00" fill="#000000">representante1</text>
<text text-anchor="middle" x="984.515" y="-294.0288" font-family="Helvetica,sans-Serif" font-size="10.00" fill="#000000">1</text>
</g>
<!-- A5&#45;&gt;A7 -->
<g id="edge7" class="edge">
<title>A5&#45;&gt;A7</title>
<path fill="none" stroke="#000000" d="M976.4932,-224.9545C992.8216,-217.1428 1009.9784,-210.3825 1027,-206 1088.1179,-190.2641 1106.9687,-194.3757 1169,-206 1182.3682,-208.5051 1196.1581,-212.4412 1209.428,-216.9944"/>
<polygon fill="none" stroke="#000000" points="976.074,-225.1633 972.4872,-231.4192 965.3331,-230.5144 968.9199,-224.2585 976.074,-225.1633"/>
<polygon fill="#000000" stroke="#000000" points="1218.9852,-220.4072 1208.0543,-221.2821 1214.2764,-218.7257 1209.5677,-217.0442 1209.5677,-217.0442 1209.5677,-217.0442 1214.2764,-218.7257 1211.081,-212.8062 1218.9852,-220.4072 1218.9852,-220.4072"/>
<text text-anchor="middle" x="1199.0723" y="-219.2715" font-family="Helvetica,sans-Serif" font-size="10.00" fill="#000000">jugador*</text>
<text text-anchor="middle" x="977.7884" y="-211.8661" font-family="Helvetica,sans-Serif" font-size="10.00" fill="#000000">1</text>
</g>
<!-- A6&#45;&gt;A7 -->
<g id="edge6" class="edge">
<title>A6&#45;&gt;A7</title>
<path fill="none" stroke="#000000" d="M1178.8265,-293.532C1192.136,-288.6796 1205.8447,-283.6816 1218.8942,-278.924"/>
<polygon fill="none" stroke="#000000" points="1177.4171,-290.3204 1169.2209,-297.0341 1179.8148,-296.897 1177.4171,-290.3204"/>
</g>
<!-- A7&#45;&gt;A2 -->
<g id="edge19" class="edge">
<title>A7&#45;&gt;A2</title>
<path fill="none" stroke="#000000" d="M1361.0308,-294.1524C1383.6763,-307.2723 1407.9348,-321.3267 1427.5952,-332.7171"/>
<polygon fill="#000000" stroke="#000000" points="1436.2825,-337.7502 1425.3739,-336.6308 1431.9561,-335.2436 1427.6298,-332.7371 1427.6298,-332.7371 1427.6298,-332.7371 1431.9561,-335.2436 1429.8857,-328.8434 1436.2825,-337.7502 1436.2825,-337.7502"/>
</g>
<!-- A9 -->
<g id="node10" class="node">
<title>A9</title>
<polygon fill="none" stroke="#000000" points="1816.065,-178 1816.065,-210 1897.065,-210 1897.065,-178 1816.065,-178"/>
<text text-anchor="start" x="1832.394" y="-191" font-family="Helvetica,sans-Serif" font-size="10.00" fill="#000000">Estadistica</text>
<polygon fill="none" stroke="#000000" points="1816.065,-146 1816.065,-178 1897.065,-178 1897.065,-146 1816.065,-146"/>
<text text-anchor="start" x="1825.7255" y="-159" font-family="Helvetica,sans-Serif" font-size="10.00" fill="#000000">nombre:Texto</text>
</g>
<!-- A13 -->
<g id="node14" class="node">
<title>A13</title>
<polygon fill="none" stroke="#000000" points="1947.065,-184 1947.065,-228 2034.065,-228 2034.065,-184 1947.065,-184"/>
<text text-anchor="start" x="1965.829" y="-209" font-family="Helvetica,sans-Serif" font-size="10.00" fill="#000000">&lt;&lt;Enum&gt;&gt;</text>
<text text-anchor="start" x="1956.671" y="-197" font-family="Helvetica,sans-Serif" font-size="10.00" fill="#000000">TipoEstadistica</text>
<polygon fill="none" stroke="#000000" points="1947.065,-128 1947.065,-184 2034.065,-184 2034.065,-128 1947.065,-128"/>
<text text-anchor="start" x="1967.504" y="-165" font-family="Helvetica,sans-Serif" font-size="10.00" fill="#000000">POSITIVA</text>
<text text-anchor="start" x="1965.284" y="-153" font-family="Helvetica,sans-Serif" font-size="10.00" fill="#000000">NEGATIVA</text>
<text text-anchor="start" x="1970.013" y="-141" font-family="Helvetica,sans-Serif" font-size="10.00" fill="#000000">NEUTRA</text>
</g>
<!-- A9&#45;&gt;A13 -->
<g id="edge13" class="edge">
<title>A9&#45;&gt;A13</title>
<path fill="none" stroke="#000000" d="M1896.6331,-178C1909.0326,-178 1922.8705,-178 1936.0168,-178"/>
<polygon fill="#000000" stroke="#000000" points="1946.3709,-178 1936.371,-182.5001 1941.3709,-178 1936.3709,-178.0001 1936.3709,-178.0001 1936.3709,-178.0001 1941.3709,-178 1936.3709,-173.5001 1946.3709,-178 1946.3709,-178"/>
<text text-anchor="middle" x="1928.2448" y="-183.4524" font-family="Helvetica,sans-Serif" font-size="10.00" fill="#000000">tipo1</text>
<text text-anchor="middle" x="1914.7592" y="-166.5476" font-family="Helvetica,sans-Serif" font-size="10.00" fill="#000000">*</text>
</g>
<!-- A10 -->
<g id="node11" class="node">
<title>A10</title>
<polygon fill="none" stroke="#000000" points="1611.065,-240 1611.065,-272 1729.065,-272 1729.065,-240 1611.065,-240"/>
<text text-anchor="start" x="1634.2265" y="-253" font-family="Helvetica,sans-Serif" font-size="10.00" fill="#000000">ValorEstadistica</text>
<polygon fill="none" stroke="#000000" points="1611.065,-196 1611.065,-240 1729.065,-240 1729.065,-196 1611.065,-196"/>
<text text-anchor="start" x="1647.5645" y="-221" font-family="Helvetica,sans-Serif" font-size="10.00" fill="#000000">valor:Real</text>
<text text-anchor="start" x="1620.8885" y="-209" font-family="Helvetica,sans-Serif" font-size="10.00" fill="#000000">estadistica:Estadistica</text>
</g>
<!-- A10&#45;&gt;A2JA9 -->
<g id="edge12" class="edge">
<title>A10&#45;&gt;A2JA9</title>
<path fill="none" stroke="#000000" stroke-dasharray="5,2" d="M1670.065,-195.8008C1670.065,-193.3591 1670.065,-190.9174 1670.065,-188.4756"/>
<polygon fill="#000000" stroke="#000000" points="1670.065,-178.4375 1674.5651,-188.4375 1670.065,-183.4375 1670.0651,-188.4375 1670.0651,-188.4375 1670.0651,-188.4375 1670.065,-183.4375 1665.5651,-188.4375 1670.065,-178.4375 1670.065,-178.4375"/>
</g>
<!-- A11&#45;&gt;A4 -->
<g id="edge16" class="edge">
<title>A11&#45;&gt;A4</title>
<path fill="none" stroke="#000000" d="M535.502,-221.1748C545.0035,-224.7286 554.7512,-228.3745 564.3563,-231.967"/>
<polygon fill="none" stroke="#000000" points="535.2567,-221.0831 528.2356,-222.7276 524.0171,-216.8791 531.0382,-215.2346 535.2567,-221.0831"/>
<polygon fill="#000000" stroke="#000000" points="573.8995,-235.5364 562.9567,-236.248 569.2163,-233.7848 564.5332,-232.0331 564.5332,-232.0331 564.5332,-232.0331 569.2163,-233.7848 566.1097,-227.8183 573.8995,-235.5364 573.8995,-235.5364"/>
<text text-anchor="middle" x="553.9609" y="-234.1031" font-family="Helvetica,sans-Serif" font-size="10.00" fill="#000000">2</text>
<text text-anchor="middle" x="543.9557" y="-212.3124" font-family="Helvetica,sans-Serif" font-size="10.00" fill="#000000">*</text>
</g>
<!-- A12 -->
<g id="node13" class="node">
<title>A12</title>
<polygon fill="none" stroke="#000000" points="776.5,-89 776.5,-121 977.5,-121 977.5,-89 776.5,-89"/>
<text text-anchor="start" x="840.607" y="-102" font-family="Helvetica,sans-Serif" font-size="10.00" fill="#000000">RegistroReporte</text>
<polygon fill="none" stroke="#000000" points="776.5,-45 776.5,-89 977.5,-89 977.5,-45 776.5,-45"/>
<text text-anchor="start" x="786.427" y="-70" font-family="Helvetica,sans-Serif" font-size="10.00" fill="#000000">estadisticaParticipanteA:ValorEstadistica</text>
<text text-anchor="start" x="786.427" y="-58" font-family="Helvetica,sans-Serif" font-size="10.00" fill="#000000">estadisticaParticipanteB:ValorEstadistica</text>
</g>
<!-- A11&#45;&gt;A12 -->
<g id="edge14" class="edge">
<title>A11&#45;&gt;A12</title>
<path fill="none" stroke="#000000" d="M536.2313,-171.5186C601.0138,-154.6659 693.5946,-130.5816 765.8352,-111.7887"/>
<polygon fill="none" stroke="#000000" points="535.9686,-171.5869 531.1689,-176.9686 524.3551,-174.6081 529.1548,-169.2263 535.9686,-171.5869"/>
<polygon fill="#000000" stroke="#000000" points="775.8887,-109.1733 767.3438,-116.0461 771.0498,-110.4322 766.2108,-111.6911 766.2108,-111.6911 766.2108,-111.6911 771.0498,-110.4322 765.0778,-107.336 775.8887,-109.1733 775.8887,-109.1733"/>
<text text-anchor="middle" x="760.4744" y="-118.917" font-family="Helvetica,sans-Serif" font-size="10.00" fill="#000000">registros*</text>
<text text-anchor="middle" x="539.7694" y="-158.8645" font-family="Helvetica,sans-Serif" font-size="10.00" fill="#000000">1</text>
</g>
<!-- A12&#45;&gt;A10 -->
<g id="edge15" class="edge">
<title>A12&#45;&gt;A10</title>
<path fill="none" stroke="#000000" d="M989.3098,-103.1851C1087.5662,-120.8946 1233.8171,-147.5635 1361,-172 1443.4726,-187.846 1538.1265,-206.973 1600.723,-219.7535"/>
<polygon fill="none" stroke="#000000" points="989.0806,-103.1439 982.4665,-106.017 977.2706,-101.0168 983.8846,-98.1437 989.0806,-103.1439"/>
<polygon fill="#000000" stroke="#000000" points="1610.8715,-221.8273 1600.173,-224.234 1605.9728,-220.8262 1601.074,-219.8251 1601.074,-219.8251 1601.074,-219.8251 1605.9728,-220.8262 1601.975,-215.4162 1610.8715,-221.8273 1610.8715,-221.8273"/>
<text text-anchor="middle" x="1591.4201" y="-223.4795" font-family="Helvetica,sans-Serif" font-size="10.00" fill="#000000">2</text>
<text text-anchor="middle" x="996.6079" y="-92.9112" font-family="Helvetica,sans-Serif" font-size="10.00" fill="#000000">*</text>
</g>
<!-- A2JA9&#45;&gt;A9 -->
<g id="edge11" class="edge">
<title>A2JA9&#45;&gt;A9</title>
<path fill="none" stroke="#000000" d="M1670.5986,-178C1677.6303,-178 1752.6442,-178 1805.086,-178"/>
<polygon fill="#000000" stroke="#000000" points="1815.2465,-178 1805.2466,-182.5001 1810.2465,-178 1805.2465,-178.0001 1805.2465,-178.0001 1805.2465,-178.0001 1810.2465,-178 1805.2465,-173.5001 1815.2465,-178 1815.2465,-178"/>
<text text-anchor="middle" x="1797.1204" y="-183.4524" font-family="Helvetica,sans-Serif" font-size="10.00" fill="#000000">*</text>
</g>
</g>
</svg>
