<?xml version="1.0" encoding="UTF-8" standalone="no"?>
<!DOCTYPE svg PUBLIC "-//W3C//DTD SVG 1.1//EN"
 "http://www.w3.org/Graphics/SVG/1.1/DTD/svg11.dtd">
<!-- Generated by graphviz version 2.40.1 (20161225.0304)
 -->
<!-- Title: G Pages: 1 -->
<svg width="1091pt" height="370pt"
 viewBox="0.00 0.00 1091.00 370.00" xmlns="http://www.w3.org/2000/svg" xmlns:xlink="http://www.w3.org/1999/xlink">
<g id="graph0" class="graph" transform="scale(1 1) rotate(0) translate(4 366)">
<title>G</title>
<polygon fill="#ffffff" stroke="transparent" points="-4,4 -4,-366 1087,-366 1087,4 -4,4"/>
<!-- A0 -->
<g id="node1" class="node">
<title>A0</title>
<polygon fill="none" stroke="#000000" points="0,-222 0,-254 160,-254 160,-222 0,-222"/>
<text text-anchor="start" x="64.163" y="-235" font-family="Helvetica,sans-Serif" font-size="10.00" fill="#000000">Torneo</text>
<polygon fill="none" stroke="#000000" points="0,-118 0,-222 160,-222 160,-118 0,-118"/>
<text text-anchor="start" x="49.1605" y="-203" font-family="Helvetica,sans-Serif" font-size="10.00" fill="#000000">nombre:Texto</text>
<text text-anchor="start" x="40.822" y="-191" font-family="Helvetica,sans-Serif" font-size="10.00" fill="#000000">fechaInicio:Fecha</text>
<text text-anchor="start" x="11.6515" y="-179" font-family="Helvetica,sans-Serif" font-size="10.00" fill="#000000">fechaInicioInscripciones:Fecha</text>
<text text-anchor="start" x="9.712" y="-167" font-family="Helvetica,sans-Serif" font-size="10.00" fill="#000000">fechaCierreInscripciones:Fecha</text>
<text text-anchor="start" x="18.042" y="-155" font-family="Helvetica,sans-Serif" font-size="10.00" fill="#000000">numeroParticipantes:Entero</text>
<text text-anchor="start" x="40.5485" y="-143" font-family="Helvetica,sans-Serif" font-size="10.00" fill="#000000">limiteEdad:Entero</text>
<text text-anchor="start" x="29.1595" y="-131" font-family="Helvetica,sans-Serif" font-size="10.00" fill="#000000">valorInscripcion:Entero</text>
</g>
<!-- A1 -->
<g id="node2" class="node">
<title>A1</title>
<polygon fill="none" stroke="#000000" points="241.5,-318 241.5,-362 312.5,-362 312.5,-318 241.5,-318"/>
<text text-anchor="start" x="252.264" y="-343" font-family="Helvetica,sans-Serif" font-size="10.00" fill="#000000">&lt;&lt;Enum&gt;&gt;</text>
<text text-anchor="start" x="251.44" y="-331" font-family="Helvetica,sans-Serif" font-size="10.00" fill="#000000">TipoTorneo</text>
<polygon fill="none" stroke="#000000" points="241.5,-250 241.5,-318 312.5,-318 312.5,-250 241.5,-250"/>
<text text-anchor="start" x="260.6075" y="-299" font-family="Helvetica,sans-Serif" font-size="10.00" fill="#000000">LOCAL</text>
<text text-anchor="start" x="251.164" y="-287" font-family="Helvetica,sans-Serif" font-size="10.00" fill="#000000">REGIONAL</text>
<text text-anchor="start" x="251.444" y="-275" font-family="Helvetica,sans-Serif" font-size="10.00" fill="#000000">NACIONAL</text>
<text text-anchor="start" x="254.5035" y="-263" font-family="Helvetica,sans-Serif" font-size="10.00" fill="#000000">MUNDIAL</text>
</g>
<!-- A0&#45;&gt;A1 -->
<g id="edge3" class="edge">
<title>A0&#45;&gt;A1</title>
<path fill="none" stroke="#000000" d="M160.2075,-234.9817C184.7216,-249.9521 210.7876,-265.8703 232.0152,-278.8337"/>
<polygon fill="#000000" stroke="#000000" points="240.7978,-284.1972 229.918,-282.8257 236.5306,-281.5912 232.2634,-278.9852 232.2634,-278.9852 232.2634,-278.9852 236.5306,-281.5912 234.6088,-275.1447 240.7978,-284.1972 240.7978,-284.1972"/>
<text text-anchor="middle" x="220.923" y="-278.9637" font-family="Helvetica,sans-Serif" font-size="10.00" fill="#000000">tipoTorneo1</text>
<text text-anchor="middle" x="180.0824" y="-234.2152" font-family="Helvetica,sans-Serif" font-size="10.00" fill="#000000">*</text>
</g>
<!-- A2 -->
<g id="node3" class="node">
<title>A2</title>
<polygon fill="none" stroke="#000000" points="398.5,-216 398.5,-260 603.5,-260 603.5,-216 398.5,-216"/>
<text text-anchor="start" x="471.54" y="-241" font-family="Helvetica,sans-Serif" font-size="10.00" fill="#000000">&lt;&lt;abstract&gt;&gt;</text>
<text text-anchor="start" x="474.6055" y="-229" font-family="Helvetica,sans-Serif" font-size="10.00" fill="#000000">Participante</text>
<polygon fill="none" stroke="#000000" points="398.5,-184 398.5,-216 603.5,-216 603.5,-184 398.5,-184"/>
<text text-anchor="start" x="408.209" y="-197" font-family="Helvetica,sans-Serif" font-size="10.00" fill="#000000">estadisticas:RegistroEstadistica［*］</text>
</g>
<!-- A0&#45;&gt;A2 -->
<g id="edge4" class="edge">
<title>A0&#45;&gt;A2</title>
<path fill="none" stroke="#000000" d="M172.1092,-198.7954C184.8236,-200.3422 197.7257,-201.7973 210,-203 268.4785,-208.7299 333.7543,-213.174 387.5935,-216.3185"/>
<polygon fill="none" stroke="#000000" points="171.9115,-198.7708 165.4635,-201.9995 160.0032,-197.2894 166.4511,-194.0607 171.9115,-198.7708"/>
<polygon fill="#000000" stroke="#000000" points="397.8557,-216.9102 387.6132,-220.827 392.864,-216.6223 387.8723,-216.3345 387.8723,-216.3345 387.8723,-216.3345 392.864,-216.6223 388.1314,-211.8419 397.8557,-216.9102 397.8557,-216.9102"/>
<text text-anchor="middle" x="379.273" y="-221.3051" font-family="Helvetica,sans-Serif" font-size="10.00" fill="#000000">participantes*</text>
<text text-anchor="middle" x="179.0341" y="-188.1393" font-family="Helvetica,sans-Serif" font-size="10.00" fill="#000000">1</text>
</g>
<!-- A6 -->
<g id="node7" class="node">
<title>A6</title>
<polygon fill="none" stroke="#000000" points="231.5,-44 231.5,-88 321.5,-88 321.5,-44 231.5,-44"/>
<text text-anchor="start" x="251.764" y="-69" font-family="Helvetica,sans-Serif" font-size="10.00" fill="#000000">&lt;&lt;Enum&gt;&gt;</text>
<text text-anchor="start" x="241.4965" y="-57" font-family="Helvetica,sans-Serif" font-size="10.00" fill="#000000">CaracterTorneo</text>
<polygon fill="none" stroke="#000000" points="231.5,0 231.5,-44 321.5,-44 321.5,0 231.5,0"/>
<text text-anchor="start" x="248.445" y="-25" font-family="Helvetica,sans-Serif" font-size="10.00" fill="#000000">INDIVIDUAL</text>
<text text-anchor="start" x="255.943" y="-13" font-family="Helvetica,sans-Serif" font-size="10.00" fill="#000000">GRUPAL</text>
</g>
<!-- A0&#45;&gt;A6 -->
<g id="edge2" class="edge">
<title>A0&#45;&gt;A6</title>
<path fill="none" stroke="#000000" d="M160.2075,-128.0384C181.4716,-112.6719 203.9035,-96.4616 223.3322,-82.4215"/>
<polygon fill="#000000" stroke="#000000" points="231.4627,-76.546 225.9933,-86.0505 227.4101,-79.4746 223.3576,-82.4032 223.3576,-82.4032 223.3576,-82.4032 227.4101,-79.4746 220.7218,-78.7559 231.4627,-76.546 231.4627,-76.546"/>
<text text-anchor="middle" x="221.7219" y="-91.0136" font-family="Helvetica,sans-Serif" font-size="10.00" fill="#000000">caracter1</text>
<text text-anchor="middle" x="169.9483" y="-107.5708" font-family="Helvetica,sans-Serif" font-size="10.00" fill="#000000">*</text>
</g>
<!-- A9 -->
<g id="node10" class="node">
<title>A9</title>
<polygon fill="none" stroke="#000000" points="210.5,-162 210.5,-194 343.5,-194 343.5,-162 210.5,-162"/>
<text text-anchor="start" x="259.2185" y="-175" font-family="Helvetica,sans-Serif" font-size="10.00" fill="#000000">Reporte</text>
<polygon fill="none" stroke="#000000" points="210.5,-106 210.5,-162 343.5,-162 343.5,-106 210.5,-106"/>
<text text-anchor="start" x="249.4895" y="-143" font-family="Helvetica,sans-Serif" font-size="10.00" fill="#000000">fecha:Fecha</text>
<text text-anchor="start" x="220.042" y="-131" font-family="Helvetica,sans-Serif" font-size="10.00" fill="#000000">participanteA:Participante</text>
<text text-anchor="start" x="220.042" y="-119" font-family="Helvetica,sans-Serif" font-size="10.00" fill="#000000">participanteB:Participante</text>
</g>
<!-- A0&#45;&gt;A9 -->
<g id="edge1" class="edge">
<title>A0&#45;&gt;A9</title>
<path fill="none" stroke="#000000" stroke-dasharray="5,2" d="M160.2075,-171.3055C173.1867,-168.9276 186.6009,-166.4701 199.5017,-164.1066"/>
<polygon fill="#000000" stroke="#000000" points="209.7197,-162.2346 200.6944,-168.463 204.8016,-163.1356 199.8834,-164.0367 199.8834,-164.0367 199.8834,-164.0367 204.8016,-163.1356 199.0724,-159.6104 209.7197,-162.2346 209.7197,-162.2346"/>
</g>
<!-- A3 -->
<g id="node4" class="node">
<title>A3</title>
<polygon fill="none" stroke="#000000" points="677,-220 677,-252 758,-252 758,-220 677,-220"/>
<text text-anchor="start" x="701.938" y="-233" font-family="Helvetica,sans-Serif" font-size="10.00" fill="#000000">Equipo</text>
<polygon fill="none" stroke="#000000" points="677,-188 677,-220 758,-220 758,-188 677,-188"/>
<text text-anchor="start" x="686.6605" y="-201" font-family="Helvetica,sans-Serif" font-size="10.00" fill="#000000">nombre:Texto</text>
</g>
<!-- A2&#45;&gt;A3 -->
<g id="edge9" class="edge">
<title>A2&#45;&gt;A3</title>
<path fill="none" stroke="#000000" d="M613.1122,-220.9597C635.7828,-220.7503 658.1978,-220.5432 676.3713,-220.3753"/>
<polygon fill="none" stroke="#000000" points="613.0111,-217.4604 603.0439,-221.0527 613.0758,-224.4601 613.0111,-217.4604"/>
</g>
<!-- A5 -->
<g id="node6" class="node">
<title>A5</title>
<polygon fill="none" stroke="#000000" points="958.5,-220 958.5,-252 1083.5,-252 1083.5,-220 958.5,-220"/>
<text text-anchor="start" x="1002.938" y="-233" font-family="Helvetica,sans-Serif" font-size="10.00" fill="#000000">Jugador</text>
<polygon fill="none" stroke="#000000" points="958.5,-188 958.5,-220 1083.5,-220 1083.5,-188 958.5,-188"/>
<text text-anchor="start" x="968.489" y="-201" font-family="Helvetica,sans-Serif" font-size="10.00" fill="#000000">fechaNacimiento:Fecha</text>
</g>
<!-- A2&#45;&gt;A5 -->
<g id="edge8" class="edge">
<title>A2&#45;&gt;A5</title>
<path fill="none" stroke="#000000" d="M612.9855,-260.448C695.4777,-283.1709 809.7542,-303.1992 908,-279 930.1637,-273.5408 952.7948,-262.852 971.8925,-252.0545"/>
<polygon fill="none" stroke="#000000" points="613.9133,-257.0733 603.3394,-257.7389 612.0205,-263.8125 613.9133,-257.0733"/>
</g>
<!-- A2JA7 -->
<!-- A2&#45;&gt;A2JA7 -->
<g id="edge10" class="edge">
<title>A2&#45;&gt;A2JA7</title>
<path fill="none" stroke="#000000" d="M596.9931,-183.9619C600.8625,-181.16 604.5557,-178.1756 608,-175 642.5018,-143.1897 619.6549,-109.0541 658,-82 678.3194,-67.6638 712.3954,-72.2978 716.5755,-72.9331"/>
<text text-anchor="middle" x="606.6245" y="-163.4338" font-family="Helvetica,sans-Serif" font-size="10.00" fill="#000000">*</text>
</g>
<!-- A4 -->
<g id="node5" class="node">
<title>A4</title>
<polygon fill="none" stroke="#000000" points="826,-238 826,-270 908,-270 908,-238 826,-238"/>
<text text-anchor="start" x="848.383" y="-251" font-family="Helvetica,sans-Serif" font-size="10.00" fill="#000000">Persona</text>
<polygon fill="none" stroke="#000000" points="826,-170 826,-238 908,-238 908,-170 826,-170"/>
<text text-anchor="start" x="836.1605" y="-219" font-family="Helvetica,sans-Serif" font-size="10.00" fill="#000000">nombre:Texto</text>
<text text-anchor="start" x="835.8815" y="-207" font-family="Helvetica,sans-Serif" font-size="10.00" fill="#000000">apellido:Texto</text>
<text text-anchor="start" x="841.165" y="-195" font-family="Helvetica,sans-Serif" font-size="10.00" fill="#000000">email:Texto</text>
<text text-anchor="start" x="838.3855" y="-183" font-family="Helvetica,sans-Serif" font-size="10.00" fill="#000000">celular:Texto</text>
</g>
<!-- A3&#45;&gt;A4 -->
<g id="edge5" class="edge">
<title>A3&#45;&gt;A4</title>
<path fill="none" stroke="#000000" d="M769.6673,-220C784.6407,-220 800.9208,-220 815.8053,-220"/>
<polygon fill="none" stroke="#000000" points="769.5922,-220.0001 763.5921,-224 757.5922,-220 763.5922,-216 769.5922,-220.0001"/>
<polygon fill="#000000" stroke="#000000" points="825.8538,-220 815.8538,-224.5001 820.8538,-220 815.8538,-220.0001 815.8538,-220.0001 815.8538,-220.0001 820.8538,-220 815.8537,-215.5001 825.8538,-220 825.8538,-220"/>
<text text-anchor="middle" x="807.7276" y="-225.4524" font-family="Helvetica,sans-Serif" font-size="10.00" fill="#000000">representante1</text>
<text text-anchor="middle" x="775.7183" y="-208.5476" font-family="Helvetica,sans-Serif" font-size="10.00" fill="#000000">1</text>
</g>
<!-- A3&#45;&gt;A5 -->
<g id="edge7" class="edge">
<title>A3&#45;&gt;A5</title>
<path fill="none" stroke="#000000" d="M768.2384,-185.5021C785.7896,-175.5668 806.0484,-166.0533 826,-161 861.3289,-152.0519 872.6132,-152.2838 908,-161 926.7006,-165.6062 945.734,-173.9355 962.6969,-182.9117"/>
<polygon fill="none" stroke="#000000" points="768.0313,-185.6238 764.8868,-192.1132 757.6872,-191.7066 760.8316,-185.2172 768.0313,-185.6238"/>
<polygon fill="#000000" stroke="#000000" points="971.8925,-187.9455 960.96,-187.091 967.5067,-185.5446 963.1208,-183.1437 963.1208,-183.1437 963.1208,-183.1437 967.5067,-185.5446 965.2816,-179.1964 971.8925,-187.9455 971.8925,-187.9455"/>
<text text-anchor="middle" x="951.9341" y="-183.6559" font-family="Helvetica,sans-Serif" font-size="10.00" fill="#000000">jugador*</text>
<text text-anchor="middle" x="769.0276" y="-172.2326" font-family="Helvetica,sans-Serif" font-size="10.00" fill="#000000">1</text>
</g>
<!-- A4&#45;&gt;A5 -->
<g id="edge6" class="edge">
<title>A4&#45;&gt;A5</title>
<path fill="none" stroke="#000000" d="M918.4712,-220C931.1059,-220 944.7694,-220 957.865,-220"/>
<polygon fill="none" stroke="#000000" points="918.1352,-216.5001 908.1352,-220 918.1351,-223.5001 918.1352,-216.5001"/>
</g>
<!-- A7 -->
<g id="node8" class="node">
<title>A7</title>
<polygon fill="none" stroke="#000000" points="827,-73 827,-105 908,-105 908,-73 827,-73"/>
<text text-anchor="start" x="843.329" y="-86" font-family="Helvetica,sans-Serif" font-size="10.00" fill="#000000">Estadistica</text>
<polygon fill="none" stroke="#000000" points="827,-41 827,-73 908,-73 908,-41 827,-41"/>
<text text-anchor="start" x="836.6605" y="-54" font-family="Helvetica,sans-Serif" font-size="10.00" fill="#000000">nombre:Texto</text>
</g>
<!-- A11 -->
<g id="node12" class="node">
<title>A11</title>
<polygon fill="none" stroke="#000000" points="977.5,-79 977.5,-123 1064.5,-123 1064.5,-79 977.5,-79"/>
<text text-anchor="start" x="996.264" y="-104" font-family="Helvetica,sans-Serif" font-size="10.00" fill="#000000">&lt;&lt;Enum&gt;&gt;</text>
<text text-anchor="start" x="987.106" y="-92" font-family="Helvetica,sans-Serif" font-size="10.00" fill="#000000">TipoEstadistica</text>
<polygon fill="none" stroke="#000000" points="977.5,-23 977.5,-79 1064.5,-79 1064.5,-23 977.5,-23"/>
<text text-anchor="start" x="997.939" y="-60" font-family="Helvetica,sans-Serif" font-size="10.00" fill="#000000">POSITIVA</text>
<text text-anchor="start" x="995.719" y="-48" font-family="Helvetica,sans-Serif" font-size="10.00" fill="#000000">NEGATIVA</text>
<text text-anchor="start" x="1000.448" y="-36" font-family="Helvetica,sans-Serif" font-size="10.00" fill="#000000">NEUTRA</text>
</g>
<!-- A7&#45;&gt;A11 -->
<g id="edge13" class="edge">
<title>A7&#45;&gt;A11</title>
<path fill="none" stroke="#000000" d="M907.7322,-73C925.8012,-73 947.3148,-73 966.6829,-73"/>
<polygon fill="#000000" stroke="#000000" points="976.8852,-73 966.8852,-77.5001 971.8852,-73 966.8852,-73.0001 966.8852,-73.0001 966.8852,-73.0001 971.8852,-73 966.8852,-68.5001 976.8852,-73 976.8852,-73"/>
<text text-anchor="middle" x="958.759" y="-78.4524" font-family="Helvetica,sans-Serif" font-size="10.00" fill="#000000">tipo1</text>
<text text-anchor="middle" x="925.8583" y="-61.5476" font-family="Helvetica,sans-Serif" font-size="10.00" fill="#000000">*</text>
</g>
<!-- A8 -->
<g id="node9" class="node">
<title>A8</title>
<polygon fill="none" stroke="#000000" points="658,-135 658,-167 776,-167 776,-135 658,-135"/>
<text text-anchor="start" x="674.2175" y="-148" font-family="Helvetica,sans-Serif" font-size="10.00" fill="#000000">RegistroEstadistica</text>
<polygon fill="none" stroke="#000000" points="658,-91 658,-135 776,-135 776,-91 658,-91"/>
<text text-anchor="start" x="694.4995" y="-116" font-family="Helvetica,sans-Serif" font-size="10.00" fill="#000000">valor:Real</text>
<text text-anchor="start" x="667.8235" y="-104" font-family="Helvetica,sans-Serif" font-size="10.00" fill="#000000">estadistica:Estadistica</text>
</g>
<!-- A8&#45;&gt;A2JA7 -->
<g id="edge12" class="edge">
<title>A8&#45;&gt;A2JA7</title>
<path fill="none" stroke="#000000" stroke-dasharray="5,2" d="M717,-90.8008C717,-88.3591 717,-85.9174 717,-83.4756"/>
<polygon fill="#000000" stroke="#000000" points="717,-73.4375 721.5001,-83.4375 717,-78.4375 717.0001,-83.4375 717.0001,-83.4375 717.0001,-83.4375 717,-78.4375 712.5001,-83.4375 717,-73.4375 717,-73.4375"/>
</g>
<!-- A9&#45;&gt;A2 -->
<g id="edge16" class="edge">
<title>A9&#45;&gt;A2</title>
<path fill="none" stroke="#000000" d="M354.581,-175.0975C365.338,-178.5551 376.556,-182.1608 387.7835,-185.7697"/>
<polygon fill="none" stroke="#000000" points="354.5253,-175.0796 347.589,-177.0516 343.1009,-171.4074 350.0371,-169.4354 354.5253,-175.0796"/>
<polygon fill="#000000" stroke="#000000" points="397.6413,-188.9383 386.7439,-190.1622 392.8811,-187.4082 388.121,-185.8781 388.121,-185.8781 388.121,-185.8781 392.8811,-187.4082 389.4981,-181.594 397.6413,-188.9383 397.6413,-188.9383"/>
<text text-anchor="middle" x="377.7982" y="-188.4384" font-family="Helvetica,sans-Serif" font-size="10.00" fill="#000000">2</text>
<text text-anchor="middle" x="362.944" y="-165.9073" font-family="Helvetica,sans-Serif" font-size="10.00" fill="#000000">*</text>
</g>
<!-- A10 -->
<g id="node11" class="node">
<title>A10</title>
<polygon fill="none" stroke="#000000" points="393.5,-134 393.5,-166 608.5,-166 608.5,-134 393.5,-134"/>
<text text-anchor="start" x="464.607" y="-147" font-family="Helvetica,sans-Serif" font-size="10.00" fill="#000000">RegistroReporte</text>
<polygon fill="none" stroke="#000000" points="393.5,-90 393.5,-134 608.5,-134 608.5,-90 393.5,-90"/>
<text text-anchor="start" x="403.483" y="-115" font-family="Helvetica,sans-Serif" font-size="10.00" fill="#000000">estadisticaParticipanteA:RegistroEstadistica</text>
<text text-anchor="start" x="403.483" y="-103" font-family="Helvetica,sans-Serif" font-size="10.00" fill="#000000">estadisticaParticipanteB:RegistroEstadistica</text>
</g>
<!-- A9&#45;&gt;A10 -->
<g id="edge14" class="edge">
<title>A9&#45;&gt;A10</title>
<path fill="none" stroke="#000000" d="M355.0456,-142.2857C363.977,-141.4085 373.221,-140.5006 382.52,-139.5873"/>
<polygon fill="none" stroke="#000000" points="355.0434,-142.2858 349.4632,-146.8532 343.1009,-143.4588 348.6812,-138.8915 355.0434,-142.2858"/>
<polygon fill="#000000" stroke="#000000" points="392.62,-138.5954 383.1077,-144.0513 387.6439,-139.0841 382.6678,-139.5729 382.6678,-139.5729 382.6678,-139.5729 387.6439,-139.0841 382.228,-135.0944 392.62,-138.5954 392.62,-138.5954"/>
<text text-anchor="middle" x="375.4068" y="-145.779" font-family="Helvetica,sans-Serif" font-size="10.00" fill="#000000">registros*</text>
<text text-anchor="middle" x="360.3141" y="-130.2752" font-family="Helvetica,sans-Serif" font-size="10.00" fill="#000000">1</text>
</g>
<!-- A10&#45;&gt;A8 -->
<g id="edge15" class="edge">
<title>A10&#45;&gt;A8</title>
<path fill="none" stroke="#000000" d="M620.5093,-128.5543C629.7668,-128.5971 638.9082,-128.6393 647.6584,-128.6797"/>
<polygon fill="none" stroke="#000000" points="620.1156,-128.5526 614.0972,-132.5248 608.1157,-128.4971 614.1342,-124.5249 620.1156,-128.5526"/>
<polygon fill="#000000" stroke="#000000" points="657.7342,-128.7263 647.7135,-133.1799 652.7343,-128.7031 647.7343,-128.68 647.7343,-128.68 647.7343,-128.68 652.7343,-128.7031 647.7551,-124.18 657.7342,-128.7263 657.7342,-128.7263"/>
<text text-anchor="middle" x="639.5692" y="-134.0948" font-family="Helvetica,sans-Serif" font-size="10.00" fill="#000000">2</text>
<text text-anchor="middle" x="626.2807" y="-117.1285" font-family="Helvetica,sans-Serif" font-size="10.00" fill="#000000">*</text>
</g>
<!-- A2JA7&#45;&gt;A7 -->
<g id="edge11" class="edge">
<title>A2JA7&#45;&gt;A7</title>
<path fill="none" stroke="#000000" d="M717.4303,-73C722.6738,-73 774.7929,-73 816.0515,-73"/>
<polygon fill="#000000" stroke="#000000" points="826.2718,-73 816.2719,-77.5001 821.2718,-73 816.2718,-73.0001 816.2718,-73.0001 816.2718,-73.0001 821.2718,-73 816.2718,-68.5001 826.2718,-73 826.2718,-73"/>
<text text-anchor="middle" x="808.1457" y="-78.4524" font-family="Helvetica,sans-Serif" font-size="10.00" fill="#000000">*</text>
</g>
</g>
</svg>
