<?xml version="1.0" encoding="UTF-8" standalone="no"?>
<!DOCTYPE svg PUBLIC "-//W3C//DTD SVG 1.1//EN"
 "http://www.w3.org/Graphics/SVG/1.1/DTD/svg11.dtd">
<!-- Generated by graphviz version 2.40.1 (20161225.0304)
 -->
<!-- Title: G Pages: 1 -->
<svg width="2336pt" height="584pt"
 viewBox="0.00 0.00 2336.00 584.00" xmlns="http://www.w3.org/2000/svg" xmlns:xlink="http://www.w3.org/1999/xlink">
<g id="graph0" class="graph" transform="scale(1 1) rotate(0) translate(4 580)">
<title>G</title>
<polygon fill="#ffffff" stroke="transparent" points="-4,4 -4,-580 2332,-580 2332,4 -4,4"/>
<!-- A0 -->
<g id="node1" class="node">
<title>A0</title>
<polygon fill="none" stroke="#000000" points="0,-544 0,-576 346,-576 346,-544 0,-544"/>
<text text-anchor="start" x="157.163" y="-557" font-family="Helvetica,sans-Serif" font-size="10.00" fill="#000000">Torneo</text>
<polygon fill="none" stroke="#000000" points="0,-440 0,-544 346,-544 346,-440 0,-440"/>
<text text-anchor="start" x="142.1605" y="-525" font-family="Helvetica,sans-Serif" font-size="10.00" fill="#000000">nombre:Texto</text>
<text text-anchor="start" x="133.822" y="-513" font-family="Helvetica,sans-Serif" font-size="10.00" fill="#000000">fechaInicio:Fecha</text>
<text text-anchor="start" x="104.6515" y="-501" font-family="Helvetica,sans-Serif" font-size="10.00" fill="#000000">fechaInicioInscripciones:Fecha</text>
<text text-anchor="start" x="102.712" y="-489" font-family="Helvetica,sans-Serif" font-size="10.00" fill="#000000">fechaCierreInscripciones:Fecha</text>
<text text-anchor="start" x="111.042" y="-477" font-family="Helvetica,sans-Serif" font-size="10.00" fill="#000000">numeroParticipantes:Entero</text>
<text text-anchor="start" x="133.5485" y="-465" font-family="Helvetica,sans-Serif" font-size="10.00" fill="#000000">limiteEdad:Entero</text>
<text text-anchor="start" x="122.1595" y="-453" font-family="Helvetica,sans-Serif" font-size="10.00" fill="#000000">valorInscripcion:Entero</text>
<polygon fill="none" stroke="#000000" points="0,0 0,-440 346,-440 346,0 0,0"/>
<text text-anchor="start" x="111.741" y="-421" font-family="Helvetica,sans-Serif" font-size="10.00" fill="#000000">+Constructor(nombre:Texto</text>
<text text-anchor="start" x="133.822" y="-409" font-family="Helvetica,sans-Serif" font-size="10.00" fill="#000000">fechaInicio:Fecha</text>
<text text-anchor="start" x="104.6515" y="-397" font-family="Helvetica,sans-Serif" font-size="10.00" fill="#000000">fechaInicioInscripciones:Fecha</text>
<text text-anchor="start" x="102.712" y="-385" font-family="Helvetica,sans-Serif" font-size="10.00" fill="#000000">fechaCierreInscripciones:Fecha</text>
<text text-anchor="start" x="111.042" y="-373" font-family="Helvetica,sans-Serif" font-size="10.00" fill="#000000">numeroParticipantes:Entero</text>
<text text-anchor="start" x="133.5485" y="-361" font-family="Helvetica,sans-Serif" font-size="10.00" fill="#000000">limiteEdad:Entero</text>
<text text-anchor="start" x="122.1595" y="-349" font-family="Helvetica,sans-Serif" font-size="10.00" fill="#000000">valorInscripcion:Entero</text>
<text text-anchor="start" x="122.1555" y="-337" font-family="Helvetica,sans-Serif" font-size="10.00" fill="#000000">tipoTorneo:TipoTorneo</text>
<text text-anchor="start" x="12.288" y="-325" font-family="Helvetica,sans-Serif" font-size="10.00" fill="#000000">caracter:CaracterTorneo)+registrarParticipante(participante:Participante)</text>
<text text-anchor="start" x="128.1335" y="-313" font-family="Helvetica,sans-Serif" font-size="10.00" fill="#000000">+getNombre():Texto</text>
<text text-anchor="start" x="118.96" y="-301" font-family="Helvetica,sans-Serif" font-size="10.00" fill="#000000">+getFechaInicio():Fecha</text>
<text text-anchor="start" x="89.7895" y="-289" font-family="Helvetica,sans-Serif" font-size="10.00" fill="#000000">+getFechaInicioInscripciones():Fecha</text>
<text text-anchor="start" x="87.85" y="-277" font-family="Helvetica,sans-Serif" font-size="10.00" fill="#000000">+getFechaCierreInscripciones():Fecha</text>
<text text-anchor="start" x="97.015" y="-265" font-family="Helvetica,sans-Serif" font-size="10.00" fill="#000000">+getNumeroParticipantes():Entero</text>
<text text-anchor="start" x="118.6815" y="-253" font-family="Helvetica,sans-Serif" font-size="10.00" fill="#000000">+getLimiteEdad():Entero</text>
<text text-anchor="start" x="108.128" y="-241" font-family="Helvetica,sans-Serif" font-size="10.00" fill="#000000">+getValorInscripcion():Entero</text>
<text text-anchor="start" x="107.2935" y="-229" font-family="Helvetica,sans-Serif" font-size="10.00" fill="#000000">+getTipoTorneo():TipoTorneo</text>
<text text-anchor="start" x="80.6215" y="-217" font-family="Helvetica,sans-Serif" font-size="10.00" fill="#000000">+getParticipantes():Participante［*］</text>
<text text-anchor="start" x="104.2435" y="-205" font-family="Helvetica,sans-Serif" font-size="10.00" fill="#000000">+getCaracter():CaracterTorneo</text>
<text text-anchor="start" x="95.344" y="-193" font-family="Helvetica,sans-Serif" font-size="10.00" fill="#000000">+setFechaInicio(fechaInicio:Fecha)</text>
<text text-anchor="start" x="37.003" y="-181" font-family="Helvetica,sans-Serif" font-size="10.00" fill="#000000">+setFechaInicioInscripciones(fechaInicioInscripciones:Fecha)</text>
<text text-anchor="start" x="33.124" y="-169" font-family="Helvetica,sans-Serif" font-size="10.00" fill="#000000">+setFechaCierreInscripciones(fechaCierreInscripciones:Fecha)</text>
<text text-anchor="start" x="69.65" y="-157" font-family="Helvetica,sans-Serif" font-size="10.00" fill="#000000">buscarParticipante(nombre:Texto):Participante</text>
<text text-anchor="start" x="60.8875" y="-145" font-family="Helvetica,sans-Serif" font-size="10.00" fill="#000000">+registrarJugador(equipo:Equipo,jugador:Jugador)</text>
<text text-anchor="start" x="46.4445" y="-133" font-family="Helvetica,sans-Serif" font-size="10.00" fill="#000000">+registrarJugador(nombreEquipo:Texto,jugador:Jugador)</text>
<text text-anchor="start" x="45.896" y="-121" font-family="Helvetica,sans-Serif" font-size="10.00" fill="#000000">+registrarEstadisticaParticipante(participante:Participante</text>
<text text-anchor="start" x="110.4915" y="-109" font-family="Helvetica,sans-Serif" font-size="10.00" fill="#000000">estadistica:ValorEstadistica)</text>
<text text-anchor="start" x="85.0685" y="-97" font-family="Helvetica,sans-Serif" font-size="10.00" fill="#000000">+getEstadisticas():Estadistica［*］</text>
<text text-anchor="start" x="62.2905" y="-85" font-family="Helvetica,sans-Serif" font-size="10.00" fill="#000000">+buscarMejor(estadistica:Estadistica):Participante</text>
<text text-anchor="start" x="71.1735" y="-73" font-family="Helvetica,sans-Serif" font-size="10.00" fill="#000000">+buscarSuperiorIgualA(estadistica:Estadistica</text>
<text text-anchor="start" x="98.548" y="-61" font-family="Helvetica,sans-Serif" font-size="10.00" fill="#000000">valor:Real):Participante［*］</text>
<text text-anchor="start" x="85.346" y="-49" font-family="Helvetica,sans-Serif" font-size="10.00" fill="#000000">+buscarInferiorA(estadistica:Estadistica</text>
<text text-anchor="start" x="98.548" y="-37" font-family="Helvetica,sans-Serif" font-size="10.00" fill="#000000">valor:Real):Participante［*］</text>
<text text-anchor="start" x="60.9005" y="-25" font-family="Helvetica,sans-Serif" font-size="10.00" fill="#000000">+promedioEstadistica(estadistica:Estadistica):Real</text>
<text text-anchor="start" x="9.7745" y="-13" font-family="Helvetica,sans-Serif" font-size="10.00" fill="#000000">+obtenerEstadisticas(participante:Participante):ValorEstadistica［*］</text>
</g>
<!-- A1 -->
<g id="node2" class="node">
<title>A1</title>
<polygon fill="none" stroke="#000000" points="427.5,-420 427.5,-464 498.5,-464 498.5,-420 427.5,-420"/>
<text text-anchor="start" x="438.264" y="-445" font-family="Helvetica,sans-Serif" font-size="10.00" fill="#000000">&lt;&lt;Enum&gt;&gt;</text>
<text text-anchor="start" x="437.44" y="-433" font-family="Helvetica,sans-Serif" font-size="10.00" fill="#000000">TipoTorneo</text>
<polygon fill="none" stroke="#000000" points="427.5,-352 427.5,-420 498.5,-420 498.5,-352 427.5,-352"/>
<text text-anchor="start" x="446.6075" y="-401" font-family="Helvetica,sans-Serif" font-size="10.00" fill="#000000">LOCAL</text>
<text text-anchor="start" x="437.164" y="-389" font-family="Helvetica,sans-Serif" font-size="10.00" fill="#000000">REGIONAL</text>
<text text-anchor="start" x="437.444" y="-377" font-family="Helvetica,sans-Serif" font-size="10.00" fill="#000000">NACIONAL</text>
<text text-anchor="start" x="440.5035" y="-365" font-family="Helvetica,sans-Serif" font-size="10.00" fill="#000000">MUNDIAL</text>
</g>
<!-- A0&#45;&gt;A1 -->
<g id="edge3" class="edge">
<title>A0&#45;&gt;A1</title>
<path fill="none" stroke="#000000" d="M346.0007,-359.7101C372.3593,-370.636 397.4177,-381.0229 417.4935,-389.3445"/>
<polygon fill="#000000" stroke="#000000" points="426.9325,-393.257 415.9715,-393.5848 422.3136,-391.3424 417.6947,-389.4278 417.6947,-389.4278 417.6947,-389.4278 422.3136,-391.3424 419.4178,-385.2708 426.9325,-393.257 426.9325,-393.257"/>
<text text-anchor="middle" x="406.9513" y="-391.1244" font-family="Helvetica,sans-Serif" font-size="10.00" fill="#000000">tipoTorneo1</text>
<text text-anchor="middle" x="365.9818" y="-355.8427" font-family="Helvetica,sans-Serif" font-size="10.00" fill="#000000">*</text>
</g>
<!-- A4 -->
<g id="node5" class="node">
<title>A4</title>
<polygon fill="none" stroke="#000000" points="579,-324 579,-368 799,-368 799,-324 579,-324"/>
<text text-anchor="start" x="658.151" y="-349" font-family="Helvetica,sans-Serif" font-size="10.00" fill="#000000">&lt;&lt;interface&gt;&gt;</text>
<text text-anchor="start" x="662.6055" y="-337" font-family="Helvetica,sans-Serif" font-size="10.00" fill="#000000">Participante</text>
<polygon fill="none" stroke="#000000" points="579,-280 579,-324 799,-324 799,-280 579,-280"/>
<text text-anchor="start" x="622.7425" y="-305" font-family="Helvetica,sans-Serif" font-size="10.00" fill="#000000">+getNombreCompleto():Texto</text>
<text text-anchor="start" x="588.8485" y="-293" font-family="Helvetica,sans-Serif" font-size="10.00" fill="#000000">+getRegistroEstadistica():RegistroEstadistica</text>
</g>
<!-- A0&#45;&gt;A4 -->
<g id="edge4" class="edge">
<title>A0&#45;&gt;A4</title>
<path fill="none" stroke="#000000" d="M358.3865,-302.2934C371.1146,-303.2252 383.7459,-304.1356 396,-305 452.7267,-309.0014 515.6548,-313.1235 568.6067,-316.5012"/>
<polygon fill="none" stroke="#000000" points="358.1305,-302.2747 351.8532,-305.8237 346.1628,-301.3943 352.4401,-297.8453 358.1305,-302.2747"/>
<polygon fill="#000000" stroke="#000000" points="578.7162,-317.1448 568.4504,-321.0003 573.7263,-316.8271 568.7364,-316.5094 568.7364,-316.5094 568.7364,-316.5094 573.7263,-316.8271 569.0223,-312.0185 578.7162,-317.1448 578.7162,-317.1448"/>
<text text-anchor="middle" x="560.0896" y="-321.4285" font-family="Helvetica,sans-Serif" font-size="10.00" fill="#000000">participantes*</text>
<text text-anchor="middle" x="364.8602" y="-291.2944" font-family="Helvetica,sans-Serif" font-size="10.00" fill="#000000">1</text>
</g>
<!-- A8 -->
<g id="node9" class="node">
<title>A8</title>
<polygon fill="none" stroke="#000000" points="417.5,-146 417.5,-190 507.5,-190 507.5,-146 417.5,-146"/>
<text text-anchor="start" x="437.764" y="-171" font-family="Helvetica,sans-Serif" font-size="10.00" fill="#000000">&lt;&lt;Enum&gt;&gt;</text>
<text text-anchor="start" x="427.4965" y="-159" font-family="Helvetica,sans-Serif" font-size="10.00" fill="#000000">CaracterTorneo</text>
<polygon fill="none" stroke="#000000" points="417.5,-102 417.5,-146 507.5,-146 507.5,-102 417.5,-102"/>
<text text-anchor="start" x="434.445" y="-127" font-family="Helvetica,sans-Serif" font-size="10.00" fill="#000000">INDIVIDUAL</text>
<text text-anchor="start" x="441.943" y="-115" font-family="Helvetica,sans-Serif" font-size="10.00" fill="#000000">GRUPAL</text>
</g>
<!-- A0&#45;&gt;A8 -->
<g id="edge2" class="edge">
<title>A0&#45;&gt;A8</title>
<path fill="none" stroke="#000000" d="M346.0007,-203.143C368.5206,-192.097 390.0914,-181.5165 408.4167,-172.5279"/>
<polygon fill="#000000" stroke="#000000" points="417.4159,-168.1138 410.4195,-176.5578 412.9268,-170.3157 408.4377,-172.5176 408.4377,-172.5176 408.4377,-172.5176 412.9268,-170.3157 406.456,-168.4775 417.4159,-168.1138 417.4159,-168.1138"/>
<text text-anchor="middle" x="404.8642" y="-180.6848" font-family="Helvetica,sans-Serif" font-size="10.00" fill="#000000">caracter1</text>
<text text-anchor="middle" x="358.5523" y="-184.572" font-family="Helvetica,sans-Serif" font-size="10.00" fill="#000000">*</text>
</g>
<!-- A11 -->
<g id="node12" class="node">
<title>A11</title>
<polygon fill="none" stroke="#000000" points="396.5,-264 396.5,-296 529.5,-296 529.5,-264 396.5,-264"/>
<text text-anchor="start" x="445.2185" y="-277" font-family="Helvetica,sans-Serif" font-size="10.00" fill="#000000">Reporte</text>
<polygon fill="none" stroke="#000000" points="396.5,-208 396.5,-264 529.5,-264 529.5,-208 396.5,-208"/>
<text text-anchor="start" x="435.4895" y="-245" font-family="Helvetica,sans-Serif" font-size="10.00" fill="#000000">fecha:Fecha</text>
<text text-anchor="start" x="406.042" y="-233" font-family="Helvetica,sans-Serif" font-size="10.00" fill="#000000">participanteA:Participante</text>
<text text-anchor="start" x="406.042" y="-221" font-family="Helvetica,sans-Serif" font-size="10.00" fill="#000000">participanteB:Participante</text>
</g>
<!-- A0&#45;&gt;A11 -->
<g id="edge1" class="edge">
<title>A0&#45;&gt;A11</title>
<path fill="none" stroke="#000000" stroke-dasharray="5,2" d="M346.0007,-266.487C359.68,-264.7859 373.0091,-263.1284 385.4734,-261.5784"/>
<polygon fill="#000000" stroke="#000000" points="395.7286,-260.3032 386.3604,-266.0029 390.7668,-260.9202 385.805,-261.5373 385.805,-261.5373 385.805,-261.5373 390.7668,-260.9202 385.2497,-257.0717 395.7286,-260.3032 395.7286,-260.3032"/>
</g>
<!-- A2 -->
<g id="node3" class="node">
<title>A2</title>
<polygon fill="none" stroke="#000000" points="1519.5,-373 1519.5,-417 1758.5,-417 1758.5,-373 1519.5,-373"/>
<text text-anchor="start" x="1608.151" y="-398" font-family="Helvetica,sans-Serif" font-size="10.00" fill="#000000">&lt;&lt;interface&gt;&gt;</text>
<text text-anchor="start" x="1596.2175" y="-386" font-family="Helvetica,sans-Serif" font-size="10.00" fill="#000000">RegistroEstadistica</text>
<polygon fill="none" stroke="#000000" points="1519.5,-305 1519.5,-373 1758.5,-373 1758.5,-305 1519.5,-305"/>
<text text-anchor="start" x="1539.401" y="-354" font-family="Helvetica,sans-Serif" font-size="10.00" fill="#000000">+getEstadisticas():ValorEstadistica［*］</text>
<text text-anchor="start" x="1529.4055" y="-342" font-family="Helvetica,sans-Serif" font-size="10.00" fill="#000000">+registrarEstadistica(estadistica:ValorEstadistica)</text>
<text text-anchor="start" x="1559.681" y="-330" font-family="Helvetica,sans-Serif" font-size="10.00" fill="#000000">+comparar(participante:Participante</text>
<text text-anchor="start" x="1572.0425" y="-318" font-family="Helvetica,sans-Serif" font-size="10.00" fill="#000000">estadistica:Estadistica):Entero</text>
</g>
<!-- A3 -->
<g id="node4" class="node">
<title>A3</title>
<polygon fill="none" stroke="#000000" points="1808.5,-377 1808.5,-409 1999.5,-409 1999.5,-377 1808.5,-377"/>
<text text-anchor="start" x="1851.7745" y="-390" font-family="Helvetica,sans-Serif" font-size="10.00" fill="#000000">RegistroEstadisticaImpl</text>
<polygon fill="none" stroke="#000000" points="1808.5,-345 1808.5,-377 1999.5,-377 1999.5,-345 1808.5,-345"/>
<text text-anchor="start" x="1818.153" y="-358" font-family="Helvetica,sans-Serif" font-size="10.00" fill="#000000">estadisticas:ValorEstadistica［*］</text>
<polygon fill="none" stroke="#000000" points="1808.5,-313 1808.5,-345 1999.5,-345 1999.5,-313 1808.5,-313"/>
<text text-anchor="start" x="1871.916" y="-326" font-family="Helvetica,sans-Serif" font-size="10.00" fill="#000000">+Constructor()</text>
</g>
<!-- A2&#45;&gt;A3 -->
<g id="edge18" class="edge">
<title>A2&#45;&gt;A3</title>
<path fill="none" stroke="#000000" d="M1768.3459,-361C1781.6241,-361 1794.9379,-361 1807.7536,-361"/>
<polygon fill="none" stroke="#000000" points="1768.2077,-357.5001 1758.2077,-361 1768.2076,-364.5001 1768.2077,-357.5001"/>
</g>
<!-- A2&#45;&gt;A4 -->
<g id="edge17" class="edge">
<title>A2&#45;&gt;A4</title>
<path fill="none" stroke="#000000" d="M1580.1453,-424.5049C1549.9137,-453.1951 1510.6474,-484.5182 1469,-502 1317.4884,-565.5982 1261.9391,-552.8605 1100,-525 983.3529,-504.9317 954.2174,-490.2087 849,-436 812.0762,-416.9766 773.8533,-390.5138 744.0292,-368.0872"/>
<polygon fill="none" stroke="#000000" points="1582.8685,-426.7408 1587.6326,-417.2775 1578.007,-421.7044 1582.8685,-426.7408"/>
</g>
<!-- A2JA9 -->
<!-- A2&#45;&gt;A2JA9 -->
<g id="edge10" class="edge">
<title>A2&#45;&gt;A2JA9</title>
<path fill="none" stroke="#000000" d="M1657.6068,-304.8241C1681.9681,-242.6812 1730.4797,-145.1168 1808,-98 1842.7234,-76.8951 1898.012,-87.8454 1903.119,-88.9184"/>
<text text-anchor="middle" x="1656.6569" y="-281.8467" font-family="Helvetica,sans-Serif" font-size="10.00" fill="#000000">*</text>
</g>
<!-- A5 -->
<g id="node6" class="node">
<title>A5</title>
<polygon fill="none" stroke="#000000" points="861.5,-395 861.5,-427 1038.5,-427 1038.5,-395 861.5,-395"/>
<text text-anchor="start" x="934.438" y="-408" font-family="Helvetica,sans-Serif" font-size="10.00" fill="#000000">Equipo</text>
<polygon fill="none" stroke="#000000" points="861.5,-363 861.5,-395 1038.5,-395 1038.5,-363 861.5,-363"/>
<text text-anchor="start" x="919.1605" y="-376" font-family="Helvetica,sans-Serif" font-size="10.00" fill="#000000">nombre:Texto</text>
<polygon fill="none" stroke="#000000" points="861.5,-271 861.5,-363 1038.5,-363 1038.5,-271 861.5,-271"/>
<text text-anchor="start" x="888.741" y="-344" font-family="Helvetica,sans-Serif" font-size="10.00" fill="#000000">+Constructor(nombre:Texto</text>
<text text-anchor="start" x="897.485" y="-332" font-family="Helvetica,sans-Serif" font-size="10.00" fill="#000000">representante:Persona)</text>
<text text-anchor="start" x="905.1335" y="-320" font-family="Helvetica,sans-Serif" font-size="10.00" fill="#000000">+getNombre():Texto</text>
<text text-anchor="start" x="884.0075" y="-308" font-family="Helvetica,sans-Serif" font-size="10.00" fill="#000000">+getRepresentante():Persona</text>
<text text-anchor="start" x="871.507" y="-296" font-family="Helvetica,sans-Serif" font-size="10.00" fill="#000000">+getJugadores():Jugador［*］</text>
<text text-anchor="start" x="871.2355" y="-284" font-family="Helvetica,sans-Serif" font-size="10.00" fill="#000000">+registrarJugador(jugador:Jugador)</text>
</g>
<!-- A4&#45;&gt;A5 -->
<g id="edge9" class="edge">
<title>A4&#45;&gt;A5</title>
<path fill="none" stroke="#000000" d="M809.259,-335.5412C826.5792,-337.2034 844.1364,-338.8883 860.6958,-340.4775"/>
<polygon fill="none" stroke="#000000" points="809.3865,-332.0374 799.0979,-334.566 808.7178,-339.0054 809.3865,-332.0374"/>
</g>
<!-- A7 -->
<g id="node8" class="node">
<title>A7</title>
<polygon fill="none" stroke="#000000" points="1292.5,-367 1292.5,-399 1469.5,-399 1469.5,-367 1292.5,-367"/>
<text text-anchor="start" x="1362.938" y="-380" font-family="Helvetica,sans-Serif" font-size="10.00" fill="#000000">Jugador</text>
<polygon fill="none" stroke="#000000" points="1292.5,-335 1292.5,-367 1469.5,-367 1469.5,-335 1292.5,-335"/>
<text text-anchor="start" x="1328.489" y="-348" font-family="Helvetica,sans-Serif" font-size="10.00" fill="#000000">fechaNacimiento:Fecha</text>
<polygon fill="none" stroke="#000000" points="1292.5,-231 1292.5,-335 1469.5,-335 1469.5,-231 1292.5,-231"/>
<text text-anchor="start" x="1319.741" y="-316" font-family="Helvetica,sans-Serif" font-size="10.00" fill="#000000">+Constructor(nombre:Texto</text>
<text text-anchor="start" x="1349.8815" y="-304" font-family="Helvetica,sans-Serif" font-size="10.00" fill="#000000">apellido:Texto</text>
<text text-anchor="start" x="1355.165" y="-292" font-family="Helvetica,sans-Serif" font-size="10.00" fill="#000000">email:Texto</text>
<text text-anchor="start" x="1352.3855" y="-280" font-family="Helvetica,sans-Serif" font-size="10.00" fill="#000000">celular:Texto</text>
<text text-anchor="start" x="1326.8245" y="-268" font-family="Helvetica,sans-Serif" font-size="10.00" fill="#000000">fechaNacimiento:Fecha)</text>
<text text-anchor="start" x="1313.627" y="-256" font-family="Helvetica,sans-Serif" font-size="10.00" fill="#000000">+getFechaNacimiento():Fecha</text>
<text text-anchor="start" x="1302.2295" y="-244" font-family="Helvetica,sans-Serif" font-size="10.00" fill="#000000">+calcularEdad(fecha:Fecha):Entero</text>
</g>
<!-- A4&#45;&gt;A7 -->
<g id="edge8" class="edge">
<title>A4&#45;&gt;A7</title>
<path fill="none" stroke="#000000" d="M797.637,-276.4394C814.559,-270.634 832.054,-265.519 849,-262 1020.0735,-226.4745 1071.242,-214.9879 1242,-252 1258.6516,-255.6093 1275.7043,-261.399 1291.8991,-268.0415"/>
<polygon fill="none" stroke="#000000" points="796.0128,-273.301 787.7483,-279.9304 798.3431,-279.9018 796.0128,-273.301"/>
</g>
<!-- A5&#45;&gt;A2 -->
<g id="edge20" class="edge">
<title>A5&#45;&gt;A2</title>
<path fill="none" stroke="#000000" d="M1005.5778,-427.0812C1030.8291,-455.6731 1063.2527,-484.7431 1100,-500 1248.9001,-561.8212 1432.6573,-483.8594 1542.4519,-422.1626"/>
<polygon fill="#000000" stroke="#000000" points="1551.2071,-417.189 1544.7349,-426.0411 1546.8596,-419.6587 1542.5121,-422.1284 1542.5121,-422.1284 1542.5121,-422.1284 1546.8596,-419.6587 1540.2894,-418.2157 1551.2071,-417.189 1551.2071,-417.189"/>
</g>
<!-- A6 -->
<g id="node7" class="node">
<title>A6</title>
<polygon fill="none" stroke="#000000" points="1100,-459 1100,-491 1242,-491 1242,-459 1100,-459"/>
<text text-anchor="start" x="1152.383" y="-472" font-family="Helvetica,sans-Serif" font-size="10.00" fill="#000000">Persona</text>
<polygon fill="none" stroke="#000000" points="1100,-391 1100,-459 1242,-459 1242,-391 1100,-391"/>
<text text-anchor="start" x="1140.1605" y="-440" font-family="Helvetica,sans-Serif" font-size="10.00" fill="#000000">nombre:Texto</text>
<text text-anchor="start" x="1139.8815" y="-428" font-family="Helvetica,sans-Serif" font-size="10.00" fill="#000000">apellido:Texto</text>
<text text-anchor="start" x="1145.165" y="-416" font-family="Helvetica,sans-Serif" font-size="10.00" fill="#000000">email:Texto</text>
<text text-anchor="start" x="1142.3855" y="-404" font-family="Helvetica,sans-Serif" font-size="10.00" fill="#000000">celular:Texto</text>
<polygon fill="none" stroke="#000000" points="1100,-275 1100,-391 1242,-391 1242,-275 1100,-275"/>
<text text-anchor="start" x="1109.741" y="-372" font-family="Helvetica,sans-Serif" font-size="10.00" fill="#000000">+Constructor(nombre:Texto</text>
<text text-anchor="start" x="1139.8815" y="-360" font-family="Helvetica,sans-Serif" font-size="10.00" fill="#000000">apellido:Texto</text>
<text text-anchor="start" x="1145.165" y="-348" font-family="Helvetica,sans-Serif" font-size="10.00" fill="#000000">email:Texto</text>
<text text-anchor="start" x="1140.721" y="-336" font-family="Helvetica,sans-Serif" font-size="10.00" fill="#000000">celular:Texto)</text>
<text text-anchor="start" x="1126.1335" y="-324" font-family="Helvetica,sans-Serif" font-size="10.00" fill="#000000">+getNombre():Texto</text>
<text text-anchor="start" x="1126.1295" y="-312" font-family="Helvetica,sans-Serif" font-size="10.00" fill="#000000">+getApellido():Texto</text>
<text text-anchor="start" x="1131.413" y="-300" font-family="Helvetica,sans-Serif" font-size="10.00" fill="#000000">+getEmail():Texto</text>
<text text-anchor="start" x="1128.079" y="-288" font-family="Helvetica,sans-Serif" font-size="10.00" fill="#000000">+getCelular():Texto</text>
</g>
<!-- A5&#45;&gt;A6 -->
<g id="edge5" class="edge">
<title>A5&#45;&gt;A6</title>
<path fill="none" stroke="#000000" d="M1050.4021,-364.4884C1063.5803,-366.5112 1076.946,-368.5628 1089.7448,-370.5274"/>
<polygon fill="none" stroke="#000000" points="1050.1773,-364.4539 1043.6399,-367.4973 1038.3163,-362.6332 1044.8537,-359.5899 1050.1773,-364.4539"/>
<polygon fill="#000000" stroke="#000000" points="1099.8733,-372.0821 1089.3063,-375.0127 1094.9312,-371.3235 1089.9891,-370.5648 1089.9891,-370.5648 1089.9891,-370.5648 1094.9312,-371.3235 1090.6718,-366.1169 1099.8733,-372.0821 1099.8733,-372.0821"/>
<text text-anchor="middle" x="1080.6746" y="-374.6865" font-family="Helvetica,sans-Serif" font-size="10.00" fill="#000000">representante1</text>
<text text-anchor="middle" x="1057.515" y="-354.0288" font-family="Helvetica,sans-Serif" font-size="10.00" fill="#000000">1</text>
</g>
<!-- A5&#45;&gt;A7 -->
<g id="edge7" class="edge">
<title>A5&#45;&gt;A7</title>
<path fill="none" stroke="#000000" d="M1049.4932,-284.9545C1065.8216,-277.1428 1082.9784,-270.3825 1100,-266 1161.1179,-250.2641 1179.7989,-255.3212 1242,-266 1255.2494,-268.2747 1268.914,-271.6898 1282.2612,-275.6793"/>
<polygon fill="none" stroke="#000000" points="1049.074,-285.1633 1045.4872,-291.4192 1038.3331,-290.5144 1041.9199,-284.2585 1049.074,-285.1633"/>
<polygon fill="#000000" stroke="#000000" points="1291.9134,-278.6777 1281.0286,-280.0085 1287.1385,-277.1944 1282.3636,-275.711 1282.3636,-275.711 1282.3636,-275.711 1287.1385,-277.1944 1283.6986,-271.4136 1291.9134,-278.6777 1291.9134,-278.6777"/>
<text text-anchor="middle" x="1272.0957" y="-278.3723" font-family="Helvetica,sans-Serif" font-size="10.00" fill="#000000">jugador*</text>
<text text-anchor="middle" x="1050.7884" y="-271.8661" font-family="Helvetica,sans-Serif" font-size="10.00" fill="#000000">1</text>
</g>
<!-- A6&#45;&gt;A7 -->
<g id="edge6" class="edge">
<title>A6&#45;&gt;A7</title>
<path fill="none" stroke="#000000" d="M1252.034,-356.6978C1265.0178,-352.4835 1278.5146,-348.1026 1291.6686,-343.8331"/>
<polygon fill="none" stroke="#000000" points="1250.6504,-353.4671 1242.2195,-359.8834 1252.8116,-360.1251 1250.6504,-353.4671"/>
</g>
<!-- A7&#45;&gt;A2 -->
<g id="edge19" class="edge">
<title>A7&#45;&gt;A2</title>
<path fill="none" stroke="#000000" d="M1469.289,-330.8306C1481.9498,-333.0879 1495.1848,-335.4477 1508.4347,-337.8101"/>
<polygon fill="#000000" stroke="#000000" points="1518.5607,-339.6155 1507.9261,-342.2903 1513.6383,-338.7378 1508.716,-337.8601 1508.716,-337.8601 1508.716,-337.8601 1513.6383,-338.7378 1509.5059,-333.43 1518.5607,-339.6155 1518.5607,-339.6155"/>
</g>
<!-- A9 -->
<g id="node10" class="node">
<title>A9</title>
<polygon fill="none" stroke="#000000" points="2049,-123 2049,-155 2191,-155 2191,-123 2049,-123"/>
<text text-anchor="start" x="2095.829" y="-136" font-family="Helvetica,sans-Serif" font-size="10.00" fill="#000000">Estadistica</text>
<polygon fill="none" stroke="#000000" points="2049,-91 2049,-123 2191,-123 2191,-91 2049,-91"/>
<text text-anchor="start" x="2089.1605" y="-104" font-family="Helvetica,sans-Serif" font-size="10.00" fill="#000000">nombre:Texto</text>
<polygon fill="none" stroke="#000000" points="2049,-23 2049,-91 2191,-91 2191,-23 2049,-23"/>
<text text-anchor="start" x="2058.741" y="-72" font-family="Helvetica,sans-Serif" font-size="10.00" fill="#000000">+Constructor(nombre:Texto</text>
<text text-anchor="start" x="2074.994" y="-60" font-family="Helvetica,sans-Serif" font-size="10.00" fill="#000000">tipo:TipoEstadistica)</text>
<text text-anchor="start" x="2075.1335" y="-48" font-family="Helvetica,sans-Serif" font-size="10.00" fill="#000000">+getNombre():Texto</text>
<text text-anchor="start" x="2061.7965" y="-36" font-family="Helvetica,sans-Serif" font-size="10.00" fill="#000000">+getTipo():TipoEstadistica</text>
</g>
<!-- A13 -->
<g id="node14" class="node">
<title>A13</title>
<polygon fill="none" stroke="#000000" points="2241.5,-95 2241.5,-139 2328.5,-139 2328.5,-95 2241.5,-95"/>
<text text-anchor="start" x="2260.264" y="-120" font-family="Helvetica,sans-Serif" font-size="10.00" fill="#000000">&lt;&lt;Enum&gt;&gt;</text>
<text text-anchor="start" x="2251.106" y="-108" font-family="Helvetica,sans-Serif" font-size="10.00" fill="#000000">TipoEstadistica</text>
<polygon fill="none" stroke="#000000" points="2241.5,-39 2241.5,-95 2328.5,-95 2328.5,-39 2241.5,-39"/>
<text text-anchor="start" x="2261.939" y="-76" font-family="Helvetica,sans-Serif" font-size="10.00" fill="#000000">POSITIVA</text>
<text text-anchor="start" x="2259.719" y="-64" font-family="Helvetica,sans-Serif" font-size="10.00" fill="#000000">NEGATIVA</text>
<text text-anchor="start" x="2264.448" y="-52" font-family="Helvetica,sans-Serif" font-size="10.00" fill="#000000">NEUTRA</text>
</g>
<!-- A9&#45;&gt;A13 -->
<g id="edge13" class="edge">
<title>A9&#45;&gt;A13</title>
<path fill="none" stroke="#000000" d="M2191.1954,-89C2204.3558,-89 2217.9009,-89 2230.4496,-89"/>
<polygon fill="#000000" stroke="#000000" points="2240.7259,-89 2230.7259,-93.5001 2235.7259,-89 2230.7259,-89.0001 2230.7259,-89.0001 2230.7259,-89.0001 2235.7259,-89 2230.7258,-84.5001 2240.7259,-89 2240.7259,-89"/>
<text text-anchor="middle" x="2222.5997" y="-94.4524" font-family="Helvetica,sans-Serif" font-size="10.00" fill="#000000">tipo1</text>
<text text-anchor="middle" x="2209.3215" y="-77.5476" font-family="Helvetica,sans-Serif" font-size="10.00" fill="#000000">*</text>
</g>
<!-- A10 -->
<g id="node11" class="node">
<title>A10</title>
<polygon fill="none" stroke="#000000" points="1831.5,-219 1831.5,-251 1976.5,-251 1976.5,-219 1831.5,-219"/>
<text text-anchor="start" x="1868.1615" y="-232" font-family="Helvetica,sans-Serif" font-size="10.00" fill="#000000">ValorEstadistica</text>
<polygon fill="none" stroke="#000000" points="1831.5,-175 1831.5,-219 1976.5,-219 1976.5,-175 1831.5,-175"/>
<text text-anchor="start" x="1881.4995" y="-200" font-family="Helvetica,sans-Serif" font-size="10.00" fill="#000000">valor:Real</text>
<text text-anchor="start" x="1854.8235" y="-188" font-family="Helvetica,sans-Serif" font-size="10.00" fill="#000000">estadistica:Estadistica</text>
<polygon fill="none" stroke="#000000" points="1831.5,-107 1831.5,-175 1976.5,-175 1976.5,-107 1831.5,-107"/>
<text text-anchor="start" x="1851.08" y="-156" font-family="Helvetica,sans-Serif" font-size="10.00" fill="#000000">+Constructor(valor:Real</text>
<text text-anchor="start" x="1853.159" y="-144" font-family="Helvetica,sans-Serif" font-size="10.00" fill="#000000">estadistica:Estadistica)</text>
<text text-anchor="start" x="1867.468" y="-132" font-family="Helvetica,sans-Serif" font-size="10.00" fill="#000000">+getValor():Real</text>
<text text-anchor="start" x="1841.0715" y="-120" font-family="Helvetica,sans-Serif" font-size="10.00" fill="#000000">+getEstadistica():Estadistica</text>
</g>
<!-- A10&#45;&gt;A2JA9 -->
<g id="edge12" class="edge">
<title>A10&#45;&gt;A2JA9</title>
<path fill="none" stroke="#000000" stroke-dasharray="5,2" d="M1903.5,-106.7951C1903.5,-104.4806 1903.5,-102.166 1903.5,-99.8515"/>
<polygon fill="#000000" stroke="#000000" points="1903.5,-89.7031 1908.0001,-99.7031 1903.5,-94.7031 1903.5001,-99.7031 1903.5001,-99.7031 1903.5001,-99.7031 1903.5,-94.7031 1899.0001,-99.7032 1903.5,-89.7031 1903.5,-89.7031"/>
</g>
<!-- A11&#45;&gt;A4 -->
<g id="edge16" class="edge">
<title>A11&#45;&gt;A4</title>
<path fill="none" stroke="#000000" d="M540.8406,-276.903C550.0848,-279.8415 559.673,-282.8894 569.3236,-285.9572"/>
<polygon fill="none" stroke="#000000" points="540.6685,-276.8483 533.7387,-278.8427 529.2324,-273.213 536.1623,-271.2186 540.6685,-276.8483"/>
<polygon fill="#000000" stroke="#000000" points="578.9845,-289.0282 568.0912,-290.2872 574.2195,-287.5134 569.4544,-285.9987 569.4544,-285.9987 569.4544,-285.9987 574.2195,-287.5134 570.8177,-281.7102 578.9845,-289.0282 578.9845,-289.0282"/>
<text text-anchor="middle" x="559.1496" y="-288.5922" font-family="Helvetica,sans-Serif" font-size="10.00" fill="#000000">2</text>
<text text-anchor="middle" x="549.0674" y="-267.649" font-family="Helvetica,sans-Serif" font-size="10.00" fill="#000000">*</text>
</g>
<!-- A12 -->
<g id="node13" class="node">
<title>A12</title>
<polygon fill="none" stroke="#000000" points="849.5,-149 849.5,-181 1050.5,-181 1050.5,-149 849.5,-149"/>
<text text-anchor="start" x="913.607" y="-162" font-family="Helvetica,sans-Serif" font-size="10.00" fill="#000000">RegistroReporte</text>
<polygon fill="none" stroke="#000000" points="849.5,-105 849.5,-149 1050.5,-149 1050.5,-105 849.5,-105"/>
<text text-anchor="start" x="859.427" y="-130" font-family="Helvetica,sans-Serif" font-size="10.00" fill="#000000">estadisticaParticipanteA:ValorEstadistica</text>
<text text-anchor="start" x="859.427" y="-118" font-family="Helvetica,sans-Serif" font-size="10.00" fill="#000000">estadisticaParticipanteB:ValorEstadistica</text>
</g>
<!-- A11&#45;&gt;A12 -->
<g id="edge14" class="edge">
<title>A11&#45;&gt;A12</title>
<path fill="none" stroke="#000000" d="M540.9268,-234.4466C621.7171,-216.3641 748.3223,-188.0274 839.1877,-167.69"/>
<polygon fill="none" stroke="#000000" points="540.9044,-234.4515 535.923,-239.6655 529.1941,-237.0726 534.1756,-231.8586 540.9044,-234.4515"/>
<polygon fill="#000000" stroke="#000000" points="848.974,-165.4997 840.1984,-172.0752 844.0947,-166.5918 839.2154,-167.6839 839.2154,-167.6839 839.2154,-167.6839 844.0947,-166.5918 838.2325,-163.2925 848.974,-165.4997 848.974,-165.4997"/>
<text text-anchor="middle" x="833.1316" y="-174.707" font-family="Helvetica,sans-Serif" font-size="10.00" fill="#000000">registros*</text>
<text text-anchor="middle" x="545.0365" y="-221.8652" font-family="Helvetica,sans-Serif" font-size="10.00" fill="#000000">1</text>
</g>
<!-- A12&#45;&gt;A10 -->
<g id="edge15" class="edge">
<title>A12&#45;&gt;A10</title>
<path fill="none" stroke="#000000" d="M1062.4115,-147.2608C1256.6003,-154.5887 1649.4207,-169.4121 1820.6131,-175.8722"/>
<polygon fill="none" stroke="#000000" points="1062.2326,-147.2542 1056.086,-151.025 1050.2412,-146.8016 1056.3878,-143.0307 1062.2326,-147.2542"/>
<polygon fill="#000000" stroke="#000000" points="1830.8237,-176.2575 1820.661,-180.3771 1825.8272,-176.0689 1820.8308,-175.8803 1820.8308,-175.8803 1820.8308,-175.8803 1825.8272,-176.0689 1821.0005,-171.3835 1830.8237,-176.2575 1830.8237,-176.2575"/>
<text text-anchor="middle" x="1812.3917" y="-181.0203" font-family="Helvetica,sans-Serif" font-size="10.00" fill="#000000">2</text>
<text text-anchor="middle" x="1068.6732" y="-136.0387" font-family="Helvetica,sans-Serif" font-size="10.00" fill="#000000">*</text>
</g>
<!-- A2JA9&#45;&gt;A9 -->
<g id="edge11" class="edge">
<title>A2JA9&#45;&gt;A9</title>
<path fill="none" stroke="#000000" d="M1904.1211,-89C1911.3509,-89 1980.3232,-89 2038.3905,-89"/>
<polygon fill="#000000" stroke="#000000" points="2048.7162,-89 2038.7162,-93.5001 2043.7162,-89 2038.7162,-89.0001 2038.7162,-89.0001 2038.7162,-89.0001 2043.7162,-89 2038.7161,-84.5001 2048.7162,-89 2048.7162,-89"/>
<text text-anchor="middle" x="2030.59" y="-94.4524" font-family="Helvetica,sans-Serif" font-size="10.00" fill="#000000">*</text>
</g>
</g>
</svg>
