<?xml version="1.0" encoding="UTF-8" standalone="no"?>
<!DOCTYPE svg PUBLIC "-//W3C//DTD SVG 1.1//EN"
 "http://www.w3.org/Graphics/SVG/1.1/DTD/svg11.dtd">
<!-- Generated by graphviz version 2.40.1 (20161225.0304)
 -->
<!-- Title: G Pages: 1 -->
<svg width="1500pt" height="584pt"
 viewBox="0.00 0.00 1500.00 584.00" xmlns="http://www.w3.org/2000/svg" xmlns:xlink="http://www.w3.org/1999/xlink">
<g id="graph0" class="graph" transform="scale(1 1) rotate(0) translate(4 580)">
<title>G</title>
<polygon fill="#ffffff" stroke="transparent" points="-4,4 -4,-580 1496,-580 1496,4 -4,4"/>
<!-- A0 -->
<g id="node1" class="node">
<title>A0</title>
<polygon fill="none" stroke="#000000" points="0,-544 0,-576 360,-576 360,-544 0,-544"/>
<text text-anchor="start" x="164.163" y="-557" font-family="Helvetica,sans-Serif" font-size="10.00" fill="#000000">Torneo</text>
<polygon fill="none" stroke="#000000" points="0,-440 0,-544 360,-544 360,-440 0,-440"/>
<text text-anchor="start" x="149.1605" y="-525" font-family="Helvetica,sans-Serif" font-size="10.00" fill="#000000">nombre:Texto</text>
<text text-anchor="start" x="140.822" y="-513" font-family="Helvetica,sans-Serif" font-size="10.00" fill="#000000">fechaInicio:Fecha</text>
<text text-anchor="start" x="111.6515" y="-501" font-family="Helvetica,sans-Serif" font-size="10.00" fill="#000000">fechaInicioInscripciones:Fecha</text>
<text text-anchor="start" x="109.712" y="-489" font-family="Helvetica,sans-Serif" font-size="10.00" fill="#000000">fechaCierreInscripciones:Fecha</text>
<text text-anchor="start" x="118.042" y="-477" font-family="Helvetica,sans-Serif" font-size="10.00" fill="#000000">numeroParticipantes:Entero</text>
<text text-anchor="start" x="140.5485" y="-465" font-family="Helvetica,sans-Serif" font-size="10.00" fill="#000000">limiteEdad:Entero</text>
<text text-anchor="start" x="129.1595" y="-453" font-family="Helvetica,sans-Serif" font-size="10.00" fill="#000000">valorInscripcion:Entero</text>
<polygon fill="none" stroke="#000000" points="0,0 0,-440 360,-440 360,0 0,0"/>
<text text-anchor="start" x="118.741" y="-421" font-family="Helvetica,sans-Serif" font-size="10.00" fill="#000000">+Constructor(nombre:Texto</text>
<text text-anchor="start" x="140.822" y="-409" font-family="Helvetica,sans-Serif" font-size="10.00" fill="#000000">fechaInicio:Fecha</text>
<text text-anchor="start" x="111.6515" y="-397" font-family="Helvetica,sans-Serif" font-size="10.00" fill="#000000">fechaInicioInscripciones:Fecha</text>
<text text-anchor="start" x="109.712" y="-385" font-family="Helvetica,sans-Serif" font-size="10.00" fill="#000000">fechaCierreInscripciones:Fecha</text>
<text text-anchor="start" x="118.042" y="-373" font-family="Helvetica,sans-Serif" font-size="10.00" fill="#000000">numeroParticipantes:Entero</text>
<text text-anchor="start" x="140.5485" y="-361" font-family="Helvetica,sans-Serif" font-size="10.00" fill="#000000">limiteEdad:Entero</text>
<text text-anchor="start" x="129.1595" y="-349" font-family="Helvetica,sans-Serif" font-size="10.00" fill="#000000">valorInscripcion:Entero</text>
<text text-anchor="start" x="129.1555" y="-337" font-family="Helvetica,sans-Serif" font-size="10.00" fill="#000000">tipoTorneo:TipoTorneo</text>
<text text-anchor="start" x="19.288" y="-325" font-family="Helvetica,sans-Serif" font-size="10.00" fill="#000000">caracter:CaracterTorneo)+registrarParticipante(participante:Participante)</text>
<text text-anchor="start" x="135.1335" y="-313" font-family="Helvetica,sans-Serif" font-size="10.00" fill="#000000">+getNombre():Texto</text>
<text text-anchor="start" x="125.96" y="-301" font-family="Helvetica,sans-Serif" font-size="10.00" fill="#000000">+getFechaInicio():Fecha</text>
<text text-anchor="start" x="96.7895" y="-289" font-family="Helvetica,sans-Serif" font-size="10.00" fill="#000000">+getFechaInicioInscripciones():Fecha</text>
<text text-anchor="start" x="94.85" y="-277" font-family="Helvetica,sans-Serif" font-size="10.00" fill="#000000">+getFechaCierreInscripciones():Fecha</text>
<text text-anchor="start" x="104.015" y="-265" font-family="Helvetica,sans-Serif" font-size="10.00" fill="#000000">+getNumeroParticipantes():Entero</text>
<text text-anchor="start" x="125.6815" y="-253" font-family="Helvetica,sans-Serif" font-size="10.00" fill="#000000">+getLimiteEdad():Entero</text>
<text text-anchor="start" x="115.128" y="-241" font-family="Helvetica,sans-Serif" font-size="10.00" fill="#000000">+getValorInscripcion():Entero</text>
<text text-anchor="start" x="114.2935" y="-229" font-family="Helvetica,sans-Serif" font-size="10.00" fill="#000000">+getTipoTorneo():TipoTorneo</text>
<text text-anchor="start" x="87.6215" y="-217" font-family="Helvetica,sans-Serif" font-size="10.00" fill="#000000">+getParticipantes():Participante［*］</text>
<text text-anchor="start" x="111.2435" y="-205" font-family="Helvetica,sans-Serif" font-size="10.00" fill="#000000">+getCaracter():CaracterTorneo</text>
<text text-anchor="start" x="102.344" y="-193" font-family="Helvetica,sans-Serif" font-size="10.00" fill="#000000">+setFechaInicio(fechaInicio:Fecha)</text>
<text text-anchor="start" x="44.003" y="-181" font-family="Helvetica,sans-Serif" font-size="10.00" fill="#000000">+setFechaInicioInscripciones(fechaInicioInscripciones:Fecha)</text>
<text text-anchor="start" x="40.124" y="-169" font-family="Helvetica,sans-Serif" font-size="10.00" fill="#000000">+setFechaCierreInscripciones(fechaCierreInscripciones:Fecha)</text>
<text text-anchor="start" x="76.65" y="-157" font-family="Helvetica,sans-Serif" font-size="10.00" fill="#000000">buscarParticipante(nombre:Texto):Participante</text>
<text text-anchor="start" x="67.8875" y="-145" font-family="Helvetica,sans-Serif" font-size="10.00" fill="#000000">+registrarJugador(equipo:Equipo,jugador:Jugador)</text>
<text text-anchor="start" x="53.4445" y="-133" font-family="Helvetica,sans-Serif" font-size="10.00" fill="#000000">+registrarJugador(nombreEquipo:Texto,jugador:Jugador)</text>
<text text-anchor="start" x="52.896" y="-121" font-family="Helvetica,sans-Serif" font-size="10.00" fill="#000000">+registrarEstadisticaParticipante(participante:Participante</text>
<text text-anchor="start" x="110.5475" y="-109" font-family="Helvetica,sans-Serif" font-size="10.00" fill="#000000">estadistica:RegistroEstadistica)</text>
<text text-anchor="start" x="92.0685" y="-97" font-family="Helvetica,sans-Serif" font-size="10.00" fill="#000000">+getEstadisticas():Estadistica［*］</text>
<text text-anchor="start" x="69.2905" y="-85" font-family="Helvetica,sans-Serif" font-size="10.00" fill="#000000">+buscarMejor(estadistica:Estadistica):Participante</text>
<text text-anchor="start" x="78.1735" y="-73" font-family="Helvetica,sans-Serif" font-size="10.00" fill="#000000">+buscarSuperiorIgualA(estadistica:Estadistica</text>
<text text-anchor="start" x="105.548" y="-61" font-family="Helvetica,sans-Serif" font-size="10.00" fill="#000000">valor:Real):Participante［*］</text>
<text text-anchor="start" x="92.346" y="-49" font-family="Helvetica,sans-Serif" font-size="10.00" fill="#000000">+buscarInferiorA(estadistica:Estadistica</text>
<text text-anchor="start" x="105.548" y="-37" font-family="Helvetica,sans-Serif" font-size="10.00" fill="#000000">valor:Real):Participante［*］</text>
<text text-anchor="start" x="67.9005" y="-25" font-family="Helvetica,sans-Serif" font-size="10.00" fill="#000000">+promedioEstadistica(estadistica:Estadistica):Real</text>
<text text-anchor="start" x="9.8305" y="-13" font-family="Helvetica,sans-Serif" font-size="10.00" fill="#000000">+obtenerEstadisticas(participante:Participante):RegistroEstadistica［*］</text>
</g>
<!-- A1 -->
<g id="node2" class="node">
<title>A1</title>
<polygon fill="none" stroke="#000000" points="441.5,-420 441.5,-464 512.5,-464 512.5,-420 441.5,-420"/>
<text text-anchor="start" x="452.264" y="-445" font-family="Helvetica,sans-Serif" font-size="10.00" fill="#000000">&lt;&lt;Enum&gt;&gt;</text>
<text text-anchor="start" x="451.44" y="-433" font-family="Helvetica,sans-Serif" font-size="10.00" fill="#000000">TipoTorneo</text>
<polygon fill="none" stroke="#000000" points="441.5,-352 441.5,-420 512.5,-420 512.5,-352 441.5,-352"/>
<text text-anchor="start" x="460.6075" y="-401" font-family="Helvetica,sans-Serif" font-size="10.00" fill="#000000">LOCAL</text>
<text text-anchor="start" x="451.164" y="-389" font-family="Helvetica,sans-Serif" font-size="10.00" fill="#000000">REGIONAL</text>
<text text-anchor="start" x="451.444" y="-377" font-family="Helvetica,sans-Serif" font-size="10.00" fill="#000000">NACIONAL</text>
<text text-anchor="start" x="454.5035" y="-365" font-family="Helvetica,sans-Serif" font-size="10.00" fill="#000000">MUNDIAL</text>
</g>
<!-- A0&#45;&gt;A1 -->
<g id="edge3" class="edge">
<title>A0&#45;&gt;A1</title>
<path fill="none" stroke="#000000" d="M360.1663,-360.9172C386.5317,-371.5879 411.4832,-381.6863 431.4673,-389.7743"/>
<polygon fill="#000000" stroke="#000000" points="440.863,-393.5769 429.9051,-393.9966 436.2282,-391.7011 431.5934,-389.8253 431.5934,-389.8253 431.5934,-389.8253 436.2282,-391.7011 433.2816,-385.6539 440.863,-393.5769 440.863,-393.5769"/>
<text text-anchor="middle" x="420.8898" y="-391.6117" font-family="Helvetica,sans-Serif" font-size="10.00" fill="#000000">tipoTorneo1</text>
<text text-anchor="middle" x="380.1396" y="-356.8825" font-family="Helvetica,sans-Serif" font-size="10.00" fill="#000000">*</text>
</g>
<!-- A2 -->
<g id="node3" class="node">
<title>A2</title>
<polygon fill="none" stroke="#000000" points="593.5,-352 593.5,-396 846.5,-396 846.5,-352 593.5,-352"/>
<text text-anchor="start" x="690.54" y="-377" font-family="Helvetica,sans-Serif" font-size="10.00" fill="#000000">&lt;&lt;abstract&gt;&gt;</text>
<text text-anchor="start" x="693.6055" y="-365" font-family="Helvetica,sans-Serif" font-size="10.00" fill="#000000">Participante</text>
<polygon fill="none" stroke="#000000" points="593.5,-320 593.5,-352 846.5,-352 846.5,-320 593.5,-320"/>
<text text-anchor="start" x="627.209" y="-333" font-family="Helvetica,sans-Serif" font-size="10.00" fill="#000000">estadisticas:RegistroEstadistica［*］</text>
<polygon fill="none" stroke="#000000" points="593.5,-252 593.5,-320 846.5,-320 846.5,-252 593.5,-252"/>
<text text-anchor="start" x="687.916" y="-301" font-family="Helvetica,sans-Serif" font-size="10.00" fill="#000000">+Constructor()</text>
<text text-anchor="start" x="613.457" y="-289" font-family="Helvetica,sans-Serif" font-size="10.00" fill="#000000">+getEstadisticas():RegistroEstadistica［*］</text>
<text text-anchor="start" x="624.2825" y="-277" font-family="Helvetica,sans-Serif" font-size="10.00" fill="#000000">+&lt;&lt;abstract&gt;&gt;getNombreCompleto():Texto</text>
<text text-anchor="start" x="603.4615" y="-265" font-family="Helvetica,sans-Serif" font-size="10.00" fill="#000000">+registrarEstadistica(estadistica:RegistroEstadistica)</text>
</g>
<!-- A0&#45;&gt;A2 -->
<g id="edge4" class="edge">
<title>A0&#45;&gt;A2</title>
<path fill="none" stroke="#000000" d="M372.384,-302.3982C385.1127,-303.2957 397.7393,-304.1706 410,-305 466.5141,-308.8231 528.8562,-312.7132 582.6886,-315.9694"/>
<polygon fill="none" stroke="#000000" points="372.1275,-302.3801 365.8596,-305.9458 360.1575,-301.5315 366.4254,-297.9658 372.1275,-302.3801"/>
<polygon fill="#000000" stroke="#000000" points="592.987,-316.5909 582.7341,-320.4802 587.9961,-316.2896 583.0052,-315.9884 583.0052,-315.9884 583.0052,-315.9884 587.9961,-316.2896 583.2763,-311.4966 592.987,-316.5909 592.987,-316.5909"/>
<text text-anchor="middle" x="574.3846" y="-320.936" font-family="Helvetica,sans-Serif" font-size="10.00" fill="#000000">participantes*</text>
<text text-anchor="middle" x="378.836" y="-291.382" font-family="Helvetica,sans-Serif" font-size="10.00" fill="#000000">1</text>
</g>
<!-- A6 -->
<g id="node7" class="node">
<title>A6</title>
<polygon fill="none" stroke="#000000" points="431.5,-146 431.5,-190 521.5,-190 521.5,-146 431.5,-146"/>
<text text-anchor="start" x="451.764" y="-171" font-family="Helvetica,sans-Serif" font-size="10.00" fill="#000000">&lt;&lt;Enum&gt;&gt;</text>
<text text-anchor="start" x="441.4965" y="-159" font-family="Helvetica,sans-Serif" font-size="10.00" fill="#000000">CaracterTorneo</text>
<polygon fill="none" stroke="#000000" points="431.5,-102 431.5,-146 521.5,-146 521.5,-102 431.5,-102"/>
<text text-anchor="start" x="448.445" y="-127" font-family="Helvetica,sans-Serif" font-size="10.00" fill="#000000">INDIVIDUAL</text>
<text text-anchor="start" x="455.943" y="-115" font-family="Helvetica,sans-Serif" font-size="10.00" fill="#000000">GRUPAL</text>
</g>
<!-- A0&#45;&gt;A6 -->
<g id="edge2" class="edge">
<title>A0&#45;&gt;A6</title>
<path fill="none" stroke="#000000" d="M360.1663,-201.7146C382.5745,-190.9829 403.9615,-180.7402 422.1454,-172.0316"/>
<polygon fill="#000000" stroke="#000000" points="431.3509,-167.6228 424.2756,-176.0009 426.8414,-169.7826 422.3318,-171.9423 422.3318,-171.9423 422.3318,-171.9423 426.8414,-169.7826 420.3881,-167.8837 431.3509,-167.6228 431.3509,-167.6228"/>
<text text-anchor="middle" x="418.6538" y="-180.0755" font-family="Helvetica,sans-Serif" font-size="10.00" fill="#000000">caracter1</text>
<text text-anchor="middle" x="372.8635" y="-183.262" font-family="Helvetica,sans-Serif" font-size="10.00" fill="#000000">*</text>
</g>
<!-- A9 -->
<g id="node10" class="node">
<title>A9</title>
<polygon fill="none" stroke="#000000" points="410.5,-264 410.5,-296 543.5,-296 543.5,-264 410.5,-264"/>
<text text-anchor="start" x="459.2185" y="-277" font-family="Helvetica,sans-Serif" font-size="10.00" fill="#000000">Reporte</text>
<polygon fill="none" stroke="#000000" points="410.5,-208 410.5,-264 543.5,-264 543.5,-208 410.5,-208"/>
<text text-anchor="start" x="449.4895" y="-245" font-family="Helvetica,sans-Serif" font-size="10.00" fill="#000000">fecha:Fecha</text>
<text text-anchor="start" x="420.042" y="-233" font-family="Helvetica,sans-Serif" font-size="10.00" fill="#000000">participanteA:Participante</text>
<text text-anchor="start" x="420.042" y="-221" font-family="Helvetica,sans-Serif" font-size="10.00" fill="#000000">participanteB:Participante</text>
</g>
<!-- A0&#45;&gt;A9 -->
<g id="edge1" class="edge">
<title>A0&#45;&gt;A9</title>
<path fill="none" stroke="#000000" stroke-dasharray="5,2" d="M360.1663,-266.1248C373.9032,-264.4569 387.2563,-262.8357 399.723,-261.322"/>
<polygon fill="#000000" stroke="#000000" points="409.9755,-260.0772 400.5908,-265.7498 405.0119,-260.6799 400.0484,-261.2826 400.0484,-261.2826 400.0484,-261.2826 405.0119,-260.6799 399.506,-256.8154 409.9755,-260.0772 409.9755,-260.0772"/>
</g>
<!-- A3 -->
<g id="node4" class="node">
<title>A3</title>
<polygon fill="none" stroke="#000000" points="896.5,-380 896.5,-412 1073.5,-412 1073.5,-380 896.5,-380"/>
<text text-anchor="start" x="969.438" y="-393" font-family="Helvetica,sans-Serif" font-size="10.00" fill="#000000">Equipo</text>
<polygon fill="none" stroke="#000000" points="896.5,-348 896.5,-380 1073.5,-380 1073.5,-348 896.5,-348"/>
<text text-anchor="start" x="954.1605" y="-361" font-family="Helvetica,sans-Serif" font-size="10.00" fill="#000000">nombre:Texto</text>
<polygon fill="none" stroke="#000000" points="896.5,-256 896.5,-348 1073.5,-348 1073.5,-256 896.5,-256"/>
<text text-anchor="start" x="923.741" y="-329" font-family="Helvetica,sans-Serif" font-size="10.00" fill="#000000">+Constructor(nombre:Texto</text>
<text text-anchor="start" x="932.485" y="-317" font-family="Helvetica,sans-Serif" font-size="10.00" fill="#000000">representante:Persona)</text>
<text text-anchor="start" x="940.1335" y="-305" font-family="Helvetica,sans-Serif" font-size="10.00" fill="#000000">+getNombre():Texto</text>
<text text-anchor="start" x="919.0075" y="-293" font-family="Helvetica,sans-Serif" font-size="10.00" fill="#000000">+getRepresentante():Persona</text>
<text text-anchor="start" x="906.507" y="-281" font-family="Helvetica,sans-Serif" font-size="10.00" fill="#000000">+getJugadores():Jugador［*］</text>
<text text-anchor="start" x="906.2355" y="-269" font-family="Helvetica,sans-Serif" font-size="10.00" fill="#000000">+registrarJugador(jugador:Jugador)</text>
</g>
<!-- A2&#45;&gt;A3 -->
<g id="edge9" class="edge">
<title>A2&#45;&gt;A3</title>
<path fill="none" stroke="#000000" d="M856.4027,-329.1661C869.7687,-329.6705 883.075,-330.1726 895.7766,-330.6519"/>
<polygon fill="none" stroke="#000000" points="856.3038,-325.66 846.1789,-328.7803 856.0398,-332.655 856.3038,-325.66"/>
</g>
<!-- A5 -->
<g id="node6" class="node">
<title>A5</title>
<polygon fill="none" stroke="#000000" points="1315.5,-386 1315.5,-418 1492.5,-418 1492.5,-386 1315.5,-386"/>
<text text-anchor="start" x="1385.938" y="-399" font-family="Helvetica,sans-Serif" font-size="10.00" fill="#000000">Jugador</text>
<polygon fill="none" stroke="#000000" points="1315.5,-354 1315.5,-386 1492.5,-386 1492.5,-354 1315.5,-354"/>
<text text-anchor="start" x="1351.489" y="-367" font-family="Helvetica,sans-Serif" font-size="10.00" fill="#000000">fechaNacimiento:Fecha</text>
<polygon fill="none" stroke="#000000" points="1315.5,-250 1315.5,-354 1492.5,-354 1492.5,-250 1315.5,-250"/>
<text text-anchor="start" x="1342.741" y="-335" font-family="Helvetica,sans-Serif" font-size="10.00" fill="#000000">+Constructor(nombre:Texto</text>
<text text-anchor="start" x="1372.8815" y="-323" font-family="Helvetica,sans-Serif" font-size="10.00" fill="#000000">apellido:Texto</text>
<text text-anchor="start" x="1378.165" y="-311" font-family="Helvetica,sans-Serif" font-size="10.00" fill="#000000">email:Texto</text>
<text text-anchor="start" x="1375.3855" y="-299" font-family="Helvetica,sans-Serif" font-size="10.00" fill="#000000">celular:Texto</text>
<text text-anchor="start" x="1349.8245" y="-287" font-family="Helvetica,sans-Serif" font-size="10.00" fill="#000000">fechaNacimiento:Fecha)</text>
<text text-anchor="start" x="1336.627" y="-275" font-family="Helvetica,sans-Serif" font-size="10.00" fill="#000000">+getFechaNacimiento():Fecha</text>
<text text-anchor="start" x="1325.2295" y="-263" font-family="Helvetica,sans-Serif" font-size="10.00" fill="#000000">+calcularEdad(fecha:Fecha):Entero</text>
</g>
<!-- A2&#45;&gt;A5 -->
<g id="edge8" class="edge">
<title>A2&#45;&gt;A5</title>
<path fill="none" stroke="#000000" d="M845.5483,-400.4681C862.1113,-408.3547 879.1807,-415.483 896,-421 1052.345,-472.2836 1110.4754,-507.5326 1265,-451 1285.3966,-443.5379 1304.8598,-431.5987 1322.411,-418.1378"/>
<polygon fill="none" stroke="#000000" points="846.9266,-397.2463 836.4036,-396.014 843.8613,-403.5396 846.9266,-397.2463"/>
</g>
<!-- A2JA7 -->
<!-- A2&#45;&gt;A2JA7 -->
<g id="edge10" class="edge">
<title>A2&#45;&gt;A2JA7</title>
<path fill="none" stroke="#000000" d="M829.9164,-251.7166C835.7452,-245.7738 841.1759,-239.5269 846,-233 887.2679,-177.1654 841.7162,-128.2875 896,-85 924.9793,-61.891 977.4056,-74.2012 983.8457,-75.8303"/>
<text text-anchor="middle" x="836.4607" y="-229.8176" font-family="Helvetica,sans-Serif" font-size="10.00" fill="#000000">*</text>
</g>
<!-- A4 -->
<g id="node5" class="node">
<title>A4</title>
<polygon fill="none" stroke="#000000" points="1123,-410 1123,-442 1265,-442 1265,-410 1123,-410"/>
<text text-anchor="start" x="1175.383" y="-423" font-family="Helvetica,sans-Serif" font-size="10.00" fill="#000000">Persona</text>
<polygon fill="none" stroke="#000000" points="1123,-342 1123,-410 1265,-410 1265,-342 1123,-342"/>
<text text-anchor="start" x="1163.1605" y="-391" font-family="Helvetica,sans-Serif" font-size="10.00" fill="#000000">nombre:Texto</text>
<text text-anchor="start" x="1162.8815" y="-379" font-family="Helvetica,sans-Serif" font-size="10.00" fill="#000000">apellido:Texto</text>
<text text-anchor="start" x="1168.165" y="-367" font-family="Helvetica,sans-Serif" font-size="10.00" fill="#000000">email:Texto</text>
<text text-anchor="start" x="1165.3855" y="-355" font-family="Helvetica,sans-Serif" font-size="10.00" fill="#000000">celular:Texto</text>
<polygon fill="none" stroke="#000000" points="1123,-226 1123,-342 1265,-342 1265,-226 1123,-226"/>
<text text-anchor="start" x="1132.741" y="-323" font-family="Helvetica,sans-Serif" font-size="10.00" fill="#000000">+Constructor(nombre:Texto</text>
<text text-anchor="start" x="1162.8815" y="-311" font-family="Helvetica,sans-Serif" font-size="10.00" fill="#000000">apellido:Texto</text>
<text text-anchor="start" x="1168.165" y="-299" font-family="Helvetica,sans-Serif" font-size="10.00" fill="#000000">email:Texto</text>
<text text-anchor="start" x="1163.721" y="-287" font-family="Helvetica,sans-Serif" font-size="10.00" fill="#000000">celular:Texto)</text>
<text text-anchor="start" x="1149.1335" y="-275" font-family="Helvetica,sans-Serif" font-size="10.00" fill="#000000">+getNombre():Texto</text>
<text text-anchor="start" x="1149.1295" y="-263" font-family="Helvetica,sans-Serif" font-size="10.00" fill="#000000">+getApellido():Texto</text>
<text text-anchor="start" x="1154.413" y="-251" font-family="Helvetica,sans-Serif" font-size="10.00" fill="#000000">+getEmail():Texto</text>
<text text-anchor="start" x="1151.079" y="-239" font-family="Helvetica,sans-Serif" font-size="10.00" fill="#000000">+getCelular():Texto</text>
</g>
<!-- A3&#45;&gt;A4 -->
<g id="edge5" class="edge">
<title>A3&#45;&gt;A4</title>
<path fill="none" stroke="#000000" d="M1085.2066,-334C1094.4614,-334 1103.7583,-334 1112.8078,-334"/>
<polygon fill="none" stroke="#000000" points="1085.0432,-334.0001 1079.0432,-338 1073.0432,-334 1079.0432,-330 1085.0432,-334.0001"/>
<polygon fill="#000000" stroke="#000000" points="1122.9045,-334 1112.9045,-338.5001 1117.9045,-334 1112.9045,-334.0001 1112.9045,-334.0001 1112.9045,-334.0001 1117.9045,-334 1112.9044,-329.5001 1122.9045,-334 1122.9045,-334"/>
<text text-anchor="middle" x="1104.7783" y="-339.4524" font-family="Helvetica,sans-Serif" font-size="10.00" fill="#000000">representante1</text>
<text text-anchor="middle" x="1091.1694" y="-322.5476" font-family="Helvetica,sans-Serif" font-size="10.00" fill="#000000">1</text>
</g>
<!-- A3&#45;&gt;A5 -->
<g id="edge7" class="edge">
<title>A3&#45;&gt;A5</title>
<path fill="none" stroke="#000000" d="M1077.1177,-247.7845C1095.0901,-233.0244 1111.7983,-221.0981 1123,-217 1182.2692,-195.3164 1205.7308,-195.3164 1265,-217 1282.2096,-223.2961 1298.7548,-232.7796 1314.0475,-243.6751"/>
<polygon fill="none" stroke="#000000" points="1076.8255,-248.0292 1074.7946,-254.9484 1067.6265,-255.7349 1069.6574,-248.8157 1076.8255,-248.0292"/>
<polygon fill="#000000" stroke="#000000" points="1322.411,-249.8622 1311.6954,-247.5326 1318.3913,-246.8885 1314.3717,-243.9149 1314.3717,-243.9149 1314.3717,-243.9149 1318.3913,-246.8885 1317.048,-240.2972 1322.411,-249.8622 1322.411,-249.8622"/>
<text text-anchor="middle" x="1302.812" y="-242.8772" font-family="Helvetica,sans-Serif" font-size="10.00" fill="#000000">jugador*</text>
<text text-anchor="middle" x="1076.0941" y="-234.6159" font-family="Helvetica,sans-Serif" font-size="10.00" fill="#000000">1</text>
</g>
<!-- A4&#45;&gt;A5 -->
<g id="edge6" class="edge">
<title>A4&#45;&gt;A5</title>
<path fill="none" stroke="#000000" d="M1275.4161,-334C1288.2824,-334 1301.6436,-334 1314.6686,-334"/>
<polygon fill="none" stroke="#000000" points="1275.2195,-330.5001 1265.2195,-334 1275.2194,-337.5001 1275.2195,-330.5001"/>
</g>
<!-- A7 -->
<g id="node8" class="node">
<title>A7</title>
<polygon fill="none" stroke="#000000" points="1123,-110 1123,-142 1265,-142 1265,-110 1123,-110"/>
<text text-anchor="start" x="1169.829" y="-123" font-family="Helvetica,sans-Serif" font-size="10.00" fill="#000000">Estadistica</text>
<polygon fill="none" stroke="#000000" points="1123,-78 1123,-110 1265,-110 1265,-78 1123,-78"/>
<text text-anchor="start" x="1163.1605" y="-91" font-family="Helvetica,sans-Serif" font-size="10.00" fill="#000000">nombre:Texto</text>
<polygon fill="none" stroke="#000000" points="1123,-10 1123,-78 1265,-78 1265,-10 1123,-10"/>
<text text-anchor="start" x="1132.741" y="-59" font-family="Helvetica,sans-Serif" font-size="10.00" fill="#000000">+Constructor(nombre:Texto</text>
<text text-anchor="start" x="1148.994" y="-47" font-family="Helvetica,sans-Serif" font-size="10.00" fill="#000000">tipo:TipoEstadistica)</text>
<text text-anchor="start" x="1149.1335" y="-35" font-family="Helvetica,sans-Serif" font-size="10.00" fill="#000000">+getNombre():Texto</text>
<text text-anchor="start" x="1135.7965" y="-23" font-family="Helvetica,sans-Serif" font-size="10.00" fill="#000000">+getTipo():TipoEstadistica</text>
</g>
<!-- A11 -->
<g id="node12" class="node">
<title>A11</title>
<polygon fill="none" stroke="#000000" points="1360.5,-82 1360.5,-126 1447.5,-126 1447.5,-82 1360.5,-82"/>
<text text-anchor="start" x="1379.264" y="-107" font-family="Helvetica,sans-Serif" font-size="10.00" fill="#000000">&lt;&lt;Enum&gt;&gt;</text>
<text text-anchor="start" x="1370.106" y="-95" font-family="Helvetica,sans-Serif" font-size="10.00" fill="#000000">TipoEstadistica</text>
<polygon fill="none" stroke="#000000" points="1360.5,-26 1360.5,-82 1447.5,-82 1447.5,-26 1360.5,-26"/>
<text text-anchor="start" x="1380.939" y="-63" font-family="Helvetica,sans-Serif" font-size="10.00" fill="#000000">POSITIVA</text>
<text text-anchor="start" x="1378.719" y="-51" font-family="Helvetica,sans-Serif" font-size="10.00" fill="#000000">NEGATIVA</text>
<text text-anchor="start" x="1383.448" y="-39" font-family="Helvetica,sans-Serif" font-size="10.00" fill="#000000">NEUTRA</text>
</g>
<!-- A7&#45;&gt;A11 -->
<g id="edge13" class="edge">
<title>A7&#45;&gt;A11</title>
<path fill="none" stroke="#000000" d="M1265.2195,-76C1292.8477,-76 1323.9549,-76 1349.6586,-76"/>
<polygon fill="#000000" stroke="#000000" points="1359.9518,-76 1349.9519,-80.5001 1354.9518,-76 1349.9518,-76.0001 1349.9518,-76.0001 1349.9518,-76.0001 1354.9518,-76 1349.9518,-71.5001 1359.9518,-76 1359.9518,-76"/>
<text text-anchor="middle" x="1341.8257" y="-81.4524" font-family="Helvetica,sans-Serif" font-size="10.00" fill="#000000">tipo1</text>
<text text-anchor="middle" x="1283.3456" y="-64.5476" font-family="Helvetica,sans-Serif" font-size="10.00" fill="#000000">*</text>
</g>
<!-- A8 -->
<g id="node9" class="node">
<title>A8</title>
<polygon fill="none" stroke="#000000" points="912.5,-206 912.5,-238 1057.5,-238 1057.5,-206 912.5,-206"/>
<text text-anchor="start" x="942.2175" y="-219" font-family="Helvetica,sans-Serif" font-size="10.00" fill="#000000">RegistroEstadistica</text>
<polygon fill="none" stroke="#000000" points="912.5,-162 912.5,-206 1057.5,-206 1057.5,-162 912.5,-162"/>
<text text-anchor="start" x="962.4995" y="-187" font-family="Helvetica,sans-Serif" font-size="10.00" fill="#000000">valor:Real</text>
<text text-anchor="start" x="935.8235" y="-175" font-family="Helvetica,sans-Serif" font-size="10.00" fill="#000000">estadistica:Estadistica</text>
<polygon fill="none" stroke="#000000" points="912.5,-94 912.5,-162 1057.5,-162 1057.5,-94 912.5,-94"/>
<text text-anchor="start" x="932.08" y="-143" font-family="Helvetica,sans-Serif" font-size="10.00" fill="#000000">+Constructor(valor:Real</text>
<text text-anchor="start" x="934.159" y="-131" font-family="Helvetica,sans-Serif" font-size="10.00" fill="#000000">estadistica:Estadistica)</text>
<text text-anchor="start" x="948.468" y="-119" font-family="Helvetica,sans-Serif" font-size="10.00" fill="#000000">+getValor():Real</text>
<text text-anchor="start" x="922.0715" y="-107" font-family="Helvetica,sans-Serif" font-size="10.00" fill="#000000">+getEstadistica():Estadistica</text>
</g>
<!-- A8&#45;&gt;A2JA7 -->
<g id="edge12" class="edge">
<title>A8&#45;&gt;A2JA7</title>
<path fill="none" stroke="#000000" stroke-dasharray="5,2" d="M984.5,-93.7951C984.5,-91.4806 984.5,-89.166 984.5,-86.8515"/>
<polygon fill="#000000" stroke="#000000" points="984.5,-76.7031 989.0001,-86.7031 984.5,-81.7031 984.5001,-86.7031 984.5001,-86.7031 984.5001,-86.7031 984.5,-81.7031 980.0001,-86.7032 984.5,-76.7031 984.5,-76.7031"/>
</g>
<!-- A9&#45;&gt;A2 -->
<g id="edge16" class="edge">
<title>A9&#45;&gt;A2</title>
<path fill="none" stroke="#000000" d="M555.073,-275.2809C564.1396,-277.9673 573.5722,-280.7621 583.1293,-283.5939"/>
<polygon fill="none" stroke="#000000" points="554.7278,-275.1787 547.8386,-277.3093 543.2222,-271.7695 550.1114,-269.6389 554.7278,-275.1787"/>
<polygon fill="#000000" stroke="#000000" points="592.7191,-286.4353 581.8527,-287.9089 587.9251,-285.0148 583.1311,-283.5943 583.1311,-283.5943 583.1311,-283.5943 587.9251,-285.0148 584.4096,-279.2798 592.7191,-286.4353 592.7191,-286.4353"/>
<text text-anchor="middle" x="572.9386" y="-286.39" font-family="Helvetica,sans-Serif" font-size="10.00" fill="#000000">2</text>
<text text-anchor="middle" x="563.0028" y="-265.8149" font-family="Helvetica,sans-Serif" font-size="10.00" fill="#000000">*</text>
</g>
<!-- A10 -->
<g id="node11" class="node">
<title>A10</title>
<polygon fill="none" stroke="#000000" points="612.5,-192 612.5,-224 827.5,-224 827.5,-192 612.5,-192"/>
<text text-anchor="start" x="683.607" y="-205" font-family="Helvetica,sans-Serif" font-size="10.00" fill="#000000">RegistroReporte</text>
<polygon fill="none" stroke="#000000" points="612.5,-148 612.5,-192 827.5,-192 827.5,-148 612.5,-148"/>
<text text-anchor="start" x="622.483" y="-173" font-family="Helvetica,sans-Serif" font-size="10.00" fill="#000000">estadisticaParticipanteA:RegistroEstadistica</text>
<text text-anchor="start" x="622.483" y="-161" font-family="Helvetica,sans-Serif" font-size="10.00" fill="#000000">estadisticaParticipanteB:RegistroEstadistica</text>
</g>
<!-- A9&#45;&gt;A10 -->
<g id="edge14" class="edge">
<title>A9&#45;&gt;A10</title>
<path fill="none" stroke="#000000" d="M554.9116,-230.703C569.9352,-226.6225 585.9685,-222.2678 601.9119,-217.9375"/>
<polygon fill="none" stroke="#000000" points="554.8027,-230.7325 550.0609,-236.1654 543.2222,-233.8779 547.964,-228.4451 554.8027,-230.7325"/>
<polygon fill="#000000" stroke="#000000" points="611.8175,-215.2471 603.3466,-222.2109 606.9923,-216.5577 602.1671,-217.8683 602.1671,-217.8683 602.1671,-217.8683 606.9923,-216.5577 600.9875,-213.5256 611.8175,-215.2471 611.8175,-215.2471"/>
<text text-anchor="middle" x="596.5405" y="-225.155" font-family="Helvetica,sans-Serif" font-size="10.00" fill="#000000">registros*</text>
<text text-anchor="middle" x="558.4992" y="-217.97" font-family="Helvetica,sans-Serif" font-size="10.00" fill="#000000">1</text>
</g>
<!-- A10&#45;&gt;A8 -->
<g id="edge15" class="edge">
<title>A10&#45;&gt;A8</title>
<path fill="none" stroke="#000000" d="M839.333,-176.956C860.3398,-175.3706 881.7753,-173.7528 901.5011,-172.2641"/>
<polygon fill="none" stroke="#000000" points="839.2516,-176.9621 833.5697,-181.4023 827.2856,-177.8652 832.9676,-173.425 839.2516,-176.9621"/>
<polygon fill="#000000" stroke="#000000" points="911.6494,-171.4982 902.0164,-176.7381 906.6636,-171.8745 901.6777,-172.2508 901.6777,-172.2508 901.6777,-172.2508 906.6636,-171.8745 901.339,-167.7636 911.6494,-171.4982 911.6494,-171.4982"/>
<text text-anchor="middle" x="894.2107" y="-178.2907" font-family="Helvetica,sans-Serif" font-size="10.00" fill="#000000">2</text>
<text text-anchor="middle" x="844.7243" y="-165.0727" font-family="Helvetica,sans-Serif" font-size="10.00" fill="#000000">*</text>
</g>
<!-- A2JA7&#45;&gt;A7 -->
<g id="edge11" class="edge">
<title>A2JA7&#45;&gt;A7</title>
<path fill="none" stroke="#000000" d="M985.101,-76C991.9922,-76 1056.8519,-76 1112.4956,-76"/>
<polygon fill="#000000" stroke="#000000" points="1122.7622,-76 1112.7623,-80.5001 1117.7622,-76 1112.7622,-76.0001 1112.7622,-76.0001 1112.7622,-76.0001 1117.7622,-76 1112.7622,-71.5001 1122.7622,-76 1122.7622,-76"/>
<text text-anchor="middle" x="1104.6361" y="-81.4524" font-family="Helvetica,sans-Serif" font-size="10.00" fill="#000000">*</text>
</g>
</g>
</svg>
