<?xml version="1.0" encoding="UTF-8" standalone="no"?>
<!DOCTYPE svg PUBLIC "-//W3C//DTD SVG 1.1//EN"
 "http://www.w3.org/Graphics/SVG/1.1/DTD/svg11.dtd">
<!-- Generated by graphviz version 2.40.1 (20161225.0304)
 -->
<!-- Title: G Pages: 1 -->
<svg width="2531pt" height="629pt"
 viewBox="0.00 0.00 2531.00 629.00" xmlns="http://www.w3.org/2000/svg" xmlns:xlink="http://www.w3.org/1999/xlink">
<g id="graph0" class="graph" transform="scale(1 1) rotate(0) translate(4 625)">
<title>G</title>
<polygon fill="#ffffff" stroke="transparent" points="-4,4 -4,-625 2527,-625 2527,4 -4,4"/>
<!-- A0 -->
<g id="node1" class="node">
<title>A0</title>
<polygon fill="none" stroke="#000000" points="0,-589 0,-621 346,-621 346,-589 0,-589"/>
<text text-anchor="start" x="157.163" y="-602" font-family="Helvetica,sans-Serif" font-size="10.00" fill="#000000">Torneo</text>
<polygon fill="none" stroke="#000000" points="0,-485 0,-589 346,-589 346,-485 0,-485"/>
<text text-anchor="start" x="142.1605" y="-570" font-family="Helvetica,sans-Serif" font-size="10.00" fill="#000000">nombre:Texto</text>
<text text-anchor="start" x="133.822" y="-558" font-family="Helvetica,sans-Serif" font-size="10.00" fill="#000000">fechaInicio:Fecha</text>
<text text-anchor="start" x="104.6515" y="-546" font-family="Helvetica,sans-Serif" font-size="10.00" fill="#000000">fechaInicioInscripciones:Fecha</text>
<text text-anchor="start" x="102.712" y="-534" font-family="Helvetica,sans-Serif" font-size="10.00" fill="#000000">fechaCierreInscripciones:Fecha</text>
<text text-anchor="start" x="111.042" y="-522" font-family="Helvetica,sans-Serif" font-size="10.00" fill="#000000">numeroParticipantes:Entero</text>
<text text-anchor="start" x="133.5485" y="-510" font-family="Helvetica,sans-Serif" font-size="10.00" fill="#000000">limiteEdad:Entero</text>
<text text-anchor="start" x="122.1595" y="-498" font-family="Helvetica,sans-Serif" font-size="10.00" fill="#000000">valorInscripcion:Entero</text>
<polygon fill="none" stroke="#000000" points="0,-45 0,-485 346,-485 346,-45 0,-45"/>
<text text-anchor="start" x="111.741" y="-466" font-family="Helvetica,sans-Serif" font-size="10.00" fill="#000000">+Constructor(nombre:Texto</text>
<text text-anchor="start" x="133.822" y="-454" font-family="Helvetica,sans-Serif" font-size="10.00" fill="#000000">fechaInicio:Fecha</text>
<text text-anchor="start" x="104.6515" y="-442" font-family="Helvetica,sans-Serif" font-size="10.00" fill="#000000">fechaInicioInscripciones:Fecha</text>
<text text-anchor="start" x="102.712" y="-430" font-family="Helvetica,sans-Serif" font-size="10.00" fill="#000000">fechaCierreInscripciones:Fecha</text>
<text text-anchor="start" x="111.042" y="-418" font-family="Helvetica,sans-Serif" font-size="10.00" fill="#000000">numeroParticipantes:Entero</text>
<text text-anchor="start" x="133.5485" y="-406" font-family="Helvetica,sans-Serif" font-size="10.00" fill="#000000">limiteEdad:Entero</text>
<text text-anchor="start" x="122.1595" y="-394" font-family="Helvetica,sans-Serif" font-size="10.00" fill="#000000">valorInscripcion:Entero</text>
<text text-anchor="start" x="122.1555" y="-382" font-family="Helvetica,sans-Serif" font-size="10.00" fill="#000000">tipoTorneo:TipoTorneo</text>
<text text-anchor="start" x="12.288" y="-370" font-family="Helvetica,sans-Serif" font-size="10.00" fill="#000000">caracter:CaracterTorneo)+registrarParticipante(participante:Participante)</text>
<text text-anchor="start" x="128.1335" y="-358" font-family="Helvetica,sans-Serif" font-size="10.00" fill="#000000">+getNombre():Texto</text>
<text text-anchor="start" x="118.96" y="-346" font-family="Helvetica,sans-Serif" font-size="10.00" fill="#000000">+getFechaInicio():Fecha</text>
<text text-anchor="start" x="89.7895" y="-334" font-family="Helvetica,sans-Serif" font-size="10.00" fill="#000000">+getFechaInicioInscripciones():Fecha</text>
<text text-anchor="start" x="87.85" y="-322" font-family="Helvetica,sans-Serif" font-size="10.00" fill="#000000">+getFechaCierreInscripciones():Fecha</text>
<text text-anchor="start" x="97.015" y="-310" font-family="Helvetica,sans-Serif" font-size="10.00" fill="#000000">+getNumeroParticipantes():Entero</text>
<text text-anchor="start" x="118.6815" y="-298" font-family="Helvetica,sans-Serif" font-size="10.00" fill="#000000">+getLimiteEdad():Entero</text>
<text text-anchor="start" x="108.128" y="-286" font-family="Helvetica,sans-Serif" font-size="10.00" fill="#000000">+getValorInscripcion():Entero</text>
<text text-anchor="start" x="107.2935" y="-274" font-family="Helvetica,sans-Serif" font-size="10.00" fill="#000000">+getTipoTorneo():TipoTorneo</text>
<text text-anchor="start" x="80.6215" y="-262" font-family="Helvetica,sans-Serif" font-size="10.00" fill="#000000">+getParticipantes():Participante［*］</text>
<text text-anchor="start" x="104.2435" y="-250" font-family="Helvetica,sans-Serif" font-size="10.00" fill="#000000">+getCaracter():CaracterTorneo</text>
<text text-anchor="start" x="95.344" y="-238" font-family="Helvetica,sans-Serif" font-size="10.00" fill="#000000">+setFechaInicio(fechaInicio:Fecha)</text>
<text text-anchor="start" x="37.003" y="-226" font-family="Helvetica,sans-Serif" font-size="10.00" fill="#000000">+setFechaInicioInscripciones(fechaInicioInscripciones:Fecha)</text>
<text text-anchor="start" x="33.124" y="-214" font-family="Helvetica,sans-Serif" font-size="10.00" fill="#000000">+setFechaCierreInscripciones(fechaCierreInscripciones:Fecha)</text>
<text text-anchor="start" x="69.65" y="-202" font-family="Helvetica,sans-Serif" font-size="10.00" fill="#000000">buscarParticipante(nombre:Texto):Participante</text>
<text text-anchor="start" x="60.8875" y="-190" font-family="Helvetica,sans-Serif" font-size="10.00" fill="#000000">+registrarJugador(equipo:Equipo,jugador:Jugador)</text>
<text text-anchor="start" x="46.4445" y="-178" font-family="Helvetica,sans-Serif" font-size="10.00" fill="#000000">+registrarJugador(nombreEquipo:Texto,jugador:Jugador)</text>
<text text-anchor="start" x="45.896" y="-166" font-family="Helvetica,sans-Serif" font-size="10.00" fill="#000000">+registrarEstadisticaParticipante(participante:Participante</text>
<text text-anchor="start" x="110.4915" y="-154" font-family="Helvetica,sans-Serif" font-size="10.00" fill="#000000">estadistica:ValorEstadistica)</text>
<text text-anchor="start" x="85.0685" y="-142" font-family="Helvetica,sans-Serif" font-size="10.00" fill="#000000">+getEstadisticas():Estadistica［*］</text>
<text text-anchor="start" x="62.2905" y="-130" font-family="Helvetica,sans-Serif" font-size="10.00" fill="#000000">+buscarMejor(estadistica:Estadistica):Participante</text>
<text text-anchor="start" x="71.1735" y="-118" font-family="Helvetica,sans-Serif" font-size="10.00" fill="#000000">+buscarSuperiorIgualA(estadistica:Estadistica</text>
<text text-anchor="start" x="98.548" y="-106" font-family="Helvetica,sans-Serif" font-size="10.00" fill="#000000">valor:Real):Participante［*］</text>
<text text-anchor="start" x="85.346" y="-94" font-family="Helvetica,sans-Serif" font-size="10.00" fill="#000000">+buscarInferiorA(estadistica:Estadistica</text>
<text text-anchor="start" x="98.548" y="-82" font-family="Helvetica,sans-Serif" font-size="10.00" fill="#000000">valor:Real):Participante［*］</text>
<text text-anchor="start" x="60.9005" y="-70" font-family="Helvetica,sans-Serif" font-size="10.00" fill="#000000">+promedioEstadistica(estadistica:Estadistica):Real</text>
<text text-anchor="start" x="9.7745" y="-58" font-family="Helvetica,sans-Serif" font-size="10.00" fill="#000000">+obtenerEstadisticas(participante:Participante):ValorEstadistica［*］</text>
</g>
<!-- A1 -->
<g id="node2" class="node">
<title>A1</title>
<polygon fill="none" stroke="#000000" points="427.5,-516 427.5,-560 498.5,-560 498.5,-516 427.5,-516"/>
<text text-anchor="start" x="438.264" y="-541" font-family="Helvetica,sans-Serif" font-size="10.00" fill="#000000">&lt;&lt;Enum&gt;&gt;</text>
<text text-anchor="start" x="437.44" y="-529" font-family="Helvetica,sans-Serif" font-size="10.00" fill="#000000">TipoTorneo</text>
<polygon fill="none" stroke="#000000" points="427.5,-448 427.5,-516 498.5,-516 498.5,-448 427.5,-448"/>
<text text-anchor="start" x="446.6075" y="-497" font-family="Helvetica,sans-Serif" font-size="10.00" fill="#000000">LOCAL</text>
<text text-anchor="start" x="437.164" y="-485" font-family="Helvetica,sans-Serif" font-size="10.00" fill="#000000">REGIONAL</text>
<text text-anchor="start" x="437.444" y="-473" font-family="Helvetica,sans-Serif" font-size="10.00" fill="#000000">NACIONAL</text>
<text text-anchor="start" x="440.5035" y="-461" font-family="Helvetica,sans-Serif" font-size="10.00" fill="#000000">MUNDIAL</text>
</g>
<!-- A0&#45;&gt;A1 -->
<g id="edge3" class="edge">
<title>A0&#45;&gt;A1</title>
<path fill="none" stroke="#000000" d="M346.0007,-435.1869C372.7188,-450.9686 398.1008,-465.9611 418.312,-477.8993"/>
<polygon fill="#000000" stroke="#000000" points="426.9325,-482.9912 416.0337,-481.78 422.6274,-480.4483 418.3223,-477.9054 418.3223,-477.9054 418.3223,-477.9054 422.6274,-480.4483 420.611,-474.0308 426.9325,-482.9912 426.9325,-482.9912"/>
<text text-anchor="middle" x="407.0269" y="-478.0503" font-family="Helvetica,sans-Serif" font-size="10.00" fill="#000000">tipoTorneo1</text>
<text text-anchor="middle" x="365.9063" y="-434.1279" font-family="Helvetica,sans-Serif" font-size="10.00" fill="#000000">*</text>
</g>
<!-- A4 -->
<g id="node5" class="node">
<title>A4</title>
<polygon fill="none" stroke="#000000" points="579,-282 579,-326 799,-326 799,-282 579,-282"/>
<text text-anchor="start" x="658.151" y="-307" font-family="Helvetica,sans-Serif" font-size="10.00" fill="#000000">&lt;&lt;interface&gt;&gt;</text>
<text text-anchor="start" x="662.6055" y="-295" font-family="Helvetica,sans-Serif" font-size="10.00" fill="#000000">Participante</text>
<polygon fill="none" stroke="#000000" points="579,-238 579,-282 799,-282 799,-238 579,-238"/>
<text text-anchor="start" x="622.7425" y="-263" font-family="Helvetica,sans-Serif" font-size="10.00" fill="#000000">+getNombreCompleto():Texto</text>
<text text-anchor="start" x="588.8485" y="-251" font-family="Helvetica,sans-Serif" font-size="10.00" fill="#000000">+getRegistroEstadistica():RegistroEstadistica</text>
</g>
<!-- A0&#45;&gt;A4 -->
<g id="edge4" class="edge">
<title>A0&#45;&gt;A4</title>
<path fill="none" stroke="#000000" d="M357.8951,-237.7437C370.5837,-233.5105 383.354,-229.8526 396,-227 453.6623,-213.9929 470.697,-217.2589 529,-227 542.1719,-229.2007 555.7117,-232.3545 569.0733,-236.0534"/>
<polygon fill="none" stroke="#000000" points="357.6051,-237.8445 353.2521,-243.5935 346.271,-241.7864 350.6241,-236.0374 357.6051,-237.8445"/>
<polygon fill="#000000" stroke="#000000" points="578.7633,-238.8373 567.9095,-240.401 573.9577,-237.4566 569.1521,-236.076 569.1521,-236.076 569.1521,-236.076 573.9577,-237.4566 570.3947,-231.7509 578.7633,-238.8373 578.7633,-238.8373"/>
<text text-anchor="middle" x="559.008" y="-238.956" font-family="Helvetica,sans-Serif" font-size="10.00" fill="#000000">participantes*</text>
<text text-anchor="middle" x="360.6148" y="-224.8488" font-family="Helvetica,sans-Serif" font-size="10.00" fill="#000000">1</text>
</g>
<!-- A8 -->
<g id="node9" class="node">
<title>A8</title>
<polygon fill="none" stroke="#000000" points="417.5,-280 417.5,-324 507.5,-324 507.5,-280 417.5,-280"/>
<text text-anchor="start" x="437.764" y="-305" font-family="Helvetica,sans-Serif" font-size="10.00" fill="#000000">&lt;&lt;Enum&gt;&gt;</text>
<text text-anchor="start" x="427.4965" y="-293" font-family="Helvetica,sans-Serif" font-size="10.00" fill="#000000">CaracterTorneo</text>
<polygon fill="none" stroke="#000000" points="417.5,-236 417.5,-280 507.5,-280 507.5,-236 417.5,-236"/>
<text text-anchor="start" x="434.445" y="-261" font-family="Helvetica,sans-Serif" font-size="10.00" fill="#000000">INDIVIDUAL</text>
<text text-anchor="start" x="441.943" y="-249" font-family="Helvetica,sans-Serif" font-size="10.00" fill="#000000">GRUPAL</text>
</g>
<!-- A0&#45;&gt;A8 -->
<g id="edge2" class="edge">
<title>A0&#45;&gt;A8</title>
<path fill="none" stroke="#000000" d="M346.0007,-301.328C368.1093,-297.2805 389.3031,-293.4005 407.4093,-290.0857"/>
<polygon fill="#000000" stroke="#000000" points="417.4159,-288.2537 408.3897,-294.4811 412.4976,-289.1542 407.5793,-290.0546 407.5793,-290.0546 407.5793,-290.0546 412.4976,-289.1542 406.7689,-285.6282 417.4159,-288.2537 417.4159,-288.2537"/>
<text text-anchor="middle" x="401.1082" y="-296.8321" font-family="Helvetica,sans-Serif" font-size="10.00" fill="#000000">caracter1</text>
<text text-anchor="middle" x="362.3084" y="-286.7497" font-family="Helvetica,sans-Serif" font-size="10.00" fill="#000000">*</text>
</g>
<!-- A11 -->
<g id="node12" class="node">
<title>A11</title>
<polygon fill="none" stroke="#000000" points="396.5,-398 396.5,-430 529.5,-430 529.5,-398 396.5,-398"/>
<text text-anchor="start" x="445.2185" y="-411" font-family="Helvetica,sans-Serif" font-size="10.00" fill="#000000">Reporte</text>
<polygon fill="none" stroke="#000000" points="396.5,-342 396.5,-398 529.5,-398 529.5,-342 396.5,-342"/>
<text text-anchor="start" x="435.4895" y="-379" font-family="Helvetica,sans-Serif" font-size="10.00" fill="#000000">fecha:Fecha</text>
<text text-anchor="start" x="406.042" y="-367" font-family="Helvetica,sans-Serif" font-size="10.00" fill="#000000">participanteA:Participante</text>
<text text-anchor="start" x="406.042" y="-355" font-family="Helvetica,sans-Serif" font-size="10.00" fill="#000000">participanteB:Participante</text>
</g>
<!-- A0&#45;&gt;A11 -->
<g id="edge1" class="edge">
<title>A0&#45;&gt;A11</title>
<path fill="none" stroke="#000000" stroke-dasharray="5,2" d="M346.0007,-364.672C359.8168,-367.2013 373.2757,-369.6653 385.847,-371.9668"/>
<polygon fill="#000000" stroke="#000000" points="395.7286,-373.7759 385.0817,-376.4014 390.8103,-372.8754 385.8921,-371.975 385.8921,-371.975 385.8921,-371.975 390.8103,-372.8754 386.7025,-367.5485 395.7286,-373.7759 395.7286,-373.7759"/>
</g>
<!-- A2 -->
<g id="node3" class="node">
<title>A2</title>
<polygon fill="none" stroke="#000000" points="1519.5,-216 1519.5,-260 1758.5,-260 1758.5,-216 1519.5,-216"/>
<text text-anchor="start" x="1608.151" y="-241" font-family="Helvetica,sans-Serif" font-size="10.00" fill="#000000">&lt;&lt;interface&gt;&gt;</text>
<text text-anchor="start" x="1596.2175" y="-229" font-family="Helvetica,sans-Serif" font-size="10.00" fill="#000000">RegistroEstadistica</text>
<polygon fill="none" stroke="#000000" points="1519.5,-148 1519.5,-216 1758.5,-216 1758.5,-148 1519.5,-148"/>
<text text-anchor="start" x="1539.401" y="-197" font-family="Helvetica,sans-Serif" font-size="10.00" fill="#000000">+getEstadisticas():ValorEstadistica［*］</text>
<text text-anchor="start" x="1529.4055" y="-185" font-family="Helvetica,sans-Serif" font-size="10.00" fill="#000000">+registrarEstadistica(estadistica:ValorEstadistica)</text>
<text text-anchor="start" x="1559.681" y="-173" font-family="Helvetica,sans-Serif" font-size="10.00" fill="#000000">+comparar(participante:Participante</text>
<text text-anchor="start" x="1572.0425" y="-161" font-family="Helvetica,sans-Serif" font-size="10.00" fill="#000000">estadistica:Estadistica):Entero</text>
</g>
<!-- A3 -->
<g id="node4" class="node">
<title>A3</title>
<polygon fill="none" stroke="#000000" points="1808.5,-250 1808.5,-282 1999.5,-282 1999.5,-250 1808.5,-250"/>
<text text-anchor="start" x="1851.7745" y="-263" font-family="Helvetica,sans-Serif" font-size="10.00" fill="#000000">RegistroEstadisticaImpl</text>
<polygon fill="none" stroke="#000000" points="1808.5,-218 1808.5,-250 1999.5,-250 1999.5,-218 1808.5,-218"/>
<text text-anchor="start" x="1818.153" y="-231" font-family="Helvetica,sans-Serif" font-size="10.00" fill="#000000">estadisticas:ValorEstadistica［*］</text>
<polygon fill="none" stroke="#000000" points="1808.5,-186 1808.5,-218 1999.5,-218 1999.5,-186 1808.5,-186"/>
<text text-anchor="start" x="1871.916" y="-199" font-family="Helvetica,sans-Serif" font-size="10.00" fill="#000000">+Constructor()</text>
</g>
<!-- A2&#45;&gt;A3 -->
<g id="edge18" class="edge">
<title>A2&#45;&gt;A3</title>
<path fill="none" stroke="#000000" d="M1768.3459,-218.6995C1781.6241,-220.2027 1794.9379,-221.71 1807.7536,-223.1608"/>
<polygon fill="none" stroke="#000000" points="1768.538,-215.199 1758.2077,-217.5518 1767.7505,-222.1546 1768.538,-215.199"/>
</g>
<!-- A2&#45;&gt;A4 -->
<g id="edge17" class="edge">
<title>A2&#45;&gt;A4</title>
<path fill="none" stroke="#000000" d="M1509.2348,-258.5455C1495.8064,-262.9379 1482.2315,-266.877 1469,-270 1200.3616,-333.4055 1124.2552,-326.5293 849,-306 832.8938,-304.7988 815.9509,-302.9263 799.3598,-300.7449"/>
<polygon fill="none" stroke="#000000" points="1510.6148,-261.7742 1518.9799,-255.2722 1508.3859,-255.1385 1510.6148,-261.7742"/>
</g>
<!-- A3JA9 -->
<!-- A3&#45;&gt;A3JA9 -->
<g id="edge10" class="edge">
<title>A3&#45;&gt;A3JA9</title>
<path fill="none" stroke="#000000" d="M1999.118,-240.5792C2054.9462,-244.4206 2115.5295,-248.5892 2121.0865,-248.9715"/>
<text text-anchor="middle" x="2017.7816" y="-230.3911" font-family="Helvetica,sans-Serif" font-size="10.00" fill="#000000">*</text>
</g>
<!-- A5 -->
<g id="node6" class="node">
<title>A5</title>
<polygon fill="none" stroke="#000000" points="861.5,-124 861.5,-156 1038.5,-156 1038.5,-124 861.5,-124"/>
<text text-anchor="start" x="934.438" y="-137" font-family="Helvetica,sans-Serif" font-size="10.00" fill="#000000">Equipo</text>
<polygon fill="none" stroke="#000000" points="861.5,-92 861.5,-124 1038.5,-124 1038.5,-92 861.5,-92"/>
<text text-anchor="start" x="919.1605" y="-105" font-family="Helvetica,sans-Serif" font-size="10.00" fill="#000000">nombre:Texto</text>
<polygon fill="none" stroke="#000000" points="861.5,0 861.5,-92 1038.5,-92 1038.5,0 861.5,0"/>
<text text-anchor="start" x="888.741" y="-73" font-family="Helvetica,sans-Serif" font-size="10.00" fill="#000000">+Constructor(nombre:Texto</text>
<text text-anchor="start" x="897.485" y="-61" font-family="Helvetica,sans-Serif" font-size="10.00" fill="#000000">representante:Persona)</text>
<text text-anchor="start" x="905.1335" y="-49" font-family="Helvetica,sans-Serif" font-size="10.00" fill="#000000">+getNombre():Texto</text>
<text text-anchor="start" x="884.0075" y="-37" font-family="Helvetica,sans-Serif" font-size="10.00" fill="#000000">+getRepresentante():Persona</text>
<text text-anchor="start" x="871.507" y="-25" font-family="Helvetica,sans-Serif" font-size="10.00" fill="#000000">+getJugadores():Jugador［*］</text>
<text text-anchor="start" x="871.2355" y="-13" font-family="Helvetica,sans-Serif" font-size="10.00" fill="#000000">+registrarJugador(jugador:Jugador)</text>
</g>
<!-- A4&#45;&gt;A5 -->
<g id="edge9" class="edge">
<title>A4&#45;&gt;A5</title>
<path fill="none" stroke="#000000" d="M753.2833,-231.6592C785.7191,-206.2583 825.5705,-175.0504 860.866,-147.4101"/>
<polygon fill="none" stroke="#000000" points="750.9191,-229.065 745.2039,-237.9862 755.235,-234.5762 750.9191,-229.065"/>
</g>
<!-- A7 -->
<g id="node8" class="node">
<title>A7</title>
<polygon fill="none" stroke="#000000" points="1292.5,-229 1292.5,-261 1469.5,-261 1469.5,-229 1292.5,-229"/>
<text text-anchor="start" x="1362.938" y="-242" font-family="Helvetica,sans-Serif" font-size="10.00" fill="#000000">Jugador</text>
<polygon fill="none" stroke="#000000" points="1292.5,-197 1292.5,-229 1469.5,-229 1469.5,-197 1292.5,-197"/>
<text text-anchor="start" x="1328.489" y="-210" font-family="Helvetica,sans-Serif" font-size="10.00" fill="#000000">fechaNacimiento:Fecha</text>
<polygon fill="none" stroke="#000000" points="1292.5,-93 1292.5,-197 1469.5,-197 1469.5,-93 1292.5,-93"/>
<text text-anchor="start" x="1319.741" y="-178" font-family="Helvetica,sans-Serif" font-size="10.00" fill="#000000">+Constructor(nombre:Texto</text>
<text text-anchor="start" x="1349.8815" y="-166" font-family="Helvetica,sans-Serif" font-size="10.00" fill="#000000">apellido:Texto</text>
<text text-anchor="start" x="1355.165" y="-154" font-family="Helvetica,sans-Serif" font-size="10.00" fill="#000000">email:Texto</text>
<text text-anchor="start" x="1352.3855" y="-142" font-family="Helvetica,sans-Serif" font-size="10.00" fill="#000000">celular:Texto</text>
<text text-anchor="start" x="1326.8245" y="-130" font-family="Helvetica,sans-Serif" font-size="10.00" fill="#000000">fechaNacimiento:Fecha)</text>
<text text-anchor="start" x="1313.627" y="-118" font-family="Helvetica,sans-Serif" font-size="10.00" fill="#000000">+getFechaNacimiento():Fecha</text>
<text text-anchor="start" x="1302.2295" y="-106" font-family="Helvetica,sans-Serif" font-size="10.00" fill="#000000">+calcularEdad(fecha:Fecha):Entero</text>
</g>
<!-- A4&#45;&gt;A7 -->
<g id="edge8" class="edge">
<title>A4&#45;&gt;A7</title>
<path fill="none" stroke="#000000" d="M809.1677,-295.4057C923.1863,-304.0742 1098.0199,-306.7521 1242,-263 1258.9255,-257.8567 1275.8418,-250.0988 1291.7447,-241.3095"/>
<polygon fill="none" stroke="#000000" points="809.2568,-291.902 799.0127,-294.6056 808.7069,-298.8803 809.2568,-291.902"/>
</g>
<!-- A5&#45;&gt;A2 -->
<g id="edge20" class="edge">
<title>A5&#45;&gt;A2</title>
<path fill="none" stroke="#000000" d="M1038.0942,-30.536C1057.9332,-22.0352 1079.2588,-14.4683 1100,-10 1161.6957,3.291 1179.6707,-.0971 1242,-10 1346.7998,-26.6507 1374.1808,-36.36 1469,-84 1500.8153,-99.985 1533.3072,-121.4939 1561.2195,-141.8864"/>
<polygon fill="#000000" stroke="#000000" points="1569.3465,-147.8864 1558.6286,-145.5671 1565.324,-144.9166 1561.3014,-141.9469 1561.3014,-141.9469 1561.3014,-141.9469 1565.324,-144.9166 1563.9742,-138.3266 1569.3465,-147.8864 1569.3465,-147.8864"/>
</g>
<!-- A6 -->
<g id="node7" class="node">
<title>A6</title>
<polygon fill="none" stroke="#000000" points="1100,-222 1100,-254 1242,-254 1242,-222 1100,-222"/>
<text text-anchor="start" x="1152.383" y="-235" font-family="Helvetica,sans-Serif" font-size="10.00" fill="#000000">Persona</text>
<polygon fill="none" stroke="#000000" points="1100,-154 1100,-222 1242,-222 1242,-154 1100,-154"/>
<text text-anchor="start" x="1140.1605" y="-203" font-family="Helvetica,sans-Serif" font-size="10.00" fill="#000000">nombre:Texto</text>
<text text-anchor="start" x="1139.8815" y="-191" font-family="Helvetica,sans-Serif" font-size="10.00" fill="#000000">apellido:Texto</text>
<text text-anchor="start" x="1145.165" y="-179" font-family="Helvetica,sans-Serif" font-size="10.00" fill="#000000">email:Texto</text>
<text text-anchor="start" x="1142.3855" y="-167" font-family="Helvetica,sans-Serif" font-size="10.00" fill="#000000">celular:Texto</text>
<polygon fill="none" stroke="#000000" points="1100,-38 1100,-154 1242,-154 1242,-38 1100,-38"/>
<text text-anchor="start" x="1109.741" y="-135" font-family="Helvetica,sans-Serif" font-size="10.00" fill="#000000">+Constructor(nombre:Texto</text>
<text text-anchor="start" x="1139.8815" y="-123" font-family="Helvetica,sans-Serif" font-size="10.00" fill="#000000">apellido:Texto</text>
<text text-anchor="start" x="1145.165" y="-111" font-family="Helvetica,sans-Serif" font-size="10.00" fill="#000000">email:Texto</text>
<text text-anchor="start" x="1140.721" y="-99" font-family="Helvetica,sans-Serif" font-size="10.00" fill="#000000">celular:Texto)</text>
<text text-anchor="start" x="1126.1335" y="-87" font-family="Helvetica,sans-Serif" font-size="10.00" fill="#000000">+getNombre():Texto</text>
<text text-anchor="start" x="1126.1295" y="-75" font-family="Helvetica,sans-Serif" font-size="10.00" fill="#000000">+getApellido():Texto</text>
<text text-anchor="start" x="1131.413" y="-63" font-family="Helvetica,sans-Serif" font-size="10.00" fill="#000000">+getEmail():Texto</text>
<text text-anchor="start" x="1128.079" y="-51" font-family="Helvetica,sans-Serif" font-size="10.00" fill="#000000">+getCelular():Texto</text>
</g>
<!-- A5&#45;&gt;A6 -->
<g id="edge5" class="edge">
<title>A5&#45;&gt;A6</title>
<path fill="none" stroke="#000000" d="M1049.9157,-108.8274C1063.3488,-112.9513 1076.9865,-117.1381 1090.0289,-121.1421"/>
<polygon fill="none" stroke="#000000" points="1049.7878,-108.7882 1042.8781,-110.8512 1038.3163,-105.2664 1045.226,-103.2034 1049.7878,-108.7882"/>
<polygon fill="#000000" stroke="#000000" points="1099.8733,-124.1643 1088.993,-125.5312 1095.0935,-122.6968 1090.3136,-121.2294 1090.3136,-121.2294 1090.3136,-121.2294 1095.0935,-122.6968 1091.6343,-116.9276 1099.8733,-124.1643 1099.8733,-124.1643"/>
<text text-anchor="middle" x="1080.0647" y="-123.9248" font-family="Helvetica,sans-Serif" font-size="10.00" fill="#000000">representante1</text>
<text text-anchor="middle" x="1058.1248" y="-99.5059" font-family="Helvetica,sans-Serif" font-size="10.00" fill="#000000">1</text>
</g>
<!-- A5&#45;&gt;A7 -->
<g id="edge7" class="edge">
<title>A5&#45;&gt;A7</title>
<path fill="none" stroke="#000000" d="M1049.4908,-34.1267C1107.6443,-15.153 1181.22,-2.6357 1242,-29 1270.2802,-41.267 1295.423,-62.4677 1316.2644,-85.052"/>
<polygon fill="none" stroke="#000000" points="1049.4385,-34.1443 1045.0408,-39.8593 1038.0741,-37.9979 1042.4718,-32.283 1049.4385,-34.1443"/>
<polygon fill="#000000" stroke="#000000" points="1323.1658,-92.7532 1313.1407,-88.3092 1319.8289,-89.0296 1316.492,-85.306 1316.492,-85.306 1316.492,-85.306 1319.8289,-89.0296 1319.8432,-82.3027 1323.1658,-92.7532 1323.1658,-92.7532"/>
<text text-anchor="middle" x="1304.7741" y="-81.8952" font-family="Helvetica,sans-Serif" font-size="10.00" fill="#000000">jugador*</text>
<text text-anchor="middle" x="1052.526" y="-21.1725" font-family="Helvetica,sans-Serif" font-size="10.00" fill="#000000">1</text>
</g>
<!-- A6&#45;&gt;A7 -->
<g id="edge6" class="edge">
<title>A6&#45;&gt;A7</title>
<path fill="none" stroke="#000000" d="M1252.4161,-158.0472C1265.2824,-159.9511 1278.6436,-161.9282 1291.6686,-163.8555"/>
<polygon fill="none" stroke="#000000" points="1252.6241,-154.54 1242.2195,-156.5384 1251.5994,-161.4646 1252.6241,-154.54"/>
</g>
<!-- A7&#45;&gt;A2 -->
<g id="edge19" class="edge">
<title>A7&#45;&gt;A2</title>
<path fill="none" stroke="#000000" d="M1469.289,-186.2919C1481.9498,-187.6168 1495.1848,-189.0019 1508.4347,-190.3885"/>
<polygon fill="#000000" stroke="#000000" points="1518.5607,-191.4482 1508.1466,-194.8829 1513.5879,-190.9278 1508.615,-190.4073 1508.615,-190.4073 1508.615,-190.4073 1513.5879,-190.9278 1509.0834,-185.9317 1518.5607,-191.4482 1518.5607,-191.4482"/>
</g>
<!-- A9 -->
<g id="node10" class="node">
<title>A9</title>
<polygon fill="none" stroke="#000000" points="2244,-283 2244,-315 2386,-315 2386,-283 2244,-283"/>
<text text-anchor="start" x="2290.829" y="-296" font-family="Helvetica,sans-Serif" font-size="10.00" fill="#000000">Estadistica</text>
<polygon fill="none" stroke="#000000" points="2244,-251 2244,-283 2386,-283 2386,-251 2244,-251"/>
<text text-anchor="start" x="2284.1605" y="-264" font-family="Helvetica,sans-Serif" font-size="10.00" fill="#000000">nombre:Texto</text>
<polygon fill="none" stroke="#000000" points="2244,-183 2244,-251 2386,-251 2386,-183 2244,-183"/>
<text text-anchor="start" x="2253.741" y="-232" font-family="Helvetica,sans-Serif" font-size="10.00" fill="#000000">+Constructor(nombre:Texto</text>
<text text-anchor="start" x="2269.994" y="-220" font-family="Helvetica,sans-Serif" font-size="10.00" fill="#000000">tipo:TipoEstadistica)</text>
<text text-anchor="start" x="2270.1335" y="-208" font-family="Helvetica,sans-Serif" font-size="10.00" fill="#000000">+getNombre():Texto</text>
<text text-anchor="start" x="2256.7965" y="-196" font-family="Helvetica,sans-Serif" font-size="10.00" fill="#000000">+getTipo():TipoEstadistica</text>
</g>
<!-- A13 -->
<g id="node14" class="node">
<title>A13</title>
<polygon fill="none" stroke="#000000" points="2436.5,-255 2436.5,-299 2523.5,-299 2523.5,-255 2436.5,-255"/>
<text text-anchor="start" x="2455.264" y="-280" font-family="Helvetica,sans-Serif" font-size="10.00" fill="#000000">&lt;&lt;Enum&gt;&gt;</text>
<text text-anchor="start" x="2446.106" y="-268" font-family="Helvetica,sans-Serif" font-size="10.00" fill="#000000">TipoEstadistica</text>
<polygon fill="none" stroke="#000000" points="2436.5,-199 2436.5,-255 2523.5,-255 2523.5,-199 2436.5,-199"/>
<text text-anchor="start" x="2456.939" y="-236" font-family="Helvetica,sans-Serif" font-size="10.00" fill="#000000">POSITIVA</text>
<text text-anchor="start" x="2454.719" y="-224" font-family="Helvetica,sans-Serif" font-size="10.00" fill="#000000">NEGATIVA</text>
<text text-anchor="start" x="2459.448" y="-212" font-family="Helvetica,sans-Serif" font-size="10.00" fill="#000000">NEUTRA</text>
</g>
<!-- A9&#45;&gt;A13 -->
<g id="edge13" class="edge">
<title>A9&#45;&gt;A13</title>
<path fill="none" stroke="#000000" d="M2386.1954,-249C2399.3558,-249 2412.9009,-249 2425.4496,-249"/>
<polygon fill="#000000" stroke="#000000" points="2435.7259,-249 2425.7259,-253.5001 2430.7259,-249 2425.7259,-249.0001 2425.7259,-249.0001 2425.7259,-249.0001 2430.7259,-249 2425.7258,-244.5001 2435.7259,-249 2435.7259,-249"/>
<text text-anchor="middle" x="2417.5997" y="-254.4524" font-family="Helvetica,sans-Serif" font-size="10.00" fill="#000000">tipo1</text>
<text text-anchor="middle" x="2404.3215" y="-237.5476" font-family="Helvetica,sans-Serif" font-size="10.00" fill="#000000">*</text>
</g>
<!-- A10 -->
<g id="node11" class="node">
<title>A10</title>
<polygon fill="none" stroke="#000000" points="2049.5,-386 2049.5,-418 2194.5,-418 2194.5,-386 2049.5,-386"/>
<text text-anchor="start" x="2086.1615" y="-399" font-family="Helvetica,sans-Serif" font-size="10.00" fill="#000000">ValorEstadistica</text>
<polygon fill="none" stroke="#000000" points="2049.5,-342 2049.5,-386 2194.5,-386 2194.5,-342 2049.5,-342"/>
<text text-anchor="start" x="2099.4995" y="-367" font-family="Helvetica,sans-Serif" font-size="10.00" fill="#000000">valor:Real</text>
<text text-anchor="start" x="2072.8235" y="-355" font-family="Helvetica,sans-Serif" font-size="10.00" fill="#000000">estadistica:Estadistica</text>
<polygon fill="none" stroke="#000000" points="2049.5,-274 2049.5,-342 2194.5,-342 2194.5,-274 2049.5,-274"/>
<text text-anchor="start" x="2069.08" y="-323" font-family="Helvetica,sans-Serif" font-size="10.00" fill="#000000">+Constructor(valor:Real</text>
<text text-anchor="start" x="2071.159" y="-311" font-family="Helvetica,sans-Serif" font-size="10.00" fill="#000000">estadistica:Estadistica)</text>
<text text-anchor="start" x="2085.468" y="-299" font-family="Helvetica,sans-Serif" font-size="10.00" fill="#000000">+getValor():Real</text>
<text text-anchor="start" x="2059.0715" y="-287" font-family="Helvetica,sans-Serif" font-size="10.00" fill="#000000">+getEstadistica():Estadistica</text>
</g>
<!-- A10&#45;&gt;A3JA9 -->
<g id="edge12" class="edge">
<title>A10&#45;&gt;A3JA9</title>
<path fill="none" stroke="#000000" stroke-dasharray="5,2" d="M2121.5,-273.9116C2121.5,-269.184 2121.5,-264.4563 2121.5,-259.7286"/>
<polygon fill="#000000" stroke="#000000" points="2121.5,-249.3789 2126.0001,-259.3789 2121.5,-254.3789 2121.5001,-259.3789 2121.5001,-259.3789 2121.5001,-259.3789 2121.5,-254.3789 2117.0001,-259.3789 2121.5,-249.3789 2121.5,-249.3789"/>
</g>
<!-- A11&#45;&gt;A4 -->
<g id="edge16" class="edge">
<title>A11&#45;&gt;A4</title>
<path fill="none" stroke="#000000" d="M540.2026,-350.322C554.2657,-343.8647 569.1426,-337.0339 583.837,-330.2868"/>
<polygon fill="none" stroke="#000000" points="540.1378,-350.3517 536.3542,-356.4905 529.2324,-355.3591 533.016,-349.2203 540.1378,-350.3517"/>
<polygon fill="#000000" stroke="#000000" points="592.9539,-326.1007 585.7438,-334.363 588.41,-328.1871 583.8661,-330.2735 583.8661,-330.2735 583.8661,-330.2735 588.41,-328.1871 581.9883,-326.184 592.9539,-326.1007 592.9539,-326.1007"/>
<text text-anchor="middle" x="580.0082" y="-338.3456" font-family="Helvetica,sans-Serif" font-size="10.00" fill="#000000">2</text>
<text text-anchor="middle" x="542.1781" y="-337.1141" font-family="Helvetica,sans-Serif" font-size="10.00" fill="#000000">*</text>
</g>
<!-- A12 -->
<g id="node13" class="node">
<title>A12</title>
<polygon fill="none" stroke="#000000" points="849.5,-392 849.5,-424 1050.5,-424 1050.5,-392 849.5,-392"/>
<text text-anchor="start" x="913.607" y="-405" font-family="Helvetica,sans-Serif" font-size="10.00" fill="#000000">RegistroReporte</text>
<polygon fill="none" stroke="#000000" points="849.5,-348 849.5,-392 1050.5,-392 1050.5,-348 849.5,-348"/>
<text text-anchor="start" x="859.427" y="-373" font-family="Helvetica,sans-Serif" font-size="10.00" fill="#000000">estadisticaParticipanteA:ValorEstadistica</text>
<text text-anchor="start" x="859.427" y="-361" font-family="Helvetica,sans-Serif" font-size="10.00" fill="#000000">estadisticaParticipanteB:ValorEstadistica</text>
</g>
<!-- A11&#45;&gt;A12 -->
<g id="edge14" class="edge">
<title>A11&#45;&gt;A12</title>
<path fill="none" stroke="#000000" d="M541.4417,-386C622.1784,-386 748.2784,-386 838.9326,-386"/>
<polygon fill="none" stroke="#000000" points="541.1941,-386.0001 535.1941,-390 529.1941,-386 535.1942,-382 541.1941,-386.0001"/>
<polygon fill="#000000" stroke="#000000" points="848.974,-386 838.9741,-390.5001 843.974,-386 838.974,-386.0001 838.974,-386.0001 838.974,-386.0001 843.974,-386 838.974,-381.5001 848.974,-386 848.974,-386"/>
<text text-anchor="middle" x="830.8479" y="-391.4524" font-family="Helvetica,sans-Serif" font-size="10.00" fill="#000000">registros*</text>
<text text-anchor="middle" x="547.3203" y="-374.5476" font-family="Helvetica,sans-Serif" font-size="10.00" fill="#000000">1</text>
</g>
<!-- A12&#45;&gt;A10 -->
<g id="edge15" class="edge">
<title>A12&#45;&gt;A10</title>
<path fill="none" stroke="#000000" d="M1062.0758,-380.3424C1149.0202,-376.4578 1272.3521,-372 1380.5,-372 1380.5,-372 1380.5,-372 1638.5,-372 1779.0754,-372 1942.3327,-360.8825 2038.4987,-353.1872"/>
<polygon fill="none" stroke="#000000" points="1062.0422,-380.3439 1056.2291,-384.611 1050.0545,-380.8863 1055.8675,-376.6191 1062.0422,-380.3439"/>
<polygon fill="#000000" stroke="#000000" points="2048.7392,-352.3603 2039.1339,-357.6506 2043.7555,-352.7628 2038.7717,-353.1652 2038.7717,-353.1652 2038.7717,-353.1652 2043.7555,-352.7628 2038.4095,-348.6798 2048.7392,-352.3603 2048.7392,-352.3603"/>
<text text-anchor="middle" x="2031.3521" y="-359.2441" font-family="Helvetica,sans-Serif" font-size="10.00" fill="#000000">2</text>
<text text-anchor="middle" x="1067.7801" y="-368.6234" font-family="Helvetica,sans-Serif" font-size="10.00" fill="#000000">*</text>
</g>
<!-- A3JA9&#45;&gt;A9 -->
<g id="edge11" class="edge">
<title>A3JA9&#45;&gt;A9</title>
<path fill="none" stroke="#000000" d="M2122.0551,-249C2128.173,-249 2183.7573,-249 2233.7022,-249"/>
<polygon fill="#000000" stroke="#000000" points="2243.9265,-249 2233.9265,-253.5001 2238.9265,-249 2233.9265,-249.0001 2233.9265,-249.0001 2233.9265,-249.0001 2238.9265,-249 2233.9264,-244.5001 2243.9265,-249 2243.9265,-249"/>
<text text-anchor="middle" x="2225.8003" y="-254.4524" font-family="Helvetica,sans-Serif" font-size="10.00" fill="#000000">*</text>
</g>
</g>
</svg>
