<?xml version="1.0" encoding="UTF-8" standalone="no"?>
<!DOCTYPE svg PUBLIC "-//W3C//DTD SVG 1.1//EN"
 "http://www.w3.org/Graphics/SVG/1.1/DTD/svg11.dtd">
<!-- Generated by graphviz version 2.40.1 (20161225.0304)
 -->
<!-- Title: G Pages: 1 -->
<svg width="1930pt" height="428pt"
 viewBox="0.00 0.00 1930.26 428.00" xmlns="http://www.w3.org/2000/svg" xmlns:xlink="http://www.w3.org/1999/xlink">
<g id="graph0" class="graph" transform="scale(1 1) rotate(0) translate(4 424)">
<title>G</title>
<polygon fill="#ffffff" stroke="transparent" points="-4,4 -4,-424 1926.263,-424 1926.263,4 -4,4"/>
<!-- A0 -->
<g id="node1" class="node">
<title>A0</title>
<polygon fill="none" stroke="#000000" points=".5,-388 .5,-420 341.5,-420 341.5,-388 .5,-388"/>
<text text-anchor="start" x="155.163" y="-401" font-family="Helvetica,sans-Serif" font-size="10.00" fill="#000000">Torneo</text>
<polygon fill="none" stroke="#000000" points=".5,-284 .5,-388 341.5,-388 341.5,-284 .5,-284"/>
<text text-anchor="start" x="140.1605" y="-369" font-family="Helvetica,sans-Serif" font-size="10.00" fill="#000000">nombre:Texto</text>
<text text-anchor="start" x="131.822" y="-357" font-family="Helvetica,sans-Serif" font-size="10.00" fill="#000000">fechaInicio:Fecha</text>
<text text-anchor="start" x="102.6515" y="-345" font-family="Helvetica,sans-Serif" font-size="10.00" fill="#000000">fechaInicioInscripciones:Fecha</text>
<text text-anchor="start" x="100.712" y="-333" font-family="Helvetica,sans-Serif" font-size="10.00" fill="#000000">fechaCierreInscripciones:Fecha</text>
<text text-anchor="start" x="109.042" y="-321" font-family="Helvetica,sans-Serif" font-size="10.00" fill="#000000">numeroParticipantes:Entero</text>
<text text-anchor="start" x="131.5485" y="-309" font-family="Helvetica,sans-Serif" font-size="10.00" fill="#000000">limiteEdad:Entero</text>
<text text-anchor="start" x="120.1595" y="-297" font-family="Helvetica,sans-Serif" font-size="10.00" fill="#000000">valorInscripcion:Entero</text>
<polygon fill="none" stroke="#000000" points=".5,0 .5,-284 341.5,-284 341.5,0 .5,0"/>
<text text-anchor="start" x="109.741" y="-265" font-family="Helvetica,sans-Serif" font-size="10.00" fill="#000000">+Constructor(nombre:Texto</text>
<text text-anchor="start" x="131.822" y="-253" font-family="Helvetica,sans-Serif" font-size="10.00" fill="#000000">fechaInicio:Fecha</text>
<text text-anchor="start" x="102.6515" y="-241" font-family="Helvetica,sans-Serif" font-size="10.00" fill="#000000">fechaInicioInscripciones:Fecha</text>
<text text-anchor="start" x="100.712" y="-229" font-family="Helvetica,sans-Serif" font-size="10.00" fill="#000000">fechaCierreInscripciones:Fecha</text>
<text text-anchor="start" x="109.042" y="-217" font-family="Helvetica,sans-Serif" font-size="10.00" fill="#000000">numeroParticipantes:Entero</text>
<text text-anchor="start" x="131.5485" y="-205" font-family="Helvetica,sans-Serif" font-size="10.00" fill="#000000">limiteEdad:Entero</text>
<text text-anchor="start" x="120.1595" y="-193" font-family="Helvetica,sans-Serif" font-size="10.00" fill="#000000">valorInscripcion:Entero</text>
<text text-anchor="start" x="120.1555" y="-181" font-family="Helvetica,sans-Serif" font-size="10.00" fill="#000000">tipoTorneo:TipoTorneo</text>
<text text-anchor="start" x="10.288" y="-169" font-family="Helvetica,sans-Serif" font-size="10.00" fill="#000000">caracter:CaracterTorneo)+registrarParticipante(participante:Participante)</text>
<text text-anchor="start" x="126.1335" y="-157" font-family="Helvetica,sans-Serif" font-size="10.00" fill="#000000">+getNombre():Texto</text>
<text text-anchor="start" x="116.96" y="-145" font-family="Helvetica,sans-Serif" font-size="10.00" fill="#000000">+getFechaInicio():Fecha</text>
<text text-anchor="start" x="87.7895" y="-133" font-family="Helvetica,sans-Serif" font-size="10.00" fill="#000000">+getFechaInicioInscripciones():Fecha</text>
<text text-anchor="start" x="85.85" y="-121" font-family="Helvetica,sans-Serif" font-size="10.00" fill="#000000">+getFechaCierreInscripciones():Fecha</text>
<text text-anchor="start" x="95.015" y="-109" font-family="Helvetica,sans-Serif" font-size="10.00" fill="#000000">+getNumeroParticipantes():Entero</text>
<text text-anchor="start" x="116.6815" y="-97" font-family="Helvetica,sans-Serif" font-size="10.00" fill="#000000">+getLimiteEdad():Entero</text>
<text text-anchor="start" x="106.128" y="-85" font-family="Helvetica,sans-Serif" font-size="10.00" fill="#000000">+getValorInscripcion():Entero</text>
<text text-anchor="start" x="105.2935" y="-73" font-family="Helvetica,sans-Serif" font-size="10.00" fill="#000000">+getTipoTorneo():TipoTorneo</text>
<text text-anchor="start" x="78.6215" y="-61" font-family="Helvetica,sans-Serif" font-size="10.00" fill="#000000">+getParticipantes():Participante［*］</text>
<text text-anchor="start" x="102.2435" y="-49" font-family="Helvetica,sans-Serif" font-size="10.00" fill="#000000">+getCaracter():CaracterTorneo</text>
<text text-anchor="start" x="93.344" y="-37" font-family="Helvetica,sans-Serif" font-size="10.00" fill="#000000">+setFechaInicio(fechaInicio:Fecha)</text>
<text text-anchor="start" x="35.003" y="-25" font-family="Helvetica,sans-Serif" font-size="10.00" fill="#000000">+setFechaInicioInscripciones(fechaInicioInscripciones:Fecha)</text>
<text text-anchor="start" x="31.124" y="-13" font-family="Helvetica,sans-Serif" font-size="10.00" fill="#000000">+setFechaCierreInscripciones(fechaCierreInscripciones:Fecha)</text>
</g>
<!-- A1 -->
<g id="node2" class="node">
<title>A1</title>
<polygon fill="none" stroke="#000000" points="422.5,-342 422.5,-386 493.5,-386 493.5,-342 422.5,-342"/>
<text text-anchor="start" x="433.264" y="-367" font-family="Helvetica,sans-Serif" font-size="10.00" fill="#000000">&lt;&lt;Enum&gt;&gt;</text>
<text text-anchor="start" x="432.44" y="-355" font-family="Helvetica,sans-Serif" font-size="10.00" fill="#000000">TipoTorneo</text>
<polygon fill="none" stroke="#000000" points="422.5,-274 422.5,-342 493.5,-342 493.5,-274 422.5,-274"/>
<text text-anchor="start" x="441.6075" y="-323" font-family="Helvetica,sans-Serif" font-size="10.00" fill="#000000">LOCAL</text>
<text text-anchor="start" x="432.164" y="-311" font-family="Helvetica,sans-Serif" font-size="10.00" fill="#000000">REGIONAL</text>
<text text-anchor="start" x="432.444" y="-299" font-family="Helvetica,sans-Serif" font-size="10.00" fill="#000000">NACIONAL</text>
<text text-anchor="start" x="435.5035" y="-287" font-family="Helvetica,sans-Serif" font-size="10.00" fill="#000000">MUNDIAL</text>
</g>
<!-- A0&#45;&gt;A1 -->
<g id="edge3" class="edge">
<title>A0&#45;&gt;A1</title>
<path fill="none" stroke="#000000" d="M341.1799,-281.3644C367.4553,-292.3506 392.4687,-302.8092 412.5205,-311.1932"/>
<polygon fill="#000000" stroke="#000000" points="421.9493,-315.1356 410.9874,-315.4297 417.3363,-313.2068 412.7233,-311.278 412.7233,-311.278 412.7233,-311.278 417.3363,-313.2068 414.4593,-307.1263 421.9493,-315.1356 421.9493,-315.1356"/>
<text text-anchor="middle" x="401.9656" y="-312.9415" font-family="Helvetica,sans-Serif" font-size="10.00" fill="#000000">tipoTorneo1</text>
<text text-anchor="middle" x="361.1636" y="-277.5585" font-family="Helvetica,sans-Serif" font-size="10.00" fill="#000000">*</text>
</g>
<!-- A4 -->
<g id="node5" class="node">
<title>A4</title>
<polygon fill="none" stroke="#000000" points="663.5475,-264 574.1505,-264 574.1505,-228 663.5475,-228 663.5475,-264"/>
<text text-anchor="middle" x="618.849" y="-249" font-family="Helvetica,sans-Serif" font-size="10.00" fill="#000000">&lt;&lt;interface&gt;&gt;</text>
<text text-anchor="middle" x="618.849" y="-237" font-family="Helvetica,sans-Serif" font-size="10.00" fill="#000000">Participante</text>
</g>
<!-- A0&#45;&gt;A4 -->
<g id="edge4" class="edge">
<title>A0&#45;&gt;A4</title>
<path fill="none" stroke="#000000" d="M353.6392,-224.7051C429.2615,-230.7771 511.334,-237.3671 563.8333,-241.5825"/>
<polygon fill="none" stroke="#000000" points="353.242,-224.6733 346.9411,-228.1802 341.2805,-223.7128 347.5815,-220.2059 353.242,-224.6733"/>
<polygon fill="#000000" stroke="#000000" points="573.9281,-242.3931 563.6,-246.0782 568.9442,-241.9929 563.9602,-241.5926 563.9602,-241.5926 563.9602,-241.5926 568.9442,-241.9929 564.3204,-237.1071 573.9281,-242.3931 573.9281,-242.3931"/>
<text text-anchor="middle" x="555.1836" y="-246.3676" font-family="Helvetica,sans-Serif" font-size="10.00" fill="#000000">participantes*</text>
<text text-anchor="middle" x="360.025" y="-213.7383" font-family="Helvetica,sans-Serif" font-size="10.00" fill="#000000">1</text>
</g>
<!-- A8 -->
<g id="node9" class="node">
<title>A8</title>
<polygon fill="none" stroke="#000000" points="412.5,-68 412.5,-112 502.5,-112 502.5,-68 412.5,-68"/>
<text text-anchor="start" x="432.764" y="-93" font-family="Helvetica,sans-Serif" font-size="10.00" fill="#000000">&lt;&lt;Enum&gt;&gt;</text>
<text text-anchor="start" x="422.4965" y="-81" font-family="Helvetica,sans-Serif" font-size="10.00" fill="#000000">CaracterTorneo</text>
<polygon fill="none" stroke="#000000" points="412.5,-24 412.5,-68 502.5,-68 502.5,-24 412.5,-24"/>
<text text-anchor="start" x="429.445" y="-49" font-family="Helvetica,sans-Serif" font-size="10.00" fill="#000000">INDIVIDUAL</text>
<text text-anchor="start" x="436.943" y="-37" font-family="Helvetica,sans-Serif" font-size="10.00" fill="#000000">GRUPAL</text>
</g>
<!-- A0&#45;&gt;A8 -->
<g id="edge2" class="edge">
<title>A0&#45;&gt;A8</title>
<path fill="none" stroke="#000000" d="M341.1799,-125.5521C363.6287,-114.445 385.1564,-103.7937 403.4556,-94.7397"/>
<polygon fill="#000000" stroke="#000000" points="412.443,-90.293 405.4756,-98.761 407.9615,-92.5104 403.48,-94.7277 403.48,-94.7277 403.48,-94.7277 407.9615,-92.5104 401.4844,-90.6944 412.443,-90.293 412.443,-90.293"/>
<text text-anchor="middle" x="399.9449" y="-102.9071" font-family="Helvetica,sans-Serif" font-size="10.00" fill="#000000">caracter1</text>
<text text-anchor="middle" x="353.6779" y="-106.9381" font-family="Helvetica,sans-Serif" font-size="10.00" fill="#000000">*</text>
</g>
<!-- A11 -->
<g id="node12" class="node">
<title>A11</title>
<polygon fill="none" stroke="#000000" points="391.5,-186 391.5,-218 524.5,-218 524.5,-186 391.5,-186"/>
<text text-anchor="start" x="440.2185" y="-199" font-family="Helvetica,sans-Serif" font-size="10.00" fill="#000000">Reporte</text>
<polygon fill="none" stroke="#000000" points="391.5,-130 391.5,-186 524.5,-186 524.5,-130 391.5,-130"/>
<text text-anchor="start" x="430.4895" y="-167" font-family="Helvetica,sans-Serif" font-size="10.00" fill="#000000">fecha:Fecha</text>
<text text-anchor="start" x="401.042" y="-155" font-family="Helvetica,sans-Serif" font-size="10.00" fill="#000000">participanteA:Participante</text>
<text text-anchor="start" x="401.042" y="-143" font-family="Helvetica,sans-Serif" font-size="10.00" fill="#000000">participanteB:Participante</text>
</g>
<!-- A0&#45;&gt;A11 -->
<g id="edge1" class="edge">
<title>A0&#45;&gt;A11</title>
<path fill="none" stroke="#000000" stroke-dasharray="5,2" d="M341.1799,-188.5907C354.816,-186.8802 368.1122,-185.2124 380.5515,-183.6521"/>
<polygon fill="#000000" stroke="#000000" points="390.7875,-182.3681 381.4254,-188.0778 385.8264,-182.9905 380.8653,-183.6128 380.8653,-183.6128 380.8653,-183.6128 385.8264,-182.9905 380.3052,-179.1478 390.7875,-182.3681 390.7875,-182.3681"/>
</g>
<!-- A2 -->
<g id="node3" class="node">
<title>A2</title>
<polygon fill="none" stroke="#000000" points="1399.0463,-246 1285.9147,-246 1285.9147,-210 1399.0463,-210 1399.0463,-246"/>
<text text-anchor="middle" x="1342.4805" y="-231" font-family="Helvetica,sans-Serif" font-size="10.00" fill="#000000">&lt;&lt;interface&gt;&gt;</text>
<text text-anchor="middle" x="1342.4805" y="-219" font-family="Helvetica,sans-Serif" font-size="10.00" fill="#000000">RegistroEstadistica</text>
</g>
<!-- A3 -->
<g id="node4" class="node">
<title>A3</title>
<polygon fill="none" stroke="#000000" points="1449.763,-228 1449.763,-260 1654.763,-260 1654.763,-228 1449.763,-228"/>
<text text-anchor="start" x="1500.0375" y="-241" font-family="Helvetica,sans-Serif" font-size="10.00" fill="#000000">RegistroEstadisticaImpl</text>
<polygon fill="none" stroke="#000000" points="1449.763,-196 1449.763,-228 1654.763,-228 1654.763,-196 1449.763,-196"/>
<text text-anchor="start" x="1459.472" y="-209" font-family="Helvetica,sans-Serif" font-size="10.00" fill="#000000">estadisticas:ValorEstadistica［*］</text>
</g>
<!-- A2&#45;&gt;A3 -->
<g id="edge18" class="edge">
<title>A2&#45;&gt;A3</title>
<path fill="none" stroke="#000000" d="M1409.1426,-228C1421.9005,-228 1435.5298,-228 1449.1143,-228"/>
<polygon fill="none" stroke="#000000" points="1409.1154,-224.5001 1399.1154,-228 1409.1153,-231.5001 1409.1154,-224.5001"/>
</g>
<!-- A2&#45;&gt;A4 -->
<g id="edge17" class="edge">
<title>A2&#45;&gt;A4</title>
<path fill="none" stroke="#000000" d="M1320.6453,-253.6148C1300.7049,-275.3514 1269.2889,-305.6872 1235.698,-323 1164.7795,-359.5514 1139.9786,-354.0547 1060.698,-363 905.0212,-380.5651 859.3226,-358.7691 713.698,-301 689.2807,-291.3137 663.6263,-276.0881 645.1639,-264.11"/>
<polygon fill="none" stroke="#000000" points="1323.3752,-255.8134 1327.4554,-246.0358 1318.1683,-251.1349 1323.3752,-255.8134"/>
</g>
<!-- A2JA9 -->
<!-- A2&#45;&gt;A2JA9 -->
<g id="edge10" class="edge">
<title>A2&#45;&gt;A2JA9</title>
<path fill="none" stroke="#000000" d="M1349.9713,-209.8518C1364.1067,-178.2077 1397.9761,-113.5859 1449.263,-85 1487.3357,-63.7794 1545.9482,-74.8345 1551.3594,-75.9176"/>
<text text-anchor="middle" x="1349.9309" y="-186.8518" font-family="Helvetica,sans-Serif" font-size="10.00" fill="#000000">*</text>
</g>
<!-- A5 -->
<g id="node6" class="node">
<title>A5</title>
<polygon fill="none" stroke="#000000" points="781.198,-260 781.198,-292 862.198,-292 862.198,-260 781.198,-260"/>
<text text-anchor="start" x="806.136" y="-273" font-family="Helvetica,sans-Serif" font-size="10.00" fill="#000000">Equipo</text>
<polygon fill="none" stroke="#000000" points="781.198,-228 781.198,-260 862.198,-260 862.198,-228 781.198,-228"/>
<text text-anchor="start" x="790.8585" y="-241" font-family="Helvetica,sans-Serif" font-size="10.00" fill="#000000">nombre:Texto</text>
</g>
<!-- A4&#45;&gt;A5 -->
<g id="edge9" class="edge">
<title>A4&#45;&gt;A5</title>
<path fill="none" stroke="#000000" d="M673.9042,-249.8091C707.5708,-252.1384 749.9052,-255.0674 780.5387,-257.1869"/>
<polygon fill="none" stroke="#000000" points="673.9746,-246.3057 663.7568,-249.1071 673.4913,-253.289 673.9746,-246.3057"/>
</g>
<!-- A7 -->
<g id="node8" class="node">
<title>A7</title>
<polygon fill="none" stroke="#000000" points="1111.198,-219 1111.198,-251 1236.198,-251 1236.198,-219 1111.198,-219"/>
<text text-anchor="start" x="1155.636" y="-232" font-family="Helvetica,sans-Serif" font-size="10.00" fill="#000000">Jugador</text>
<polygon fill="none" stroke="#000000" points="1111.198,-187 1111.198,-219 1236.198,-219 1236.198,-187 1111.198,-187"/>
<text text-anchor="start" x="1121.187" y="-200" font-family="Helvetica,sans-Serif" font-size="10.00" fill="#000000">fechaNacimiento:Fecha</text>
</g>
<!-- A4&#45;&gt;A7 -->
<g id="edge8" class="edge">
<title>A4&#45;&gt;A7</title>
<path fill="none" stroke="#000000" d="M673.4282,-227.7547C686.4763,-224.1506 700.463,-220.898 713.698,-219 854.2582,-198.8425 1021.5015,-206.7165 1110.3666,-213.3861"/>
<polygon fill="none" stroke="#000000" points="672.3047,-224.4358 663.6611,-230.5627 674.2389,-231.1633 672.3047,-224.4358"/>
</g>
<!-- A5&#45;&gt;A2 -->
<g id="edge20" class="edge">
<title>A5&#45;&gt;A2</title>
<path fill="none" stroke="#000000" d="M861.9012,-289.6798C892.3701,-309.9735 935.9837,-335.098 978.698,-346 1014.0104,-355.0128 1024.9677,-353.1792 1060.698,-346 1151.1413,-327.8274 1248.7654,-279.8754 1302.0599,-251.0001"/>
<polygon fill="#000000" stroke="#000000" points="1310.8543,-246.1897 1304.2405,-254.9366 1306.4676,-248.5891 1302.0809,-250.9886 1302.0809,-250.9886 1302.0809,-250.9886 1306.4676,-248.5891 1299.9214,-247.0406 1310.8543,-246.1897 1310.8543,-246.1897"/>
</g>
<!-- A6 -->
<g id="node7" class="node">
<title>A6</title>
<polygon fill="none" stroke="#000000" points="978.698,-305 978.698,-337 1060.698,-337 1060.698,-305 978.698,-305"/>
<text text-anchor="start" x="1001.081" y="-318" font-family="Helvetica,sans-Serif" font-size="10.00" fill="#000000">Persona</text>
<polygon fill="none" stroke="#000000" points="978.698,-237 978.698,-305 1060.698,-305 1060.698,-237 978.698,-237"/>
<text text-anchor="start" x="988.8585" y="-286" font-family="Helvetica,sans-Serif" font-size="10.00" fill="#000000">nombre:Texto</text>
<text text-anchor="start" x="988.5795" y="-274" font-family="Helvetica,sans-Serif" font-size="10.00" fill="#000000">apellido:Texto</text>
<text text-anchor="start" x="993.863" y="-262" font-family="Helvetica,sans-Serif" font-size="10.00" fill="#000000">email:Texto</text>
<text text-anchor="start" x="991.0835" y="-250" font-family="Helvetica,sans-Serif" font-size="10.00" fill="#000000">celular:Texto</text>
</g>
<!-- A5&#45;&gt;A6 -->
<g id="edge5" class="edge">
<title>A5&#45;&gt;A6</title>
<path fill="none" stroke="#000000" d="M873.9203,-267.1713C903.1943,-271.1532 939.4481,-276.0844 968.4781,-280.0331"/>
<polygon fill="none" stroke="#000000" points="873.7369,-267.1464 867.2525,-270.3012 861.8464,-265.529 868.3308,-262.3742 873.7369,-267.1464"/>
<polygon fill="#000000" stroke="#000000" points="978.4218,-281.3856 967.9065,-284.4967 973.4674,-280.7117 968.513,-280.0377 968.513,-280.0377 968.513,-280.0377 973.4674,-280.7117 969.1196,-275.5788 978.4218,-281.3856 978.4218,-281.3856"/>
<text text-anchor="middle" x="959.3218" y="-284.3178" font-family="Helvetica,sans-Serif" font-size="10.00" fill="#000000">representante1</text>
<text text-anchor="middle" x="880.9464" y="-256.5968" font-family="Helvetica,sans-Serif" font-size="10.00" fill="#000000">1</text>
</g>
<!-- A5&#45;&gt;A7 -->
<g id="edge7" class="edge">
<title>A5&#45;&gt;A7</title>
<path fill="none" stroke="#000000" d="M873.7652,-247.2051C904.2228,-240.3243 943.4089,-232.3749 978.698,-228 1018.7142,-223.0391 1063.6679,-220.7473 1100.2695,-219.7143"/>
<polygon fill="none" stroke="#000000" points="873.4013,-247.2887 868.4495,-252.5308 861.7061,-249.9762 866.6579,-244.734 873.4013,-247.2887"/>
<polygon fill="#000000" stroke="#000000" points="1110.3605,-219.4552 1100.4794,-224.2105 1105.3622,-219.5836 1100.3638,-219.712 1100.3638,-219.712 1100.3638,-219.712 1105.3622,-219.5836 1100.2483,-215.2135 1110.3605,-219.4552 1110.3605,-219.4552"/>
<text text-anchor="middle" x="1092.4573" y="-225.3701" font-family="Helvetica,sans-Serif" font-size="10.00" fill="#000000">jugador*</text>
<text text-anchor="middle" x="877.4789" y="-234.6791" font-family="Helvetica,sans-Serif" font-size="10.00" fill="#000000">1</text>
</g>
<!-- A6&#45;&gt;A7 -->
<g id="edge6" class="edge">
<title>A6&#45;&gt;A7</title>
<path fill="none" stroke="#000000" d="M1070.0349,-264.7009C1082.9835,-258.9647 1097.0745,-252.7225 1110.563,-246.7471"/>
<polygon fill="none" stroke="#000000" points="1068.5586,-261.5268 1060.8332,-268.7772 1071.3938,-267.9269 1068.5586,-261.5268"/>
</g>
<!-- A7&#45;&gt;A2 -->
<g id="edge19" class="edge">
<title>A7&#45;&gt;A2</title>
<path fill="none" stroke="#000000" d="M1235.7516,-222.3257C1248.6828,-223.0132 1262.3535,-223.74 1275.4373,-224.4356"/>
<polygon fill="#000000" stroke="#000000" points="1285.779,-224.9854 1275.5542,-228.9481 1280.7861,-224.7199 1275.7931,-224.4544 1275.7931,-224.4544 1275.7931,-224.4544 1280.7861,-224.7199 1276.0321,-219.9608 1285.779,-224.9854 1285.779,-224.9854"/>
</g>
<!-- A9 -->
<g id="node10" class="node">
<title>A9</title>
<polygon fill="none" stroke="#000000" points="1704.763,-76 1704.763,-108 1785.763,-108 1785.763,-76 1704.763,-76"/>
<text text-anchor="start" x="1721.092" y="-89" font-family="Helvetica,sans-Serif" font-size="10.00" fill="#000000">Estadistica</text>
<polygon fill="none" stroke="#000000" points="1704.763,-44 1704.763,-76 1785.763,-76 1785.763,-44 1704.763,-44"/>
<text text-anchor="start" x="1714.4235" y="-57" font-family="Helvetica,sans-Serif" font-size="10.00" fill="#000000">nombre:Texto</text>
</g>
<!-- A13 -->
<g id="node14" class="node">
<title>A13</title>
<polygon fill="none" stroke="#000000" points="1835.763,-82 1835.763,-126 1922.763,-126 1922.763,-82 1835.763,-82"/>
<text text-anchor="start" x="1854.527" y="-107" font-family="Helvetica,sans-Serif" font-size="10.00" fill="#000000">&lt;&lt;Enum&gt;&gt;</text>
<text text-anchor="start" x="1845.369" y="-95" font-family="Helvetica,sans-Serif" font-size="10.00" fill="#000000">TipoEstadistica</text>
<polygon fill="none" stroke="#000000" points="1835.763,-26 1835.763,-82 1922.763,-82 1922.763,-26 1835.763,-26"/>
<text text-anchor="start" x="1856.202" y="-63" font-family="Helvetica,sans-Serif" font-size="10.00" fill="#000000">POSITIVA</text>
<text text-anchor="start" x="1853.982" y="-51" font-family="Helvetica,sans-Serif" font-size="10.00" fill="#000000">NEGATIVA</text>
<text text-anchor="start" x="1858.711" y="-39" font-family="Helvetica,sans-Serif" font-size="10.00" fill="#000000">NEUTRA</text>
</g>
<!-- A9&#45;&gt;A13 -->
<g id="edge13" class="edge">
<title>A9&#45;&gt;A13</title>
<path fill="none" stroke="#000000" d="M1785.3311,-76C1797.7306,-76 1811.5685,-76 1824.7148,-76"/>
<polygon fill="#000000" stroke="#000000" points="1835.0689,-76 1825.069,-80.5001 1830.0689,-76 1825.0689,-76.0001 1825.0689,-76.0001 1825.0689,-76.0001 1830.0689,-76 1825.0689,-71.5001 1835.0689,-76 1835.0689,-76"/>
<text text-anchor="middle" x="1816.9428" y="-81.4524" font-family="Helvetica,sans-Serif" font-size="10.00" fill="#000000">tipo1</text>
<text text-anchor="middle" x="1803.4572" y="-64.5476" font-family="Helvetica,sans-Serif" font-size="10.00" fill="#000000">*</text>
</g>
<!-- A10 -->
<g id="node11" class="node">
<title>A10</title>
<polygon fill="none" stroke="#000000" points="1492.763,-138 1492.763,-170 1610.763,-170 1610.763,-138 1492.763,-138"/>
<text text-anchor="start" x="1508.9805" y="-151" font-family="Helvetica,sans-Serif" font-size="10.00" fill="#000000">RegistroEstadistica</text>
<polygon fill="none" stroke="#000000" points="1492.763,-94 1492.763,-138 1610.763,-138 1610.763,-94 1492.763,-94"/>
<text text-anchor="start" x="1529.2625" y="-119" font-family="Helvetica,sans-Serif" font-size="10.00" fill="#000000">valor:Real</text>
<text text-anchor="start" x="1502.5865" y="-107" font-family="Helvetica,sans-Serif" font-size="10.00" fill="#000000">estadistica:Estadistica</text>
</g>
<!-- A10&#45;&gt;A2JA9 -->
<g id="edge12" class="edge">
<title>A10&#45;&gt;A2JA9</title>
<path fill="none" stroke="#000000" stroke-dasharray="5,2" d="M1551.763,-93.8008C1551.763,-91.3591 1551.763,-88.9174 1551.763,-86.4756"/>
<polygon fill="#000000" stroke="#000000" points="1551.763,-76.4375 1556.2631,-86.4375 1551.763,-81.4375 1551.7631,-86.4375 1551.7631,-86.4375 1551.7631,-86.4375 1551.763,-81.4375 1547.2631,-86.4375 1551.763,-76.4375 1551.763,-76.4375"/>
</g>
<!-- A11&#45;&gt;A4 -->
<g id="edge16" class="edge">
<title>A11&#45;&gt;A4</title>
<path fill="none" stroke="#000000" d="M535.3645,-208.7461C546.8587,-213.8752 558.4291,-219.0384 569.1408,-223.8183"/>
<polygon fill="none" stroke="#000000" points="535.0168,-208.591 527.9075,-209.7987 524.0584,-203.7008 531.1676,-202.4931 535.0168,-208.591"/>
<polygon fill="#000000" stroke="#000000" points="578.3096,-227.9098 567.3437,-227.9441 573.7436,-225.8722 569.1775,-223.8347 569.1775,-223.8347 569.1775,-223.8347 573.7436,-225.8722 571.0113,-219.7253 578.3096,-227.9098 578.3096,-227.9098"/>
<text text-anchor="middle" x="558.3123" y="-225.242" font-family="Helvetica,sans-Serif" font-size="10.00" fill="#000000">2</text>
<text text-anchor="middle" x="544.0556" y="-200.3686" font-family="Helvetica,sans-Serif" font-size="10.00" fill="#000000">*</text>
</g>
<!-- A12 -->
<g id="node13" class="node">
<title>A12</title>
<polygon fill="none" stroke="#000000" points="714.198,-111 714.198,-143 929.198,-143 929.198,-111 714.198,-111"/>
<text text-anchor="start" x="785.305" y="-124" font-family="Helvetica,sans-Serif" font-size="10.00" fill="#000000">RegistroReporte</text>
<polygon fill="none" stroke="#000000" points="714.198,-67 714.198,-111 929.198,-111 929.198,-67 714.198,-67"/>
<text text-anchor="start" x="724.181" y="-92" font-family="Helvetica,sans-Serif" font-size="10.00" fill="#000000">estadisticaParticipanteA:ValorEstadistica</text>
<text text-anchor="start" x="724.181" y="-80" font-family="Helvetica,sans-Serif" font-size="10.00" fill="#000000">estadisticaParticipanteB:ValorEstadistica</text>
</g>
<!-- A11&#45;&gt;A12 -->
<g id="edge14" class="edge">
<title>A11&#45;&gt;A12</title>
<path fill="none" stroke="#000000" d="M536.0108,-159.1051C584.8453,-149.8403 648.5624,-137.7521 703.3802,-127.3521"/>
<polygon fill="none" stroke="#000000" points="535.9975,-159.1075 530.8483,-164.1558 524.2078,-161.3443 529.3571,-156.296 535.9975,-159.1075"/>
<polygon fill="#000000" stroke="#000000" points="713.5068,-125.431 704.5208,-131.7161 708.5944,-126.363 703.682,-127.295 703.682,-127.295 703.682,-127.295 708.5944,-126.363 702.8432,-122.8738 713.5068,-125.431 713.5068,-125.431"/>
<text text-anchor="middle" x="697.2737" y="-134.1138" font-family="Helvetica,sans-Serif" font-size="10.00" fill="#000000">registros*</text>
<text text-anchor="middle" x="540.4409" y="-146.6615" font-family="Helvetica,sans-Serif" font-size="10.00" fill="#000000">1</text>
</g>
<!-- A12&#45;&gt;A10 -->
<g id="edge15" class="edge">
<title>A12&#45;&gt;A10</title>
<path fill="none" stroke="#000000" d="M941.1504,-109.4332C1095.3853,-115.1333 1358.128,-124.8437 1482.5344,-129.4415"/>
<polygon fill="none" stroke="#000000" points="940.9872,-109.4272 934.8435,-113.2029 928.9954,-108.9839 935.139,-105.2083 940.9872,-109.4272"/>
<polygon fill="#000000" stroke="#000000" points="1492.6931,-129.8169 1482.5337,-133.9444 1487.6965,-129.6322 1482.6999,-129.4475 1482.6999,-129.4475 1482.6999,-129.4475 1487.6965,-129.6322 1482.8661,-124.9506 1492.6931,-129.8169 1492.6931,-129.8169"/>
<text text-anchor="middle" x="1474.2671" y="-134.5941" font-family="Helvetica,sans-Serif" font-size="10.00" fill="#000000">2</text>
<text text-anchor="middle" x="947.4213" y="-98.2068" font-family="Helvetica,sans-Serif" font-size="10.00" fill="#000000">*</text>
</g>
<!-- A2JA9&#45;&gt;A9 -->
<g id="edge11" class="edge">
<title>A2JA9&#45;&gt;A9</title>
<path fill="none" stroke="#000000" d="M1552.3166,-76C1559.7113,-76 1639.5599,-76 1694.0514,-76"/>
<polygon fill="#000000" stroke="#000000" points="1704.2451,-76 1694.2451,-80.5001 1699.2451,-76 1694.2451,-76.0001 1694.2451,-76.0001 1694.2451,-76.0001 1699.2451,-76 1694.245,-71.5001 1704.2451,-76 1704.2451,-76"/>
<text text-anchor="middle" x="1686.1189" y="-81.4524" font-family="Helvetica,sans-Serif" font-size="10.00" fill="#000000">*</text>
</g>
</g>
</svg>
