<?xml version="1.0" encoding="UTF-8" standalone="no"?>
<!DOCTYPE svg PUBLIC "-//W3C//DTD SVG 1.1//EN"
 "http://www.w3.org/Graphics/SVG/1.1/DTD/svg11.dtd">
<!-- Generated by graphviz version 2.40.1 (20161225.0304)
 -->
<!-- Title: G Pages: 1 -->
<svg width="2362pt" height="620pt"
 viewBox="0.00 0.00 2362.00 620.00" xmlns="http://www.w3.org/2000/svg" xmlns:xlink="http://www.w3.org/1999/xlink">
<g id="graph0" class="graph" transform="scale(1 1) rotate(0) translate(4 616)">
<title>G</title>
<polygon fill="#ffffff" stroke="transparent" points="-4,4 -4,-616 2358,-616 2358,4 -4,4"/>
<!-- A0 -->
<g id="node1" class="node">
<title>A0</title>
<polygon fill="none" stroke="#000000" points="0,-580 0,-612 346,-612 346,-580 0,-580"/>
<text text-anchor="start" x="157.163" y="-593" font-family="Helvetica,sans-Serif" font-size="10.00" fill="#000000">Torneo</text>
<polygon fill="none" stroke="#000000" points="0,-476 0,-580 346,-580 346,-476 0,-476"/>
<text text-anchor="start" x="142.1605" y="-561" font-family="Helvetica,sans-Serif" font-size="10.00" fill="#000000">nombre:Texto</text>
<text text-anchor="start" x="133.822" y="-549" font-family="Helvetica,sans-Serif" font-size="10.00" fill="#000000">fechaInicio:Fecha</text>
<text text-anchor="start" x="104.6515" y="-537" font-family="Helvetica,sans-Serif" font-size="10.00" fill="#000000">fechaInicioInscripciones:Fecha</text>
<text text-anchor="start" x="102.712" y="-525" font-family="Helvetica,sans-Serif" font-size="10.00" fill="#000000">fechaCierreInscripciones:Fecha</text>
<text text-anchor="start" x="111.042" y="-513" font-family="Helvetica,sans-Serif" font-size="10.00" fill="#000000">numeroParticipantes:Entero</text>
<text text-anchor="start" x="133.5485" y="-501" font-family="Helvetica,sans-Serif" font-size="10.00" fill="#000000">limiteEdad:Entero</text>
<text text-anchor="start" x="122.1595" y="-489" font-family="Helvetica,sans-Serif" font-size="10.00" fill="#000000">valorInscripcion:Entero</text>
<polygon fill="none" stroke="#000000" points="0,0 0,-476 346,-476 346,0 0,0"/>
<text text-anchor="start" x="111.741" y="-457" font-family="Helvetica,sans-Serif" font-size="10.00" fill="#000000">+Constructor(nombre:Texto</text>
<text text-anchor="start" x="133.822" y="-445" font-family="Helvetica,sans-Serif" font-size="10.00" fill="#000000">fechaInicio:Fecha</text>
<text text-anchor="start" x="104.6515" y="-433" font-family="Helvetica,sans-Serif" font-size="10.00" fill="#000000">fechaInicioInscripciones:Fecha</text>
<text text-anchor="start" x="102.712" y="-421" font-family="Helvetica,sans-Serif" font-size="10.00" fill="#000000">fechaCierreInscripciones:Fecha</text>
<text text-anchor="start" x="111.042" y="-409" font-family="Helvetica,sans-Serif" font-size="10.00" fill="#000000">numeroParticipantes:Entero</text>
<text text-anchor="start" x="133.5485" y="-397" font-family="Helvetica,sans-Serif" font-size="10.00" fill="#000000">limiteEdad:Entero</text>
<text text-anchor="start" x="122.1595" y="-385" font-family="Helvetica,sans-Serif" font-size="10.00" fill="#000000">valorInscripcion:Entero</text>
<text text-anchor="start" x="122.1555" y="-373" font-family="Helvetica,sans-Serif" font-size="10.00" fill="#000000">tipoTorneo:TipoTorneo</text>
<text text-anchor="start" x="12.288" y="-361" font-family="Helvetica,sans-Serif" font-size="10.00" fill="#000000">caracter:CaracterTorneo)+registrarParticipante(participante:Participante)</text>
<text text-anchor="start" x="128.1335" y="-349" font-family="Helvetica,sans-Serif" font-size="10.00" fill="#000000">+getNombre():Texto</text>
<text text-anchor="start" x="118.96" y="-337" font-family="Helvetica,sans-Serif" font-size="10.00" fill="#000000">+getFechaInicio():Fecha</text>
<text text-anchor="start" x="89.7895" y="-325" font-family="Helvetica,sans-Serif" font-size="10.00" fill="#000000">+getFechaInicioInscripciones():Fecha</text>
<text text-anchor="start" x="87.85" y="-313" font-family="Helvetica,sans-Serif" font-size="10.00" fill="#000000">+getFechaCierreInscripciones():Fecha</text>
<text text-anchor="start" x="97.015" y="-301" font-family="Helvetica,sans-Serif" font-size="10.00" fill="#000000">+getNumeroParticipantes():Entero</text>
<text text-anchor="start" x="118.6815" y="-289" font-family="Helvetica,sans-Serif" font-size="10.00" fill="#000000">+getLimiteEdad():Entero</text>
<text text-anchor="start" x="108.128" y="-277" font-family="Helvetica,sans-Serif" font-size="10.00" fill="#000000">+getValorInscripcion():Entero</text>
<text text-anchor="start" x="107.2935" y="-265" font-family="Helvetica,sans-Serif" font-size="10.00" fill="#000000">+getTipoTorneo():TipoTorneo</text>
<text text-anchor="start" x="80.6215" y="-253" font-family="Helvetica,sans-Serif" font-size="10.00" fill="#000000">+getParticipantes():Participante［*］</text>
<text text-anchor="start" x="104.2435" y="-241" font-family="Helvetica,sans-Serif" font-size="10.00" fill="#000000">+getCaracter():CaracterTorneo</text>
<text text-anchor="start" x="95.344" y="-229" font-family="Helvetica,sans-Serif" font-size="10.00" fill="#000000">+setFechaInicio(fechaInicio:Fecha)</text>
<text text-anchor="start" x="37.003" y="-217" font-family="Helvetica,sans-Serif" font-size="10.00" fill="#000000">+setFechaInicioInscripciones(fechaInicioInscripciones:Fecha)</text>
<text text-anchor="start" x="33.124" y="-205" font-family="Helvetica,sans-Serif" font-size="10.00" fill="#000000">+setFechaCierreInscripciones(fechaCierreInscripciones:Fecha)</text>
<text text-anchor="start" x="69.65" y="-193" font-family="Helvetica,sans-Serif" font-size="10.00" fill="#000000">buscarParticipante(nombre:Texto):Participante</text>
<text text-anchor="start" x="60.8875" y="-181" font-family="Helvetica,sans-Serif" font-size="10.00" fill="#000000">+registrarJugador(equipo:Equipo,jugador:Jugador)</text>
<text text-anchor="start" x="46.4445" y="-169" font-family="Helvetica,sans-Serif" font-size="10.00" fill="#000000">+registrarJugador(nombreEquipo:Texto,jugador:Jugador)</text>
<text text-anchor="start" x="45.896" y="-157" font-family="Helvetica,sans-Serif" font-size="10.00" fill="#000000">+registrarEstadisticaParticipante(participante:Participante</text>
<text text-anchor="start" x="110.4915" y="-145" font-family="Helvetica,sans-Serif" font-size="10.00" fill="#000000">estadistica:ValorEstadistica)</text>
<text text-anchor="start" x="85.0685" y="-133" font-family="Helvetica,sans-Serif" font-size="10.00" fill="#000000">+getEstadisticas():Estadistica［*］</text>
<text text-anchor="start" x="62.2905" y="-121" font-family="Helvetica,sans-Serif" font-size="10.00" fill="#000000">+buscarMejor(estadistica:Estadistica):Participante</text>
<text text-anchor="start" x="71.1735" y="-109" font-family="Helvetica,sans-Serif" font-size="10.00" fill="#000000">+buscarSuperiorIgualA(estadistica:Estadistica</text>
<text text-anchor="start" x="98.548" y="-97" font-family="Helvetica,sans-Serif" font-size="10.00" fill="#000000">valor:Real):Participante［*］</text>
<text text-anchor="start" x="85.346" y="-85" font-family="Helvetica,sans-Serif" font-size="10.00" fill="#000000">+buscarInferiorA(estadistica:Estadistica</text>
<text text-anchor="start" x="98.548" y="-73" font-family="Helvetica,sans-Serif" font-size="10.00" fill="#000000">valor:Real):Participante［*］</text>
<text text-anchor="start" x="60.9005" y="-61" font-family="Helvetica,sans-Serif" font-size="10.00" fill="#000000">+promedioEstadistica(estadistica:Estadistica):Real</text>
<text text-anchor="start" x="9.7745" y="-49" font-family="Helvetica,sans-Serif" font-size="10.00" fill="#000000">+obtenerEstadisticas(participante:Participante):ValorEstadistica［*］</text>
<text text-anchor="start" x="61.452" y="-37" font-family="Helvetica,sans-Serif" font-size="10.00" fill="#000000">+compararParticipantes(participanteA:Participante</text>
<text text-anchor="start" x="116.042" y="-25" font-family="Helvetica,sans-Serif" font-size="10.00" fill="#000000">participanteB:Participante</text>
<text text-anchor="start" x="106.0425" y="-13" font-family="Helvetica,sans-Serif" font-size="10.00" fill="#000000">estadistica:Estadistica):Entero</text>
</g>
<!-- A1 -->
<g id="node2" class="node">
<title>A1</title>
<polygon fill="none" stroke="#000000" points="427.5,-438 427.5,-482 498.5,-482 498.5,-438 427.5,-438"/>
<text text-anchor="start" x="438.264" y="-463" font-family="Helvetica,sans-Serif" font-size="10.00" fill="#000000">&lt;&lt;Enum&gt;&gt;</text>
<text text-anchor="start" x="437.44" y="-451" font-family="Helvetica,sans-Serif" font-size="10.00" fill="#000000">TipoTorneo</text>
<polygon fill="none" stroke="#000000" points="427.5,-370 427.5,-438 498.5,-438 498.5,-370 427.5,-370"/>
<text text-anchor="start" x="446.6075" y="-419" font-family="Helvetica,sans-Serif" font-size="10.00" fill="#000000">LOCAL</text>
<text text-anchor="start" x="437.164" y="-407" font-family="Helvetica,sans-Serif" font-size="10.00" fill="#000000">REGIONAL</text>
<text text-anchor="start" x="437.444" y="-395" font-family="Helvetica,sans-Serif" font-size="10.00" fill="#000000">NACIONAL</text>
<text text-anchor="start" x="440.5035" y="-383" font-family="Helvetica,sans-Serif" font-size="10.00" fill="#000000">MUNDIAL</text>
</g>
<!-- A0&#45;&gt;A1 -->
<g id="edge3" class="edge">
<title>A0&#45;&gt;A1</title>
<path fill="none" stroke="#000000" d="M346.0007,-377.7101C372.3593,-388.636 397.4177,-399.0229 417.4935,-407.3445"/>
<polygon fill="#000000" stroke="#000000" points="426.9325,-411.257 415.9715,-411.5848 422.3136,-409.3424 417.6947,-407.4278 417.6947,-407.4278 417.6947,-407.4278 422.3136,-409.3424 419.4178,-403.2708 426.9325,-411.257 426.9325,-411.257"/>
<text text-anchor="middle" x="406.9513" y="-409.1244" font-family="Helvetica,sans-Serif" font-size="10.00" fill="#000000">tipoTorneo1</text>
<text text-anchor="middle" x="365.9818" y="-373.8427" font-family="Helvetica,sans-Serif" font-size="10.00" fill="#000000">*</text>
</g>
<!-- A4 -->
<g id="node5" class="node">
<title>A4</title>
<polygon fill="none" stroke="#000000" points="579,-342 579,-386 799,-386 799,-342 579,-342"/>
<text text-anchor="start" x="658.151" y="-367" font-family="Helvetica,sans-Serif" font-size="10.00" fill="#000000">&lt;&lt;interface&gt;&gt;</text>
<text text-anchor="start" x="662.6055" y="-355" font-family="Helvetica,sans-Serif" font-size="10.00" fill="#000000">Participante</text>
<polygon fill="none" stroke="#000000" points="579,-298 579,-342 799,-342 799,-298 579,-298"/>
<text text-anchor="start" x="622.7425" y="-323" font-family="Helvetica,sans-Serif" font-size="10.00" fill="#000000">+getNombreCompleto():Texto</text>
<text text-anchor="start" x="588.8485" y="-311" font-family="Helvetica,sans-Serif" font-size="10.00" fill="#000000">+getRegistroEstadistica():RegistroEstadistica</text>
</g>
<!-- A0&#45;&gt;A4 -->
<g id="edge4" class="edge">
<title>A0&#45;&gt;A4</title>
<path fill="none" stroke="#000000" d="M358.3865,-320.2934C371.1146,-321.2252 383.7459,-322.1356 396,-323 452.7267,-327.0014 515.6548,-331.1235 568.6067,-334.5012"/>
<polygon fill="none" stroke="#000000" points="358.1305,-320.2747 351.8532,-323.8237 346.1628,-319.3943 352.4401,-315.8453 358.1305,-320.2747"/>
<polygon fill="#000000" stroke="#000000" points="578.7162,-335.1448 568.4504,-339.0003 573.7263,-334.8271 568.7364,-334.5094 568.7364,-334.5094 568.7364,-334.5094 573.7263,-334.8271 569.0223,-330.0185 578.7162,-335.1448 578.7162,-335.1448"/>
<text text-anchor="middle" x="560.0896" y="-339.4285" font-family="Helvetica,sans-Serif" font-size="10.00" fill="#000000">participantes*</text>
<text text-anchor="middle" x="364.8602" y="-309.2944" font-family="Helvetica,sans-Serif" font-size="10.00" fill="#000000">1</text>
</g>
<!-- A8 -->
<g id="node9" class="node">
<title>A8</title>
<polygon fill="none" stroke="#000000" points="417.5,-164 417.5,-208 507.5,-208 507.5,-164 417.5,-164"/>
<text text-anchor="start" x="437.764" y="-189" font-family="Helvetica,sans-Serif" font-size="10.00" fill="#000000">&lt;&lt;Enum&gt;&gt;</text>
<text text-anchor="start" x="427.4965" y="-177" font-family="Helvetica,sans-Serif" font-size="10.00" fill="#000000">CaracterTorneo</text>
<polygon fill="none" stroke="#000000" points="417.5,-120 417.5,-164 507.5,-164 507.5,-120 417.5,-120"/>
<text text-anchor="start" x="434.445" y="-145" font-family="Helvetica,sans-Serif" font-size="10.00" fill="#000000">INDIVIDUAL</text>
<text text-anchor="start" x="441.943" y="-133" font-family="Helvetica,sans-Serif" font-size="10.00" fill="#000000">GRUPAL</text>
</g>
<!-- A0&#45;&gt;A8 -->
<g id="edge2" class="edge">
<title>A0&#45;&gt;A8</title>
<path fill="none" stroke="#000000" d="M346.0007,-221.143C368.5206,-210.097 390.0914,-199.5165 408.4167,-190.5279"/>
<polygon fill="#000000" stroke="#000000" points="417.4159,-186.1138 410.4195,-194.5578 412.9268,-188.3157 408.4377,-190.5176 408.4377,-190.5176 408.4377,-190.5176 412.9268,-188.3157 406.456,-186.4775 417.4159,-186.1138 417.4159,-186.1138"/>
<text text-anchor="middle" x="404.8642" y="-198.6848" font-family="Helvetica,sans-Serif" font-size="10.00" fill="#000000">caracter1</text>
<text text-anchor="middle" x="358.5523" y="-202.572" font-family="Helvetica,sans-Serif" font-size="10.00" fill="#000000">*</text>
</g>
<!-- A11 -->
<g id="node12" class="node">
<title>A11</title>
<polygon fill="none" stroke="#000000" points="396.5,-282 396.5,-314 529.5,-314 529.5,-282 396.5,-282"/>
<text text-anchor="start" x="445.2185" y="-295" font-family="Helvetica,sans-Serif" font-size="10.00" fill="#000000">Reporte</text>
<polygon fill="none" stroke="#000000" points="396.5,-226 396.5,-282 529.5,-282 529.5,-226 396.5,-226"/>
<text text-anchor="start" x="435.4895" y="-263" font-family="Helvetica,sans-Serif" font-size="10.00" fill="#000000">fecha:Fecha</text>
<text text-anchor="start" x="406.042" y="-251" font-family="Helvetica,sans-Serif" font-size="10.00" fill="#000000">participanteA:Participante</text>
<text text-anchor="start" x="406.042" y="-239" font-family="Helvetica,sans-Serif" font-size="10.00" fill="#000000">participanteB:Participante</text>
</g>
<!-- A0&#45;&gt;A11 -->
<g id="edge1" class="edge">
<title>A0&#45;&gt;A11</title>
<path fill="none" stroke="#000000" stroke-dasharray="5,2" d="M346.0007,-284.487C359.68,-282.7859 373.0091,-281.1284 385.4734,-279.5784"/>
<polygon fill="#000000" stroke="#000000" points="395.7286,-278.3032 386.3604,-284.0029 390.7668,-278.9202 385.805,-279.5373 385.805,-279.5373 385.805,-279.5373 390.7668,-278.9202 385.2497,-275.0717 395.7286,-278.3032 395.7286,-278.3032"/>
</g>
<!-- A2 -->
<g id="node3" class="node">
<title>A2</title>
<polygon fill="none" stroke="#000000" points="1519.5,-392 1519.5,-436 1758.5,-436 1758.5,-392 1519.5,-392"/>
<text text-anchor="start" x="1608.151" y="-417" font-family="Helvetica,sans-Serif" font-size="10.00" fill="#000000">&lt;&lt;interface&gt;&gt;</text>
<text text-anchor="start" x="1596.2175" y="-405" font-family="Helvetica,sans-Serif" font-size="10.00" fill="#000000">RegistroEstadistica</text>
<polygon fill="none" stroke="#000000" points="1519.5,-324 1519.5,-392 1758.5,-392 1758.5,-324 1519.5,-324"/>
<text text-anchor="start" x="1539.401" y="-373" font-family="Helvetica,sans-Serif" font-size="10.00" fill="#000000">+getEstadisticas():ValorEstadistica［*］</text>
<text text-anchor="start" x="1529.4055" y="-361" font-family="Helvetica,sans-Serif" font-size="10.00" fill="#000000">+registrarEstadistica(estadistica:ValorEstadistica)</text>
<text text-anchor="start" x="1559.681" y="-349" font-family="Helvetica,sans-Serif" font-size="10.00" fill="#000000">+comparar(participante:Participante</text>
<text text-anchor="start" x="1572.0425" y="-337" font-family="Helvetica,sans-Serif" font-size="10.00" fill="#000000">estadistica:Estadistica):Entero</text>
</g>
<!-- A3 -->
<g id="node4" class="node">
<title>A3</title>
<polygon fill="none" stroke="#000000" points="1821.5,-396 1821.5,-428 2012.5,-428 2012.5,-396 1821.5,-396"/>
<text text-anchor="start" x="1864.7745" y="-409" font-family="Helvetica,sans-Serif" font-size="10.00" fill="#000000">RegistroEstadisticaImpl</text>
<polygon fill="none" stroke="#000000" points="1821.5,-364 1821.5,-396 2012.5,-396 2012.5,-364 1821.5,-364"/>
<text text-anchor="start" x="1831.153" y="-377" font-family="Helvetica,sans-Serif" font-size="10.00" fill="#000000">estadisticas:ValorEstadistica［*］</text>
<polygon fill="none" stroke="#000000" points="1821.5,-332 1821.5,-364 2012.5,-364 2012.5,-332 1821.5,-332"/>
<text text-anchor="start" x="1884.916" y="-345" font-family="Helvetica,sans-Serif" font-size="10.00" fill="#000000">+Constructor()</text>
</g>
<!-- A2&#45;&gt;A3 -->
<g id="edge18" class="edge">
<title>A2&#45;&gt;A3</title>
<path fill="none" stroke="#000000" d="M1768.4085,-380C1786.1224,-380 1804.0341,-380 1820.9862,-380"/>
<polygon fill="none" stroke="#000000" points="1768.0104,-376.5001 1758.0104,-380 1768.0104,-383.5001 1768.0104,-376.5001"/>
</g>
<!-- A2&#45;&gt;A4 -->
<g id="edge17" class="edge">
<title>A2&#45;&gt;A4</title>
<path fill="none" stroke="#000000" d="M1580.1785,-443.5841C1549.9547,-472.2931 1510.6854,-503.6091 1469,-521 1317.375,-584.2571 1261.9125,-570.8559 1100,-543 983.3529,-522.9317 954.2174,-508.2087 849,-454 812.0762,-434.9766 773.8533,-408.5138 744.0292,-386.0872"/>
<polygon fill="none" stroke="#000000" points="1582.9043,-445.8172 1587.6636,-436.3514 1578.0402,-440.7833 1582.9043,-445.8172"/>
</g>
<!-- A2JA9 -->
<!-- A2&#45;&gt;A2JA9 -->
<g id="edge10" class="edge">
<title>A2&#45;&gt;A2JA9</title>
<path fill="none" stroke="#000000" d="M1656.2198,-323.8014C1679.724,-259.5402 1727.8621,-156.9281 1808,-108 1847.3629,-83.967 1910.2568,-97.5709 1916.0666,-98.8991"/>
<text text-anchor="middle" x="1654.817" y="-300.8507" font-family="Helvetica,sans-Serif" font-size="10.00" fill="#000000">*</text>
</g>
<!-- A5 -->
<g id="node6" class="node">
<title>A5</title>
<polygon fill="none" stroke="#000000" points="861.5,-413 861.5,-445 1038.5,-445 1038.5,-413 861.5,-413"/>
<text text-anchor="start" x="934.438" y="-426" font-family="Helvetica,sans-Serif" font-size="10.00" fill="#000000">Equipo</text>
<polygon fill="none" stroke="#000000" points="861.5,-381 861.5,-413 1038.5,-413 1038.5,-381 861.5,-381"/>
<text text-anchor="start" x="919.1605" y="-394" font-family="Helvetica,sans-Serif" font-size="10.00" fill="#000000">nombre:Texto</text>
<polygon fill="none" stroke="#000000" points="861.5,-289 861.5,-381 1038.5,-381 1038.5,-289 861.5,-289"/>
<text text-anchor="start" x="888.741" y="-362" font-family="Helvetica,sans-Serif" font-size="10.00" fill="#000000">+Constructor(nombre:Texto</text>
<text text-anchor="start" x="897.485" y="-350" font-family="Helvetica,sans-Serif" font-size="10.00" fill="#000000">representante:Persona)</text>
<text text-anchor="start" x="905.1335" y="-338" font-family="Helvetica,sans-Serif" font-size="10.00" fill="#000000">+getNombre():Texto</text>
<text text-anchor="start" x="884.0075" y="-326" font-family="Helvetica,sans-Serif" font-size="10.00" fill="#000000">+getRepresentante():Persona</text>
<text text-anchor="start" x="871.507" y="-314" font-family="Helvetica,sans-Serif" font-size="10.00" fill="#000000">+getJugadores():Jugador［*］</text>
<text text-anchor="start" x="871.2355" y="-302" font-family="Helvetica,sans-Serif" font-size="10.00" fill="#000000">+registrarJugador(jugador:Jugador)</text>
</g>
<!-- A4&#45;&gt;A5 -->
<g id="edge9" class="edge">
<title>A4&#45;&gt;A5</title>
<path fill="none" stroke="#000000" d="M809.259,-353.5412C826.5792,-355.2034 844.1364,-356.8883 860.6958,-358.4775"/>
<polygon fill="none" stroke="#000000" points="809.3865,-350.0374 799.0979,-352.566 808.7178,-357.0054 809.3865,-350.0374"/>
</g>
<!-- A7 -->
<g id="node8" class="node">
<title>A7</title>
<polygon fill="none" stroke="#000000" points="1292.5,-386 1292.5,-418 1469.5,-418 1469.5,-386 1292.5,-386"/>
<text text-anchor="start" x="1362.938" y="-399" font-family="Helvetica,sans-Serif" font-size="10.00" fill="#000000">Jugador</text>
<polygon fill="none" stroke="#000000" points="1292.5,-354 1292.5,-386 1469.5,-386 1469.5,-354 1292.5,-354"/>
<text text-anchor="start" x="1328.489" y="-367" font-family="Helvetica,sans-Serif" font-size="10.00" fill="#000000">fechaNacimiento:Fecha</text>
<polygon fill="none" stroke="#000000" points="1292.5,-250 1292.5,-354 1469.5,-354 1469.5,-250 1292.5,-250"/>
<text text-anchor="start" x="1319.741" y="-335" font-family="Helvetica,sans-Serif" font-size="10.00" fill="#000000">+Constructor(nombre:Texto</text>
<text text-anchor="start" x="1349.8815" y="-323" font-family="Helvetica,sans-Serif" font-size="10.00" fill="#000000">apellido:Texto</text>
<text text-anchor="start" x="1355.165" y="-311" font-family="Helvetica,sans-Serif" font-size="10.00" fill="#000000">email:Texto</text>
<text text-anchor="start" x="1352.3855" y="-299" font-family="Helvetica,sans-Serif" font-size="10.00" fill="#000000">celular:Texto</text>
<text text-anchor="start" x="1326.8245" y="-287" font-family="Helvetica,sans-Serif" font-size="10.00" fill="#000000">fechaNacimiento:Fecha)</text>
<text text-anchor="start" x="1313.627" y="-275" font-family="Helvetica,sans-Serif" font-size="10.00" fill="#000000">+getFechaNacimiento():Fecha</text>
<text text-anchor="start" x="1302.2295" y="-263" font-family="Helvetica,sans-Serif" font-size="10.00" fill="#000000">+calcularEdad(fecha:Fecha):Entero</text>
</g>
<!-- A4&#45;&gt;A7 -->
<g id="edge8" class="edge">
<title>A4&#45;&gt;A7</title>
<path fill="none" stroke="#000000" d="M797.6496,-294.4998C814.5699,-288.6861 832.0611,-283.5527 849,-280 1020.0141,-244.132 1071.4536,-230.97 1242,-269 1258.5919,-272.6998 1275.544,-278.6122 1291.6394,-285.3997"/>
<polygon fill="none" stroke="#000000" points="796.0238,-291.3622 787.7617,-297.9946 798.3565,-297.9621 796.0238,-291.3622"/>
</g>
<!-- A5&#45;&gt;A2 -->
<g id="edge20" class="edge">
<title>A5&#45;&gt;A2</title>
<path fill="none" stroke="#000000" d="M1005.5778,-445.0812C1030.8291,-473.6731 1063.2527,-502.7431 1100,-518 1248.6165,-579.7034 1432.0752,-502.4913 1541.947,-441.1424"/>
<polygon fill="#000000" stroke="#000000" points="1550.7093,-436.1962 1544.2131,-445.0308 1546.3551,-438.6541 1542.0009,-441.112 1542.0009,-441.112 1542.0009,-441.112 1546.3551,-438.6541 1539.7888,-437.1932 1550.7093,-436.1962 1550.7093,-436.1962"/>
</g>
<!-- A6 -->
<g id="node7" class="node">
<title>A6</title>
<polygon fill="none" stroke="#000000" points="1100,-477 1100,-509 1242,-509 1242,-477 1100,-477"/>
<text text-anchor="start" x="1152.383" y="-490" font-family="Helvetica,sans-Serif" font-size="10.00" fill="#000000">Persona</text>
<polygon fill="none" stroke="#000000" points="1100,-409 1100,-477 1242,-477 1242,-409 1100,-409"/>
<text text-anchor="start" x="1140.1605" y="-458" font-family="Helvetica,sans-Serif" font-size="10.00" fill="#000000">nombre:Texto</text>
<text text-anchor="start" x="1139.8815" y="-446" font-family="Helvetica,sans-Serif" font-size="10.00" fill="#000000">apellido:Texto</text>
<text text-anchor="start" x="1145.165" y="-434" font-family="Helvetica,sans-Serif" font-size="10.00" fill="#000000">email:Texto</text>
<text text-anchor="start" x="1142.3855" y="-422" font-family="Helvetica,sans-Serif" font-size="10.00" fill="#000000">celular:Texto</text>
<polygon fill="none" stroke="#000000" points="1100,-293 1100,-409 1242,-409 1242,-293 1100,-293"/>
<text text-anchor="start" x="1109.741" y="-390" font-family="Helvetica,sans-Serif" font-size="10.00" fill="#000000">+Constructor(nombre:Texto</text>
<text text-anchor="start" x="1139.8815" y="-378" font-family="Helvetica,sans-Serif" font-size="10.00" fill="#000000">apellido:Texto</text>
<text text-anchor="start" x="1145.165" y="-366" font-family="Helvetica,sans-Serif" font-size="10.00" fill="#000000">email:Texto</text>
<text text-anchor="start" x="1140.721" y="-354" font-family="Helvetica,sans-Serif" font-size="10.00" fill="#000000">celular:Texto)</text>
<text text-anchor="start" x="1126.1335" y="-342" font-family="Helvetica,sans-Serif" font-size="10.00" fill="#000000">+getNombre():Texto</text>
<text text-anchor="start" x="1126.1295" y="-330" font-family="Helvetica,sans-Serif" font-size="10.00" fill="#000000">+getApellido():Texto</text>
<text text-anchor="start" x="1131.413" y="-318" font-family="Helvetica,sans-Serif" font-size="10.00" fill="#000000">+getEmail():Texto</text>
<text text-anchor="start" x="1128.079" y="-306" font-family="Helvetica,sans-Serif" font-size="10.00" fill="#000000">+getCelular():Texto</text>
</g>
<!-- A5&#45;&gt;A6 -->
<g id="edge5" class="edge">
<title>A5&#45;&gt;A6</title>
<path fill="none" stroke="#000000" d="M1050.4021,-382.4884C1063.5803,-384.5112 1076.946,-386.5628 1089.7448,-388.5274"/>
<polygon fill="none" stroke="#000000" points="1050.1773,-382.4539 1043.6399,-385.4973 1038.3163,-380.6332 1044.8537,-377.5899 1050.1773,-382.4539"/>
<polygon fill="#000000" stroke="#000000" points="1099.8733,-390.0821 1089.3063,-393.0127 1094.9312,-389.3235 1089.9891,-388.5648 1089.9891,-388.5648 1089.9891,-388.5648 1094.9312,-389.3235 1090.6718,-384.1169 1099.8733,-390.0821 1099.8733,-390.0821"/>
<text text-anchor="middle" x="1080.6746" y="-392.6865" font-family="Helvetica,sans-Serif" font-size="10.00" fill="#000000">representante1</text>
<text text-anchor="middle" x="1057.515" y="-372.0288" font-family="Helvetica,sans-Serif" font-size="10.00" fill="#000000">1</text>
</g>
<!-- A5&#45;&gt;A7 -->
<g id="edge7" class="edge">
<title>A5&#45;&gt;A7</title>
<path fill="none" stroke="#000000" d="M1049.4932,-302.9545C1065.8216,-295.1428 1082.9784,-288.3825 1100,-284 1161.1179,-268.2641 1179.8334,-273.1222 1242,-284 1255.2724,-286.3224 1268.9505,-289.8079 1282.3046,-293.8793"/>
<polygon fill="none" stroke="#000000" points="1049.074,-303.1633 1045.4872,-309.4192 1038.3331,-308.5144 1041.9199,-302.2585 1049.074,-303.1633"/>
<polygon fill="#000000" stroke="#000000" points="1291.9609,-296.9391 1281.0686,-298.2081 1287.1944,-295.4287 1282.428,-293.9183 1282.428,-293.9183 1282.428,-293.9183 1287.1944,-295.4287 1283.7874,-289.6285 1291.9609,-296.9391 1291.9609,-296.9391"/>
<text text-anchor="middle" x="1272.1282" y="-296.5212" font-family="Helvetica,sans-Serif" font-size="10.00" fill="#000000">jugador*</text>
<text text-anchor="middle" x="1050.7884" y="-289.8661" font-family="Helvetica,sans-Serif" font-size="10.00" fill="#000000">1</text>
</g>
<!-- A6&#45;&gt;A7 -->
<g id="edge6" class="edge">
<title>A6&#45;&gt;A7</title>
<path fill="none" stroke="#000000" d="M1252.034,-375.0846C1265.0178,-370.9323 1278.5146,-366.6158 1291.6686,-362.4091"/>
<polygon fill="none" stroke="#000000" points="1250.6781,-371.8435 1242.2195,-378.2234 1252.8104,-378.5109 1250.6781,-371.8435"/>
</g>
<!-- A7&#45;&gt;A2 -->
<g id="edge19" class="edge">
<title>A7&#45;&gt;A2</title>
<path fill="none" stroke="#000000" d="M1469.289,-349.8306C1481.9498,-352.0879 1495.1848,-354.4477 1508.4347,-356.8101"/>
<polygon fill="#000000" stroke="#000000" points="1518.5607,-358.6155 1507.9261,-361.2903 1513.6383,-357.7378 1508.716,-356.8601 1508.716,-356.8601 1508.716,-356.8601 1513.6383,-357.7378 1509.5059,-352.43 1518.5607,-358.6155 1518.5607,-358.6155"/>
</g>
<!-- A9 -->
<g id="node10" class="node">
<title>A9</title>
<polygon fill="none" stroke="#000000" points="2075,-133 2075,-165 2217,-165 2217,-133 2075,-133"/>
<text text-anchor="start" x="2121.829" y="-146" font-family="Helvetica,sans-Serif" font-size="10.00" fill="#000000">Estadistica</text>
<polygon fill="none" stroke="#000000" points="2075,-101 2075,-133 2217,-133 2217,-101 2075,-101"/>
<text text-anchor="start" x="2115.1605" y="-114" font-family="Helvetica,sans-Serif" font-size="10.00" fill="#000000">nombre:Texto</text>
<polygon fill="none" stroke="#000000" points="2075,-33 2075,-101 2217,-101 2217,-33 2075,-33"/>
<text text-anchor="start" x="2084.741" y="-82" font-family="Helvetica,sans-Serif" font-size="10.00" fill="#000000">+Constructor(nombre:Texto</text>
<text text-anchor="start" x="2100.994" y="-70" font-family="Helvetica,sans-Serif" font-size="10.00" fill="#000000">tipo:TipoEstadistica)</text>
<text text-anchor="start" x="2101.1335" y="-58" font-family="Helvetica,sans-Serif" font-size="10.00" fill="#000000">+getNombre():Texto</text>
<text text-anchor="start" x="2087.7965" y="-46" font-family="Helvetica,sans-Serif" font-size="10.00" fill="#000000">+getTipo():TipoEstadistica</text>
</g>
<!-- A13 -->
<g id="node14" class="node">
<title>A13</title>
<polygon fill="none" stroke="#000000" points="2267.5,-105 2267.5,-149 2354.5,-149 2354.5,-105 2267.5,-105"/>
<text text-anchor="start" x="2286.264" y="-130" font-family="Helvetica,sans-Serif" font-size="10.00" fill="#000000">&lt;&lt;Enum&gt;&gt;</text>
<text text-anchor="start" x="2277.106" y="-118" font-family="Helvetica,sans-Serif" font-size="10.00" fill="#000000">TipoEstadistica</text>
<polygon fill="none" stroke="#000000" points="2267.5,-49 2267.5,-105 2354.5,-105 2354.5,-49 2267.5,-49"/>
<text text-anchor="start" x="2287.939" y="-86" font-family="Helvetica,sans-Serif" font-size="10.00" fill="#000000">POSITIVA</text>
<text text-anchor="start" x="2285.719" y="-74" font-family="Helvetica,sans-Serif" font-size="10.00" fill="#000000">NEGATIVA</text>
<text text-anchor="start" x="2290.448" y="-62" font-family="Helvetica,sans-Serif" font-size="10.00" fill="#000000">NEUTRA</text>
</g>
<!-- A9&#45;&gt;A13 -->
<g id="edge13" class="edge">
<title>A9&#45;&gt;A13</title>
<path fill="none" stroke="#000000" d="M2217.1954,-99C2230.3558,-99 2243.9009,-99 2256.4496,-99"/>
<polygon fill="#000000" stroke="#000000" points="2266.7259,-99 2256.7259,-103.5001 2261.7259,-99 2256.7259,-99.0001 2256.7259,-99.0001 2256.7259,-99.0001 2261.7259,-99 2256.7258,-94.5001 2266.7259,-99 2266.7259,-99"/>
<text text-anchor="middle" x="2248.5997" y="-104.4524" font-family="Helvetica,sans-Serif" font-size="10.00" fill="#000000">tipo1</text>
<text text-anchor="middle" x="2235.3215" y="-87.5476" font-family="Helvetica,sans-Serif" font-size="10.00" fill="#000000">*</text>
</g>
<!-- A10 -->
<g id="node11" class="node">
<title>A10</title>
<polygon fill="none" stroke="#000000" points="1808.5,-241 1808.5,-273 2025.5,-273 2025.5,-241 1808.5,-241"/>
<text text-anchor="start" x="1881.1615" y="-254" font-family="Helvetica,sans-Serif" font-size="10.00" fill="#000000">ValorEstadistica</text>
<polygon fill="none" stroke="#000000" points="1808.5,-197 1808.5,-241 2025.5,-241 2025.5,-197 1808.5,-197"/>
<text text-anchor="start" x="1894.4995" y="-222" font-family="Helvetica,sans-Serif" font-size="10.00" fill="#000000">valor:Real</text>
<text text-anchor="start" x="1867.8235" y="-210" font-family="Helvetica,sans-Serif" font-size="10.00" fill="#000000">estadistica:Estadistica</text>
<polygon fill="none" stroke="#000000" points="1808.5,-117 1808.5,-197 2025.5,-197 2025.5,-117 1808.5,-117"/>
<text text-anchor="start" x="1864.08" y="-178" font-family="Helvetica,sans-Serif" font-size="10.00" fill="#000000">+Constructor(valor:Real</text>
<text text-anchor="start" x="1866.159" y="-166" font-family="Helvetica,sans-Serif" font-size="10.00" fill="#000000">estadistica:Estadistica)</text>
<text text-anchor="start" x="1880.468" y="-154" font-family="Helvetica,sans-Serif" font-size="10.00" fill="#000000">+getValor():Real</text>
<text text-anchor="start" x="1854.0715" y="-142" font-family="Helvetica,sans-Serif" font-size="10.00" fill="#000000">+getEstadistica():Estadistica</text>
<text text-anchor="start" x="1818.379" y="-130" font-family="Helvetica,sans-Serif" font-size="10.00" fill="#000000">compareTo(registro:ValorEstadistica):Entero</text>
</g>
<!-- A10&#45;&gt;A2JA9 -->
<g id="edge12" class="edge">
<title>A10&#45;&gt;A2JA9</title>
<path fill="none" stroke="#000000" stroke-dasharray="5,2" d="M1916.5,-116.9312C1916.5,-114.4623 1916.5,-111.9935 1916.5,-109.5247"/>
<polygon fill="#000000" stroke="#000000" points="1916.5,-99.375 1921.0001,-109.375 1916.5,-104.375 1916.5001,-109.375 1916.5001,-109.375 1916.5001,-109.375 1916.5,-104.375 1912.0001,-109.375 1916.5,-99.375 1916.5,-99.375"/>
</g>
<!-- A11&#45;&gt;A4 -->
<g id="edge16" class="edge">
<title>A11&#45;&gt;A4</title>
<path fill="none" stroke="#000000" d="M540.8406,-294.903C550.0848,-297.8415 559.673,-300.8894 569.3236,-303.9572"/>
<polygon fill="none" stroke="#000000" points="540.6685,-294.8483 533.7387,-296.8427 529.2324,-291.213 536.1623,-289.2186 540.6685,-294.8483"/>
<polygon fill="#000000" stroke="#000000" points="578.9845,-307.0282 568.0912,-308.2872 574.2195,-305.5134 569.4544,-303.9987 569.4544,-303.9987 569.4544,-303.9987 574.2195,-305.5134 570.8177,-299.7102 578.9845,-307.0282 578.9845,-307.0282"/>
<text text-anchor="middle" x="559.1496" y="-306.5922" font-family="Helvetica,sans-Serif" font-size="10.00" fill="#000000">2</text>
<text text-anchor="middle" x="549.0674" y="-285.649" font-family="Helvetica,sans-Serif" font-size="10.00" fill="#000000">*</text>
</g>
<!-- A12 -->
<g id="node13" class="node">
<title>A12</title>
<polygon fill="none" stroke="#000000" points="849.5,-167 849.5,-199 1050.5,-199 1050.5,-167 849.5,-167"/>
<text text-anchor="start" x="913.607" y="-180" font-family="Helvetica,sans-Serif" font-size="10.00" fill="#000000">RegistroReporte</text>
<polygon fill="none" stroke="#000000" points="849.5,-123 849.5,-167 1050.5,-167 1050.5,-123 849.5,-123"/>
<text text-anchor="start" x="859.427" y="-148" font-family="Helvetica,sans-Serif" font-size="10.00" fill="#000000">estadisticaParticipanteA:ValorEstadistica</text>
<text text-anchor="start" x="859.427" y="-136" font-family="Helvetica,sans-Serif" font-size="10.00" fill="#000000">estadisticaParticipanteB:ValorEstadistica</text>
</g>
<!-- A11&#45;&gt;A12 -->
<g id="edge14" class="edge">
<title>A11&#45;&gt;A12</title>
<path fill="none" stroke="#000000" d="M540.9268,-252.4466C621.7171,-234.3641 748.3223,-206.0274 839.1877,-185.69"/>
<polygon fill="none" stroke="#000000" points="540.9044,-252.4515 535.923,-257.6655 529.1941,-255.0726 534.1756,-249.8586 540.9044,-252.4515"/>
<polygon fill="#000000" stroke="#000000" points="848.974,-183.4997 840.1984,-190.0752 844.0947,-184.5918 839.2154,-185.6839 839.2154,-185.6839 839.2154,-185.6839 844.0947,-184.5918 838.2325,-181.2925 848.974,-183.4997 848.974,-183.4997"/>
<text text-anchor="middle" x="833.1316" y="-192.707" font-family="Helvetica,sans-Serif" font-size="10.00" fill="#000000">registros*</text>
<text text-anchor="middle" x="545.0365" y="-239.8652" font-family="Helvetica,sans-Serif" font-size="10.00" fill="#000000">1</text>
</g>
<!-- A12&#45;&gt;A10 -->
<g id="edge15" class="edge">
<title>A12&#45;&gt;A10</title>
<path fill="none" stroke="#000000" d="M1062.3271,-164.967C1246.4421,-171.4406 1609.7628,-184.215 1797.6835,-190.8224"/>
<polygon fill="none" stroke="#000000" points="1062.242,-164.9641 1056.1051,-168.7508 1050.2494,-164.5424 1056.3863,-160.7557 1062.242,-164.9641"/>
<polygon fill="#000000" stroke="#000000" points="1807.8757,-191.1807 1797.7237,-195.3265 1802.8788,-191.005 1797.8819,-190.8293 1797.8819,-190.8293 1797.8819,-190.8293 1802.8788,-191.005 1798.04,-186.332 1807.8757,-191.1807 1807.8757,-191.1807"/>
<text text-anchor="middle" x="1789.4637" y="-195.991" font-family="Helvetica,sans-Serif" font-size="10.00" fill="#000000">2</text>
<text text-anchor="middle" x="1068.6613" y="-153.7322" font-family="Helvetica,sans-Serif" font-size="10.00" fill="#000000">*</text>
</g>
<!-- A2JA9&#45;&gt;A9 -->
<g id="edge11" class="edge">
<title>A2JA9&#45;&gt;A9</title>
<path fill="none" stroke="#000000" d="M1917.1584,-99C1925.0284,-99 2001.9152,-99 2064.4288,-99"/>
<polygon fill="#000000" stroke="#000000" points="2074.7212,-99 2064.7213,-103.5001 2069.7212,-99 2064.7212,-99.0001 2064.7212,-99.0001 2064.7212,-99.0001 2069.7212,-99 2064.7212,-94.5001 2074.7212,-99 2074.7212,-99"/>
<text text-anchor="middle" x="2056.5951" y="-104.4524" font-family="Helvetica,sans-Serif" font-size="10.00" fill="#000000">*</text>
</g>
</g>
</svg>
