<?xml version="1.0" encoding="UTF-8" standalone="no"?>
<!DOCTYPE svg PUBLIC "-//W3C//DTD SVG 1.1//EN"
 "http://www.w3.org/Graphics/SVG/1.1/DTD/svg11.dtd">
<!-- Generated by graphviz version 2.40.1 (20161225.0304)
 -->
<!-- Title: G Pages: 1 -->
<svg width="2005pt" height="640pt"
 viewBox="0.00 0.00 2005.00 640.00" xmlns="http://www.w3.org/2000/svg" xmlns:xlink="http://www.w3.org/1999/xlink">
<g id="graph0" class="graph" transform="scale(1 1) rotate(0) translate(4 636)">
<title>G</title>
<polygon fill="#ffffff" stroke="transparent" points="-4,4 -4,-636 2001,-636 2001,4 -4,4"/>
<!-- A0 -->
<g id="node1" class="node">
<title>A0</title>
<polygon fill="none" stroke="#000000" points="0,-580 0,-612 360,-612 360,-580 0,-580"/>
<text text-anchor="start" x="164.163" y="-593" font-family="Helvetica,sans-Serif" font-size="10.00" fill="#000000">Torneo</text>
<polygon fill="none" stroke="#000000" points="0,-476 0,-580 360,-580 360,-476 0,-476"/>
<text text-anchor="start" x="149.1605" y="-561" font-family="Helvetica,sans-Serif" font-size="10.00" fill="#000000">nombre:Texto</text>
<text text-anchor="start" x="140.822" y="-549" font-family="Helvetica,sans-Serif" font-size="10.00" fill="#000000">fechaInicio:Fecha</text>
<text text-anchor="start" x="111.6515" y="-537" font-family="Helvetica,sans-Serif" font-size="10.00" fill="#000000">fechaInicioInscripciones:Fecha</text>
<text text-anchor="start" x="109.712" y="-525" font-family="Helvetica,sans-Serif" font-size="10.00" fill="#000000">fechaCierreInscripciones:Fecha</text>
<text text-anchor="start" x="118.042" y="-513" font-family="Helvetica,sans-Serif" font-size="10.00" fill="#000000">numeroParticipantes:Entero</text>
<text text-anchor="start" x="140.5485" y="-501" font-family="Helvetica,sans-Serif" font-size="10.00" fill="#000000">limiteEdad:Entero</text>
<text text-anchor="start" x="129.1595" y="-489" font-family="Helvetica,sans-Serif" font-size="10.00" fill="#000000">valorInscripcion:Entero</text>
<polygon fill="none" stroke="#000000" points="0,0 0,-476 360,-476 360,0 0,0"/>
<text text-anchor="start" x="118.741" y="-457" font-family="Helvetica,sans-Serif" font-size="10.00" fill="#000000">+Constructor(nombre:Texto</text>
<text text-anchor="start" x="140.822" y="-445" font-family="Helvetica,sans-Serif" font-size="10.00" fill="#000000">fechaInicio:Fecha</text>
<text text-anchor="start" x="111.6515" y="-433" font-family="Helvetica,sans-Serif" font-size="10.00" fill="#000000">fechaInicioInscripciones:Fecha</text>
<text text-anchor="start" x="109.712" y="-421" font-family="Helvetica,sans-Serif" font-size="10.00" fill="#000000">fechaCierreInscripciones:Fecha</text>
<text text-anchor="start" x="118.042" y="-409" font-family="Helvetica,sans-Serif" font-size="10.00" fill="#000000">numeroParticipantes:Entero</text>
<text text-anchor="start" x="140.5485" y="-397" font-family="Helvetica,sans-Serif" font-size="10.00" fill="#000000">limiteEdad:Entero</text>
<text text-anchor="start" x="129.1595" y="-385" font-family="Helvetica,sans-Serif" font-size="10.00" fill="#000000">valorInscripcion:Entero</text>
<text text-anchor="start" x="129.1555" y="-373" font-family="Helvetica,sans-Serif" font-size="10.00" fill="#000000">tipoTorneo:TipoTorneo</text>
<text text-anchor="start" x="19.288" y="-361" font-family="Helvetica,sans-Serif" font-size="10.00" fill="#000000">caracter:CaracterTorneo)+registrarParticipante(participante:Participante)</text>
<text text-anchor="start" x="135.1335" y="-349" font-family="Helvetica,sans-Serif" font-size="10.00" fill="#000000">+getNombre():Texto</text>
<text text-anchor="start" x="125.96" y="-337" font-family="Helvetica,sans-Serif" font-size="10.00" fill="#000000">+getFechaInicio():Fecha</text>
<text text-anchor="start" x="96.7895" y="-325" font-family="Helvetica,sans-Serif" font-size="10.00" fill="#000000">+getFechaInicioInscripciones():Fecha</text>
<text text-anchor="start" x="94.85" y="-313" font-family="Helvetica,sans-Serif" font-size="10.00" fill="#000000">+getFechaCierreInscripciones():Fecha</text>
<text text-anchor="start" x="104.015" y="-301" font-family="Helvetica,sans-Serif" font-size="10.00" fill="#000000">+getNumeroParticipantes():Entero</text>
<text text-anchor="start" x="125.6815" y="-289" font-family="Helvetica,sans-Serif" font-size="10.00" fill="#000000">+getLimiteEdad():Entero</text>
<text text-anchor="start" x="115.128" y="-277" font-family="Helvetica,sans-Serif" font-size="10.00" fill="#000000">+getValorInscripcion():Entero</text>
<text text-anchor="start" x="114.2935" y="-265" font-family="Helvetica,sans-Serif" font-size="10.00" fill="#000000">+getTipoTorneo():TipoTorneo</text>
<text text-anchor="start" x="87.6215" y="-253" font-family="Helvetica,sans-Serif" font-size="10.00" fill="#000000">+getParticipantes():Participante［*］</text>
<text text-anchor="start" x="111.2435" y="-241" font-family="Helvetica,sans-Serif" font-size="10.00" fill="#000000">+getCaracter():CaracterTorneo</text>
<text text-anchor="start" x="102.344" y="-229" font-family="Helvetica,sans-Serif" font-size="10.00" fill="#000000">+setFechaInicio(fechaInicio:Fecha)</text>
<text text-anchor="start" x="44.003" y="-217" font-family="Helvetica,sans-Serif" font-size="10.00" fill="#000000">+setFechaInicioInscripciones(fechaInicioInscripciones:Fecha)</text>
<text text-anchor="start" x="40.124" y="-205" font-family="Helvetica,sans-Serif" font-size="10.00" fill="#000000">+setFechaCierreInscripciones(fechaCierreInscripciones:Fecha)</text>
<text text-anchor="start" x="76.65" y="-193" font-family="Helvetica,sans-Serif" font-size="10.00" fill="#000000">buscarParticipante(nombre:Texto):Participante</text>
<text text-anchor="start" x="67.8875" y="-181" font-family="Helvetica,sans-Serif" font-size="10.00" fill="#000000">+registrarJugador(equipo:Equipo,jugador:Jugador)</text>
<text text-anchor="start" x="53.4445" y="-169" font-family="Helvetica,sans-Serif" font-size="10.00" fill="#000000">+registrarJugador(nombreEquipo:Texto,jugador:Jugador)</text>
<text text-anchor="start" x="52.896" y="-157" font-family="Helvetica,sans-Serif" font-size="10.00" fill="#000000">+registrarEstadisticaParticipante(participante:Participante</text>
<text text-anchor="start" x="110.5475" y="-145" font-family="Helvetica,sans-Serif" font-size="10.00" fill="#000000">estadistica:RegistroEstadistica)</text>
<text text-anchor="start" x="92.0685" y="-133" font-family="Helvetica,sans-Serif" font-size="10.00" fill="#000000">+getEstadisticas():Estadistica［*］</text>
<text text-anchor="start" x="69.2905" y="-121" font-family="Helvetica,sans-Serif" font-size="10.00" fill="#000000">+buscarMejor(estadistica:Estadistica):Participante</text>
<text text-anchor="start" x="78.1735" y="-109" font-family="Helvetica,sans-Serif" font-size="10.00" fill="#000000">+buscarSuperiorIgualA(estadistica:Estadistica</text>
<text text-anchor="start" x="105.548" y="-97" font-family="Helvetica,sans-Serif" font-size="10.00" fill="#000000">valor:Real):Participante［*］</text>
<text text-anchor="start" x="92.346" y="-85" font-family="Helvetica,sans-Serif" font-size="10.00" fill="#000000">+buscarInferiorA(estadistica:Estadistica</text>
<text text-anchor="start" x="105.548" y="-73" font-family="Helvetica,sans-Serif" font-size="10.00" fill="#000000">valor:Real):Participante［*］</text>
<text text-anchor="start" x="67.9005" y="-61" font-family="Helvetica,sans-Serif" font-size="10.00" fill="#000000">+promedioEstadistica(estadistica:Estadistica):Real</text>
<text text-anchor="start" x="9.8305" y="-49" font-family="Helvetica,sans-Serif" font-size="10.00" fill="#000000">+obtenerEstadisticas(participante:Participante):RegistroEstadistica［*］</text>
<text text-anchor="start" x="68.452" y="-37" font-family="Helvetica,sans-Serif" font-size="10.00" fill="#000000">+compararParticipantes(participanteA:Participante</text>
<text text-anchor="start" x="123.042" y="-25" font-family="Helvetica,sans-Serif" font-size="10.00" fill="#000000">participanteB:Participante</text>
<text text-anchor="start" x="113.0425" y="-13" font-family="Helvetica,sans-Serif" font-size="10.00" fill="#000000">estadistica:Estadistica):Entero</text>
</g>
<!-- A1 -->
<g id="node2" class="node">
<title>A1</title>
<polygon fill="none" stroke="#000000" points="479.5,-452 479.5,-496 550.5,-496 550.5,-452 479.5,-452"/>
<text text-anchor="start" x="490.264" y="-477" font-family="Helvetica,sans-Serif" font-size="10.00" fill="#000000">&lt;&lt;Enum&gt;&gt;</text>
<text text-anchor="start" x="489.44" y="-465" font-family="Helvetica,sans-Serif" font-size="10.00" fill="#000000">TipoTorneo</text>
<polygon fill="none" stroke="#000000" points="479.5,-384 479.5,-452 550.5,-452 550.5,-384 479.5,-384"/>
<text text-anchor="start" x="498.6075" y="-433" font-family="Helvetica,sans-Serif" font-size="10.00" fill="#000000">LOCAL</text>
<text text-anchor="start" x="489.164" y="-421" font-family="Helvetica,sans-Serif" font-size="10.00" fill="#000000">REGIONAL</text>
<text text-anchor="start" x="489.444" y="-409" font-family="Helvetica,sans-Serif" font-size="10.00" fill="#000000">NACIONAL</text>
<text text-anchor="start" x="492.5035" y="-397" font-family="Helvetica,sans-Serif" font-size="10.00" fill="#000000">MUNDIAL</text>
</g>
<!-- A0&#45;&gt;A1 -->
<g id="edge3" class="edge">
<title>A0&#45;&gt;A1</title>
<path fill="none" stroke="#000000" d="M360.4675,-378.2949C401.0822,-394.5651 440.651,-410.4162 469.513,-421.9783"/>
<polygon fill="#000000" stroke="#000000" points="478.8766,-425.7293 467.9203,-426.1879 474.2352,-423.87 469.5937,-422.0106 469.5937,-422.0106 469.5937,-422.0106 474.2352,-423.87 471.2672,-417.8333 478.8766,-425.7293 478.8766,-425.7293"/>
<text text-anchor="middle" x="458.9072" y="-423.835" font-family="Helvetica,sans-Serif" font-size="10.00" fill="#000000">tipoTorneo1</text>
<text text-anchor="middle" x="380.4369" y="-374.1892" font-family="Helvetica,sans-Serif" font-size="10.00" fill="#000000">*</text>
</g>
<!-- A2 -->
<g id="node3" class="node">
<title>A2</title>
<polygon fill="none" stroke="#000000" points="669.5,-396 669.5,-440 994.5,-440 994.5,-396 669.5,-396"/>
<text text-anchor="start" x="801.151" y="-421" font-family="Helvetica,sans-Serif" font-size="10.00" fill="#000000">&lt;&lt;interface&gt;&gt;</text>
<text text-anchor="start" x="805.6055" y="-409" font-family="Helvetica,sans-Serif" font-size="10.00" fill="#000000">Participante</text>
<polygon fill="none" stroke="#000000" points="669.5,-364 669.5,-396 994.5,-396 994.5,-364 669.5,-364"/>
<text text-anchor="start" x="829.221" y="-377" font-family="Helvetica,sans-Serif" font-size="10.00" fill="#000000"> &#160;</text>
<polygon fill="none" stroke="#000000" points="669.5,-272 669.5,-364 994.5,-364 994.5,-272 669.5,-272"/>
<text text-anchor="start" x="725.457" y="-345" font-family="Helvetica,sans-Serif" font-size="10.00" fill="#000000">+getEstadisticas():RegistroEstadistica［*］</text>
<text text-anchor="start" x="765.7425" y="-333" font-family="Helvetica,sans-Serif" font-size="10.00" fill="#000000">+getNombreCompleto():Texto</text>
<text text-anchor="start" x="715.4615" y="-321" font-family="Helvetica,sans-Serif" font-size="10.00" fill="#000000">+registrarEstadistica(estadistica:RegistroEstadistica)</text>
<text text-anchor="start" x="752.681" y="-309" font-family="Helvetica,sans-Serif" font-size="10.00" fill="#000000">+comparar(participante:Participante</text>
<text text-anchor="start" x="765.0425" y="-297" font-family="Helvetica,sans-Serif" font-size="10.00" fill="#000000">estadistica:Estadistica):Entero</text>
<text text-anchor="start" x="679.0595" y="-285" font-family="Helvetica,sans-Serif" font-size="10.00" fill="#000000">+getEstadisticaParticipanteRegister():EstadisticaParticipanteRegister</text>
</g>
<!-- A0&#45;&gt;A2 -->
<g id="edge4" class="edge">
<title>A0&#45;&gt;A2</title>
<path fill="none" stroke="#000000" d="M372.2541,-333.2014C385.0143,-334.6086 397.6834,-335.8946 410,-337 491.6059,-344.3242 582.3665,-348.8753 658.703,-351.6784"/>
<polygon fill="none" stroke="#000000" points="371.9248,-333.1642 365.5136,-336.4653 360.0007,-331.8169 366.4119,-328.5158 371.9248,-333.1642"/>
<polygon fill="#000000" stroke="#000000" points="668.8957,-352.0455 658.7401,-356.1825 663.8989,-351.8655 658.9021,-351.6855 658.9021,-351.6855 658.9021,-351.6855 663.8989,-351.8655 659.0641,-347.1884 668.8957,-352.0455 668.8957,-352.0455"/>
<text text-anchor="middle" x="650.477" y="-356.84" font-family="Helvetica,sans-Serif" font-size="10.00" fill="#000000">participantes*</text>
<text text-anchor="middle" x="378.9612" y="-322.4531" font-family="Helvetica,sans-Serif" font-size="10.00" fill="#000000">1</text>
</g>
<!-- A7 -->
<g id="node8" class="node">
<title>A7</title>
<polygon fill="none" stroke="#000000" points="469.5,-122 469.5,-166 559.5,-166 559.5,-122 469.5,-122"/>
<text text-anchor="start" x="489.764" y="-147" font-family="Helvetica,sans-Serif" font-size="10.00" fill="#000000">&lt;&lt;Enum&gt;&gt;</text>
<text text-anchor="start" x="479.4965" y="-135" font-family="Helvetica,sans-Serif" font-size="10.00" fill="#000000">CaracterTorneo</text>
<polygon fill="none" stroke="#000000" points="469.5,-78 469.5,-122 559.5,-122 559.5,-78 469.5,-78"/>
<text text-anchor="start" x="486.445" y="-103" font-family="Helvetica,sans-Serif" font-size="10.00" fill="#000000">INDIVIDUAL</text>
<text text-anchor="start" x="493.943" y="-91" font-family="Helvetica,sans-Serif" font-size="10.00" fill="#000000">GRUPAL</text>
</g>
<!-- A0&#45;&gt;A7 -->
<g id="edge2" class="edge">
<title>A0&#45;&gt;A7</title>
<path fill="none" stroke="#000000" d="M360.0229,-202.3684C376.859,-193.0084 393.7113,-183.7628 410,-175 426.0986,-166.3395 443.7717,-157.2285 459.9301,-149.0503"/>
<polygon fill="#000000" stroke="#000000" points="469.2456,-144.3534 462.3424,-152.8738 464.781,-146.6045 460.3164,-148.8556 460.3164,-148.8556 460.3164,-148.8556 464.781,-146.6045 458.2904,-144.8375 469.2456,-144.3534 469.2456,-144.3534"/>
<text text-anchor="middle" x="456.8658" y="-157.0614" font-family="Helvetica,sans-Serif" font-size="10.00" fill="#000000">caracter1</text>
<text text-anchor="middle" x="371.7675" y="-183.18" font-family="Helvetica,sans-Serif" font-size="10.00" fill="#000000">*</text>
</g>
<!-- A10 -->
<g id="node11" class="node">
<title>A10</title>
<polygon fill="none" stroke="#000000" points="410.5,-296 410.5,-328 619.5,-328 619.5,-296 410.5,-296"/>
<text text-anchor="start" x="497.2185" y="-309" font-family="Helvetica,sans-Serif" font-size="10.00" fill="#000000">Reporte</text>
<polygon fill="none" stroke="#000000" points="410.5,-240 410.5,-296 619.5,-296 619.5,-240 410.5,-240"/>
<text text-anchor="start" x="487.4895" y="-277" font-family="Helvetica,sans-Serif" font-size="10.00" fill="#000000">fecha:Fecha</text>
<text text-anchor="start" x="458.042" y="-265" font-family="Helvetica,sans-Serif" font-size="10.00" fill="#000000">participanteA:Participante</text>
<text text-anchor="start" x="458.042" y="-253" font-family="Helvetica,sans-Serif" font-size="10.00" fill="#000000">participanteB:Participante</text>
<polygon fill="none" stroke="#000000" points="410.5,-184 410.5,-240 619.5,-240 619.5,-184 410.5,-184"/>
<text text-anchor="start" x="427.6225" y="-221" font-family="Helvetica,sans-Serif" font-size="10.00" fill="#000000">+Constructor(participanteA:Participante</text>
<text text-anchor="start" x="456.3775" y="-209" font-family="Helvetica,sans-Serif" font-size="10.00" fill="#000000">participanteB:Participante)</text>
<text text-anchor="start" x="420.406" y="-197" font-family="Helvetica,sans-Serif" font-size="10.00" fill="#000000">+getRegistros():RegistroReporte［*］</text>
</g>
<!-- A0&#45;&gt;A10 -->
<g id="edge1" class="edge">
<title>A0&#45;&gt;A10</title>
<path fill="none" stroke="#000000" stroke-dasharray="5,2" d="M360.4675,-279.0243C373.7373,-277.0408 386.8955,-275.0739 399.6051,-273.1741"/>
<polygon fill="#000000" stroke="#000000" points="409.6954,-271.6659 400.4705,-277.5948 404.7503,-272.4051 399.8052,-273.1443 399.8052,-273.1443 399.8052,-273.1443 404.7503,-272.4051 399.1399,-268.6937 409.6954,-271.6659 409.6954,-271.6659"/>
</g>
<!-- A4 -->
<g id="node5" class="node">
<title>A4</title>
<polygon fill="none" stroke="#000000" points="1071.5,-572 1071.5,-604 1248.5,-604 1248.5,-572 1071.5,-572"/>
<text text-anchor="start" x="1144.438" y="-585" font-family="Helvetica,sans-Serif" font-size="10.00" fill="#000000">Equipo</text>
<polygon fill="none" stroke="#000000" points="1071.5,-540 1071.5,-572 1248.5,-572 1248.5,-540 1071.5,-540"/>
<text text-anchor="start" x="1129.1605" y="-553" font-family="Helvetica,sans-Serif" font-size="10.00" fill="#000000">nombre:Texto</text>
<polygon fill="none" stroke="#000000" points="1071.5,-448 1071.5,-540 1248.5,-540 1248.5,-448 1071.5,-448"/>
<text text-anchor="start" x="1098.741" y="-521" font-family="Helvetica,sans-Serif" font-size="10.00" fill="#000000">+Constructor(nombre:Texto</text>
<text text-anchor="start" x="1107.485" y="-509" font-family="Helvetica,sans-Serif" font-size="10.00" fill="#000000">representante:Persona)</text>
<text text-anchor="start" x="1115.1335" y="-497" font-family="Helvetica,sans-Serif" font-size="10.00" fill="#000000">+getNombre():Texto</text>
<text text-anchor="start" x="1094.0075" y="-485" font-family="Helvetica,sans-Serif" font-size="10.00" fill="#000000">+getRepresentante():Persona</text>
<text text-anchor="start" x="1081.507" y="-473" font-family="Helvetica,sans-Serif" font-size="10.00" fill="#000000">+getJugadores():Jugador［*］</text>
<text text-anchor="start" x="1081.2355" y="-461" font-family="Helvetica,sans-Serif" font-size="10.00" fill="#000000">+registrarJugador(jugador:Jugador)</text>
</g>
<!-- A2&#45;&gt;A4 -->
<g id="edge9" class="edge">
<title>A2&#45;&gt;A4</title>
<path fill="none" stroke="#000000" d="M1002.6269,-444.6938C1026.2224,-456.9232 1049.6208,-469.0504 1070.8634,-480.0603"/>
<polygon fill="none" stroke="#000000" points="1004.0671,-441.4981 993.5782,-440.0039 1000.846,-447.713 1004.0671,-441.4981"/>
</g>
<!-- A6 -->
<g id="node7" class="node">
<title>A6</title>
<polygon fill="none" stroke="#000000" points="1517.5,-541 1517.5,-573 1694.5,-573 1694.5,-541 1517.5,-541"/>
<text text-anchor="start" x="1587.938" y="-554" font-family="Helvetica,sans-Serif" font-size="10.00" fill="#000000">Jugador</text>
<polygon fill="none" stroke="#000000" points="1517.5,-509 1517.5,-541 1694.5,-541 1694.5,-509 1517.5,-509"/>
<text text-anchor="start" x="1553.489" y="-522" font-family="Helvetica,sans-Serif" font-size="10.00" fill="#000000">fechaNacimiento:Fecha</text>
<polygon fill="none" stroke="#000000" points="1517.5,-405 1517.5,-509 1694.5,-509 1694.5,-405 1517.5,-405"/>
<text text-anchor="start" x="1544.741" y="-490" font-family="Helvetica,sans-Serif" font-size="10.00" fill="#000000">+Constructor(nombre:Texto</text>
<text text-anchor="start" x="1574.8815" y="-478" font-family="Helvetica,sans-Serif" font-size="10.00" fill="#000000">apellido:Texto</text>
<text text-anchor="start" x="1580.165" y="-466" font-family="Helvetica,sans-Serif" font-size="10.00" fill="#000000">email:Texto</text>
<text text-anchor="start" x="1577.3855" y="-454" font-family="Helvetica,sans-Serif" font-size="10.00" fill="#000000">celular:Texto</text>
<text text-anchor="start" x="1551.8245" y="-442" font-family="Helvetica,sans-Serif" font-size="10.00" fill="#000000">fechaNacimiento:Fecha)</text>
<text text-anchor="start" x="1538.627" y="-430" font-family="Helvetica,sans-Serif" font-size="10.00" fill="#000000">+getFechaNacimiento():Fecha</text>
<text text-anchor="start" x="1527.2295" y="-418" font-family="Helvetica,sans-Serif" font-size="10.00" fill="#000000">+calcularEdad(fecha:Fecha):Entero</text>
</g>
<!-- A2&#45;&gt;A6 -->
<g id="edge8" class="edge">
<title>A2&#45;&gt;A6</title>
<path fill="none" stroke="#000000" d="M1004.2609,-313.938C1136.5003,-290.5407 1320.4672,-277.439 1467,-341 1498.4771,-354.6537 1526.0674,-379.3751 1548.1658,-404.7532"/>
<polygon fill="none" stroke="#000000" points="1003.2506,-310.5638 994.0324,-315.7864 1004.4955,-317.4522 1003.2506,-310.5638"/>
</g>
<!-- A2JA8 -->
<!-- A2&#45;&gt;A2JA8 -->
<g id="edge10" class="edge">
<title>A2&#45;&gt;A2JA8</title>
<path fill="none" stroke="#000000" d="M986.2335,-271.8239C988.9365,-268.9608 991.531,-266.0198 994,-263 1038.7471,-208.2695 988.343,-155.5893 1044,-112 1082.6364,-81.7408 1152.5478,-100.9872 1159.0171,-102.858"/>
<text text-anchor="middle" x="992.4667" y="-249.82" font-family="Helvetica,sans-Serif" font-size="10.00" fill="#000000">*</text>
</g>
<!-- A3 -->
<g id="node4" class="node">
<title>A3</title>
<polygon fill="none" stroke="#000000" points="1744.5,-600 1744.5,-632 1997.5,-632 1997.5,-600 1744.5,-600"/>
<text text-anchor="start" x="1801.823" y="-613" font-family="Helvetica,sans-Serif" font-size="10.00" fill="#000000">EstadisticaParticipanteRegister</text>
<polygon fill="none" stroke="#000000" points="1744.5,-568 1744.5,-600 1997.5,-600 1997.5,-568 1744.5,-568"/>
<text text-anchor="start" x="1778.209" y="-581" font-family="Helvetica,sans-Serif" font-size="10.00" fill="#000000">estadisticas:RegistroEstadistica［*］</text>
<polygon fill="none" stroke="#000000" points="1744.5,-488 1744.5,-568 1997.5,-568 1997.5,-488 1744.5,-488"/>
<text text-anchor="start" x="1838.916" y="-549" font-family="Helvetica,sans-Serif" font-size="10.00" fill="#000000">+Constructor()</text>
<text text-anchor="start" x="1764.457" y="-537" font-family="Helvetica,sans-Serif" font-size="10.00" fill="#000000">+getEstadisticas():RegistroEstadistica［*］</text>
<text text-anchor="start" x="1754.4615" y="-525" font-family="Helvetica,sans-Serif" font-size="10.00" fill="#000000">+registrarEstadistica(estadistica:RegistroEstadistica)</text>
<text text-anchor="start" x="1791.681" y="-513" font-family="Helvetica,sans-Serif" font-size="10.00" fill="#000000">+comparar(participante:Participante</text>
<text text-anchor="start" x="1804.0425" y="-501" font-family="Helvetica,sans-Serif" font-size="10.00" fill="#000000">estadistica:Estadistica):Entero</text>
</g>
<!-- A4&#45;&gt;A3 -->
<g id="edge18" class="edge">
<title>A4&#45;&gt;A3</title>
<path fill="none" stroke="#000000" d="M1248.1933,-569.1786C1272.5209,-578.9919 1299.2898,-587.9932 1325,-593 1462.5212,-619.781 1622.8951,-604.6857 1733.9999,-587.1142"/>
<polygon fill="#000000" stroke="#000000" points="1743.923,-585.5175 1734.7649,-591.5491 1738.9865,-586.3119 1734.05,-587.1062 1734.05,-587.1062 1734.05,-587.1062 1738.9865,-586.3119 1733.3351,-582.6634 1743.923,-585.5175 1743.923,-585.5175"/>
</g>
<!-- A5 -->
<g id="node6" class="node">
<title>A5</title>
<polygon fill="none" stroke="#000000" points="1325,-534 1325,-566 1467,-566 1467,-534 1325,-534"/>
<text text-anchor="start" x="1377.383" y="-547" font-family="Helvetica,sans-Serif" font-size="10.00" fill="#000000">Persona</text>
<polygon fill="none" stroke="#000000" points="1325,-466 1325,-534 1467,-534 1467,-466 1325,-466"/>
<text text-anchor="start" x="1365.1605" y="-515" font-family="Helvetica,sans-Serif" font-size="10.00" fill="#000000">nombre:Texto</text>
<text text-anchor="start" x="1364.8815" y="-503" font-family="Helvetica,sans-Serif" font-size="10.00" fill="#000000">apellido:Texto</text>
<text text-anchor="start" x="1370.165" y="-491" font-family="Helvetica,sans-Serif" font-size="10.00" fill="#000000">email:Texto</text>
<text text-anchor="start" x="1367.3855" y="-479" font-family="Helvetica,sans-Serif" font-size="10.00" fill="#000000">celular:Texto</text>
<polygon fill="none" stroke="#000000" points="1325,-350 1325,-466 1467,-466 1467,-350 1325,-350"/>
<text text-anchor="start" x="1334.741" y="-447" font-family="Helvetica,sans-Serif" font-size="10.00" fill="#000000">+Constructor(nombre:Texto</text>
<text text-anchor="start" x="1364.8815" y="-435" font-family="Helvetica,sans-Serif" font-size="10.00" fill="#000000">apellido:Texto</text>
<text text-anchor="start" x="1370.165" y="-423" font-family="Helvetica,sans-Serif" font-size="10.00" fill="#000000">email:Texto</text>
<text text-anchor="start" x="1365.721" y="-411" font-family="Helvetica,sans-Serif" font-size="10.00" fill="#000000">celular:Texto)</text>
<text text-anchor="start" x="1351.1335" y="-399" font-family="Helvetica,sans-Serif" font-size="10.00" fill="#000000">+getNombre():Texto</text>
<text text-anchor="start" x="1351.1295" y="-387" font-family="Helvetica,sans-Serif" font-size="10.00" fill="#000000">+getApellido():Texto</text>
<text text-anchor="start" x="1356.413" y="-375" font-family="Helvetica,sans-Serif" font-size="10.00" fill="#000000">+getEmail():Texto</text>
<text text-anchor="start" x="1353.079" y="-363" font-family="Helvetica,sans-Serif" font-size="10.00" fill="#000000">+getCelular():Texto</text>
</g>
<!-- A4&#45;&gt;A5 -->
<g id="edge5" class="edge">
<title>A4&#45;&gt;A5</title>
<path fill="none" stroke="#000000" d="M1259.9142,-497.1283C1278.3423,-491.8297 1297.3618,-486.3611 1315.1269,-481.2532"/>
<polygon fill="none" stroke="#000000" points="1259.7695,-497.1698 1255.1085,-502.6721 1248.2367,-500.4858 1252.8978,-494.9836 1259.7695,-497.1698"/>
<polygon fill="#000000" stroke="#000000" points="1324.8556,-478.4559 1316.4885,-485.5441 1320.0503,-479.8376 1315.2449,-481.2193 1315.2449,-481.2193 1315.2449,-481.2193 1320.0503,-479.8376 1314.0014,-476.8945 1324.8556,-478.4559 1324.8556,-478.4559"/>
<text text-anchor="middle" x="1309.7709" y="-488.588" font-family="Helvetica,sans-Serif" font-size="10.00" fill="#000000">representante1</text>
<text text-anchor="middle" x="1263.3215" y="-484.3538" font-family="Helvetica,sans-Serif" font-size="10.00" fill="#000000">1</text>
</g>
<!-- A4&#45;&gt;A6 -->
<g id="edge7" class="edge">
<title>A4&#45;&gt;A6</title>
<path fill="none" stroke="#000000" d="M1259.7159,-563.6992C1320.4751,-581.2213 1399.1148,-594.3618 1467,-575 1480.8217,-571.0579 1494.6097,-565.2957 1507.8335,-558.5907"/>
<polygon fill="none" stroke="#000000" points="1259.6982,-563.694 1252.8053,-565.8123 1248.1988,-560.2642 1255.0917,-558.146 1259.6982,-563.694"/>
<polygon fill="#000000" stroke="#000000" points="1516.8918,-553.809 1510.1491,-562.4569 1512.47,-556.1432 1508.0483,-558.4774 1508.0483,-558.4774 1508.0483,-558.4774 1512.47,-556.1432 1505.9475,-554.4978 1516.8918,-553.809 1516.8918,-553.809"/>
<text text-anchor="middle" x="1504.8079" y="-566.7457" font-family="Helvetica,sans-Serif" font-size="10.00" fill="#000000">jugador*</text>
<text text-anchor="middle" x="1267.9846" y="-554.345" font-family="Helvetica,sans-Serif" font-size="10.00" fill="#000000">1</text>
</g>
<!-- A5&#45;&gt;A6 -->
<g id="edge6" class="edge">
<title>A5&#45;&gt;A6</title>
<path fill="none" stroke="#000000" d="M1477.4161,-470.0472C1490.2824,-471.9511 1503.6436,-473.9282 1516.6686,-475.8555"/>
<polygon fill="none" stroke="#000000" points="1477.6241,-466.54 1467.2195,-468.5384 1476.5994,-473.4646 1477.6241,-466.54"/>
</g>
<!-- A6&#45;&gt;A3 -->
<g id="edge17" class="edge">
<title>A6&#45;&gt;A3</title>
<path fill="none" stroke="#000000" d="M1694.1096,-512.7407C1706.9437,-516.1792 1720.3971,-519.7838 1733.9073,-523.4035"/>
<polygon fill="#000000" stroke="#000000" points="1743.7469,-526.0397 1732.9229,-527.7984 1738.9172,-524.7457 1734.0875,-523.4517 1734.0875,-523.4517 1734.0875,-523.4517 1738.9172,-524.7457 1735.2521,-519.105 1743.7469,-526.0397 1743.7469,-526.0397"/>
</g>
<!-- A8 -->
<g id="node9" class="node">
<title>A8</title>
<polygon fill="none" stroke="#000000" points="1325,-137 1325,-169 1467,-169 1467,-137 1325,-137"/>
<text text-anchor="start" x="1371.829" y="-150" font-family="Helvetica,sans-Serif" font-size="10.00" fill="#000000">Estadistica</text>
<polygon fill="none" stroke="#000000" points="1325,-105 1325,-137 1467,-137 1467,-105 1325,-105"/>
<text text-anchor="start" x="1365.1605" y="-118" font-family="Helvetica,sans-Serif" font-size="10.00" fill="#000000">nombre:Texto</text>
<polygon fill="none" stroke="#000000" points="1325,-37 1325,-105 1467,-105 1467,-37 1325,-37"/>
<text text-anchor="start" x="1334.741" y="-86" font-family="Helvetica,sans-Serif" font-size="10.00" fill="#000000">+Constructor(nombre:Texto</text>
<text text-anchor="start" x="1350.994" y="-74" font-family="Helvetica,sans-Serif" font-size="10.00" fill="#000000">tipo:TipoEstadistica)</text>
<text text-anchor="start" x="1351.1335" y="-62" font-family="Helvetica,sans-Serif" font-size="10.00" fill="#000000">+getNombre():Texto</text>
<text text-anchor="start" x="1337.7965" y="-50" font-family="Helvetica,sans-Serif" font-size="10.00" fill="#000000">+getTipo():TipoEstadistica</text>
</g>
<!-- A12 -->
<g id="node13" class="node">
<title>A12</title>
<polygon fill="none" stroke="#000000" points="1562.5,-109 1562.5,-153 1649.5,-153 1649.5,-109 1562.5,-109"/>
<text text-anchor="start" x="1581.264" y="-134" font-family="Helvetica,sans-Serif" font-size="10.00" fill="#000000">&lt;&lt;Enum&gt;&gt;</text>
<text text-anchor="start" x="1572.106" y="-122" font-family="Helvetica,sans-Serif" font-size="10.00" fill="#000000">TipoEstadistica</text>
<polygon fill="none" stroke="#000000" points="1562.5,-53 1562.5,-109 1649.5,-109 1649.5,-53 1562.5,-53"/>
<text text-anchor="start" x="1582.939" y="-90" font-family="Helvetica,sans-Serif" font-size="10.00" fill="#000000">POSITIVA</text>
<text text-anchor="start" x="1580.719" y="-78" font-family="Helvetica,sans-Serif" font-size="10.00" fill="#000000">NEGATIVA</text>
<text text-anchor="start" x="1585.448" y="-66" font-family="Helvetica,sans-Serif" font-size="10.00" fill="#000000">NEUTRA</text>
</g>
<!-- A8&#45;&gt;A12 -->
<g id="edge13" class="edge">
<title>A8&#45;&gt;A12</title>
<path fill="none" stroke="#000000" d="M1467.2195,-103C1494.8477,-103 1525.9549,-103 1551.6586,-103"/>
<polygon fill="#000000" stroke="#000000" points="1561.9518,-103 1551.9519,-107.5001 1556.9518,-103 1551.9518,-103.0001 1551.9518,-103.0001 1551.9518,-103.0001 1556.9518,-103 1551.9518,-98.5001 1561.9518,-103 1561.9518,-103"/>
<text text-anchor="middle" x="1543.8257" y="-108.4524" font-family="Helvetica,sans-Serif" font-size="10.00" fill="#000000">tipo1</text>
<text text-anchor="middle" x="1485.3456" y="-91.5476" font-family="Helvetica,sans-Serif" font-size="10.00" fill="#000000">*</text>
</g>
<!-- A9 -->
<g id="node10" class="node">
<title>A9</title>
<polygon fill="none" stroke="#000000" points="1044.5,-245 1044.5,-277 1275.5,-277 1275.5,-245 1044.5,-245"/>
<text text-anchor="start" x="1117.2175" y="-258" font-family="Helvetica,sans-Serif" font-size="10.00" fill="#000000">RegistroEstadistica</text>
<polygon fill="none" stroke="#000000" points="1044.5,-201 1044.5,-245 1275.5,-245 1275.5,-201 1044.5,-201"/>
<text text-anchor="start" x="1137.4995" y="-226" font-family="Helvetica,sans-Serif" font-size="10.00" fill="#000000">valor:Real</text>
<text text-anchor="start" x="1110.8235" y="-214" font-family="Helvetica,sans-Serif" font-size="10.00" fill="#000000">estadistica:Estadistica</text>
<polygon fill="none" stroke="#000000" points="1044.5,-121 1044.5,-201 1275.5,-201 1275.5,-121 1044.5,-121"/>
<text text-anchor="start" x="1107.08" y="-182" font-family="Helvetica,sans-Serif" font-size="10.00" fill="#000000">+Constructor(valor:Real</text>
<text text-anchor="start" x="1109.159" y="-170" font-family="Helvetica,sans-Serif" font-size="10.00" fill="#000000">estadistica:Estadistica)</text>
<text text-anchor="start" x="1123.468" y="-158" font-family="Helvetica,sans-Serif" font-size="10.00" fill="#000000">+getValor():Real</text>
<text text-anchor="start" x="1097.0715" y="-146" font-family="Helvetica,sans-Serif" font-size="10.00" fill="#000000">+getEstadistica():Estadistica</text>
<text text-anchor="start" x="1054.435" y="-134" font-family="Helvetica,sans-Serif" font-size="10.00" fill="#000000">compareTo(registro:RegistroEstadistica):Entero</text>
</g>
<!-- A9&#45;&gt;A2JA8 -->
<g id="edge12" class="edge">
<title>A9&#45;&gt;A2JA8</title>
<path fill="none" stroke="#000000" stroke-dasharray="5,2" d="M1159.5,-120.9312C1159.5,-118.4623 1159.5,-115.9935 1159.5,-113.5247"/>
<polygon fill="#000000" stroke="#000000" points="1159.5,-103.375 1164.0001,-113.375 1159.5,-108.375 1159.5001,-113.375 1159.5001,-113.375 1159.5001,-113.375 1159.5,-108.375 1155.0001,-113.375 1159.5,-103.375 1159.5,-103.375"/>
</g>
<!-- A10&#45;&gt;A2 -->
<g id="edge16" class="edge">
<title>A10&#45;&gt;A2</title>
<path fill="none" stroke="#000000" d="M630.9069,-292.7214C640.1801,-295.6467 649.6605,-298.6374 659.2082,-301.6493"/>
<polygon fill="none" stroke="#000000" points="630.6203,-292.6311 623.6948,-294.6407 619.1762,-289.0209 626.1016,-287.0113 630.6203,-292.6311"/>
<polygon fill="#000000" stroke="#000000" points="668.7732,-304.6666 657.8826,-305.9496 664.0048,-303.1624 659.2364,-301.6581 659.2364,-301.6581 659.2364,-301.6581 664.0048,-303.1624 660.5903,-297.3666 668.7732,-304.6666 668.7732,-304.6666"/>
<text text-anchor="middle" x="648.9439" y="-304.2743" font-family="Helvetica,sans-Serif" font-size="10.00" fill="#000000">2</text>
<text text-anchor="middle" x="639.0055" y="-283.4132" font-family="Helvetica,sans-Serif" font-size="10.00" fill="#000000">*</text>
</g>
<!-- A11 -->
<g id="node12" class="node">
<title>A11</title>
<polygon fill="none" stroke="#000000" points="694.5,-222 694.5,-254 969.5,-254 969.5,-222 694.5,-222"/>
<text text-anchor="start" x="795.607" y="-235" font-family="Helvetica,sans-Serif" font-size="10.00" fill="#000000">RegistroReporte</text>
<polygon fill="none" stroke="#000000" points="694.5,-178 694.5,-222 969.5,-222 969.5,-178 694.5,-178"/>
<text text-anchor="start" x="734.483" y="-203" font-family="Helvetica,sans-Serif" font-size="10.00" fill="#000000">estadisticaParticipanteA:RegistroEstadistica</text>
<text text-anchor="start" x="734.483" y="-191" font-family="Helvetica,sans-Serif" font-size="10.00" fill="#000000">estadisticaParticipanteB:RegistroEstadistica</text>
<polygon fill="none" stroke="#000000" points="694.5,-110 694.5,-178 969.5,-178 969.5,-110 694.5,-110"/>
<text text-anchor="start" x="704.0635" y="-159" font-family="Helvetica,sans-Serif" font-size="10.00" fill="#000000">+Constructor(estadisticaParticipanteA:RegistroEstadistica</text>
<text text-anchor="start" x="732.8185" y="-147" font-family="Helvetica,sans-Serif" font-size="10.00" fill="#000000">estadisticaParticipanteB:RegistroEstadistica)</text>
<text text-anchor="start" x="721.0105" y="-135" font-family="Helvetica,sans-Serif" font-size="10.00" fill="#000000">+getEstadisticaParticianteA():ResgistroEstadistica</text>
<text text-anchor="start" x="721.0105" y="-123" font-family="Helvetica,sans-Serif" font-size="10.00" fill="#000000">+getEstadisticaParticianteB():ResgistroEstadistica</text>
</g>
<!-- A10&#45;&gt;A11 -->
<g id="edge14" class="edge">
<title>A10&#45;&gt;A11</title>
<path fill="none" stroke="#000000" d="M631.0754,-228.7868C648.3093,-224.7637 666.2558,-220.5744 684.0168,-216.4283"/>
<polygon fill="none" stroke="#000000" points="630.862,-228.8366 625.9284,-234.0958 619.1762,-231.5645 624.1098,-226.3053 630.862,-228.8366"/>
<polygon fill="#000000" stroke="#000000" points="693.8593,-214.1306 685.1441,-220.7862 688.9902,-215.2673 684.1211,-216.404 684.1211,-216.404 684.1211,-216.404 688.9902,-215.2673 683.0981,-212.0218 693.8593,-214.1306 693.8593,-214.1306"/>
<text text-anchor="middle" x="678.1292" y="-223.4823" font-family="Helvetica,sans-Serif" font-size="10.00" fill="#000000">registros*</text>
<text text-anchor="middle" x="634.9063" y="-216.2129" font-family="Helvetica,sans-Serif" font-size="10.00" fill="#000000">1</text>
</g>
<!-- A11&#45;&gt;A9 -->
<g id="edge15" class="edge">
<title>A11&#45;&gt;A9</title>
<path fill="none" stroke="#000000" d="M981.1911,-189.7584C998.8126,-190.6717 1016.6561,-191.5965 1033.8995,-192.4902"/>
<polygon fill="none" stroke="#000000" points="981.1598,-189.7569 974.9608,-193.4409 969.1759,-189.1356 975.3749,-185.4516 981.1598,-189.7569"/>
<polygon fill="#000000" stroke="#000000" points="1043.9766,-193.0125 1033.7571,-196.9888 1038.9833,-192.7537 1033.99,-192.4948 1033.99,-192.4948 1033.99,-192.4948 1038.9833,-192.7537 1034.223,-188.0008 1043.9766,-193.0125 1043.9766,-193.0125"/>
<text text-anchor="middle" x="1025.4373" y="-197.5153" font-family="Helvetica,sans-Serif" font-size="10.00" fill="#000000">2</text>
<text text-anchor="middle" x="987.7152" y="-178.6328" font-family="Helvetica,sans-Serif" font-size="10.00" fill="#000000">*</text>
</g>
<!-- A2JA8&#45;&gt;A8 -->
<g id="edge11" class="edge">
<title>A2JA8&#45;&gt;A8</title>
<path fill="none" stroke="#000000" d="M1159.8837,-103C1166.1754,-103 1248.6021,-103 1314.3173,-103"/>
<polygon fill="#000000" stroke="#000000" points="1324.7064,-103 1314.7065,-107.5001 1319.7064,-103 1314.7064,-103.0001 1314.7064,-103.0001 1314.7064,-103.0001 1319.7064,-103 1314.7064,-98.5001 1324.7064,-103 1324.7064,-103"/>
<text text-anchor="middle" x="1306.5803" y="-108.4524" font-family="Helvetica,sans-Serif" font-size="10.00" fill="#000000">*</text>
</g>
</g>
</svg>
