<?xml version="1.0" encoding="UTF-8" standalone="no"?>
<!DOCTYPE svg PUBLIC "-//W3C//DTD SVG 1.1//EN"
 "http://www.w3.org/Graphics/SVG/1.1/DTD/svg11.dtd">
<!-- Generated by graphviz version 2.40.1 (20161225.0304)
 -->
<!-- Title: G Pages: 1 -->
<svg width="2245pt" height="569pt"
 viewBox="0.00 0.00 2244.57 569.00" xmlns="http://www.w3.org/2000/svg" xmlns:xlink="http://www.w3.org/1999/xlink">
<g id="graph0" class="graph" transform="scale(1 1) rotate(0) translate(4 565)">
<title>G</title>
<polygon fill="#ffffff" stroke="transparent" points="-4,4 -4,-565 2240.565,-565 2240.565,4 -4,4"/>
<!-- A0 -->
<g id="node1" class="node">
<title>A0</title>
<polygon fill="none" stroke="#000000" points=".5,-529 .5,-561 341.5,-561 341.5,-529 .5,-529"/>
<text text-anchor="start" x="155.163" y="-542" font-family="Helvetica,sans-Serif" font-size="10.00" fill="#000000">Torneo</text>
<polygon fill="none" stroke="#000000" points=".5,-425 .5,-529 341.5,-529 341.5,-425 .5,-425"/>
<text text-anchor="start" x="140.1605" y="-510" font-family="Helvetica,sans-Serif" font-size="10.00" fill="#000000">nombre:Texto</text>
<text text-anchor="start" x="131.822" y="-498" font-family="Helvetica,sans-Serif" font-size="10.00" fill="#000000">fechaInicio:Fecha</text>
<text text-anchor="start" x="102.6515" y="-486" font-family="Helvetica,sans-Serif" font-size="10.00" fill="#000000">fechaInicioInscripciones:Fecha</text>
<text text-anchor="start" x="100.712" y="-474" font-family="Helvetica,sans-Serif" font-size="10.00" fill="#000000">fechaCierreInscripciones:Fecha</text>
<text text-anchor="start" x="109.042" y="-462" font-family="Helvetica,sans-Serif" font-size="10.00" fill="#000000">numeroParticipantes:Entero</text>
<text text-anchor="start" x="131.5485" y="-450" font-family="Helvetica,sans-Serif" font-size="10.00" fill="#000000">limiteEdad:Entero</text>
<text text-anchor="start" x="120.1595" y="-438" font-family="Helvetica,sans-Serif" font-size="10.00" fill="#000000">valorInscripcion:Entero</text>
<polygon fill="none" stroke="#000000" points=".5,-105 .5,-425 341.5,-425 341.5,-105 .5,-105"/>
<text text-anchor="start" x="109.741" y="-406" font-family="Helvetica,sans-Serif" font-size="10.00" fill="#000000">+Constructor(nombre:Texto</text>
<text text-anchor="start" x="131.822" y="-394" font-family="Helvetica,sans-Serif" font-size="10.00" fill="#000000">fechaInicio:Fecha</text>
<text text-anchor="start" x="102.6515" y="-382" font-family="Helvetica,sans-Serif" font-size="10.00" fill="#000000">fechaInicioInscripciones:Fecha</text>
<text text-anchor="start" x="100.712" y="-370" font-family="Helvetica,sans-Serif" font-size="10.00" fill="#000000">fechaCierreInscripciones:Fecha</text>
<text text-anchor="start" x="109.042" y="-358" font-family="Helvetica,sans-Serif" font-size="10.00" fill="#000000">numeroParticipantes:Entero</text>
<text text-anchor="start" x="131.5485" y="-346" font-family="Helvetica,sans-Serif" font-size="10.00" fill="#000000">limiteEdad:Entero</text>
<text text-anchor="start" x="120.1595" y="-334" font-family="Helvetica,sans-Serif" font-size="10.00" fill="#000000">valorInscripcion:Entero</text>
<text text-anchor="start" x="120.1555" y="-322" font-family="Helvetica,sans-Serif" font-size="10.00" fill="#000000">tipoTorneo:TipoTorneo</text>
<text text-anchor="start" x="10.288" y="-310" font-family="Helvetica,sans-Serif" font-size="10.00" fill="#000000">caracter:CaracterTorneo)+registrarParticipante(participante:Participante)</text>
<text text-anchor="start" x="126.1335" y="-298" font-family="Helvetica,sans-Serif" font-size="10.00" fill="#000000">+getNombre():Texto</text>
<text text-anchor="start" x="116.96" y="-286" font-family="Helvetica,sans-Serif" font-size="10.00" fill="#000000">+getFechaInicio():Fecha</text>
<text text-anchor="start" x="87.7895" y="-274" font-family="Helvetica,sans-Serif" font-size="10.00" fill="#000000">+getFechaInicioInscripciones():Fecha</text>
<text text-anchor="start" x="85.85" y="-262" font-family="Helvetica,sans-Serif" font-size="10.00" fill="#000000">+getFechaCierreInscripciones():Fecha</text>
<text text-anchor="start" x="95.015" y="-250" font-family="Helvetica,sans-Serif" font-size="10.00" fill="#000000">+getNumeroParticipantes():Entero</text>
<text text-anchor="start" x="116.6815" y="-238" font-family="Helvetica,sans-Serif" font-size="10.00" fill="#000000">+getLimiteEdad():Entero</text>
<text text-anchor="start" x="106.128" y="-226" font-family="Helvetica,sans-Serif" font-size="10.00" fill="#000000">+getValorInscripcion():Entero</text>
<text text-anchor="start" x="105.2935" y="-214" font-family="Helvetica,sans-Serif" font-size="10.00" fill="#000000">+getTipoTorneo():TipoTorneo</text>
<text text-anchor="start" x="78.6215" y="-202" font-family="Helvetica,sans-Serif" font-size="10.00" fill="#000000">+getParticipantes():Participante［*］</text>
<text text-anchor="start" x="102.2435" y="-190" font-family="Helvetica,sans-Serif" font-size="10.00" fill="#000000">+getCaracter():CaracterTorneo</text>
<text text-anchor="start" x="93.344" y="-178" font-family="Helvetica,sans-Serif" font-size="10.00" fill="#000000">+setFechaInicio(fechaInicio:Fecha)</text>
<text text-anchor="start" x="35.003" y="-166" font-family="Helvetica,sans-Serif" font-size="10.00" fill="#000000">+setFechaInicioInscripciones(fechaInicioInscripciones:Fecha)</text>
<text text-anchor="start" x="31.124" y="-154" font-family="Helvetica,sans-Serif" font-size="10.00" fill="#000000">+setFechaCierreInscripciones(fechaCierreInscripciones:Fecha)</text>
<text text-anchor="start" x="67.65" y="-142" font-family="Helvetica,sans-Serif" font-size="10.00" fill="#000000">buscarParticipante(nombre:Texto):Participante</text>
<text text-anchor="start" x="58.8875" y="-130" font-family="Helvetica,sans-Serif" font-size="10.00" fill="#000000">+registrarJugador(equipo:Equipo,jugador:Jugador)</text>
<text text-anchor="start" x="44.4445" y="-118" font-family="Helvetica,sans-Serif" font-size="10.00" fill="#000000">+registrarJugador(nombreEquipo:Texto,jugador:Jugador)</text>
</g>
<!-- A1 -->
<g id="node2" class="node">
<title>A1</title>
<polygon fill="none" stroke="#000000" points="422.5,-516 422.5,-560 493.5,-560 493.5,-516 422.5,-516"/>
<text text-anchor="start" x="433.264" y="-541" font-family="Helvetica,sans-Serif" font-size="10.00" fill="#000000">&lt;&lt;Enum&gt;&gt;</text>
<text text-anchor="start" x="432.44" y="-529" font-family="Helvetica,sans-Serif" font-size="10.00" fill="#000000">TipoTorneo</text>
<polygon fill="none" stroke="#000000" points="422.5,-448 422.5,-516 493.5,-516 493.5,-448 422.5,-448"/>
<text text-anchor="start" x="441.6075" y="-497" font-family="Helvetica,sans-Serif" font-size="10.00" fill="#000000">LOCAL</text>
<text text-anchor="start" x="432.164" y="-485" font-family="Helvetica,sans-Serif" font-size="10.00" fill="#000000">REGIONAL</text>
<text text-anchor="start" x="432.444" y="-473" font-family="Helvetica,sans-Serif" font-size="10.00" fill="#000000">NACIONAL</text>
<text text-anchor="start" x="435.5035" y="-461" font-family="Helvetica,sans-Serif" font-size="10.00" fill="#000000">MUNDIAL</text>
</g>
<!-- A0&#45;&gt;A1 -->
<g id="edge3" class="edge">
<title>A0&#45;&gt;A1</title>
<path fill="none" stroke="#000000" d="M341.1799,-434.6943C367.8136,-450.5631 393.1507,-465.6595 413.338,-477.6875"/>
<polygon fill="#000000" stroke="#000000" points="421.9493,-482.8182 411.0552,-481.5655 417.654,-480.259 413.3586,-477.6997 413.3586,-477.6997 413.3586,-477.6997 417.654,-480.259 415.6619,-473.8338 421.9493,-482.8182 421.9493,-482.8182"/>
<text text-anchor="middle" x="402.0513" y="-477.8015" font-family="Helvetica,sans-Serif" font-size="10.00" fill="#000000">tipoTorneo1</text>
<text text-anchor="middle" x="361.0779" y="-433.711" font-family="Helvetica,sans-Serif" font-size="10.00" fill="#000000">*</text>
</g>
<!-- A4 -->
<g id="node5" class="node">
<title>A4</title>
<polygon fill="none" stroke="#000000" points="574,-276 574,-320 726,-320 726,-276 574,-276"/>
<text text-anchor="start" x="619.151" y="-301" font-family="Helvetica,sans-Serif" font-size="10.00" fill="#000000">&lt;&lt;interface&gt;&gt;</text>
<text text-anchor="start" x="623.6055" y="-289" font-family="Helvetica,sans-Serif" font-size="10.00" fill="#000000">Participante</text>
<polygon fill="none" stroke="#000000" points="574,-244 574,-276 726,-276 726,-244 574,-244"/>
<text text-anchor="start" x="583.7425" y="-257" font-family="Helvetica,sans-Serif" font-size="10.00" fill="#000000">+getNombreCompleto():Texto</text>
</g>
<!-- A0&#45;&gt;A4 -->
<g id="edge4" class="edge">
<title>A0&#45;&gt;A4</title>
<path fill="none" stroke="#000000" d="M352.7987,-237.9081C365.5133,-233.6058 378.3172,-229.8902 391,-227 448.6336,-213.8664 466.1361,-214.9213 524,-227 538.2378,-229.9721 552.8367,-234.6456 566.8181,-240.0422"/>
<polygon fill="none" stroke="#000000" points="352.4694,-238.0242 348.1423,-243.7928 341.1532,-242.0172 345.4803,-236.2486 352.4694,-238.0242"/>
<polygon fill="#000000" stroke="#000000" points="576.3868,-243.8817 565.4303,-244.334 571.7465,-242.0197 567.1061,-240.1577 567.1061,-240.1577 567.1061,-240.1577 571.7465,-242.0197 568.7819,-235.9813 576.3868,-243.8817 576.3868,-243.8817"/>
<text text-anchor="middle" x="556.4168" y="-241.9759" font-family="Helvetica,sans-Serif" font-size="10.00" fill="#000000">participantes*</text>
<text text-anchor="middle" x="355.434" y="-225.0151" font-family="Helvetica,sans-Serif" font-size="10.00" fill="#000000">1</text>
</g>
<!-- A8 -->
<g id="node9" class="node">
<title>A8</title>
<polygon fill="none" stroke="#000000" points="412.5,-280 412.5,-324 502.5,-324 502.5,-280 412.5,-280"/>
<text text-anchor="start" x="432.764" y="-305" font-family="Helvetica,sans-Serif" font-size="10.00" fill="#000000">&lt;&lt;Enum&gt;&gt;</text>
<text text-anchor="start" x="422.4965" y="-293" font-family="Helvetica,sans-Serif" font-size="10.00" fill="#000000">CaracterTorneo</text>
<polygon fill="none" stroke="#000000" points="412.5,-236 412.5,-280 502.5,-280 502.5,-236 412.5,-236"/>
<text text-anchor="start" x="429.445" y="-261" font-family="Helvetica,sans-Serif" font-size="10.00" fill="#000000">INDIVIDUAL</text>
<text text-anchor="start" x="436.943" y="-249" font-family="Helvetica,sans-Serif" font-size="10.00" fill="#000000">GRUPAL</text>
</g>
<!-- A0&#45;&gt;A8 -->
<g id="edge2" class="edge">
<title>A0&#45;&gt;A8</title>
<path fill="none" stroke="#000000" d="M341.1799,-301.4807C363.2186,-297.4108 384.3697,-293.5049 402.4497,-290.1661"/>
<polygon fill="#000000" stroke="#000000" points="412.443,-288.3206 403.4265,-294.5619 407.5261,-289.2287 402.6093,-290.1367 402.6093,-290.1367 402.6093,-290.1367 407.5261,-289.2287 401.792,-285.7115 412.443,-288.3206 412.443,-288.3206"/>
<text text-anchor="middle" x="396.1532" y="-296.9241" font-family="Helvetica,sans-Serif" font-size="10.00" fill="#000000">caracter1</text>
<text text-anchor="middle" x="357.4697" y="-286.8772" font-family="Helvetica,sans-Serif" font-size="10.00" fill="#000000">*</text>
</g>
<!-- A11 -->
<g id="node12" class="node">
<title>A11</title>
<polygon fill="none" stroke="#000000" points="391.5,-398 391.5,-430 524.5,-430 524.5,-398 391.5,-398"/>
<text text-anchor="start" x="440.2185" y="-411" font-family="Helvetica,sans-Serif" font-size="10.00" fill="#000000">Reporte</text>
<polygon fill="none" stroke="#000000" points="391.5,-342 391.5,-398 524.5,-398 524.5,-342 391.5,-342"/>
<text text-anchor="start" x="430.4895" y="-379" font-family="Helvetica,sans-Serif" font-size="10.00" fill="#000000">fecha:Fecha</text>
<text text-anchor="start" x="401.042" y="-367" font-family="Helvetica,sans-Serif" font-size="10.00" fill="#000000">participanteA:Participante</text>
<text text-anchor="start" x="401.042" y="-355" font-family="Helvetica,sans-Serif" font-size="10.00" fill="#000000">participanteB:Participante</text>
</g>
<!-- A0&#45;&gt;A11 -->
<g id="edge1" class="edge">
<title>A0&#45;&gt;A11</title>
<path fill="none" stroke="#000000" stroke-dasharray="5,2" d="M341.1799,-364.5193C354.9523,-367.0626 368.3781,-369.542 380.9244,-371.8589"/>
<polygon fill="#000000" stroke="#000000" points="390.7875,-373.6803 380.1366,-376.2894 385.8707,-372.7722 380.9538,-371.8642 380.9538,-371.8642 380.9538,-371.8642 385.8707,-372.7722 381.771,-367.439 390.7875,-373.6803 390.7875,-373.6803"/>
</g>
<!-- A2 -->
<g id="node3" class="node">
<title>A2</title>
<polygon fill="none" stroke="#000000" points="1559.3483,-263 1446.2167,-263 1446.2167,-227 1559.3483,-227 1559.3483,-263"/>
<text text-anchor="middle" x="1502.7825" y="-248" font-family="Helvetica,sans-Serif" font-size="10.00" fill="#000000">&lt;&lt;interface&gt;&gt;</text>
<text text-anchor="middle" x="1502.7825" y="-236" font-family="Helvetica,sans-Serif" font-size="10.00" fill="#000000">RegistroEstadistica</text>
</g>
<!-- A3 -->
<g id="node4" class="node">
<title>A3</title>
<polygon fill="none" stroke="#000000" points="1610.065,-290 1610.065,-322 1801.065,-322 1801.065,-290 1610.065,-290"/>
<text text-anchor="start" x="1653.3395" y="-303" font-family="Helvetica,sans-Serif" font-size="10.00" fill="#000000">RegistroEstadisticaImpl</text>
<polygon fill="none" stroke="#000000" points="1610.065,-258 1610.065,-290 1801.065,-290 1801.065,-258 1610.065,-258"/>
<text text-anchor="start" x="1619.718" y="-271" font-family="Helvetica,sans-Serif" font-size="10.00" fill="#000000">estadisticas:ValorEstadistica［*］</text>
</g>
<!-- A2&#45;&gt;A3 -->
<g id="edge18" class="edge">
<title>A2&#45;&gt;A3</title>
<path fill="none" stroke="#000000" d="M1569.4511,-259.8312C1582.2319,-262.6744 1595.8469,-265.7032 1609.3332,-268.7034"/>
<polygon fill="none" stroke="#000000" points="1569.9199,-256.35 1559.3984,-257.5948 1568.3998,-263.1829 1569.9199,-256.35"/>
</g>
<!-- A2&#45;&gt;A4 -->
<g id="edge17" class="edge">
<title>A2&#45;&gt;A4</title>
<path fill="none" stroke="#000000" d="M1436.043,-262.1603C1422.8394,-265.1199 1409.0337,-267.911 1396,-270 1123.4589,-313.683 1050.7983,-331.9381 776,-306 759.8161,-304.4724 742.6165,-301.8645 726.2964,-298.9166"/>
<polygon fill="none" stroke="#000000" points="1437.0373,-265.5231 1445.9999,-259.873 1435.4701,-258.7008 1437.0373,-265.5231"/>
</g>
<!-- A3JA9 -->
<!-- A3&#45;&gt;A3JA9 -->
<g id="edge10" class="edge">
<title>A3&#45;&gt;A3JA9</title>
<path fill="none" stroke="#000000" d="M1800.7287,-290.9356C1850.6256,-291.4236 1902.6227,-291.9321 1908.9274,-291.9938"/>
<text text-anchor="middle" x="1818.9367" y="-279.6609" font-family="Helvetica,sans-Serif" font-size="10.00" fill="#000000">*</text>
</g>
<!-- A5 -->
<g id="node6" class="node">
<title>A5</title>
<polygon fill="none" stroke="#000000" points="788.5,-124 788.5,-156 965.5,-156 965.5,-124 788.5,-124"/>
<text text-anchor="start" x="861.438" y="-137" font-family="Helvetica,sans-Serif" font-size="10.00" fill="#000000">Equipo</text>
<polygon fill="none" stroke="#000000" points="788.5,-92 788.5,-124 965.5,-124 965.5,-92 788.5,-92"/>
<text text-anchor="start" x="846.1605" y="-105" font-family="Helvetica,sans-Serif" font-size="10.00" fill="#000000">nombre:Texto</text>
<polygon fill="none" stroke="#000000" points="788.5,0 788.5,-92 965.5,-92 965.5,0 788.5,0"/>
<text text-anchor="start" x="815.741" y="-73" font-family="Helvetica,sans-Serif" font-size="10.00" fill="#000000">+Constructor(nombre:Texto</text>
<text text-anchor="start" x="824.485" y="-61" font-family="Helvetica,sans-Serif" font-size="10.00" fill="#000000">representante:Persona)</text>
<text text-anchor="start" x="832.1335" y="-49" font-family="Helvetica,sans-Serif" font-size="10.00" fill="#000000">+getNombre():Texto</text>
<text text-anchor="start" x="811.0075" y="-37" font-family="Helvetica,sans-Serif" font-size="10.00" fill="#000000">+getRepresentante():Persona</text>
<text text-anchor="start" x="798.507" y="-25" font-family="Helvetica,sans-Serif" font-size="10.00" fill="#000000">+getJugadores():Jugador［*］</text>
<text text-anchor="start" x="798.2355" y="-13" font-family="Helvetica,sans-Serif" font-size="10.00" fill="#000000">+registrarJugador(jugador:Jugador)</text>
</g>
<!-- A4&#45;&gt;A5 -->
<g id="edge9" class="edge">
<title>A4&#45;&gt;A5</title>
<path fill="none" stroke="#000000" d="M699.9379,-237.0228C726.3006,-213.2789 759.4074,-183.4609 789.8083,-156.0799"/>
<polygon fill="none" stroke="#000000" points="697.4254,-234.5754 692.3372,-243.8685 702.1101,-239.7768 697.4254,-234.5754"/>
</g>
<!-- A7 -->
<g id="node8" class="node">
<title>A7</title>
<polygon fill="none" stroke="#000000" points="1219.5,-229 1219.5,-261 1396.5,-261 1396.5,-229 1219.5,-229"/>
<text text-anchor="start" x="1289.938" y="-242" font-family="Helvetica,sans-Serif" font-size="10.00" fill="#000000">Jugador</text>
<polygon fill="none" stroke="#000000" points="1219.5,-197 1219.5,-229 1396.5,-229 1396.5,-197 1219.5,-197"/>
<text text-anchor="start" x="1255.489" y="-210" font-family="Helvetica,sans-Serif" font-size="10.00" fill="#000000">fechaNacimiento:Fecha</text>
<polygon fill="none" stroke="#000000" points="1219.5,-93 1219.5,-197 1396.5,-197 1396.5,-93 1219.5,-93"/>
<text text-anchor="start" x="1246.741" y="-178" font-family="Helvetica,sans-Serif" font-size="10.00" fill="#000000">+Constructor(nombre:Texto</text>
<text text-anchor="start" x="1276.8815" y="-166" font-family="Helvetica,sans-Serif" font-size="10.00" fill="#000000">apellido:Texto</text>
<text text-anchor="start" x="1282.165" y="-154" font-family="Helvetica,sans-Serif" font-size="10.00" fill="#000000">email:Texto</text>
<text text-anchor="start" x="1279.3855" y="-142" font-family="Helvetica,sans-Serif" font-size="10.00" fill="#000000">celular:Texto</text>
<text text-anchor="start" x="1253.8245" y="-130" font-family="Helvetica,sans-Serif" font-size="10.00" fill="#000000">fechaNacimiento:Fecha)</text>
<text text-anchor="start" x="1240.627" y="-118" font-family="Helvetica,sans-Serif" font-size="10.00" fill="#000000">+getFechaNacimiento():Fecha</text>
<text text-anchor="start" x="1229.2295" y="-106" font-family="Helvetica,sans-Serif" font-size="10.00" fill="#000000">+calcularEdad(fecha:Fecha):Entero</text>
</g>
<!-- A4&#45;&gt;A7 -->
<g id="edge8" class="edge">
<title>A4&#45;&gt;A7</title>
<path fill="none" stroke="#000000" d="M736.5658,-292.138C841.4465,-301.4256 1022.3179,-307.7533 1169,-263 1185.9197,-257.8377 1202.8331,-250.0701 1218.7347,-241.2769"/>
<polygon fill="none" stroke="#000000" points="736.6227,-288.6286 726.3452,-291.2021 735.9844,-295.5994 736.6227,-288.6286"/>
</g>
<!-- A5&#45;&gt;A2 -->
<g id="edge20" class="edge">
<title>A5&#45;&gt;A2</title>
<path fill="none" stroke="#000000" d="M965.0942,-30.536C984.9332,-22.0352 1006.2588,-14.4683 1027,-10 1088.6957,3.291 1106.6707,-.0971 1169,-10 1273.7998,-26.6507 1311.5336,-19.7686 1396,-84 1442.733,-119.5375 1475.4815,-181.7489 1491.5206,-217.5423"/>
<polygon fill="#000000" stroke="#000000" points="1495.5991,-226.8932 1487.4764,-219.5261 1493.6002,-222.3101 1491.6012,-217.7271 1491.6012,-217.7271 1491.6012,-217.7271 1493.6002,-222.3101 1495.7259,-215.928 1495.5991,-226.8932 1495.5991,-226.8932"/>
</g>
<!-- A6 -->
<g id="node7" class="node">
<title>A6</title>
<polygon fill="none" stroke="#000000" points="1027,-222 1027,-254 1169,-254 1169,-222 1027,-222"/>
<text text-anchor="start" x="1079.383" y="-235" font-family="Helvetica,sans-Serif" font-size="10.00" fill="#000000">Persona</text>
<polygon fill="none" stroke="#000000" points="1027,-154 1027,-222 1169,-222 1169,-154 1027,-154"/>
<text text-anchor="start" x="1067.1605" y="-203" font-family="Helvetica,sans-Serif" font-size="10.00" fill="#000000">nombre:Texto</text>
<text text-anchor="start" x="1066.8815" y="-191" font-family="Helvetica,sans-Serif" font-size="10.00" fill="#000000">apellido:Texto</text>
<text text-anchor="start" x="1072.165" y="-179" font-family="Helvetica,sans-Serif" font-size="10.00" fill="#000000">email:Texto</text>
<text text-anchor="start" x="1069.3855" y="-167" font-family="Helvetica,sans-Serif" font-size="10.00" fill="#000000">celular:Texto</text>
<polygon fill="none" stroke="#000000" points="1027,-38 1027,-154 1169,-154 1169,-38 1027,-38"/>
<text text-anchor="start" x="1036.741" y="-135" font-family="Helvetica,sans-Serif" font-size="10.00" fill="#000000">+Constructor(nombre:Texto</text>
<text text-anchor="start" x="1066.8815" y="-123" font-family="Helvetica,sans-Serif" font-size="10.00" fill="#000000">apellido:Texto</text>
<text text-anchor="start" x="1072.165" y="-111" font-family="Helvetica,sans-Serif" font-size="10.00" fill="#000000">email:Texto</text>
<text text-anchor="start" x="1067.721" y="-99" font-family="Helvetica,sans-Serif" font-size="10.00" fill="#000000">celular:Texto)</text>
<text text-anchor="start" x="1053.1335" y="-87" font-family="Helvetica,sans-Serif" font-size="10.00" fill="#000000">+getNombre():Texto</text>
<text text-anchor="start" x="1053.1295" y="-75" font-family="Helvetica,sans-Serif" font-size="10.00" fill="#000000">+getApellido():Texto</text>
<text text-anchor="start" x="1058.413" y="-63" font-family="Helvetica,sans-Serif" font-size="10.00" fill="#000000">+getEmail():Texto</text>
<text text-anchor="start" x="1055.079" y="-51" font-family="Helvetica,sans-Serif" font-size="10.00" fill="#000000">+getCelular():Texto</text>
</g>
<!-- A5&#45;&gt;A6 -->
<g id="edge5" class="edge">
<title>A5&#45;&gt;A6</title>
<path fill="none" stroke="#000000" d="M976.9157,-108.8274C990.3488,-112.9513 1003.9865,-117.1381 1017.0289,-121.1421"/>
<polygon fill="none" stroke="#000000" points="976.7878,-108.7882 969.8781,-110.8512 965.3163,-105.2664 972.226,-103.2034 976.7878,-108.7882"/>
<polygon fill="#000000" stroke="#000000" points="1026.8733,-124.1643 1015.993,-125.5312 1022.0935,-122.6968 1017.3136,-121.2294 1017.3136,-121.2294 1017.3136,-121.2294 1022.0935,-122.6968 1018.6343,-116.9276 1026.8733,-124.1643 1026.8733,-124.1643"/>
<text text-anchor="middle" x="1007.0647" y="-123.9248" font-family="Helvetica,sans-Serif" font-size="10.00" fill="#000000">representante1</text>
<text text-anchor="middle" x="985.1248" y="-99.5059" font-family="Helvetica,sans-Serif" font-size="10.00" fill="#000000">1</text>
</g>
<!-- A5&#45;&gt;A7 -->
<g id="edge7" class="edge">
<title>A5&#45;&gt;A7</title>
<path fill="none" stroke="#000000" d="M976.4908,-34.1267C1034.6443,-15.153 1108.22,-2.6357 1169,-29 1197.2802,-41.267 1222.423,-62.4677 1243.2644,-85.052"/>
<polygon fill="none" stroke="#000000" points="976.4385,-34.1443 972.0408,-39.8593 965.0741,-37.9979 969.4718,-32.283 976.4385,-34.1443"/>
<polygon fill="#000000" stroke="#000000" points="1250.1658,-92.7532 1240.1407,-88.3092 1246.8289,-89.0296 1243.492,-85.306 1243.492,-85.306 1243.492,-85.306 1246.8289,-89.0296 1246.8432,-82.3027 1250.1658,-92.7532 1250.1658,-92.7532"/>
<text text-anchor="middle" x="1231.7741" y="-81.8952" font-family="Helvetica,sans-Serif" font-size="10.00" fill="#000000">jugador*</text>
<text text-anchor="middle" x="979.526" y="-21.1725" font-family="Helvetica,sans-Serif" font-size="10.00" fill="#000000">1</text>
</g>
<!-- A6&#45;&gt;A7 -->
<g id="edge6" class="edge">
<title>A6&#45;&gt;A7</title>
<path fill="none" stroke="#000000" d="M1179.4161,-158.0472C1192.2824,-159.9511 1205.6436,-161.9282 1218.6686,-163.8555"/>
<polygon fill="none" stroke="#000000" points="1179.6241,-154.54 1169.2195,-156.5384 1178.5994,-161.4646 1179.6241,-154.54"/>
</g>
<!-- A7&#45;&gt;A2 -->
<g id="edge19" class="edge">
<title>A7&#45;&gt;A2</title>
<path fill="none" stroke="#000000" d="M1396.2843,-207.9159C1411.5109,-213.218 1427.0272,-218.621 1441.3356,-223.6034"/>
<polygon fill="#000000" stroke="#000000" points="1451.0301,-226.9791 1440.1064,-227.9403 1446.3081,-225.3348 1441.5862,-223.6906 1441.5862,-223.6906 1441.5862,-223.6906 1446.3081,-225.3348 1443.0661,-219.4408 1451.0301,-226.9791 1451.0301,-226.9791"/>
</g>
<!-- A9 -->
<g id="node10" class="node">
<title>A9</title>
<polygon fill="none" stroke="#000000" points="2019.065,-292 2019.065,-324 2100.065,-324 2100.065,-292 2019.065,-292"/>
<text text-anchor="start" x="2035.394" y="-305" font-family="Helvetica,sans-Serif" font-size="10.00" fill="#000000">Estadistica</text>
<polygon fill="none" stroke="#000000" points="2019.065,-260 2019.065,-292 2100.065,-292 2100.065,-260 2019.065,-260"/>
<text text-anchor="start" x="2028.7255" y="-273" font-family="Helvetica,sans-Serif" font-size="10.00" fill="#000000">nombre:Texto</text>
</g>
<!-- A13 -->
<g id="node14" class="node">
<title>A13</title>
<polygon fill="none" stroke="#000000" points="2150.065,-298 2150.065,-342 2237.065,-342 2237.065,-298 2150.065,-298"/>
<text text-anchor="start" x="2168.829" y="-323" font-family="Helvetica,sans-Serif" font-size="10.00" fill="#000000">&lt;&lt;Enum&gt;&gt;</text>
<text text-anchor="start" x="2159.671" y="-311" font-family="Helvetica,sans-Serif" font-size="10.00" fill="#000000">TipoEstadistica</text>
<polygon fill="none" stroke="#000000" points="2150.065,-242 2150.065,-298 2237.065,-298 2237.065,-242 2150.065,-242"/>
<text text-anchor="start" x="2170.504" y="-279" font-family="Helvetica,sans-Serif" font-size="10.00" fill="#000000">POSITIVA</text>
<text text-anchor="start" x="2168.284" y="-267" font-family="Helvetica,sans-Serif" font-size="10.00" fill="#000000">NEGATIVA</text>
<text text-anchor="start" x="2173.013" y="-255" font-family="Helvetica,sans-Serif" font-size="10.00" fill="#000000">NEUTRA</text>
</g>
<!-- A9&#45;&gt;A13 -->
<g id="edge13" class="edge">
<title>A9&#45;&gt;A13</title>
<path fill="none" stroke="#000000" d="M2099.6331,-292C2112.0326,-292 2125.8705,-292 2139.0168,-292"/>
<polygon fill="#000000" stroke="#000000" points="2149.3709,-292 2139.371,-296.5001 2144.3709,-292 2139.3709,-292.0001 2139.3709,-292.0001 2139.3709,-292.0001 2144.3709,-292 2139.3709,-287.5001 2149.3709,-292 2149.3709,-292"/>
<text text-anchor="middle" x="2131.2448" y="-297.4524" font-family="Helvetica,sans-Serif" font-size="10.00" fill="#000000">tipo1</text>
<text text-anchor="middle" x="2117.7592" y="-280.5476" font-family="Helvetica,sans-Serif" font-size="10.00" fill="#000000">*</text>
</g>
<!-- A10 -->
<g id="node11" class="node">
<title>A10</title>
<polygon fill="none" stroke="#000000" points="1850.565,-355 1850.565,-387 1968.565,-387 1968.565,-355 1850.565,-355"/>
<text text-anchor="start" x="1873.7265" y="-368" font-family="Helvetica,sans-Serif" font-size="10.00" fill="#000000">ValorEstadistica</text>
<polygon fill="none" stroke="#000000" points="1850.565,-311 1850.565,-355 1968.565,-355 1968.565,-311 1850.565,-311"/>
<text text-anchor="start" x="1887.0645" y="-336" font-family="Helvetica,sans-Serif" font-size="10.00" fill="#000000">valor:Real</text>
<text text-anchor="start" x="1860.3885" y="-324" font-family="Helvetica,sans-Serif" font-size="10.00" fill="#000000">estadistica:Estadistica</text>
</g>
<!-- A10&#45;&gt;A3JA9 -->
<g id="edge12" class="edge">
<title>A10&#45;&gt;A3JA9</title>
<path fill="none" stroke="#000000" stroke-dasharray="5,2" d="M1909.565,-310.5605C1909.565,-307.9187 1909.565,-305.2769 1909.565,-302.6351"/>
<polygon fill="#000000" stroke="#000000" points="1909.565,-292.4453 1914.0651,-302.4453 1909.565,-297.4453 1909.5651,-302.4453 1909.5651,-302.4453 1909.5651,-302.4453 1909.565,-297.4453 1905.0651,-302.4454 1909.565,-292.4453 1909.565,-292.4453"/>
</g>
<!-- A11&#45;&gt;A4 -->
<g id="edge16" class="edge">
<title>A11&#45;&gt;A4</title>
<path fill="none" stroke="#000000" d="M534.6772,-344.3042C546.4882,-337.9233 558.6983,-331.3266 570.5572,-324.9198"/>
<polygon fill="none" stroke="#000000" points="534.5749,-344.3595 531.1973,-350.7307 524.0171,-350.0635 527.3947,-343.6922 534.5749,-344.3595"/>
<polygon fill="#000000" stroke="#000000" points="579.5448,-320.0641 572.8857,-328.7766 575.1457,-322.4408 570.7467,-324.8174 570.7467,-324.8174 570.7467,-324.8174 575.1457,-322.4408 568.6077,-320.8583 579.5448,-320.0641 579.5448,-320.0641"/>
<text text-anchor="middle" x="567.6149" y="-333.1164" font-family="Helvetica,sans-Serif" font-size="10.00" fill="#000000">2</text>
<text text-anchor="middle" x="535.9471" y="-331.0112" font-family="Helvetica,sans-Serif" font-size="10.00" fill="#000000">*</text>
</g>
<!-- A12 -->
<g id="node13" class="node">
<title>A12</title>
<polygon fill="none" stroke="#000000" points="776.5,-392 776.5,-424 977.5,-424 977.5,-392 776.5,-392"/>
<text text-anchor="start" x="840.607" y="-405" font-family="Helvetica,sans-Serif" font-size="10.00" fill="#000000">RegistroReporte</text>
<polygon fill="none" stroke="#000000" points="776.5,-348 776.5,-392 977.5,-392 977.5,-348 776.5,-348"/>
<text text-anchor="start" x="786.427" y="-373" font-family="Helvetica,sans-Serif" font-size="10.00" fill="#000000">estadisticaParticipanteA:ValorEstadistica</text>
<text text-anchor="start" x="786.427" y="-361" font-family="Helvetica,sans-Serif" font-size="10.00" fill="#000000">estadisticaParticipanteB:ValorEstadistica</text>
</g>
<!-- A11&#45;&gt;A12 -->
<g id="edge14" class="edge">
<title>A11&#45;&gt;A12</title>
<path fill="none" stroke="#000000" d="M536.653,-386C601.4214,-386 693.7692,-386 765.8563,-386"/>
<polygon fill="none" stroke="#000000" points="536.3551,-386.0001 530.3551,-390 524.3551,-386 530.3551,-382 536.3551,-386.0001"/>
<polygon fill="#000000" stroke="#000000" points="775.8887,-386 765.8888,-390.5001 770.8887,-386 765.8887,-386.0001 765.8887,-386.0001 765.8887,-386.0001 770.8887,-386 765.8887,-381.5001 775.8887,-386 775.8887,-386"/>
<text text-anchor="middle" x="757.7626" y="-391.4524" font-family="Helvetica,sans-Serif" font-size="10.00" fill="#000000">registros*</text>
<text text-anchor="middle" x="542.4813" y="-374.5476" font-family="Helvetica,sans-Serif" font-size="10.00" fill="#000000">1</text>
</g>
<!-- A12&#45;&gt;A10 -->
<g id="edge15" class="edge">
<title>A12&#45;&gt;A10</title>
<path fill="none" stroke="#000000" d="M989.0758,-380.3424C1076.0202,-376.4578 1199.3521,-372 1307.5,-372 1307.5,-372 1307.5,-372 1502.7825,-372 1621.4912,-372 1759.3757,-362.1157 1840.2789,-355.3065"/>
<polygon fill="none" stroke="#000000" points="989.0422,-380.3439 983.2291,-384.611 977.0545,-380.8863 982.8675,-376.6191 989.0422,-380.3439"/>
<polygon fill="#000000" stroke="#000000" points="1850.3409,-354.4507 1840.7583,-359.782 1845.3589,-354.8745 1840.3769,-355.2982 1840.3769,-355.2982 1840.3769,-355.2982 1845.3589,-354.8745 1839.9955,-350.8144 1850.3409,-354.4507 1850.3409,-354.4507"/>
<text text-anchor="middle" x="1832.9963" y="-361.4088" font-family="Helvetica,sans-Serif" font-size="10.00" fill="#000000">2</text>
<text text-anchor="middle" x="994.7801" y="-368.6234" font-family="Helvetica,sans-Serif" font-size="10.00" fill="#000000">*</text>
</g>
<!-- A3JA9&#45;&gt;A9 -->
<g id="edge11" class="edge">
<title>A3JA9&#45;&gt;A9</title>
<path fill="none" stroke="#000000" d="M1909.9939,-292C1915.2199,-292 1967.1653,-292 2008.2863,-292"/>
<polygon fill="#000000" stroke="#000000" points="2018.4726,-292 2008.4726,-296.5001 2013.4726,-292 2008.4726,-292.0001 2008.4726,-292.0001 2008.4726,-292.0001 2013.4726,-292 2008.4726,-287.5001 2018.4726,-292 2018.4726,-292"/>
<text text-anchor="middle" x="2000.3464" y="-297.4524" font-family="Helvetica,sans-Serif" font-size="10.00" fill="#000000">*</text>
</g>
</g>
</svg>
