<?xml version="1.0" encoding="UTF-8" standalone="no"?>
<!DOCTYPE svg PUBLIC "-//W3C//DTD SVG 1.1//EN"
 "http://www.w3.org/Graphics/SVG/1.1/DTD/svg11.dtd">
<!-- Generated by graphviz version 2.40.1 (20161225.0304)
 -->
<!-- Title: G Pages: 1 -->
<svg width="1272pt" height="392pt"
 viewBox="0.00 0.00 1272.00 392.00" xmlns="http://www.w3.org/2000/svg" xmlns:xlink="http://www.w3.org/1999/xlink">
<g id="graph0" class="graph" transform="scale(1 1) rotate(0) translate(4 388)">
<title>G</title>
<polygon fill="#ffffff" stroke="transparent" points="-4,4 -4,-388 1268,-388 1268,4 -4,4"/>
<!-- A0 -->
<g id="node1" class="node">
<title>A0</title>
<polygon fill="none" stroke="#000000" points=".5,-352 .5,-384 341.5,-384 341.5,-352 .5,-352"/>
<text text-anchor="start" x="155.163" y="-365" font-family="Helvetica,sans-Serif" font-size="10.00" fill="#000000">Torneo</text>
<polygon fill="none" stroke="#000000" points=".5,-248 .5,-352 341.5,-352 341.5,-248 .5,-248"/>
<text text-anchor="start" x="140.1605" y="-333" font-family="Helvetica,sans-Serif" font-size="10.00" fill="#000000">nombre:Texto</text>
<text text-anchor="start" x="131.822" y="-321" font-family="Helvetica,sans-Serif" font-size="10.00" fill="#000000">fechaInicio:Fecha</text>
<text text-anchor="start" x="102.6515" y="-309" font-family="Helvetica,sans-Serif" font-size="10.00" fill="#000000">fechaInicioInscripciones:Fecha</text>
<text text-anchor="start" x="100.712" y="-297" font-family="Helvetica,sans-Serif" font-size="10.00" fill="#000000">fechaCierreInscripciones:Fecha</text>
<text text-anchor="start" x="109.042" y="-285" font-family="Helvetica,sans-Serif" font-size="10.00" fill="#000000">numeroParticipantes:Entero</text>
<text text-anchor="start" x="131.5485" y="-273" font-family="Helvetica,sans-Serif" font-size="10.00" fill="#000000">limiteEdad:Entero</text>
<text text-anchor="start" x="120.1595" y="-261" font-family="Helvetica,sans-Serif" font-size="10.00" fill="#000000">valorInscripcion:Entero</text>
<polygon fill="none" stroke="#000000" points=".5,0 .5,-248 341.5,-248 341.5,0 .5,0"/>
<text text-anchor="start" x="109.741" y="-229" font-family="Helvetica,sans-Serif" font-size="10.00" fill="#000000">+Constructor(nombre:Texto</text>
<text text-anchor="start" x="131.822" y="-217" font-family="Helvetica,sans-Serif" font-size="10.00" fill="#000000">fechaInicio:Fecha</text>
<text text-anchor="start" x="102.6515" y="-205" font-family="Helvetica,sans-Serif" font-size="10.00" fill="#000000">fechaInicioInscripciones:Fecha</text>
<text text-anchor="start" x="100.712" y="-193" font-family="Helvetica,sans-Serif" font-size="10.00" fill="#000000">fechaCierreInscripciones:Fecha</text>
<text text-anchor="start" x="109.042" y="-181" font-family="Helvetica,sans-Serif" font-size="10.00" fill="#000000">numeroParticipantes:Entero</text>
<text text-anchor="start" x="131.5485" y="-169" font-family="Helvetica,sans-Serif" font-size="10.00" fill="#000000">limiteEdad:Entero</text>
<text text-anchor="start" x="120.1595" y="-157" font-family="Helvetica,sans-Serif" font-size="10.00" fill="#000000">valorInscripcion:Entero</text>
<text text-anchor="start" x="120.1555" y="-145" font-family="Helvetica,sans-Serif" font-size="10.00" fill="#000000">tipoTorneo:TipoTorneo</text>
<text text-anchor="start" x="10.288" y="-133" font-family="Helvetica,sans-Serif" font-size="10.00" fill="#000000">caracter:CaracterTorneo)+registrarParticipante(participante:Participante)</text>
<text text-anchor="start" x="126.1335" y="-121" font-family="Helvetica,sans-Serif" font-size="10.00" fill="#000000">+getNombre():Texto</text>
<text text-anchor="start" x="116.96" y="-109" font-family="Helvetica,sans-Serif" font-size="10.00" fill="#000000">+getFechaInicio():Fecha</text>
<text text-anchor="start" x="87.7895" y="-97" font-family="Helvetica,sans-Serif" font-size="10.00" fill="#000000">+getFechaInicioInscripciones():Fecha</text>
<text text-anchor="start" x="85.85" y="-85" font-family="Helvetica,sans-Serif" font-size="10.00" fill="#000000">+getFechaCierreInscripciones():Fecha</text>
<text text-anchor="start" x="95.015" y="-73" font-family="Helvetica,sans-Serif" font-size="10.00" fill="#000000">+getNumeroParticipantes():Entero</text>
<text text-anchor="start" x="116.6815" y="-61" font-family="Helvetica,sans-Serif" font-size="10.00" fill="#000000">+getLimiteEdad():Entero</text>
<text text-anchor="start" x="106.128" y="-49" font-family="Helvetica,sans-Serif" font-size="10.00" fill="#000000">+getValorInscripcion():Entero</text>
<text text-anchor="start" x="105.2935" y="-37" font-family="Helvetica,sans-Serif" font-size="10.00" fill="#000000">+getTipoTorneo():TipoTorneo</text>
<text text-anchor="start" x="78.6215" y="-25" font-family="Helvetica,sans-Serif" font-size="10.00" fill="#000000">+getParticipantes():Participante［*］</text>
<text text-anchor="start" x="102.2435" y="-13" font-family="Helvetica,sans-Serif" font-size="10.00" fill="#000000">+getCaracter():CaracterTorneo</text>
</g>
<!-- A1 -->
<g id="node2" class="node">
<title>A1</title>
<polygon fill="none" stroke="#000000" points="422.5,-324 422.5,-368 493.5,-368 493.5,-324 422.5,-324"/>
<text text-anchor="start" x="433.264" y="-349" font-family="Helvetica,sans-Serif" font-size="10.00" fill="#000000">&lt;&lt;Enum&gt;&gt;</text>
<text text-anchor="start" x="432.44" y="-337" font-family="Helvetica,sans-Serif" font-size="10.00" fill="#000000">TipoTorneo</text>
<polygon fill="none" stroke="#000000" points="422.5,-256 422.5,-324 493.5,-324 493.5,-256 422.5,-256"/>
<text text-anchor="start" x="441.6075" y="-305" font-family="Helvetica,sans-Serif" font-size="10.00" fill="#000000">LOCAL</text>
<text text-anchor="start" x="432.164" y="-293" font-family="Helvetica,sans-Serif" font-size="10.00" fill="#000000">REGIONAL</text>
<text text-anchor="start" x="432.444" y="-281" font-family="Helvetica,sans-Serif" font-size="10.00" fill="#000000">NACIONAL</text>
<text text-anchor="start" x="435.5035" y="-269" font-family="Helvetica,sans-Serif" font-size="10.00" fill="#000000">MUNDIAL</text>
</g>
<!-- A0&#45;&gt;A1 -->
<g id="edge3" class="edge">
<title>A0&#45;&gt;A1</title>
<path fill="none" stroke="#000000" d="M341.1799,-263.3644C367.4553,-274.3506 392.4687,-284.8092 412.5205,-293.1932"/>
<polygon fill="#000000" stroke="#000000" points="421.9493,-297.1356 410.9874,-297.4297 417.3363,-295.2068 412.7233,-293.278 412.7233,-293.278 412.7233,-293.278 417.3363,-295.2068 414.4593,-289.1263 421.9493,-297.1356 421.9493,-297.1356"/>
<text text-anchor="middle" x="401.9656" y="-294.9415" font-family="Helvetica,sans-Serif" font-size="10.00" fill="#000000">tipoTorneo1</text>
<text text-anchor="middle" x="361.1636" y="-259.5585" font-family="Helvetica,sans-Serif" font-size="10.00" fill="#000000">*</text>
</g>
<!-- A2 -->
<g id="node3" class="node">
<title>A2</title>
<polygon fill="none" stroke="#000000" points="579.5,-222 579.5,-266 784.5,-266 784.5,-222 579.5,-222"/>
<text text-anchor="start" x="652.54" y="-247" font-family="Helvetica,sans-Serif" font-size="10.00" fill="#000000">&lt;&lt;abstract&gt;&gt;</text>
<text text-anchor="start" x="655.6055" y="-235" font-family="Helvetica,sans-Serif" font-size="10.00" fill="#000000">Participante</text>
<polygon fill="none" stroke="#000000" points="579.5,-190 579.5,-222 784.5,-222 784.5,-190 579.5,-190"/>
<text text-anchor="start" x="589.209" y="-203" font-family="Helvetica,sans-Serif" font-size="10.00" fill="#000000">estadisticas:RegistroEstadistica［*］</text>
</g>
<!-- A0&#45;&gt;A2 -->
<g id="edge4" class="edge">
<title>A0&#45;&gt;A2</title>
<path fill="none" stroke="#000000" d="M353.3555,-206.2624C366.0941,-207.2053 378.738,-208.1263 391,-209 449.61,-213.1759 514.8978,-217.4774 568.711,-220.9293"/>
<polygon fill="none" stroke="#000000" points="353.0897,-206.2427 346.8095,-209.7866 341.1227,-205.3525 347.4029,-201.8086 353.0897,-206.2427"/>
<polygon fill="#000000" stroke="#000000" points="578.9678,-221.5858 568.7007,-225.4377 573.978,-221.2664 568.9882,-220.9469 568.9882,-220.9469 568.9882,-220.9469 573.978,-221.2664 569.2757,-216.4561 578.9678,-221.5858 578.9678,-221.5858"/>
<text text-anchor="middle" x="560.3387" y="-225.863" font-family="Helvetica,sans-Serif" font-size="10.00" fill="#000000">participantes*</text>
<text text-anchor="middle" x="359.8259" y="-195.268" font-family="Helvetica,sans-Serif" font-size="10.00" fill="#000000">1</text>
</g>
<!-- A6 -->
<g id="node7" class="node">
<title>A6</title>
<polygon fill="none" stroke="#000000" points="412.5,-50 412.5,-94 502.5,-94 502.5,-50 412.5,-50"/>
<text text-anchor="start" x="432.764" y="-75" font-family="Helvetica,sans-Serif" font-size="10.00" fill="#000000">&lt;&lt;Enum&gt;&gt;</text>
<text text-anchor="start" x="422.4965" y="-63" font-family="Helvetica,sans-Serif" font-size="10.00" fill="#000000">CaracterTorneo</text>
<polygon fill="none" stroke="#000000" points="412.5,-6 412.5,-50 502.5,-50 502.5,-6 412.5,-6"/>
<text text-anchor="start" x="429.445" y="-31" font-family="Helvetica,sans-Serif" font-size="10.00" fill="#000000">INDIVIDUAL</text>
<text text-anchor="start" x="436.943" y="-19" font-family="Helvetica,sans-Serif" font-size="10.00" fill="#000000">GRUPAL</text>
</g>
<!-- A0&#45;&gt;A6 -->
<g id="edge2" class="edge">
<title>A0&#45;&gt;A6</title>
<path fill="none" stroke="#000000" d="M341.1799,-107.5521C363.6287,-96.445 385.1564,-85.7937 403.4556,-76.7397"/>
<polygon fill="#000000" stroke="#000000" points="412.443,-72.293 405.4756,-80.761 407.9615,-74.5104 403.48,-76.7277 403.48,-76.7277 403.48,-76.7277 407.9615,-74.5104 401.4844,-72.6944 412.443,-72.293 412.443,-72.293"/>
<text text-anchor="middle" x="399.9449" y="-84.9071" font-family="Helvetica,sans-Serif" font-size="10.00" fill="#000000">caracter1</text>
<text text-anchor="middle" x="353.6779" y="-88.9381" font-family="Helvetica,sans-Serif" font-size="10.00" fill="#000000">*</text>
</g>
<!-- A9 -->
<g id="node10" class="node">
<title>A9</title>
<polygon fill="none" stroke="#000000" points="391.5,-168 391.5,-200 524.5,-200 524.5,-168 391.5,-168"/>
<text text-anchor="start" x="440.2185" y="-181" font-family="Helvetica,sans-Serif" font-size="10.00" fill="#000000">Reporte</text>
<polygon fill="none" stroke="#000000" points="391.5,-112 391.5,-168 524.5,-168 524.5,-112 391.5,-112"/>
<text text-anchor="start" x="430.4895" y="-149" font-family="Helvetica,sans-Serif" font-size="10.00" fill="#000000">fecha:Fecha</text>
<text text-anchor="start" x="401.042" y="-137" font-family="Helvetica,sans-Serif" font-size="10.00" fill="#000000">participanteA:Participante</text>
<text text-anchor="start" x="401.042" y="-125" font-family="Helvetica,sans-Serif" font-size="10.00" fill="#000000">participanteB:Participante</text>
</g>
<!-- A0&#45;&gt;A9 -->
<g id="edge1" class="edge">
<title>A0&#45;&gt;A9</title>
<path fill="none" stroke="#000000" stroke-dasharray="5,2" d="M341.1799,-170.5907C354.816,-168.8802 368.1122,-167.2124 380.5515,-165.6521"/>
<polygon fill="#000000" stroke="#000000" points="390.7875,-164.3681 381.4254,-170.0778 385.8264,-164.9905 380.8653,-165.6128 380.8653,-165.6128 380.8653,-165.6128 385.8264,-164.9905 380.3052,-161.1478 390.7875,-164.3681 390.7875,-164.3681"/>
</g>
<!-- A3 -->
<g id="node4" class="node">
<title>A3</title>
<polygon fill="none" stroke="#000000" points="858,-226 858,-258 939,-258 939,-226 858,-226"/>
<text text-anchor="start" x="882.938" y="-239" font-family="Helvetica,sans-Serif" font-size="10.00" fill="#000000">Equipo</text>
<polygon fill="none" stroke="#000000" points="858,-194 858,-226 939,-226 939,-194 858,-194"/>
<text text-anchor="start" x="867.6605" y="-207" font-family="Helvetica,sans-Serif" font-size="10.00" fill="#000000">nombre:Texto</text>
</g>
<!-- A2&#45;&gt;A3 -->
<g id="edge9" class="edge">
<title>A2&#45;&gt;A3</title>
<path fill="none" stroke="#000000" d="M794.1122,-226.9597C816.7828,-226.7503 839.1978,-226.5432 857.3713,-226.3753"/>
<polygon fill="none" stroke="#000000" points="794.0111,-223.4604 784.0439,-227.0527 794.0758,-230.4601 794.0111,-223.4604"/>
</g>
<!-- A5 -->
<g id="node6" class="node">
<title>A5</title>
<polygon fill="none" stroke="#000000" points="1139.5,-226 1139.5,-258 1264.5,-258 1264.5,-226 1139.5,-226"/>
<text text-anchor="start" x="1183.938" y="-239" font-family="Helvetica,sans-Serif" font-size="10.00" fill="#000000">Jugador</text>
<polygon fill="none" stroke="#000000" points="1139.5,-194 1139.5,-226 1264.5,-226 1264.5,-194 1139.5,-194"/>
<text text-anchor="start" x="1149.489" y="-207" font-family="Helvetica,sans-Serif" font-size="10.00" fill="#000000">fechaNacimiento:Fecha</text>
</g>
<!-- A2&#45;&gt;A5 -->
<g id="edge8" class="edge">
<title>A2&#45;&gt;A5</title>
<path fill="none" stroke="#000000" d="M793.9855,-266.448C876.4777,-289.1709 990.7542,-309.1992 1089,-285 1111.1637,-279.5408 1133.7948,-268.852 1152.8925,-258.0545"/>
<polygon fill="none" stroke="#000000" points="794.9133,-263.0733 784.3394,-263.7389 793.0205,-269.8125 794.9133,-263.0733"/>
</g>
<!-- A2JA7 -->
<!-- A2&#45;&gt;A2JA7 -->
<g id="edge10" class="edge">
<title>A2&#45;&gt;A2JA7</title>
<path fill="none" stroke="#000000" d="M777.9931,-189.9619C781.8625,-187.16 785.5557,-184.1756 789,-181 823.5018,-149.1897 800.6549,-115.0541 839,-88 859.3194,-73.6638 893.3954,-78.2978 897.5755,-78.9331"/>
<text text-anchor="middle" x="787.6245" y="-169.4338" font-family="Helvetica,sans-Serif" font-size="10.00" fill="#000000">*</text>
</g>
<!-- A4 -->
<g id="node5" class="node">
<title>A4</title>
<polygon fill="none" stroke="#000000" points="1007,-244 1007,-276 1089,-276 1089,-244 1007,-244"/>
<text text-anchor="start" x="1029.383" y="-257" font-family="Helvetica,sans-Serif" font-size="10.00" fill="#000000">Persona</text>
<polygon fill="none" stroke="#000000" points="1007,-176 1007,-244 1089,-244 1089,-176 1007,-176"/>
<text text-anchor="start" x="1017.1605" y="-225" font-family="Helvetica,sans-Serif" font-size="10.00" fill="#000000">nombre:Texto</text>
<text text-anchor="start" x="1016.8815" y="-213" font-family="Helvetica,sans-Serif" font-size="10.00" fill="#000000">apellido:Texto</text>
<text text-anchor="start" x="1022.165" y="-201" font-family="Helvetica,sans-Serif" font-size="10.00" fill="#000000">email:Texto</text>
<text text-anchor="start" x="1019.3855" y="-189" font-family="Helvetica,sans-Serif" font-size="10.00" fill="#000000">celular:Texto</text>
</g>
<!-- A3&#45;&gt;A4 -->
<g id="edge5" class="edge">
<title>A3&#45;&gt;A4</title>
<path fill="none" stroke="#000000" d="M950.6673,-226C965.6407,-226 981.9208,-226 996.8053,-226"/>
<polygon fill="none" stroke="#000000" points="950.5922,-226.0001 944.5921,-230 938.5922,-226 944.5922,-222 950.5922,-226.0001"/>
<polygon fill="#000000" stroke="#000000" points="1006.8538,-226 996.8538,-230.5001 1001.8538,-226 996.8538,-226.0001 996.8538,-226.0001 996.8538,-226.0001 1001.8538,-226 996.8537,-221.5001 1006.8538,-226 1006.8538,-226"/>
<text text-anchor="middle" x="988.7276" y="-231.4524" font-family="Helvetica,sans-Serif" font-size="10.00" fill="#000000">representante1</text>
<text text-anchor="middle" x="956.7183" y="-214.5476" font-family="Helvetica,sans-Serif" font-size="10.00" fill="#000000">1</text>
</g>
<!-- A3&#45;&gt;A5 -->
<g id="edge7" class="edge">
<title>A3&#45;&gt;A5</title>
<path fill="none" stroke="#000000" d="M949.2384,-191.5021C966.7896,-181.5668 987.0484,-172.0533 1007,-167 1042.3289,-158.0519 1053.6132,-158.2838 1089,-167 1107.7006,-171.6062 1126.734,-179.9355 1143.6969,-188.9117"/>
<polygon fill="none" stroke="#000000" points="949.0313,-191.6238 945.8868,-198.1132 938.6872,-197.7066 941.8316,-191.2172 949.0313,-191.6238"/>
<polygon fill="#000000" stroke="#000000" points="1152.8925,-193.9455 1141.96,-193.091 1148.5067,-191.5446 1144.1208,-189.1437 1144.1208,-189.1437 1144.1208,-189.1437 1148.5067,-191.5446 1146.2816,-185.1964 1152.8925,-193.9455 1152.8925,-193.9455"/>
<text text-anchor="middle" x="1132.9341" y="-189.6559" font-family="Helvetica,sans-Serif" font-size="10.00" fill="#000000">jugador*</text>
<text text-anchor="middle" x="950.0276" y="-178.2326" font-family="Helvetica,sans-Serif" font-size="10.00" fill="#000000">1</text>
</g>
<!-- A4&#45;&gt;A5 -->
<g id="edge6" class="edge">
<title>A4&#45;&gt;A5</title>
<path fill="none" stroke="#000000" d="M1099.4712,-226C1112.1059,-226 1125.7694,-226 1138.865,-226"/>
<polygon fill="none" stroke="#000000" points="1099.1352,-222.5001 1089.1352,-226 1099.1351,-229.5001 1099.1352,-222.5001"/>
</g>
<!-- A7 -->
<g id="node8" class="node">
<title>A7</title>
<polygon fill="none" stroke="#000000" points="1008,-79 1008,-111 1089,-111 1089,-79 1008,-79"/>
<text text-anchor="start" x="1024.329" y="-92" font-family="Helvetica,sans-Serif" font-size="10.00" fill="#000000">Estadistica</text>
<polygon fill="none" stroke="#000000" points="1008,-47 1008,-79 1089,-79 1089,-47 1008,-47"/>
<text text-anchor="start" x="1017.6605" y="-60" font-family="Helvetica,sans-Serif" font-size="10.00" fill="#000000">nombre:Texto</text>
</g>
<!-- A11 -->
<g id="node12" class="node">
<title>A11</title>
<polygon fill="none" stroke="#000000" points="1158.5,-85 1158.5,-129 1245.5,-129 1245.5,-85 1158.5,-85"/>
<text text-anchor="start" x="1177.264" y="-110" font-family="Helvetica,sans-Serif" font-size="10.00" fill="#000000">&lt;&lt;Enum&gt;&gt;</text>
<text text-anchor="start" x="1168.106" y="-98" font-family="Helvetica,sans-Serif" font-size="10.00" fill="#000000">TipoEstadistica</text>
<polygon fill="none" stroke="#000000" points="1158.5,-29 1158.5,-85 1245.5,-85 1245.5,-29 1158.5,-29"/>
<text text-anchor="start" x="1178.939" y="-66" font-family="Helvetica,sans-Serif" font-size="10.00" fill="#000000">POSITIVA</text>
<text text-anchor="start" x="1176.719" y="-54" font-family="Helvetica,sans-Serif" font-size="10.00" fill="#000000">NEGATIVA</text>
<text text-anchor="start" x="1181.448" y="-42" font-family="Helvetica,sans-Serif" font-size="10.00" fill="#000000">NEUTRA</text>
</g>
<!-- A7&#45;&gt;A11 -->
<g id="edge13" class="edge">
<title>A7&#45;&gt;A11</title>
<path fill="none" stroke="#000000" d="M1088.7322,-79C1106.8012,-79 1128.3148,-79 1147.6829,-79"/>
<polygon fill="#000000" stroke="#000000" points="1157.8852,-79 1147.8852,-83.5001 1152.8852,-79 1147.8852,-79.0001 1147.8852,-79.0001 1147.8852,-79.0001 1152.8852,-79 1147.8852,-74.5001 1157.8852,-79 1157.8852,-79"/>
<text text-anchor="middle" x="1139.759" y="-84.4524" font-family="Helvetica,sans-Serif" font-size="10.00" fill="#000000">tipo1</text>
<text text-anchor="middle" x="1106.8583" y="-67.5476" font-family="Helvetica,sans-Serif" font-size="10.00" fill="#000000">*</text>
</g>
<!-- A8 -->
<g id="node9" class="node">
<title>A8</title>
<polygon fill="none" stroke="#000000" points="839,-141 839,-173 957,-173 957,-141 839,-141"/>
<text text-anchor="start" x="855.2175" y="-154" font-family="Helvetica,sans-Serif" font-size="10.00" fill="#000000">RegistroEstadistica</text>
<polygon fill="none" stroke="#000000" points="839,-97 839,-141 957,-141 957,-97 839,-97"/>
<text text-anchor="start" x="875.4995" y="-122" font-family="Helvetica,sans-Serif" font-size="10.00" fill="#000000">valor:Real</text>
<text text-anchor="start" x="848.8235" y="-110" font-family="Helvetica,sans-Serif" font-size="10.00" fill="#000000">estadistica:Estadistica</text>
</g>
<!-- A8&#45;&gt;A2JA7 -->
<g id="edge12" class="edge">
<title>A8&#45;&gt;A2JA7</title>
<path fill="none" stroke="#000000" stroke-dasharray="5,2" d="M898,-96.8008C898,-94.3591 898,-91.9174 898,-89.4756"/>
<polygon fill="#000000" stroke="#000000" points="898,-79.4375 902.5001,-89.4375 898,-84.4375 898.0001,-89.4375 898.0001,-89.4375 898.0001,-89.4375 898,-84.4375 893.5001,-89.4375 898,-79.4375 898,-79.4375"/>
</g>
<!-- A9&#45;&gt;A2 -->
<g id="edge16" class="edge">
<title>A9&#45;&gt;A2</title>
<path fill="none" stroke="#000000" d="M535.581,-181.0975C546.338,-184.5551 557.556,-188.1608 568.7835,-191.7697"/>
<polygon fill="none" stroke="#000000" points="535.5253,-181.0796 528.589,-183.0516 524.1009,-177.4074 531.0371,-175.4354 535.5253,-181.0796"/>
<polygon fill="#000000" stroke="#000000" points="578.6413,-194.9383 567.7439,-196.1622 573.8811,-193.4082 569.121,-191.8781 569.121,-191.8781 569.121,-191.8781 573.8811,-193.4082 570.4981,-187.594 578.6413,-194.9383 578.6413,-194.9383"/>
<text text-anchor="middle" x="558.7982" y="-194.4384" font-family="Helvetica,sans-Serif" font-size="10.00" fill="#000000">2</text>
<text text-anchor="middle" x="543.944" y="-171.9073" font-family="Helvetica,sans-Serif" font-size="10.00" fill="#000000">*</text>
</g>
<!-- A10 -->
<g id="node11" class="node">
<title>A10</title>
<polygon fill="none" stroke="#000000" points="574.5,-140 574.5,-172 789.5,-172 789.5,-140 574.5,-140"/>
<text text-anchor="start" x="645.607" y="-153" font-family="Helvetica,sans-Serif" font-size="10.00" fill="#000000">RegistroReporte</text>
<polygon fill="none" stroke="#000000" points="574.5,-96 574.5,-140 789.5,-140 789.5,-96 574.5,-96"/>
<text text-anchor="start" x="584.483" y="-121" font-family="Helvetica,sans-Serif" font-size="10.00" fill="#000000">estadisticaParticipanteA:RegistroEstadistica</text>
<text text-anchor="start" x="584.483" y="-109" font-family="Helvetica,sans-Serif" font-size="10.00" fill="#000000">estadisticaParticipanteB:RegistroEstadistica</text>
</g>
<!-- A9&#45;&gt;A10 -->
<g id="edge14" class="edge">
<title>A9&#45;&gt;A10</title>
<path fill="none" stroke="#000000" d="M536.0456,-148.2857C544.977,-147.4085 554.221,-146.5006 563.52,-145.5873"/>
<polygon fill="none" stroke="#000000" points="536.0434,-148.2858 530.4632,-152.8532 524.1009,-149.4588 529.6812,-144.8915 536.0434,-148.2858"/>
<polygon fill="#000000" stroke="#000000" points="573.62,-144.5954 564.1077,-150.0513 568.6439,-145.0841 563.6678,-145.5729 563.6678,-145.5729 563.6678,-145.5729 568.6439,-145.0841 563.228,-141.0944 573.62,-144.5954 573.62,-144.5954"/>
<text text-anchor="middle" x="556.4068" y="-151.779" font-family="Helvetica,sans-Serif" font-size="10.00" fill="#000000">registros*</text>
<text text-anchor="middle" x="541.3141" y="-136.2752" font-family="Helvetica,sans-Serif" font-size="10.00" fill="#000000">1</text>
</g>
<!-- A10&#45;&gt;A8 -->
<g id="edge15" class="edge">
<title>A10&#45;&gt;A8</title>
<path fill="none" stroke="#000000" d="M801.5093,-134.5543C810.7668,-134.5971 819.9082,-134.6393 828.6584,-134.6797"/>
<polygon fill="none" stroke="#000000" points="801.1156,-134.5526 795.0972,-138.5248 789.1157,-134.4971 795.1342,-130.5249 801.1156,-134.5526"/>
<polygon fill="#000000" stroke="#000000" points="838.7342,-134.7263 828.7135,-139.1799 833.7343,-134.7031 828.7343,-134.68 828.7343,-134.68 828.7343,-134.68 833.7343,-134.7031 828.7551,-130.18 838.7342,-134.7263 838.7342,-134.7263"/>
<text text-anchor="middle" x="820.5692" y="-140.0948" font-family="Helvetica,sans-Serif" font-size="10.00" fill="#000000">2</text>
<text text-anchor="middle" x="807.2807" y="-123.1285" font-family="Helvetica,sans-Serif" font-size="10.00" fill="#000000">*</text>
</g>
<!-- A2JA7&#45;&gt;A7 -->
<g id="edge11" class="edge">
<title>A2JA7&#45;&gt;A7</title>
<path fill="none" stroke="#000000" d="M898.4303,-79C903.6738,-79 955.7929,-79 997.0515,-79"/>
<polygon fill="#000000" stroke="#000000" points="1007.2718,-79 997.2719,-83.5001 1002.2718,-79 997.2718,-79.0001 997.2718,-79.0001 997.2718,-79.0001 1002.2718,-79 997.2718,-74.5001 1007.2718,-79 1007.2718,-79"/>
<text text-anchor="middle" x="989.1457" y="-84.4524" font-family="Helvetica,sans-Serif" font-size="10.00" fill="#000000">*</text>
</g>
</g>
</svg>
