<?xml version="1.0" encoding="UTF-8" standalone="no"?>
<!DOCTYPE svg PUBLIC "-//W3C//DTD SVG 1.1//EN"
 "http://www.w3.org/Graphics/SVG/1.1/DTD/svg11.dtd">
<!-- Generated by graphviz version 2.40.1 (20161225.0304)
 -->
<!-- Title: G Pages: 1 -->
<svg width="1443pt" height="464pt"
 viewBox="0.00 0.00 1443.00 464.00" xmlns="http://www.w3.org/2000/svg" xmlns:xlink="http://www.w3.org/1999/xlink">
<g id="graph0" class="graph" transform="scale(1 1) rotate(0) translate(4 460)">
<title>G</title>
<polygon fill="#ffffff" stroke="transparent" points="-4,4 -4,-460 1439,-460 1439,4 -4,4"/>
<!-- A0 -->
<g id="node1" class="node">
<title>A0</title>
<polygon fill="none" stroke="#000000" points=".5,-424 .5,-456 341.5,-456 341.5,-424 .5,-424"/>
<text text-anchor="start" x="155.163" y="-437" font-family="Helvetica,sans-Serif" font-size="10.00" fill="#000000">Torneo</text>
<polygon fill="none" stroke="#000000" points=".5,-320 .5,-424 341.5,-424 341.5,-320 .5,-320"/>
<text text-anchor="start" x="140.1605" y="-405" font-family="Helvetica,sans-Serif" font-size="10.00" fill="#000000">nombre:Texto</text>
<text text-anchor="start" x="131.822" y="-393" font-family="Helvetica,sans-Serif" font-size="10.00" fill="#000000">fechaInicio:Fecha</text>
<text text-anchor="start" x="102.6515" y="-381" font-family="Helvetica,sans-Serif" font-size="10.00" fill="#000000">fechaInicioInscripciones:Fecha</text>
<text text-anchor="start" x="100.712" y="-369" font-family="Helvetica,sans-Serif" font-size="10.00" fill="#000000">fechaCierreInscripciones:Fecha</text>
<text text-anchor="start" x="109.042" y="-357" font-family="Helvetica,sans-Serif" font-size="10.00" fill="#000000">numeroParticipantes:Entero</text>
<text text-anchor="start" x="131.5485" y="-345" font-family="Helvetica,sans-Serif" font-size="10.00" fill="#000000">limiteEdad:Entero</text>
<text text-anchor="start" x="120.1595" y="-333" font-family="Helvetica,sans-Serif" font-size="10.00" fill="#000000">valorInscripcion:Entero</text>
<polygon fill="none" stroke="#000000" points=".5,0 .5,-320 341.5,-320 341.5,0 .5,0"/>
<text text-anchor="start" x="109.741" y="-301" font-family="Helvetica,sans-Serif" font-size="10.00" fill="#000000">+Constructor(nombre:Texto</text>
<text text-anchor="start" x="131.822" y="-289" font-family="Helvetica,sans-Serif" font-size="10.00" fill="#000000">fechaInicio:Fecha</text>
<text text-anchor="start" x="102.6515" y="-277" font-family="Helvetica,sans-Serif" font-size="10.00" fill="#000000">fechaInicioInscripciones:Fecha</text>
<text text-anchor="start" x="100.712" y="-265" font-family="Helvetica,sans-Serif" font-size="10.00" fill="#000000">fechaCierreInscripciones:Fecha</text>
<text text-anchor="start" x="109.042" y="-253" font-family="Helvetica,sans-Serif" font-size="10.00" fill="#000000">numeroParticipantes:Entero</text>
<text text-anchor="start" x="131.5485" y="-241" font-family="Helvetica,sans-Serif" font-size="10.00" fill="#000000">limiteEdad:Entero</text>
<text text-anchor="start" x="120.1595" y="-229" font-family="Helvetica,sans-Serif" font-size="10.00" fill="#000000">valorInscripcion:Entero</text>
<text text-anchor="start" x="120.1555" y="-217" font-family="Helvetica,sans-Serif" font-size="10.00" fill="#000000">tipoTorneo:TipoTorneo</text>
<text text-anchor="start" x="10.288" y="-205" font-family="Helvetica,sans-Serif" font-size="10.00" fill="#000000">caracter:CaracterTorneo)+registrarParticipante(participante:Participante)</text>
<text text-anchor="start" x="126.1335" y="-193" font-family="Helvetica,sans-Serif" font-size="10.00" fill="#000000">+getNombre():Texto</text>
<text text-anchor="start" x="116.96" y="-181" font-family="Helvetica,sans-Serif" font-size="10.00" fill="#000000">+getFechaInicio():Fecha</text>
<text text-anchor="start" x="87.7895" y="-169" font-family="Helvetica,sans-Serif" font-size="10.00" fill="#000000">+getFechaInicioInscripciones():Fecha</text>
<text text-anchor="start" x="85.85" y="-157" font-family="Helvetica,sans-Serif" font-size="10.00" fill="#000000">+getFechaCierreInscripciones():Fecha</text>
<text text-anchor="start" x="95.015" y="-145" font-family="Helvetica,sans-Serif" font-size="10.00" fill="#000000">+getNumeroParticipantes():Entero</text>
<text text-anchor="start" x="116.6815" y="-133" font-family="Helvetica,sans-Serif" font-size="10.00" fill="#000000">+getLimiteEdad():Entero</text>
<text text-anchor="start" x="106.128" y="-121" font-family="Helvetica,sans-Serif" font-size="10.00" fill="#000000">+getValorInscripcion():Entero</text>
<text text-anchor="start" x="105.2935" y="-109" font-family="Helvetica,sans-Serif" font-size="10.00" fill="#000000">+getTipoTorneo():TipoTorneo</text>
<text text-anchor="start" x="78.6215" y="-97" font-family="Helvetica,sans-Serif" font-size="10.00" fill="#000000">+getParticipantes():Participante［*］</text>
<text text-anchor="start" x="102.2435" y="-85" font-family="Helvetica,sans-Serif" font-size="10.00" fill="#000000">+getCaracter():CaracterTorneo</text>
<text text-anchor="start" x="93.344" y="-73" font-family="Helvetica,sans-Serif" font-size="10.00" fill="#000000">+setFechaInicio(fechaInicio:Fecha)</text>
<text text-anchor="start" x="35.003" y="-61" font-family="Helvetica,sans-Serif" font-size="10.00" fill="#000000">+setFechaInicioInscripciones(fechaInicioInscripciones:Fecha)</text>
<text text-anchor="start" x="31.124" y="-49" font-family="Helvetica,sans-Serif" font-size="10.00" fill="#000000">+setFechaCierreInscripciones(fechaCierreInscripciones:Fecha)</text>
<text text-anchor="start" x="67.65" y="-37" font-family="Helvetica,sans-Serif" font-size="10.00" fill="#000000">buscarParticipante(nombre:Texto):Participante</text>
<text text-anchor="start" x="58.8875" y="-25" font-family="Helvetica,sans-Serif" font-size="10.00" fill="#000000">+registrarJugador(equipo:Equipo,jugador:Jugador)</text>
<text text-anchor="start" x="44.4445" y="-13" font-family="Helvetica,sans-Serif" font-size="10.00" fill="#000000">+registrarJugador(nombreEquipo:Texto,jugador:Jugador)</text>
</g>
<!-- A1 -->
<g id="node2" class="node">
<title>A1</title>
<polygon fill="none" stroke="#000000" points="422.5,-360 422.5,-404 493.5,-404 493.5,-360 422.5,-360"/>
<text text-anchor="start" x="433.264" y="-385" font-family="Helvetica,sans-Serif" font-size="10.00" fill="#000000">&lt;&lt;Enum&gt;&gt;</text>
<text text-anchor="start" x="432.44" y="-373" font-family="Helvetica,sans-Serif" font-size="10.00" fill="#000000">TipoTorneo</text>
<polygon fill="none" stroke="#000000" points="422.5,-292 422.5,-360 493.5,-360 493.5,-292 422.5,-292"/>
<text text-anchor="start" x="441.6075" y="-341" font-family="Helvetica,sans-Serif" font-size="10.00" fill="#000000">LOCAL</text>
<text text-anchor="start" x="432.164" y="-329" font-family="Helvetica,sans-Serif" font-size="10.00" fill="#000000">REGIONAL</text>
<text text-anchor="start" x="432.444" y="-317" font-family="Helvetica,sans-Serif" font-size="10.00" fill="#000000">NACIONAL</text>
<text text-anchor="start" x="435.5035" y="-305" font-family="Helvetica,sans-Serif" font-size="10.00" fill="#000000">MUNDIAL</text>
</g>
<!-- A0&#45;&gt;A1 -->
<g id="edge3" class="edge">
<title>A0&#45;&gt;A1</title>
<path fill="none" stroke="#000000" d="M341.1799,-299.3644C367.4553,-310.3506 392.4687,-320.8092 412.5205,-329.1932"/>
<polygon fill="#000000" stroke="#000000" points="421.9493,-333.1356 410.9874,-333.4297 417.3363,-331.2068 412.7233,-329.278 412.7233,-329.278 412.7233,-329.278 417.3363,-331.2068 414.4593,-325.1263 421.9493,-333.1356 421.9493,-333.1356"/>
<text text-anchor="middle" x="401.9656" y="-330.9415" font-family="Helvetica,sans-Serif" font-size="10.00" fill="#000000">tipoTorneo1</text>
<text text-anchor="middle" x="361.1636" y="-295.5585" font-family="Helvetica,sans-Serif" font-size="10.00" fill="#000000">*</text>
</g>
<!-- A2 -->
<g id="node3" class="node">
<title>A2</title>
<polygon fill="none" stroke="#000000" points="576.5,-280 576.5,-324 787.5,-324 787.5,-280 576.5,-280"/>
<text text-anchor="start" x="652.54" y="-305" font-family="Helvetica,sans-Serif" font-size="10.00" fill="#000000">&lt;&lt;abstract&gt;&gt;</text>
<text text-anchor="start" x="655.6055" y="-293" font-family="Helvetica,sans-Serif" font-size="10.00" fill="#000000">Participante</text>
<polygon fill="none" stroke="#000000" points="576.5,-248 576.5,-280 787.5,-280 787.5,-248 576.5,-248"/>
<text text-anchor="start" x="589.209" y="-261" font-family="Helvetica,sans-Serif" font-size="10.00" fill="#000000">estadisticas:RegistroEstadistica［*］</text>
<polygon fill="none" stroke="#000000" points="576.5,-204 576.5,-248 787.5,-248 787.5,-204 576.5,-204"/>
<text text-anchor="start" x="649.916" y="-229" font-family="Helvetica,sans-Serif" font-size="10.00" fill="#000000">+Constructor()</text>
<text text-anchor="start" x="586.2825" y="-217" font-family="Helvetica,sans-Serif" font-size="10.00" fill="#000000">+&lt;&lt;abstract&gt;&gt;getNombreCompleto():Texto</text>
</g>
<!-- A0&#45;&gt;A2 -->
<g id="edge4" class="edge">
<title>A0&#45;&gt;A2</title>
<path fill="none" stroke="#000000" d="M353.3555,-242.2624C366.0941,-243.2053 378.738,-244.1263 391,-245 448.5443,-249.1 512.526,-253.321 565.7645,-256.7402"/>
<polygon fill="none" stroke="#000000" points="353.0897,-242.2427 346.8095,-245.7866 341.1227,-241.3525 347.4029,-237.8086 353.0897,-242.2427"/>
<polygon fill="#000000" stroke="#000000" points="575.9195,-257.391 565.6521,-261.2421 570.9298,-257.0712 565.94,-256.7513 565.94,-256.7513 565.94,-256.7513 570.9298,-257.0712 566.2278,-252.2605 575.9195,-257.391 575.9195,-257.391"/>
<text text-anchor="middle" x="557.2899" y="-261.6667" font-family="Helvetica,sans-Serif" font-size="10.00" fill="#000000">participantes*</text>
<text text-anchor="middle" x="359.8259" y="-231.268" font-family="Helvetica,sans-Serif" font-size="10.00" fill="#000000">1</text>
</g>
<!-- A6 -->
<g id="node7" class="node">
<title>A6</title>
<polygon fill="none" stroke="#000000" points="412.5,-86 412.5,-130 502.5,-130 502.5,-86 412.5,-86"/>
<text text-anchor="start" x="432.764" y="-111" font-family="Helvetica,sans-Serif" font-size="10.00" fill="#000000">&lt;&lt;Enum&gt;&gt;</text>
<text text-anchor="start" x="422.4965" y="-99" font-family="Helvetica,sans-Serif" font-size="10.00" fill="#000000">CaracterTorneo</text>
<polygon fill="none" stroke="#000000" points="412.5,-42 412.5,-86 502.5,-86 502.5,-42 412.5,-42"/>
<text text-anchor="start" x="429.445" y="-67" font-family="Helvetica,sans-Serif" font-size="10.00" fill="#000000">INDIVIDUAL</text>
<text text-anchor="start" x="436.943" y="-55" font-family="Helvetica,sans-Serif" font-size="10.00" fill="#000000">GRUPAL</text>
</g>
<!-- A0&#45;&gt;A6 -->
<g id="edge2" class="edge">
<title>A0&#45;&gt;A6</title>
<path fill="none" stroke="#000000" d="M341.1799,-143.5521C363.6287,-132.445 385.1564,-121.7937 403.4556,-112.7397"/>
<polygon fill="#000000" stroke="#000000" points="412.443,-108.293 405.4756,-116.761 407.9615,-110.5104 403.48,-112.7277 403.48,-112.7277 403.48,-112.7277 407.9615,-110.5104 401.4844,-108.6944 412.443,-108.293 412.443,-108.293"/>
<text text-anchor="middle" x="399.9449" y="-120.9071" font-family="Helvetica,sans-Serif" font-size="10.00" fill="#000000">caracter1</text>
<text text-anchor="middle" x="353.6779" y="-124.9381" font-family="Helvetica,sans-Serif" font-size="10.00" fill="#000000">*</text>
</g>
<!-- A9 -->
<g id="node10" class="node">
<title>A9</title>
<polygon fill="none" stroke="#000000" points="391.5,-204 391.5,-236 524.5,-236 524.5,-204 391.5,-204"/>
<text text-anchor="start" x="440.2185" y="-217" font-family="Helvetica,sans-Serif" font-size="10.00" fill="#000000">Reporte</text>
<polygon fill="none" stroke="#000000" points="391.5,-148 391.5,-204 524.5,-204 524.5,-148 391.5,-148"/>
<text text-anchor="start" x="430.4895" y="-185" font-family="Helvetica,sans-Serif" font-size="10.00" fill="#000000">fecha:Fecha</text>
<text text-anchor="start" x="401.042" y="-173" font-family="Helvetica,sans-Serif" font-size="10.00" fill="#000000">participanteA:Participante</text>
<text text-anchor="start" x="401.042" y="-161" font-family="Helvetica,sans-Serif" font-size="10.00" fill="#000000">participanteB:Participante</text>
</g>
<!-- A0&#45;&gt;A9 -->
<g id="edge1" class="edge">
<title>A0&#45;&gt;A9</title>
<path fill="none" stroke="#000000" stroke-dasharray="5,2" d="M341.1799,-206.5907C354.816,-204.8802 368.1122,-203.2124 380.5515,-201.6521"/>
<polygon fill="#000000" stroke="#000000" points="390.7875,-200.3681 381.4254,-206.0778 385.8264,-200.9905 380.8653,-201.6128 380.8653,-201.6128 380.8653,-201.6128 385.8264,-200.9905 380.3052,-197.1478 390.7875,-200.3681 390.7875,-200.3681"/>
</g>
<!-- A3 -->
<g id="node4" class="node">
<title>A3</title>
<polygon fill="none" stroke="#000000" points="839.5,-315 839.5,-347 1016.5,-347 1016.5,-315 839.5,-315"/>
<text text-anchor="start" x="912.438" y="-328" font-family="Helvetica,sans-Serif" font-size="10.00" fill="#000000">Equipo</text>
<polygon fill="none" stroke="#000000" points="839.5,-283 839.5,-315 1016.5,-315 1016.5,-283 839.5,-283"/>
<text text-anchor="start" x="897.1605" y="-296" font-family="Helvetica,sans-Serif" font-size="10.00" fill="#000000">nombre:Texto</text>
<polygon fill="none" stroke="#000000" points="839.5,-191 839.5,-283 1016.5,-283 1016.5,-191 839.5,-191"/>
<text text-anchor="start" x="866.741" y="-264" font-family="Helvetica,sans-Serif" font-size="10.00" fill="#000000">+Constructor(nombre:Texto</text>
<text text-anchor="start" x="875.485" y="-252" font-family="Helvetica,sans-Serif" font-size="10.00" fill="#000000">representante:Persona)</text>
<text text-anchor="start" x="883.1335" y="-240" font-family="Helvetica,sans-Serif" font-size="10.00" fill="#000000">+getNombre():Texto</text>
<text text-anchor="start" x="862.0075" y="-228" font-family="Helvetica,sans-Serif" font-size="10.00" fill="#000000">+getRepresentante():Persona</text>
<text text-anchor="start" x="849.507" y="-216" font-family="Helvetica,sans-Serif" font-size="10.00" fill="#000000">+getJugadores():Jugador［*］</text>
<text text-anchor="start" x="849.2355" y="-204" font-family="Helvetica,sans-Serif" font-size="10.00" fill="#000000">+registrarJugador(jugador:Jugador)</text>
</g>
<!-- A2&#45;&gt;A3 -->
<g id="edge9" class="edge">
<title>A2&#45;&gt;A3</title>
<path fill="none" stroke="#000000" d="M797.368,-266.355C811.3019,-266.6383 825.3583,-266.9239 838.8187,-267.1975"/>
<polygon fill="none" stroke="#000000" points="797.3229,-262.8535 787.2538,-266.1495 797.1806,-269.8521 797.3229,-262.8535"/>
</g>
<!-- A5 -->
<g id="node6" class="node">
<title>A5</title>
<polygon fill="none" stroke="#000000" points="1258.5,-324 1258.5,-356 1435.5,-356 1435.5,-324 1258.5,-324"/>
<text text-anchor="start" x="1328.938" y="-337" font-family="Helvetica,sans-Serif" font-size="10.00" fill="#000000">Jugador</text>
<polygon fill="none" stroke="#000000" points="1258.5,-292 1258.5,-324 1435.5,-324 1435.5,-292 1258.5,-292"/>
<text text-anchor="start" x="1294.489" y="-305" font-family="Helvetica,sans-Serif" font-size="10.00" fill="#000000">fechaNacimiento:Fecha</text>
<polygon fill="none" stroke="#000000" points="1258.5,-188 1258.5,-292 1435.5,-292 1435.5,-188 1258.5,-188"/>
<text text-anchor="start" x="1285.741" y="-273" font-family="Helvetica,sans-Serif" font-size="10.00" fill="#000000">+Constructor(nombre:Texto</text>
<text text-anchor="start" x="1315.8815" y="-261" font-family="Helvetica,sans-Serif" font-size="10.00" fill="#000000">apellido:Texto</text>
<text text-anchor="start" x="1321.165" y="-249" font-family="Helvetica,sans-Serif" font-size="10.00" fill="#000000">email:Texto</text>
<text text-anchor="start" x="1318.3855" y="-237" font-family="Helvetica,sans-Serif" font-size="10.00" fill="#000000">celular:Texto</text>
<text text-anchor="start" x="1292.8245" y="-225" font-family="Helvetica,sans-Serif" font-size="10.00" fill="#000000">fechaNacimiento:Fecha)</text>
<text text-anchor="start" x="1279.627" y="-213" font-family="Helvetica,sans-Serif" font-size="10.00" fill="#000000">+getFechaNacimiento():Fecha</text>
<text text-anchor="start" x="1268.2295" y="-201" font-family="Helvetica,sans-Serif" font-size="10.00" fill="#000000">+calcularEdad(fecha:Fecha):Entero</text>
</g>
<!-- A2&#45;&gt;A5 -->
<g id="edge8" class="edge">
<title>A2&#45;&gt;A5</title>
<path fill="none" stroke="#000000" d="M779.9863,-329.1836C798.961,-339.5054 819.1308,-349.0494 839,-356 994.4192,-410.3688 1053.3689,-445.5716 1208,-389 1228.3966,-381.5379 1247.8598,-369.5987 1265.411,-356.1378"/>
<polygon fill="none" stroke="#000000" points="781.5083,-326.0253 771.067,-324.2282 778.1087,-332.1444 781.5083,-326.0253"/>
</g>
<!-- A2JA7 -->
<!-- A2&#45;&gt;A2JA7 -->
<g id="edge10" class="edge">
<title>A2&#45;&gt;A2JA7</title>
<path fill="none" stroke="#000000" d="M776.6069,-203.8489C780.9964,-199.7245 785.1629,-195.4363 789,-191 822.2887,-152.5124 797.2941,-117.1556 839,-88 869.3781,-66.7633 920.5805,-77.4353 926.8621,-78.8522"/>
<text text-anchor="middle" x="783.9443" y="-182.2434" font-family="Helvetica,sans-Serif" font-size="10.00" fill="#000000">*</text>
</g>
<!-- A4 -->
<g id="node5" class="node">
<title>A4</title>
<polygon fill="none" stroke="#000000" points="1066,-348 1066,-380 1208,-380 1208,-348 1066,-348"/>
<text text-anchor="start" x="1118.383" y="-361" font-family="Helvetica,sans-Serif" font-size="10.00" fill="#000000">Persona</text>
<polygon fill="none" stroke="#000000" points="1066,-280 1066,-348 1208,-348 1208,-280 1066,-280"/>
<text text-anchor="start" x="1106.1605" y="-329" font-family="Helvetica,sans-Serif" font-size="10.00" fill="#000000">nombre:Texto</text>
<text text-anchor="start" x="1105.8815" y="-317" font-family="Helvetica,sans-Serif" font-size="10.00" fill="#000000">apellido:Texto</text>
<text text-anchor="start" x="1111.165" y="-305" font-family="Helvetica,sans-Serif" font-size="10.00" fill="#000000">email:Texto</text>
<text text-anchor="start" x="1108.3855" y="-293" font-family="Helvetica,sans-Serif" font-size="10.00" fill="#000000">celular:Texto</text>
<polygon fill="none" stroke="#000000" points="1066,-164 1066,-280 1208,-280 1208,-164 1066,-164"/>
<text text-anchor="start" x="1075.741" y="-261" font-family="Helvetica,sans-Serif" font-size="10.00" fill="#000000">+Constructor(nombre:Texto</text>
<text text-anchor="start" x="1105.8815" y="-249" font-family="Helvetica,sans-Serif" font-size="10.00" fill="#000000">apellido:Texto</text>
<text text-anchor="start" x="1111.165" y="-237" font-family="Helvetica,sans-Serif" font-size="10.00" fill="#000000">email:Texto</text>
<text text-anchor="start" x="1106.721" y="-225" font-family="Helvetica,sans-Serif" font-size="10.00" fill="#000000">celular:Texto)</text>
<text text-anchor="start" x="1092.1335" y="-213" font-family="Helvetica,sans-Serif" font-size="10.00" fill="#000000">+getNombre():Texto</text>
<text text-anchor="start" x="1092.1295" y="-201" font-family="Helvetica,sans-Serif" font-size="10.00" fill="#000000">+getApellido():Texto</text>
<text text-anchor="start" x="1097.413" y="-189" font-family="Helvetica,sans-Serif" font-size="10.00" fill="#000000">+getEmail():Texto</text>
<text text-anchor="start" x="1094.079" y="-177" font-family="Helvetica,sans-Serif" font-size="10.00" fill="#000000">+getCelular():Texto</text>
</g>
<!-- A3&#45;&gt;A4 -->
<g id="edge5" class="edge">
<title>A3&#45;&gt;A4</title>
<path fill="none" stroke="#000000" d="M1028.2066,-270.4421C1037.4614,-270.5746 1046.7583,-270.7078 1055.8078,-270.8373"/>
<polygon fill="none" stroke="#000000" points="1028.042,-270.4398 1021.9853,-274.3535 1016.0432,-270.2679 1022.0999,-266.3543 1028.042,-270.4398"/>
<polygon fill="#000000" stroke="#000000" points="1065.9045,-270.9819 1055.841,-275.3382 1060.905,-270.9103 1055.9055,-270.8386 1055.9055,-270.8386 1055.9055,-270.8386 1060.905,-270.9103 1055.97,-266.3391 1065.9045,-270.9819 1065.9045,-270.9819"/>
<text text-anchor="middle" x="1047.6591" y="-276.1739" font-family="Helvetica,sans-Serif" font-size="10.00" fill="#000000">representante1</text>
<text text-anchor="middle" x="1034.2885" y="-259.076" font-family="Helvetica,sans-Serif" font-size="10.00" fill="#000000">1</text>
</g>
<!-- A3&#45;&gt;A5 -->
<g id="edge7" class="edge">
<title>A3&#45;&gt;A5</title>
<path fill="none" stroke="#000000" d="M1022.5431,-183.1601C1039.6304,-169.6252 1055.3642,-158.8142 1066,-155 1125.4065,-133.6955 1148.7308,-133.3164 1208,-155 1225.2096,-161.2961 1241.7548,-170.7796 1257.0475,-181.6751"/>
<polygon fill="none" stroke="#000000" points="1022.2644,-183.3856 1020.1152,-190.269 1012.9347,-190.9326 1015.0838,-184.0492 1022.2644,-183.3856"/>
<polygon fill="#000000" stroke="#000000" points="1265.411,-187.8622 1254.6954,-185.5326 1261.3913,-184.8885 1257.3717,-181.9149 1257.3717,-181.9149 1257.3717,-181.9149 1261.3913,-184.8885 1260.048,-178.2972 1265.411,-187.8622 1265.411,-187.8622"/>
<text text-anchor="middle" x="1245.812" y="-180.8772" font-family="Helvetica,sans-Serif" font-size="10.00" fill="#000000">jugador*</text>
<text text-anchor="middle" x="1021.7114" y="-169.9613" font-family="Helvetica,sans-Serif" font-size="10.00" fill="#000000">1</text>
</g>
<!-- A4&#45;&gt;A5 -->
<g id="edge6" class="edge">
<title>A4&#45;&gt;A5</title>
<path fill="none" stroke="#000000" d="M1218.4161,-272C1231.2824,-272 1244.6436,-272 1257.6686,-272"/>
<polygon fill="none" stroke="#000000" points="1218.2195,-268.5001 1208.2195,-272 1218.2194,-275.5001 1218.2195,-268.5001"/>
</g>
<!-- A7 -->
<g id="node8" class="node">
<title>A7</title>
<polygon fill="none" stroke="#000000" points="1097,-76 1097,-108 1178,-108 1178,-76 1097,-76"/>
<text text-anchor="start" x="1113.329" y="-89" font-family="Helvetica,sans-Serif" font-size="10.00" fill="#000000">Estadistica</text>
<polygon fill="none" stroke="#000000" points="1097,-44 1097,-76 1178,-76 1178,-44 1097,-44"/>
<text text-anchor="start" x="1106.6605" y="-57" font-family="Helvetica,sans-Serif" font-size="10.00" fill="#000000">nombre:Texto</text>
</g>
<!-- A11 -->
<g id="node12" class="node">
<title>A11</title>
<polygon fill="none" stroke="#000000" points="1303.5,-82 1303.5,-126 1390.5,-126 1390.5,-82 1303.5,-82"/>
<text text-anchor="start" x="1322.264" y="-107" font-family="Helvetica,sans-Serif" font-size="10.00" fill="#000000">&lt;&lt;Enum&gt;&gt;</text>
<text text-anchor="start" x="1313.106" y="-95" font-family="Helvetica,sans-Serif" font-size="10.00" fill="#000000">TipoEstadistica</text>
<polygon fill="none" stroke="#000000" points="1303.5,-26 1303.5,-82 1390.5,-82 1390.5,-26 1303.5,-26"/>
<text text-anchor="start" x="1323.939" y="-63" font-family="Helvetica,sans-Serif" font-size="10.00" fill="#000000">POSITIVA</text>
<text text-anchor="start" x="1321.719" y="-51" font-family="Helvetica,sans-Serif" font-size="10.00" fill="#000000">NEGATIVA</text>
<text text-anchor="start" x="1326.448" y="-39" font-family="Helvetica,sans-Serif" font-size="10.00" fill="#000000">NEUTRA</text>
</g>
<!-- A7&#45;&gt;A11 -->
<g id="edge13" class="edge">
<title>A7&#45;&gt;A11</title>
<path fill="none" stroke="#000000" d="M1177.891,-76C1210.6219,-76 1256.8041,-76 1292.5616,-76"/>
<polygon fill="#000000" stroke="#000000" points="1302.823,-76 1292.8231,-80.5001 1297.823,-76 1292.823,-76.0001 1292.823,-76.0001 1292.823,-76.0001 1297.823,-76 1292.823,-71.5001 1302.823,-76 1302.823,-76"/>
<text text-anchor="middle" x="1284.6969" y="-81.4524" font-family="Helvetica,sans-Serif" font-size="10.00" fill="#000000">tipo1</text>
<text text-anchor="middle" x="1196.0172" y="-64.5476" font-family="Helvetica,sans-Serif" font-size="10.00" fill="#000000">*</text>
</g>
<!-- A8 -->
<g id="node9" class="node">
<title>A8</title>
<polygon fill="none" stroke="#000000" points="868.5,-141 868.5,-173 986.5,-173 986.5,-141 868.5,-141"/>
<text text-anchor="start" x="884.7175" y="-154" font-family="Helvetica,sans-Serif" font-size="10.00" fill="#000000">RegistroEstadistica</text>
<polygon fill="none" stroke="#000000" points="868.5,-97 868.5,-141 986.5,-141 986.5,-97 868.5,-97"/>
<text text-anchor="start" x="904.9995" y="-122" font-family="Helvetica,sans-Serif" font-size="10.00" fill="#000000">valor:Real</text>
<text text-anchor="start" x="878.3235" y="-110" font-family="Helvetica,sans-Serif" font-size="10.00" fill="#000000">estadistica:Estadistica</text>
</g>
<!-- A8&#45;&gt;A2JA7 -->
<g id="edge12" class="edge">
<title>A8&#45;&gt;A2JA7</title>
<path fill="none" stroke="#000000" stroke-dasharray="5,2" d="M927.5,-96.8008C927.5,-94.3591 927.5,-91.9174 927.5,-89.4756"/>
<polygon fill="#000000" stroke="#000000" points="927.5,-79.4375 932.0001,-89.4375 927.5,-84.4375 927.5001,-89.4375 927.5001,-89.4375 927.5001,-89.4375 927.5,-84.4375 923.0001,-89.4375 927.5,-79.4375 927.5,-79.4375"/>
</g>
<!-- A9&#45;&gt;A2 -->
<g id="edge16" class="edge">
<title>A9&#45;&gt;A2</title>
<path fill="none" stroke="#000000" d="M535.7567,-217.154C545.5466,-220.3007 555.7158,-223.5694 565.9247,-226.8508"/>
<polygon fill="none" stroke="#000000" points="535.5253,-217.0796 528.589,-219.0516 524.1009,-213.4074 531.0371,-211.4354 535.5253,-217.0796"/>
<polygon fill="#000000" stroke="#000000" points="575.7136,-229.9972 564.8162,-231.2212 570.9534,-228.4671 566.1933,-226.9371 566.1933,-226.9371 566.1933,-226.9371 570.9534,-228.4671 567.5704,-222.6529 575.7136,-229.9972 575.7136,-229.9972"/>
<text text-anchor="middle" x="555.8705" y="-229.4973" font-family="Helvetica,sans-Serif" font-size="10.00" fill="#000000">2</text>
<text text-anchor="middle" x="543.944" y="-207.9073" font-family="Helvetica,sans-Serif" font-size="10.00" fill="#000000">*</text>
</g>
<!-- A10 -->
<g id="node11" class="node">
<title>A10</title>
<polygon fill="none" stroke="#000000" points="574.5,-150 574.5,-182 789.5,-182 789.5,-150 574.5,-150"/>
<text text-anchor="start" x="645.607" y="-163" font-family="Helvetica,sans-Serif" font-size="10.00" fill="#000000">RegistroReporte</text>
<polygon fill="none" stroke="#000000" points="574.5,-106 574.5,-150 789.5,-150 789.5,-106 574.5,-106"/>
<text text-anchor="start" x="584.483" y="-131" font-family="Helvetica,sans-Serif" font-size="10.00" fill="#000000">estadisticaParticipanteA:RegistroEstadistica</text>
<text text-anchor="start" x="584.483" y="-119" font-family="Helvetica,sans-Serif" font-size="10.00" fill="#000000">estadisticaParticipanteB:RegistroEstadistica</text>
</g>
<!-- A9&#45;&gt;A10 -->
<g id="edge14" class="edge">
<title>A9&#45;&gt;A10</title>
<path fill="none" stroke="#000000" d="M536.0456,-175.1688C545.072,-173.2346 554.4177,-171.2319 563.8168,-169.2178"/>
<polygon fill="none" stroke="#000000" points="535.8345,-175.214 530.8059,-180.3824 524.1009,-177.7284 529.1296,-172.56 535.8345,-175.214"/>
<polygon fill="#000000" stroke="#000000" points="573.62,-167.1172 564.7849,-173.6126 568.7309,-168.1648 563.8419,-169.2125 563.8419,-169.2125 563.8419,-169.2125 568.7309,-168.1648 562.899,-164.8124 573.62,-167.1172 573.62,-167.1172"/>
<text text-anchor="middle" x="557.6672" y="-176.1799" font-family="Helvetica,sans-Serif" font-size="10.00" fill="#000000">registros*</text>
<text text-anchor="middle" x="540.0537" y="-162.6657" font-family="Helvetica,sans-Serif" font-size="10.00" fill="#000000">1</text>
</g>
<!-- A10&#45;&gt;A8 -->
<g id="edge15" class="edge">
<title>A10&#45;&gt;A8</title>
<path fill="none" stroke="#000000" d="M801.2394,-139.6193C820.7903,-138.904 840.451,-138.1847 858.244,-137.5338"/>
<polygon fill="none" stroke="#000000" points="801.0333,-139.6267 795.1836,-143.8435 789.0413,-140.0656 794.891,-135.8488 801.0333,-139.6267"/>
<polygon fill="#000000" stroke="#000000" points="868.4895,-137.1589 858.6607,-142.0216 863.4928,-137.3418 858.4962,-137.5246 858.4962,-137.5246 858.4962,-137.5246 863.4928,-137.3418 858.3316,-133.0276 868.4895,-137.1589 868.4895,-137.1589"/>
<text text-anchor="middle" x="850.6845" y="-143.2683" font-family="Helvetica,sans-Serif" font-size="10.00" fill="#000000">2</text>
<text text-anchor="middle" x="806.8463" y="-127.9561" font-family="Helvetica,sans-Serif" font-size="10.00" fill="#000000">*</text>
</g>
<!-- A2JA7&#45;&gt;A7 -->
<g id="edge11" class="edge">
<title>A2JA7&#45;&gt;A7</title>
<path fill="none" stroke="#000000" d="M928.101,-78.9914C936.3196,-78.8737 1026.9913,-77.5753 1086.1459,-76.7282"/>
<polygon fill="#000000" stroke="#000000" points="1096.4356,-76.5809 1086.5011,-81.2237 1091.4361,-76.6525 1086.4366,-76.7242 1086.4366,-76.7242 1086.4366,-76.7242 1091.4361,-76.6525 1086.3721,-72.2246 1096.4356,-76.5809 1096.4356,-76.5809"/>
<text text-anchor="middle" x="1078.4323" y="-82.2919" font-family="Helvetica,sans-Serif" font-size="10.00" fill="#000000">*</text>
</g>
</g>
</svg>
