<?xml version="1.0" encoding="UTF-8" standalone="no"?>
<!DOCTYPE svg PUBLIC "-//W3C//DTD SVG 1.1//EN"
 "http://www.w3.org/Graphics/SVG/1.1/DTD/svg11.dtd">
<!-- Generated by graphviz version 2.40.1 (20161225.0304)
 -->
<!-- Title: G Pages: 1 -->
<svg width="2418pt" height="620pt"
 viewBox="0.00 0.00 2418.00 620.00" xmlns="http://www.w3.org/2000/svg" xmlns:xlink="http://www.w3.org/1999/xlink">
<g id="graph0" class="graph" transform="scale(1 1) rotate(0) translate(4 616)">
<title>G</title>
<polygon fill="#ffffff" stroke="transparent" points="-4,4 -4,-616 2414,-616 2414,4 -4,4"/>
<!-- A0 -->
<g id="node1" class="node">
<title>A0</title>
<polygon fill="none" stroke="#000000" points="0,-580 0,-612 360,-612 360,-580 0,-580"/>
<text text-anchor="start" x="164.163" y="-593" font-family="Helvetica,sans-Serif" font-size="10.00" fill="#000000">Torneo</text>
<polygon fill="none" stroke="#000000" points="0,-476 0,-580 360,-580 360,-476 0,-476"/>
<text text-anchor="start" x="149.1605" y="-561" font-family="Helvetica,sans-Serif" font-size="10.00" fill="#000000">nombre:Texto</text>
<text text-anchor="start" x="140.822" y="-549" font-family="Helvetica,sans-Serif" font-size="10.00" fill="#000000">fechaInicio:Fecha</text>
<text text-anchor="start" x="111.6515" y="-537" font-family="Helvetica,sans-Serif" font-size="10.00" fill="#000000">fechaInicioInscripciones:Fecha</text>
<text text-anchor="start" x="109.712" y="-525" font-family="Helvetica,sans-Serif" font-size="10.00" fill="#000000">fechaCierreInscripciones:Fecha</text>
<text text-anchor="start" x="118.042" y="-513" font-family="Helvetica,sans-Serif" font-size="10.00" fill="#000000">numeroParticipantes:Entero</text>
<text text-anchor="start" x="140.5485" y="-501" font-family="Helvetica,sans-Serif" font-size="10.00" fill="#000000">limiteEdad:Entero</text>
<text text-anchor="start" x="129.1595" y="-489" font-family="Helvetica,sans-Serif" font-size="10.00" fill="#000000">valorInscripcion:Entero</text>
<polygon fill="none" stroke="#000000" points="0,0 0,-476 360,-476 360,0 0,0"/>
<text text-anchor="start" x="118.741" y="-457" font-family="Helvetica,sans-Serif" font-size="10.00" fill="#000000">+Constructor(nombre:Texto</text>
<text text-anchor="start" x="140.822" y="-445" font-family="Helvetica,sans-Serif" font-size="10.00" fill="#000000">fechaInicio:Fecha</text>
<text text-anchor="start" x="111.6515" y="-433" font-family="Helvetica,sans-Serif" font-size="10.00" fill="#000000">fechaInicioInscripciones:Fecha</text>
<text text-anchor="start" x="109.712" y="-421" font-family="Helvetica,sans-Serif" font-size="10.00" fill="#000000">fechaCierreInscripciones:Fecha</text>
<text text-anchor="start" x="118.042" y="-409" font-family="Helvetica,sans-Serif" font-size="10.00" fill="#000000">numeroParticipantes:Entero</text>
<text text-anchor="start" x="140.5485" y="-397" font-family="Helvetica,sans-Serif" font-size="10.00" fill="#000000">limiteEdad:Entero</text>
<text text-anchor="start" x="129.1595" y="-385" font-family="Helvetica,sans-Serif" font-size="10.00" fill="#000000">valorInscripcion:Entero</text>
<text text-anchor="start" x="129.1555" y="-373" font-family="Helvetica,sans-Serif" font-size="10.00" fill="#000000">tipoTorneo:TipoTorneo</text>
<text text-anchor="start" x="19.288" y="-361" font-family="Helvetica,sans-Serif" font-size="10.00" fill="#000000">caracter:CaracterTorneo)+registrarParticipante(participante:Participante)</text>
<text text-anchor="start" x="135.1335" y="-349" font-family="Helvetica,sans-Serif" font-size="10.00" fill="#000000">+getNombre():Texto</text>
<text text-anchor="start" x="125.96" y="-337" font-family="Helvetica,sans-Serif" font-size="10.00" fill="#000000">+getFechaInicio():Fecha</text>
<text text-anchor="start" x="96.7895" y="-325" font-family="Helvetica,sans-Serif" font-size="10.00" fill="#000000">+getFechaInicioInscripciones():Fecha</text>
<text text-anchor="start" x="94.85" y="-313" font-family="Helvetica,sans-Serif" font-size="10.00" fill="#000000">+getFechaCierreInscripciones():Fecha</text>
<text text-anchor="start" x="104.015" y="-301" font-family="Helvetica,sans-Serif" font-size="10.00" fill="#000000">+getNumeroParticipantes():Entero</text>
<text text-anchor="start" x="125.6815" y="-289" font-family="Helvetica,sans-Serif" font-size="10.00" fill="#000000">+getLimiteEdad():Entero</text>
<text text-anchor="start" x="115.128" y="-277" font-family="Helvetica,sans-Serif" font-size="10.00" fill="#000000">+getValorInscripcion():Entero</text>
<text text-anchor="start" x="114.2935" y="-265" font-family="Helvetica,sans-Serif" font-size="10.00" fill="#000000">+getTipoTorneo():TipoTorneo</text>
<text text-anchor="start" x="87.6215" y="-253" font-family="Helvetica,sans-Serif" font-size="10.00" fill="#000000">+getParticipantes():Participante［*］</text>
<text text-anchor="start" x="111.2435" y="-241" font-family="Helvetica,sans-Serif" font-size="10.00" fill="#000000">+getCaracter():CaracterTorneo</text>
<text text-anchor="start" x="102.344" y="-229" font-family="Helvetica,sans-Serif" font-size="10.00" fill="#000000">+setFechaInicio(fechaInicio:Fecha)</text>
<text text-anchor="start" x="44.003" y="-217" font-family="Helvetica,sans-Serif" font-size="10.00" fill="#000000">+setFechaInicioInscripciones(fechaInicioInscripciones:Fecha)</text>
<text text-anchor="start" x="40.124" y="-205" font-family="Helvetica,sans-Serif" font-size="10.00" fill="#000000">+setFechaCierreInscripciones(fechaCierreInscripciones:Fecha)</text>
<text text-anchor="start" x="76.65" y="-193" font-family="Helvetica,sans-Serif" font-size="10.00" fill="#000000">buscarParticipante(nombre:Texto):Participante</text>
<text text-anchor="start" x="67.8875" y="-181" font-family="Helvetica,sans-Serif" font-size="10.00" fill="#000000">+registrarJugador(equipo:Equipo,jugador:Jugador)</text>
<text text-anchor="start" x="53.4445" y="-169" font-family="Helvetica,sans-Serif" font-size="10.00" fill="#000000">+registrarJugador(nombreEquipo:Texto,jugador:Jugador)</text>
<text text-anchor="start" x="52.896" y="-157" font-family="Helvetica,sans-Serif" font-size="10.00" fill="#000000">+registrarEstadisticaParticipante(participante:Participante</text>
<text text-anchor="start" x="110.5475" y="-145" font-family="Helvetica,sans-Serif" font-size="10.00" fill="#000000">estadistica:ValorEstadistica)</text>
<text text-anchor="start" x="92.0685" y="-133" font-family="Helvetica,sans-Serif" font-size="10.00" fill="#000000">+getEstadisticas():Estadistica［*］</text>
<text text-anchor="start" x="69.2905" y="-121" font-family="Helvetica,sans-Serif" font-size="10.00" fill="#000000">+buscarMejor(estadistica:Estadistica):Participante</text>
<text text-anchor="start" x="78.1735" y="-109" font-family="Helvetica,sans-Serif" font-size="10.00" fill="#000000">+buscarSuperiorIgualA(estadistica:Estadistica</text>
<text text-anchor="start" x="105.548" y="-97" font-family="Helvetica,sans-Serif" font-size="10.00" fill="#000000">valor:Real):Participante［*］</text>
<text text-anchor="start" x="92.346" y="-85" font-family="Helvetica,sans-Serif" font-size="10.00" fill="#000000">+buscarInferiorA(estadistica:Estadistica</text>
<text text-anchor="start" x="105.548" y="-73" font-family="Helvetica,sans-Serif" font-size="10.00" fill="#000000">valor:Real):Participante［*］</text>
<text text-anchor="start" x="67.9005" y="-61" font-family="Helvetica,sans-Serif" font-size="10.00" fill="#000000">+promedioEstadistica(estadistica:Estadistica):Real</text>
<text text-anchor="start" x="9.8305" y="-49" font-family="Helvetica,sans-Serif" font-size="10.00" fill="#000000">+obtenerEstadisticas(participante:Participante):ValorEstadistica［*］</text>
<text text-anchor="start" x="68.452" y="-37" font-family="Helvetica,sans-Serif" font-size="10.00" fill="#000000">+compararParticipantes(participanteA:Participante</text>
<text text-anchor="start" x="123.042" y="-25" font-family="Helvetica,sans-Serif" font-size="10.00" fill="#000000">participanteB:Participante</text>
<text text-anchor="start" x="113.0425" y="-13" font-family="Helvetica,sans-Serif" font-size="10.00" fill="#000000">estadistica:Estadistica):Entero</text>
</g>
<!-- A1 -->
<g id="node2" class="node">
<title>A1</title>
<polygon fill="none" stroke="#000000" points="441.5,-438 441.5,-482 512.5,-482 512.5,-438 441.5,-438"/>
<text text-anchor="start" x="452.264" y="-463" font-family="Helvetica,sans-Serif" font-size="10.00" fill="#000000">&lt;&lt;Enum&gt;&gt;</text>
<text text-anchor="start" x="451.44" y="-451" font-family="Helvetica,sans-Serif" font-size="10.00" fill="#000000">TipoTorneo</text>
<polygon fill="none" stroke="#000000" points="441.5,-370 441.5,-438 512.5,-438 512.5,-370 441.5,-370"/>
<text text-anchor="start" x="460.6075" y="-419" font-family="Helvetica,sans-Serif" font-size="10.00" fill="#000000">LOCAL</text>
<text text-anchor="start" x="451.164" y="-407" font-family="Helvetica,sans-Serif" font-size="10.00" fill="#000000">REGIONAL</text>
<text text-anchor="start" x="451.444" y="-395" font-family="Helvetica,sans-Serif" font-size="10.00" fill="#000000">NACIONAL</text>
<text text-anchor="start" x="454.5035" y="-383" font-family="Helvetica,sans-Serif" font-size="10.00" fill="#000000">MUNDIAL</text>
</g>
<!-- A0&#45;&gt;A1 -->
<g id="edge3" class="edge">
<title>A0&#45;&gt;A1</title>
<path fill="none" stroke="#000000" d="M360.1663,-378.9172C386.5317,-389.5879 411.4832,-399.6863 431.4673,-407.7743"/>
<polygon fill="#000000" stroke="#000000" points="440.863,-411.5769 429.9051,-411.9966 436.2282,-409.7011 431.5934,-407.8253 431.5934,-407.8253 431.5934,-407.8253 436.2282,-409.7011 433.2816,-403.6539 440.863,-411.5769 440.863,-411.5769"/>
<text text-anchor="middle" x="420.8898" y="-409.6117" font-family="Helvetica,sans-Serif" font-size="10.00" fill="#000000">tipoTorneo1</text>
<text text-anchor="middle" x="380.1396" y="-374.8825" font-family="Helvetica,sans-Serif" font-size="10.00" fill="#000000">*</text>
</g>
<!-- A4 -->
<g id="node5" class="node">
<title>A4</title>
<polygon fill="none" stroke="#000000" points="593,-342 593,-386 813,-386 813,-342 593,-342"/>
<text text-anchor="start" x="672.151" y="-367" font-family="Helvetica,sans-Serif" font-size="10.00" fill="#000000">&lt;&lt;interface&gt;&gt;</text>
<text text-anchor="start" x="676.6055" y="-355" font-family="Helvetica,sans-Serif" font-size="10.00" fill="#000000">Participante</text>
<polygon fill="none" stroke="#000000" points="593,-298 593,-342 813,-342 813,-298 593,-298"/>
<text text-anchor="start" x="636.7425" y="-323" font-family="Helvetica,sans-Serif" font-size="10.00" fill="#000000">+getNombreCompleto():Texto</text>
<text text-anchor="start" x="602.8485" y="-311" font-family="Helvetica,sans-Serif" font-size="10.00" fill="#000000">+getRegistroEstadistica():RegistroEstadistica</text>
</g>
<!-- A0&#45;&gt;A4 -->
<g id="edge4" class="edge">
<title>A0&#45;&gt;A4</title>
<path fill="none" stroke="#000000" d="M372.3873,-320.3491C385.1152,-321.2585 397.7408,-322.1495 410,-323 466.7313,-326.9359 529.66,-331.0496 582.6111,-334.4387"/>
<polygon fill="none" stroke="#000000" points="372.1308,-320.3308 365.86,-323.8913 360.1616,-319.4722 366.4324,-315.9118 372.1308,-320.3308"/>
<polygon fill="#000000" stroke="#000000" points="592.7204,-335.0848 582.4537,-338.9378 587.7305,-334.7658 582.7407,-334.4469 582.7407,-334.4469 582.7407,-334.4469 587.7305,-334.7658 583.0277,-329.9561 592.7204,-335.0848 592.7204,-335.0848"/>
<text text-anchor="middle" x="574.0921" y="-339.364" font-family="Helvetica,sans-Serif" font-size="10.00" fill="#000000">participantes*</text>
<text text-anchor="middle" x="378.846" y="-309.3383" font-family="Helvetica,sans-Serif" font-size="10.00" fill="#000000">1</text>
</g>
<!-- A8 -->
<g id="node9" class="node">
<title>A8</title>
<polygon fill="none" stroke="#000000" points="431.5,-164 431.5,-208 521.5,-208 521.5,-164 431.5,-164"/>
<text text-anchor="start" x="451.764" y="-189" font-family="Helvetica,sans-Serif" font-size="10.00" fill="#000000">&lt;&lt;Enum&gt;&gt;</text>
<text text-anchor="start" x="441.4965" y="-177" font-family="Helvetica,sans-Serif" font-size="10.00" fill="#000000">CaracterTorneo</text>
<polygon fill="none" stroke="#000000" points="431.5,-120 431.5,-164 521.5,-164 521.5,-120 431.5,-120"/>
<text text-anchor="start" x="448.445" y="-145" font-family="Helvetica,sans-Serif" font-size="10.00" fill="#000000">INDIVIDUAL</text>
<text text-anchor="start" x="455.943" y="-133" font-family="Helvetica,sans-Serif" font-size="10.00" fill="#000000">GRUPAL</text>
</g>
<!-- A0&#45;&gt;A8 -->
<g id="edge2" class="edge">
<title>A0&#45;&gt;A8</title>
<path fill="none" stroke="#000000" d="M360.1663,-219.7146C382.5745,-208.9829 403.9615,-198.7402 422.1454,-190.0316"/>
<polygon fill="#000000" stroke="#000000" points="431.3509,-185.6228 424.2756,-194.0009 426.8414,-187.7826 422.3318,-189.9423 422.3318,-189.9423 422.3318,-189.9423 426.8414,-187.7826 420.3881,-185.8837 431.3509,-185.6228 431.3509,-185.6228"/>
<text text-anchor="middle" x="418.6538" y="-198.0755" font-family="Helvetica,sans-Serif" font-size="10.00" fill="#000000">caracter1</text>
<text text-anchor="middle" x="372.8635" y="-201.262" font-family="Helvetica,sans-Serif" font-size="10.00" fill="#000000">*</text>
</g>
<!-- A11 -->
<g id="node12" class="node">
<title>A11</title>
<polygon fill="none" stroke="#000000" points="410.5,-282 410.5,-314 543.5,-314 543.5,-282 410.5,-282"/>
<text text-anchor="start" x="459.2185" y="-295" font-family="Helvetica,sans-Serif" font-size="10.00" fill="#000000">Reporte</text>
<polygon fill="none" stroke="#000000" points="410.5,-226 410.5,-282 543.5,-282 543.5,-226 410.5,-226"/>
<text text-anchor="start" x="449.4895" y="-263" font-family="Helvetica,sans-Serif" font-size="10.00" fill="#000000">fecha:Fecha</text>
<text text-anchor="start" x="420.042" y="-251" font-family="Helvetica,sans-Serif" font-size="10.00" fill="#000000">participanteA:Participante</text>
<text text-anchor="start" x="420.042" y="-239" font-family="Helvetica,sans-Serif" font-size="10.00" fill="#000000">participanteB:Participante</text>
</g>
<!-- A0&#45;&gt;A11 -->
<g id="edge1" class="edge">
<title>A0&#45;&gt;A11</title>
<path fill="none" stroke="#000000" stroke-dasharray="5,2" d="M360.1663,-284.1248C373.9032,-282.4569 387.2563,-280.8357 399.723,-279.322"/>
<polygon fill="#000000" stroke="#000000" points="409.9755,-278.0772 400.5908,-283.7498 405.0119,-278.6799 400.0484,-279.2826 400.0484,-279.2826 400.0484,-279.2826 405.0119,-278.6799 399.506,-274.8154 409.9755,-278.0772 409.9755,-278.0772"/>
</g>
<!-- A2 -->
<g id="node3" class="node">
<title>A2</title>
<polygon fill="none" stroke="#000000" points="1547.5,-392 1547.5,-436 1800.5,-436 1800.5,-392 1547.5,-392"/>
<text text-anchor="start" x="1643.151" y="-417" font-family="Helvetica,sans-Serif" font-size="10.00" fill="#000000">&lt;&lt;interface&gt;&gt;</text>
<text text-anchor="start" x="1631.2175" y="-405" font-family="Helvetica,sans-Serif" font-size="10.00" fill="#000000">RegistroEstadistica</text>
<polygon fill="none" stroke="#000000" points="1547.5,-324 1547.5,-392 1800.5,-392 1800.5,-324 1547.5,-324"/>
<text text-anchor="start" x="1567.457" y="-373" font-family="Helvetica,sans-Serif" font-size="10.00" fill="#000000">+getEstadisticas():ValorEstadistica［*］</text>
<text text-anchor="start" x="1557.4615" y="-361" font-family="Helvetica,sans-Serif" font-size="10.00" fill="#000000">+registrarEstadistica(estadistica:ValorEstadistica)</text>
<text text-anchor="start" x="1594.681" y="-349" font-family="Helvetica,sans-Serif" font-size="10.00" fill="#000000">+comparar(participante:Participante</text>
<text text-anchor="start" x="1607.0425" y="-337" font-family="Helvetica,sans-Serif" font-size="10.00" fill="#000000">estadistica:Estadistica):Entero</text>
</g>
<!-- A3 -->
<g id="node4" class="node">
<title>A3</title>
<polygon fill="none" stroke="#000000" points="1863.5,-396 1863.5,-428 2068.5,-428 2068.5,-396 1863.5,-396"/>
<text text-anchor="start" x="1913.7745" y="-409" font-family="Helvetica,sans-Serif" font-size="10.00" fill="#000000">RegistroEstadisticaImpl</text>
<polygon fill="none" stroke="#000000" points="1863.5,-364 1863.5,-396 2068.5,-396 2068.5,-364 1863.5,-364"/>
<text text-anchor="start" x="1873.209" y="-377" font-family="Helvetica,sans-Serif" font-size="10.00" fill="#000000">estadisticas:ValorEstadistica［*］</text>
<polygon fill="none" stroke="#000000" points="1863.5,-332 1863.5,-364 2068.5,-364 2068.5,-332 1863.5,-332"/>
<text text-anchor="start" x="1933.916" y="-345" font-family="Helvetica,sans-Serif" font-size="10.00" fill="#000000">+Constructor()</text>
</g>
<!-- A2&#45;&gt;A3 -->
<g id="edge18" class="edge">
<title>A2&#45;&gt;A3</title>
<path fill="none" stroke="#000000" d="M1810.6394,-380C1828.2445,-380 1846.0221,-380 1862.9431,-380"/>
<polygon fill="none" stroke="#000000" points="1810.3015,-376.5001 1800.3015,-380 1810.3015,-383.5001 1810.3015,-376.5001"/>
</g>
<!-- A2&#45;&gt;A4 -->
<g id="edge17" class="edge">
<title>A2&#45;&gt;A4</title>
<path fill="none" stroke="#000000" d="M1612.2355,-443.0205C1580.6258,-471.5128 1539.7732,-502.6285 1497,-520 1344.7582,-581.8299 1290.1666,-569.5043 1128,-543 1005.3842,-522.9598 973.9185,-509.9762 863,-454 825.7669,-435.2099 787.3765,-408.6207 757.5361,-386.0645"/>
<polygon fill="none" stroke="#000000" points="1614.6436,-445.5612 1619.6559,-436.2269 1609.9167,-440.3981 1614.6436,-445.5612"/>
</g>
<!-- A2JA9 -->
<!-- A2&#45;&gt;A2JA9 -->
<g id="edge10" class="edge">
<title>A2&#45;&gt;A2JA9</title>
<path fill="none" stroke="#000000" d="M1692.4671,-323.9566C1717.5023,-259.589 1768.2302,-156.6249 1850,-108 1892.1809,-82.9169 1958.8801,-97.4724 1965.0405,-98.8921"/>
<text text-anchor="middle" x="1691.4663" y="-300.9817" font-family="Helvetica,sans-Serif" font-size="10.00" fill="#000000">*</text>
</g>
<!-- A5 -->
<g id="node6" class="node">
<title>A5</title>
<polygon fill="none" stroke="#000000" points="882.5,-413 882.5,-445 1059.5,-445 1059.5,-413 882.5,-413"/>
<text text-anchor="start" x="955.438" y="-426" font-family="Helvetica,sans-Serif" font-size="10.00" fill="#000000">Equipo</text>
<polygon fill="none" stroke="#000000" points="882.5,-381 882.5,-413 1059.5,-413 1059.5,-381 882.5,-381"/>
<text text-anchor="start" x="940.1605" y="-394" font-family="Helvetica,sans-Serif" font-size="10.00" fill="#000000">nombre:Texto</text>
<polygon fill="none" stroke="#000000" points="882.5,-289 882.5,-381 1059.5,-381 1059.5,-289 882.5,-289"/>
<text text-anchor="start" x="909.741" y="-362" font-family="Helvetica,sans-Serif" font-size="10.00" fill="#000000">+Constructor(nombre:Texto</text>
<text text-anchor="start" x="918.485" y="-350" font-family="Helvetica,sans-Serif" font-size="10.00" fill="#000000">representante:Persona)</text>
<text text-anchor="start" x="926.1335" y="-338" font-family="Helvetica,sans-Serif" font-size="10.00" fill="#000000">+getNombre():Texto</text>
<text text-anchor="start" x="905.0075" y="-326" font-family="Helvetica,sans-Serif" font-size="10.00" fill="#000000">+getRepresentante():Persona</text>
<text text-anchor="start" x="892.507" y="-314" font-family="Helvetica,sans-Serif" font-size="10.00" fill="#000000">+getJugadores():Jugador［*］</text>
<text text-anchor="start" x="892.2355" y="-302" font-family="Helvetica,sans-Serif" font-size="10.00" fill="#000000">+registrarJugador(jugador:Jugador)</text>
</g>
<!-- A4&#45;&gt;A5 -->
<g id="edge9" class="edge">
<title>A4&#45;&gt;A5</title>
<path fill="none" stroke="#000000" d="M823.5255,-353.2641C843.0732,-355.091 863.0015,-356.9534 881.618,-358.6933"/>
<polygon fill="none" stroke="#000000" points="823.6292,-349.7586 813.3469,-352.3128 822.9778,-356.7282 823.6292,-349.7586"/>
</g>
<!-- A7 -->
<g id="node8" class="node">
<title>A7</title>
<polygon fill="none" stroke="#000000" points="1320.5,-386 1320.5,-418 1497.5,-418 1497.5,-386 1320.5,-386"/>
<text text-anchor="start" x="1390.938" y="-399" font-family="Helvetica,sans-Serif" font-size="10.00" fill="#000000">Jugador</text>
<polygon fill="none" stroke="#000000" points="1320.5,-354 1320.5,-386 1497.5,-386 1497.5,-354 1320.5,-354"/>
<text text-anchor="start" x="1356.489" y="-367" font-family="Helvetica,sans-Serif" font-size="10.00" fill="#000000">fechaNacimiento:Fecha</text>
<polygon fill="none" stroke="#000000" points="1320.5,-250 1320.5,-354 1497.5,-354 1497.5,-250 1320.5,-250"/>
<text text-anchor="start" x="1347.741" y="-335" font-family="Helvetica,sans-Serif" font-size="10.00" fill="#000000">+Constructor(nombre:Texto</text>
<text text-anchor="start" x="1377.8815" y="-323" font-family="Helvetica,sans-Serif" font-size="10.00" fill="#000000">apellido:Texto</text>
<text text-anchor="start" x="1383.165" y="-311" font-family="Helvetica,sans-Serif" font-size="10.00" fill="#000000">email:Texto</text>
<text text-anchor="start" x="1380.3855" y="-299" font-family="Helvetica,sans-Serif" font-size="10.00" fill="#000000">celular:Texto</text>
<text text-anchor="start" x="1354.8245" y="-287" font-family="Helvetica,sans-Serif" font-size="10.00" fill="#000000">fechaNacimiento:Fecha)</text>
<text text-anchor="start" x="1341.627" y="-275" font-family="Helvetica,sans-Serif" font-size="10.00" fill="#000000">+getFechaNacimiento():Fecha</text>
<text text-anchor="start" x="1330.2295" y="-263" font-family="Helvetica,sans-Serif" font-size="10.00" fill="#000000">+calcularEdad(fecha:Fecha):Entero</text>
</g>
<!-- A4&#45;&gt;A7 -->
<g id="edge8" class="edge">
<title>A4&#45;&gt;A7</title>
<path fill="none" stroke="#000000" d="M811.6304,-294.4075C828.5533,-288.6065 846.0503,-283.5012 863,-280 1040.2024,-243.396 1093.278,-231.1429 1270,-270 1286.6863,-273.6689 1303.7563,-279.5518 1319.9574,-286.3001"/>
<polygon fill="none" stroke="#000000" points="810.007,-291.2687 801.7413,-297.8965 812.3361,-297.8699 810.007,-291.2687"/>
</g>
<!-- A5&#45;&gt;A2 -->
<g id="edge20" class="edge">
<title>A5&#45;&gt;A2</title>
<path fill="none" stroke="#000000" d="M1029.8651,-445.1525C1056.3923,-473.7551 1090.2163,-502.8137 1128,-518 1278.9093,-578.6544 1464.2555,-502.0459 1575.4169,-441.0595"/>
<polygon fill="#000000" stroke="#000000" points="1584.2827,-436.1422 1577.7204,-444.9278 1579.9102,-438.5674 1575.5378,-440.9926 1575.5378,-440.9926 1575.5378,-440.9926 1579.9102,-438.5674 1573.3551,-437.0573 1584.2827,-436.1422 1584.2827,-436.1422"/>
</g>
<!-- A6 -->
<g id="node7" class="node">
<title>A6</title>
<polygon fill="none" stroke="#000000" points="1128,-477 1128,-509 1270,-509 1270,-477 1128,-477"/>
<text text-anchor="start" x="1180.383" y="-490" font-family="Helvetica,sans-Serif" font-size="10.00" fill="#000000">Persona</text>
<polygon fill="none" stroke="#000000" points="1128,-409 1128,-477 1270,-477 1270,-409 1128,-409"/>
<text text-anchor="start" x="1168.1605" y="-458" font-family="Helvetica,sans-Serif" font-size="10.00" fill="#000000">nombre:Texto</text>
<text text-anchor="start" x="1167.8815" y="-446" font-family="Helvetica,sans-Serif" font-size="10.00" fill="#000000">apellido:Texto</text>
<text text-anchor="start" x="1173.165" y="-434" font-family="Helvetica,sans-Serif" font-size="10.00" fill="#000000">email:Texto</text>
<text text-anchor="start" x="1170.3855" y="-422" font-family="Helvetica,sans-Serif" font-size="10.00" fill="#000000">celular:Texto</text>
<polygon fill="none" stroke="#000000" points="1128,-293 1128,-409 1270,-409 1270,-293 1128,-293"/>
<text text-anchor="start" x="1137.741" y="-390" font-family="Helvetica,sans-Serif" font-size="10.00" fill="#000000">+Constructor(nombre:Texto</text>
<text text-anchor="start" x="1167.8815" y="-378" font-family="Helvetica,sans-Serif" font-size="10.00" fill="#000000">apellido:Texto</text>
<text text-anchor="start" x="1173.165" y="-366" font-family="Helvetica,sans-Serif" font-size="10.00" fill="#000000">email:Texto</text>
<text text-anchor="start" x="1168.721" y="-354" font-family="Helvetica,sans-Serif" font-size="10.00" fill="#000000">celular:Texto)</text>
<text text-anchor="start" x="1154.1335" y="-342" font-family="Helvetica,sans-Serif" font-size="10.00" fill="#000000">+getNombre():Texto</text>
<text text-anchor="start" x="1154.1295" y="-330" font-family="Helvetica,sans-Serif" font-size="10.00" fill="#000000">+getApellido():Texto</text>
<text text-anchor="start" x="1159.413" y="-318" font-family="Helvetica,sans-Serif" font-size="10.00" fill="#000000">+getEmail():Texto</text>
<text text-anchor="start" x="1156.079" y="-306" font-family="Helvetica,sans-Serif" font-size="10.00" fill="#000000">+getCelular():Texto</text>
</g>
<!-- A5&#45;&gt;A6 -->
<g id="edge5" class="edge">
<title>A5&#45;&gt;A6</title>
<path fill="none" stroke="#000000" d="M1071.2559,-381.9921C1086.7168,-384.2927 1102.512,-386.6429 1117.4875,-388.8712"/>
<polygon fill="none" stroke="#000000" points="1071.0404,-381.9601 1064.517,-385.0335 1059.1711,-380.194 1065.6945,-377.1206 1071.0404,-381.9601"/>
<polygon fill="#000000" stroke="#000000" points="1127.7101,-390.3923 1117.1567,-393.3715 1122.7646,-389.6564 1117.819,-388.9205 1117.819,-388.9205 1117.819,-388.9205 1122.7646,-389.6564 1118.4813,-384.4695 1127.7101,-390.3923 1127.7101,-390.3923"/>
<text text-anchor="middle" x="1108.5374" y="-393.0849" font-family="Helvetica,sans-Serif" font-size="10.00" fill="#000000">representante1</text>
<text text-anchor="middle" x="1078.3439" y="-371.5014" font-family="Helvetica,sans-Serif" font-size="10.00" fill="#000000">1</text>
</g>
<!-- A5&#45;&gt;A7 -->
<g id="edge7" class="edge">
<title>A5&#45;&gt;A7</title>
<path fill="none" stroke="#000000" d="M1069.9518,-305.4748C1088.6213,-296.598 1108.4365,-288.8394 1128,-284 1189.2645,-268.8451 1207.8334,-273.1222 1270,-284 1283.2724,-286.3224 1296.9505,-289.8079 1310.3046,-293.8793"/>
<polygon fill="none" stroke="#000000" points="1069.8681,-305.5159 1066.2522,-311.755 1059.1024,-310.8169 1062.7182,-304.5778 1069.8681,-305.5159"/>
<polygon fill="#000000" stroke="#000000" points="1319.9609,-296.9391 1309.0686,-298.2081 1315.1944,-295.4287 1310.428,-293.9183 1310.428,-293.9183 1310.428,-293.9183 1315.1944,-295.4287 1311.7874,-289.6285 1319.9609,-296.9391 1319.9609,-296.9391"/>
<text text-anchor="middle" x="1300.1282" y="-296.5212" font-family="Helvetica,sans-Serif" font-size="10.00" fill="#000000">jugador*</text>
<text text-anchor="middle" x="1071.6303" y="-292.2268" font-family="Helvetica,sans-Serif" font-size="10.00" fill="#000000">1</text>
</g>
<!-- A6&#45;&gt;A7 -->
<g id="edge6" class="edge">
<title>A6&#45;&gt;A7</title>
<path fill="none" stroke="#000000" d="M1280.034,-375.0846C1293.0178,-370.9323 1306.5146,-366.6158 1319.6686,-362.4091"/>
<polygon fill="none" stroke="#000000" points="1278.6781,-371.8435 1270.2195,-378.2234 1280.8104,-378.5109 1278.6781,-371.8435"/>
</g>
<!-- A7&#45;&gt;A2 -->
<g id="edge19" class="edge">
<title>A7&#45;&gt;A2</title>
<path fill="none" stroke="#000000" d="M1497.1096,-349.3813C1509.8191,-351.5875 1523.1359,-353.8991 1536.5138,-356.2213"/>
<polygon fill="#000000" stroke="#000000" points="1546.7469,-357.9976 1536.1245,-360.7209 1541.8205,-357.1424 1536.8942,-356.2872 1536.8942,-356.2872 1536.8942,-356.2872 1541.8205,-357.1424 1537.6638,-351.8535 1546.7469,-357.9976 1546.7469,-357.9976"/>
</g>
<!-- A9 -->
<g id="node10" class="node">
<title>A9</title>
<polygon fill="none" stroke="#000000" points="2131,-133 2131,-165 2273,-165 2273,-133 2131,-133"/>
<text text-anchor="start" x="2177.829" y="-146" font-family="Helvetica,sans-Serif" font-size="10.00" fill="#000000">Estadistica</text>
<polygon fill="none" stroke="#000000" points="2131,-101 2131,-133 2273,-133 2273,-101 2131,-101"/>
<text text-anchor="start" x="2171.1605" y="-114" font-family="Helvetica,sans-Serif" font-size="10.00" fill="#000000">nombre:Texto</text>
<polygon fill="none" stroke="#000000" points="2131,-33 2131,-101 2273,-101 2273,-33 2131,-33"/>
<text text-anchor="start" x="2140.741" y="-82" font-family="Helvetica,sans-Serif" font-size="10.00" fill="#000000">+Constructor(nombre:Texto</text>
<text text-anchor="start" x="2156.994" y="-70" font-family="Helvetica,sans-Serif" font-size="10.00" fill="#000000">tipo:TipoEstadistica)</text>
<text text-anchor="start" x="2157.1335" y="-58" font-family="Helvetica,sans-Serif" font-size="10.00" fill="#000000">+getNombre():Texto</text>
<text text-anchor="start" x="2143.7965" y="-46" font-family="Helvetica,sans-Serif" font-size="10.00" fill="#000000">+getTipo():TipoEstadistica</text>
</g>
<!-- A13 -->
<g id="node14" class="node">
<title>A13</title>
<polygon fill="none" stroke="#000000" points="2323.5,-105 2323.5,-149 2410.5,-149 2410.5,-105 2323.5,-105"/>
<text text-anchor="start" x="2342.264" y="-130" font-family="Helvetica,sans-Serif" font-size="10.00" fill="#000000">&lt;&lt;Enum&gt;&gt;</text>
<text text-anchor="start" x="2333.106" y="-118" font-family="Helvetica,sans-Serif" font-size="10.00" fill="#000000">TipoEstadistica</text>
<polygon fill="none" stroke="#000000" points="2323.5,-49 2323.5,-105 2410.5,-105 2410.5,-49 2323.5,-49"/>
<text text-anchor="start" x="2343.939" y="-86" font-family="Helvetica,sans-Serif" font-size="10.00" fill="#000000">POSITIVA</text>
<text text-anchor="start" x="2341.719" y="-74" font-family="Helvetica,sans-Serif" font-size="10.00" fill="#000000">NEGATIVA</text>
<text text-anchor="start" x="2346.448" y="-62" font-family="Helvetica,sans-Serif" font-size="10.00" fill="#000000">NEUTRA</text>
</g>
<!-- A9&#45;&gt;A13 -->
<g id="edge13" class="edge">
<title>A9&#45;&gt;A13</title>
<path fill="none" stroke="#000000" d="M2273.1954,-99C2286.3558,-99 2299.9009,-99 2312.4496,-99"/>
<polygon fill="#000000" stroke="#000000" points="2322.7259,-99 2312.7259,-103.5001 2317.7259,-99 2312.7259,-99.0001 2312.7259,-99.0001 2312.7259,-99.0001 2317.7259,-99 2312.7258,-94.5001 2322.7259,-99 2322.7259,-99"/>
<text text-anchor="middle" x="2304.5997" y="-104.4524" font-family="Helvetica,sans-Serif" font-size="10.00" fill="#000000">tipo1</text>
<text text-anchor="middle" x="2291.3215" y="-87.5476" font-family="Helvetica,sans-Serif" font-size="10.00" fill="#000000">*</text>
</g>
<!-- A10 -->
<g id="node11" class="node">
<title>A10</title>
<polygon fill="none" stroke="#000000" points="1850.5,-241 1850.5,-273 2081.5,-273 2081.5,-241 1850.5,-241"/>
<text text-anchor="start" x="1923.2175" y="-254" font-family="Helvetica,sans-Serif" font-size="10.00" fill="#000000">RegistroEstadistica</text>
<polygon fill="none" stroke="#000000" points="1850.5,-197 1850.5,-241 2081.5,-241 2081.5,-197 1850.5,-197"/>
<text text-anchor="start" x="1943.4995" y="-222" font-family="Helvetica,sans-Serif" font-size="10.00" fill="#000000">valor:Real</text>
<text text-anchor="start" x="1916.8235" y="-210" font-family="Helvetica,sans-Serif" font-size="10.00" fill="#000000">estadistica:Estadistica</text>
<polygon fill="none" stroke="#000000" points="1850.5,-117 1850.5,-197 2081.5,-197 2081.5,-117 1850.5,-117"/>
<text text-anchor="start" x="1913.08" y="-178" font-family="Helvetica,sans-Serif" font-size="10.00" fill="#000000">+Constructor(valor:Real</text>
<text text-anchor="start" x="1915.159" y="-166" font-family="Helvetica,sans-Serif" font-size="10.00" fill="#000000">estadistica:Estadistica)</text>
<text text-anchor="start" x="1929.468" y="-154" font-family="Helvetica,sans-Serif" font-size="10.00" fill="#000000">+getValor():Real</text>
<text text-anchor="start" x="1903.0715" y="-142" font-family="Helvetica,sans-Serif" font-size="10.00" fill="#000000">+getEstadistica():Estadistica</text>
<text text-anchor="start" x="1860.435" y="-130" font-family="Helvetica,sans-Serif" font-size="10.00" fill="#000000">compareTo(registro:ValorEstadistica):Entero</text>
</g>
<!-- A10&#45;&gt;A2JA9 -->
<g id="edge12" class="edge">
<title>A10&#45;&gt;A2JA9</title>
<path fill="none" stroke="#000000" stroke-dasharray="5,2" d="M1965.5,-116.9312C1965.5,-114.4623 1965.5,-111.9935 1965.5,-109.5247"/>
<polygon fill="#000000" stroke="#000000" points="1965.5,-99.375 1970.0001,-109.375 1965.5,-104.375 1965.5001,-109.375 1965.5001,-109.375 1965.5001,-109.375 1965.5,-104.375 1961.0001,-109.375 1965.5,-99.375 1965.5,-99.375"/>
</g>
<!-- A11&#45;&gt;A4 -->
<g id="edge16" class="edge">
<title>A11&#45;&gt;A4</title>
<path fill="none" stroke="#000000" d="M554.8406,-294.903C564.0848,-297.8415 573.673,-300.8894 583.3236,-303.9572"/>
<polygon fill="none" stroke="#000000" points="554.6685,-294.8483 547.7387,-296.8427 543.2324,-291.213 550.1623,-289.2186 554.6685,-294.8483"/>
<polygon fill="#000000" stroke="#000000" points="592.9845,-307.0282 582.0912,-308.2872 588.2195,-305.5134 583.4544,-303.9987 583.4544,-303.9987 583.4544,-303.9987 588.2195,-305.5134 584.8177,-299.7102 592.9845,-307.0282 592.9845,-307.0282"/>
<text text-anchor="middle" x="573.1496" y="-306.5922" font-family="Helvetica,sans-Serif" font-size="10.00" fill="#000000">2</text>
<text text-anchor="middle" x="563.0674" y="-285.649" font-family="Helvetica,sans-Serif" font-size="10.00" fill="#000000">*</text>
</g>
<!-- A12 -->
<g id="node13" class="node">
<title>A12</title>
<polygon fill="none" stroke="#000000" points="863.5,-167 863.5,-199 1078.5,-199 1078.5,-167 863.5,-167"/>
<text text-anchor="start" x="934.607" y="-180" font-family="Helvetica,sans-Serif" font-size="10.00" fill="#000000">RegistroReporte</text>
<polygon fill="none" stroke="#000000" points="863.5,-123 863.5,-167 1078.5,-167 1078.5,-123 863.5,-123"/>
<text text-anchor="start" x="873.483" y="-148" font-family="Helvetica,sans-Serif" font-size="10.00" fill="#000000">estadisticaParticipanteA:ValorEstadistica</text>
<text text-anchor="start" x="873.483" y="-136" font-family="Helvetica,sans-Serif" font-size="10.00" fill="#000000">estadisticaParticipanteB:ValorEstadistica</text>
</g>
<!-- A11&#45;&gt;A12 -->
<g id="edge14" class="edge">
<title>A11&#45;&gt;A12</title>
<path fill="none" stroke="#000000" d="M555.0338,-252.6717C635.3039,-234.9603 760.9184,-207.2437 853.0239,-186.9208"/>
<polygon fill="none" stroke="#000000" points="554.8412,-252.7141 549.844,-257.913 543.123,-255.2998 548.1202,-250.1009 554.8412,-252.7141"/>
<polygon fill="#000000" stroke="#000000" points="862.9549,-184.7296 854.1594,-191.2786 858.0723,-185.807 853.1897,-186.8843 853.1897,-186.8843 853.1897,-186.8843 858.0723,-185.807 852.2201,-182.49 862.9549,-184.7296 862.9549,-184.7296"/>
<text text-anchor="middle" x="847.0756" y="-193.889" font-family="Helvetica,sans-Serif" font-size="10.00" fill="#000000">registros*</text>
<text text-anchor="middle" x="559.0022" y="-240.1404" font-family="Helvetica,sans-Serif" font-size="10.00" fill="#000000">1</text>
</g>
<!-- A12&#45;&gt;A10 -->
<g id="edge15" class="edge">
<title>A12&#45;&gt;A10</title>
<path fill="none" stroke="#000000" d="M1090.5536,-165.1023C1280.0289,-171.5769 1646.6575,-184.1049 1839.6665,-190.7002"/>
<polygon fill="none" stroke="#000000" points="1090.3948,-165.097 1084.2616,-168.8897 1078.4018,-164.6871 1084.5349,-160.8944 1090.3948,-165.097"/>
<polygon fill="#000000" stroke="#000000" points="1849.858,-191.0484 1839.7101,-195.2042 1844.8609,-190.8776 1839.8638,-190.7068 1839.8638,-190.7068 1839.8638,-190.7068 1844.8609,-190.8776 1840.0176,-186.2094 1849.858,-191.0484 1849.858,-191.0484"/>
<text text-anchor="middle" x="1831.4538" y="-195.8768" font-family="Helvetica,sans-Serif" font-size="10.00" fill="#000000">2</text>
<text text-anchor="middle" x="1096.806" y="-153.8587" font-family="Helvetica,sans-Serif" font-size="10.00" fill="#000000">*</text>
</g>
<!-- A2JA9&#45;&gt;A9 -->
<g id="edge11" class="edge">
<title>A2JA9&#45;&gt;A9</title>
<path fill="none" stroke="#000000" d="M1965.8837,-99C1972.1754,-99 2054.6021,-99 2120.3173,-99"/>
<polygon fill="#000000" stroke="#000000" points="2130.7064,-99 2120.7065,-103.5001 2125.7064,-99 2120.7064,-99.0001 2120.7064,-99.0001 2120.7064,-99.0001 2125.7064,-99 2120.7064,-94.5001 2130.7064,-99 2130.7064,-99"/>
<text text-anchor="middle" x="2112.5803" y="-104.4524" font-family="Helvetica,sans-Serif" font-size="10.00" fill="#000000">*</text>
</g>
</g>
</svg>
