<?xml version="1.0" encoding="UTF-8" standalone="no"?>
<!DOCTYPE svg PUBLIC "-//W3C//DTD SVG 1.1//EN"
 "http://www.w3.org/Graphics/SVG/1.1/DTD/svg11.dtd">
<!-- Generated by graphviz version 2.40.1 (20161225.0304)
 -->
<!-- Title: G Pages: 1 -->
<svg width="2025pt" height="479pt"
 viewBox="0.00 0.00 2024.57 479.37" xmlns="http://www.w3.org/2000/svg" xmlns:xlink="http://www.w3.org/1999/xlink">
<g id="graph0" class="graph" transform="scale(1 1) rotate(0) translate(4 475.3734)">
<title>G</title>
<polygon fill="#ffffff" stroke="transparent" points="-4,4 -4,-475.3734 2020.565,-475.3734 2020.565,4 -4,4"/>
<!-- A0 -->
<g id="node1" class="node">
<title>A0</title>
<polygon fill="none" stroke="#000000" points=".5,-406 .5,-438 341.5,-438 341.5,-406 .5,-406"/>
<text text-anchor="start" x="155.163" y="-419" font-family="Helvetica,sans-Serif" font-size="10.00" fill="#000000">Torneo</text>
<polygon fill="none" stroke="#000000" points=".5,-302 .5,-406 341.5,-406 341.5,-302 .5,-302"/>
<text text-anchor="start" x="140.1605" y="-387" font-family="Helvetica,sans-Serif" font-size="10.00" fill="#000000">nombre:Texto</text>
<text text-anchor="start" x="131.822" y="-375" font-family="Helvetica,sans-Serif" font-size="10.00" fill="#000000">fechaInicio:Fecha</text>
<text text-anchor="start" x="102.6515" y="-363" font-family="Helvetica,sans-Serif" font-size="10.00" fill="#000000">fechaInicioInscripciones:Fecha</text>
<text text-anchor="start" x="100.712" y="-351" font-family="Helvetica,sans-Serif" font-size="10.00" fill="#000000">fechaCierreInscripciones:Fecha</text>
<text text-anchor="start" x="109.042" y="-339" font-family="Helvetica,sans-Serif" font-size="10.00" fill="#000000">numeroParticipantes:Entero</text>
<text text-anchor="start" x="131.5485" y="-327" font-family="Helvetica,sans-Serif" font-size="10.00" fill="#000000">limiteEdad:Entero</text>
<text text-anchor="start" x="120.1595" y="-315" font-family="Helvetica,sans-Serif" font-size="10.00" fill="#000000">valorInscripcion:Entero</text>
<polygon fill="none" stroke="#000000" points=".5,-6 .5,-302 341.5,-302 341.5,-6 .5,-6"/>
<text text-anchor="start" x="109.741" y="-283" font-family="Helvetica,sans-Serif" font-size="10.00" fill="#000000">+Constructor(nombre:Texto</text>
<text text-anchor="start" x="131.822" y="-271" font-family="Helvetica,sans-Serif" font-size="10.00" fill="#000000">fechaInicio:Fecha</text>
<text text-anchor="start" x="102.6515" y="-259" font-family="Helvetica,sans-Serif" font-size="10.00" fill="#000000">fechaInicioInscripciones:Fecha</text>
<text text-anchor="start" x="100.712" y="-247" font-family="Helvetica,sans-Serif" font-size="10.00" fill="#000000">fechaCierreInscripciones:Fecha</text>
<text text-anchor="start" x="109.042" y="-235" font-family="Helvetica,sans-Serif" font-size="10.00" fill="#000000">numeroParticipantes:Entero</text>
<text text-anchor="start" x="131.5485" y="-223" font-family="Helvetica,sans-Serif" font-size="10.00" fill="#000000">limiteEdad:Entero</text>
<text text-anchor="start" x="120.1595" y="-211" font-family="Helvetica,sans-Serif" font-size="10.00" fill="#000000">valorInscripcion:Entero</text>
<text text-anchor="start" x="120.1555" y="-199" font-family="Helvetica,sans-Serif" font-size="10.00" fill="#000000">tipoTorneo:TipoTorneo</text>
<text text-anchor="start" x="10.288" y="-187" font-family="Helvetica,sans-Serif" font-size="10.00" fill="#000000">caracter:CaracterTorneo)+registrarParticipante(participante:Participante)</text>
<text text-anchor="start" x="126.1335" y="-175" font-family="Helvetica,sans-Serif" font-size="10.00" fill="#000000">+getNombre():Texto</text>
<text text-anchor="start" x="116.96" y="-163" font-family="Helvetica,sans-Serif" font-size="10.00" fill="#000000">+getFechaInicio():Fecha</text>
<text text-anchor="start" x="87.7895" y="-151" font-family="Helvetica,sans-Serif" font-size="10.00" fill="#000000">+getFechaInicioInscripciones():Fecha</text>
<text text-anchor="start" x="85.85" y="-139" font-family="Helvetica,sans-Serif" font-size="10.00" fill="#000000">+getFechaCierreInscripciones():Fecha</text>
<text text-anchor="start" x="95.015" y="-127" font-family="Helvetica,sans-Serif" font-size="10.00" fill="#000000">+getNumeroParticipantes():Entero</text>
<text text-anchor="start" x="116.6815" y="-115" font-family="Helvetica,sans-Serif" font-size="10.00" fill="#000000">+getLimiteEdad():Entero</text>
<text text-anchor="start" x="106.128" y="-103" font-family="Helvetica,sans-Serif" font-size="10.00" fill="#000000">+getValorInscripcion():Entero</text>
<text text-anchor="start" x="105.2935" y="-91" font-family="Helvetica,sans-Serif" font-size="10.00" fill="#000000">+getTipoTorneo():TipoTorneo</text>
<text text-anchor="start" x="78.6215" y="-79" font-family="Helvetica,sans-Serif" font-size="10.00" fill="#000000">+getParticipantes():Participante［*］</text>
<text text-anchor="start" x="102.2435" y="-67" font-family="Helvetica,sans-Serif" font-size="10.00" fill="#000000">+getCaracter():CaracterTorneo</text>
<text text-anchor="start" x="93.344" y="-55" font-family="Helvetica,sans-Serif" font-size="10.00" fill="#000000">+setFechaInicio(fechaInicio:Fecha)</text>
<text text-anchor="start" x="35.003" y="-43" font-family="Helvetica,sans-Serif" font-size="10.00" fill="#000000">+setFechaInicioInscripciones(fechaInicioInscripciones:Fecha)</text>
<text text-anchor="start" x="31.124" y="-31" font-family="Helvetica,sans-Serif" font-size="10.00" fill="#000000">+setFechaCierreInscripciones(fechaCierreInscripciones:Fecha)</text>
<text text-anchor="start" x="67.65" y="-19" font-family="Helvetica,sans-Serif" font-size="10.00" fill="#000000">buscarParticipante(nombre:Texto):Participante</text>
</g>
<!-- A1 -->
<g id="node2" class="node">
<title>A1</title>
<polygon fill="none" stroke="#000000" points="422.5,-354 422.5,-398 493.5,-398 493.5,-354 422.5,-354"/>
<text text-anchor="start" x="433.264" y="-379" font-family="Helvetica,sans-Serif" font-size="10.00" fill="#000000">&lt;&lt;Enum&gt;&gt;</text>
<text text-anchor="start" x="432.44" y="-367" font-family="Helvetica,sans-Serif" font-size="10.00" fill="#000000">TipoTorneo</text>
<polygon fill="none" stroke="#000000" points="422.5,-286 422.5,-354 493.5,-354 493.5,-286 422.5,-286"/>
<text text-anchor="start" x="441.6075" y="-335" font-family="Helvetica,sans-Serif" font-size="10.00" fill="#000000">LOCAL</text>
<text text-anchor="start" x="432.164" y="-323" font-family="Helvetica,sans-Serif" font-size="10.00" fill="#000000">REGIONAL</text>
<text text-anchor="start" x="432.444" y="-311" font-family="Helvetica,sans-Serif" font-size="10.00" fill="#000000">NACIONAL</text>
<text text-anchor="start" x="435.5035" y="-299" font-family="Helvetica,sans-Serif" font-size="10.00" fill="#000000">MUNDIAL</text>
</g>
<!-- A0&#45;&gt;A1 -->
<g id="edge3" class="edge">
<title>A0&#45;&gt;A1</title>
<path fill="none" stroke="#000000" d="M341.1799,-293.3644C367.4553,-304.3506 392.4687,-314.8092 412.5205,-323.1932"/>
<polygon fill="#000000" stroke="#000000" points="421.9493,-327.1356 410.9874,-327.4297 417.3363,-325.2068 412.7233,-323.278 412.7233,-323.278 412.7233,-323.278 417.3363,-325.2068 414.4593,-319.1263 421.9493,-327.1356 421.9493,-327.1356"/>
<text text-anchor="middle" x="401.9656" y="-324.9415" font-family="Helvetica,sans-Serif" font-size="10.00" fill="#000000">tipoTorneo1</text>
<text text-anchor="middle" x="361.1636" y="-289.5585" font-family="Helvetica,sans-Serif" font-size="10.00" fill="#000000">*</text>
</g>
<!-- A4 -->
<g id="node5" class="node">
<title>A4</title>
<polygon fill="none" stroke="#000000" points="574,-252 574,-296 726,-296 726,-252 574,-252"/>
<text text-anchor="start" x="619.151" y="-277" font-family="Helvetica,sans-Serif" font-size="10.00" fill="#000000">&lt;&lt;interface&gt;&gt;</text>
<text text-anchor="start" x="623.6055" y="-265" font-family="Helvetica,sans-Serif" font-size="10.00" fill="#000000">Participante</text>
<polygon fill="none" stroke="#000000" points="574,-220 574,-252 726,-252 726,-220 574,-220"/>
<text text-anchor="start" x="583.7425" y="-233" font-family="Helvetica,sans-Serif" font-size="10.00" fill="#000000">+getNombreCompleto():Texto</text>
</g>
<!-- A0&#45;&gt;A4 -->
<g id="edge4" class="edge">
<title>A0&#45;&gt;A4</title>
<path fill="none" stroke="#000000" d="M353.3637,-236.151C366.1003,-237.1204 378.7415,-238.0778 391,-239 448.5189,-243.327 513.2329,-248.0744 563.5852,-251.7414"/>
<polygon fill="none" stroke="#000000" points="353.0978,-236.1308 346.8111,-239.6631 341.1326,-235.2186 347.4193,-231.6863 353.0978,-236.1308"/>
<polygon fill="#000000" stroke="#000000" points="573.7805,-252.4834 563.4802,-256.2456 568.7937,-252.1204 563.8069,-251.7574 563.8069,-251.7574 563.8069,-251.7574 568.7937,-252.1204 564.1336,-247.2693 573.7805,-252.4834 573.7805,-252.4834"/>
<text text-anchor="middle" x="555.0886" y="-256.5977" font-family="Helvetica,sans-Serif" font-size="10.00" fill="#000000">participantes*</text>
<text text-anchor="middle" x="359.8487" y="-225.1684" font-family="Helvetica,sans-Serif" font-size="10.00" fill="#000000">1</text>
</g>
<!-- A8 -->
<g id="node9" class="node">
<title>A8</title>
<polygon fill="none" stroke="#000000" points="412.5,-80 412.5,-124 502.5,-124 502.5,-80 412.5,-80"/>
<text text-anchor="start" x="432.764" y="-105" font-family="Helvetica,sans-Serif" font-size="10.00" fill="#000000">&lt;&lt;Enum&gt;&gt;</text>
<text text-anchor="start" x="422.4965" y="-93" font-family="Helvetica,sans-Serif" font-size="10.00" fill="#000000">CaracterTorneo</text>
<polygon fill="none" stroke="#000000" points="412.5,-36 412.5,-80 502.5,-80 502.5,-36 412.5,-36"/>
<text text-anchor="start" x="429.445" y="-61" font-family="Helvetica,sans-Serif" font-size="10.00" fill="#000000">INDIVIDUAL</text>
<text text-anchor="start" x="436.943" y="-49" font-family="Helvetica,sans-Serif" font-size="10.00" fill="#000000">GRUPAL</text>
</g>
<!-- A0&#45;&gt;A8 -->
<g id="edge2" class="edge">
<title>A0&#45;&gt;A8</title>
<path fill="none" stroke="#000000" d="M341.1799,-137.5521C363.6287,-126.445 385.1564,-115.7937 403.4556,-106.7397"/>
<polygon fill="#000000" stroke="#000000" points="412.443,-102.293 405.4756,-110.761 407.9615,-104.5104 403.48,-106.7277 403.48,-106.7277 403.48,-106.7277 407.9615,-104.5104 401.4844,-102.6944 412.443,-102.293 412.443,-102.293"/>
<text text-anchor="middle" x="399.9449" y="-114.9071" font-family="Helvetica,sans-Serif" font-size="10.00" fill="#000000">caracter1</text>
<text text-anchor="middle" x="353.6779" y="-118.9381" font-family="Helvetica,sans-Serif" font-size="10.00" fill="#000000">*</text>
</g>
<!-- A11 -->
<g id="node12" class="node">
<title>A11</title>
<polygon fill="none" stroke="#000000" points="391.5,-198 391.5,-230 524.5,-230 524.5,-198 391.5,-198"/>
<text text-anchor="start" x="440.2185" y="-211" font-family="Helvetica,sans-Serif" font-size="10.00" fill="#000000">Reporte</text>
<polygon fill="none" stroke="#000000" points="391.5,-142 391.5,-198 524.5,-198 524.5,-142 391.5,-142"/>
<text text-anchor="start" x="430.4895" y="-179" font-family="Helvetica,sans-Serif" font-size="10.00" fill="#000000">fecha:Fecha</text>
<text text-anchor="start" x="401.042" y="-167" font-family="Helvetica,sans-Serif" font-size="10.00" fill="#000000">participanteA:Participante</text>
<text text-anchor="start" x="401.042" y="-155" font-family="Helvetica,sans-Serif" font-size="10.00" fill="#000000">participanteB:Participante</text>
</g>
<!-- A0&#45;&gt;A11 -->
<g id="edge1" class="edge">
<title>A0&#45;&gt;A11</title>
<path fill="none" stroke="#000000" stroke-dasharray="5,2" d="M341.1799,-200.5907C354.816,-198.8802 368.1122,-197.2124 380.5515,-195.6521"/>
<polygon fill="#000000" stroke="#000000" points="390.7875,-194.3681 381.4254,-200.0778 385.8264,-194.9905 380.8653,-195.6128 380.8653,-195.6128 380.8653,-195.6128 385.8264,-194.9905 380.3052,-191.1478 390.7875,-194.3681 390.7875,-194.3681"/>
</g>
<!-- A2 -->
<g id="node3" class="node">
<title>A2</title>
<polygon fill="none" stroke="#000000" points="1507.3483,-220 1394.2167,-220 1394.2167,-184 1507.3483,-184 1507.3483,-220"/>
<text text-anchor="middle" x="1450.7825" y="-205" font-family="Helvetica,sans-Serif" font-size="10.00" fill="#000000">&lt;&lt;interface&gt;&gt;</text>
<text text-anchor="middle" x="1450.7825" y="-193" font-family="Helvetica,sans-Serif" font-size="10.00" fill="#000000">RegistroEstadistica</text>
</g>
<!-- A3 -->
<g id="node4" class="node">
<title>A3</title>
<polygon fill="none" stroke="#000000" points="1558.065,-202 1558.065,-234 1749.065,-234 1749.065,-202 1558.065,-202"/>
<text text-anchor="start" x="1601.3395" y="-215" font-family="Helvetica,sans-Serif" font-size="10.00" fill="#000000">RegistroEstadisticaImpl</text>
<polygon fill="none" stroke="#000000" points="1558.065,-170 1558.065,-202 1749.065,-202 1749.065,-170 1558.065,-170"/>
<text text-anchor="start" x="1567.718" y="-183" font-family="Helvetica,sans-Serif" font-size="10.00" fill="#000000">estadisticas:ValorEstadistica［*］</text>
</g>
<!-- A2&#45;&gt;A3 -->
<g id="edge18" class="edge">
<title>A2&#45;&gt;A3</title>
<path fill="none" stroke="#000000" d="M1517.4511,-202C1530.2319,-202 1543.8469,-202 1557.3332,-202"/>
<polygon fill="none" stroke="#000000" points="1517.3985,-198.5001 1507.3984,-202 1517.3984,-205.5001 1517.3985,-198.5001"/>
</g>
<!-- A2&#45;&gt;A4 -->
<g id="edge17" class="edge">
<title>A2&#45;&gt;A4</title>
<path fill="none" stroke="#000000" d="M1440.7368,-229.6801C1425.3893,-268.4836 1392.6644,-339.0991 1344,-382 1280.3921,-438.0746 1252.0227,-440.7504 1169,-458 993.06,-494.5549 931.2001,-453.5764 776,-363 744.275,-344.485 712.5287,-317.9679 688.8383,-296.2146"/>
<polygon fill="none" stroke="#000000" points="1444.1055,-230.6718 1444.434,-220.082 1437.5733,-228.1556 1444.1055,-230.6718"/>
</g>
<!-- A2JA9 -->
<!-- A2&#45;&gt;A2JA9 -->
<g id="edge10" class="edge">
<title>A2&#45;&gt;A2JA9</title>
<path fill="none" stroke="#000000" d="M1458.2918,-183.8849C1472.4563,-152.2926 1506.3696,-87.7494 1557.565,-59 1592.4141,-39.4301 1645.8567,-48.6436 1652.4009,-49.8717"/>
<text text-anchor="middle" x="1458.2774" y="-160.8849" font-family="Helvetica,sans-Serif" font-size="10.00" fill="#000000">*</text>
</g>
<!-- A5 -->
<g id="node6" class="node">
<title>A5</title>
<polygon fill="none" stroke="#000000" points="788.5,-322 788.5,-354 964.5,-354 964.5,-322 788.5,-322"/>
<text text-anchor="start" x="860.938" y="-335" font-family="Helvetica,sans-Serif" font-size="10.00" fill="#000000">Equipo</text>
<polygon fill="none" stroke="#000000" points="788.5,-290 788.5,-322 964.5,-322 964.5,-290 788.5,-290"/>
<text text-anchor="start" x="845.6605" y="-303" font-family="Helvetica,sans-Serif" font-size="10.00" fill="#000000">nombre:Texto</text>
<polygon fill="none" stroke="#000000" points="788.5,-210 788.5,-290 964.5,-290 964.5,-210 788.5,-210"/>
<text text-anchor="start" x="815.241" y="-271" font-family="Helvetica,sans-Serif" font-size="10.00" fill="#000000">+Constructor(nombre:Texto</text>
<text text-anchor="start" x="823.985" y="-259" font-family="Helvetica,sans-Serif" font-size="10.00" fill="#000000">representante:Persona)</text>
<text text-anchor="start" x="831.6335" y="-247" font-family="Helvetica,sans-Serif" font-size="10.00" fill="#000000">+getNombre():Texto</text>
<text text-anchor="start" x="810.5075" y="-235" font-family="Helvetica,sans-Serif" font-size="10.00" fill="#000000">+getRepresentante():Persona</text>
<text text-anchor="start" x="798.007" y="-223" font-family="Helvetica,sans-Serif" font-size="10.00" fill="#000000">+getJugadores():Jugador［*］</text>
</g>
<!-- A4&#45;&gt;A5 -->
<g id="edge9" class="edge">
<title>A4&#45;&gt;A5</title>
<path fill="none" stroke="#000000" d="M736.4611,-267.1614C753.3789,-268.9541 771.1429,-270.8363 788.1222,-272.6355"/>
<polygon fill="none" stroke="#000000" points="736.3645,-263.6317 726.0513,-266.0584 735.6268,-270.5927 736.3645,-263.6317"/>
</g>
<!-- A7 -->
<g id="node8" class="node">
<title>A7</title>
<polygon fill="none" stroke="#000000" points="1219.5,-193 1219.5,-225 1344.5,-225 1344.5,-193 1219.5,-193"/>
<text text-anchor="start" x="1263.938" y="-206" font-family="Helvetica,sans-Serif" font-size="10.00" fill="#000000">Jugador</text>
<polygon fill="none" stroke="#000000" points="1219.5,-161 1219.5,-193 1344.5,-193 1344.5,-161 1219.5,-161"/>
<text text-anchor="start" x="1229.489" y="-174" font-family="Helvetica,sans-Serif" font-size="10.00" fill="#000000">fechaNacimiento:Fecha</text>
</g>
<!-- A4&#45;&gt;A7 -->
<g id="edge8" class="edge">
<title>A4&#45;&gt;A7</title>
<path fill="none" stroke="#000000" d="M732.0437,-215.9732C746.3901,-210.057 761.4024,-204.7304 776,-201 931.1955,-161.3402 1122.0178,-174.1609 1218.7986,-184.792"/>
<polygon fill="none" stroke="#000000" points="730.557,-212.802 722.7232,-219.9352 733.2955,-219.2441 730.557,-212.802"/>
</g>
<!-- A5&#45;&gt;A2 -->
<g id="edge20" class="edge">
<title>A5&#45;&gt;A2</title>
<path fill="none" stroke="#000000" d="M926.1063,-354.2965C952.0857,-385.6916 986.86,-419.1026 1027,-436 1085.1673,-460.4863 1109.64,-457.4337 1169,-436 1285.711,-393.8581 1388.2193,-280.0009 1430.3645,-228.2445"/>
<polygon fill="#000000" stroke="#000000" points="1436.834,-220.2011 1434.073,-230.8137 1433.7003,-224.0972 1430.5665,-227.9933 1430.5665,-227.9933 1430.5665,-227.9933 1433.7003,-224.0972 1427.06,-225.1729 1436.834,-220.2011 1436.834,-220.2011"/>
</g>
<!-- A6 -->
<g id="node7" class="node">
<title>A6</title>
<polygon fill="none" stroke="#000000" points="1027,-395 1027,-427 1169,-427 1169,-395 1027,-395"/>
<text text-anchor="start" x="1079.383" y="-408" font-family="Helvetica,sans-Serif" font-size="10.00" fill="#000000">Persona</text>
<polygon fill="none" stroke="#000000" points="1027,-327 1027,-395 1169,-395 1169,-327 1027,-327"/>
<text text-anchor="start" x="1067.1605" y="-376" font-family="Helvetica,sans-Serif" font-size="10.00" fill="#000000">nombre:Texto</text>
<text text-anchor="start" x="1066.8815" y="-364" font-family="Helvetica,sans-Serif" font-size="10.00" fill="#000000">apellido:Texto</text>
<text text-anchor="start" x="1072.165" y="-352" font-family="Helvetica,sans-Serif" font-size="10.00" fill="#000000">email:Texto</text>
<text text-anchor="start" x="1069.3855" y="-340" font-family="Helvetica,sans-Serif" font-size="10.00" fill="#000000">celular:Texto</text>
<polygon fill="none" stroke="#000000" points="1027,-211 1027,-327 1169,-327 1169,-211 1027,-211"/>
<text text-anchor="start" x="1036.741" y="-308" font-family="Helvetica,sans-Serif" font-size="10.00" fill="#000000">+Constructor(nombre:Texto</text>
<text text-anchor="start" x="1066.8815" y="-296" font-family="Helvetica,sans-Serif" font-size="10.00" fill="#000000">apellido:Texto</text>
<text text-anchor="start" x="1072.165" y="-284" font-family="Helvetica,sans-Serif" font-size="10.00" fill="#000000">email:Texto</text>
<text text-anchor="start" x="1067.721" y="-272" font-family="Helvetica,sans-Serif" font-size="10.00" fill="#000000">celular:Texto)</text>
<text text-anchor="start" x="1053.1335" y="-260" font-family="Helvetica,sans-Serif" font-size="10.00" fill="#000000">+getNombre():Texto</text>
<text text-anchor="start" x="1053.1295" y="-248" font-family="Helvetica,sans-Serif" font-size="10.00" fill="#000000">+getApellido():Texto</text>
<text text-anchor="start" x="1058.413" y="-236" font-family="Helvetica,sans-Serif" font-size="10.00" fill="#000000">+getEmail():Texto</text>
<text text-anchor="start" x="1055.079" y="-224" font-family="Helvetica,sans-Serif" font-size="10.00" fill="#000000">+getCelular():Texto</text>
</g>
<!-- A5&#45;&gt;A6 -->
<g id="edge5" class="edge">
<title>A5&#45;&gt;A6</title>
<path fill="none" stroke="#000000" d="M976.8693,-298.766C990.1655,-300.987 1003.663,-303.2417 1016.5863,-305.4004"/>
<polygon fill="none" stroke="#000000" points="976.5151,-298.7069 969.938,-301.6636 964.6791,-296.7297 971.2562,-293.773 976.5151,-298.7069"/>
<polygon fill="#000000" stroke="#000000" points="1026.8125,-307.1086 1016.2077,-309.8995 1021.8808,-306.2848 1016.9491,-305.4609 1016.9491,-305.4609 1016.9491,-305.4609 1021.8808,-306.2848 1017.6906,-301.0224 1026.8125,-307.1086 1026.8125,-307.1086"/>
<text text-anchor="middle" x="1007.5414" y="-309.459" font-family="Helvetica,sans-Serif" font-size="10.00" fill="#000000">representante1</text>
<text text-anchor="middle" x="983.9502" y="-288.3793" font-family="Helvetica,sans-Serif" font-size="10.00" fill="#000000">1</text>
</g>
<!-- A5&#45;&gt;A7 -->
<g id="edge7" class="edge">
<title>A5&#45;&gt;A7</title>
<path fill="none" stroke="#000000" d="M975.6746,-221.3233C992.3043,-213.502 1009.7677,-206.6204 1027,-202 1086.7513,-185.9792 1157.215,-184.7828 1208.831,-186.9916"/>
<polygon fill="none" stroke="#000000" points="975.6651,-221.3279 972.0236,-227.552 964.8777,-226.5844 968.5192,-220.3603 975.6651,-221.3279"/>
<polygon fill="#000000" stroke="#000000" points="1218.8941,-187.4754 1208.6895,-191.4899 1213.8999,-187.2352 1208.9057,-186.9951 1208.9057,-186.9951 1208.9057,-186.9951 1213.8999,-187.2352 1209.1218,-182.5003 1218.8941,-187.4754 1218.8941,-187.4754"/>
<text text-anchor="middle" x="1200.383" y="-192.0476" font-family="Helvetica,sans-Serif" font-size="10.00" fill="#000000">jugador*</text>
<text text-anchor="middle" x="977.4697" y="-208.0461" font-family="Helvetica,sans-Serif" font-size="10.00" fill="#000000">1</text>
</g>
<!-- A6&#45;&gt;A7 -->
<g id="edge6" class="edge">
<title>A6&#45;&gt;A7</title>
<path fill="none" stroke="#000000" d="M1177.5114,-264.4036C1197.0165,-251.0105 1217.273,-237.1014 1234.6693,-225.1562"/>
<polygon fill="none" stroke="#000000" points="1175.471,-261.5589 1169.2085,-270.1048 1179.4334,-267.3295 1175.471,-261.5589"/>
</g>
<!-- A7&#45;&gt;A2 -->
<g id="edge19" class="edge">
<title>A7&#45;&gt;A2</title>
<path fill="none" stroke="#000000" d="M1344.0536,-196.3257C1356.9848,-197.0132 1370.6555,-197.74 1383.7393,-198.4356"/>
<polygon fill="#000000" stroke="#000000" points="1394.081,-198.9854 1383.8562,-202.9481 1389.0881,-198.7199 1384.0951,-198.4544 1384.0951,-198.4544 1384.0951,-198.4544 1389.0881,-198.7199 1384.3341,-193.9608 1394.081,-198.9854 1394.081,-198.9854"/>
</g>
<!-- A9 -->
<g id="node10" class="node">
<title>A9</title>
<polygon fill="none" stroke="#000000" points="1799.065,-50 1799.065,-82 1880.065,-82 1880.065,-50 1799.065,-50"/>
<text text-anchor="start" x="1815.394" y="-63" font-family="Helvetica,sans-Serif" font-size="10.00" fill="#000000">Estadistica</text>
<polygon fill="none" stroke="#000000" points="1799.065,-18 1799.065,-50 1880.065,-50 1880.065,-18 1799.065,-18"/>
<text text-anchor="start" x="1808.7255" y="-31" font-family="Helvetica,sans-Serif" font-size="10.00" fill="#000000">nombre:Texto</text>
</g>
<!-- A13 -->
<g id="node14" class="node">
<title>A13</title>
<polygon fill="none" stroke="#000000" points="1930.065,-56 1930.065,-100 2017.065,-100 2017.065,-56 1930.065,-56"/>
<text text-anchor="start" x="1948.829" y="-81" font-family="Helvetica,sans-Serif" font-size="10.00" fill="#000000">&lt;&lt;Enum&gt;&gt;</text>
<text text-anchor="start" x="1939.671" y="-69" font-family="Helvetica,sans-Serif" font-size="10.00" fill="#000000">TipoEstadistica</text>
<polygon fill="none" stroke="#000000" points="1930.065,0 1930.065,-56 2017.065,-56 2017.065,0 1930.065,0"/>
<text text-anchor="start" x="1950.504" y="-37" font-family="Helvetica,sans-Serif" font-size="10.00" fill="#000000">POSITIVA</text>
<text text-anchor="start" x="1948.284" y="-25" font-family="Helvetica,sans-Serif" font-size="10.00" fill="#000000">NEGATIVA</text>
<text text-anchor="start" x="1953.013" y="-13" font-family="Helvetica,sans-Serif" font-size="10.00" fill="#000000">NEUTRA</text>
</g>
<!-- A9&#45;&gt;A13 -->
<g id="edge13" class="edge">
<title>A9&#45;&gt;A13</title>
<path fill="none" stroke="#000000" d="M1879.6331,-50C1892.0326,-50 1905.8705,-50 1919.0168,-50"/>
<polygon fill="#000000" stroke="#000000" points="1929.3709,-50 1919.371,-54.5001 1924.3709,-50 1919.3709,-50.0001 1919.3709,-50.0001 1919.3709,-50.0001 1924.3709,-50 1919.3709,-45.5001 1929.3709,-50 1929.3709,-50"/>
<text text-anchor="middle" x="1911.2448" y="-55.4524" font-family="Helvetica,sans-Serif" font-size="10.00" fill="#000000">tipo1</text>
<text text-anchor="middle" x="1897.7592" y="-38.5476" font-family="Helvetica,sans-Serif" font-size="10.00" fill="#000000">*</text>
</g>
<!-- A10 -->
<g id="node11" class="node">
<title>A10</title>
<polygon fill="none" stroke="#000000" points="1594.065,-112 1594.065,-144 1712.065,-144 1712.065,-112 1594.065,-112"/>
<text text-anchor="start" x="1617.2265" y="-125" font-family="Helvetica,sans-Serif" font-size="10.00" fill="#000000">ValorEstadistica</text>
<polygon fill="none" stroke="#000000" points="1594.065,-68 1594.065,-112 1712.065,-112 1712.065,-68 1594.065,-68"/>
<text text-anchor="start" x="1630.5645" y="-93" font-family="Helvetica,sans-Serif" font-size="10.00" fill="#000000">valor:Real</text>
<text text-anchor="start" x="1603.8885" y="-81" font-family="Helvetica,sans-Serif" font-size="10.00" fill="#000000">estadistica:Estadistica</text>
</g>
<!-- A10&#45;&gt;A2JA9 -->
<g id="edge12" class="edge">
<title>A10&#45;&gt;A2JA9</title>
<path fill="none" stroke="#000000" stroke-dasharray="5,2" d="M1653.065,-67.8008C1653.065,-65.3591 1653.065,-62.9174 1653.065,-60.4756"/>
<polygon fill="#000000" stroke="#000000" points="1653.065,-50.4375 1657.5651,-60.4375 1653.065,-55.4375 1653.0651,-60.4375 1653.0651,-60.4375 1653.0651,-60.4375 1653.065,-55.4375 1648.5651,-60.4375 1653.065,-50.4375 1653.065,-50.4375"/>
</g>
<!-- A11&#45;&gt;A4 -->
<g id="edge16" class="edge">
<title>A11&#45;&gt;A4</title>
<path fill="none" stroke="#000000" d="M535.502,-215.1748C545.0035,-218.7286 554.7512,-222.3745 564.3563,-225.967"/>
<polygon fill="none" stroke="#000000" points="535.2567,-215.0831 528.2356,-216.7276 524.0171,-210.8791 531.0382,-209.2346 535.2567,-215.0831"/>
<polygon fill="#000000" stroke="#000000" points="573.8995,-229.5364 562.9567,-230.248 569.2163,-227.7848 564.5332,-226.0331 564.5332,-226.0331 564.5332,-226.0331 569.2163,-227.7848 566.1097,-221.8183 573.8995,-229.5364 573.8995,-229.5364"/>
<text text-anchor="middle" x="553.9609" y="-228.1031" font-family="Helvetica,sans-Serif" font-size="10.00" fill="#000000">2</text>
<text text-anchor="middle" x="543.9557" y="-206.3124" font-family="Helvetica,sans-Serif" font-size="10.00" fill="#000000">*</text>
</g>
<!-- A12 -->
<g id="node13" class="node">
<title>A12</title>
<polygon fill="none" stroke="#000000" points="776.5,-85 776.5,-117 977.5,-117 977.5,-85 776.5,-85"/>
<text text-anchor="start" x="840.607" y="-98" font-family="Helvetica,sans-Serif" font-size="10.00" fill="#000000">RegistroReporte</text>
<polygon fill="none" stroke="#000000" points="776.5,-41 776.5,-85 977.5,-85 977.5,-41 776.5,-41"/>
<text text-anchor="start" x="786.427" y="-66" font-family="Helvetica,sans-Serif" font-size="10.00" fill="#000000">estadisticaParticipanteA:ValorEstadistica</text>
<text text-anchor="start" x="786.427" y="-54" font-family="Helvetica,sans-Serif" font-size="10.00" fill="#000000">estadisticaParticipanteB:ValorEstadistica</text>
</g>
<!-- A11&#45;&gt;A12 -->
<g id="edge14" class="edge">
<title>A11&#45;&gt;A12</title>
<path fill="none" stroke="#000000" d="M536.2313,-165.8944C601.0138,-149.3509 693.5946,-125.7085 765.8352,-107.2605"/>
<polygon fill="none" stroke="#000000" points="535.982,-165.958 531.1583,-171.3182 524.3551,-168.9272 529.1788,-163.567 535.982,-165.958"/>
<polygon fill="#000000" stroke="#000000" points="775.8887,-104.6931 767.3131,-111.5275 771.0442,-105.9303 766.1996,-107.1675 766.1996,-107.1675 766.1996,-107.1675 771.0442,-105.9303 765.0862,-102.8074 775.8887,-104.6931 775.8887,-104.6931"/>
<text text-anchor="middle" x="760.4175" y="-114.3676" font-family="Helvetica,sans-Serif" font-size="10.00" fill="#000000">registros*</text>
<text text-anchor="middle" x="539.8263" y="-153.2527" font-family="Helvetica,sans-Serif" font-size="10.00" fill="#000000">1</text>
</g>
<!-- A12&#45;&gt;A10 -->
<g id="edge15" class="edge">
<title>A12&#45;&gt;A10</title>
<path fill="none" stroke="#000000" d="M989.2721,-82.9209C1152.3462,-88.5908 1449.1514,-98.9102 1583.588,-103.5844"/>
<polygon fill="none" stroke="#000000" points="989.2189,-82.9192 983.0835,-86.7082 977.2262,-82.5021 983.3616,-78.713 989.2189,-82.9192"/>
<polygon fill="#000000" stroke="#000000" points="1593.7592,-103.938 1583.6089,-108.0877 1588.7623,-103.7642 1583.7653,-103.5905 1583.7653,-103.5905 1583.7653,-103.5905 1588.7623,-103.7642 1583.9217,-99.0932 1593.7592,-103.938 1593.7592,-103.938"/>
<text text-anchor="middle" x="1575.3503" y="-108.7554" font-family="Helvetica,sans-Serif" font-size="10.00" fill="#000000">2</text>
<text text-anchor="middle" x="995.6351" y="-71.6847" font-family="Helvetica,sans-Serif" font-size="10.00" fill="#000000">*</text>
</g>
<!-- A2JA9&#45;&gt;A9 -->
<g id="edge11" class="edge">
<title>A2JA9&#45;&gt;A9</title>
<path fill="none" stroke="#000000" d="M1653.5986,-50C1660.6303,-50 1735.6442,-50 1788.086,-50"/>
<polygon fill="#000000" stroke="#000000" points="1798.2465,-50 1788.2466,-54.5001 1793.2465,-50 1788.2465,-50.0001 1788.2465,-50.0001 1788.2465,-50.0001 1793.2465,-50 1788.2465,-45.5001 1798.2465,-50 1798.2465,-50"/>
<text text-anchor="middle" x="1780.1204" y="-55.4524" font-family="Helvetica,sans-Serif" font-size="10.00" fill="#000000">*</text>
</g>
</g>
</svg>
