<?xml version="1.0" encoding="UTF-8" standalone="no"?>
<!DOCTYPE svg PUBLIC "-//W3C//DTD SVG 1.1//EN"
 "http://www.w3.org/Graphics/SVG/1.1/DTD/svg11.dtd">
<!-- Generated by graphviz version 2.40.1 (20161225.0304)
 -->
<!-- Title: G Pages: 1 -->
<svg width="2193pt" height="572pt"
 viewBox="0.00 0.00 2192.57 572.23" xmlns="http://www.w3.org/2000/svg" xmlns:xlink="http://www.w3.org/1999/xlink">
<g id="graph0" class="graph" transform="scale(1 1) rotate(0) translate(4 568.2256)">
<title>G</title>
<polygon fill="#ffffff" stroke="transparent" points="-4,4 -4,-568.2256 2188.565,-568.2256 2188.565,4 -4,4"/>
<!-- A0 -->
<g id="node1" class="node">
<title>A0</title>
<polygon fill="none" stroke="#000000" points=".5,-521.2256 .5,-553.2256 341.5,-553.2256 341.5,-521.2256 .5,-521.2256"/>
<text text-anchor="start" x="155.163" y="-534.2256" font-family="Helvetica,sans-Serif" font-size="10.00" fill="#000000">Torneo</text>
<polygon fill="none" stroke="#000000" points=".5,-417.2256 .5,-521.2256 341.5,-521.2256 341.5,-417.2256 .5,-417.2256"/>
<text text-anchor="start" x="140.1605" y="-502.2256" font-family="Helvetica,sans-Serif" font-size="10.00" fill="#000000">nombre:Texto</text>
<text text-anchor="start" x="131.822" y="-490.2256" font-family="Helvetica,sans-Serif" font-size="10.00" fill="#000000">fechaInicio:Fecha</text>
<text text-anchor="start" x="102.6515" y="-478.2256" font-family="Helvetica,sans-Serif" font-size="10.00" fill="#000000">fechaInicioInscripciones:Fecha</text>
<text text-anchor="start" x="100.712" y="-466.2256" font-family="Helvetica,sans-Serif" font-size="10.00" fill="#000000">fechaCierreInscripciones:Fecha</text>
<text text-anchor="start" x="109.042" y="-454.2256" font-family="Helvetica,sans-Serif" font-size="10.00" fill="#000000">numeroParticipantes:Entero</text>
<text text-anchor="start" x="131.5485" y="-442.2256" font-family="Helvetica,sans-Serif" font-size="10.00" fill="#000000">limiteEdad:Entero</text>
<text text-anchor="start" x="120.1595" y="-430.2256" font-family="Helvetica,sans-Serif" font-size="10.00" fill="#000000">valorInscripcion:Entero</text>
<polygon fill="none" stroke="#000000" points=".5,-121.2256 .5,-417.2256 341.5,-417.2256 341.5,-121.2256 .5,-121.2256"/>
<text text-anchor="start" x="109.741" y="-398.2256" font-family="Helvetica,sans-Serif" font-size="10.00" fill="#000000">+Constructor(nombre:Texto</text>
<text text-anchor="start" x="131.822" y="-386.2256" font-family="Helvetica,sans-Serif" font-size="10.00" fill="#000000">fechaInicio:Fecha</text>
<text text-anchor="start" x="102.6515" y="-374.2256" font-family="Helvetica,sans-Serif" font-size="10.00" fill="#000000">fechaInicioInscripciones:Fecha</text>
<text text-anchor="start" x="100.712" y="-362.2256" font-family="Helvetica,sans-Serif" font-size="10.00" fill="#000000">fechaCierreInscripciones:Fecha</text>
<text text-anchor="start" x="109.042" y="-350.2256" font-family="Helvetica,sans-Serif" font-size="10.00" fill="#000000">numeroParticipantes:Entero</text>
<text text-anchor="start" x="131.5485" y="-338.2256" font-family="Helvetica,sans-Serif" font-size="10.00" fill="#000000">limiteEdad:Entero</text>
<text text-anchor="start" x="120.1595" y="-326.2256" font-family="Helvetica,sans-Serif" font-size="10.00" fill="#000000">valorInscripcion:Entero</text>
<text text-anchor="start" x="120.1555" y="-314.2256" font-family="Helvetica,sans-Serif" font-size="10.00" fill="#000000">tipoTorneo:TipoTorneo</text>
<text text-anchor="start" x="10.288" y="-302.2256" font-family="Helvetica,sans-Serif" font-size="10.00" fill="#000000">caracter:CaracterTorneo)+registrarParticipante(participante:Participante)</text>
<text text-anchor="start" x="126.1335" y="-290.2256" font-family="Helvetica,sans-Serif" font-size="10.00" fill="#000000">+getNombre():Texto</text>
<text text-anchor="start" x="116.96" y="-278.2256" font-family="Helvetica,sans-Serif" font-size="10.00" fill="#000000">+getFechaInicio():Fecha</text>
<text text-anchor="start" x="87.7895" y="-266.2256" font-family="Helvetica,sans-Serif" font-size="10.00" fill="#000000">+getFechaInicioInscripciones():Fecha</text>
<text text-anchor="start" x="85.85" y="-254.2256" font-family="Helvetica,sans-Serif" font-size="10.00" fill="#000000">+getFechaCierreInscripciones():Fecha</text>
<text text-anchor="start" x="95.015" y="-242.2256" font-family="Helvetica,sans-Serif" font-size="10.00" fill="#000000">+getNumeroParticipantes():Entero</text>
<text text-anchor="start" x="116.6815" y="-230.2256" font-family="Helvetica,sans-Serif" font-size="10.00" fill="#000000">+getLimiteEdad():Entero</text>
<text text-anchor="start" x="106.128" y="-218.2256" font-family="Helvetica,sans-Serif" font-size="10.00" fill="#000000">+getValorInscripcion():Entero</text>
<text text-anchor="start" x="105.2935" y="-206.2256" font-family="Helvetica,sans-Serif" font-size="10.00" fill="#000000">+getTipoTorneo():TipoTorneo</text>
<text text-anchor="start" x="78.6215" y="-194.2256" font-family="Helvetica,sans-Serif" font-size="10.00" fill="#000000">+getParticipantes():Participante［*］</text>
<text text-anchor="start" x="102.2435" y="-182.2256" font-family="Helvetica,sans-Serif" font-size="10.00" fill="#000000">+getCaracter():CaracterTorneo</text>
<text text-anchor="start" x="93.344" y="-170.2256" font-family="Helvetica,sans-Serif" font-size="10.00" fill="#000000">+setFechaInicio(fechaInicio:Fecha)</text>
<text text-anchor="start" x="35.003" y="-158.2256" font-family="Helvetica,sans-Serif" font-size="10.00" fill="#000000">+setFechaInicioInscripciones(fechaInicioInscripciones:Fecha)</text>
<text text-anchor="start" x="31.124" y="-146.2256" font-family="Helvetica,sans-Serif" font-size="10.00" fill="#000000">+setFechaCierreInscripciones(fechaCierreInscripciones:Fecha)</text>
<text text-anchor="start" x="67.65" y="-134.2256" font-family="Helvetica,sans-Serif" font-size="10.00" fill="#000000">buscarParticipante(nombre:Texto):Participante</text>
</g>
<!-- A1 -->
<g id="node2" class="node">
<title>A1</title>
<polygon fill="none" stroke="#000000" points="422.5,-520.2256 422.5,-564.2256 493.5,-564.2256 493.5,-520.2256 422.5,-520.2256"/>
<text text-anchor="start" x="433.264" y="-545.2256" font-family="Helvetica,sans-Serif" font-size="10.00" fill="#000000">&lt;&lt;Enum&gt;&gt;</text>
<text text-anchor="start" x="432.44" y="-533.2256" font-family="Helvetica,sans-Serif" font-size="10.00" fill="#000000">TipoTorneo</text>
<polygon fill="none" stroke="#000000" points="422.5,-452.2256 422.5,-520.2256 493.5,-520.2256 493.5,-452.2256 422.5,-452.2256"/>
<text text-anchor="start" x="441.6075" y="-501.2256" font-family="Helvetica,sans-Serif" font-size="10.00" fill="#000000">LOCAL</text>
<text text-anchor="start" x="432.164" y="-489.2256" font-family="Helvetica,sans-Serif" font-size="10.00" fill="#000000">REGIONAL</text>
<text text-anchor="start" x="432.444" y="-477.2256" font-family="Helvetica,sans-Serif" font-size="10.00" fill="#000000">NACIONAL</text>
<text text-anchor="start" x="435.5035" y="-465.2256" font-family="Helvetica,sans-Serif" font-size="10.00" fill="#000000">MUNDIAL</text>
</g>
<!-- A0&#45;&gt;A1 -->
<g id="edge3" class="edge">
<title>A0&#45;&gt;A1</title>
<path fill="none" stroke="#000000" d="M341.1799,-438.9199C367.8136,-454.7887 393.1507,-469.8851 413.338,-481.9131"/>
<polygon fill="#000000" stroke="#000000" points="421.9493,-487.0438 411.0552,-485.7911 417.654,-484.4846 413.3586,-481.9253 413.3586,-481.9253 413.3586,-481.9253 417.654,-484.4846 415.6619,-478.0594 421.9493,-487.0438 421.9493,-487.0438"/>
<text text-anchor="middle" x="402.0513" y="-482.0271" font-family="Helvetica,sans-Serif" font-size="10.00" fill="#000000">tipoTorneo1</text>
<text text-anchor="middle" x="361.0779" y="-437.9366" font-family="Helvetica,sans-Serif" font-size="10.00" fill="#000000">*</text>
</g>
<!-- A4 -->
<g id="node5" class="node">
<title>A4</title>
<polygon fill="none" stroke="#000000" points="574,-280.2256 574,-324.2256 726,-324.2256 726,-280.2256 574,-280.2256"/>
<text text-anchor="start" x="619.151" y="-305.2256" font-family="Helvetica,sans-Serif" font-size="10.00" fill="#000000">&lt;&lt;interface&gt;&gt;</text>
<text text-anchor="start" x="623.6055" y="-293.2256" font-family="Helvetica,sans-Serif" font-size="10.00" fill="#000000">Participante</text>
<polygon fill="none" stroke="#000000" points="574,-248.2256 574,-280.2256 726,-280.2256 726,-248.2256 574,-248.2256"/>
<text text-anchor="start" x="583.7425" y="-261.2256" font-family="Helvetica,sans-Serif" font-size="10.00" fill="#000000">+getNombreCompleto():Texto</text>
</g>
<!-- A0&#45;&gt;A4 -->
<g id="edge4" class="edge">
<title>A0&#45;&gt;A4</title>
<path fill="none" stroke="#000000" d="M352.7987,-242.1337C365.5133,-237.8314 378.3172,-234.1158 391,-231.2256 448.6336,-218.092 466.1361,-219.1469 524,-231.2256 538.2378,-234.1976 552.8367,-238.8712 566.8181,-244.2677"/>
<polygon fill="none" stroke="#000000" points="352.4694,-242.2498 348.1423,-248.0184 341.1532,-246.2428 345.4803,-240.4742 352.4694,-242.2498"/>
<polygon fill="#000000" stroke="#000000" points="576.3868,-248.1073 565.4303,-248.5596 571.7465,-246.2453 567.1061,-244.3832 567.1061,-244.3832 567.1061,-244.3832 571.7465,-246.2453 568.7819,-240.2069 576.3868,-248.1073 576.3868,-248.1073"/>
<text text-anchor="middle" x="556.4168" y="-246.2015" font-family="Helvetica,sans-Serif" font-size="10.00" fill="#000000">participantes*</text>
<text text-anchor="middle" x="355.434" y="-229.2407" font-family="Helvetica,sans-Serif" font-size="10.00" fill="#000000">1</text>
</g>
<!-- A8 -->
<g id="node9" class="node">
<title>A8</title>
<polygon fill="none" stroke="#000000" points="412.5,-284.2256 412.5,-328.2256 502.5,-328.2256 502.5,-284.2256 412.5,-284.2256"/>
<text text-anchor="start" x="432.764" y="-309.2256" font-family="Helvetica,sans-Serif" font-size="10.00" fill="#000000">&lt;&lt;Enum&gt;&gt;</text>
<text text-anchor="start" x="422.4965" y="-297.2256" font-family="Helvetica,sans-Serif" font-size="10.00" fill="#000000">CaracterTorneo</text>
<polygon fill="none" stroke="#000000" points="412.5,-240.2256 412.5,-284.2256 502.5,-284.2256 502.5,-240.2256 412.5,-240.2256"/>
<text text-anchor="start" x="429.445" y="-265.2256" font-family="Helvetica,sans-Serif" font-size="10.00" fill="#000000">INDIVIDUAL</text>
<text text-anchor="start" x="436.943" y="-253.2256" font-family="Helvetica,sans-Serif" font-size="10.00" fill="#000000">GRUPAL</text>
</g>
<!-- A0&#45;&gt;A8 -->
<g id="edge2" class="edge">
<title>A0&#45;&gt;A8</title>
<path fill="none" stroke="#000000" d="M341.1799,-305.7063C363.2186,-301.6364 384.3697,-297.7305 402.4497,-294.3917"/>
<polygon fill="#000000" stroke="#000000" points="412.443,-292.5462 403.4265,-298.7875 407.5261,-293.4543 402.6093,-294.3623 402.6093,-294.3623 402.6093,-294.3623 407.5261,-293.4543 401.792,-289.9371 412.443,-292.5462 412.443,-292.5462"/>
<text text-anchor="middle" x="396.1532" y="-301.1497" font-family="Helvetica,sans-Serif" font-size="10.00" fill="#000000">caracter1</text>
<text text-anchor="middle" x="357.4697" y="-291.1028" font-family="Helvetica,sans-Serif" font-size="10.00" fill="#000000">*</text>
</g>
<!-- A11 -->
<g id="node12" class="node">
<title>A11</title>
<polygon fill="none" stroke="#000000" points="391.5,-402.2256 391.5,-434.2256 524.5,-434.2256 524.5,-402.2256 391.5,-402.2256"/>
<text text-anchor="start" x="440.2185" y="-415.2256" font-family="Helvetica,sans-Serif" font-size="10.00" fill="#000000">Reporte</text>
<polygon fill="none" stroke="#000000" points="391.5,-346.2256 391.5,-402.2256 524.5,-402.2256 524.5,-346.2256 391.5,-346.2256"/>
<text text-anchor="start" x="430.4895" y="-383.2256" font-family="Helvetica,sans-Serif" font-size="10.00" fill="#000000">fecha:Fecha</text>
<text text-anchor="start" x="401.042" y="-371.2256" font-family="Helvetica,sans-Serif" font-size="10.00" fill="#000000">participanteA:Participante</text>
<text text-anchor="start" x="401.042" y="-359.2256" font-family="Helvetica,sans-Serif" font-size="10.00" fill="#000000">participanteB:Participante</text>
</g>
<!-- A0&#45;&gt;A11 -->
<g id="edge1" class="edge">
<title>A0&#45;&gt;A11</title>
<path fill="none" stroke="#000000" stroke-dasharray="5,2" d="M341.1799,-368.7449C354.9523,-371.2882 368.3781,-373.7675 380.9244,-376.0845"/>
<polygon fill="#000000" stroke="#000000" points="390.7875,-377.9059 380.1366,-380.515 385.8707,-376.9978 380.9538,-376.0898 380.9538,-376.0898 380.9538,-376.0898 385.8707,-376.9978 381.771,-371.6646 390.7875,-377.9059 390.7875,-377.9059"/>
</g>
<!-- A2 -->
<g id="node3" class="node">
<title>A2</title>
<polygon fill="none" stroke="#000000" points="1507.3483,-225.2256 1394.2167,-225.2256 1394.2167,-189.2256 1507.3483,-189.2256 1507.3483,-225.2256"/>
<text text-anchor="middle" x="1450.7825" y="-210.2256" font-family="Helvetica,sans-Serif" font-size="10.00" fill="#000000">&lt;&lt;interface&gt;&gt;</text>
<text text-anchor="middle" x="1450.7825" y="-198.2256" font-family="Helvetica,sans-Serif" font-size="10.00" fill="#000000">RegistroEstadistica</text>
</g>
<!-- A3 -->
<g id="node4" class="node">
<title>A3</title>
<polygon fill="none" stroke="#000000" points="1558.065,-240.2256 1558.065,-272.2256 1749.065,-272.2256 1749.065,-240.2256 1558.065,-240.2256"/>
<text text-anchor="start" x="1601.3395" y="-253.2256" font-family="Helvetica,sans-Serif" font-size="10.00" fill="#000000">RegistroEstadisticaImpl</text>
<polygon fill="none" stroke="#000000" points="1558.065,-208.2256 1558.065,-240.2256 1749.065,-240.2256 1749.065,-208.2256 1558.065,-208.2256"/>
<text text-anchor="start" x="1567.718" y="-221.2256" font-family="Helvetica,sans-Serif" font-size="10.00" fill="#000000">estadisticas:ValorEstadistica［*］</text>
</g>
<!-- A2&#45;&gt;A3 -->
<g id="edge18" class="edge">
<title>A2&#45;&gt;A3</title>
<path fill="none" stroke="#000000" d="M1517.4511,-218.1018C1530.2319,-220.1868 1543.8469,-222.4079 1557.3332,-224.6081"/>
<polygon fill="none" stroke="#000000" points="1517.8315,-214.6177 1507.3984,-216.4618 1516.7044,-221.5263 1517.8315,-214.6177"/>
</g>
<!-- A2&#45;&gt;A4 -->
<g id="edge17" class="edge">
<title>A2&#45;&gt;A4</title>
<path fill="none" stroke="#000000" d="M1392.7459,-228.566C1336.3972,-248.3157 1248.0306,-276.7422 1169,-291.2256 997.0856,-322.7311 950.2883,-318.2925 776,-305.2256 759.7856,-304.0099 742.4954,-301.9261 726.0838,-299.5729"/>
<polygon fill="none" stroke="#000000" points="1393.9314,-231.8592 1402.1959,-225.2298 1391.6011,-225.2585 1393.9314,-231.8592"/>
</g>
<!-- A3JA9 -->
<!-- A3&#45;&gt;A3JA9 -->
<g id="edge10" class="edge">
<title>A3&#45;&gt;A3JA9</title>
<path fill="none" stroke="#000000" d="M1748.7287,-241.1612C1798.6256,-241.6492 1850.6227,-242.1577 1856.9274,-242.2194"/>
<text text-anchor="middle" x="1766.9367" y="-229.8865" font-family="Helvetica,sans-Serif" font-size="10.00" fill="#000000">*</text>
</g>
<!-- A5 -->
<g id="node6" class="node">
<title>A5</title>
<polygon fill="none" stroke="#000000" points="788.5,-122.2256 788.5,-154.2256 964.5,-154.2256 964.5,-122.2256 788.5,-122.2256"/>
<text text-anchor="start" x="860.938" y="-135.2256" font-family="Helvetica,sans-Serif" font-size="10.00" fill="#000000">Equipo</text>
<polygon fill="none" stroke="#000000" points="788.5,-90.2256 788.5,-122.2256 964.5,-122.2256 964.5,-90.2256 788.5,-90.2256"/>
<text text-anchor="start" x="845.6605" y="-103.2256" font-family="Helvetica,sans-Serif" font-size="10.00" fill="#000000">nombre:Texto</text>
<polygon fill="none" stroke="#000000" points="788.5,-10.2256 788.5,-90.2256 964.5,-90.2256 964.5,-10.2256 788.5,-10.2256"/>
<text text-anchor="start" x="815.241" y="-71.2256" font-family="Helvetica,sans-Serif" font-size="10.00" fill="#000000">+Constructor(nombre:Texto</text>
<text text-anchor="start" x="823.985" y="-59.2256" font-family="Helvetica,sans-Serif" font-size="10.00" fill="#000000">representante:Persona)</text>
<text text-anchor="start" x="831.6335" y="-47.2256" font-family="Helvetica,sans-Serif" font-size="10.00" fill="#000000">+getNombre():Texto</text>
<text text-anchor="start" x="810.5075" y="-35.2256" font-family="Helvetica,sans-Serif" font-size="10.00" fill="#000000">+getRepresentante():Persona</text>
<text text-anchor="start" x="798.007" y="-23.2256" font-family="Helvetica,sans-Serif" font-size="10.00" fill="#000000">+getJugadores():Jugador［*］</text>
</g>
<!-- A4&#45;&gt;A5 -->
<g id="edge9" class="edge">
<title>A4&#45;&gt;A5</title>
<path fill="none" stroke="#000000" d="M700.0871,-241.114C728.3221,-215.6838 764.258,-183.3177 796.3184,-154.4422"/>
<polygon fill="none" stroke="#000000" points="697.4254,-238.801 692.3372,-248.0941 702.1101,-244.0023 697.4254,-238.801"/>
</g>
<!-- A7 -->
<g id="node8" class="node">
<title>A7</title>
<polygon fill="none" stroke="#000000" points="1219.5,-169.2256 1219.5,-201.2256 1344.5,-201.2256 1344.5,-169.2256 1219.5,-169.2256"/>
<text text-anchor="start" x="1263.938" y="-182.2256" font-family="Helvetica,sans-Serif" font-size="10.00" fill="#000000">Jugador</text>
<polygon fill="none" stroke="#000000" points="1219.5,-137.2256 1219.5,-169.2256 1344.5,-169.2256 1344.5,-137.2256 1219.5,-137.2256"/>
<text text-anchor="start" x="1229.489" y="-150.2256" font-family="Helvetica,sans-Serif" font-size="10.00" fill="#000000">fechaNacimiento:Fecha</text>
</g>
<!-- A4&#45;&gt;A7 -->
<g id="edge8" class="edge">
<title>A4&#45;&gt;A7</title>
<path fill="none" stroke="#000000" d="M736.265,-289.9572C863.0102,-294.2798 1092.7735,-297.372 1169,-267.2256 1203.4447,-253.6032 1234.5113,-224.6209 1255.226,-201.6892"/>
<polygon fill="none" stroke="#000000" points="736.3162,-286.4569 726.1995,-289.6039 736.0706,-293.4526 736.3162,-286.4569"/>
</g>
<!-- A5&#45;&gt;A2 -->
<g id="edge20" class="edge">
<title>A5&#45;&gt;A2</title>
<path fill="none" stroke="#000000" d="M964.5713,-33.5515C984.5312,-24.7281 1006.0384,-16.8619 1027,-12.2256 1088.6218,1.404 1108.5728,5.9832 1169,-12.2256 1277.502,-44.9209 1380.5428,-136.9196 1426.1792,-181.8694"/>
<polygon fill="#000000" stroke="#000000" points="1433.5132,-189.1777 1423.2533,-185.3066 1429.9714,-185.6483 1426.4297,-182.119 1426.4297,-182.119 1426.4297,-182.119 1429.9714,-185.6483 1429.6061,-178.9314 1433.5132,-189.1777 1433.5132,-189.1777"/>
</g>
<!-- A6 -->
<g id="node7" class="node">
<title>A6</title>
<polygon fill="none" stroke="#000000" points="1027,-226.2256 1027,-258.2256 1169,-258.2256 1169,-226.2256 1027,-226.2256"/>
<text text-anchor="start" x="1079.383" y="-239.2256" font-family="Helvetica,sans-Serif" font-size="10.00" fill="#000000">Persona</text>
<polygon fill="none" stroke="#000000" points="1027,-158.2256 1027,-226.2256 1169,-226.2256 1169,-158.2256 1027,-158.2256"/>
<text text-anchor="start" x="1067.1605" y="-207.2256" font-family="Helvetica,sans-Serif" font-size="10.00" fill="#000000">nombre:Texto</text>
<text text-anchor="start" x="1066.8815" y="-195.2256" font-family="Helvetica,sans-Serif" font-size="10.00" fill="#000000">apellido:Texto</text>
<text text-anchor="start" x="1072.165" y="-183.2256" font-family="Helvetica,sans-Serif" font-size="10.00" fill="#000000">email:Texto</text>
<text text-anchor="start" x="1069.3855" y="-171.2256" font-family="Helvetica,sans-Serif" font-size="10.00" fill="#000000">celular:Texto</text>
<polygon fill="none" stroke="#000000" points="1027,-42.2256 1027,-158.2256 1169,-158.2256 1169,-42.2256 1027,-42.2256"/>
<text text-anchor="start" x="1036.741" y="-139.2256" font-family="Helvetica,sans-Serif" font-size="10.00" fill="#000000">+Constructor(nombre:Texto</text>
<text text-anchor="start" x="1066.8815" y="-127.2256" font-family="Helvetica,sans-Serif" font-size="10.00" fill="#000000">apellido:Texto</text>
<text text-anchor="start" x="1072.165" y="-115.2256" font-family="Helvetica,sans-Serif" font-size="10.00" fill="#000000">email:Texto</text>
<text text-anchor="start" x="1067.721" y="-103.2256" font-family="Helvetica,sans-Serif" font-size="10.00" fill="#000000">celular:Texto)</text>
<text text-anchor="start" x="1053.1335" y="-91.2256" font-family="Helvetica,sans-Serif" font-size="10.00" fill="#000000">+getNombre():Texto</text>
<text text-anchor="start" x="1053.1295" y="-79.2256" font-family="Helvetica,sans-Serif" font-size="10.00" fill="#000000">+getApellido():Texto</text>
<text text-anchor="start" x="1058.413" y="-67.2256" font-family="Helvetica,sans-Serif" font-size="10.00" fill="#000000">+getEmail():Texto</text>
<text text-anchor="start" x="1055.079" y="-55.2256" font-family="Helvetica,sans-Serif" font-size="10.00" fill="#000000">+getCelular():Texto</text>
</g>
<!-- A5&#45;&gt;A6 -->
<g id="edge5" class="edge">
<title>A5&#45;&gt;A6</title>
<path fill="none" stroke="#000000" d="M976.3786,-112.8881C989.9316,-117.0488 1003.704,-121.2769 1016.8731,-125.3198"/>
<polygon fill="none" stroke="#000000" points="976.1507,-112.8182 969.241,-114.8812 964.6791,-109.2964 971.5888,-107.2334 976.1507,-112.8182"/>
<polygon fill="#000000" stroke="#000000" points="1026.8125,-128.3712 1015.9321,-129.7382 1022.0326,-126.9038 1017.2528,-125.4363 1017.2528,-125.4363 1017.2528,-125.4363 1022.0326,-126.9038 1018.5735,-121.1345 1026.8125,-128.3712 1026.8125,-128.3712"/>
<text text-anchor="middle" x="1007.0039" y="-128.1317" font-family="Helvetica,sans-Serif" font-size="10.00" fill="#000000">representante1</text>
<text text-anchor="middle" x="984.4877" y="-103.5359" font-family="Helvetica,sans-Serif" font-size="10.00" fill="#000000">1</text>
</g>
<!-- A5&#45;&gt;A7 -->
<g id="edge7" class="edge">
<title>A5&#45;&gt;A7</title>
<path fill="none" stroke="#000000" d="M976.1545,-37.302C1034.6696,-17.681 1108.7267,-4.8617 1169,-33.2256 1210.436,-52.7249 1241.8331,-95.807 1260.7909,-128.2918"/>
<polygon fill="none" stroke="#000000" points="975.9985,-37.3563 971.6498,-43.1085 964.6674,-41.3067 969.0162,-35.5544 975.9985,-37.3563"/>
<polygon fill="#000000" stroke="#000000" points="1265.8061,-137.1447 1256.9617,-130.662 1263.3416,-132.7943 1260.877,-128.4439 1260.877,-128.4439 1260.877,-128.4439 1263.3416,-132.7943 1264.7924,-126.2258 1265.8061,-137.1447 1265.8061,-137.1447"/>
<text text-anchor="middle" x="1249.5174" y="-122.5396" font-family="Helvetica,sans-Serif" font-size="10.00" fill="#000000">jugador*</text>
<text text-anchor="middle" x="979.0008" y="-24.3584" font-family="Helvetica,sans-Serif" font-size="10.00" fill="#000000">1</text>
</g>
<!-- A6&#45;&gt;A7 -->
<g id="edge6" class="edge">
<title>A6&#45;&gt;A7</title>
<path fill="none" stroke="#000000" d="M1179.3108,-158.6447C1192.6219,-160.023 1206.23,-161.432 1218.9946,-162.7536"/>
<polygon fill="none" stroke="#000000" points="1179.5159,-155.1473 1169.2085,-157.5987 1178.7949,-162.1101 1179.5159,-155.1473"/>
</g>
<!-- A7&#45;&gt;A2 -->
<g id="edge19" class="edge">
<title>A7&#45;&gt;A2</title>
<path fill="none" stroke="#000000" d="M1344.0536,-183.2674C1357.1128,-186.1989 1370.9263,-189.2997 1384.1277,-192.2631"/>
<polygon fill="#000000" stroke="#000000" points="1394.081,-194.4974 1383.3382,-196.6978 1389.2024,-193.4022 1384.3238,-192.3071 1384.3238,-192.3071 1384.3238,-192.3071 1389.2024,-193.4022 1385.3095,-187.9163 1394.081,-194.4974 1394.081,-194.4974"/>
</g>
<!-- A9 -->
<g id="node10" class="node">
<title>A9</title>
<polygon fill="none" stroke="#000000" points="1967.065,-242.2256 1967.065,-274.2256 2048.065,-274.2256 2048.065,-242.2256 1967.065,-242.2256"/>
<text text-anchor="start" x="1983.394" y="-255.2256" font-family="Helvetica,sans-Serif" font-size="10.00" fill="#000000">Estadistica</text>
<polygon fill="none" stroke="#000000" points="1967.065,-210.2256 1967.065,-242.2256 2048.065,-242.2256 2048.065,-210.2256 1967.065,-210.2256"/>
<text text-anchor="start" x="1976.7255" y="-223.2256" font-family="Helvetica,sans-Serif" font-size="10.00" fill="#000000">nombre:Texto</text>
</g>
<!-- A13 -->
<g id="node14" class="node">
<title>A13</title>
<polygon fill="none" stroke="#000000" points="2098.065,-248.2256 2098.065,-292.2256 2185.065,-292.2256 2185.065,-248.2256 2098.065,-248.2256"/>
<text text-anchor="start" x="2116.829" y="-273.2256" font-family="Helvetica,sans-Serif" font-size="10.00" fill="#000000">&lt;&lt;Enum&gt;&gt;</text>
<text text-anchor="start" x="2107.671" y="-261.2256" font-family="Helvetica,sans-Serif" font-size="10.00" fill="#000000">TipoEstadistica</text>
<polygon fill="none" stroke="#000000" points="2098.065,-192.2256 2098.065,-248.2256 2185.065,-248.2256 2185.065,-192.2256 2098.065,-192.2256"/>
<text text-anchor="start" x="2118.504" y="-229.2256" font-family="Helvetica,sans-Serif" font-size="10.00" fill="#000000">POSITIVA</text>
<text text-anchor="start" x="2116.284" y="-217.2256" font-family="Helvetica,sans-Serif" font-size="10.00" fill="#000000">NEGATIVA</text>
<text text-anchor="start" x="2121.013" y="-205.2256" font-family="Helvetica,sans-Serif" font-size="10.00" fill="#000000">NEUTRA</text>
</g>
<!-- A9&#45;&gt;A13 -->
<g id="edge13" class="edge">
<title>A9&#45;&gt;A13</title>
<path fill="none" stroke="#000000" d="M2047.6331,-242.2256C2060.0326,-242.2256 2073.8705,-242.2256 2087.0168,-242.2256"/>
<polygon fill="#000000" stroke="#000000" points="2097.3709,-242.2256 2087.371,-246.7257 2092.3709,-242.2256 2087.3709,-242.2257 2087.3709,-242.2257 2087.3709,-242.2257 2092.3709,-242.2256 2087.3709,-237.7257 2097.3709,-242.2256 2097.3709,-242.2256"/>
<text text-anchor="middle" x="2079.2448" y="-247.678" font-family="Helvetica,sans-Serif" font-size="10.00" fill="#000000">tipo1</text>
<text text-anchor="middle" x="2065.7592" y="-230.7732" font-family="Helvetica,sans-Serif" font-size="10.00" fill="#000000">*</text>
</g>
<!-- A10 -->
<g id="node11" class="node">
<title>A10</title>
<polygon fill="none" stroke="#000000" points="1798.565,-305.2256 1798.565,-337.2256 1916.565,-337.2256 1916.565,-305.2256 1798.565,-305.2256"/>
<text text-anchor="start" x="1821.7265" y="-318.2256" font-family="Helvetica,sans-Serif" font-size="10.00" fill="#000000">ValorEstadistica</text>
<polygon fill="none" stroke="#000000" points="1798.565,-261.2256 1798.565,-305.2256 1916.565,-305.2256 1916.565,-261.2256 1798.565,-261.2256"/>
<text text-anchor="start" x="1835.0645" y="-286.2256" font-family="Helvetica,sans-Serif" font-size="10.00" fill="#000000">valor:Real</text>
<text text-anchor="start" x="1808.3885" y="-274.2256" font-family="Helvetica,sans-Serif" font-size="10.00" fill="#000000">estadistica:Estadistica</text>
</g>
<!-- A10&#45;&gt;A3JA9 -->
<g id="edge12" class="edge">
<title>A10&#45;&gt;A3JA9</title>
<path fill="none" stroke="#000000" stroke-dasharray="5,2" d="M1857.565,-260.7861C1857.565,-258.1443 1857.565,-255.5025 1857.565,-252.8607"/>
<polygon fill="#000000" stroke="#000000" points="1857.565,-242.6709 1862.0651,-252.6709 1857.565,-247.6709 1857.5651,-252.6709 1857.5651,-252.6709 1857.5651,-252.6709 1857.565,-247.6709 1853.0651,-252.6709 1857.565,-242.6709 1857.565,-242.6709"/>
</g>
<!-- A11&#45;&gt;A4 -->
<g id="edge16" class="edge">
<title>A11&#45;&gt;A4</title>
<path fill="none" stroke="#000000" d="M534.6772,-348.5298C546.4882,-342.1488 558.6983,-335.5522 570.5572,-329.1454"/>
<polygon fill="none" stroke="#000000" points="534.5749,-348.5851 531.1973,-354.9563 524.0171,-354.2891 527.3947,-347.9178 534.5749,-348.5851"/>
<polygon fill="#000000" stroke="#000000" points="579.5448,-324.2897 572.8857,-333.0022 575.1457,-326.6664 570.7467,-329.043 570.7467,-329.043 570.7467,-329.043 575.1457,-326.6664 568.6077,-325.0839 579.5448,-324.2897 579.5448,-324.2897"/>
<text text-anchor="middle" x="567.6149" y="-337.342" font-family="Helvetica,sans-Serif" font-size="10.00" fill="#000000">2</text>
<text text-anchor="middle" x="535.9471" y="-335.2368" font-family="Helvetica,sans-Serif" font-size="10.00" fill="#000000">*</text>
</g>
<!-- A12 -->
<g id="node13" class="node">
<title>A12</title>
<polygon fill="none" stroke="#000000" points="776.5,-396.2256 776.5,-428.2256 977.5,-428.2256 977.5,-396.2256 776.5,-396.2256"/>
<text text-anchor="start" x="840.607" y="-409.2256" font-family="Helvetica,sans-Serif" font-size="10.00" fill="#000000">RegistroReporte</text>
<polygon fill="none" stroke="#000000" points="776.5,-352.2256 776.5,-396.2256 977.5,-396.2256 977.5,-352.2256 776.5,-352.2256"/>
<text text-anchor="start" x="786.427" y="-377.2256" font-family="Helvetica,sans-Serif" font-size="10.00" fill="#000000">estadisticaParticipanteA:ValorEstadistica</text>
<text text-anchor="start" x="786.427" y="-365.2256" font-family="Helvetica,sans-Serif" font-size="10.00" fill="#000000">estadisticaParticipanteB:ValorEstadistica</text>
</g>
<!-- A11&#45;&gt;A12 -->
<g id="edge14" class="edge">
<title>A11&#45;&gt;A12</title>
<path fill="none" stroke="#000000" d="M536.653,-390.2256C601.4214,-390.2256 693.7692,-390.2256 765.8563,-390.2256"/>
<polygon fill="none" stroke="#000000" points="536.3551,-390.2257 530.3551,-394.2256 524.3551,-390.2256 530.3551,-386.2256 536.3551,-390.2257"/>
<polygon fill="#000000" stroke="#000000" points="775.8887,-390.2256 765.8888,-394.7257 770.8887,-390.2256 765.8887,-390.2257 765.8887,-390.2257 765.8887,-390.2257 770.8887,-390.2256 765.8887,-385.7257 775.8887,-390.2256 775.8887,-390.2256"/>
<text text-anchor="middle" x="757.7626" y="-395.678" font-family="Helvetica,sans-Serif" font-size="10.00" fill="#000000">registros*</text>
<text text-anchor="middle" x="542.4813" y="-378.7732" font-family="Helvetica,sans-Serif" font-size="10.00" fill="#000000">1</text>
</g>
<!-- A12&#45;&gt;A10 -->
<g id="edge15" class="edge">
<title>A12&#45;&gt;A10</title>
<path fill="none" stroke="#000000" d="M989.1687,-384.243C1070.407,-380.4391 1182.6928,-376.2256 1281.5,-376.2256 1281.5,-376.2256 1281.5,-376.2256 1450.7825,-376.2256 1571.0619,-376.2256 1707.9108,-343.3234 1788.2712,-320.5342"/>
<polygon fill="none" stroke="#000000" points="989.1478,-384.2439 983.3442,-388.5239 977.1613,-384.8128 982.9649,-380.5329 989.1478,-384.2439"/>
<polygon fill="#000000" stroke="#000000" points="1798.2665,-317.669 1789.8937,-324.7504 1793.4601,-319.0468 1788.6537,-320.4247 1788.6537,-320.4247 1788.6537,-320.4247 1793.4601,-319.0468 1787.4137,-316.0989 1798.2665,-317.669 1798.2665,-317.669"/>
<text text-anchor="middle" x="1783.1713" y="-327.7889" font-family="Helvetica,sans-Serif" font-size="10.00" fill="#000000">2</text>
<text text-anchor="middle" x="994.8664" y="-372.5107" font-family="Helvetica,sans-Serif" font-size="10.00" fill="#000000">*</text>
</g>
<!-- A3JA9&#45;&gt;A9 -->
<g id="edge11" class="edge">
<title>A3JA9&#45;&gt;A9</title>
<path fill="none" stroke="#000000" d="M1857.9939,-242.2256C1863.2199,-242.2256 1915.1653,-242.2256 1956.2863,-242.2256"/>
<polygon fill="#000000" stroke="#000000" points="1966.4726,-242.2256 1956.4726,-246.7257 1961.4726,-242.2256 1956.4726,-242.2257 1956.4726,-242.2257 1956.4726,-242.2257 1961.4726,-242.2256 1956.4726,-237.7257 1966.4726,-242.2256 1966.4726,-242.2256"/>
<text text-anchor="middle" x="1948.3464" y="-247.678" font-family="Helvetica,sans-Serif" font-size="10.00" fill="#000000">*</text>
</g>
</g>
</svg>
