<?xml version="1.0" encoding="UTF-8" standalone="no"?>
<!DOCTYPE svg PUBLIC "-//W3C//DTD SVG 1.1//EN"
 "http://www.w3.org/Graphics/SVG/1.1/DTD/svg11.dtd">
<!-- Generated by graphviz version 2.40.1 (20161225.0304)
 -->
<!-- Title: G Pages: 1 -->
<svg width="2070pt" height="442pt"
 viewBox="0.00 0.00 2070.26 441.84" xmlns="http://www.w3.org/2000/svg" xmlns:xlink="http://www.w3.org/1999/xlink">
<g id="graph0" class="graph" transform="scale(1 1) rotate(0) translate(4 437.8423)">
<title>G</title>
<polygon fill="#ffffff" stroke="transparent" points="-4,4 -4,-437.8423 2066.263,-437.8423 2066.263,4 -4,4"/>
<!-- A0 -->
<g id="node1" class="node">
<title>A0</title>
<polygon fill="none" stroke="#000000" points=".5,-366.8423 .5,-398.8423 341.5,-398.8423 341.5,-366.8423 .5,-366.8423"/>
<text text-anchor="start" x="155.163" y="-379.8423" font-family="Helvetica,sans-Serif" font-size="10.00" fill="#000000">Torneo</text>
<polygon fill="none" stroke="#000000" points=".5,-262.8423 .5,-366.8423 341.5,-366.8423 341.5,-262.8423 .5,-262.8423"/>
<text text-anchor="start" x="140.1605" y="-347.8423" font-family="Helvetica,sans-Serif" font-size="10.00" fill="#000000">nombre:Texto</text>
<text text-anchor="start" x="131.822" y="-335.8423" font-family="Helvetica,sans-Serif" font-size="10.00" fill="#000000">fechaInicio:Fecha</text>
<text text-anchor="start" x="102.6515" y="-323.8423" font-family="Helvetica,sans-Serif" font-size="10.00" fill="#000000">fechaInicioInscripciones:Fecha</text>
<text text-anchor="start" x="100.712" y="-311.8423" font-family="Helvetica,sans-Serif" font-size="10.00" fill="#000000">fechaCierreInscripciones:Fecha</text>
<text text-anchor="start" x="109.042" y="-299.8423" font-family="Helvetica,sans-Serif" font-size="10.00" fill="#000000">numeroParticipantes:Entero</text>
<text text-anchor="start" x="131.5485" y="-287.8423" font-family="Helvetica,sans-Serif" font-size="10.00" fill="#000000">limiteEdad:Entero</text>
<text text-anchor="start" x="120.1595" y="-275.8423" font-family="Helvetica,sans-Serif" font-size="10.00" fill="#000000">valorInscripcion:Entero</text>
<polygon fill="none" stroke="#000000" points=".5,-14.8423 .5,-262.8423 341.5,-262.8423 341.5,-14.8423 .5,-14.8423"/>
<text text-anchor="start" x="109.741" y="-243.8423" font-family="Helvetica,sans-Serif" font-size="10.00" fill="#000000">+Constructor(nombre:Texto</text>
<text text-anchor="start" x="131.822" y="-231.8423" font-family="Helvetica,sans-Serif" font-size="10.00" fill="#000000">fechaInicio:Fecha</text>
<text text-anchor="start" x="102.6515" y="-219.8423" font-family="Helvetica,sans-Serif" font-size="10.00" fill="#000000">fechaInicioInscripciones:Fecha</text>
<text text-anchor="start" x="100.712" y="-207.8423" font-family="Helvetica,sans-Serif" font-size="10.00" fill="#000000">fechaCierreInscripciones:Fecha</text>
<text text-anchor="start" x="109.042" y="-195.8423" font-family="Helvetica,sans-Serif" font-size="10.00" fill="#000000">numeroParticipantes:Entero</text>
<text text-anchor="start" x="131.5485" y="-183.8423" font-family="Helvetica,sans-Serif" font-size="10.00" fill="#000000">limiteEdad:Entero</text>
<text text-anchor="start" x="120.1595" y="-171.8423" font-family="Helvetica,sans-Serif" font-size="10.00" fill="#000000">valorInscripcion:Entero</text>
<text text-anchor="start" x="120.1555" y="-159.8423" font-family="Helvetica,sans-Serif" font-size="10.00" fill="#000000">tipoTorneo:TipoTorneo</text>
<text text-anchor="start" x="10.288" y="-147.8423" font-family="Helvetica,sans-Serif" font-size="10.00" fill="#000000">caracter:CaracterTorneo)+registrarParticipante(participante:Participante)</text>
<text text-anchor="start" x="126.1335" y="-135.8423" font-family="Helvetica,sans-Serif" font-size="10.00" fill="#000000">+getNombre():Texto</text>
<text text-anchor="start" x="116.96" y="-123.8423" font-family="Helvetica,sans-Serif" font-size="10.00" fill="#000000">+getFechaInicio():Fecha</text>
<text text-anchor="start" x="87.7895" y="-111.8423" font-family="Helvetica,sans-Serif" font-size="10.00" fill="#000000">+getFechaInicioInscripciones():Fecha</text>
<text text-anchor="start" x="85.85" y="-99.8423" font-family="Helvetica,sans-Serif" font-size="10.00" fill="#000000">+getFechaCierreInscripciones():Fecha</text>
<text text-anchor="start" x="95.015" y="-87.8423" font-family="Helvetica,sans-Serif" font-size="10.00" fill="#000000">+getNumeroParticipantes():Entero</text>
<text text-anchor="start" x="116.6815" y="-75.8423" font-family="Helvetica,sans-Serif" font-size="10.00" fill="#000000">+getLimiteEdad():Entero</text>
<text text-anchor="start" x="106.128" y="-63.8423" font-family="Helvetica,sans-Serif" font-size="10.00" fill="#000000">+getValorInscripcion():Entero</text>
<text text-anchor="start" x="105.2935" y="-51.8423" font-family="Helvetica,sans-Serif" font-size="10.00" fill="#000000">+getTipoTorneo():TipoTorneo</text>
<text text-anchor="start" x="78.6215" y="-39.8423" font-family="Helvetica,sans-Serif" font-size="10.00" fill="#000000">+getParticipantes():Participante［*］</text>
<text text-anchor="start" x="102.2435" y="-27.8423" font-family="Helvetica,sans-Serif" font-size="10.00" fill="#000000">+getCaracter():CaracterTorneo</text>
</g>
<!-- A1 -->
<g id="node2" class="node">
<title>A1</title>
<polygon fill="none" stroke="#000000" points="422.5,-389.8423 422.5,-433.8423 493.5,-433.8423 493.5,-389.8423 422.5,-389.8423"/>
<text text-anchor="start" x="433.264" y="-414.8423" font-family="Helvetica,sans-Serif" font-size="10.00" fill="#000000">&lt;&lt;Enum&gt;&gt;</text>
<text text-anchor="start" x="432.44" y="-402.8423" font-family="Helvetica,sans-Serif" font-size="10.00" fill="#000000">TipoTorneo</text>
<polygon fill="none" stroke="#000000" points="422.5,-321.8423 422.5,-389.8423 493.5,-389.8423 493.5,-321.8423 422.5,-321.8423"/>
<text text-anchor="start" x="441.6075" y="-370.8423" font-family="Helvetica,sans-Serif" font-size="10.00" fill="#000000">LOCAL</text>
<text text-anchor="start" x="432.164" y="-358.8423" font-family="Helvetica,sans-Serif" font-size="10.00" fill="#000000">REGIONAL</text>
<text text-anchor="start" x="432.444" y="-346.8423" font-family="Helvetica,sans-Serif" font-size="10.00" fill="#000000">NACIONAL</text>
<text text-anchor="start" x="435.5035" y="-334.8423" font-family="Helvetica,sans-Serif" font-size="10.00" fill="#000000">MUNDIAL</text>
</g>
<!-- A0&#45;&gt;A1 -->
<g id="edge3" class="edge">
<title>A0&#45;&gt;A1</title>
<path fill="none" stroke="#000000" d="M341.1799,-308.5366C367.8136,-324.4055 393.1507,-339.5018 413.338,-351.5298"/>
<polygon fill="#000000" stroke="#000000" points="421.9493,-356.6606 411.0552,-355.4078 417.654,-354.1013 413.3586,-351.542 413.3586,-351.542 413.3586,-351.542 417.654,-354.1013 415.6619,-347.6762 421.9493,-356.6606 421.9493,-356.6606"/>
<text text-anchor="middle" x="402.0513" y="-351.6439" font-family="Helvetica,sans-Serif" font-size="10.00" fill="#000000">tipoTorneo1</text>
<text text-anchor="middle" x="361.0779" y="-307.5533" font-family="Helvetica,sans-Serif" font-size="10.00" fill="#000000">*</text>
</g>
<!-- A4 -->
<g id="node5" class="node">
<title>A4</title>
<polygon fill="none" stroke="#000000" points="663.5475,-173.8423 574.1505,-173.8423 574.1505,-137.8423 663.5475,-137.8423 663.5475,-173.8423"/>
<text text-anchor="middle" x="618.849" y="-158.8423" font-family="Helvetica,sans-Serif" font-size="10.00" fill="#000000">&lt;&lt;interface&gt;&gt;</text>
<text text-anchor="middle" x="618.849" y="-146.8423" font-family="Helvetica,sans-Serif" font-size="10.00" fill="#000000">Participante</text>
</g>
<!-- A0&#45;&gt;A4 -->
<g id="edge4" class="edge">
<title>A0&#45;&gt;A4</title>
<path fill="none" stroke="#000000" d="M352.7987,-111.7504C365.5133,-107.4481 378.3172,-103.7325 391,-100.8423 448.6336,-87.7087 466.9175,-85.4894 524,-100.8423 546.9054,-107.003 569.9848,-120.1974 587.6418,-132.1184"/>
<polygon fill="none" stroke="#000000" points="352.4694,-111.8665 348.1423,-117.6351 341.1532,-115.8595 345.4803,-110.091 352.4694,-111.8665"/>
<polygon fill="#000000" stroke="#000000" points="595.8497,-137.8319 585.0714,-135.8121 591.746,-134.9753 587.6423,-132.1188 587.6423,-132.1188 587.6423,-132.1188 591.746,-134.9753 590.2133,-128.4254 595.8497,-137.8319 595.8497,-137.8319"/>
<text text-anchor="middle" x="576.144" y="-131.4134" font-family="Helvetica,sans-Serif" font-size="10.00" fill="#000000">participantes*</text>
<text text-anchor="middle" x="355.434" y="-98.8574" font-family="Helvetica,sans-Serif" font-size="10.00" fill="#000000">1</text>
</g>
<!-- A8 -->
<g id="node9" class="node">
<title>A8</title>
<polygon fill="none" stroke="#000000" points="412.5,-153.8423 412.5,-197.8423 502.5,-197.8423 502.5,-153.8423 412.5,-153.8423"/>
<text text-anchor="start" x="432.764" y="-178.8423" font-family="Helvetica,sans-Serif" font-size="10.00" fill="#000000">&lt;&lt;Enum&gt;&gt;</text>
<text text-anchor="start" x="422.4965" y="-166.8423" font-family="Helvetica,sans-Serif" font-size="10.00" fill="#000000">CaracterTorneo</text>
<polygon fill="none" stroke="#000000" points="412.5,-109.8423 412.5,-153.8423 502.5,-153.8423 502.5,-109.8423 412.5,-109.8423"/>
<text text-anchor="start" x="429.445" y="-134.8423" font-family="Helvetica,sans-Serif" font-size="10.00" fill="#000000">INDIVIDUAL</text>
<text text-anchor="start" x="436.943" y="-122.8423" font-family="Helvetica,sans-Serif" font-size="10.00" fill="#000000">GRUPAL</text>
</g>
<!-- A0&#45;&gt;A8 -->
<g id="edge2" class="edge">
<title>A0&#45;&gt;A8</title>
<path fill="none" stroke="#000000" d="M341.1799,-175.3231C363.2186,-171.2532 384.3697,-167.3472 402.4497,-164.0084"/>
<polygon fill="#000000" stroke="#000000" points="412.443,-162.163 403.4265,-168.4042 407.5261,-163.071 402.6093,-163.979 402.6093,-163.979 402.6093,-163.979 407.5261,-163.071 401.792,-159.5538 412.443,-162.163 412.443,-162.163"/>
<text text-anchor="middle" x="396.1532" y="-170.7665" font-family="Helvetica,sans-Serif" font-size="10.00" fill="#000000">caracter1</text>
<text text-anchor="middle" x="357.4697" y="-160.7195" font-family="Helvetica,sans-Serif" font-size="10.00" fill="#000000">*</text>
</g>
<!-- A11 -->
<g id="node12" class="node">
<title>A11</title>
<polygon fill="none" stroke="#000000" points="391.5,-271.8423 391.5,-303.8423 524.5,-303.8423 524.5,-271.8423 391.5,-271.8423"/>
<text text-anchor="start" x="440.2185" y="-284.8423" font-family="Helvetica,sans-Serif" font-size="10.00" fill="#000000">Reporte</text>
<polygon fill="none" stroke="#000000" points="391.5,-215.8423 391.5,-271.8423 524.5,-271.8423 524.5,-215.8423 391.5,-215.8423"/>
<text text-anchor="start" x="430.4895" y="-252.8423" font-family="Helvetica,sans-Serif" font-size="10.00" fill="#000000">fecha:Fecha</text>
<text text-anchor="start" x="401.042" y="-240.8423" font-family="Helvetica,sans-Serif" font-size="10.00" fill="#000000">participanteA:Participante</text>
<text text-anchor="start" x="401.042" y="-228.8423" font-family="Helvetica,sans-Serif" font-size="10.00" fill="#000000">participanteB:Participante</text>
</g>
<!-- A0&#45;&gt;A11 -->
<g id="edge1" class="edge">
<title>A0&#45;&gt;A11</title>
<path fill="none" stroke="#000000" stroke-dasharray="5,2" d="M341.1799,-238.3616C354.9523,-240.905 368.3781,-243.3843 380.9244,-245.7012"/>
<polygon fill="#000000" stroke="#000000" points="390.7875,-247.5226 380.1366,-250.1317 385.8707,-246.6146 380.9538,-245.7065 380.9538,-245.7065 380.9538,-245.7065 385.8707,-246.6146 381.771,-241.2814 390.7875,-247.5226 390.7875,-247.5226"/>
</g>
<!-- A2 -->
<g id="node3" class="node">
<title>A2</title>
<polygon fill="none" stroke="#000000" points="1385.0463,-130.8423 1271.9147,-130.8423 1271.9147,-94.8423 1385.0463,-94.8423 1385.0463,-130.8423"/>
<text text-anchor="middle" x="1328.4805" y="-115.8423" font-family="Helvetica,sans-Serif" font-size="10.00" fill="#000000">&lt;&lt;interface&gt;&gt;</text>
<text text-anchor="middle" x="1328.4805" y="-103.8423" font-family="Helvetica,sans-Serif" font-size="10.00" fill="#000000">RegistroEstadistica</text>
</g>
<!-- A3 -->
<g id="node4" class="node">
<title>A3</title>
<polygon fill="none" stroke="#000000" points="1435.763,-138.8423 1435.763,-170.8423 1626.763,-170.8423 1626.763,-138.8423 1435.763,-138.8423"/>
<text text-anchor="start" x="1479.0375" y="-151.8423" font-family="Helvetica,sans-Serif" font-size="10.00" fill="#000000">RegistroEstadisticaImpl</text>
<polygon fill="none" stroke="#000000" points="1435.763,-106.8423 1435.763,-138.8423 1626.763,-138.8423 1626.763,-106.8423 1435.763,-106.8423"/>
<text text-anchor="start" x="1445.416" y="-119.8423" font-family="Helvetica,sans-Serif" font-size="10.00" fill="#000000">estadisticas:ValorEstadistica［*］</text>
</g>
<!-- A2&#45;&gt;A3 -->
<g id="edge18" class="edge">
<title>A2&#45;&gt;A3</title>
<path fill="none" stroke="#000000" d="M1395.1491,-121.4115C1407.9299,-123.0542 1421.5449,-124.8042 1435.0312,-126.5376"/>
<polygon fill="none" stroke="#000000" points="1395.4611,-117.9228 1385.0964,-120.1194 1394.5686,-124.8657 1395.4611,-117.9228"/>
</g>
<!-- A2&#45;&gt;A4 -->
<g id="edge17" class="edge">
<title>A2&#45;&gt;A4</title>
<path fill="none" stroke="#000000" d="M1261.712,-124.3032C1248.4609,-126.5196 1234.645,-128.7895 1221.698,-130.8423 997.9449,-166.3192 939.356,-192.9051 713.698,-172.8423 697.3678,-171.3904 679.6407,-168.5589 663.9793,-165.6167"/>
<polygon fill="none" stroke="#000000" points="1262.4294,-127.7318 1271.7113,-122.6232 1261.2695,-120.8286 1262.4294,-127.7318"/>
</g>
<!-- A3JA9 -->
<!-- A3&#45;&gt;A3JA9 -->
<g id="edge10" class="edge">
<title>A3&#45;&gt;A3JA9</title>
<path fill="none" stroke="#000000" d="M1626.4267,-139.7779C1676.3236,-140.2659 1728.3207,-140.7744 1734.6254,-140.8361"/>
<text text-anchor="middle" x="1644.6347" y="-128.5032" font-family="Helvetica,sans-Serif" font-size="10.00" fill="#000000">*</text>
</g>
<!-- A5 -->
<g id="node6" class="node">
<title>A5</title>
<polygon fill="none" stroke="#000000" points="774.198,-38.8423 774.198,-70.8423 855.198,-70.8423 855.198,-38.8423 774.198,-38.8423"/>
<text text-anchor="start" x="799.136" y="-51.8423" font-family="Helvetica,sans-Serif" font-size="10.00" fill="#000000">Equipo</text>
<polygon fill="none" stroke="#000000" points="774.198,-6.8423 774.198,-38.8423 855.198,-38.8423 855.198,-6.8423 774.198,-6.8423"/>
<text text-anchor="start" x="783.8585" y="-19.8423" font-family="Helvetica,sans-Serif" font-size="10.00" fill="#000000">nombre:Texto</text>
</g>
<!-- A4&#45;&gt;A5 -->
<g id="edge9" class="edge">
<title>A4&#45;&gt;A5</title>
<path fill="none" stroke="#000000" d="M657.5582,-132.6583C691.0915,-112.5743 739.4432,-83.6151 773.5362,-63.1958"/>
<polygon fill="none" stroke="#000000" points="655.7248,-129.6766 648.9442,-137.8175 659.3216,-135.6819 655.7248,-129.6766"/>
</g>
<!-- A7 -->
<g id="node8" class="node">
<title>A7</title>
<polygon fill="none" stroke="#000000" points="1097.198,-89.8423 1097.198,-121.8423 1222.198,-121.8423 1222.198,-89.8423 1097.198,-89.8423"/>
<text text-anchor="start" x="1141.636" y="-102.8423" font-family="Helvetica,sans-Serif" font-size="10.00" fill="#000000">Jugador</text>
<polygon fill="none" stroke="#000000" points="1097.198,-57.8423 1097.198,-89.8423 1222.198,-89.8423 1222.198,-57.8423 1097.198,-57.8423"/>
<text text-anchor="start" x="1107.187" y="-70.8423" font-family="Helvetica,sans-Serif" font-size="10.00" fill="#000000">fechaNacimiento:Fecha</text>
</g>
<!-- A4&#45;&gt;A7 -->
<g id="edge8" class="edge">
<title>A4&#45;&gt;A7</title>
<path fill="none" stroke="#000000" d="M673.6711,-159.4692C755.8518,-163.5529 915.3593,-166.2203 1046.698,-136.8423 1063.3267,-133.1228 1080.6216,-127.0951 1096.5194,-120.5787"/>
<polygon fill="none" stroke="#000000" points="673.7285,-155.9675 663.5592,-158.9398 673.3625,-162.9579 673.7285,-155.9675"/>
</g>
<!-- A5&#45;&gt;A2 -->
<g id="edge20" class="edge">
<title>A5&#45;&gt;A2</title>
<path fill="none" stroke="#000000" d="M854.9802,-27.0437C885.0211,-18.9888 927.0281,-9.0444 964.698,-4.8423 1079.8678,8.005 1114.6542,-4.4491 1221.698,-48.8423 1247.5521,-59.5646 1274.5741,-75.8161 1294.9665,-89.2591"/>
<polygon fill="#000000" stroke="#000000" points="1303.2775,-94.8241 1292.4645,-92.9994 1299.1229,-92.0422 1294.9682,-89.2602 1294.9682,-89.2602 1294.9682,-89.2602 1299.1229,-92.0422 1297.472,-85.5211 1303.2775,-94.8241 1303.2775,-94.8241"/>
</g>
<!-- A6 -->
<g id="node7" class="node">
<title>A6</title>
<polygon fill="none" stroke="#000000" points="964.698,-95.8423 964.698,-127.8423 1046.698,-127.8423 1046.698,-95.8423 964.698,-95.8423"/>
<text text-anchor="start" x="987.081" y="-108.8423" font-family="Helvetica,sans-Serif" font-size="10.00" fill="#000000">Persona</text>
<polygon fill="none" stroke="#000000" points="964.698,-27.8423 964.698,-95.8423 1046.698,-95.8423 1046.698,-27.8423 964.698,-27.8423"/>
<text text-anchor="start" x="974.8585" y="-76.8423" font-family="Helvetica,sans-Serif" font-size="10.00" fill="#000000">nombre:Texto</text>
<text text-anchor="start" x="974.5795" y="-64.8423" font-family="Helvetica,sans-Serif" font-size="10.00" fill="#000000">apellido:Texto</text>
<text text-anchor="start" x="979.863" y="-52.8423" font-family="Helvetica,sans-Serif" font-size="10.00" fill="#000000">email:Texto</text>
<text text-anchor="start" x="977.0835" y="-40.8423" font-family="Helvetica,sans-Serif" font-size="10.00" fill="#000000">celular:Texto</text>
</g>
<!-- A5&#45;&gt;A6 -->
<g id="edge5" class="edge">
<title>A5&#45;&gt;A6</title>
<path fill="none" stroke="#000000" d="M866.6401,-49.5224C893.9637,-55.087 927.2485,-61.8657 954.4025,-67.3957"/>
<polygon fill="none" stroke="#000000" points="866.5689,-49.508 859.8913,-52.2302 854.8102,-47.1132 861.4878,-44.3911 866.5689,-49.508"/>
<polygon fill="#000000" stroke="#000000" points="964.4841,-69.4489 953.7872,-71.8627 959.5847,-68.4511 954.6853,-67.4532 954.6853,-67.4532 954.6853,-67.4532 959.5847,-68.4511 955.5833,-63.0437 964.4841,-69.4489 964.4841,-69.4489"/>
<text text-anchor="middle" x="945.0358" y="-71.114" font-family="Helvetica,sans-Serif" font-size="10.00" fill="#000000">representante1</text>
<text text-anchor="middle" x="874.2585" y="-39.4481" font-family="Helvetica,sans-Serif" font-size="10.00" fill="#000000">1</text>
</g>
<!-- A5&#45;&gt;A7 -->
<g id="edge7" class="edge">
<title>A5&#45;&gt;A7</title>
<path fill="none" stroke="#000000" d="M866.8896,-23.6122C914.7192,-12.281 986.7287,-1.5011 1046.698,-18.8423 1069.9866,-25.5767 1093.0911,-38.7252 1112.247,-51.8956"/>
<polygon fill="none" stroke="#000000" points="866.6202,-23.6789 861.7586,-29.0048 854.9726,-26.5657 859.8341,-21.2398 866.6202,-23.6789"/>
<polygon fill="#000000" stroke="#000000" points="1120.4796,-57.7234 1109.7176,-55.6185 1116.3986,-54.8345 1112.3176,-51.9456 1112.3176,-51.9456 1112.3176,-51.9456 1116.3986,-54.8345 1114.9176,-48.2727 1120.4796,-57.7234 1120.4796,-57.7234"/>
<text text-anchor="middle" x="1100.8015" y="-51.1494" font-family="Helvetica,sans-Serif" font-size="10.00" fill="#000000">jugador*</text>
<text text-anchor="middle" x="870.5332" y="-11.0011" font-family="Helvetica,sans-Serif" font-size="10.00" fill="#000000">1</text>
</g>
<!-- A6&#45;&gt;A7 -->
<g id="edge6" class="edge">
<title>A6&#45;&gt;A7</title>
<path fill="none" stroke="#000000" d="M1057.1692,-81.8661C1069.8039,-82.8539 1083.4674,-83.922 1096.563,-84.9458"/>
<polygon fill="none" stroke="#000000" points="1057.0756,-78.3482 1046.8332,-81.0581 1056.53,-85.3269 1057.0756,-78.3482"/>
</g>
<!-- A7&#45;&gt;A2 -->
<g id="edge19" class="edge">
<title>A7&#45;&gt;A2</title>
<path fill="none" stroke="#000000" d="M1221.7516,-98.3413C1234.8108,-100.1157 1248.6243,-101.9925 1261.8257,-103.7861"/>
<polygon fill="#000000" stroke="#000000" points="1271.779,-105.1384 1261.2642,-108.2511 1266.8245,-104.4652 1261.8701,-103.792 1261.8701,-103.792 1261.8701,-103.792 1266.8245,-104.4652 1262.4759,-99.333 1271.779,-105.1384 1271.779,-105.1384"/>
</g>
<!-- A9 -->
<g id="node10" class="node">
<title>A9</title>
<polygon fill="none" stroke="#000000" points="1844.763,-140.8423 1844.763,-172.8423 1925.763,-172.8423 1925.763,-140.8423 1844.763,-140.8423"/>
<text text-anchor="start" x="1861.092" y="-153.8423" font-family="Helvetica,sans-Serif" font-size="10.00" fill="#000000">Estadistica</text>
<polygon fill="none" stroke="#000000" points="1844.763,-108.8423 1844.763,-140.8423 1925.763,-140.8423 1925.763,-108.8423 1844.763,-108.8423"/>
<text text-anchor="start" x="1854.4235" y="-121.8423" font-family="Helvetica,sans-Serif" font-size="10.00" fill="#000000">nombre:Texto</text>
</g>
<!-- A13 -->
<g id="node14" class="node">
<title>A13</title>
<polygon fill="none" stroke="#000000" points="1975.763,-146.8423 1975.763,-190.8423 2062.763,-190.8423 2062.763,-146.8423 1975.763,-146.8423"/>
<text text-anchor="start" x="1994.527" y="-171.8423" font-family="Helvetica,sans-Serif" font-size="10.00" fill="#000000">&lt;&lt;Enum&gt;&gt;</text>
<text text-anchor="start" x="1985.369" y="-159.8423" font-family="Helvetica,sans-Serif" font-size="10.00" fill="#000000">TipoEstadistica</text>
<polygon fill="none" stroke="#000000" points="1975.763,-90.8423 1975.763,-146.8423 2062.763,-146.8423 2062.763,-90.8423 1975.763,-90.8423"/>
<text text-anchor="start" x="1996.202" y="-127.8423" font-family="Helvetica,sans-Serif" font-size="10.00" fill="#000000">POSITIVA</text>
<text text-anchor="start" x="1993.982" y="-115.8423" font-family="Helvetica,sans-Serif" font-size="10.00" fill="#000000">NEGATIVA</text>
<text text-anchor="start" x="1998.711" y="-103.8423" font-family="Helvetica,sans-Serif" font-size="10.00" fill="#000000">NEUTRA</text>
</g>
<!-- A9&#45;&gt;A13 -->
<g id="edge13" class="edge">
<title>A9&#45;&gt;A13</title>
<path fill="none" stroke="#000000" d="M1925.3311,-140.8423C1937.7306,-140.8423 1951.5685,-140.8423 1964.7148,-140.8423"/>
<polygon fill="#000000" stroke="#000000" points="1975.0689,-140.8423 1965.069,-145.3424 1970.0689,-140.8424 1965.0689,-140.8424 1965.0689,-140.8424 1965.0689,-140.8424 1970.0689,-140.8424 1965.0689,-136.3424 1975.0689,-140.8423 1975.0689,-140.8423"/>
<text text-anchor="middle" x="1956.9428" y="-146.2947" font-family="Helvetica,sans-Serif" font-size="10.00" fill="#000000">tipo1</text>
<text text-anchor="middle" x="1943.4572" y="-129.39" font-family="Helvetica,sans-Serif" font-size="10.00" fill="#000000">*</text>
</g>
<!-- A10 -->
<g id="node11" class="node">
<title>A10</title>
<polygon fill="none" stroke="#000000" points="1676.263,-203.8423 1676.263,-235.8423 1794.263,-235.8423 1794.263,-203.8423 1676.263,-203.8423"/>
<text text-anchor="start" x="1699.4245" y="-216.8423" font-family="Helvetica,sans-Serif" font-size="10.00" fill="#000000">ValorEstadistica</text>
<polygon fill="none" stroke="#000000" points="1676.263,-159.8423 1676.263,-203.8423 1794.263,-203.8423 1794.263,-159.8423 1676.263,-159.8423"/>
<text text-anchor="start" x="1712.7625" y="-184.8423" font-family="Helvetica,sans-Serif" font-size="10.00" fill="#000000">valor:Real</text>
<text text-anchor="start" x="1686.0865" y="-172.8423" font-family="Helvetica,sans-Serif" font-size="10.00" fill="#000000">estadistica:Estadistica</text>
</g>
<!-- A10&#45;&gt;A3JA9 -->
<g id="edge12" class="edge">
<title>A10&#45;&gt;A3JA9</title>
<path fill="none" stroke="#000000" stroke-dasharray="5,2" d="M1735.263,-159.4028C1735.263,-156.761 1735.263,-154.1192 1735.263,-151.4774"/>
<polygon fill="#000000" stroke="#000000" points="1735.263,-141.2876 1739.7631,-151.2876 1735.263,-146.2876 1735.2631,-151.2876 1735.2631,-151.2876 1735.2631,-151.2876 1735.263,-146.2876 1730.7631,-151.2877 1735.263,-141.2876 1735.263,-141.2876"/>
</g>
<!-- A11&#45;&gt;A4 -->
<g id="edge16" class="edge">
<title>A11&#45;&gt;A4</title>
<path fill="none" stroke="#000000" d="M534.2226,-210.3896C550.9156,-199.6299 567.8347,-188.7244 582.112,-179.5217"/>
<polygon fill="none" stroke="#000000" points="534.1447,-210.4398 531.2686,-217.0526 524.0584,-216.9411 526.9344,-210.3283 534.1447,-210.4398"/>
<polygon fill="#000000" stroke="#000000" points="590.6346,-174.0284 584.6673,-183.2285 586.4319,-176.7373 582.2293,-179.4462 582.2293,-179.4462 582.2293,-179.4462 586.4319,-176.7373 579.7913,-175.6638 590.6346,-174.0284 590.6346,-174.0284"/>
<text text-anchor="middle" x="579.9784" y="-187.9531" font-family="Helvetica,sans-Serif" font-size="10.00" fill="#000000">2</text>
<text text-anchor="middle" x="534.7146" y="-197.0164" font-family="Helvetica,sans-Serif" font-size="10.00" fill="#000000">*</text>
</g>
<!-- A12 -->
<g id="node13" class="node">
<title>A12</title>
<polygon fill="none" stroke="#000000" points="714.198,-265.8423 714.198,-297.8423 915.198,-297.8423 915.198,-265.8423 714.198,-265.8423"/>
<text text-anchor="start" x="778.305" y="-278.8423" font-family="Helvetica,sans-Serif" font-size="10.00" fill="#000000">RegistroReporte</text>
<polygon fill="none" stroke="#000000" points="714.198,-221.8423 714.198,-265.8423 915.198,-265.8423 915.198,-221.8423 714.198,-221.8423"/>
<text text-anchor="start" x="724.125" y="-246.8423" font-family="Helvetica,sans-Serif" font-size="10.00" fill="#000000">estadisticaParticipanteA:ValorEstadistica</text>
<text text-anchor="start" x="724.125" y="-234.8423" font-family="Helvetica,sans-Serif" font-size="10.00" fill="#000000">estadisticaParticipanteB:ValorEstadistica</text>
</g>
<!-- A11&#45;&gt;A12 -->
<g id="edge14" class="edge">
<title>A11&#45;&gt;A12</title>
<path fill="none" stroke="#000000" d="M536.3785,-259.8423C585.3673,-259.8423 649.0768,-259.8423 703.1266,-259.8423"/>
<polygon fill="none" stroke="#000000" points="536.1737,-259.8424 530.1737,-263.8424 524.1737,-259.8423 530.1738,-255.8424 536.1737,-259.8424"/>
<polygon fill="#000000" stroke="#000000" points="713.4501,-259.8423 703.4502,-264.3424 708.4501,-259.8424 703.4501,-259.8424 703.4501,-259.8424 703.4501,-259.8424 708.4501,-259.8424 703.4501,-255.3424 713.4501,-259.8423 713.4501,-259.8423"/>
<text text-anchor="middle" x="695.324" y="-265.2947" font-family="Helvetica,sans-Serif" font-size="10.00" fill="#000000">registros*</text>
<text text-anchor="middle" x="542.2999" y="-248.39" font-family="Helvetica,sans-Serif" font-size="10.00" fill="#000000">1</text>
</g>
<!-- A12&#45;&gt;A10 -->
<g id="edge15" class="edge">
<title>A12&#45;&gt;A10</title>
<path fill="none" stroke="#000000" d="M927.257,-252.9414C994.5894,-249.4087 1081.7441,-245.8423 1159.198,-245.8423 1159.198,-245.8423 1159.198,-245.8423 1328.4805,-245.8423 1447.8221,-245.8423 1585.5097,-225.2142 1666.2022,-211.0037"/>
<polygon fill="none" stroke="#000000" points="926.9049,-252.9601 921.1267,-257.2743 914.922,-253.5998 920.7002,-249.2856 926.9049,-252.9601"/>
<polygon fill="#000000" stroke="#000000" points="1676.2371,-209.2177 1667.1804,-215.4004 1671.3145,-210.0938 1666.3919,-210.97 1666.3919,-210.97 1666.3919,-210.97 1671.3145,-210.0938 1665.6033,-206.5396 1676.2371,-209.2177 1676.2371,-209.2177"/>
<text text-anchor="middle" x="1659.8725" y="-217.7154" font-family="Helvetica,sans-Serif" font-size="10.00" fill="#000000">2</text>
<text text-anchor="middle" x="932.5719" y="-241.1933" font-family="Helvetica,sans-Serif" font-size="10.00" fill="#000000">*</text>
</g>
<!-- A3JA9&#45;&gt;A9 -->
<g id="edge11" class="edge">
<title>A3JA9&#45;&gt;A9</title>
<path fill="none" stroke="#000000" d="M1735.6919,-140.8423C1740.9179,-140.8423 1792.8633,-140.8423 1833.9843,-140.8423"/>
<polygon fill="#000000" stroke="#000000" points="1844.1706,-140.8423 1834.1706,-145.3424 1839.1706,-140.8424 1834.1706,-140.8424 1834.1706,-140.8424 1834.1706,-140.8424 1839.1706,-140.8424 1834.1706,-136.3424 1844.1706,-140.8423 1844.1706,-140.8423"/>
<text text-anchor="middle" x="1826.0444" y="-146.2947" font-family="Helvetica,sans-Serif" font-size="10.00" fill="#000000">*</text>
</g>
</g>
</svg>
