<?xml version="1.0" encoding="UTF-8" standalone="no"?>
<!DOCTYPE svg PUBLIC "-//W3C//DTD SVG 1.1//EN"
 "http://www.w3.org/Graphics/SVG/1.1/DTD/svg11.dtd">
<!-- Generated by graphviz version 2.40.1 (20161225.0304)
 -->
<!-- Title: G Pages: 1 -->
<svg width="1147pt" height="370pt"
 viewBox="0.00 0.00 1147.00 370.00" xmlns="http://www.w3.org/2000/svg" xmlns:xlink="http://www.w3.org/1999/xlink">
<g id="graph0" class="graph" transform="scale(1 1) rotate(0) translate(4 366)">
<title>G</title>
<polygon fill="#ffffff" stroke="transparent" points="-4,4 -4,-366 1143,-366 1143,4 -4,4"/>
<!-- A0 -->
<g id="node1" class="node">
<title>A0</title>
<polygon fill="none" stroke="#000000" points=".5,-292 .5,-324 229.5,-324 229.5,-292 .5,-292"/>
<text text-anchor="start" x="99.163" y="-305" font-family="Helvetica,sans-Serif" font-size="10.00" fill="#000000">Torneo</text>
<polygon fill="none" stroke="#000000" points=".5,-188 .5,-292 229.5,-292 229.5,-188 .5,-188"/>
<text text-anchor="start" x="84.1605" y="-273" font-family="Helvetica,sans-Serif" font-size="10.00" fill="#000000">nombre:Texto</text>
<text text-anchor="start" x="75.822" y="-261" font-family="Helvetica,sans-Serif" font-size="10.00" fill="#000000">fechaInicio:Fecha</text>
<text text-anchor="start" x="46.6515" y="-249" font-family="Helvetica,sans-Serif" font-size="10.00" fill="#000000">fechaInicioInscripciones:Fecha</text>
<text text-anchor="start" x="44.712" y="-237" font-family="Helvetica,sans-Serif" font-size="10.00" fill="#000000">fechaCierreInscripciones:Fecha</text>
<text text-anchor="start" x="53.042" y="-225" font-family="Helvetica,sans-Serif" font-size="10.00" fill="#000000">numeroParticipantes:Entero</text>
<text text-anchor="start" x="75.5485" y="-213" font-family="Helvetica,sans-Serif" font-size="10.00" fill="#000000">limiteEdad:Entero</text>
<text text-anchor="start" x="64.1595" y="-201" font-family="Helvetica,sans-Serif" font-size="10.00" fill="#000000">valorInscripcion:Entero</text>
<polygon fill="none" stroke="#000000" points=".5,-48 .5,-188 229.5,-188 229.5,-48 .5,-48"/>
<text text-anchor="start" x="53.741" y="-169" font-family="Helvetica,sans-Serif" font-size="10.00" fill="#000000">+Constructor(nombre:Texto</text>
<text text-anchor="start" x="75.822" y="-157" font-family="Helvetica,sans-Serif" font-size="10.00" fill="#000000">fechaInicio:Fecha</text>
<text text-anchor="start" x="46.6515" y="-145" font-family="Helvetica,sans-Serif" font-size="10.00" fill="#000000">fechaInicioInscripciones:Fecha</text>
<text text-anchor="start" x="44.712" y="-133" font-family="Helvetica,sans-Serif" font-size="10.00" fill="#000000">fechaCierreInscripciones:Fecha</text>
<text text-anchor="start" x="53.042" y="-121" font-family="Helvetica,sans-Serif" font-size="10.00" fill="#000000">numeroParticipantes:Entero</text>
<text text-anchor="start" x="75.5485" y="-109" font-family="Helvetica,sans-Serif" font-size="10.00" fill="#000000">limiteEdad:Entero</text>
<text text-anchor="start" x="64.1595" y="-97" font-family="Helvetica,sans-Serif" font-size="10.00" fill="#000000">valorInscripcion:Entero</text>
<text text-anchor="start" x="64.1555" y="-85" font-family="Helvetica,sans-Serif" font-size="10.00" fill="#000000">tipoTorneo:TipoTorneo</text>
<text text-anchor="start" x="58.8855" y="-73" font-family="Helvetica,sans-Serif" font-size="10.00" fill="#000000">caracter:CaracterTorneo)</text>
<text text-anchor="start" x="10.4025" y="-61" font-family="Helvetica,sans-Serif" font-size="10.00" fill="#000000">+registrarParticipante(participante:Participante)</text>
</g>
<!-- A1 -->
<g id="node2" class="node">
<title>A1</title>
<polygon fill="none" stroke="#000000" points="310.5,-318 310.5,-362 381.5,-362 381.5,-318 310.5,-318"/>
<text text-anchor="start" x="321.264" y="-343" font-family="Helvetica,sans-Serif" font-size="10.00" fill="#000000">&lt;&lt;Enum&gt;&gt;</text>
<text text-anchor="start" x="320.44" y="-331" font-family="Helvetica,sans-Serif" font-size="10.00" fill="#000000">TipoTorneo</text>
<polygon fill="none" stroke="#000000" points="310.5,-250 310.5,-318 381.5,-318 381.5,-250 310.5,-250"/>
<text text-anchor="start" x="329.6075" y="-299" font-family="Helvetica,sans-Serif" font-size="10.00" fill="#000000">LOCAL</text>
<text text-anchor="start" x="320.164" y="-287" font-family="Helvetica,sans-Serif" font-size="10.00" fill="#000000">REGIONAL</text>
<text text-anchor="start" x="320.444" y="-275" font-family="Helvetica,sans-Serif" font-size="10.00" fill="#000000">NACIONAL</text>
<text text-anchor="start" x="323.5035" y="-263" font-family="Helvetica,sans-Serif" font-size="10.00" fill="#000000">MUNDIAL</text>
</g>
<!-- A0&#45;&gt;A1 -->
<g id="edge3" class="edge">
<title>A0&#45;&gt;A1</title>
<path fill="none" stroke="#000000" d="M229.3232,-245.6484C254.7553,-258.8599 280.2311,-272.0941 300.8182,-282.7887"/>
<polygon fill="#000000" stroke="#000000" points="309.9155,-287.5145 298.9669,-286.8979 305.4784,-285.2095 301.0414,-282.9046 301.0414,-282.9046 301.0414,-282.9046 305.4784,-285.2095 303.1159,-278.9112 309.9155,-287.5145 309.9155,-287.5145"/>
<text text-anchor="middle" x="289.9337" y="-283.6592" font-family="Helvetica,sans-Serif" font-size="10.00" fill="#000000">tipoTorneo1</text>
<text text-anchor="middle" x="249.3049" y="-243.5037" font-family="Helvetica,sans-Serif" font-size="10.00" fill="#000000">*</text>
</g>
<!-- A2 -->
<g id="node3" class="node">
<title>A2</title>
<polygon fill="none" stroke="#000000" points="467.5,-216 467.5,-260 672.5,-260 672.5,-216 467.5,-216"/>
<text text-anchor="start" x="540.54" y="-241" font-family="Helvetica,sans-Serif" font-size="10.00" fill="#000000">&lt;&lt;abstract&gt;&gt;</text>
<text text-anchor="start" x="543.6055" y="-229" font-family="Helvetica,sans-Serif" font-size="10.00" fill="#000000">Participante</text>
<polygon fill="none" stroke="#000000" points="467.5,-184 467.5,-216 672.5,-216 672.5,-184 467.5,-184"/>
<text text-anchor="start" x="477.209" y="-197" font-family="Helvetica,sans-Serif" font-size="10.00" fill="#000000">estadisticas:RegistroEstadistica［*］</text>
</g>
<!-- A0&#45;&gt;A2 -->
<g id="edge4" class="edge">
<title>A0&#45;&gt;A2</title>
<path fill="none" stroke="#000000" d="M241.2504,-199.583C253.9968,-200.8037 266.7504,-201.9668 279,-203 337.5506,-207.9384 402.8331,-212.3099 456.658,-215.6109"/>
<polygon fill="none" stroke="#000000" points="240.9922,-199.558 234.6335,-202.9589 229.0485,-198.3974 235.4072,-194.9964 240.9922,-199.558"/>
<polygon fill="#000000" stroke="#000000" points="466.9172,-216.2357 456.6621,-220.1194 461.9265,-215.9317 456.9357,-215.6277 456.9357,-215.6277 456.9357,-215.6277 461.9265,-215.9317 457.2093,-211.136 466.9172,-216.2357 466.9172,-216.2357"/>
<text text-anchor="middle" x="448.3108" y="-220.5706" font-family="Helvetica,sans-Serif" font-size="10.00" fill="#000000">participantes*</text>
<text text-anchor="middle" x="247.9071" y="-188.7377" font-family="Helvetica,sans-Serif" font-size="10.00" fill="#000000">1</text>
</g>
<!-- A6 -->
<g id="node7" class="node">
<title>A6</title>
<polygon fill="none" stroke="#000000" points="300.5,-44 300.5,-88 390.5,-88 390.5,-44 300.5,-44"/>
<text text-anchor="start" x="320.764" y="-69" font-family="Helvetica,sans-Serif" font-size="10.00" fill="#000000">&lt;&lt;Enum&gt;&gt;</text>
<text text-anchor="start" x="310.4965" y="-57" font-family="Helvetica,sans-Serif" font-size="10.00" fill="#000000">CaracterTorneo</text>
<polygon fill="none" stroke="#000000" points="300.5,0 300.5,-44 390.5,-44 390.5,0 300.5,0"/>
<text text-anchor="start" x="317.445" y="-25" font-family="Helvetica,sans-Serif" font-size="10.00" fill="#000000">INDIVIDUAL</text>
<text text-anchor="start" x="324.943" y="-13" font-family="Helvetica,sans-Serif" font-size="10.00" fill="#000000">GRUPAL</text>
</g>
<!-- A0&#45;&gt;A6 -->
<g id="edge2" class="edge">
<title>A0&#45;&gt;A6</title>
<path fill="none" stroke="#000000" d="M229.3232,-115.416C251.1217,-102.0161 272.9523,-88.5964 291.7091,-77.0663"/>
<polygon fill="#000000" stroke="#000000" points="300.3771,-71.7379 294.2146,-80.8084 296.1175,-74.3564 291.8579,-76.9748 291.8579,-76.9748 291.8579,-76.9748 296.1175,-74.3564 289.5013,-73.1412 300.3771,-71.7379 300.3771,-71.7379"/>
<text text-anchor="middle" x="289.3616" y="-85.431" font-family="Helvetica,sans-Serif" font-size="10.00" fill="#000000">caracter1</text>
<text text-anchor="middle" x="240.3387" y="-95.7229" font-family="Helvetica,sans-Serif" font-size="10.00" fill="#000000">*</text>
</g>
<!-- A9 -->
<g id="node10" class="node">
<title>A9</title>
<polygon fill="none" stroke="#000000" points="279.5,-162 279.5,-194 412.5,-194 412.5,-162 279.5,-162"/>
<text text-anchor="start" x="328.2185" y="-175" font-family="Helvetica,sans-Serif" font-size="10.00" fill="#000000">Reporte</text>
<polygon fill="none" stroke="#000000" points="279.5,-106 279.5,-162 412.5,-162 412.5,-106 279.5,-106"/>
<text text-anchor="start" x="318.4895" y="-143" font-family="Helvetica,sans-Serif" font-size="10.00" fill="#000000">fecha:Fecha</text>
<text text-anchor="start" x="289.042" y="-131" font-family="Helvetica,sans-Serif" font-size="10.00" fill="#000000">participanteA:Participante</text>
<text text-anchor="start" x="289.042" y="-119" font-family="Helvetica,sans-Serif" font-size="10.00" fill="#000000">participanteB:Participante</text>
</g>
<!-- A0&#45;&gt;A9 -->
<g id="edge1" class="edge">
<title>A0&#45;&gt;A9</title>
<path fill="none" stroke="#000000" stroke-dasharray="5,2" d="M229.3232,-168.1055C242.7253,-166.0168 256.1395,-163.9263 268.844,-161.9464"/>
<polygon fill="#000000" stroke="#000000" points="278.8669,-160.3844 269.6791,-166.3707 273.9265,-161.1544 268.9861,-161.9243 268.9861,-161.9243 268.9861,-161.9243 273.9265,-161.1544 268.2932,-157.478 278.8669,-160.3844 278.8669,-160.3844"/>
</g>
<!-- A3 -->
<g id="node4" class="node">
<title>A3</title>
<polygon fill="none" stroke="#000000" points="739.5,-220 739.5,-252 820.5,-252 820.5,-220 739.5,-220"/>
<text text-anchor="start" x="764.438" y="-233" font-family="Helvetica,sans-Serif" font-size="10.00" fill="#000000">Equipo</text>
<polygon fill="none" stroke="#000000" points="739.5,-188 739.5,-220 820.5,-220 820.5,-188 739.5,-188"/>
<text text-anchor="start" x="749.1605" y="-201" font-family="Helvetica,sans-Serif" font-size="10.00" fill="#000000">nombre:Texto</text>
</g>
<!-- A2&#45;&gt;A3 -->
<g id="edge9" class="edge">
<title>A2&#45;&gt;A3</title>
<path fill="none" stroke="#000000" d="M682.0504,-220.9281C702.4086,-220.7342 722.3863,-220.5439 738.901,-220.3867"/>
<polygon fill="none" stroke="#000000" points="682.0054,-217.4283 672.0393,-221.0234 682.0722,-224.4279 682.0054,-217.4283"/>
</g>
<!-- A5 -->
<g id="node6" class="node">
<title>A5</title>
<polygon fill="none" stroke="#000000" points="1014.5,-220 1014.5,-252 1139.5,-252 1139.5,-220 1014.5,-220"/>
<text text-anchor="start" x="1058.938" y="-233" font-family="Helvetica,sans-Serif" font-size="10.00" fill="#000000">Jugador</text>
<polygon fill="none" stroke="#000000" points="1014.5,-188 1014.5,-220 1139.5,-220 1139.5,-188 1014.5,-188"/>
<text text-anchor="start" x="1024.489" y="-201" font-family="Helvetica,sans-Serif" font-size="10.00" fill="#000000">fechaNacimiento:Fecha</text>
</g>
<!-- A2&#45;&gt;A5 -->
<g id="edge8" class="edge">
<title>A2&#45;&gt;A5</title>
<path fill="none" stroke="#000000" d="M682.3586,-261.1122C761.8685,-283.1444 870.4059,-302.0535 964,-279 986.1637,-273.5408 1008.7948,-262.852 1027.8925,-252.0545"/>
<polygon fill="none" stroke="#000000" points="682.8947,-257.6265 672.3195,-258.2712 680.9885,-264.362 682.8947,-257.6265"/>
</g>
<!-- A2JA7 -->
<!-- A2&#45;&gt;A2JA7 -->
<g id="edge10" class="edge">
<title>A2&#45;&gt;A2JA7</title>
<path fill="none" stroke="#000000" d="M665.8822,-183.8399C669.7813,-181.0707 673.5111,-178.1265 677,-175 710.2129,-145.2369 690.4324,-113.5294 727,-88 745.198,-75.2952 775.4173,-78.5017 779.1237,-78.9522"/>
<text text-anchor="middle" x="675.6779" y="-163.403" font-family="Helvetica,sans-Serif" font-size="10.00" fill="#000000">*</text>
</g>
<!-- A4 -->
<g id="node5" class="node">
<title>A4</title>
<polygon fill="none" stroke="#000000" points="882,-238 882,-270 964,-270 964,-238 882,-238"/>
<text text-anchor="start" x="904.383" y="-251" font-family="Helvetica,sans-Serif" font-size="10.00" fill="#000000">Persona</text>
<polygon fill="none" stroke="#000000" points="882,-170 882,-238 964,-238 964,-170 882,-170"/>
<text text-anchor="start" x="892.1605" y="-219" font-family="Helvetica,sans-Serif" font-size="10.00" fill="#000000">nombre:Texto</text>
<text text-anchor="start" x="891.8815" y="-207" font-family="Helvetica,sans-Serif" font-size="10.00" fill="#000000">apellido:Texto</text>
<text text-anchor="start" x="897.165" y="-195" font-family="Helvetica,sans-Serif" font-size="10.00" fill="#000000">email:Texto</text>
<text text-anchor="start" x="894.3855" y="-183" font-family="Helvetica,sans-Serif" font-size="10.00" fill="#000000">celular:Texto</text>
</g>
<!-- A3&#45;&gt;A4 -->
<g id="edge5" class="edge">
<title>A3&#45;&gt;A4</title>
<path fill="none" stroke="#000000" d="M832.3462,-220C845.1844,-220 858.8921,-220 871.6594,-220"/>
<polygon fill="none" stroke="#000000" points="832.2375,-220.0001 826.2375,-224 820.2375,-220 826.2375,-216 832.2375,-220.0001"/>
<polygon fill="#000000" stroke="#000000" points="881.6623,-220 871.6624,-224.5001 876.6623,-220 871.6623,-220.0001 871.6623,-220.0001 871.6623,-220.0001 876.6623,-220 871.6623,-215.5001 881.6623,-220 881.6623,-220"/>
<text text-anchor="middle" x="863.5362" y="-225.4524" font-family="Helvetica,sans-Serif" font-size="10.00" fill="#000000">representante1</text>
<text text-anchor="middle" x="838.3637" y="-208.5476" font-family="Helvetica,sans-Serif" font-size="10.00" fill="#000000">1</text>
</g>
<!-- A3&#45;&gt;A5 -->
<g id="edge7" class="edge">
<title>A3&#45;&gt;A5</title>
<path fill="none" stroke="#000000" d="M830.7115,-183.5742C846.4281,-174.359 864.2712,-165.738 882,-161 917.2088,-151.5905 928.6132,-152.2838 964,-161 982.7006,-165.6062 1001.734,-173.9355 1018.6969,-182.9117"/>
<polygon fill="none" stroke="#000000" points="830.4333,-183.7444 827.4036,-190.2882 820.1979,-190.0085 823.2276,-183.4646 830.4333,-183.7444"/>
<polygon fill="#000000" stroke="#000000" points="1027.8925,-187.9455 1016.96,-187.091 1023.5067,-185.5446 1019.1208,-183.1437 1019.1208,-183.1437 1019.1208,-183.1437 1023.5067,-185.5446 1021.2816,-179.1964 1027.8925,-187.9455 1027.8925,-187.9455"/>
<text text-anchor="middle" x="1007.9341" y="-183.6559" font-family="Helvetica,sans-Serif" font-size="10.00" fill="#000000">jugador*</text>
<text text-anchor="middle" x="831.2464" y="-170.3372" font-family="Helvetica,sans-Serif" font-size="10.00" fill="#000000">1</text>
</g>
<!-- A4&#45;&gt;A5 -->
<g id="edge6" class="edge">
<title>A4&#45;&gt;A5</title>
<path fill="none" stroke="#000000" d="M974.4712,-220C987.1059,-220 1000.7694,-220 1013.865,-220"/>
<polygon fill="none" stroke="#000000" points="974.1352,-216.5001 964.1352,-220 974.1351,-223.5001 974.1352,-216.5001"/>
</g>
<!-- A7 -->
<g id="node8" class="node">
<title>A7</title>
<polygon fill="none" stroke="#000000" points="883,-79 883,-111 964,-111 964,-79 883,-79"/>
<text text-anchor="start" x="899.329" y="-92" font-family="Helvetica,sans-Serif" font-size="10.00" fill="#000000">Estadistica</text>
<polygon fill="none" stroke="#000000" points="883,-47 883,-79 964,-79 964,-47 883,-47"/>
<text text-anchor="start" x="892.6605" y="-60" font-family="Helvetica,sans-Serif" font-size="10.00" fill="#000000">nombre:Texto</text>
</g>
<!-- A11 -->
<g id="node12" class="node">
<title>A11</title>
<polygon fill="none" stroke="#000000" points="1033.5,-85 1033.5,-129 1120.5,-129 1120.5,-85 1033.5,-85"/>
<text text-anchor="start" x="1052.264" y="-110" font-family="Helvetica,sans-Serif" font-size="10.00" fill="#000000">&lt;&lt;Enum&gt;&gt;</text>
<text text-anchor="start" x="1043.106" y="-98" font-family="Helvetica,sans-Serif" font-size="10.00" fill="#000000">TipoEstadistica</text>
<polygon fill="none" stroke="#000000" points="1033.5,-29 1033.5,-85 1120.5,-85 1120.5,-29 1033.5,-29"/>
<text text-anchor="start" x="1053.939" y="-66" font-family="Helvetica,sans-Serif" font-size="10.00" fill="#000000">POSITIVA</text>
<text text-anchor="start" x="1051.719" y="-54" font-family="Helvetica,sans-Serif" font-size="10.00" fill="#000000">NEGATIVA</text>
<text text-anchor="start" x="1056.448" y="-42" font-family="Helvetica,sans-Serif" font-size="10.00" fill="#000000">NEUTRA</text>
</g>
<!-- A7&#45;&gt;A11 -->
<g id="edge13" class="edge">
<title>A7&#45;&gt;A11</title>
<path fill="none" stroke="#000000" d="M963.7322,-79C981.8012,-79 1003.3148,-79 1022.6829,-79"/>
<polygon fill="#000000" stroke="#000000" points="1032.8852,-79 1022.8852,-83.5001 1027.8852,-79 1022.8852,-79.0001 1022.8852,-79.0001 1022.8852,-79.0001 1027.8852,-79 1022.8852,-74.5001 1032.8852,-79 1032.8852,-79"/>
<text text-anchor="middle" x="1014.759" y="-84.4524" font-family="Helvetica,sans-Serif" font-size="10.00" fill="#000000">tipo1</text>
<text text-anchor="middle" x="981.8583" y="-67.5476" font-family="Helvetica,sans-Serif" font-size="10.00" fill="#000000">*</text>
</g>
<!-- A8 -->
<g id="node9" class="node">
<title>A8</title>
<polygon fill="none" stroke="#000000" points="727.5,-129 727.5,-161 832.5,-161 832.5,-129 727.5,-129"/>
<text text-anchor="start" x="737.2175" y="-142" font-family="Helvetica,sans-Serif" font-size="10.00" fill="#000000">RegistroEstadistica</text>
<polygon fill="none" stroke="#000000" points="727.5,-97 727.5,-129 832.5,-129 832.5,-97 727.5,-97"/>
<text text-anchor="start" x="757.4995" y="-110" font-family="Helvetica,sans-Serif" font-size="10.00" fill="#000000">valor:Real</text>
</g>
<!-- A8&#45;&gt;A2JA7 -->
<g id="edge12" class="edge">
<title>A8&#45;&gt;A2JA7</title>
<path fill="none" stroke="#000000" stroke-dasharray="5,2" d="M779.5,-96.8314C779.5,-94.3788 779.5,-91.9262 779.5,-89.4736"/>
<polygon fill="#000000" stroke="#000000" points="779.5,-79.3906 784.0001,-89.3906 779.5,-84.3906 779.5001,-89.3906 779.5001,-89.3906 779.5001,-89.3906 779.5,-84.3906 775.0001,-89.3907 779.5,-79.3906 779.5,-79.3906"/>
</g>
<!-- A9&#45;&gt;A2 -->
<g id="edge16" class="edge">
<title>A9&#45;&gt;A2</title>
<path fill="none" stroke="#000000" d="M423.581,-175.0975C434.338,-178.5551 445.556,-182.1608 456.7835,-185.7697"/>
<polygon fill="none" stroke="#000000" points="423.5253,-175.0796 416.589,-177.0516 412.1009,-171.4074 419.0371,-169.4354 423.5253,-175.0796"/>
<polygon fill="#000000" stroke="#000000" points="466.6413,-188.9383 455.7439,-190.1622 461.8811,-187.4082 457.121,-185.8781 457.121,-185.8781 457.121,-185.8781 461.8811,-187.4082 458.4981,-181.594 466.6413,-188.9383 466.6413,-188.9383"/>
<text text-anchor="middle" x="446.7982" y="-188.4384" font-family="Helvetica,sans-Serif" font-size="10.00" fill="#000000">2</text>
<text text-anchor="middle" x="431.944" y="-165.9073" font-family="Helvetica,sans-Serif" font-size="10.00" fill="#000000">*</text>
</g>
<!-- A10 -->
<g id="node11" class="node">
<title>A10</title>
<polygon fill="none" stroke="#000000" points="462.5,-134 462.5,-166 677.5,-166 677.5,-134 462.5,-134"/>
<text text-anchor="start" x="533.607" y="-147" font-family="Helvetica,sans-Serif" font-size="10.00" fill="#000000">RegistroReporte</text>
<polygon fill="none" stroke="#000000" points="462.5,-90 462.5,-134 677.5,-134 677.5,-90 462.5,-90"/>
<text text-anchor="start" x="472.483" y="-115" font-family="Helvetica,sans-Serif" font-size="10.00" fill="#000000">estadisticaParticipanteA:RegistroEstadistica</text>
<text text-anchor="start" x="472.483" y="-103" font-family="Helvetica,sans-Serif" font-size="10.00" fill="#000000">estadisticaParticipanteB:RegistroEstadistica</text>
</g>
<!-- A9&#45;&gt;A10 -->
<g id="edge14" class="edge">
<title>A9&#45;&gt;A10</title>
<path fill="none" stroke="#000000" d="M424.0456,-142.2857C432.977,-141.4085 442.221,-140.5006 451.52,-139.5873"/>
<polygon fill="none" stroke="#000000" points="424.0434,-142.2858 418.4632,-146.8532 412.1009,-143.4588 417.6812,-138.8915 424.0434,-142.2858"/>
<polygon fill="#000000" stroke="#000000" points="461.62,-138.5954 452.1077,-144.0513 456.6439,-139.0841 451.6678,-139.5729 451.6678,-139.5729 451.6678,-139.5729 456.6439,-139.0841 451.228,-135.0944 461.62,-138.5954 461.62,-138.5954"/>
<text text-anchor="middle" x="444.4068" y="-145.779" font-family="Helvetica,sans-Serif" font-size="10.00" fill="#000000">registros*</text>
<text text-anchor="middle" x="429.3141" y="-130.2752" font-family="Helvetica,sans-Serif" font-size="10.00" fill="#000000">1</text>
</g>
<!-- A10&#45;&gt;A8 -->
<g id="edge15" class="edge">
<title>A10&#45;&gt;A8</title>
<path fill="none" stroke="#000000" d="M689.3363,-128.5706C698.731,-128.6154 707.964,-128.6594 716.7262,-128.7011"/>
<polygon fill="none" stroke="#000000" points="689.2681,-128.5704 683.2491,-132.5418 677.2683,-128.5132 683.2873,-124.5418 689.2681,-128.5704"/>
<polygon fill="#000000" stroke="#000000" points="726.7776,-128.7489 716.7562,-133.2012 721.7777,-128.7251 716.7777,-128.7012 716.7777,-128.7012 716.7777,-128.7012 721.7777,-128.7251 716.7992,-124.2013 726.7776,-128.7489 726.7776,-128.7489"/>
<text text-anchor="middle" x="708.6114" y="-134.1149" font-family="Helvetica,sans-Serif" font-size="10.00" fill="#000000">2</text>
<text text-anchor="middle" x="695.4345" y="-117.1472" font-family="Helvetica,sans-Serif" font-size="10.00" fill="#000000">*</text>
</g>
<!-- A2JA7&#45;&gt;A7 -->
<g id="edge11" class="edge">
<title>A2JA7&#45;&gt;A7</title>
<path fill="none" stroke="#000000" d="M779.9117,-79C784.8313,-79 832.8827,-79 871.9652,-79"/>
<polygon fill="#000000" stroke="#000000" points="882.1906,-79 872.1906,-83.5001 877.1906,-79 872.1906,-79.0001 872.1906,-79.0001 872.1906,-79.0001 877.1906,-79 872.1906,-74.5001 882.1906,-79 882.1906,-79"/>
<text text-anchor="middle" x="864.0644" y="-84.4524" font-family="Helvetica,sans-Serif" font-size="10.00" fill="#000000">*</text>
</g>
</g>
</svg>
