<?xml version="1.0" encoding="UTF-8" standalone="no"?>
<!DOCTYPE svg PUBLIC "-//W3C//DTD SVG 1.1//EN"
 "http://www.w3.org/Graphics/SVG/1.1/DTD/svg11.dtd">
<!-- Generated by graphviz version 2.40.1 (20161225.0304)
 -->
<!-- Title: G Pages: 1 -->
<svg width="2070pt" height="492pt"
 viewBox="0.00 0.00 2069.57 491.85" xmlns="http://www.w3.org/2000/svg" xmlns:xlink="http://www.w3.org/1999/xlink">
<g id="graph0" class="graph" transform="scale(1 1) rotate(0) translate(4 487.846)">
<title>G</title>
<polygon fill="#ffffff" stroke="transparent" points="-4,4 -4,-487.846 2065.565,-487.846 2065.565,4 -4,4"/>
<!-- A0 -->
<g id="node1" class="node">
<title>A0</title>
<polygon fill="none" stroke="#000000" points=".5,-424 .5,-456 341.5,-456 341.5,-424 .5,-424"/>
<text text-anchor="start" x="155.163" y="-437" font-family="Helvetica,sans-Serif" font-size="10.00" fill="#000000">Torneo</text>
<polygon fill="none" stroke="#000000" points=".5,-320 .5,-424 341.5,-424 341.5,-320 .5,-320"/>
<text text-anchor="start" x="140.1605" y="-405" font-family="Helvetica,sans-Serif" font-size="10.00" fill="#000000">nombre:Texto</text>
<text text-anchor="start" x="131.822" y="-393" font-family="Helvetica,sans-Serif" font-size="10.00" fill="#000000">fechaInicio:Fecha</text>
<text text-anchor="start" x="102.6515" y="-381" font-family="Helvetica,sans-Serif" font-size="10.00" fill="#000000">fechaInicioInscripciones:Fecha</text>
<text text-anchor="start" x="100.712" y="-369" font-family="Helvetica,sans-Serif" font-size="10.00" fill="#000000">fechaCierreInscripciones:Fecha</text>
<text text-anchor="start" x="109.042" y="-357" font-family="Helvetica,sans-Serif" font-size="10.00" fill="#000000">numeroParticipantes:Entero</text>
<text text-anchor="start" x="131.5485" y="-345" font-family="Helvetica,sans-Serif" font-size="10.00" fill="#000000">limiteEdad:Entero</text>
<text text-anchor="start" x="120.1595" y="-333" font-family="Helvetica,sans-Serif" font-size="10.00" fill="#000000">valorInscripcion:Entero</text>
<polygon fill="none" stroke="#000000" points=".5,0 .5,-320 341.5,-320 341.5,0 .5,0"/>
<text text-anchor="start" x="109.741" y="-301" font-family="Helvetica,sans-Serif" font-size="10.00" fill="#000000">+Constructor(nombre:Texto</text>
<text text-anchor="start" x="131.822" y="-289" font-family="Helvetica,sans-Serif" font-size="10.00" fill="#000000">fechaInicio:Fecha</text>
<text text-anchor="start" x="102.6515" y="-277" font-family="Helvetica,sans-Serif" font-size="10.00" fill="#000000">fechaInicioInscripciones:Fecha</text>
<text text-anchor="start" x="100.712" y="-265" font-family="Helvetica,sans-Serif" font-size="10.00" fill="#000000">fechaCierreInscripciones:Fecha</text>
<text text-anchor="start" x="109.042" y="-253" font-family="Helvetica,sans-Serif" font-size="10.00" fill="#000000">numeroParticipantes:Entero</text>
<text text-anchor="start" x="131.5485" y="-241" font-family="Helvetica,sans-Serif" font-size="10.00" fill="#000000">limiteEdad:Entero</text>
<text text-anchor="start" x="120.1595" y="-229" font-family="Helvetica,sans-Serif" font-size="10.00" fill="#000000">valorInscripcion:Entero</text>
<text text-anchor="start" x="120.1555" y="-217" font-family="Helvetica,sans-Serif" font-size="10.00" fill="#000000">tipoTorneo:TipoTorneo</text>
<text text-anchor="start" x="10.288" y="-205" font-family="Helvetica,sans-Serif" font-size="10.00" fill="#000000">caracter:CaracterTorneo)+registrarParticipante(participante:Participante)</text>
<text text-anchor="start" x="126.1335" y="-193" font-family="Helvetica,sans-Serif" font-size="10.00" fill="#000000">+getNombre():Texto</text>
<text text-anchor="start" x="116.96" y="-181" font-family="Helvetica,sans-Serif" font-size="10.00" fill="#000000">+getFechaInicio():Fecha</text>
<text text-anchor="start" x="87.7895" y="-169" font-family="Helvetica,sans-Serif" font-size="10.00" fill="#000000">+getFechaInicioInscripciones():Fecha</text>
<text text-anchor="start" x="85.85" y="-157" font-family="Helvetica,sans-Serif" font-size="10.00" fill="#000000">+getFechaCierreInscripciones():Fecha</text>
<text text-anchor="start" x="95.015" y="-145" font-family="Helvetica,sans-Serif" font-size="10.00" fill="#000000">+getNumeroParticipantes():Entero</text>
<text text-anchor="start" x="116.6815" y="-133" font-family="Helvetica,sans-Serif" font-size="10.00" fill="#000000">+getLimiteEdad():Entero</text>
<text text-anchor="start" x="106.128" y="-121" font-family="Helvetica,sans-Serif" font-size="10.00" fill="#000000">+getValorInscripcion():Entero</text>
<text text-anchor="start" x="105.2935" y="-109" font-family="Helvetica,sans-Serif" font-size="10.00" fill="#000000">+getTipoTorneo():TipoTorneo</text>
<text text-anchor="start" x="78.6215" y="-97" font-family="Helvetica,sans-Serif" font-size="10.00" fill="#000000">+getParticipantes():Participante［*］</text>
<text text-anchor="start" x="102.2435" y="-85" font-family="Helvetica,sans-Serif" font-size="10.00" fill="#000000">+getCaracter():CaracterTorneo</text>
<text text-anchor="start" x="93.344" y="-73" font-family="Helvetica,sans-Serif" font-size="10.00" fill="#000000">+setFechaInicio(fechaInicio:Fecha)</text>
<text text-anchor="start" x="35.003" y="-61" font-family="Helvetica,sans-Serif" font-size="10.00" fill="#000000">+setFechaInicioInscripciones(fechaInicioInscripciones:Fecha)</text>
<text text-anchor="start" x="31.124" y="-49" font-family="Helvetica,sans-Serif" font-size="10.00" fill="#000000">+setFechaCierreInscripciones(fechaCierreInscripciones:Fecha)</text>
<text text-anchor="start" x="67.65" y="-37" font-family="Helvetica,sans-Serif" font-size="10.00" fill="#000000">buscarParticipante(nombre:Texto):Participante</text>
<text text-anchor="start" x="58.8875" y="-25" font-family="Helvetica,sans-Serif" font-size="10.00" fill="#000000">+registrarJugador(equipo:Equipo,jugador:Jugador)</text>
<text text-anchor="start" x="44.4445" y="-13" font-family="Helvetica,sans-Serif" font-size="10.00" fill="#000000">+registrarJugador(nombreEquipo:Texto,jugador:Jugador)</text>
</g>
<!-- A1 -->
<g id="node2" class="node">
<title>A1</title>
<polygon fill="none" stroke="#000000" points="422.5,-360 422.5,-404 493.5,-404 493.5,-360 422.5,-360"/>
<text text-anchor="start" x="433.264" y="-385" font-family="Helvetica,sans-Serif" font-size="10.00" fill="#000000">&lt;&lt;Enum&gt;&gt;</text>
<text text-anchor="start" x="432.44" y="-373" font-family="Helvetica,sans-Serif" font-size="10.00" fill="#000000">TipoTorneo</text>
<polygon fill="none" stroke="#000000" points="422.5,-292 422.5,-360 493.5,-360 493.5,-292 422.5,-292"/>
<text text-anchor="start" x="441.6075" y="-341" font-family="Helvetica,sans-Serif" font-size="10.00" fill="#000000">LOCAL</text>
<text text-anchor="start" x="432.164" y="-329" font-family="Helvetica,sans-Serif" font-size="10.00" fill="#000000">REGIONAL</text>
<text text-anchor="start" x="432.444" y="-317" font-family="Helvetica,sans-Serif" font-size="10.00" fill="#000000">NACIONAL</text>
<text text-anchor="start" x="435.5035" y="-305" font-family="Helvetica,sans-Serif" font-size="10.00" fill="#000000">MUNDIAL</text>
</g>
<!-- A0&#45;&gt;A1 -->
<g id="edge3" class="edge">
<title>A0&#45;&gt;A1</title>
<path fill="none" stroke="#000000" d="M341.1799,-299.3644C367.4553,-310.3506 392.4687,-320.8092 412.5205,-329.1932"/>
<polygon fill="#000000" stroke="#000000" points="421.9493,-333.1356 410.9874,-333.4297 417.3363,-331.2068 412.7233,-329.278 412.7233,-329.278 412.7233,-329.278 417.3363,-331.2068 414.4593,-325.1263 421.9493,-333.1356 421.9493,-333.1356"/>
<text text-anchor="middle" x="401.9656" y="-330.9415" font-family="Helvetica,sans-Serif" font-size="10.00" fill="#000000">tipoTorneo1</text>
<text text-anchor="middle" x="361.1636" y="-295.5585" font-family="Helvetica,sans-Serif" font-size="10.00" fill="#000000">*</text>
</g>
<!-- A4 -->
<g id="node5" class="node">
<title>A4</title>
<polygon fill="none" stroke="#000000" points="574,-258 574,-302 726,-302 726,-258 574,-258"/>
<text text-anchor="start" x="619.151" y="-283" font-family="Helvetica,sans-Serif" font-size="10.00" fill="#000000">&lt;&lt;interface&gt;&gt;</text>
<text text-anchor="start" x="623.6055" y="-271" font-family="Helvetica,sans-Serif" font-size="10.00" fill="#000000">Participante</text>
<polygon fill="none" stroke="#000000" points="574,-226 574,-258 726,-258 726,-226 574,-226"/>
<text text-anchor="start" x="583.7425" y="-239" font-family="Helvetica,sans-Serif" font-size="10.00" fill="#000000">+getNombreCompleto():Texto</text>
</g>
<!-- A0&#45;&gt;A4 -->
<g id="edge4" class="edge">
<title>A0&#45;&gt;A4</title>
<path fill="none" stroke="#000000" d="M353.3637,-242.151C366.1003,-243.1204 378.7415,-244.0778 391,-245 448.5189,-249.327 513.2329,-254.0744 563.5852,-257.7414"/>
<polygon fill="none" stroke="#000000" points="353.0978,-242.1308 346.8111,-245.6631 341.1326,-241.2186 347.4193,-237.6863 353.0978,-242.1308"/>
<polygon fill="#000000" stroke="#000000" points="573.7805,-258.4834 563.4802,-262.2456 568.7937,-258.1204 563.8069,-257.7574 563.8069,-257.7574 563.8069,-257.7574 568.7937,-258.1204 564.1336,-253.2693 573.7805,-258.4834 573.7805,-258.4834"/>
<text text-anchor="middle" x="555.0886" y="-262.5977" font-family="Helvetica,sans-Serif" font-size="10.00" fill="#000000">participantes*</text>
<text text-anchor="middle" x="359.8487" y="-231.1684" font-family="Helvetica,sans-Serif" font-size="10.00" fill="#000000">1</text>
</g>
<!-- A8 -->
<g id="node9" class="node">
<title>A8</title>
<polygon fill="none" stroke="#000000" points="412.5,-86 412.5,-130 502.5,-130 502.5,-86 412.5,-86"/>
<text text-anchor="start" x="432.764" y="-111" font-family="Helvetica,sans-Serif" font-size="10.00" fill="#000000">&lt;&lt;Enum&gt;&gt;</text>
<text text-anchor="start" x="422.4965" y="-99" font-family="Helvetica,sans-Serif" font-size="10.00" fill="#000000">CaracterTorneo</text>
<polygon fill="none" stroke="#000000" points="412.5,-42 412.5,-86 502.5,-86 502.5,-42 412.5,-42"/>
<text text-anchor="start" x="429.445" y="-67" font-family="Helvetica,sans-Serif" font-size="10.00" fill="#000000">INDIVIDUAL</text>
<text text-anchor="start" x="436.943" y="-55" font-family="Helvetica,sans-Serif" font-size="10.00" fill="#000000">GRUPAL</text>
</g>
<!-- A0&#45;&gt;A8 -->
<g id="edge2" class="edge">
<title>A0&#45;&gt;A8</title>
<path fill="none" stroke="#000000" d="M341.1799,-143.5521C363.6287,-132.445 385.1564,-121.7937 403.4556,-112.7397"/>
<polygon fill="#000000" stroke="#000000" points="412.443,-108.293 405.4756,-116.761 407.9615,-110.5104 403.48,-112.7277 403.48,-112.7277 403.48,-112.7277 407.9615,-110.5104 401.4844,-108.6944 412.443,-108.293 412.443,-108.293"/>
<text text-anchor="middle" x="399.9449" y="-120.9071" font-family="Helvetica,sans-Serif" font-size="10.00" fill="#000000">caracter1</text>
<text text-anchor="middle" x="353.6779" y="-124.9381" font-family="Helvetica,sans-Serif" font-size="10.00" fill="#000000">*</text>
</g>
<!-- A11 -->
<g id="node12" class="node">
<title>A11</title>
<polygon fill="none" stroke="#000000" points="391.5,-204 391.5,-236 524.5,-236 524.5,-204 391.5,-204"/>
<text text-anchor="start" x="440.2185" y="-217" font-family="Helvetica,sans-Serif" font-size="10.00" fill="#000000">Reporte</text>
<polygon fill="none" stroke="#000000" points="391.5,-148 391.5,-204 524.5,-204 524.5,-148 391.5,-148"/>
<text text-anchor="start" x="430.4895" y="-185" font-family="Helvetica,sans-Serif" font-size="10.00" fill="#000000">fecha:Fecha</text>
<text text-anchor="start" x="401.042" y="-173" font-family="Helvetica,sans-Serif" font-size="10.00" fill="#000000">participanteA:Participante</text>
<text text-anchor="start" x="401.042" y="-161" font-family="Helvetica,sans-Serif" font-size="10.00" fill="#000000">participanteB:Participante</text>
</g>
<!-- A0&#45;&gt;A11 -->
<g id="edge1" class="edge">
<title>A0&#45;&gt;A11</title>
<path fill="none" stroke="#000000" stroke-dasharray="5,2" d="M341.1799,-206.5907C354.816,-204.8802 368.1122,-203.2124 380.5515,-201.6521"/>
<polygon fill="#000000" stroke="#000000" points="390.7875,-200.3681 381.4254,-206.0778 385.8264,-200.9905 380.8653,-201.6128 380.8653,-201.6128 380.8653,-201.6128 385.8264,-200.9905 380.3052,-197.1478 390.7875,-200.3681 390.7875,-200.3681"/>
</g>
<!-- A2 -->
<g id="node3" class="node">
<title>A2</title>
<polygon fill="none" stroke="#000000" points="1538.3483,-374 1425.2167,-374 1425.2167,-338 1538.3483,-338 1538.3483,-374"/>
<text text-anchor="middle" x="1481.7825" y="-359" font-family="Helvetica,sans-Serif" font-size="10.00" fill="#000000">&lt;&lt;interface&gt;&gt;</text>
<text text-anchor="middle" x="1481.7825" y="-347" font-family="Helvetica,sans-Serif" font-size="10.00" fill="#000000">RegistroEstadistica</text>
</g>
<!-- A3 -->
<g id="node4" class="node">
<title>A3</title>
<polygon fill="none" stroke="#000000" points="1589.065,-356 1589.065,-388 1794.065,-388 1794.065,-356 1589.065,-356"/>
<text text-anchor="start" x="1639.3395" y="-369" font-family="Helvetica,sans-Serif" font-size="10.00" fill="#000000">RegistroEstadisticaImpl</text>
<polygon fill="none" stroke="#000000" points="1589.065,-324 1589.065,-356 1794.065,-356 1794.065,-324 1589.065,-324"/>
<text text-anchor="start" x="1598.774" y="-337" font-family="Helvetica,sans-Serif" font-size="10.00" fill="#000000">estadisticas:ValorEstadistica［*］</text>
</g>
<!-- A2&#45;&gt;A3 -->
<g id="edge18" class="edge">
<title>A2&#45;&gt;A3</title>
<path fill="none" stroke="#000000" d="M1548.4446,-356C1561.2025,-356 1574.8318,-356 1588.4163,-356"/>
<polygon fill="none" stroke="#000000" points="1548.4174,-352.5001 1538.4174,-356 1548.4173,-359.5001 1548.4174,-352.5001"/>
</g>
<!-- A2&#45;&gt;A4 -->
<g id="edge17" class="edge">
<title>A2&#45;&gt;A4</title>
<path fill="none" stroke="#000000" d="M1459.0772,-381.7137C1439.1561,-402.3871 1408.2418,-430.182 1375,-444 1237.7049,-501.0712 1187.8182,-486.4837 1041,-463 918.5934,-443.4209 883.4581,-437.8019 776,-376 741.7491,-356.3014 708.5827,-326.2325 684.8818,-302.2086"/>
<polygon fill="none" stroke="#000000" points="1461.857,-383.8666 1466.1558,-374.1831 1456.7566,-379.0723 1461.857,-383.8666"/>
</g>
<!-- A2JA9 -->
<!-- A2&#45;&gt;A2JA9 -->
<g id="edge10" class="edge">
<title>A2&#45;&gt;A2JA9</title>
<path fill="none" stroke="#000000" d="M1487.2387,-337.7866C1499.0689,-301.8438 1530.7777,-222.2259 1588.565,-187 1625.7825,-164.313 1685.17,-176.6971 1690.6558,-177.9079"/>
<text text-anchor="middle" x="1485.1747" y="-314.8934" font-family="Helvetica,sans-Serif" font-size="10.00" fill="#000000">*</text>
</g>
<!-- A5 -->
<g id="node6" class="node">
<title>A5</title>
<polygon fill="none" stroke="#000000" points="795.5,-335 795.5,-367 972.5,-367 972.5,-335 795.5,-335"/>
<text text-anchor="start" x="868.438" y="-348" font-family="Helvetica,sans-Serif" font-size="10.00" fill="#000000">Equipo</text>
<polygon fill="none" stroke="#000000" points="795.5,-303 795.5,-335 972.5,-335 972.5,-303 795.5,-303"/>
<text text-anchor="start" x="853.1605" y="-316" font-family="Helvetica,sans-Serif" font-size="10.00" fill="#000000">nombre:Texto</text>
<polygon fill="none" stroke="#000000" points="795.5,-211 795.5,-303 972.5,-303 972.5,-211 795.5,-211"/>
<text text-anchor="start" x="822.741" y="-284" font-family="Helvetica,sans-Serif" font-size="10.00" fill="#000000">+Constructor(nombre:Texto</text>
<text text-anchor="start" x="831.485" y="-272" font-family="Helvetica,sans-Serif" font-size="10.00" fill="#000000">representante:Persona)</text>
<text text-anchor="start" x="839.1335" y="-260" font-family="Helvetica,sans-Serif" font-size="10.00" fill="#000000">+getNombre():Texto</text>
<text text-anchor="start" x="818.0075" y="-248" font-family="Helvetica,sans-Serif" font-size="10.00" fill="#000000">+getRepresentante():Persona</text>
<text text-anchor="start" x="805.507" y="-236" font-family="Helvetica,sans-Serif" font-size="10.00" fill="#000000">+getJugadores():Jugador［*］</text>
<text text-anchor="start" x="805.2355" y="-224" font-family="Helvetica,sans-Serif" font-size="10.00" fill="#000000">+registrarJugador(jugador:Jugador)</text>
</g>
<!-- A4&#45;&gt;A5 -->
<g id="edge9" class="edge">
<title>A4&#45;&gt;A5</title>
<path fill="none" stroke="#000000" d="M736.309,-273.2408C755.4157,-275.2865 775.6919,-277.4574 794.8888,-279.5127"/>
<polygon fill="none" stroke="#000000" points="736.4493,-269.7359 726.1335,-272.1513 735.7041,-276.6961 736.4493,-269.7359"/>
</g>
<!-- A7 -->
<g id="node8" class="node">
<title>A7</title>
<polygon fill="none" stroke="#000000" points="1233,-293 1233,-325 1375,-325 1375,-293 1233,-293"/>
<text text-anchor="start" x="1285.938" y="-306" font-family="Helvetica,sans-Serif" font-size="10.00" fill="#000000">Jugador</text>
<polygon fill="none" stroke="#000000" points="1233,-261 1233,-293 1375,-293 1375,-261 1233,-261"/>
<text text-anchor="start" x="1251.489" y="-274" font-family="Helvetica,sans-Serif" font-size="10.00" fill="#000000">fechaNacimiento:Fecha</text>
<polygon fill="none" stroke="#000000" points="1233,-181 1233,-261 1375,-261 1375,-181 1233,-181"/>
<text text-anchor="start" x="1242.741" y="-242" font-family="Helvetica,sans-Serif" font-size="10.00" fill="#000000">+Constructor(nombre:Texto</text>
<text text-anchor="start" x="1272.8815" y="-230" font-family="Helvetica,sans-Serif" font-size="10.00" fill="#000000">apellido:Texto</text>
<text text-anchor="start" x="1278.165" y="-218" font-family="Helvetica,sans-Serif" font-size="10.00" fill="#000000">email:Texto</text>
<text text-anchor="start" x="1275.3855" y="-206" font-family="Helvetica,sans-Serif" font-size="10.00" fill="#000000">celular:Texto</text>
<text text-anchor="start" x="1249.8245" y="-194" font-family="Helvetica,sans-Serif" font-size="10.00" fill="#000000">fechaNacimiento:Fecha)</text>
</g>
<!-- A4&#45;&gt;A7 -->
<g id="edge8" class="edge">
<title>A4&#45;&gt;A7</title>
<path fill="none" stroke="#000000" d="M723.5402,-221.5104C740.288,-213.64 758.3583,-206.4931 776,-202 951.3571,-157.3394 1007.0931,-148.5566 1183,-191 1199.865,-195.0692 1217.0201,-201.9126 1232.9084,-209.6017"/>
<polygon fill="none" stroke="#000000" points="721.8577,-218.4363 714.3831,-225.945 724.9088,-224.7364 721.8577,-218.4363"/>
</g>
<!-- A5&#45;&gt;A2 -->
<g id="edge20" class="edge">
<title>A5&#45;&gt;A2</title>
<path fill="none" stroke="#000000" d="M942.8651,-367.1525C969.3923,-395.7551 1003.2163,-424.8137 1041,-440 1180.6116,-496.1135 1360.4683,-419.7364 1440.3675,-378.8507"/>
<polygon fill="#000000" stroke="#000000" points="1449.6064,-374.0519 1442.8064,-382.6548 1445.1693,-376.3566 1440.7321,-378.6614 1440.7321,-378.6614 1440.7321,-378.6614 1445.1693,-376.3566 1438.6578,-374.6679 1449.6064,-374.0519 1449.6064,-374.0519"/>
</g>
<!-- A6 -->
<g id="node7" class="node">
<title>A6</title>
<polygon fill="none" stroke="#000000" points="1041,-399 1041,-431 1183,-431 1183,-399 1041,-399"/>
<text text-anchor="start" x="1093.383" y="-412" font-family="Helvetica,sans-Serif" font-size="10.00" fill="#000000">Persona</text>
<polygon fill="none" stroke="#000000" points="1041,-331 1041,-399 1183,-399 1183,-331 1041,-331"/>
<text text-anchor="start" x="1081.1605" y="-380" font-family="Helvetica,sans-Serif" font-size="10.00" fill="#000000">nombre:Texto</text>
<text text-anchor="start" x="1080.8815" y="-368" font-family="Helvetica,sans-Serif" font-size="10.00" fill="#000000">apellido:Texto</text>
<text text-anchor="start" x="1086.165" y="-356" font-family="Helvetica,sans-Serif" font-size="10.00" fill="#000000">email:Texto</text>
<text text-anchor="start" x="1083.3855" y="-344" font-family="Helvetica,sans-Serif" font-size="10.00" fill="#000000">celular:Texto</text>
<polygon fill="none" stroke="#000000" points="1041,-215 1041,-331 1183,-331 1183,-215 1041,-215"/>
<text text-anchor="start" x="1050.741" y="-312" font-family="Helvetica,sans-Serif" font-size="10.00" fill="#000000">+Constructor(nombre:Texto</text>
<text text-anchor="start" x="1080.8815" y="-300" font-family="Helvetica,sans-Serif" font-size="10.00" fill="#000000">apellido:Texto</text>
<text text-anchor="start" x="1086.165" y="-288" font-family="Helvetica,sans-Serif" font-size="10.00" fill="#000000">email:Texto</text>
<text text-anchor="start" x="1081.721" y="-276" font-family="Helvetica,sans-Serif" font-size="10.00" fill="#000000">celular:Texto)</text>
<text text-anchor="start" x="1067.1335" y="-264" font-family="Helvetica,sans-Serif" font-size="10.00" fill="#000000">+getNombre():Texto</text>
<text text-anchor="start" x="1067.1295" y="-252" font-family="Helvetica,sans-Serif" font-size="10.00" fill="#000000">+getApellido():Texto</text>
<text text-anchor="start" x="1072.413" y="-240" font-family="Helvetica,sans-Serif" font-size="10.00" fill="#000000">+getEmail():Texto</text>
<text text-anchor="start" x="1069.079" y="-228" font-family="Helvetica,sans-Serif" font-size="10.00" fill="#000000">+getCelular():Texto</text>
</g>
<!-- A5&#45;&gt;A6 -->
<g id="edge5" class="edge">
<title>A5&#45;&gt;A6</title>
<path fill="none" stroke="#000000" d="M984.2559,-303.9921C999.7168,-306.2927 1015.512,-308.6429 1030.4875,-310.8712"/>
<polygon fill="none" stroke="#000000" points="984.0404,-303.9601 977.517,-307.0335 972.1711,-302.194 978.6945,-299.1206 984.0404,-303.9601"/>
<polygon fill="#000000" stroke="#000000" points="1040.7101,-312.3923 1030.1567,-315.3715 1035.7646,-311.6564 1030.819,-310.9205 1030.819,-310.9205 1030.819,-310.9205 1035.7646,-311.6564 1031.4813,-306.4695 1040.7101,-312.3923 1040.7101,-312.3923"/>
<text text-anchor="middle" x="1021.5374" y="-315.0849" font-family="Helvetica,sans-Serif" font-size="10.00" fill="#000000">representante1</text>
<text text-anchor="middle" x="991.3439" y="-293.5014" font-family="Helvetica,sans-Serif" font-size="10.00" fill="#000000">1</text>
</g>
<!-- A5&#45;&gt;A7 -->
<g id="edge7" class="edge">
<title>A5&#45;&gt;A7</title>
<path fill="none" stroke="#000000" d="M982.9518,-227.4748C1001.6213,-218.598 1021.4365,-210.8394 1041,-206 1102.2645,-190.8451 1120.9687,-194.3757 1183,-206 1196.3682,-208.5051 1210.1581,-212.4412 1223.428,-216.9944"/>
<polygon fill="none" stroke="#000000" points="982.8681,-227.5159 979.2522,-233.755 972.1024,-232.8169 975.7182,-226.5778 982.8681,-227.5159"/>
<polygon fill="#000000" stroke="#000000" points="1232.9852,-220.4072 1222.0543,-221.2821 1228.2764,-218.7257 1223.5677,-217.0442 1223.5677,-217.0442 1223.5677,-217.0442 1228.2764,-218.7257 1225.081,-212.8062 1232.9852,-220.4072 1232.9852,-220.4072"/>
<text text-anchor="middle" x="1213.0723" y="-219.2715" font-family="Helvetica,sans-Serif" font-size="10.00" fill="#000000">jugador*</text>
<text text-anchor="middle" x="984.6303" y="-214.2268" font-family="Helvetica,sans-Serif" font-size="10.00" fill="#000000">1</text>
</g>
<!-- A6&#45;&gt;A7 -->
<g id="edge6" class="edge">
<title>A6&#45;&gt;A7</title>
<path fill="none" stroke="#000000" d="M1192.8265,-293.532C1206.136,-288.6796 1219.8447,-283.6816 1232.8942,-278.924"/>
<polygon fill="none" stroke="#000000" points="1191.4171,-290.3204 1183.2209,-297.0341 1193.8148,-296.897 1191.4171,-290.3204"/>
</g>
<!-- A7&#45;&gt;A2 -->
<g id="edge19" class="edge">
<title>A7&#45;&gt;A2</title>
<path fill="none" stroke="#000000" d="M1375.0308,-294.1524C1397.6763,-307.2723 1421.9348,-321.3267 1441.5952,-332.7171"/>
<polygon fill="#000000" stroke="#000000" points="1450.2825,-337.7502 1439.3739,-336.6308 1445.9561,-335.2436 1441.6298,-332.7371 1441.6298,-332.7371 1441.6298,-332.7371 1445.9561,-335.2436 1443.8857,-328.8434 1450.2825,-337.7502 1450.2825,-337.7502"/>
</g>
<!-- A9 -->
<g id="node10" class="node">
<title>A9</title>
<polygon fill="none" stroke="#000000" points="1844.065,-178 1844.065,-210 1925.065,-210 1925.065,-178 1844.065,-178"/>
<text text-anchor="start" x="1860.394" y="-191" font-family="Helvetica,sans-Serif" font-size="10.00" fill="#000000">Estadistica</text>
<polygon fill="none" stroke="#000000" points="1844.065,-146 1844.065,-178 1925.065,-178 1925.065,-146 1844.065,-146"/>
<text text-anchor="start" x="1853.7255" y="-159" font-family="Helvetica,sans-Serif" font-size="10.00" fill="#000000">nombre:Texto</text>
</g>
<!-- A13 -->
<g id="node14" class="node">
<title>A13</title>
<polygon fill="none" stroke="#000000" points="1975.065,-184 1975.065,-228 2062.065,-228 2062.065,-184 1975.065,-184"/>
<text text-anchor="start" x="1993.829" y="-209" font-family="Helvetica,sans-Serif" font-size="10.00" fill="#000000">&lt;&lt;Enum&gt;&gt;</text>
<text text-anchor="start" x="1984.671" y="-197" font-family="Helvetica,sans-Serif" font-size="10.00" fill="#000000">TipoEstadistica</text>
<polygon fill="none" stroke="#000000" points="1975.065,-128 1975.065,-184 2062.065,-184 2062.065,-128 1975.065,-128"/>
<text text-anchor="start" x="1995.504" y="-165" font-family="Helvetica,sans-Serif" font-size="10.00" fill="#000000">POSITIVA</text>
<text text-anchor="start" x="1993.284" y="-153" font-family="Helvetica,sans-Serif" font-size="10.00" fill="#000000">NEGATIVA</text>
<text text-anchor="start" x="1998.013" y="-141" font-family="Helvetica,sans-Serif" font-size="10.00" fill="#000000">NEUTRA</text>
</g>
<!-- A9&#45;&gt;A13 -->
<g id="edge13" class="edge">
<title>A9&#45;&gt;A13</title>
<path fill="none" stroke="#000000" d="M1924.6331,-178C1937.0326,-178 1950.8705,-178 1964.0168,-178"/>
<polygon fill="#000000" stroke="#000000" points="1974.3709,-178 1964.371,-182.5001 1969.3709,-178 1964.3709,-178.0001 1964.3709,-178.0001 1964.3709,-178.0001 1969.3709,-178 1964.3709,-173.5001 1974.3709,-178 1974.3709,-178"/>
<text text-anchor="middle" x="1956.2448" y="-183.4524" font-family="Helvetica,sans-Serif" font-size="10.00" fill="#000000">tipo1</text>
<text text-anchor="middle" x="1942.7592" y="-166.5476" font-family="Helvetica,sans-Serif" font-size="10.00" fill="#000000">*</text>
</g>
<!-- A10 -->
<g id="node11" class="node">
<title>A10</title>
<polygon fill="none" stroke="#000000" points="1632.065,-240 1632.065,-272 1750.065,-272 1750.065,-240 1632.065,-240"/>
<text text-anchor="start" x="1648.2825" y="-253" font-family="Helvetica,sans-Serif" font-size="10.00" fill="#000000">RegistroEstadistica</text>
<polygon fill="none" stroke="#000000" points="1632.065,-196 1632.065,-240 1750.065,-240 1750.065,-196 1632.065,-196"/>
<text text-anchor="start" x="1668.5645" y="-221" font-family="Helvetica,sans-Serif" font-size="10.00" fill="#000000">valor:Real</text>
<text text-anchor="start" x="1641.8885" y="-209" font-family="Helvetica,sans-Serif" font-size="10.00" fill="#000000">estadistica:Estadistica</text>
</g>
<!-- A10&#45;&gt;A2JA9 -->
<g id="edge12" class="edge">
<title>A10&#45;&gt;A2JA9</title>
<path fill="none" stroke="#000000" stroke-dasharray="5,2" d="M1691.065,-195.8008C1691.065,-193.3591 1691.065,-190.9174 1691.065,-188.4756"/>
<polygon fill="#000000" stroke="#000000" points="1691.065,-178.4375 1695.5651,-188.4375 1691.065,-183.4375 1691.0651,-188.4375 1691.0651,-188.4375 1691.0651,-188.4375 1691.065,-183.4375 1686.5651,-188.4375 1691.065,-178.4375 1691.065,-178.4375"/>
</g>
<!-- A11&#45;&gt;A4 -->
<g id="edge16" class="edge">
<title>A11&#45;&gt;A4</title>
<path fill="none" stroke="#000000" d="M535.502,-221.1748C545.0035,-224.7286 554.7512,-228.3745 564.3563,-231.967"/>
<polygon fill="none" stroke="#000000" points="535.2567,-221.0831 528.2356,-222.7276 524.0171,-216.8791 531.0382,-215.2346 535.2567,-221.0831"/>
<polygon fill="#000000" stroke="#000000" points="573.8995,-235.5364 562.9567,-236.248 569.2163,-233.7848 564.5332,-232.0331 564.5332,-232.0331 564.5332,-232.0331 569.2163,-233.7848 566.1097,-227.8183 573.8995,-235.5364 573.8995,-235.5364"/>
<text text-anchor="middle" x="553.9609" y="-234.1031" font-family="Helvetica,sans-Serif" font-size="10.00" fill="#000000">2</text>
<text text-anchor="middle" x="543.9557" y="-212.3124" font-family="Helvetica,sans-Serif" font-size="10.00" fill="#000000">*</text>
</g>
<!-- A12 -->
<g id="node13" class="node">
<title>A12</title>
<polygon fill="none" stroke="#000000" points="776.5,-89 776.5,-121 991.5,-121 991.5,-89 776.5,-89"/>
<text text-anchor="start" x="847.607" y="-102" font-family="Helvetica,sans-Serif" font-size="10.00" fill="#000000">RegistroReporte</text>
<polygon fill="none" stroke="#000000" points="776.5,-45 776.5,-89 991.5,-89 991.5,-45 776.5,-45"/>
<text text-anchor="start" x="786.483" y="-70" font-family="Helvetica,sans-Serif" font-size="10.00" fill="#000000">estadisticaParticipanteA:ValorEstadistica</text>
<text text-anchor="start" x="786.483" y="-58" font-family="Helvetica,sans-Serif" font-size="10.00" fill="#000000">estadisticaParticipanteB:ValorEstadistica</text>
</g>
<!-- A11&#45;&gt;A12 -->
<g id="edge14" class="edge">
<title>A11&#45;&gt;A12</title>
<path fill="none" stroke="#000000" d="M535.8465,-171.9536C600.2656,-155.4708 692.5391,-131.8609 765.8357,-113.1066"/>
<polygon fill="none" stroke="#000000" points="535.688,-171.9941 530.8668,-177.3566 524.0625,-174.9688 528.8837,-169.6063 535.688,-171.9941"/>
<polygon fill="#000000" stroke="#000000" points="775.5893,-110.611 767.0169,-117.4494 770.7453,-111.8504 765.9014,-113.0899 765.9014,-113.0899 765.9014,-113.0899 770.7453,-111.8504 764.7859,-108.7303 775.5893,-110.611 775.5893,-110.611"/>
<text text-anchor="middle" x="760.124" y="-120.2927" font-family="Helvetica,sans-Serif" font-size="10.00" fill="#000000">registros*</text>
<text text-anchor="middle" x="539.5277" y="-159.287" font-family="Helvetica,sans-Serif" font-size="10.00" fill="#000000">1</text>
</g>
<!-- A12&#45;&gt;A10 -->
<g id="edge15" class="edge">
<title>A12&#45;&gt;A10</title>
<path fill="none" stroke="#000000" d="M1003.3626,-104.2016C1102.9365,-121.9352 1248.2809,-148.0995 1375,-172 1460.1495,-188.06 1558.0221,-207.3944 1622.0158,-220.1546"/>
<polygon fill="none" stroke="#000000" points="1003.265,-104.1843 996.6569,-107.071 991.4506,-102.0814 998.0587,-99.1947 1003.265,-104.1843"/>
<polygon fill="#000000" stroke="#000000" points="1631.9884,-222.1446 1621.3011,-224.6007 1627.0851,-221.1661 1622.1817,-220.1877 1622.1817,-220.1877 1622.1817,-220.1877 1627.0851,-221.1661 1623.0624,-215.7747 1631.9884,-222.1446 1631.9884,-222.1446"/>
<text text-anchor="middle" x="1612.5587" y="-223.8865" font-family="Helvetica,sans-Serif" font-size="10.00" fill="#000000">2</text>
<text text-anchor="middle" x="1010.7774" y="-93.9361" font-family="Helvetica,sans-Serif" font-size="10.00" fill="#000000">*</text>
</g>
<!-- A2JA9&#45;&gt;A9 -->
<g id="edge11" class="edge">
<title>A2JA9&#45;&gt;A9</title>
<path fill="none" stroke="#000000" d="M1691.6186,-178C1699.0133,-178 1778.8619,-178 1833.3534,-178"/>
<polygon fill="#000000" stroke="#000000" points="1843.5471,-178 1833.5471,-182.5001 1838.5471,-178 1833.5471,-178.0001 1833.5471,-178.0001 1833.5471,-178.0001 1838.5471,-178 1833.547,-173.5001 1843.5471,-178 1843.5471,-178"/>
<text text-anchor="middle" x="1825.4209" y="-183.4524" font-family="Helvetica,sans-Serif" font-size="10.00" fill="#000000">*</text>
</g>
</g>
</svg>
