<?xml version="1.0" encoding="UTF-8" standalone="no"?>
<!DOCTYPE svg PUBLIC "-//W3C//DTD SVG 1.1//EN"
 "http://www.w3.org/Graphics/SVG/1.1/DTD/svg11.dtd">
<!-- Generated by graphviz version 2.40.1 (20161225.0304)
 -->
<!-- Title: G Pages: 1 -->
<svg width="2193pt" height="521pt"
 viewBox="0.00 0.00 2192.57 520.93" xmlns="http://www.w3.org/2000/svg" xmlns:xlink="http://www.w3.org/1999/xlink">
<g id="graph0" class="graph" transform="scale(1 1) rotate(0) translate(4 516.9251)">
<title>G</title>
<polygon fill="#ffffff" stroke="transparent" points="-4,4 -4,-516.9251 2188.565,-516.9251 2188.565,4 -4,4"/>
<!-- A0 -->
<g id="node1" class="node">
<title>A0</title>
<polygon fill="none" stroke="#000000" points=".5,-469.9251 .5,-501.9251 341.5,-501.9251 341.5,-469.9251 .5,-469.9251"/>
<text text-anchor="start" x="155.163" y="-482.9251" font-family="Helvetica,sans-Serif" font-size="10.00" fill="#000000">Torneo</text>
<polygon fill="none" stroke="#000000" points=".5,-365.9251 .5,-469.9251 341.5,-469.9251 341.5,-365.9251 .5,-365.9251"/>
<text text-anchor="start" x="140.1605" y="-450.9251" font-family="Helvetica,sans-Serif" font-size="10.00" fill="#000000">nombre:Texto</text>
<text text-anchor="start" x="131.822" y="-438.9251" font-family="Helvetica,sans-Serif" font-size="10.00" fill="#000000">fechaInicio:Fecha</text>
<text text-anchor="start" x="102.6515" y="-426.9251" font-family="Helvetica,sans-Serif" font-size="10.00" fill="#000000">fechaInicioInscripciones:Fecha</text>
<text text-anchor="start" x="100.712" y="-414.9251" font-family="Helvetica,sans-Serif" font-size="10.00" fill="#000000">fechaCierreInscripciones:Fecha</text>
<text text-anchor="start" x="109.042" y="-402.9251" font-family="Helvetica,sans-Serif" font-size="10.00" fill="#000000">numeroParticipantes:Entero</text>
<text text-anchor="start" x="131.5485" y="-390.9251" font-family="Helvetica,sans-Serif" font-size="10.00" fill="#000000">limiteEdad:Entero</text>
<text text-anchor="start" x="120.1595" y="-378.9251" font-family="Helvetica,sans-Serif" font-size="10.00" fill="#000000">valorInscripcion:Entero</text>
<polygon fill="none" stroke="#000000" points=".5,-69.9251 .5,-365.9251 341.5,-365.9251 341.5,-69.9251 .5,-69.9251"/>
<text text-anchor="start" x="109.741" y="-346.9251" font-family="Helvetica,sans-Serif" font-size="10.00" fill="#000000">+Constructor(nombre:Texto</text>
<text text-anchor="start" x="131.822" y="-334.9251" font-family="Helvetica,sans-Serif" font-size="10.00" fill="#000000">fechaInicio:Fecha</text>
<text text-anchor="start" x="102.6515" y="-322.9251" font-family="Helvetica,sans-Serif" font-size="10.00" fill="#000000">fechaInicioInscripciones:Fecha</text>
<text text-anchor="start" x="100.712" y="-310.9251" font-family="Helvetica,sans-Serif" font-size="10.00" fill="#000000">fechaCierreInscripciones:Fecha</text>
<text text-anchor="start" x="109.042" y="-298.9251" font-family="Helvetica,sans-Serif" font-size="10.00" fill="#000000">numeroParticipantes:Entero</text>
<text text-anchor="start" x="131.5485" y="-286.9251" font-family="Helvetica,sans-Serif" font-size="10.00" fill="#000000">limiteEdad:Entero</text>
<text text-anchor="start" x="120.1595" y="-274.9251" font-family="Helvetica,sans-Serif" font-size="10.00" fill="#000000">valorInscripcion:Entero</text>
<text text-anchor="start" x="120.1555" y="-262.9251" font-family="Helvetica,sans-Serif" font-size="10.00" fill="#000000">tipoTorneo:TipoTorneo</text>
<text text-anchor="start" x="10.288" y="-250.9251" font-family="Helvetica,sans-Serif" font-size="10.00" fill="#000000">caracter:CaracterTorneo)+registrarParticipante(participante:Participante)</text>
<text text-anchor="start" x="126.1335" y="-238.9251" font-family="Helvetica,sans-Serif" font-size="10.00" fill="#000000">+getNombre():Texto</text>
<text text-anchor="start" x="116.96" y="-226.9251" font-family="Helvetica,sans-Serif" font-size="10.00" fill="#000000">+getFechaInicio():Fecha</text>
<text text-anchor="start" x="87.7895" y="-214.9251" font-family="Helvetica,sans-Serif" font-size="10.00" fill="#000000">+getFechaInicioInscripciones():Fecha</text>
<text text-anchor="start" x="85.85" y="-202.9251" font-family="Helvetica,sans-Serif" font-size="10.00" fill="#000000">+getFechaCierreInscripciones():Fecha</text>
<text text-anchor="start" x="95.015" y="-190.9251" font-family="Helvetica,sans-Serif" font-size="10.00" fill="#000000">+getNumeroParticipantes():Entero</text>
<text text-anchor="start" x="116.6815" y="-178.9251" font-family="Helvetica,sans-Serif" font-size="10.00" fill="#000000">+getLimiteEdad():Entero</text>
<text text-anchor="start" x="106.128" y="-166.9251" font-family="Helvetica,sans-Serif" font-size="10.00" fill="#000000">+getValorInscripcion():Entero</text>
<text text-anchor="start" x="105.2935" y="-154.9251" font-family="Helvetica,sans-Serif" font-size="10.00" fill="#000000">+getTipoTorneo():TipoTorneo</text>
<text text-anchor="start" x="78.6215" y="-142.9251" font-family="Helvetica,sans-Serif" font-size="10.00" fill="#000000">+getParticipantes():Participante［*］</text>
<text text-anchor="start" x="102.2435" y="-130.9251" font-family="Helvetica,sans-Serif" font-size="10.00" fill="#000000">+getCaracter():CaracterTorneo</text>
<text text-anchor="start" x="93.344" y="-118.9251" font-family="Helvetica,sans-Serif" font-size="10.00" fill="#000000">+setFechaInicio(fechaInicio:Fecha)</text>
<text text-anchor="start" x="35.003" y="-106.9251" font-family="Helvetica,sans-Serif" font-size="10.00" fill="#000000">+setFechaInicioInscripciones(fechaInicioInscripciones:Fecha)</text>
<text text-anchor="start" x="31.124" y="-94.9251" font-family="Helvetica,sans-Serif" font-size="10.00" fill="#000000">+setFechaCierreInscripciones(fechaCierreInscripciones:Fecha)</text>
<text text-anchor="start" x="67.65" y="-82.9251" font-family="Helvetica,sans-Serif" font-size="10.00" fill="#000000">buscarParticipante(nombre:Texto):Participante</text>
</g>
<!-- A1 -->
<g id="node2" class="node">
<title>A1</title>
<polygon fill="none" stroke="#000000" points="422.5,-468.9251 422.5,-512.9251 493.5,-512.9251 493.5,-468.9251 422.5,-468.9251"/>
<text text-anchor="start" x="433.264" y="-493.9251" font-family="Helvetica,sans-Serif" font-size="10.00" fill="#000000">&lt;&lt;Enum&gt;&gt;</text>
<text text-anchor="start" x="432.44" y="-481.9251" font-family="Helvetica,sans-Serif" font-size="10.00" fill="#000000">TipoTorneo</text>
<polygon fill="none" stroke="#000000" points="422.5,-400.9251 422.5,-468.9251 493.5,-468.9251 493.5,-400.9251 422.5,-400.9251"/>
<text text-anchor="start" x="441.6075" y="-449.9251" font-family="Helvetica,sans-Serif" font-size="10.00" fill="#000000">LOCAL</text>
<text text-anchor="start" x="432.164" y="-437.9251" font-family="Helvetica,sans-Serif" font-size="10.00" fill="#000000">REGIONAL</text>
<text text-anchor="start" x="432.444" y="-425.9251" font-family="Helvetica,sans-Serif" font-size="10.00" fill="#000000">NACIONAL</text>
<text text-anchor="start" x="435.5035" y="-413.9251" font-family="Helvetica,sans-Serif" font-size="10.00" fill="#000000">MUNDIAL</text>
</g>
<!-- A0&#45;&gt;A1 -->
<g id="edge3" class="edge">
<title>A0&#45;&gt;A1</title>
<path fill="none" stroke="#000000" d="M341.1799,-387.6194C367.8136,-403.4882 393.1507,-418.5846 413.338,-430.6126"/>
<polygon fill="#000000" stroke="#000000" points="421.9493,-435.7433 411.0552,-434.4906 417.654,-433.184 413.3586,-430.6248 413.3586,-430.6248 413.3586,-430.6248 417.654,-433.184 415.6619,-426.7589 421.9493,-435.7433 421.9493,-435.7433"/>
<text text-anchor="middle" x="402.0513" y="-430.7266" font-family="Helvetica,sans-Serif" font-size="10.00" fill="#000000">tipoTorneo1</text>
<text text-anchor="middle" x="361.0779" y="-386.6361" font-family="Helvetica,sans-Serif" font-size="10.00" fill="#000000">*</text>
</g>
<!-- A4 -->
<g id="node5" class="node">
<title>A4</title>
<polygon fill="none" stroke="#000000" points="574,-228.9251 574,-272.9251 726,-272.9251 726,-228.9251 574,-228.9251"/>
<text text-anchor="start" x="619.151" y="-253.9251" font-family="Helvetica,sans-Serif" font-size="10.00" fill="#000000">&lt;&lt;interface&gt;&gt;</text>
<text text-anchor="start" x="623.6055" y="-241.9251" font-family="Helvetica,sans-Serif" font-size="10.00" fill="#000000">Participante</text>
<polygon fill="none" stroke="#000000" points="574,-196.9251 574,-228.9251 726,-228.9251 726,-196.9251 574,-196.9251"/>
<text text-anchor="start" x="583.7425" y="-209.9251" font-family="Helvetica,sans-Serif" font-size="10.00" fill="#000000">+getNombreCompleto():Texto</text>
</g>
<!-- A0&#45;&gt;A4 -->
<g id="edge4" class="edge">
<title>A0&#45;&gt;A4</title>
<path fill="none" stroke="#000000" d="M352.7987,-190.8332C365.5133,-186.5309 378.3172,-182.8153 391,-179.9251 448.6336,-166.7915 466.1361,-167.8464 524,-179.9251 538.2378,-182.8971 552.8367,-187.5707 566.8181,-192.9672"/>
<polygon fill="none" stroke="#000000" points="352.4694,-190.9493 348.1423,-196.7179 341.1532,-194.9423 345.4803,-189.1737 352.4694,-190.9493"/>
<polygon fill="#000000" stroke="#000000" points="576.3868,-196.8068 565.4303,-197.2591 571.7465,-194.9448 567.1061,-193.0827 567.1061,-193.0827 567.1061,-193.0827 571.7465,-194.9448 568.7819,-188.9064 576.3868,-196.8068 576.3868,-196.8068"/>
<text text-anchor="middle" x="556.4168" y="-194.901" font-family="Helvetica,sans-Serif" font-size="10.00" fill="#000000">participantes*</text>
<text text-anchor="middle" x="355.434" y="-177.9402" font-family="Helvetica,sans-Serif" font-size="10.00" fill="#000000">1</text>
</g>
<!-- A8 -->
<g id="node9" class="node">
<title>A8</title>
<polygon fill="none" stroke="#000000" points="412.5,-232.9251 412.5,-276.9251 502.5,-276.9251 502.5,-232.9251 412.5,-232.9251"/>
<text text-anchor="start" x="432.764" y="-257.9251" font-family="Helvetica,sans-Serif" font-size="10.00" fill="#000000">&lt;&lt;Enum&gt;&gt;</text>
<text text-anchor="start" x="422.4965" y="-245.9251" font-family="Helvetica,sans-Serif" font-size="10.00" fill="#000000">CaracterTorneo</text>
<polygon fill="none" stroke="#000000" points="412.5,-188.9251 412.5,-232.9251 502.5,-232.9251 502.5,-188.9251 412.5,-188.9251"/>
<text text-anchor="start" x="429.445" y="-213.9251" font-family="Helvetica,sans-Serif" font-size="10.00" fill="#000000">INDIVIDUAL</text>
<text text-anchor="start" x="436.943" y="-201.9251" font-family="Helvetica,sans-Serif" font-size="10.00" fill="#000000">GRUPAL</text>
</g>
<!-- A0&#45;&gt;A8 -->
<g id="edge2" class="edge">
<title>A0&#45;&gt;A8</title>
<path fill="none" stroke="#000000" d="M341.1799,-254.4058C363.2186,-250.3359 384.3697,-246.43 402.4497,-243.0912"/>
<polygon fill="#000000" stroke="#000000" points="412.443,-241.2457 403.4265,-247.487 407.5261,-242.1538 402.6093,-243.0618 402.6093,-243.0618 402.6093,-243.0618 407.5261,-242.1538 401.792,-238.6366 412.443,-241.2457 412.443,-241.2457"/>
<text text-anchor="middle" x="396.1532" y="-249.8492" font-family="Helvetica,sans-Serif" font-size="10.00" fill="#000000">caracter1</text>
<text text-anchor="middle" x="357.4697" y="-239.8023" font-family="Helvetica,sans-Serif" font-size="10.00" fill="#000000">*</text>
</g>
<!-- A11 -->
<g id="node12" class="node">
<title>A11</title>
<polygon fill="none" stroke="#000000" points="391.5,-350.9251 391.5,-382.9251 524.5,-382.9251 524.5,-350.9251 391.5,-350.9251"/>
<text text-anchor="start" x="440.2185" y="-363.9251" font-family="Helvetica,sans-Serif" font-size="10.00" fill="#000000">Reporte</text>
<polygon fill="none" stroke="#000000" points="391.5,-294.9251 391.5,-350.9251 524.5,-350.9251 524.5,-294.9251 391.5,-294.9251"/>
<text text-anchor="start" x="430.4895" y="-331.9251" font-family="Helvetica,sans-Serif" font-size="10.00" fill="#000000">fecha:Fecha</text>
<text text-anchor="start" x="401.042" y="-319.9251" font-family="Helvetica,sans-Serif" font-size="10.00" fill="#000000">participanteA:Participante</text>
<text text-anchor="start" x="401.042" y="-307.9251" font-family="Helvetica,sans-Serif" font-size="10.00" fill="#000000">participanteB:Participante</text>
</g>
<!-- A0&#45;&gt;A11 -->
<g id="edge1" class="edge">
<title>A0&#45;&gt;A11</title>
<path fill="none" stroke="#000000" stroke-dasharray="5,2" d="M341.1799,-317.4444C354.9523,-319.9877 368.3781,-322.467 380.9244,-324.7839"/>
<polygon fill="#000000" stroke="#000000" points="390.7875,-326.6054 380.1366,-329.2145 385.8707,-325.6973 380.9538,-324.7893 380.9538,-324.7893 380.9538,-324.7893 385.8707,-325.6973 381.771,-320.3641 390.7875,-326.6054 390.7875,-326.6054"/>
</g>
<!-- A2 -->
<g id="node3" class="node">
<title>A2</title>
<polygon fill="none" stroke="#000000" points="1507.3483,-188.9251 1394.2167,-188.9251 1394.2167,-152.9251 1507.3483,-152.9251 1507.3483,-188.9251"/>
<text text-anchor="middle" x="1450.7825" y="-173.9251" font-family="Helvetica,sans-Serif" font-size="10.00" fill="#000000">&lt;&lt;interface&gt;&gt;</text>
<text text-anchor="middle" x="1450.7825" y="-161.9251" font-family="Helvetica,sans-Serif" font-size="10.00" fill="#000000">RegistroEstadistica</text>
</g>
<!-- A3 -->
<g id="node4" class="node">
<title>A3</title>
<polygon fill="none" stroke="#000000" points="1558.065,-200.9251 1558.065,-232.9251 1749.065,-232.9251 1749.065,-200.9251 1558.065,-200.9251"/>
<text text-anchor="start" x="1601.3395" y="-213.9251" font-family="Helvetica,sans-Serif" font-size="10.00" fill="#000000">RegistroEstadisticaImpl</text>
<polygon fill="none" stroke="#000000" points="1558.065,-168.9251 1558.065,-200.9251 1749.065,-200.9251 1749.065,-168.9251 1558.065,-168.9251"/>
<text text-anchor="start" x="1567.718" y="-181.9251" font-family="Helvetica,sans-Serif" font-size="10.00" fill="#000000">estadisticas:ValorEstadistica［*］</text>
</g>
<!-- A2&#45;&gt;A3 -->
<g id="edge18" class="edge">
<title>A2&#45;&gt;A3</title>
<path fill="none" stroke="#000000" d="M1517.4511,-180.8125C1530.2319,-182.708 1543.8469,-184.7272 1557.3332,-186.7274"/>
<polygon fill="none" stroke="#000000" points="1517.8037,-177.3266 1507.3984,-179.3217 1516.7768,-184.2509 1517.8037,-177.3266"/>
</g>
<!-- A2&#45;&gt;A4 -->
<g id="edge17" class="edge">
<title>A2&#45;&gt;A4</title>
<path fill="none" stroke="#000000" d="M1384.3052,-191.6775C1327.6503,-208.5083 1243.7618,-231.4202 1169,-243.9251 996.6011,-272.7611 950.0204,-275.3508 776,-258.9251 759.8161,-257.3975 742.6165,-254.7896 726.2964,-251.8417"/>
<polygon fill="none" stroke="#000000" points="1385.6303,-194.9344 1394.2077,-188.7152 1383.6241,-188.2281 1385.6303,-194.9344"/>
</g>
<!-- A3JA9 -->
<!-- A3&#45;&gt;A3JA9 -->
<g id="edge10" class="edge">
<title>A3&#45;&gt;A3JA9</title>
<path fill="none" stroke="#000000" d="M1748.7287,-201.8607C1798.6256,-202.3487 1850.6227,-202.8572 1856.9274,-202.9189"/>
<text text-anchor="middle" x="1766.9367" y="-190.586" font-family="Helvetica,sans-Serif" font-size="10.00" fill="#000000">*</text>
</g>
<!-- A5 -->
<g id="node6" class="node">
<title>A5</title>
<polygon fill="none" stroke="#000000" points="805.5,-88.9251 805.5,-120.9251 947.5,-120.9251 947.5,-88.9251 805.5,-88.9251"/>
<text text-anchor="start" x="860.938" y="-101.9251" font-family="Helvetica,sans-Serif" font-size="10.00" fill="#000000">Equipo</text>
<polygon fill="none" stroke="#000000" points="805.5,-56.9251 805.5,-88.9251 947.5,-88.9251 947.5,-56.9251 805.5,-56.9251"/>
<text text-anchor="start" x="845.6605" y="-69.9251" font-family="Helvetica,sans-Serif" font-size="10.00" fill="#000000">nombre:Texto</text>
<polygon fill="none" stroke="#000000" points="805.5,-12.9251 805.5,-56.9251 947.5,-56.9251 947.5,-12.9251 805.5,-12.9251"/>
<text text-anchor="start" x="815.241" y="-37.9251" font-family="Helvetica,sans-Serif" font-size="10.00" fill="#000000">+Constructor(nombre:Texto</text>
<text text-anchor="start" x="823.985" y="-25.9251" font-family="Helvetica,sans-Serif" font-size="10.00" fill="#000000">representante:Persona)</text>
</g>
<!-- A4&#45;&gt;A5 -->
<g id="edge9" class="edge">
<title>A4&#45;&gt;A5</title>
<path fill="none" stroke="#000000" d="M709.4884,-190.8012C738.7991,-169.0608 774.3661,-142.68 805.1327,-119.8597"/>
<polygon fill="none" stroke="#000000" points="707.3431,-188.0347 701.3964,-196.8033 711.5133,-193.657 707.3431,-188.0347"/>
</g>
<!-- A7 -->
<g id="node8" class="node">
<title>A7</title>
<polygon fill="none" stroke="#000000" points="1219.5,-138.9251 1219.5,-170.9251 1344.5,-170.9251 1344.5,-138.9251 1219.5,-138.9251"/>
<text text-anchor="start" x="1263.938" y="-151.9251" font-family="Helvetica,sans-Serif" font-size="10.00" fill="#000000">Jugador</text>
<polygon fill="none" stroke="#000000" points="1219.5,-106.9251 1219.5,-138.9251 1344.5,-138.9251 1344.5,-106.9251 1219.5,-106.9251"/>
<text text-anchor="start" x="1229.489" y="-119.9251" font-family="Helvetica,sans-Serif" font-size="10.00" fill="#000000">fechaNacimiento:Fecha</text>
</g>
<!-- A4&#45;&gt;A7 -->
<g id="edge8" class="edge">
<title>A4&#45;&gt;A7</title>
<path fill="none" stroke="#000000" d="M736.4662,-246.1186C841.6242,-256.5143 1023.1436,-264.0017 1169,-215.9251 1197.3228,-206.5895 1225.0183,-187.7905 1245.8428,-171.1051"/>
<polygon fill="none" stroke="#000000" points="736.523,-242.6062 726.2192,-245.0723 735.812,-249.57 736.523,-242.6062"/>
</g>
<!-- A5&#45;&gt;A2 -->
<g id="edge20" class="edge">
<title>A5&#45;&gt;A2</title>
<path fill="none" stroke="#000000" d="M947.7011,-33.9206C972.2777,-24.1695 1000.3414,-14.8043 1027,-9.9251 1089.0799,1.4371 1107.5938,4.645 1169,-9.9251 1270.5725,-34.0255 1372.7214,-107.5756 1421.4066,-146.3721"/>
<polygon fill="#000000" stroke="#000000" points="1429.3088,-152.7401 1418.6988,-149.9693 1425.4156,-149.6028 1421.5224,-146.4654 1421.5224,-146.4654 1421.5224,-146.4654 1425.4156,-149.6028 1424.346,-142.9615 1429.3088,-152.7401 1429.3088,-152.7401"/>
</g>
<!-- A6 -->
<g id="node7" class="node">
<title>A6</title>
<polygon fill="none" stroke="#000000" points="1027,-174.9251 1027,-206.9251 1169,-206.9251 1169,-174.9251 1027,-174.9251"/>
<text text-anchor="start" x="1079.383" y="-187.9251" font-family="Helvetica,sans-Serif" font-size="10.00" fill="#000000">Persona</text>
<polygon fill="none" stroke="#000000" points="1027,-106.9251 1027,-174.9251 1169,-174.9251 1169,-106.9251 1027,-106.9251"/>
<text text-anchor="start" x="1067.1605" y="-155.9251" font-family="Helvetica,sans-Serif" font-size="10.00" fill="#000000">nombre:Texto</text>
<text text-anchor="start" x="1066.8815" y="-143.9251" font-family="Helvetica,sans-Serif" font-size="10.00" fill="#000000">apellido:Texto</text>
<text text-anchor="start" x="1072.165" y="-131.9251" font-family="Helvetica,sans-Serif" font-size="10.00" fill="#000000">email:Texto</text>
<text text-anchor="start" x="1069.3855" y="-119.9251" font-family="Helvetica,sans-Serif" font-size="10.00" fill="#000000">celular:Texto</text>
<polygon fill="none" stroke="#000000" points="1027,-38.9251 1027,-106.9251 1169,-106.9251 1169,-38.9251 1027,-38.9251"/>
<text text-anchor="start" x="1036.741" y="-87.9251" font-family="Helvetica,sans-Serif" font-size="10.00" fill="#000000">+Constructor(nombre:Texto</text>
<text text-anchor="start" x="1066.8815" y="-75.9251" font-family="Helvetica,sans-Serif" font-size="10.00" fill="#000000">apellido:Texto</text>
<text text-anchor="start" x="1072.165" y="-63.9251" font-family="Helvetica,sans-Serif" font-size="10.00" fill="#000000">email:Texto</text>
<text text-anchor="start" x="1067.721" y="-51.9251" font-family="Helvetica,sans-Serif" font-size="10.00" fill="#000000">celular:Texto)</text>
</g>
<!-- A5&#45;&gt;A6 -->
<g id="edge5" class="edge">
<title>A5&#45;&gt;A6</title>
<path fill="none" stroke="#000000" d="M959.5607,-87.9246C978.3204,-92.6675 998.2127,-97.6967 1016.8909,-102.419"/>
<polygon fill="none" stroke="#000000" points="959.4372,-87.8935 952.6397,-90.3008 947.8032,-84.9521 954.6007,-82.5448 959.4372,-87.8935"/>
<polygon fill="#000000" stroke="#000000" points="1026.8304,-104.9319 1016.0324,-106.8434 1021.9829,-103.7063 1017.1354,-102.4807 1017.1354,-102.4807 1017.1354,-102.4807 1021.9829,-103.7063 1018.2384,-98.118 1026.8304,-104.9319 1026.8304,-104.9319"/>
<text text-anchor="middle" x="1007.1854" y="-105.6835" font-family="Helvetica,sans-Serif" font-size="10.00" fill="#000000">representante1</text>
<text text-anchor="middle" x="967.4482" y="-78.2005" font-family="Helvetica,sans-Serif" font-size="10.00" fill="#000000">1</text>
</g>
<!-- A5&#45;&gt;A7 -->
<g id="edge7" class="edge">
<title>A5&#45;&gt;A7</title>
<path fill="none" stroke="#000000" d="M959.3305,-35.0487C1019.5127,-16.9216 1101.8387,-2.7255 1169,-29.9251 1203.3447,-43.8343 1232.9992,-73.815 1253.2269,-98.8192"/>
<polygon fill="none" stroke="#000000" points="959.0538,-35.1351 954.5205,-40.7431 947.6003,-38.7154 952.1336,-33.1074 959.0538,-35.1351"/>
<polygon fill="#000000" stroke="#000000" points="1259.4571,-106.7359 1249.7365,-101.6605 1256.3649,-102.8067 1253.2728,-98.8775 1253.2728,-98.8775 1253.2728,-98.8775 1256.3649,-102.8067 1256.809,-96.0946 1259.4571,-106.7359 1259.4571,-106.7359"/>
<text text-anchor="middle" x="1241.6051" y="-94.7189" font-family="Helvetica,sans-Serif" font-size="10.00" fill="#000000">jugador*</text>
<text text-anchor="middle" x="962.3791" y="-22.24" font-family="Helvetica,sans-Serif" font-size="10.00" fill="#000000">1</text>
</g>
<!-- A6&#45;&gt;A7 -->
<g id="edge6" class="edge">
<title>A6&#45;&gt;A7</title>
<path fill="none" stroke="#000000" d="M1179.3108,-130.0149C1192.6219,-131.1755 1206.23,-132.362 1218.9946,-133.475"/>
<polygon fill="none" stroke="#000000" points="1179.4748,-126.516 1169.2085,-129.134 1178.8667,-133.4895 1179.4748,-126.516"/>
</g>
<!-- A7&#45;&gt;A2 -->
<g id="edge19" class="edge">
<title>A7&#45;&gt;A2</title>
<path fill="none" stroke="#000000" d="M1344.0536,-150.7498C1357.1128,-153.2184 1370.9263,-155.8296 1384.1277,-158.3251"/>
<polygon fill="#000000" stroke="#000000" points="1394.081,-160.2066 1383.4191,-162.7708 1389.168,-159.2779 1384.255,-158.3491 1384.255,-158.3491 1384.255,-158.3491 1389.168,-159.2779 1385.0909,-153.9274 1394.081,-160.2066 1394.081,-160.2066"/>
</g>
<!-- A9 -->
<g id="node10" class="node">
<title>A9</title>
<polygon fill="none" stroke="#000000" points="1967.065,-202.9251 1967.065,-234.9251 2048.065,-234.9251 2048.065,-202.9251 1967.065,-202.9251"/>
<text text-anchor="start" x="1983.394" y="-215.9251" font-family="Helvetica,sans-Serif" font-size="10.00" fill="#000000">Estadistica</text>
<polygon fill="none" stroke="#000000" points="1967.065,-170.9251 1967.065,-202.9251 2048.065,-202.9251 2048.065,-170.9251 1967.065,-170.9251"/>
<text text-anchor="start" x="1976.7255" y="-183.9251" font-family="Helvetica,sans-Serif" font-size="10.00" fill="#000000">nombre:Texto</text>
</g>
<!-- A13 -->
<g id="node14" class="node">
<title>A13</title>
<polygon fill="none" stroke="#000000" points="2098.065,-208.9251 2098.065,-252.9251 2185.065,-252.9251 2185.065,-208.9251 2098.065,-208.9251"/>
<text text-anchor="start" x="2116.829" y="-233.9251" font-family="Helvetica,sans-Serif" font-size="10.00" fill="#000000">&lt;&lt;Enum&gt;&gt;</text>
<text text-anchor="start" x="2107.671" y="-221.9251" font-family="Helvetica,sans-Serif" font-size="10.00" fill="#000000">TipoEstadistica</text>
<polygon fill="none" stroke="#000000" points="2098.065,-152.9251 2098.065,-208.9251 2185.065,-208.9251 2185.065,-152.9251 2098.065,-152.9251"/>
<text text-anchor="start" x="2118.504" y="-189.9251" font-family="Helvetica,sans-Serif" font-size="10.00" fill="#000000">POSITIVA</text>
<text text-anchor="start" x="2116.284" y="-177.9251" font-family="Helvetica,sans-Serif" font-size="10.00" fill="#000000">NEGATIVA</text>
<text text-anchor="start" x="2121.013" y="-165.9251" font-family="Helvetica,sans-Serif" font-size="10.00" fill="#000000">NEUTRA</text>
</g>
<!-- A9&#45;&gt;A13 -->
<g id="edge13" class="edge">
<title>A9&#45;&gt;A13</title>
<path fill="none" stroke="#000000" d="M2047.6331,-202.9251C2060.0326,-202.9251 2073.8705,-202.9251 2087.0168,-202.9251"/>
<polygon fill="#000000" stroke="#000000" points="2097.3709,-202.9251 2087.371,-207.4252 2092.3709,-202.9251 2087.3709,-202.9252 2087.3709,-202.9252 2087.3709,-202.9252 2092.3709,-202.9251 2087.3709,-198.4252 2097.3709,-202.9251 2097.3709,-202.9251"/>
<text text-anchor="middle" x="2079.2448" y="-208.3775" font-family="Helvetica,sans-Serif" font-size="10.00" fill="#000000">tipo1</text>
<text text-anchor="middle" x="2065.7592" y="-191.4727" font-family="Helvetica,sans-Serif" font-size="10.00" fill="#000000">*</text>
</g>
<!-- A10 -->
<g id="node11" class="node">
<title>A10</title>
<polygon fill="none" stroke="#000000" points="1798.565,-265.9251 1798.565,-297.9251 1916.565,-297.9251 1916.565,-265.9251 1798.565,-265.9251"/>
<text text-anchor="start" x="1821.7265" y="-278.9251" font-family="Helvetica,sans-Serif" font-size="10.00" fill="#000000">ValorEstadistica</text>
<polygon fill="none" stroke="#000000" points="1798.565,-221.9251 1798.565,-265.9251 1916.565,-265.9251 1916.565,-221.9251 1798.565,-221.9251"/>
<text text-anchor="start" x="1835.0645" y="-246.9251" font-family="Helvetica,sans-Serif" font-size="10.00" fill="#000000">valor:Real</text>
<text text-anchor="start" x="1808.3885" y="-234.9251" font-family="Helvetica,sans-Serif" font-size="10.00" fill="#000000">estadistica:Estadistica</text>
</g>
<!-- A10&#45;&gt;A3JA9 -->
<g id="edge12" class="edge">
<title>A10&#45;&gt;A3JA9</title>
<path fill="none" stroke="#000000" stroke-dasharray="5,2" d="M1857.565,-221.4856C1857.565,-218.8438 1857.565,-216.202 1857.565,-213.5602"/>
<polygon fill="#000000" stroke="#000000" points="1857.565,-203.3704 1862.0651,-213.3704 1857.565,-208.3704 1857.5651,-213.3704 1857.5651,-213.3704 1857.5651,-213.3704 1857.565,-208.3704 1853.0651,-213.3704 1857.565,-203.3704 1857.565,-203.3704"/>
</g>
<!-- A11&#45;&gt;A4 -->
<g id="edge16" class="edge">
<title>A11&#45;&gt;A4</title>
<path fill="none" stroke="#000000" d="M534.6772,-297.2293C546.4882,-290.8483 558.6983,-284.2517 570.5572,-277.8448"/>
<polygon fill="none" stroke="#000000" points="534.5749,-297.2846 531.1973,-303.6558 524.0171,-302.9886 527.3947,-296.6173 534.5749,-297.2846"/>
<polygon fill="#000000" stroke="#000000" points="579.5448,-272.9892 572.8857,-281.7017 575.1457,-275.3659 570.7467,-277.7425 570.7467,-277.7425 570.7467,-277.7425 575.1457,-275.3659 568.6077,-273.7834 579.5448,-272.9892 579.5448,-272.9892"/>
<text text-anchor="middle" x="567.6149" y="-286.0415" font-family="Helvetica,sans-Serif" font-size="10.00" fill="#000000">2</text>
<text text-anchor="middle" x="535.9471" y="-283.9363" font-family="Helvetica,sans-Serif" font-size="10.00" fill="#000000">*</text>
</g>
<!-- A12 -->
<g id="node13" class="node">
<title>A12</title>
<polygon fill="none" stroke="#000000" points="776.5,-344.9251 776.5,-376.9251 977.5,-376.9251 977.5,-344.9251 776.5,-344.9251"/>
<text text-anchor="start" x="840.607" y="-357.9251" font-family="Helvetica,sans-Serif" font-size="10.00" fill="#000000">RegistroReporte</text>
<polygon fill="none" stroke="#000000" points="776.5,-300.9251 776.5,-344.9251 977.5,-344.9251 977.5,-300.9251 776.5,-300.9251"/>
<text text-anchor="start" x="786.427" y="-325.9251" font-family="Helvetica,sans-Serif" font-size="10.00" fill="#000000">estadisticaParticipanteA:ValorEstadistica</text>
<text text-anchor="start" x="786.427" y="-313.9251" font-family="Helvetica,sans-Serif" font-size="10.00" fill="#000000">estadisticaParticipanteB:ValorEstadistica</text>
</g>
<!-- A11&#45;&gt;A12 -->
<g id="edge14" class="edge">
<title>A11&#45;&gt;A12</title>
<path fill="none" stroke="#000000" d="M536.653,-338.9251C601.4214,-338.9251 693.7692,-338.9251 765.8563,-338.9251"/>
<polygon fill="none" stroke="#000000" points="536.3551,-338.9252 530.3551,-342.9251 524.3551,-338.9251 530.3551,-334.9251 536.3551,-338.9252"/>
<polygon fill="#000000" stroke="#000000" points="775.8887,-338.9251 765.8888,-343.4252 770.8887,-338.9251 765.8887,-338.9252 765.8887,-338.9252 765.8887,-338.9252 770.8887,-338.9251 765.8887,-334.4252 775.8887,-338.9251 775.8887,-338.9251"/>
<text text-anchor="middle" x="757.7626" y="-344.3775" font-family="Helvetica,sans-Serif" font-size="10.00" fill="#000000">registros*</text>
<text text-anchor="middle" x="542.4813" y="-327.4727" font-family="Helvetica,sans-Serif" font-size="10.00" fill="#000000">1</text>
</g>
<!-- A12&#45;&gt;A10 -->
<g id="edge15" class="edge">
<title>A12&#45;&gt;A10</title>
<path fill="none" stroke="#000000" d="M989.1687,-332.9425C1070.407,-329.1386 1182.6928,-324.9251 1281.5,-324.9251 1281.5,-324.9251 1281.5,-324.9251 1450.7825,-324.9251 1570.634,-324.9251 1707.8883,-297.0709 1788.4015,-277.8303"/>
<polygon fill="none" stroke="#000000" points="989.1478,-332.9434 983.3442,-337.2234 977.1613,-333.5123 982.9649,-329.2324 989.1478,-332.9434"/>
<polygon fill="#000000" stroke="#000000" points="1798.4149,-275.4116 1789.751,-282.1338 1793.5547,-276.5856 1788.6944,-277.7596 1788.6944,-277.7596 1788.6944,-277.7596 1793.5547,-276.5856 1787.6379,-273.3854 1798.4149,-275.4116 1798.4149,-275.4116"/>
<text text-anchor="middle" x="1782.7799" y="-284.8835" font-family="Helvetica,sans-Serif" font-size="10.00" fill="#000000">2</text>
<text text-anchor="middle" x="994.8664" y="-321.2102" font-family="Helvetica,sans-Serif" font-size="10.00" fill="#000000">*</text>
</g>
<!-- A3JA9&#45;&gt;A9 -->
<g id="edge11" class="edge">
<title>A3JA9&#45;&gt;A9</title>
<path fill="none" stroke="#000000" d="M1857.9939,-202.9251C1863.2199,-202.9251 1915.1653,-202.9251 1956.2863,-202.9251"/>
<polygon fill="#000000" stroke="#000000" points="1966.4726,-202.9251 1956.4726,-207.4252 1961.4726,-202.9251 1956.4726,-202.9252 1956.4726,-202.9252 1956.4726,-202.9252 1961.4726,-202.9251 1956.4726,-198.4252 1966.4726,-202.9251 1966.4726,-202.9251"/>
<text text-anchor="middle" x="1948.3464" y="-208.3775" font-family="Helvetica,sans-Serif" font-size="10.00" fill="#000000">*</text>
</g>
</g>
</svg>
