<?xml version="1.0" encoding="UTF-8" standalone="no"?>
<!DOCTYPE svg PUBLIC "-//W3C//DTD SVG 1.1//EN"
 "http://www.w3.org/Graphics/SVG/1.1/DTD/svg11.dtd">
<!-- Generated by graphviz version 2.40.1 (20161225.0304)
 -->
<!-- Title: G Pages: 1 -->
<svg width="828pt" height="410pt"
 viewBox="0.00 0.00 828.00 410.00" xmlns="http://www.w3.org/2000/svg" xmlns:xlink="http://www.w3.org/1999/xlink">
<g id="graph0" class="graph" transform="scale(1 1) rotate(0) translate(4 406)">
<title>G</title>
<polygon fill="#ffffff" stroke="transparent" points="-4,4 -4,-406 824,-406 824,4 -4,4"/>
<!-- A0 -->
<g id="node1" class="node">
<title>A0</title>
<polygon fill="none" stroke="#000000" points=".5,-196 .5,-228 97.5,-228 97.5,-196 .5,-196"/>
<text text-anchor="start" x="10.381" y="-209" font-family="Helvetica,sans-Serif" font-size="10.00" fill="#000000">EmpresaSeguros</text>
<polygon fill="none" stroke="#000000" points=".5,-164 .5,-196 97.5,-196 97.5,-164 .5,-164"/>
<text text-anchor="start" x="30.3885" y="-177" font-family="Helvetica,sans-Serif" font-size="10.00" fill="#000000">&#45;nombre</text>
</g>
<!-- A1 -->
<g id="node2" class="node">
<title>A1</title>
<polygon fill="none" stroke="#000000" points="147,-202 147,-234 309,-234 309,-202 147,-202"/>
<text text-anchor="start" x="211.883" y="-215" font-family="Helvetica,sans-Serif" font-size="10.00" fill="#000000">Seguro</text>
<polygon fill="none" stroke="#000000" points="147,-158 147,-202 309,-202 309,-158 147,-158"/>
<text text-anchor="start" x="156.6015" y="-183" font-family="Helvetica,sans-Serif" font-size="10.00" fill="#000000">&#45;coberturas:Cobertura［*］</text>
<text text-anchor="start" x="199.386" y="-171" font-family="Helvetica,sans-Serif" font-size="10.00" fill="#000000">&#45;valor:Entero</text>
</g>
<!-- A0&#45;&gt;A1 -->
<g id="edge1" class="edge">
<title>A0&#45;&gt;A1</title>
<path fill="none" stroke="#000000" d="M109.3279,-196C118.1915,-196 127.4765,-196 136.7826,-196"/>
<polygon fill="none" stroke="#000000" points="109.0753,-196.0001 103.0753,-200 97.0753,-196 103.0753,-192 109.0753,-196.0001"/>
<polygon fill="#000000" stroke="#000000" points="146.87,-196 136.87,-200.5001 141.87,-196 136.87,-196.0001 136.87,-196.0001 136.87,-196.0001 141.87,-196 136.8699,-191.5001 146.87,-196 146.87,-196"/>
<text text-anchor="middle" x="128.7438" y="-201.4524" font-family="Helvetica,sans-Serif" font-size="10.00" fill="#000000">seguros*</text>
<text text-anchor="middle" x="115.2014" y="-184.5476" font-family="Helvetica,sans-Serif" font-size="10.00" fill="#000000">1</text>
</g>
<!-- A2 -->
<g id="node3" class="node">
<title>A2</title>
<polygon fill="none" stroke="#000000" points="463.2404,-160 382.7596,-160 382.7596,-124 463.2404,-124 463.2404,-160"/>
<text text-anchor="middle" x="423" y="-139" font-family="Helvetica,sans-Serif" font-size="10.00" fill="#000000">SeguroVida</text>
</g>
<!-- A1&#45;&gt;A2 -->
<g id="edge3" class="edge">
<title>A1&#45;&gt;A2</title>
<path fill="none" stroke="#000000" d="M318.8983,-170.8282C341.2903,-164.6273 364.1489,-158.2972 382.7206,-153.1543"/>
<polygon fill="none" stroke="#000000" points="317.7067,-167.5263 309.0035,-173.5683 319.5749,-174.2725 317.7067,-167.5263"/>
</g>
<!-- A3 -->
<g id="node4" class="node">
<title>A3</title>
<polygon fill="none" stroke="#000000" points="472.0779,-214 373.9221,-214 373.9221,-178 472.0779,-178 472.0779,-214"/>
<text text-anchor="middle" x="423" y="-193" font-family="Helvetica,sans-Serif" font-size="10.00" fill="#000000">SeguroVehiculo</text>
</g>
<!-- A1&#45;&gt;A3 -->
<g id="edge4" class="edge">
<title>A1&#45;&gt;A3</title>
<path fill="none" stroke="#000000" d="M319.1103,-196C337.9432,-196 357.0954,-196 373.7401,-196"/>
<polygon fill="none" stroke="#000000" points="319.0035,-192.5001 309.0035,-196 319.0035,-199.5001 319.0035,-192.5001"/>
</g>
<!-- A4 -->
<g id="node5" class="node">
<title>A4</title>
<polygon fill="none" stroke="#000000" points="359,-358 359,-390 487,-390 487,-358 359,-358"/>
<text text-anchor="start" x="387.7115" y="-371" font-family="Helvetica,sans-Serif" font-size="10.00" fill="#000000">SeguroVivienda</text>
<polygon fill="none" stroke="#000000" points="359,-326 359,-358 487,-358 487,-326 359,-326"/>
<text text-anchor="start" x="368.8245" y="-339" font-family="Helvetica,sans-Serif" font-size="10.00" fill="#000000">&#45;fechaNacimiento:Fecha</text>
</g>
<!-- A1&#45;&gt;A4 -->
<g id="edge5" class="edge">
<title>A1&#45;&gt;A4</title>
<path fill="none" stroke="#000000" d="M273.0549,-241.3095C297.5488,-264.9727 328.9134,-293.7581 359,-317 362.8638,-319.9848 366.9476,-322.9632 371.1071,-325.8748"/>
<polygon fill="none" stroke="#000000" points="275.2926,-238.6036 265.6829,-234.1421 270.4129,-243.6225 275.2926,-238.6036"/>
</g>
<!-- A6 -->
<g id="node7" class="node">
<title>A6</title>
<polygon fill="none" stroke="#000000" points="386,-74 386,-106 460,-106 460,-74 386,-74"/>
<text text-anchor="start" x="407.4435" y="-87" font-family="Helvetica,sans-Serif" font-size="10.00" fill="#000000">Cliente</text>
<polygon fill="none" stroke="#000000" points="386,-42 386,-74 460,-74 460,-42 386,-42"/>
<text text-anchor="start" x="395.5005" y="-55" font-family="Helvetica,sans-Serif" font-size="10.00" fill="#000000">&#45;email:Texto</text>
</g>
<!-- A1&#45;&gt;A6 -->
<g id="edge2" class="edge">
<title>A1&#45;&gt;A6</title>
<path fill="none" stroke="#000000" d="M299.1214,-151.5035C325.1621,-135.2114 353.9175,-117.2209 377.1634,-102.6773"/>
<polygon fill="none" stroke="#000000" points="299.0702,-151.5355 296.1052,-158.1089 288.8971,-157.9003 291.8621,-151.3269 299.0702,-151.5355"/>
<polygon fill="#000000" stroke="#000000" points="385.7857,-97.2828 379.6949,-106.4016 381.5469,-99.9348 377.3082,-102.5867 377.3082,-102.5867 377.3082,-102.5867 381.5469,-99.9348 374.9214,-98.7718 385.7857,-97.2828 385.7857,-97.2828"/>
<text text-anchor="middle" x="374.9022" y="-111.0622" font-family="Helvetica,sans-Serif" font-size="10.00" fill="#000000">1</text>
<text text-anchor="middle" x="299.7806" y="-138.1208" font-family="Helvetica,sans-Serif" font-size="10.00" fill="#000000">*</text>
</g>
<!-- A9 -->
<g id="node10" class="node">
<title>A9</title>
<polygon fill="none" stroke="#000000" points="373,-276 373,-308 474,-308 474,-276 373,-276"/>
<text text-anchor="start" x="401.2745" y="-289" font-family="Helvetica,sans-Serif" font-size="10.00" fill="#000000">Cobertura</text>
<polygon fill="none" stroke="#000000" points="373,-232 373,-276 474,-276 474,-232 373,-232"/>
<text text-anchor="start" x="382.662" y="-257" font-family="Helvetica,sans-Serif" font-size="10.00" fill="#000000">&#45;descripcion:Texto</text>
<text text-anchor="start" x="391.8265" y="-245" font-family="Helvetica,sans-Serif" font-size="10.00" fill="#000000">&#45;monto:Entero</text>
</g>
<!-- A1&#45;&gt;A9 -->
<g id="edge8" class="edge">
<title>A1&#45;&gt;A9</title>
<path fill="none" stroke="#000000" d="M320.394,-231.0623C334.7887,-236.5249 349.3322,-242.044 362.7649,-247.1416"/>
<polygon fill="none" stroke="#000000" points="320.2228,-230.9974 313.1939,-232.6084 309.0035,-226.7398 316.0324,-225.1288 320.2228,-230.9974"/>
<polygon fill="#000000" stroke="#000000" points="372.3317,-250.772 361.3856,-251.4312 367.657,-248.998 362.9822,-247.224 362.9822,-247.224 362.9822,-247.224 367.657,-248.998 364.5789,-243.0167 372.3317,-250.772 372.3317,-250.772"/>
<text text-anchor="middle" x="352.3859" y="-249.2434" font-family="Helvetica,sans-Serif" font-size="10.00" fill="#000000">coberturas*</text>
<text text-anchor="middle" x="328.9493" y="-222.2684" font-family="Helvetica,sans-Serif" font-size="10.00" fill="#000000">1</text>
</g>
<!-- A7 -->
<g id="node8" class="node">
<title>A7</title>
<polygon fill="none" stroke="#000000" points="565.5,-55 565.5,-87 658.5,-87 658.5,-55 565.5,-55"/>
<text text-anchor="start" x="585.8855" y="-68" font-family="Helvetica,sans-Serif" font-size="10.00" fill="#000000">Beneficiario</text>
<polygon fill="none" stroke="#000000" points="565.5,-23 565.5,-55 658.5,-55 658.5,-23 565.5,-23"/>
<text text-anchor="start" x="575.3275" y="-36" font-family="Helvetica,sans-Serif" font-size="10.00" fill="#000000">&#45;porcentaje:Real</text>
</g>
<!-- A2&#45;&gt;A7 -->
<g id="edge13" class="edge">
<title>A2&#45;&gt;A7</title>
<path fill="none" stroke="#000000" d="M474.5662,-120.5089C478.7839,-118.6711 482.9712,-116.8193 487,-115 509.5727,-104.807 534.1839,-93.0788 555.5197,-82.7108"/>
<polygon fill="none" stroke="#000000" points="474.4403,-120.5631 470.5113,-126.6099 463.4185,-125.3088 467.3475,-119.2621 474.4403,-120.5631"/>
<polygon fill="#000000" stroke="#000000" points="564.7592,-78.2066 557.7423,-86.6336 560.2648,-80.3976 555.7704,-82.5886 555.7704,-82.5886 555.7704,-82.5886 560.2648,-80.3976 553.7985,-78.5436 564.7592,-78.2066 564.7592,-78.2066"/>
</g>
<!-- A11 -->
<g id="node12" class="node">
<title>A11</title>
<polygon fill="none" stroke="#000000" points="571.5,-214 571.5,-246 652.5,-246 652.5,-214 571.5,-214"/>
<text text-anchor="start" x="592.8285" y="-227" font-family="Helvetica,sans-Serif" font-size="10.00" fill="#000000">Vehiculo</text>
<polygon fill="none" stroke="#000000" points="571.5,-146 571.5,-214 652.5,-214 652.5,-146 571.5,-146"/>
<text text-anchor="start" x="584.495" y="-195" font-family="Helvetica,sans-Serif" font-size="10.00" fill="#000000">&#45;placa:Texto</text>
<text text-anchor="start" x="581.17" y="-183" font-family="Helvetica,sans-Serif" font-size="10.00" fill="#000000">&#45;marca:Marca</text>
<text text-anchor="start" x="581.7155" y="-171" font-family="Helvetica,sans-Serif" font-size="10.00" fill="#000000">modelo:Texto</text>
<text text-anchor="start" x="585.0505" y="-159" font-family="Helvetica,sans-Serif" font-size="10.00" fill="#000000">valor:Entero</text>
</g>
<!-- A3&#45;&gt;A11 -->
<g id="edge10" class="edge">
<title>A3&#45;&gt;A11</title>
<path fill="none" stroke="#000000" d="M484.7502,-196C509.3859,-196 537.3975,-196 560.811,-196"/>
<polygon fill="none" stroke="#000000" points="484.5262,-196.0001 478.5261,-200 472.5262,-196 478.5262,-192 484.5262,-196.0001"/>
<polygon fill="#000000" stroke="#000000" points="570.8775,-196 560.8775,-200.5001 565.8775,-196 560.8775,-196.0001 560.8775,-196.0001 560.8775,-196.0001 565.8775,-196 560.8774,-191.5001 570.8775,-196 570.8775,-196"/>
</g>
<!-- A8 -->
<g id="node9" class="node">
<title>A8</title>
<polygon fill="none" stroke="#000000" points="537.5,-370 537.5,-402 686.5,-402 686.5,-370 537.5,-370"/>
<text text-anchor="start" x="592.8285" y="-383" font-family="Helvetica,sans-Serif" font-size="10.00" fill="#000000">Vivienda</text>
<polygon fill="none" stroke="#000000" points="537.5,-314 537.5,-370 686.5,-370 686.5,-314 537.5,-314"/>
<text text-anchor="start" x="578.106" y="-351" font-family="Helvetica,sans-Serif" font-size="10.00" fill="#000000">direccion:Texto</text>
<text text-anchor="start" x="585.0505" y="-339" font-family="Helvetica,sans-Serif" font-size="10.00" fill="#000000">valor:Entero</text>
<text text-anchor="start" x="547.276" y="-327" font-family="Helvetica,sans-Serif" font-size="10.00" fill="#000000">materiales:Material［*］</text>
</g>
<!-- A4&#45;&gt;A8 -->
<g id="edge12" class="edge">
<title>A4&#45;&gt;A8</title>
<path fill="none" stroke="#000000" d="M499.2979,-358C508.303,-358 517.5351,-358 526.6488,-358"/>
<polygon fill="none" stroke="#000000" points="499.0805,-358.0001 493.0805,-362 487.0805,-358 493.0806,-354 499.0805,-358.0001"/>
<polygon fill="#000000" stroke="#000000" points="536.8697,-358 526.8698,-362.5001 531.8697,-358 526.8697,-358.0001 526.8697,-358.0001 526.8697,-358.0001 531.8697,-358 526.8697,-353.5001 536.8697,-358 536.8697,-358"/>
</g>
<!-- A5 -->
<g id="node6" class="node">
<title>A5</title>
<polygon fill="none" stroke="#000000" points="166,-56 166,-88 291,-88 291,-56 166,-56"/>
<text text-anchor="start" x="209.883" y="-69" font-family="Helvetica,sans-Serif" font-size="10.00" fill="#000000">Persona</text>
<polygon fill="none" stroke="#000000" points="166,0 166,-56 291,-56 291,0 166,0"/>
<text text-anchor="start" x="195.996" y="-37" font-family="Helvetica,sans-Serif" font-size="10.00" fill="#000000">&#45;nombre:Texto</text>
<text text-anchor="start" x="184.049" y="-25" font-family="Helvetica,sans-Serif" font-size="10.00" fill="#000000">&#45;identificacion:Texto</text>
<text text-anchor="start" x="175.9895" y="-13" font-family="Helvetica,sans-Serif" font-size="10.00" fill="#000000">&#45;numeroContacto:Texto</text>
</g>
<!-- A5&#45;&gt;A6 -->
<g id="edge6" class="edge">
<title>A5&#45;&gt;A6</title>
<path fill="none" stroke="#000000" d="M300.6118,-55.171C329.6117,-59.6326 361.7598,-64.5784 385.828,-68.2812"/>
<polygon fill="none" stroke="#000000" points="300.9198,-51.6773 290.5038,-53.616 299.8553,-58.5959 300.9198,-51.6773"/>
</g>
<!-- A5&#45;&gt;A7 -->
<g id="edge7" class="edge">
<title>A5&#45;&gt;A7</title>
<path fill="none" stroke="#000000" d="M300.7668,-35.8738C352.7372,-31.2984 424.2677,-27.5 487,-33 512.9107,-35.2717 541.5101,-40.1542 564.7572,-44.7437"/>
<polygon fill="none" stroke="#000000" points="300.2829,-32.4033 290.642,-36.7967 300.9184,-39.3744 300.2829,-32.4033"/>
</g>
<!-- A10 -->
<g id="node11" class="node">
<title>A10</title>
<polygon fill="none" stroke="#000000" points="738,-358 738,-390 819,-390 819,-358 738,-358"/>
<text text-anchor="start" x="760.724" y="-371" font-family="Helvetica,sans-Serif" font-size="10.00" fill="#000000">Material</text>
<polygon fill="none" stroke="#000000" points="738,-326 738,-358 819,-358 819,-326 738,-326"/>
<text text-anchor="start" x="747.6605" y="-339" font-family="Helvetica,sans-Serif" font-size="10.00" fill="#000000">nombre:Texto</text>
</g>
<!-- A8&#45;&gt;A10 -->
<g id="edge11" class="edge">
<title>A8&#45;&gt;A10</title>
<path fill="none" stroke="#000000" d="M698.7699,-358C708.3971,-358 717.9525,-358 726.9195,-358"/>
<polygon fill="none" stroke="#000000" points="698.4697,-358.0001 692.4697,-362 686.4697,-358 692.4697,-354 698.4697,-358.0001"/>
<polygon fill="#000000" stroke="#000000" points="737.1446,-358 727.1447,-362.5001 732.1446,-358 727.1446,-358.0001 727.1446,-358.0001 727.1446,-358.0001 732.1446,-358 727.1446,-353.5001 737.1446,-358 737.1446,-358"/>
</g>
<!-- A12 -->
<g id="node13" class="node">
<title>A12</title>
<polygon fill="none" stroke="#000000" points="736,-196 736,-228 820,-228 820,-196 736,-196"/>
<text text-anchor="start" x="764.112" y="-209" font-family="Helvetica,sans-Serif" font-size="10.00" fill="#000000">Marca</text>
<polygon fill="none" stroke="#000000" points="736,-164 736,-196 820,-196 820,-164 736,-164"/>
<text text-anchor="start" x="745.7755" y="-177" font-family="Helvetica,sans-Serif" font-size="10.00" fill="#000000">nombre:Marca</text>
</g>
<!-- A11&#45;&gt;A12 -->
<g id="edge9" class="edge">
<title>A11&#45;&gt;A12</title>
<path fill="none" stroke="#000000" d="M664.2995,-196C683.9069,-196 706.1282,-196 725.6916,-196"/>
<polygon fill="none" stroke="#000000" points="664.2305,-196.0001 658.2304,-200 652.2305,-196 658.2305,-192 664.2305,-196.0001"/>
<polygon fill="#000000" stroke="#000000" points="735.9514,-196 725.9515,-200.5001 730.9514,-196 725.9514,-196.0001 725.9514,-196.0001 725.9514,-196.0001 730.9514,-196 725.9514,-191.5001 735.9514,-196 735.9514,-196"/>
</g>
</g>
</svg>
